M48
; DRILL file {KiCad 9.0.7} date 2026-02-21T03:41:39+0200
; FORMAT={-:-/ absolute / metric / decimal}
; #@! TF.CreationDate,2026-02-21T03:41:39+02:00
; #@! TF.GenerationSoftware,Kicad,Pcbnew,9.0.7
; #@! TF.FileFunction,Plated,1,2,PTH
FMAT,2
METRIC
; #@! TA.AperFunction,Plated,PTH,ViaDrill
T1C0.300
; #@! TA.AperFunction,Plated,PTH,ComponentDrill
T2C0.800
; #@! TA.AperFunction,Plated,PTH,ComponentDrill
T3C0.900
%
G90
G05
T1
X123.913Y-195.58
X125.969Y-207.449
X127.576Y-189.16
X128.476Y-181.837
X131.202Y-152.283
X131.329Y-200.787
X135.052Y-194.086
X135.255Y-165.238
X135.742Y-166.138
X135.945Y-184.06
X136.019Y-167.134
X136.87Y-182.234
X136.87Y-186.69
X136.955Y-160.628
X138.228Y-161.901
X139.573Y-160.655
X141.351Y-183.134
X143.79Y-172.492
X145.271Y-164.315
X145.415Y-166.497
X145.655Y-165.238
X146.729Y-150.684
X147.371Y-171.044
X149.114Y-151.495
X150.494Y-160.4
X152.944Y-153.308
T2
X133.604Y-153.797
X133.858Y-149.606
X135.509Y-155.702
X135.763Y-151.638
X136.017Y-147.447
X137.668Y-153.543
X137.922Y-149.479
X138.43Y-156.591
X139.827Y-151.384
X140.03Y-147.345
X140.716Y-154.305
X141.961Y-149.276
X143.129Y-152.019
T3
X112.999Y-236.048
X114.277Y-228.904
X114.795Y-234.252
X115.477Y-221.684
X116.073Y-227.108
X116.677Y-214.464
X117.273Y-219.888
X117.877Y-207.244
X118.473Y-212.668
X118.703Y-225.292
X119.077Y-200.024
X119.673Y-205.448
X120.277Y-192.804
X120.873Y-198.228
X121.243Y-225.292
X121.477Y-185.584
X122.073Y-191.008
X122.483Y-218.962
X122.677Y-178.364
X123.273Y-183.788
X123.877Y-171.144
X124.473Y-176.568
X125.023Y-218.962
X125.077Y-163.924
X125.673Y-169.348
X126.263Y-212.632
X126.277Y-156.704
X126.873Y-162.128
X127.477Y-149.484
X128.073Y-154.908
X128.803Y-212.632
X129.273Y-147.688
X130.043Y-206.302
X132.583Y-206.302
X132.842Y-143.916
X133.823Y-199.972
X134.638Y-142.12
X136.363Y-199.972
X137.603Y-193.642
X139.92Y-143.916
X140.143Y-193.642
X141.383Y-187.312
X141.716Y-142.12
X143.923Y-187.312
X145.163Y-180.982
X146.998Y-143.916
X147.703Y-180.982
X148.794Y-142.12
X148.943Y-174.652
X151.483Y-174.652
X152.723Y-168.322
X154.076Y-143.916
X155.263Y-168.322
X155.872Y-142.12
X156.503Y-161.992
X159.043Y-161.992
X160.283Y-155.662
X161.154Y-143.916
X162.823Y-155.662
X162.95Y-142.12
X164.063Y-149.332
X166.603Y-149.332
X168.232Y-143.916
X170.028Y-142.12
M30
