%TF.GenerationSoftware,KiCad,Pcbnew,10.0.2*%
%TF.CreationDate,2026-06-25T10:32:49+03:00*%
%TF.ProjectId,kicad_selka_rev2,6b696361-645f-4736-956c-6b615f726576,2*%
%TF.SameCoordinates,Original*%
%TF.FileFunction,Copper,L2,Bot*%
%TF.FilePolarity,Positive*%
%FSLAX46Y46*%
G04 Gerber Fmt 4.6, Leading zero omitted, Abs format (unit mm)*
G04 Created by KiCad (PCBNEW 10.0.2) date 2026-06-25 10:32:49*
%MOMM*%
%LPD*%
G01*
G04 APERTURE LIST*
G04 Aperture macros list*
%AMRoundRect*
0 Rectangle with rounded corners*
0 $1 Rounding radius*
0 $2 $3 $4 $5 $6 $7 $8 $9 X,Y pos of 4 corners*
0 Add a 4 corners polygon primitive as box body*
4,1,4,$2,$3,$4,$5,$6,$7,$8,$9,$2,$3,0*
0 Add four circle primitives for the rounded corners*
1,1,$1+$1,$2,$3*
1,1,$1+$1,$4,$5*
1,1,$1+$1,$6,$7*
1,1,$1+$1,$8,$9*
0 Add four rect primitives between the rounded corners*
20,1,$1+$1,$2,$3,$4,$5,0*
20,1,$1+$1,$4,$5,$6,$7,0*
20,1,$1+$1,$6,$7,$8,$9,0*
20,1,$1+$1,$8,$9,$2,$3,0*%
%AMHorizOval*
0 Thick line with rounded ends*
0 $1 width*
0 $2 $3 position (X,Y) of the first rounded end (center of the circle)*
0 $4 $5 position (X,Y) of the second rounded end (center of the circle)*
0 Add line between two ends*
20,1,$1,$2,$3,$4,$5,0*
0 Add two circle primitives to create the rounded ends*
1,1,$1,$2,$3*
1,1,$1,$4,$5*%
G04 Aperture macros list end*
%TA.AperFunction,ComponentPad*%
%ADD10RoundRect,0.250000X0.000000X-0.919239X0.919239X0.000000X0.000000X0.919239X-0.919239X0.000000X0*%
%TD*%
%TA.AperFunction,ComponentPad*%
%ADD11C,1.800000*%
%TD*%
%TA.AperFunction,ComponentPad*%
%ADD12RoundRect,0.250000X-0.919239X0.000000X0.000000X-0.919239X0.919239X0.000000X0.000000X0.919239X0*%
%TD*%
%TA.AperFunction,ComponentPad*%
%ADD13RoundRect,0.250000X0.650000X0.650000X-0.650000X0.650000X-0.650000X-0.650000X0.650000X-0.650000X0*%
%TD*%
%TA.AperFunction,ComponentPad*%
%ADD14RoundRect,0.250000X-0.650000X-0.650000X0.650000X-0.650000X0.650000X0.650000X-0.650000X0.650000X0*%
%TD*%
%TA.AperFunction,ComponentPad*%
%ADD15RoundRect,0.250000X0.919239X0.000000X0.000000X0.919239X-0.919239X0.000000X0.000000X-0.919239X0*%
%TD*%
%TA.AperFunction,ComponentPad*%
%ADD16RoundRect,0.250000X-0.650000X0.650000X-0.650000X-0.650000X0.650000X-0.650000X0.650000X0.650000X0*%
%TD*%
%TA.AperFunction,ComponentPad*%
%ADD17RoundRect,0.250000X0.650000X-0.650000X0.650000X0.650000X-0.650000X0.650000X-0.650000X-0.650000X0*%
%TD*%
%TA.AperFunction,ComponentPad*%
%ADD18RoundRect,0.250000X0.000000X0.919239X-0.919239X0.000000X0.000000X-0.919239X0.919239X0.000000X0*%
%TD*%
%TA.AperFunction,SMDPad,CuDef*%
%ADD19RoundRect,0.150000X-0.512652X-0.724784X0.724784X0.512652X0.512652X0.724784X-0.724784X-0.512652X0*%
%TD*%
%TA.AperFunction,SMDPad,CuDef*%
%ADD20RoundRect,0.250000X-0.477297X1.042983X-1.042983X0.477297X0.477297X-1.042983X1.042983X-0.477297X0*%
%TD*%
%TA.AperFunction,ComponentPad*%
%ADD21RoundRect,0.250000X-0.848528X0.000000X0.000000X-0.848528X0.848528X0.000000X0.000000X0.848528X0*%
%TD*%
%TA.AperFunction,ComponentPad*%
%ADD22C,1.700000*%
%TD*%
%TA.AperFunction,SMDPad,CuDef*%
%ADD23RoundRect,0.250000X0.625000X-0.400000X0.625000X0.400000X-0.625000X0.400000X-0.625000X-0.400000X0*%
%TD*%
%TA.AperFunction,ComponentPad*%
%ADD24RoundRect,0.250000X0.848528X0.000000X0.000000X0.848528X-0.848528X0.000000X0.000000X-0.848528X0*%
%TD*%
%TA.AperFunction,SMDPad,CuDef*%
%ADD25C,1.700000*%
%TD*%
%TA.AperFunction,SMDPad,CuDef*%
%ADD26RoundRect,0.250001X-1.285165X-0.051265X-0.051265X-1.285165X1.285165X0.051265X0.051265X1.285165X0*%
%TD*%
%TA.AperFunction,SMDPad,CuDef*%
%ADD27RoundRect,0.250000X0.751301X0.167938X0.167938X0.751301X-0.751301X-0.167938X-0.167938X-0.751301X0*%
%TD*%
%TA.AperFunction,SMDPad,CuDef*%
%ADD28RoundRect,0.250000X-0.724784X-0.159099X-0.159099X-0.724784X0.724784X0.159099X0.159099X0.724784X0*%
%TD*%
%TA.AperFunction,SMDPad,CuDef*%
%ADD29RoundRect,0.250000X-0.751301X-0.167938X-0.167938X-0.751301X0.751301X0.167938X0.167938X0.751301X0*%
%TD*%
%TA.AperFunction,ComponentPad*%
%ADD30RoundRect,0.250000X0.600000X-0.600000X0.600000X0.600000X-0.600000X0.600000X-0.600000X-0.600000X0*%
%TD*%
%TA.AperFunction,ComponentPad*%
%ADD31RoundRect,0.250000X0.883883X-0.176777X-0.176777X0.883883X-0.883883X0.176777X0.176777X-0.883883X0*%
%TD*%
%TA.AperFunction,ComponentPad*%
%ADD32HorizOval,1.500000X-0.176777X0.176777X0.176777X-0.176777X0*%
%TD*%
%TA.AperFunction,SMDPad,CuDef*%
%ADD33RoundRect,0.250000X0.565685X0.070711X0.070711X0.565685X-0.565685X-0.070711X-0.070711X-0.565685X0*%
%TD*%
%TA.AperFunction,ViaPad*%
%ADD34C,0.600000*%
%TD*%
%TA.AperFunction,Conductor*%
%ADD35C,0.400000*%
%TD*%
%TA.AperFunction,Conductor*%
%ADD36C,0.800000*%
%TD*%
G04 APERTURE END LIST*
D10*
%TO.P,D46,1,K_1*%
%TO.N,Net-(D11-K)*%
X60974101Y-121823749D03*
D11*
%TO.P,D46,2,A_2*%
%TO.N,Net-(D1-K)*%
X62770152Y-120027698D03*
%TD*%
D12*
%TO.P,D62,1,K_1*%
%TO.N,Net-(D10-A)*%
X67176501Y-50421427D03*
D11*
%TO.P,D62,2,A_2*%
%TO.N,Net-(D51-K)*%
X68972552Y-52217478D03*
%TD*%
D12*
%TO.P,D60,1,K_1*%
%TO.N,Net-(D10-A)*%
X59616501Y-63081427D03*
D11*
%TO.P,D60,2,A_2*%
%TO.N,Net-(D49-K)*%
X61412552Y-64877478D03*
%TD*%
D13*
%TO.P,D10,1,K_1*%
%TO.N,Net-(D1-A)*%
X72121054Y-93701037D03*
D11*
%TO.P,D10,2,A_2*%
%TO.N,Net-(D10-A)*%
X69581054Y-93701037D03*
%TD*%
D14*
%TO.P,D11,1,K_1*%
%TO.N,Net-(D11-K)*%
X68371054Y-100921037D03*
D11*
%TO.P,D11,2,A_2*%
%TO.N,Net-(D1-A)*%
X70911054Y-100921037D03*
%TD*%
D12*
%TO.P,D58,1,K_1*%
%TO.N,Net-(D10-A)*%
X52056501Y-75741427D03*
D11*
%TO.P,D58,2,A_2*%
%TO.N,Net-(D3-K)*%
X53852552Y-77537478D03*
%TD*%
D12*
%TO.P,D56,1,K_1*%
%TO.N,Net-(D10-A)*%
X44496501Y-88401427D03*
D11*
%TO.P,D56,2,A_2*%
%TO.N,Net-(D1-K)*%
X46292552Y-90197478D03*
%TD*%
D15*
%TO.P,D57,1,K_1*%
%TO.N,Net-(D3-K)*%
X50079423Y-83883149D03*
D11*
%TO.P,D57,2,A_2*%
%TO.N,Net-(D10-A)*%
X48283372Y-82087098D03*
%TD*%
D16*
%TO.P,D47,1,K_1*%
%TO.N,Net-(D3-K)*%
X54789062Y-119672588D03*
D11*
%TO.P,D47,2,A_2*%
%TO.N,Net-(D11-K)*%
X54789062Y-122212588D03*
%TD*%
D14*
%TO.P,D1,1,K_1*%
%TO.N,Net-(D1-K)*%
X80463462Y-28821788D03*
D11*
%TO.P,D1,2,A_2*%
%TO.N,Net-(D1-A)*%
X83003462Y-28821788D03*
%TD*%
D12*
%TO.P,D54,1,K_1*%
%TO.N,Net-(D11-K)*%
X36936501Y-101061427D03*
D11*
%TO.P,D54,2,A_2*%
%TO.N,Net-(D10-A)*%
X38732552Y-102857478D03*
%TD*%
D15*
%TO.P,D63,1,K_1*%
%TO.N,Net-(D1-K)*%
X72759423Y-45903149D03*
D11*
%TO.P,D63,2,A_2*%
%TO.N,Net-(D51-K)*%
X70963372Y-44107098D03*
%TD*%
D13*
%TO.P,D2,1,K_1*%
%TO.N,Net-(D1-A)*%
X81721054Y-35941037D03*
D11*
%TO.P,D2,2,A_2*%
%TO.N,Net-(D1-K)*%
X79181054Y-35941037D03*
%TD*%
D16*
%TO.P,D49,1,K_1*%
%TO.N,Net-(D49-K)*%
X40633062Y-119672588D03*
D11*
%TO.P,D49,2,A_2*%
%TO.N,Net-(D11-K)*%
X40633062Y-122212588D03*
%TD*%
D17*
%TO.P,D48,1,K_1*%
%TO.N,Net-(D11-K)*%
X47727862Y-122217588D03*
D11*
%TO.P,D48,2,A_2*%
%TO.N,Net-(D3-K)*%
X47727862Y-119677588D03*
%TD*%
D18*
%TO.P,D51,1,K_1*%
%TO.N,Net-(D51-K)*%
X27369623Y-120046027D03*
D11*
%TO.P,D51,2,A_2*%
%TO.N,Net-(D11-K)*%
X25573572Y-121842078D03*
%TD*%
D13*
%TO.P,D8,1,K_1*%
%TO.N,Net-(D1-A)*%
X74521054Y-79261037D03*
D11*
%TO.P,D8,2,A_2*%
%TO.N,Net-(D51-K)*%
X71981054Y-79261037D03*
%TD*%
D15*
%TO.P,D53,1,K_1*%
%TO.N,Net-(D10-A)*%
X34959423Y-109203149D03*
D11*
%TO.P,D53,2,A_2*%
%TO.N,Net-(D11-K)*%
X33163372Y-107407098D03*
%TD*%
D14*
%TO.P,D3,1,K_1*%
%TO.N,Net-(D3-K)*%
X77971054Y-43161037D03*
D11*
%TO.P,D3,2,A_2*%
%TO.N,Net-(D1-A)*%
X80511054Y-43161037D03*
%TD*%
D14*
%TO.P,D9,1,K_1*%
%TO.N,Net-(D10-A)*%
X70771054Y-86481037D03*
D11*
%TO.P,D9,2,A_2*%
%TO.N,Net-(D1-A)*%
X73311054Y-86481037D03*
%TD*%
D15*
%TO.P,D59,1,K_1*%
%TO.N,Net-(D49-K)*%
X57639423Y-71223149D03*
D11*
%TO.P,D59,2,A_2*%
%TO.N,Net-(D10-A)*%
X55843372Y-69427098D03*
%TD*%
D17*
%TO.P,D50,1,K_1*%
%TO.N,Net-(D11-K)*%
X33571862Y-122217588D03*
D11*
%TO.P,D50,2,A_2*%
%TO.N,Net-(D49-K)*%
X33571862Y-119677588D03*
%TD*%
D15*
%TO.P,D55,1,K_1*%
%TO.N,Net-(D1-K)*%
X42519423Y-96543149D03*
D11*
%TO.P,D55,2,A_2*%
%TO.N,Net-(D10-A)*%
X40723372Y-94747098D03*
%TD*%
D13*
%TO.P,D6,1,K_1*%
%TO.N,Net-(D1-A)*%
X76921054Y-64821037D03*
D11*
%TO.P,D6,2,A_2*%
%TO.N,Net-(D49-K)*%
X74381054Y-64821037D03*
%TD*%
D14*
%TO.P,D5,1,K_1*%
%TO.N,Net-(D49-K)*%
X75571054Y-57601037D03*
D11*
%TO.P,D5,2,A_2*%
%TO.N,Net-(D1-A)*%
X78111054Y-57601037D03*
%TD*%
D12*
%TO.P,D64,1,K_1*%
%TO.N,Net-(D51-K)*%
X74736501Y-37761427D03*
D11*
%TO.P,D64,2,A_2*%
%TO.N,Net-(D1-K)*%
X76532552Y-39557478D03*
%TD*%
D12*
%TO.P,D52,1,K_1*%
%TO.N,Net-(D11-K)*%
X29376501Y-113721427D03*
D11*
%TO.P,D52,2,A_2*%
%TO.N,Net-(D51-K)*%
X31172552Y-115517478D03*
%TD*%
D13*
%TO.P,D4,1,K_1*%
%TO.N,Net-(D1-A)*%
X79321054Y-50381037D03*
D11*
%TO.P,D4,2,A_2*%
%TO.N,Net-(D3-K)*%
X76781054Y-50381037D03*
%TD*%
D15*
%TO.P,D61,1,K_1*%
%TO.N,Net-(D51-K)*%
X65199423Y-58563149D03*
D11*
%TO.P,D61,2,A_2*%
%TO.N,Net-(D10-A)*%
X63403372Y-56767098D03*
%TD*%
D10*
%TO.P,D13,1,K_1*%
%TO.N,Net-(D1-K)*%
X66344493Y-116262598D03*
D11*
%TO.P,D13,2,A_2*%
%TO.N,Net-(D11-K)*%
X68140544Y-114466547D03*
%TD*%
D14*
%TO.P,D7,1,K_1*%
%TO.N,Net-(D51-K)*%
X73171054Y-72041037D03*
D11*
%TO.P,D7,2,A_2*%
%TO.N,Net-(D1-A)*%
X75711054Y-72041037D03*
%TD*%
D13*
%TO.P,D12,1,K_1*%
%TO.N,Net-(D1-A)*%
X69721054Y-108141037D03*
D11*
%TO.P,D12,2,A_2*%
%TO.N,Net-(D11-K)*%
X67181054Y-108141037D03*
%TD*%
D19*
%TO.P,U1,1,PB0_1*%
%TO.N,/PB0*%
X57980531Y-98457150D03*
%TO.P,U1,2,PB1_2*%
%TO.N,/PB1*%
X57082505Y-97559124D03*
%TO.P,U1,3,PB2_3*%
%TO.N,/PB2*%
X56184479Y-96661099D03*
%TO.P,U1,4,PB3_4*%
%TO.N,/PB3*%
X55286454Y-95763073D03*
%TO.P,U1,5,VCC_5*%
%TO.N,+5V*%
X54388428Y-94865047D03*
%TO.P,U1,6,GND_6*%
%TO.N,GND1*%
X53490403Y-93967022D03*
%TO.P,U1,7,XTAL1/PB4_7*%
%TO.N,/PB4*%
X52592377Y-93068996D03*
%TO.P,U1,8,XTAL2/PB5_8*%
%TO.N,/PB5*%
X51694351Y-92170971D03*
%TO.P,U1,9,PB6_9*%
%TO.N,/PB6*%
X50796326Y-91272945D03*
%TO.P,U1,10,~{RESET}/PB7_10*%
%TO.N,/PB7*%
X49898300Y-90374919D03*
%TO.P,U1,11,PA7_11*%
%TO.N,Net-(SW1-A)*%
X56474393Y-83798826D03*
%TO.P,U1,12,PA6_12*%
%TO.N,/CA6*%
X57372419Y-84696852D03*
%TO.P,U1,13,PA5_13*%
%TO.N,/CA5*%
X58270445Y-85594877D03*
%TO.P,U1,14,PA4_14*%
%TO.N,/CA4*%
X59168470Y-86492903D03*
%TO.P,U1,15,AVCC_15*%
%TO.N,+5V*%
X60066496Y-87390929D03*
%TO.P,U1,16,AGND_16*%
%TO.N,GND1*%
X60964521Y-88288954D03*
%TO.P,U1,17,AREF/PA3_17*%
%TO.N,/CA3*%
X61862547Y-89186980D03*
%TO.P,U1,18,PA2_18*%
%TO.N,/CA2*%
X62760573Y-90085005D03*
%TO.P,U1,19,PA1_19*%
%TO.N,/CA1*%
X63658598Y-90983031D03*
%TO.P,U1,20,PA0_20*%
%TO.N,/CA0*%
X64556624Y-91881057D03*
%TD*%
D20*
%TO.P,R15,1*%
%TO.N,+5V*%
X38613078Y-110580572D03*
%TO.P,R15,2*%
%TO.N,GND1*%
X36421046Y-112772604D03*
%TD*%
D21*
%TO.P,SW1,1,A_1*%
%TO.N,Net-(SW1-A)*%
X57968155Y-77052295D03*
D22*
%TO.P,SW1,2,B_2*%
%TO.N,GND1*%
X59764206Y-75256244D03*
%TD*%
D23*
%TO.P,R2,1*%
%TO.N,/CA1*%
X68251062Y-75939388D03*
%TO.P,R2,2*%
%TO.N,Net-(D3-K)*%
X68251062Y-72839388D03*
%TD*%
%TO.P,R3,1*%
%TO.N,/CA2*%
X63679062Y-79444588D03*
%TO.P,R3,2*%
%TO.N,Net-(D49-K)*%
X63679062Y-76344588D03*
%TD*%
D24*
%TO.P,J2,1,Pin_1_1*%
%TO.N,/PB0*%
X57299854Y-106096123D03*
D25*
%TO.P,J2,2,Pin_2_2*%
%TO.N,/PB1*%
X55503803Y-107892174D03*
%TO.P,J2,3,Pin_3_3*%
%TO.N,/PB2*%
X53707752Y-109688225D03*
%TO.P,J2,4,Pin_4_4*%
%TO.N,+5V*%
X51911700Y-111484277D03*
%TO.P,J2,5,Pin_5_5*%
%TO.N,GND1*%
X50115649Y-113280328D03*
D22*
%TO.P,J2,6,Pin_6_6*%
%TO.N,/PB7*%
X48319598Y-115076379D03*
%TD*%
D23*
%TO.P,R4,1*%
%TO.N,/CA3*%
X63729862Y-71697588D03*
%TO.P,R4,2*%
%TO.N,Net-(D51-K)*%
X63729862Y-68597588D03*
%TD*%
D26*
%TO.P,C1,1*%
%TO.N,+5V*%
X41296636Y-113805162D03*
%TO.P,C1,2*%
%TO.N,GND1*%
X44913488Y-117422014D03*
%TD*%
D27*
%TO.P,C2,1*%
%TO.N,+5V*%
X53201516Y-97389042D03*
%TO.P,C2,2*%
%TO.N,GND1*%
X50991808Y-95179334D03*
%TD*%
D28*
%TO.P,R5,1*%
%TO.N,/CA4*%
X65529446Y-95391372D03*
%TO.P,R5,2*%
%TO.N,Net-(D10-A)*%
X67721478Y-97583404D03*
%TD*%
D29*
%TO.P,C3,1*%
%TO.N,+5V*%
X61431208Y-84663734D03*
%TO.P,C3,2*%
%TO.N,GND1*%
X63640916Y-86873442D03*
%TD*%
D28*
%TO.P,R6,1*%
%TO.N,/CA5*%
X62887846Y-98007572D03*
%TO.P,R6,2*%
%TO.N,Net-(D11-K)*%
X65079878Y-100199604D03*
%TD*%
D30*
%TO.P,J1,1,Pin_1_1*%
%TO.N,+5V*%
X38333600Y-117518588D03*
D22*
%TO.P,J1,2,Pin_2_2*%
%TO.N,GND1*%
X35793600Y-117518588D03*
%TD*%
D31*
%TO.P,J3,1,Pin_1_1*%
%TO.N,/PB0*%
X62685210Y-107336441D03*
D32*
%TO.P,J3,2,Pin_2_2*%
%TO.N,/PB1*%
X61270996Y-108750655D03*
%TO.P,J3,3,Pin_3_3*%
%TO.N,/PB2*%
X59856783Y-110164868D03*
%TO.P,J3,4,Pin_4_4*%
%TO.N,/PB3*%
X58442569Y-111579082D03*
%TO.P,J3,5,Pin_5_5*%
%TO.N,/PB4*%
X57028356Y-112993295D03*
%TO.P,J3,6,Pin_6_6*%
%TO.N,/PB5*%
X55614142Y-114407509D03*
%TO.P,J3,7,Pin_7_7*%
%TO.N,/PB6*%
X54199929Y-115821722D03*
%TO.P,J3,8,Pin_8_8*%
%TO.N,GND1*%
X52785715Y-117235936D03*
%TD*%
D23*
%TO.P,R1,1*%
%TO.N,/CA0*%
X68251062Y-83914988D03*
%TO.P,R1,2*%
%TO.N,Net-(D1-K)*%
X68251062Y-80814988D03*
%TD*%
D33*
%TO.P,R16,1*%
%TO.N,+5V*%
X58518769Y-81624295D03*
%TO.P,R16,2*%
%TO.N,Net-(SW1-A)*%
X57104555Y-80210081D03*
%TD*%
D28*
%TO.P,R7,1*%
%TO.N,/CA6*%
X60220846Y-100547572D03*
%TO.P,R7,2*%
%TO.N,Net-(D1-A)*%
X62412878Y-102739604D03*
%TD*%
D34*
%TO.N,Net-(D1-K)*%
X68251062Y-79545588D03*
X71680062Y-61359188D03*
X53493662Y-88638788D03*
X68276462Y-82491988D03*
X71705462Y-52850188D03*
%TO.N,Net-(D51-K)*%
X49340762Y-87076688D03*
%TO.N,Net-(D49-K)*%
X53519062Y-87267188D03*
X65965062Y-72712988D03*
X63704462Y-77869188D03*
X51080662Y-87394188D03*
%TO.N,Net-(D3-K)*%
X68251062Y-67023388D03*
X68327262Y-59225588D03*
X68276462Y-74338588D03*
%TO.N,/PB3*%
X57887862Y-95826988D03*
%TO.N,+5V*%
X63373000Y-84150200D03*
X51917600Y-98672958D03*
%TO.N,GND1*%
X26264862Y-116070788D03*
X56033662Y-66820188D03*
X78588862Y-62756188D03*
X33350200Y-104571800D03*
X80900262Y-48125788D03*
X50698400Y-97409000D03*
X76226662Y-76954788D03*
X52350662Y-72916188D03*
X60199262Y-91127988D03*
X79681062Y-54577388D03*
X72492862Y-98697188D03*
X43587662Y-116027200D03*
X37339262Y-123563788D03*
X58954662Y-123538388D03*
X38609262Y-113657788D03*
X76556862Y-32987388D03*
X60351662Y-59962188D03*
X51410862Y-123614588D03*
X48183800Y-79908400D03*
X37084000Y-114960400D03*
X65482462Y-119194988D03*
X40436800Y-92659200D03*
X73788262Y-91356588D03*
X77166462Y-69131588D03*
X83338662Y-33520788D03*
X44171862Y-123589188D03*
X30024062Y-123563788D03*
X71426062Y-105631388D03*
X69673462Y-112006788D03*
X45034200Y-85064600D03*
X64236600Y-84988400D03*
X82475062Y-40150188D03*
X64008000Y-53721000D03*
X29819600Y-110413800D03*
X67743062Y-47389188D03*
X58801000Y-88671400D03*
X45669200Y-113004600D03*
X71170800Y-41706800D03*
X37642800Y-97612200D03*
X74829662Y-83812788D03*
%TO.N,/PB4*%
X53519062Y-90645388D03*
X50647600Y-101473000D03*
X49455062Y-96919188D03*
%TO.N,/PB5*%
X50639137Y-104859663D03*
%TO.N,/PB6*%
X47133937Y-104986663D03*
%TO.N,/PB7*%
X47083137Y-108288663D03*
%TO.N,/CA3*%
X63513962Y-82403088D03*
X61913762Y-91826488D03*
%TD*%
%TO.N,Net-(D1-K)*%
D35*
X80463462Y-28821788D02*
X80463462Y-30864738D01*
X80463462Y-30864738D02*
X79181054Y-32147146D01*
X79181054Y-32147146D02*
X79181054Y-35941037D01*
%TO.N,Net-(D3-K)*%
X50079423Y-83883149D02*
X51409600Y-82552972D01*
X51409600Y-82552972D02*
X51409600Y-79980430D01*
X51409600Y-79980430D02*
X53852552Y-77537478D01*
%TO.N,Net-(D11-K)*%
X65801311Y-100921037D02*
X64868769Y-99988495D01*
X54789062Y-122212588D02*
X60585262Y-122212588D01*
X64720462Y-113708588D02*
X67382585Y-113708588D01*
X31573462Y-110279588D02*
X31559505Y-110265631D01*
X47727862Y-122217588D02*
X40638062Y-122217588D01*
X26477062Y-122212588D02*
X25167662Y-122212588D01*
X60123062Y-120972710D02*
X60123062Y-118305988D01*
X35231062Y-105339408D02*
X35231062Y-102766866D01*
X60123062Y-118305988D02*
X64720462Y-113708588D01*
X27865062Y-116426388D02*
X25248862Y-119042588D01*
X25248862Y-119042588D02*
X25248862Y-121484388D01*
X31559505Y-109010965D02*
X33163372Y-107407098D01*
X33163372Y-107407098D02*
X35231062Y-105339408D01*
X67382585Y-113708588D02*
X68140544Y-114466547D01*
X68371054Y-100921037D02*
X68371054Y-103225396D01*
X31559505Y-110265631D02*
X31559505Y-109010965D01*
X67181054Y-104415396D02*
X67181054Y-108141037D01*
X29376501Y-113721427D02*
X27865062Y-115232866D01*
X33571862Y-122217588D02*
X26482062Y-122217588D01*
X27865062Y-115232866D02*
X27865062Y-116426388D01*
X29376501Y-113721427D02*
X31573462Y-111524466D01*
X31573462Y-111524466D02*
X31573462Y-110279588D01*
X68371054Y-103225396D02*
X67181054Y-104415396D01*
X35231062Y-102766866D02*
X36936501Y-101061427D01*
X26482062Y-122217588D02*
X26477062Y-122212588D01*
X40438062Y-122217588D02*
X33571862Y-122217588D01*
X54474262Y-122217588D02*
X47727862Y-122217588D01*
X68371054Y-100921037D02*
X65801311Y-100921037D01*
X60974101Y-121823749D02*
X60123062Y-120972710D01*
%TO.N,Net-(D1-K)*%
X66344493Y-116262598D02*
X62770152Y-119836939D01*
X42519423Y-96543149D02*
X43232062Y-95830510D01*
X43232062Y-95830510D02*
X43232062Y-93257968D01*
X71705462Y-46957110D02*
X72759423Y-45903149D01*
X53493662Y-88638788D02*
X47851242Y-88638788D01*
X74855062Y-43807510D02*
X72759423Y-45903149D01*
X76532552Y-39557478D02*
X79181054Y-36908976D01*
X79181054Y-36908976D02*
X79181054Y-35941037D01*
X70575162Y-77221488D02*
X68251062Y-79545588D01*
X76532552Y-39557478D02*
X74855062Y-41234968D01*
X71705462Y-52850188D02*
X71705462Y-46957110D01*
X68251062Y-80814987D02*
X68251062Y-79672588D01*
X71680062Y-61359188D02*
X70575162Y-62464088D01*
X74855062Y-41234968D02*
X74855062Y-43807510D01*
X43232062Y-93257968D02*
X46292552Y-90197478D01*
X68276462Y-82491988D02*
X68276462Y-80840388D01*
X70575162Y-62464088D02*
X70575162Y-77221488D01*
X47851242Y-88638788D02*
X46292552Y-90197478D01*
%TO.N,Net-(D10-A)*%
X34959423Y-109203149D02*
X37110662Y-107051910D01*
X37110662Y-104479368D02*
X38732552Y-102857478D01*
X41631862Y-91266066D02*
X44496501Y-88401427D01*
X70771054Y-86481037D02*
X70771054Y-88938196D01*
X52056501Y-75741427D02*
X54139662Y-73658266D01*
X48283372Y-82087098D02*
X46915062Y-83455408D01*
X63403372Y-56767098D02*
X65304662Y-54865808D01*
X57557662Y-65140266D02*
X57557662Y-67712808D01*
X54139662Y-71130808D02*
X55843372Y-69427098D01*
X37110662Y-107051910D02*
X37110662Y-104479368D01*
X65304662Y-54865808D02*
X65304662Y-52342188D01*
X49531262Y-80839208D02*
X48283372Y-82087098D01*
X61875662Y-60822266D02*
X59616501Y-63081427D01*
X39828462Y-101761568D02*
X39828462Y-95642008D01*
X46915062Y-83455408D02*
X46915062Y-85982866D01*
X70771054Y-88938196D02*
X69581054Y-90128196D01*
X69581054Y-90128196D02*
X69581054Y-93701037D01*
X59616501Y-63081427D02*
X57557662Y-65140266D01*
X38732552Y-102857478D02*
X39828462Y-101761568D01*
X63403372Y-57266078D02*
X61875662Y-58793788D01*
X61875662Y-58793788D02*
X61875662Y-60822266D01*
X54139662Y-73658266D02*
X54139662Y-71130808D01*
X52056501Y-75902749D02*
X49531262Y-78427988D01*
X39828462Y-95642008D02*
X40723372Y-94747098D01*
X40723372Y-94747098D02*
X41631862Y-93838608D01*
X49531262Y-78427988D02*
X49531262Y-80839208D01*
X57557662Y-67712808D02*
X55843372Y-69427098D01*
X65304662Y-52342188D02*
X67176501Y-50470349D01*
X46915062Y-85982866D02*
X44496501Y-88401427D01*
X41631862Y-93838608D02*
X41631862Y-91266066D01*
X69581054Y-95723828D02*
X69581054Y-93701037D01*
X67721478Y-97583404D02*
X69581054Y-95723828D01*
%TO.N,Net-(D51-K)*%
X71981054Y-75663196D02*
X73171054Y-74473196D01*
X27369623Y-120046027D02*
X31172552Y-116243098D01*
X73171054Y-74473196D02*
X73171054Y-72041037D01*
X69343262Y-45727208D02*
X70963372Y-44107098D01*
X72543662Y-39954266D02*
X72543662Y-42526808D01*
X50832703Y-85590788D02*
X50826662Y-85590788D01*
X69343262Y-51846768D02*
X69343262Y-45727208D01*
X56033662Y-75964188D02*
X56033662Y-77945388D01*
X50826662Y-85590788D02*
X49340762Y-87076688D01*
X65199423Y-60804027D02*
X65199423Y-58563149D01*
X56033662Y-77945388D02*
X53214262Y-80764788D01*
X63145662Y-68852188D02*
X56033662Y-75964188D01*
X63729862Y-62273588D02*
X65199423Y-60804027D01*
X67412862Y-53777168D02*
X68972552Y-52217478D01*
X53214262Y-83209229D02*
X50832703Y-85590788D01*
X65199423Y-58563149D02*
X67412862Y-56349710D01*
X63729862Y-68597588D02*
X63729862Y-62273588D01*
X67412862Y-56349710D02*
X67412862Y-53777168D01*
X31172552Y-116243098D02*
X31172552Y-115517478D01*
X71981054Y-79261037D02*
X71981054Y-75663196D01*
X53214262Y-80764788D02*
X53214262Y-83209229D01*
X72543662Y-42526808D02*
X70963372Y-44107098D01*
X74736501Y-37761427D02*
X72543662Y-39954266D01*
%TO.N,Net-(D49-K)*%
X73050613Y-57601037D02*
X75571054Y-57601037D01*
X59615062Y-66674968D02*
X61412552Y-64877478D01*
X40633062Y-119672588D02*
X33576862Y-119672588D01*
X65965062Y-64686588D02*
X73050613Y-57601037D01*
X53493662Y-87292588D02*
X51182262Y-87292588D01*
X63679062Y-75125988D02*
X63679062Y-76344588D01*
X63704462Y-77869188D02*
X63704462Y-76369988D01*
X74381054Y-61325196D02*
X75571054Y-60135196D01*
X75571054Y-60135196D02*
X75571054Y-57601037D01*
X59615062Y-69247510D02*
X59615062Y-66674968D01*
X51182262Y-87292588D02*
X51080662Y-87394188D01*
X65965062Y-72712988D02*
X65965062Y-72839988D01*
X65965062Y-72839988D02*
X63679062Y-75125988D01*
X74381054Y-64821037D02*
X74381054Y-61325196D01*
X57639423Y-71223149D02*
X59615062Y-69247510D01*
X65965062Y-72712988D02*
X65965062Y-64686588D01*
X53519062Y-87267188D02*
X53493662Y-87292588D01*
%TO.N,Net-(D1-A)*%
X72121054Y-90864796D02*
X73311054Y-89674796D01*
X75711054Y-75235196D02*
X74521054Y-76425196D01*
X83003462Y-31925588D02*
X81721054Y-33207996D01*
X78111054Y-53442296D02*
X79321054Y-52232296D01*
X81721054Y-35941037D02*
X81721054Y-38211796D01*
X66676262Y-110482788D02*
X65584062Y-109390588D01*
X79321054Y-52232296D02*
X79321054Y-50381037D01*
X69721054Y-105202796D02*
X70911054Y-104012796D01*
X76921054Y-64821037D02*
X76921054Y-67141796D01*
X72121054Y-93701037D02*
X72121054Y-90864796D01*
X72121054Y-93701037D02*
X72121054Y-96909996D01*
X80511054Y-46330596D02*
X80511054Y-43161037D01*
X69721054Y-108141037D02*
X69721054Y-105202796D01*
X83003462Y-28821788D02*
X83003462Y-31925588D01*
X79321054Y-50381037D02*
X79321054Y-47520596D01*
X81721054Y-33207996D02*
X81721054Y-35941037D01*
X76921054Y-62112596D02*
X76921054Y-64821037D01*
X78111054Y-57601037D02*
X78111054Y-60922596D01*
X80511054Y-39421796D02*
X80511054Y-43161037D01*
X75711054Y-68351796D02*
X75711054Y-72041037D01*
X78111054Y-60922596D02*
X76921054Y-62112596D01*
X75711054Y-72041037D02*
X75711054Y-75235196D01*
X73311054Y-89674796D02*
X73311054Y-86481037D01*
X74521054Y-79261037D02*
X74521054Y-81682996D01*
X65584062Y-109390588D02*
X65584062Y-105910788D01*
X70911054Y-98119996D02*
X70911054Y-100921037D01*
X69721054Y-109419196D02*
X68657462Y-110482788D01*
X81721054Y-38211796D02*
X80511054Y-39421796D01*
X76921054Y-67141796D02*
X75711054Y-68351796D01*
X65584062Y-105910788D02*
X62412878Y-102739604D01*
X70911054Y-104012796D02*
X70911054Y-100921037D01*
X74521054Y-81682996D02*
X73311054Y-82892996D01*
X68657462Y-110482788D02*
X66676262Y-110482788D01*
X74521054Y-76425196D02*
X74521054Y-79261037D01*
X78111054Y-57601037D02*
X78111054Y-53442296D01*
X72121054Y-96909996D02*
X70911054Y-98119996D01*
X69721054Y-108141037D02*
X69721054Y-109419196D01*
X79321054Y-47520596D02*
X80511054Y-46330596D01*
X73311054Y-82892996D02*
X73311054Y-86481037D01*
%TO.N,Net-(D3-K)*%
X76781054Y-50381037D02*
X76781054Y-46809396D01*
X68276462Y-74338588D02*
X68251062Y-74313188D01*
X77971054Y-45619396D02*
X77971054Y-43161037D01*
X68251062Y-74313188D02*
X68251062Y-72839388D01*
X54789062Y-119672588D02*
X47732862Y-119672588D01*
X76781054Y-50771796D02*
X76781054Y-50381037D01*
X76781054Y-46809396D02*
X77971054Y-45619396D01*
X68327262Y-59225588D02*
X76781054Y-50771796D01*
X68251062Y-67023388D02*
X68251062Y-72839388D01*
%TO.N,/PB0*%
X57980531Y-98457150D02*
X56973462Y-99464219D01*
X57299854Y-106096123D02*
X61444892Y-106096123D01*
X56973462Y-99464219D02*
X56973462Y-105769731D01*
X61444892Y-106096123D02*
X62685210Y-107336441D01*
%TO.N,/PB1*%
X55297062Y-99344567D02*
X55297062Y-107685433D01*
X60412515Y-107892174D02*
X61270996Y-108750655D01*
X55503803Y-107892174D02*
X60412515Y-107892174D01*
X57082505Y-97559124D02*
X55297062Y-99344567D01*
%TO.N,/PB2*%
X59136007Y-109688225D02*
X59734716Y-110286934D01*
X53707752Y-109688225D02*
X59380140Y-109688225D01*
X53822600Y-99022978D02*
X56184479Y-96661099D01*
X53755685Y-109640292D02*
X53822600Y-109573377D01*
X53822600Y-109573377D02*
X53822600Y-99022978D01*
%TO.N,/PB3*%
X57887862Y-95826988D02*
X56998862Y-94937988D01*
X56998862Y-94937988D02*
X56160662Y-94937988D01*
X56160662Y-94937988D02*
X55335577Y-95763073D01*
%TO.N,+5V*%
X61462142Y-84632800D02*
X61431208Y-84663734D01*
X61431208Y-84663734D02*
X62859466Y-84663734D01*
X43574962Y-111384488D02*
X43717310Y-111384488D01*
X61620400Y-84632800D02*
X61462142Y-84632800D01*
X43720985Y-111380813D02*
X51808237Y-111380813D01*
X53043674Y-97231200D02*
X53201516Y-97389042D01*
X41296636Y-113662814D02*
X43574962Y-111384488D01*
X61431208Y-84536734D02*
X58907678Y-82013204D01*
X43717310Y-111384488D02*
X43720985Y-111380813D01*
X51911700Y-98837300D02*
X51911700Y-111484277D01*
D36*
X38333600Y-117518588D02*
X39174012Y-117518588D01*
X38698572Y-110580572D02*
X41296636Y-113178636D01*
X41296636Y-115395964D02*
X41296636Y-113805162D01*
X41296636Y-113178636D02*
X41296636Y-113805162D01*
D35*
X62859466Y-84663734D02*
X63373000Y-84150200D01*
X51917600Y-98831400D02*
X51911700Y-98837300D01*
X61253408Y-86204017D02*
X60066496Y-87390929D01*
X51663600Y-111236177D02*
X51911700Y-111484277D01*
D36*
X38613078Y-110580572D02*
X38698572Y-110580572D01*
D35*
X51917600Y-98672958D02*
X51917600Y-98831400D01*
X51917600Y-98672958D02*
X53201516Y-97389042D01*
X53201516Y-96051959D02*
X54388428Y-94865047D01*
D36*
X39174012Y-117518588D02*
X41296636Y-115395964D01*
D35*
X61253408Y-84866934D02*
X61253408Y-86204017D01*
X53201516Y-97389042D02*
X53201516Y-96051959D01*
%TO.N,GND1*%
X43587662Y-116027200D02*
X43587662Y-116096188D01*
D36*
X44913488Y-117422014D02*
X44913488Y-117353026D01*
X35793600Y-117518588D02*
X35793600Y-113400050D01*
X45669200Y-113004600D02*
X43587662Y-115086138D01*
X43587662Y-115086138D02*
X43587662Y-116027200D01*
D35*
X62176833Y-87076642D02*
X60964521Y-88288954D01*
X60199262Y-91077188D02*
X60199262Y-91127988D01*
X50698400Y-97409000D02*
X50698400Y-95472742D01*
D36*
X50115649Y-113327775D02*
X50317400Y-113529526D01*
D35*
X63463116Y-87076642D02*
X62176833Y-87076642D01*
D36*
X44913488Y-117353026D02*
X43587662Y-116027200D01*
D35*
X50991808Y-95179334D02*
X52278091Y-95179334D01*
D36*
X46526850Y-113004600D02*
X46534062Y-112997388D01*
X46534062Y-112997388D02*
X49832709Y-112997388D01*
D35*
X51206400Y-95393926D02*
X50991808Y-95179334D01*
D36*
X45669200Y-113004600D02*
X46526850Y-113004600D01*
D35*
X58801000Y-89729726D02*
X60199262Y-91127988D01*
X63640916Y-86873442D02*
X63640916Y-85584084D01*
X58801000Y-88671400D02*
X58801000Y-89729726D01*
X63640916Y-85584084D02*
X64236600Y-84988400D01*
D36*
X35793600Y-113400050D02*
X36421046Y-112772604D01*
D35*
X58801000Y-88671400D02*
X58737062Y-88735338D01*
X50698400Y-95472742D02*
X50991808Y-95179334D01*
D36*
X50266600Y-114716821D02*
X50266600Y-113431279D01*
D35*
X52278091Y-95179334D02*
X53490403Y-93967022D01*
D36*
X52785715Y-117235936D02*
X50266600Y-114716821D01*
X50266600Y-113431279D02*
X50115649Y-113280328D01*
%TO.N,/PB4*%
D35*
X53519062Y-92142311D02*
X52592377Y-93068996D01*
X53519062Y-90645388D02*
X53519062Y-92142311D01*
X49480462Y-100246588D02*
X49480462Y-96944588D01*
X49480462Y-96944588D02*
X49455062Y-96919188D01*
X50647600Y-101473000D02*
X50647600Y-101413726D01*
X50647600Y-101413726D02*
X49480462Y-100246588D01*
%TO.N,/PB5*%
X47575462Y-101795988D02*
X47575462Y-96289860D01*
X47575462Y-96289860D02*
X51694351Y-92170971D01*
X50639137Y-104859663D02*
X47575462Y-101795988D01*
%TO.N,/PB6*%
X46076862Y-103929588D02*
X46076862Y-95992409D01*
X46076862Y-95992409D02*
X50796326Y-91272945D01*
X47133937Y-104986663D02*
X46076862Y-103929588D01*
%TO.N,/PB7*%
X44629062Y-95644157D02*
X49898300Y-90374919D01*
X47083137Y-108288663D02*
X44629062Y-105834588D01*
X44629062Y-105834588D02*
X44629062Y-95644157D01*
%TO.N,Net-(SW1-A)*%
X57104555Y-80210081D02*
X55830462Y-81484174D01*
X55830462Y-81484174D02*
X55830462Y-83154895D01*
X57968155Y-77052295D02*
X57968155Y-79346481D01*
X57968155Y-79346481D02*
X57104555Y-80210081D01*
X56474393Y-83798826D02*
X55830462Y-83154895D01*
%TO.N,/CA6*%
X54941462Y-87127809D02*
X57372419Y-84696852D01*
X60220846Y-100547572D02*
X59691262Y-100017988D01*
X59691262Y-100017988D02*
X59691262Y-96284188D01*
X59691262Y-96284188D02*
X54941462Y-91534388D01*
X54941462Y-91534388D02*
X54941462Y-87127809D01*
%TO.N,/CA5*%
X61443862Y-96563588D02*
X62887846Y-98007572D01*
X58270445Y-85594877D02*
X56262262Y-87603060D01*
X56262262Y-87603060D02*
X56262262Y-90755462D01*
X56262262Y-90755462D02*
X61443862Y-95937062D01*
X61443862Y-95937062D02*
X61443862Y-96563588D01*
%TO.N,/CA4*%
X62256662Y-94683988D02*
X64822062Y-94683988D01*
X57532262Y-88129111D02*
X57532262Y-89959588D01*
X59168470Y-86492903D02*
X57532262Y-88129111D01*
X57532262Y-89959588D02*
X62256662Y-94683988D01*
X64822062Y-94683988D02*
X65529446Y-95391372D01*
%TO.N,/CA3*%
X61367662Y-75049788D02*
X63729862Y-72687588D01*
X61189862Y-89859665D02*
X61862547Y-89186980D01*
X61913762Y-91826488D02*
X61189862Y-91102588D01*
X63513962Y-82403088D02*
X61367662Y-80256788D01*
X61189862Y-91102588D02*
X61189862Y-89859665D01*
X61367662Y-80256788D02*
X61367662Y-75049788D01*
X63729862Y-72687588D02*
X63729862Y-71697588D01*
%TO.N,/CA2*%
X65247115Y-82028041D02*
X63679062Y-80459988D01*
X63942926Y-88902652D02*
X63948598Y-88902652D01*
X63948598Y-88902652D02*
X65247115Y-87604135D01*
X63679062Y-80459988D02*
X63679062Y-79444588D01*
X62760573Y-90085005D02*
X63942926Y-88902652D01*
X65247115Y-87604135D02*
X65247115Y-82028041D01*
%TO.N,/CA1*%
X66473062Y-88156188D02*
X66473062Y-79164588D01*
X68251062Y-77386588D02*
X66473062Y-79164588D01*
X64974462Y-89667167D02*
X64974462Y-89654788D01*
X68251062Y-75939388D02*
X68251062Y-77386588D01*
X63658598Y-90983031D02*
X64974462Y-89667167D01*
X64974462Y-89654788D02*
X66473062Y-88156188D01*
%TO.N,/CA0*%
X64556624Y-91825226D02*
X68251062Y-88130788D01*
X68251062Y-88130788D02*
X68251062Y-83914989D01*
%TD*%
%TA.AperFunction,Conductor*%
%TO.N,GND1*%
G36*
X37773382Y-111575758D02*
G01*
X37840399Y-111595515D01*
X37860996Y-111612144D01*
X39106070Y-112859141D01*
X39139508Y-112920490D01*
X39142317Y-112947750D01*
X39127225Y-114829347D01*
X39107003Y-114896226D01*
X39085900Y-114920772D01*
X37855904Y-116021020D01*
X37792814Y-116051044D01*
X37773233Y-116052600D01*
X36169600Y-116052600D01*
X35735554Y-116071741D01*
X35481343Y-116082952D01*
X35413501Y-116066240D01*
X35396813Y-116054594D01*
X35394404Y-116052600D01*
X34641512Y-115429399D01*
X34602421Y-115371488D01*
X34596587Y-115332512D01*
X34610687Y-114054134D01*
X34631109Y-113987318D01*
X34647965Y-113966866D01*
X34748404Y-113868619D01*
X35890715Y-113868619D01*
X36403350Y-114381253D01*
X36403357Y-114381259D01*
X36483406Y-114446468D01*
X36640081Y-114525153D01*
X36810683Y-114565587D01*
X36986003Y-114565587D01*
X37156604Y-114525153D01*
X37313282Y-114446467D01*
X37393334Y-114381256D01*
X37393339Y-114381251D01*
X37428673Y-114345916D01*
X37428673Y-114345915D01*
X36421045Y-113338289D01*
X35890715Y-113868619D01*
X34748404Y-113868619D01*
X35282623Y-113346056D01*
X35858074Y-112772603D01*
X36986731Y-112772603D01*
X37994357Y-113780230D01*
X37994358Y-113780230D01*
X38029691Y-113744897D01*
X38029706Y-113744880D01*
X38094909Y-113664840D01*
X38173595Y-113508162D01*
X38214029Y-113337561D01*
X38214029Y-113162240D01*
X38173595Y-112991639D01*
X38094907Y-112834958D01*
X38029708Y-112754922D01*
X38029692Y-112754904D01*
X37517061Y-112242273D01*
X36986731Y-112772603D01*
X35858074Y-112772603D01*
X37023515Y-111611208D01*
X37084896Y-111577831D01*
X37111173Y-111575043D01*
X37773382Y-111575758D01*
G37*
%TD.AperFunction*%
%TA.AperFunction,Conductor*%
G36*
X82049930Y-24389301D02*
G01*
X82061375Y-24390179D01*
X82454872Y-24438855D01*
X82466188Y-24440791D01*
X82853480Y-24525739D01*
X82864583Y-24528721D01*
X83242300Y-24649200D01*
X83253082Y-24653198D01*
X83618027Y-24808188D01*
X83628382Y-24813165D01*
X83977370Y-25001314D01*
X83987233Y-25007238D01*
X84095530Y-25079327D01*
X84317270Y-25226929D01*
X84326542Y-25233743D01*
X84607415Y-25460943D01*
X84634788Y-25483085D01*
X84643390Y-25490730D01*
X84927193Y-25767579D01*
X84935049Y-25775989D01*
X85191957Y-26077951D01*
X85199000Y-26087053D01*
X85426809Y-26411536D01*
X85432978Y-26421253D01*
X85629723Y-26765466D01*
X85634964Y-26775711D01*
X85798946Y-27136671D01*
X85803215Y-27147359D01*
X85933029Y-27521978D01*
X85936284Y-27533000D01*
X86020675Y-27876767D01*
X86030807Y-27918041D01*
X86033029Y-27929332D01*
X86091448Y-28321487D01*
X86092613Y-28332937D01*
X86114420Y-28728798D01*
X86114519Y-28740307D01*
X86099531Y-29136488D01*
X86098563Y-29147955D01*
X86046741Y-29542317D01*
X86046734Y-29542377D01*
X86046159Y-29546758D01*
X86034551Y-29611620D01*
X86036721Y-29637176D01*
X86035480Y-29648926D01*
X86034725Y-29650756D01*
X86034518Y-29656047D01*
X72468921Y-112035897D01*
X72465844Y-112049653D01*
X72465230Y-112051810D01*
X72456416Y-112111723D01*
X72456087Y-112113835D01*
X72455316Y-112118514D01*
X72454799Y-112121434D01*
X72392505Y-112450256D01*
X72390195Y-112460193D01*
X72301241Y-112782201D01*
X72298124Y-112791908D01*
X72259965Y-112895861D01*
X72182994Y-113105536D01*
X72179087Y-113114960D01*
X72038570Y-113418049D01*
X72033902Y-113427120D01*
X71868946Y-113717630D01*
X71863548Y-113726287D01*
X71675266Y-114002261D01*
X71669174Y-114010445D01*
X71465288Y-114262052D01*
X71456868Y-114271426D01*
X61884565Y-123896026D01*
X61879789Y-123900577D01*
X61771562Y-123998364D01*
X61621470Y-124133974D01*
X61613217Y-124140807D01*
X61336957Y-124350087D01*
X61328143Y-124356182D01*
X61034876Y-124540810D01*
X61025570Y-124546122D01*
X60717447Y-124704748D01*
X60707717Y-124709237D01*
X60387036Y-124840674D01*
X60376955Y-124844305D01*
X60046145Y-124947560D01*
X60035787Y-124950308D01*
X59697281Y-125024620D01*
X59686726Y-125026463D01*
X59343078Y-125071272D01*
X59332402Y-125072197D01*
X58984337Y-125087249D01*
X58979016Y-125087365D01*
X26522481Y-125096715D01*
X26522476Y-125096715D01*
X26514197Y-125096716D01*
X26514006Y-125096666D01*
X26453244Y-125096731D01*
X26451023Y-125096732D01*
X26450992Y-125096733D01*
X26450990Y-125096732D01*
X26450891Y-125096733D01*
X26450882Y-125096730D01*
X26445244Y-125096606D01*
X26067286Y-125079471D01*
X26055836Y-125078418D01*
X25683952Y-125026744D01*
X25672648Y-125024635D01*
X25351502Y-124949159D01*
X25307141Y-124938733D01*
X25296088Y-124935588D01*
X25019147Y-124842706D01*
X24940116Y-124816200D01*
X24929395Y-124812042D01*
X24586010Y-124660193D01*
X24575721Y-124655060D01*
X24247882Y-124472058D01*
X24238112Y-124465994D01*
X23928632Y-124253409D01*
X23919467Y-124246467D01*
X23631006Y-124006127D01*
X23622522Y-123998364D01*
X23357567Y-123732338D01*
X23349840Y-123723824D01*
X23110666Y-123434401D01*
X23103760Y-123425207D01*
X23102975Y-123424055D01*
X22943652Y-123190098D01*
X22892427Y-123114877D01*
X22886402Y-123105083D01*
X22704722Y-122776508D01*
X22699630Y-122766198D01*
X22549163Y-122422197D01*
X22545049Y-122411460D01*
X22521894Y-122341487D01*
X22427096Y-122055009D01*
X22423995Y-122043939D01*
X22415623Y-122007660D01*
X22350156Y-121723980D01*
X24073072Y-121723980D01*
X24073072Y-121960175D01*
X24110018Y-122193446D01*
X24183005Y-122418074D01*
X24287612Y-122623375D01*
X24290229Y-122628511D01*
X24429055Y-122819588D01*
X24596062Y-122986595D01*
X24787139Y-123125421D01*
X24860125Y-123162609D01*
X24997575Y-123232644D01*
X24997577Y-123232644D01*
X24997580Y-123232646D01*
X25117984Y-123271767D01*
X25222203Y-123305631D01*
X25455475Y-123342578D01*
X25455480Y-123342578D01*
X25691669Y-123342578D01*
X25924940Y-123305631D01*
X26149564Y-123232646D01*
X26360005Y-123125421D01*
X26475141Y-123041769D01*
X26540947Y-123018290D01*
X26548026Y-123018088D01*
X26560904Y-123018088D01*
X31985945Y-123018088D01*
X32052984Y-123037773D01*
X32098739Y-123090577D01*
X32106277Y-123112155D01*
X32109577Y-123125421D01*
X32118825Y-123162610D01*
X32118826Y-123162611D01*
X32201018Y-123328338D01*
X32201019Y-123328339D01*
X32201020Y-123328341D01*
X32234807Y-123370373D01*
X32316921Y-123472528D01*
X32399035Y-123538533D01*
X32461109Y-123588430D01*
X32626841Y-123670625D01*
X32806363Y-123715270D01*
X32806364Y-123715270D01*
X32806367Y-123715271D01*
X32847908Y-123718088D01*
X32847910Y-123718088D01*
X34295814Y-123718088D01*
X34295816Y-123718088D01*
X34337357Y-123715271D01*
X34516883Y-123670625D01*
X34682615Y-123588430D01*
X34826802Y-123472528D01*
X34942704Y-123328341D01*
X35024899Y-123162609D01*
X35037445Y-123112159D01*
X35072726Y-123051855D01*
X35135012Y-123020196D01*
X35157779Y-123018088D01*
X39300391Y-123018088D01*
X39367430Y-123037773D01*
X39400707Y-123069200D01*
X39488545Y-123190098D01*
X39655552Y-123357105D01*
X39846629Y-123495931D01*
X39946053Y-123546590D01*
X40057065Y-123603154D01*
X40057067Y-123603154D01*
X40057070Y-123603156D01*
X40177474Y-123642277D01*
X40281693Y-123676141D01*
X40514965Y-123713088D01*
X40514970Y-123713088D01*
X40751159Y-123713088D01*
X40984430Y-123676141D01*
X41001406Y-123670625D01*
X41209054Y-123603156D01*
X41419495Y-123495931D01*
X41610572Y-123357105D01*
X41777579Y-123190098D01*
X41865415Y-123069201D01*
X41920745Y-123026537D01*
X41965733Y-123018088D01*
X46141945Y-123018088D01*
X46208984Y-123037773D01*
X46254739Y-123090577D01*
X46262277Y-123112155D01*
X46265577Y-123125421D01*
X46274825Y-123162610D01*
X46274826Y-123162611D01*
X46357018Y-123328338D01*
X46357019Y-123328339D01*
X46357020Y-123328341D01*
X46390807Y-123370373D01*
X46472921Y-123472528D01*
X46555035Y-123538533D01*
X46617109Y-123588430D01*
X46782841Y-123670625D01*
X46962363Y-123715270D01*
X46962364Y-123715270D01*
X46962367Y-123715271D01*
X47003908Y-123718088D01*
X47003910Y-123718088D01*
X48451814Y-123718088D01*
X48451816Y-123718088D01*
X48493357Y-123715271D01*
X48672883Y-123670625D01*
X48838615Y-123588430D01*
X48982802Y-123472528D01*
X49098704Y-123328341D01*
X49180899Y-123162609D01*
X49193445Y-123112159D01*
X49228726Y-123051855D01*
X49291012Y-123020196D01*
X49313779Y-123018088D01*
X53456391Y-123018088D01*
X53523430Y-123037773D01*
X53556707Y-123069200D01*
X53644545Y-123190098D01*
X53811552Y-123357105D01*
X54002629Y-123495931D01*
X54102053Y-123546590D01*
X54213065Y-123603154D01*
X54213067Y-123603154D01*
X54213070Y-123603156D01*
X54333474Y-123642277D01*
X54437693Y-123676141D01*
X54670965Y-123713088D01*
X54670970Y-123713088D01*
X54907159Y-123713088D01*
X55140430Y-123676141D01*
X55157406Y-123670625D01*
X55365054Y-123603156D01*
X55575495Y-123495931D01*
X55766572Y-123357105D01*
X55933579Y-123190098D01*
X56025048Y-123064201D01*
X56080378Y-123021537D01*
X56125366Y-123013088D01*
X59990050Y-123013088D01*
X60057089Y-123032773D01*
X60077731Y-123049407D01*
X60424984Y-123396661D01*
X60424994Y-123396670D01*
X60425000Y-123396676D01*
X60440683Y-123410367D01*
X60456362Y-123424055D01*
X60456372Y-123424062D01*
X60466185Y-123429966D01*
X60614879Y-123519432D01*
X60790190Y-123578502D01*
X60938022Y-123594578D01*
X60974099Y-123598502D01*
X60974101Y-123598502D01*
X60974103Y-123598502D01*
X61006956Y-123594928D01*
X61158012Y-123578502D01*
X61333323Y-123519432D01*
X61491836Y-123424058D01*
X61523202Y-123396676D01*
X61523211Y-123396667D01*
X61523218Y-123396661D01*
X62547013Y-122372866D01*
X62547019Y-122372859D01*
X62547028Y-122372850D01*
X62574410Y-122341484D01*
X62669784Y-122182971D01*
X62728854Y-122007660D01*
X62748854Y-121823749D01*
X62740507Y-121746997D01*
X62731656Y-121665604D01*
X62743977Y-121596829D01*
X62791525Y-121545634D01*
X62854929Y-121528198D01*
X62888249Y-121528198D01*
X63121520Y-121491251D01*
X63123188Y-121490709D01*
X63346144Y-121418266D01*
X63556585Y-121311041D01*
X63747662Y-121172215D01*
X63914669Y-121005208D01*
X64053495Y-120814131D01*
X64160720Y-120603690D01*
X64233705Y-120379066D01*
X64253580Y-120253580D01*
X64270652Y-120145795D01*
X64270652Y-119909600D01*
X64233705Y-119676329D01*
X64215283Y-119619634D01*
X64213287Y-119549793D01*
X64245531Y-119493636D01*
X65789120Y-117950047D01*
X65850441Y-117916564D01*
X65920133Y-117921548D01*
X65940724Y-117931478D01*
X65985271Y-117958281D01*
X66160582Y-118017351D01*
X66308414Y-118033427D01*
X66344491Y-118037351D01*
X66344493Y-118037351D01*
X66344495Y-118037351D01*
X66377348Y-118033777D01*
X66528404Y-118017351D01*
X66703715Y-117958281D01*
X66862228Y-117862907D01*
X66893594Y-117835525D01*
X66893603Y-117835516D01*
X66893610Y-117835510D01*
X67917405Y-116811715D01*
X67917411Y-116811708D01*
X67917420Y-116811699D01*
X67944802Y-116780333D01*
X68040176Y-116621820D01*
X68099246Y-116446509D01*
X68119246Y-116262598D01*
X68102048Y-116104452D01*
X68114369Y-116035678D01*
X68161917Y-115984483D01*
X68225321Y-115967047D01*
X68258641Y-115967047D01*
X68491912Y-115930100D01*
X68716536Y-115857115D01*
X68926977Y-115749890D01*
X69118054Y-115611064D01*
X69285061Y-115444057D01*
X69423887Y-115252980D01*
X69531112Y-115042539D01*
X69604097Y-114817915D01*
X69636857Y-114611077D01*
X69641044Y-114584644D01*
X69641044Y-114348449D01*
X69604097Y-114115178D01*
X69531110Y-113890550D01*
X69474546Y-113779538D01*
X69423887Y-113680114D01*
X69285061Y-113489037D01*
X69118054Y-113322030D01*
X68926977Y-113183204D01*
X68905628Y-113172326D01*
X68716540Y-113075980D01*
X68491913Y-113002994D01*
X68429946Y-112993179D01*
X68366812Y-112963249D01*
X68329881Y-112903937D01*
X68326900Y-112851131D01*
X68389399Y-112460193D01*
X68560853Y-111387713D01*
X68590874Y-111324622D01*
X68650238Y-111287776D01*
X68683298Y-111283288D01*
X68736306Y-111283288D01*
X68736307Y-111283287D01*
X68890959Y-111252525D01*
X69036641Y-111192182D01*
X69167751Y-111104577D01*
X70342843Y-109929485D01*
X70354163Y-109912543D01*
X70430448Y-109798375D01*
X70430449Y-109798371D01*
X70430451Y-109798369D01*
X70473795Y-109693725D01*
X70517635Y-109639321D01*
X70558428Y-109620843D01*
X70666075Y-109594074D01*
X70831807Y-109511879D01*
X70975994Y-109395977D01*
X71091896Y-109251790D01*
X71174091Y-109086058D01*
X71218737Y-108906532D01*
X71221554Y-108864991D01*
X71221554Y-107417083D01*
X71218737Y-107375542D01*
X71174091Y-107196016D01*
X71091896Y-107030284D01*
X71041999Y-106968210D01*
X70975994Y-106886096D01*
X70873839Y-106803982D01*
X70831807Y-106770195D01*
X70831805Y-106770194D01*
X70831804Y-106770193D01*
X70666077Y-106688001D01*
X70666070Y-106687998D01*
X70615626Y-106675453D01*
X70555320Y-106640170D01*
X70523662Y-106577884D01*
X70521554Y-106555119D01*
X70521554Y-105585736D01*
X70541239Y-105518697D01*
X70557873Y-105498055D01*
X71532841Y-104523087D01*
X71532843Y-104523085D01*
X71552118Y-104494238D01*
X71620448Y-104391975D01*
X71680791Y-104246293D01*
X71697916Y-104160199D01*
X71711554Y-104091639D01*
X71711554Y-103933954D01*
X71711554Y-102257339D01*
X71731239Y-102190300D01*
X71762663Y-102157025D01*
X71888564Y-102065554D01*
X72055571Y-101898547D01*
X72194397Y-101707470D01*
X72301622Y-101497029D01*
X72374607Y-101272405D01*
X72382975Y-101219572D01*
X72411554Y-101039134D01*
X72411554Y-100802939D01*
X72374607Y-100569668D01*
X72301620Y-100345040D01*
X72194396Y-100134603D01*
X72055571Y-99943527D01*
X71888564Y-99776520D01*
X71882503Y-99772116D01*
X71762668Y-99685049D01*
X71720002Y-99629719D01*
X71711554Y-99584732D01*
X71711554Y-98502936D01*
X71731239Y-98435897D01*
X71747873Y-98415255D01*
X72742840Y-97420288D01*
X72742842Y-97420286D01*
X72767568Y-97383281D01*
X72830448Y-97289175D01*
X72873442Y-97185377D01*
X72890791Y-97143494D01*
X72921554Y-96988839D01*
X72921554Y-96831154D01*
X72921554Y-95286953D01*
X72941239Y-95219914D01*
X72994043Y-95174159D01*
X73015621Y-95166620D01*
X73066075Y-95154074D01*
X73231807Y-95071879D01*
X73375994Y-94955977D01*
X73491896Y-94811790D01*
X73574091Y-94646058D01*
X73618737Y-94466532D01*
X73621554Y-94424991D01*
X73621554Y-92977083D01*
X73618737Y-92935542D01*
X73574091Y-92756016D01*
X73491896Y-92590284D01*
X73441999Y-92528210D01*
X73375994Y-92446096D01*
X73273839Y-92363982D01*
X73231807Y-92330195D01*
X73231805Y-92330194D01*
X73231804Y-92330193D01*
X73066077Y-92248001D01*
X73066070Y-92247998D01*
X73015626Y-92235453D01*
X72955320Y-92200170D01*
X72923662Y-92137884D01*
X72921554Y-92115119D01*
X72921554Y-91247736D01*
X72941239Y-91180697D01*
X72957873Y-91160055D01*
X73932837Y-90185091D01*
X73932843Y-90185085D01*
X73934608Y-90182443D01*
X74020448Y-90053975D01*
X74080791Y-89908293D01*
X74084771Y-89888285D01*
X74111554Y-89753639D01*
X74111554Y-89595954D01*
X74111554Y-87817339D01*
X74131239Y-87750300D01*
X74162663Y-87717025D01*
X74288564Y-87625554D01*
X74455571Y-87458547D01*
X74594397Y-87267470D01*
X74701622Y-87057029D01*
X74774607Y-86832405D01*
X74788061Y-86747459D01*
X74811554Y-86599134D01*
X74811554Y-86362939D01*
X74774607Y-86129668D01*
X74701620Y-85905040D01*
X74594396Y-85694603D01*
X74455571Y-85503527D01*
X74288564Y-85336520D01*
X74282503Y-85332116D01*
X74162668Y-85245049D01*
X74120002Y-85189719D01*
X74111554Y-85144732D01*
X74111554Y-83275936D01*
X74131239Y-83208897D01*
X74147873Y-83188255D01*
X75142842Y-82193286D01*
X75142844Y-82193283D01*
X75157737Y-82170995D01*
X75230448Y-82062175D01*
X75269040Y-81969006D01*
X75277244Y-81949200D01*
X75277244Y-81949199D01*
X75290791Y-81916494D01*
X75321554Y-81761839D01*
X75321554Y-81604154D01*
X75321554Y-80846953D01*
X75341239Y-80779914D01*
X75394043Y-80734159D01*
X75415621Y-80726620D01*
X75466075Y-80714074D01*
X75631807Y-80631879D01*
X75775994Y-80515977D01*
X75891896Y-80371790D01*
X75974091Y-80206058D01*
X76018737Y-80026532D01*
X76021554Y-79984991D01*
X76021554Y-78537083D01*
X76018737Y-78495542D01*
X75974091Y-78316016D01*
X75891896Y-78150284D01*
X75810332Y-78048815D01*
X75775994Y-78006096D01*
X75664341Y-77916347D01*
X75631807Y-77890195D01*
X75631805Y-77890194D01*
X75631804Y-77890193D01*
X75466077Y-77808001D01*
X75466070Y-77807998D01*
X75415626Y-77795453D01*
X75355320Y-77760170D01*
X75323662Y-77697884D01*
X75321554Y-77675119D01*
X75321554Y-76808136D01*
X75341239Y-76741097D01*
X75357873Y-76720455D01*
X76332840Y-75745488D01*
X76332843Y-75745485D01*
X76342728Y-75730691D01*
X76420448Y-75614375D01*
X76480791Y-75468693D01*
X76500770Y-75368253D01*
X76511554Y-75314039D01*
X76511554Y-75156354D01*
X76511554Y-73377339D01*
X76531239Y-73310300D01*
X76562663Y-73277025D01*
X76688564Y-73185554D01*
X76855571Y-73018547D01*
X76994397Y-72827470D01*
X77101622Y-72617029D01*
X77174607Y-72392405D01*
X77208443Y-72178773D01*
X77211554Y-72159134D01*
X77211554Y-71922939D01*
X77174607Y-71689668D01*
X77101620Y-71465040D01*
X76994396Y-71254603D01*
X76971545Y-71223151D01*
X76855571Y-71063527D01*
X76688564Y-70896520D01*
X76682503Y-70892116D01*
X76562668Y-70805049D01*
X76520002Y-70749719D01*
X76511554Y-70704732D01*
X76511554Y-68734736D01*
X76531239Y-68667697D01*
X76547873Y-68647055D01*
X76971832Y-68223096D01*
X77542842Y-67652086D01*
X77549313Y-67642402D01*
X77630448Y-67520975D01*
X77690791Y-67375293D01*
X77696402Y-67347088D01*
X77721554Y-67220639D01*
X77721554Y-67062954D01*
X77721554Y-66406953D01*
X77741239Y-66339914D01*
X77794043Y-66294159D01*
X77815621Y-66286620D01*
X77866075Y-66274074D01*
X78031807Y-66191879D01*
X78175994Y-66075977D01*
X78291896Y-65931790D01*
X78374091Y-65766058D01*
X78418737Y-65586532D01*
X78421554Y-65544991D01*
X78421554Y-64097083D01*
X78418737Y-64055542D01*
X78374091Y-63876016D01*
X78291896Y-63710284D01*
X78232827Y-63636800D01*
X78175994Y-63566096D01*
X78073839Y-63483982D01*
X78031807Y-63450195D01*
X78031805Y-63450194D01*
X78031804Y-63450193D01*
X77866077Y-63368001D01*
X77866070Y-63367998D01*
X77815626Y-63355453D01*
X77755320Y-63320170D01*
X77723662Y-63257884D01*
X77721554Y-63235119D01*
X77721554Y-62495536D01*
X77741239Y-62428497D01*
X77757873Y-62407855D01*
X78732841Y-61432887D01*
X78732843Y-61432885D01*
X78752118Y-61404038D01*
X78820448Y-61301775D01*
X78880791Y-61156093D01*
X78880791Y-61156090D01*
X78880793Y-61156086D01*
X78886839Y-61125691D01*
X78895002Y-61084648D01*
X78911554Y-61001439D01*
X78911554Y-60843754D01*
X78911554Y-58937339D01*
X78931239Y-58870300D01*
X78962663Y-58837025D01*
X79088564Y-58745554D01*
X79255571Y-58578547D01*
X79394397Y-58387470D01*
X79501622Y-58177029D01*
X79574607Y-57952405D01*
X79611554Y-57719134D01*
X79611554Y-57482939D01*
X79574607Y-57249668D01*
X79501620Y-57025040D01*
X79394396Y-56814603D01*
X79255571Y-56623527D01*
X79088564Y-56456520D01*
X79082503Y-56452116D01*
X78962668Y-56365049D01*
X78920002Y-56309719D01*
X78911554Y-56264732D01*
X78911554Y-53825236D01*
X78931239Y-53758197D01*
X78947873Y-53737555D01*
X79942840Y-52742588D01*
X79942842Y-52742586D01*
X79957020Y-52721367D01*
X80030448Y-52611475D01*
X80078820Y-52494693D01*
X80090791Y-52465794D01*
X80121554Y-52311139D01*
X80121554Y-52153454D01*
X80121554Y-51966953D01*
X80141239Y-51899914D01*
X80194043Y-51854159D01*
X80215621Y-51846620D01*
X80266075Y-51834074D01*
X80431807Y-51751879D01*
X80575994Y-51635977D01*
X80691896Y-51491790D01*
X80774091Y-51326058D01*
X80818737Y-51146532D01*
X80821554Y-51104991D01*
X80821554Y-49657083D01*
X80818737Y-49615542D01*
X80774091Y-49436016D01*
X80691896Y-49270284D01*
X80641999Y-49208210D01*
X80575994Y-49126096D01*
X80473839Y-49043982D01*
X80431807Y-49010195D01*
X80431805Y-49010194D01*
X80431804Y-49010193D01*
X80266077Y-48928001D01*
X80266070Y-48927998D01*
X80215626Y-48915453D01*
X80155320Y-48880170D01*
X80123662Y-48817884D01*
X80121554Y-48795119D01*
X80121554Y-47903536D01*
X80141239Y-47836497D01*
X80157873Y-47815855D01*
X80633638Y-47340090D01*
X81132843Y-46840885D01*
X81137383Y-46834090D01*
X81220448Y-46709775D01*
X81280791Y-46564093D01*
X81297846Y-46478353D01*
X81311554Y-46409441D01*
X81311554Y-44497339D01*
X81331239Y-44430300D01*
X81362663Y-44397025D01*
X81488564Y-44305554D01*
X81655571Y-44138547D01*
X81794397Y-43947470D01*
X81901622Y-43737029D01*
X81974607Y-43512405D01*
X82011554Y-43279134D01*
X82011554Y-43042939D01*
X81974607Y-42809668D01*
X81920630Y-42643545D01*
X81901622Y-42585045D01*
X81901620Y-42585042D01*
X81901620Y-42585040D01*
X81794396Y-42374603D01*
X81655571Y-42183527D01*
X81488564Y-42016520D01*
X81461959Y-41997190D01*
X81362668Y-41925049D01*
X81320002Y-41869719D01*
X81311554Y-41824732D01*
X81311554Y-39804736D01*
X81331239Y-39737697D01*
X81347873Y-39717055D01*
X82342840Y-38722088D01*
X82342842Y-38722086D01*
X82362699Y-38692368D01*
X82430448Y-38590975D01*
X82490791Y-38445293D01*
X82521554Y-38290638D01*
X82521554Y-37526953D01*
X82541239Y-37459914D01*
X82594043Y-37414159D01*
X82615621Y-37406620D01*
X82666075Y-37394074D01*
X82831807Y-37311879D01*
X82975994Y-37195977D01*
X83091896Y-37051790D01*
X83174091Y-36886058D01*
X83218737Y-36706532D01*
X83221554Y-36664991D01*
X83221554Y-35217083D01*
X83218737Y-35175542D01*
X83174091Y-34996016D01*
X83091896Y-34830284D01*
X83020254Y-34741158D01*
X82975994Y-34686096D01*
X82851616Y-34586118D01*
X82831807Y-34570195D01*
X82831805Y-34570194D01*
X82831804Y-34570193D01*
X82666077Y-34488001D01*
X82666070Y-34487998D01*
X82615626Y-34475453D01*
X82555320Y-34440170D01*
X82523662Y-34377884D01*
X82521554Y-34355119D01*
X82521554Y-33590936D01*
X82541239Y-33523897D01*
X82557873Y-33503255D01*
X83625248Y-32435880D01*
X83625251Y-32435877D01*
X83712856Y-32304767D01*
X83773200Y-32159085D01*
X83803962Y-32004430D01*
X83803962Y-31846745D01*
X83803962Y-30158090D01*
X83823647Y-30091051D01*
X83855071Y-30057776D01*
X83980972Y-29966305D01*
X84147979Y-29799298D01*
X84286805Y-29608221D01*
X84394030Y-29397780D01*
X84467015Y-29173156D01*
X84503962Y-28939885D01*
X84503962Y-28703690D01*
X84467015Y-28470419D01*
X84420473Y-28327179D01*
X84394030Y-28245796D01*
X84394028Y-28245793D01*
X84394028Y-28245791D01*
X84337406Y-28134666D01*
X84286805Y-28035355D01*
X84147979Y-27844278D01*
X83980972Y-27677271D01*
X83789895Y-27538445D01*
X83757577Y-27521978D01*
X83579458Y-27431221D01*
X83354830Y-27358234D01*
X83121559Y-27321288D01*
X83121554Y-27321288D01*
X82885370Y-27321288D01*
X82885365Y-27321288D01*
X82652093Y-27358234D01*
X82427465Y-27431221D01*
X82217028Y-27538445D01*
X82025952Y-27677271D01*
X82002393Y-27700830D01*
X81941069Y-27734314D01*
X81871377Y-27729328D01*
X81818066Y-27690834D01*
X81718404Y-27566849D01*
X81632430Y-27497741D01*
X81574215Y-27450946D01*
X81574213Y-27450945D01*
X81574212Y-27450944D01*
X81408485Y-27368752D01*
X81408483Y-27368751D01*
X81228959Y-27324105D01*
X81228963Y-27324105D01*
X81197801Y-27321992D01*
X81187416Y-27321288D01*
X79739508Y-27321288D01*
X79727639Y-27322092D01*
X79697962Y-27324105D01*
X79518440Y-27368751D01*
X79518438Y-27368752D01*
X79352711Y-27450944D01*
X79208521Y-27566847D01*
X79092618Y-27711037D01*
X79010426Y-27876764D01*
X79010425Y-27876766D01*
X78965779Y-28056288D01*
X78962962Y-28097836D01*
X78962962Y-29545739D01*
X78965779Y-29587287D01*
X79010425Y-29766809D01*
X79010426Y-29766811D01*
X79092618Y-29932538D01*
X79092619Y-29932539D01*
X79092620Y-29932541D01*
X79119757Y-29966301D01*
X79208521Y-30076728D01*
X79290635Y-30142733D01*
X79352709Y-30192630D01*
X79518441Y-30274825D01*
X79568888Y-30287370D01*
X79593850Y-30301973D01*
X79620165Y-30313991D01*
X79623642Y-30319402D01*
X79629194Y-30322650D01*
X79642301Y-30348435D01*
X79657939Y-30372769D01*
X79659228Y-30381737D01*
X79660854Y-30384935D01*
X79662962Y-30407704D01*
X79662962Y-30481798D01*
X79643277Y-30548837D01*
X79626643Y-30569479D01*
X78670765Y-31525357D01*
X78620034Y-31576088D01*
X78559263Y-31636858D01*
X78471663Y-31767960D01*
X78471656Y-31767973D01*
X78411318Y-31913644D01*
X78411315Y-31913656D01*
X78380554Y-32068299D01*
X78380554Y-34556077D01*
X78376275Y-34571833D01*
X78376860Y-34586118D01*
X78363523Y-34618795D01*
X78313825Y-34703558D01*
X78279742Y-34741158D01*
X78203544Y-34796519D01*
X78036539Y-34963524D01*
X78036539Y-34963525D01*
X78036537Y-34963527D01*
X77976916Y-35045587D01*
X77897711Y-35154603D01*
X77790487Y-35365042D01*
X77717500Y-35589672D01*
X77692739Y-35746004D01*
X77677236Y-35789323D01*
X76679062Y-37491805D01*
X76628173Y-37539681D01*
X76559480Y-37552445D01*
X76494790Y-37526044D01*
X76454643Y-37468860D01*
X76454583Y-37468682D01*
X76451629Y-37459914D01*
X76432184Y-37402205D01*
X76336810Y-37243692D01*
X76309428Y-37212326D01*
X76309422Y-37212320D01*
X76309413Y-37212310D01*
X75285618Y-36188515D01*
X75285607Y-36188505D01*
X75285602Y-36188500D01*
X75273966Y-36178342D01*
X75254239Y-36161120D01*
X75254229Y-36161113D01*
X75095725Y-36065745D01*
X75095724Y-36065744D01*
X75095723Y-36065744D01*
X74920412Y-36006674D01*
X74736503Y-35986674D01*
X74736499Y-35986674D01*
X74552589Y-36006674D01*
X74377276Y-36065745D01*
X74218772Y-36161113D01*
X74218762Y-36161120D01*
X74187404Y-36188496D01*
X74187384Y-36188515D01*
X73163589Y-37212310D01*
X73163570Y-37212330D01*
X73136194Y-37243688D01*
X73136187Y-37243698D01*
X73040819Y-37402202D01*
X72981748Y-37577515D01*
X72961748Y-37761424D01*
X72961748Y-37761429D01*
X72981748Y-37945338D01*
X73040817Y-38120647D01*
X73067618Y-38165191D01*
X73085313Y-38232783D01*
X73063656Y-38299212D01*
X73049048Y-38316800D01*
X72774881Y-38590968D01*
X72033373Y-39332477D01*
X71985518Y-39380332D01*
X71921871Y-39443978D01*
X71834271Y-39575080D01*
X71834264Y-39575093D01*
X71773926Y-39720764D01*
X71773923Y-39720776D01*
X71743162Y-39875419D01*
X71743162Y-42143867D01*
X71723477Y-42210906D01*
X71706843Y-42231548D01*
X71342241Y-42596149D01*
X71280918Y-42629634D01*
X71235162Y-42630941D01*
X71081469Y-42606598D01*
X71081464Y-42606598D01*
X70845280Y-42606598D01*
X70845275Y-42606598D01*
X70612003Y-42643544D01*
X70387375Y-42716531D01*
X70176938Y-42823755D01*
X70107576Y-42874150D01*
X69985862Y-42962581D01*
X69985860Y-42962583D01*
X69985859Y-42962583D01*
X69818857Y-43129585D01*
X69818857Y-43129586D01*
X69818855Y-43129588D01*
X69759234Y-43211648D01*
X69680029Y-43320664D01*
X69572805Y-43531101D01*
X69499818Y-43755729D01*
X69462872Y-43989000D01*
X69462872Y-44225195D01*
X69487215Y-44378888D01*
X69478261Y-44448181D01*
X69452423Y-44485967D01*
X68832973Y-45105419D01*
X68777222Y-45161170D01*
X68721471Y-45216920D01*
X68633871Y-45348022D01*
X68633864Y-45348035D01*
X68573526Y-45493706D01*
X68573523Y-45493718D01*
X68542762Y-45648361D01*
X68542762Y-49366297D01*
X68523077Y-49433336D01*
X68470273Y-49479091D01*
X68401115Y-49489035D01*
X68337559Y-49460010D01*
X68331081Y-49453978D01*
X67725618Y-48848515D01*
X67725607Y-48848505D01*
X67725602Y-48848500D01*
X67713966Y-48838342D01*
X67694239Y-48821120D01*
X67694229Y-48821113D01*
X67535725Y-48725745D01*
X67535724Y-48725744D01*
X67535723Y-48725744D01*
X67360412Y-48666674D01*
X67176503Y-48646674D01*
X67176499Y-48646674D01*
X66992589Y-48666674D01*
X66817276Y-48725745D01*
X66658772Y-48821113D01*
X66658762Y-48821120D01*
X66627404Y-48848496D01*
X66627384Y-48848515D01*
X65603589Y-49872310D01*
X65603570Y-49872330D01*
X65576194Y-49903688D01*
X65576187Y-49903698D01*
X65480819Y-50062202D01*
X65421748Y-50237515D01*
X65401748Y-50421424D01*
X65401748Y-50421429D01*
X65421748Y-50605338D01*
X65480817Y-50780647D01*
X65525996Y-50855735D01*
X65543691Y-50923326D01*
X65522034Y-50989755D01*
X65507426Y-51007344D01*
X64878795Y-51635977D01*
X64794373Y-51720399D01*
X64762893Y-51751879D01*
X64682871Y-51831900D01*
X64595271Y-51963002D01*
X64595264Y-51963015D01*
X64534926Y-52108686D01*
X64534923Y-52108698D01*
X64504162Y-52263341D01*
X64504162Y-54482867D01*
X64484477Y-54549906D01*
X64467843Y-54570548D01*
X63782241Y-55256149D01*
X63720918Y-55289634D01*
X63675162Y-55290941D01*
X63521469Y-55266598D01*
X63521464Y-55266598D01*
X63285280Y-55266598D01*
X63285275Y-55266598D01*
X63052003Y-55303544D01*
X62827375Y-55376531D01*
X62616938Y-55483755D01*
X62509828Y-55561576D01*
X62425862Y-55622581D01*
X62425860Y-55622583D01*
X62425859Y-55622583D01*
X62258857Y-55789585D01*
X62258857Y-55789586D01*
X62258855Y-55789588D01*
X62199234Y-55871648D01*
X62120029Y-55980664D01*
X62012805Y-56191101D01*
X61939818Y-56415729D01*
X61902872Y-56649000D01*
X61902872Y-56885195D01*
X61939818Y-57118466D01*
X62012805Y-57343094D01*
X62033159Y-57383039D01*
X62046055Y-57451708D01*
X62019779Y-57516449D01*
X62010355Y-57527015D01*
X61365373Y-58171999D01*
X61309622Y-58227750D01*
X61253871Y-58283500D01*
X61166271Y-58414602D01*
X61166264Y-58414615D01*
X61105926Y-58560286D01*
X61105923Y-58560298D01*
X61075162Y-58714941D01*
X61075162Y-60439325D01*
X61055477Y-60506364D01*
X61038843Y-60527006D01*
X60171874Y-61393974D01*
X60110551Y-61427459D01*
X60040859Y-61422475D01*
X60020265Y-61412544D01*
X59975723Y-61385744D01*
X59975722Y-61385743D01*
X59975721Y-61385743D01*
X59800412Y-61326674D01*
X59616503Y-61306674D01*
X59616499Y-61306674D01*
X59432589Y-61326674D01*
X59257276Y-61385745D01*
X59098772Y-61481113D01*
X59098762Y-61481120D01*
X59067404Y-61508496D01*
X59067384Y-61508515D01*
X58043589Y-62532310D01*
X58043570Y-62532330D01*
X58016194Y-62563688D01*
X58016187Y-62563698D01*
X57920819Y-62722202D01*
X57861748Y-62897515D01*
X57841748Y-63081424D01*
X57841748Y-63081429D01*
X57861748Y-63265338D01*
X57896339Y-63368001D01*
X57920818Y-63440649D01*
X57926562Y-63450195D01*
X57947618Y-63485191D01*
X57965313Y-63552783D01*
X57943656Y-63619212D01*
X57929048Y-63636800D01*
X57047373Y-64518477D01*
X56991622Y-64574228D01*
X56935871Y-64629978D01*
X56848271Y-64761080D01*
X56848264Y-64761093D01*
X56787926Y-64906764D01*
X56787923Y-64906776D01*
X56757162Y-65061419D01*
X56757162Y-67329867D01*
X56737477Y-67396906D01*
X56720843Y-67417548D01*
X56222241Y-67916149D01*
X56160918Y-67949634D01*
X56115162Y-67950941D01*
X55961469Y-67926598D01*
X55961464Y-67926598D01*
X55725280Y-67926598D01*
X55725275Y-67926598D01*
X55492003Y-67963544D01*
X55267375Y-68036531D01*
X55056938Y-68143755D01*
X54947922Y-68222960D01*
X54865862Y-68282581D01*
X54865860Y-68282583D01*
X54865859Y-68282583D01*
X54698857Y-68449585D01*
X54698857Y-68449586D01*
X54698855Y-68449588D01*
X54639234Y-68531648D01*
X54560029Y-68640664D01*
X54452805Y-68851101D01*
X54379818Y-69075729D01*
X54342872Y-69309000D01*
X54342872Y-69545195D01*
X54367215Y-69698888D01*
X54358261Y-69768181D01*
X54332423Y-69805967D01*
X53629373Y-70509019D01*
X53573622Y-70564770D01*
X53517871Y-70620520D01*
X53430271Y-70751622D01*
X53430264Y-70751635D01*
X53369926Y-70897306D01*
X53369923Y-70897318D01*
X53339162Y-71051961D01*
X53339162Y-73275325D01*
X53319477Y-73342364D01*
X53302843Y-73363006D01*
X52611874Y-74053974D01*
X52550551Y-74087459D01*
X52480859Y-74082475D01*
X52460265Y-74072544D01*
X52429401Y-74053974D01*
X52415723Y-74045744D01*
X52415722Y-74045743D01*
X52415721Y-74045743D01*
X52240412Y-73986674D01*
X52056503Y-73966674D01*
X52056499Y-73966674D01*
X51872589Y-73986674D01*
X51697276Y-74045745D01*
X51538772Y-74141113D01*
X51538762Y-74141120D01*
X51507404Y-74168496D01*
X51507384Y-74168515D01*
X50483589Y-75192310D01*
X50483570Y-75192330D01*
X50456194Y-75223688D01*
X50456187Y-75223698D01*
X50360819Y-75382202D01*
X50301748Y-75557515D01*
X50281748Y-75741424D01*
X50281748Y-75741429D01*
X50283359Y-75756244D01*
X50301748Y-75925338D01*
X50340676Y-76040872D01*
X50360819Y-76100651D01*
X50448219Y-76245912D01*
X50465915Y-76313503D01*
X50444258Y-76379932D01*
X50429650Y-76397521D01*
X49406239Y-77420933D01*
X49020973Y-77806199D01*
X48981353Y-77845819D01*
X48909471Y-77917700D01*
X48821871Y-78048802D01*
X48821864Y-78048815D01*
X48761526Y-78194486D01*
X48761523Y-78194498D01*
X48730762Y-78349141D01*
X48730762Y-80456266D01*
X48722117Y-80485706D01*
X48715594Y-80515693D01*
X48711839Y-80520708D01*
X48711077Y-80523305D01*
X48694443Y-80543947D01*
X48662241Y-80576149D01*
X48600918Y-80609634D01*
X48555162Y-80610941D01*
X48401469Y-80586598D01*
X48401464Y-80586598D01*
X48165280Y-80586598D01*
X48165275Y-80586598D01*
X47932003Y-80623544D01*
X47707375Y-80696531D01*
X47496938Y-80803755D01*
X47437482Y-80846953D01*
X47305862Y-80942581D01*
X47305860Y-80942583D01*
X47305859Y-80942583D01*
X47138857Y-81109585D01*
X47138857Y-81109586D01*
X47138855Y-81109588D01*
X47079234Y-81191648D01*
X47000029Y-81300664D01*
X46892805Y-81511101D01*
X46819818Y-81735729D01*
X46782872Y-81969000D01*
X46782872Y-82205195D01*
X46807215Y-82358888D01*
X46798261Y-82428181D01*
X46772423Y-82465967D01*
X46404773Y-82833619D01*
X46349022Y-82889370D01*
X46293271Y-82945120D01*
X46205671Y-83076222D01*
X46205664Y-83076235D01*
X46145326Y-83221906D01*
X46145323Y-83221918D01*
X46114562Y-83376561D01*
X46114562Y-85599925D01*
X46094877Y-85666964D01*
X46078243Y-85687606D01*
X45051874Y-86713974D01*
X44990551Y-86747459D01*
X44920859Y-86742475D01*
X44900265Y-86732544D01*
X44869401Y-86713974D01*
X44855723Y-86705744D01*
X44855722Y-86705743D01*
X44855721Y-86705743D01*
X44680412Y-86646674D01*
X44496503Y-86626674D01*
X44496499Y-86626674D01*
X44312589Y-86646674D01*
X44137276Y-86705745D01*
X43978772Y-86801113D01*
X43978762Y-86801120D01*
X43947404Y-86828496D01*
X43947384Y-86828515D01*
X42923589Y-87852310D01*
X42923570Y-87852330D01*
X42896194Y-87883688D01*
X42896187Y-87883698D01*
X42800819Y-88042202D01*
X42741748Y-88217515D01*
X42721748Y-88401424D01*
X42721748Y-88401429D01*
X42741748Y-88585338D01*
X42800817Y-88760647D01*
X42827618Y-88805191D01*
X42845313Y-88872783D01*
X42823656Y-88939212D01*
X42809048Y-88956800D01*
X41104132Y-90661717D01*
X41010075Y-90755773D01*
X41010072Y-90755777D01*
X40922471Y-90886880D01*
X40922464Y-90886893D01*
X40862126Y-91032564D01*
X40862123Y-91032576D01*
X40831362Y-91187219D01*
X40831362Y-93122598D01*
X40811677Y-93189637D01*
X40758873Y-93235392D01*
X40707362Y-93246598D01*
X40605275Y-93246598D01*
X40372003Y-93283544D01*
X40147375Y-93356531D01*
X39936938Y-93463755D01*
X39827922Y-93542960D01*
X39745862Y-93602581D01*
X39745860Y-93602583D01*
X39745859Y-93602583D01*
X39578857Y-93769585D01*
X39578857Y-93769586D01*
X39578855Y-93769588D01*
X39519234Y-93851648D01*
X39440029Y-93960664D01*
X39332805Y-94171101D01*
X39259818Y-94395729D01*
X39222872Y-94629000D01*
X39222872Y-94865195D01*
X39247215Y-95018889D01*
X39238261Y-95088182D01*
X39212428Y-95125964D01*
X39206670Y-95131722D01*
X39119071Y-95262822D01*
X39119064Y-95262835D01*
X39058726Y-95408506D01*
X39058723Y-95408518D01*
X39027962Y-95563161D01*
X39027962Y-101239876D01*
X39024028Y-101253273D01*
X39024912Y-101267209D01*
X39014378Y-101286135D01*
X39008277Y-101306915D01*
X38997725Y-101316057D01*
X38990934Y-101328261D01*
X38971838Y-101338489D01*
X38955473Y-101352670D01*
X38940404Y-101355326D01*
X38929343Y-101361251D01*
X38903145Y-101361893D01*
X38894120Y-101363485D01*
X38889310Y-101363102D01*
X38850644Y-101356978D01*
X38812398Y-101356978D01*
X38807487Y-101356587D01*
X38779267Y-101345801D01*
X38750290Y-101337293D01*
X38746965Y-101333456D01*
X38742221Y-101331643D01*
X38724310Y-101307311D01*
X38704535Y-101284489D01*
X38703698Y-101279309D01*
X38700802Y-101275374D01*
X38699337Y-101252293D01*
X38694056Y-101219572D01*
X38711254Y-101061429D01*
X38711254Y-101061424D01*
X38705894Y-101012143D01*
X38691254Y-100877516D01*
X38632184Y-100702205D01*
X38552440Y-100569669D01*
X38536814Y-100543698D01*
X38536807Y-100543688D01*
X38509431Y-100512330D01*
X38509428Y-100512326D01*
X38509422Y-100512320D01*
X38509413Y-100512310D01*
X37485618Y-99488515D01*
X37485607Y-99488505D01*
X37485602Y-99488500D01*
X37473966Y-99478342D01*
X37454239Y-99461120D01*
X37454229Y-99461113D01*
X37295725Y-99365745D01*
X37295724Y-99365744D01*
X37295723Y-99365744D01*
X37120412Y-99306674D01*
X36936503Y-99286674D01*
X36936499Y-99286674D01*
X36752589Y-99306674D01*
X36577276Y-99365745D01*
X36418772Y-99461113D01*
X36418762Y-99461120D01*
X36387404Y-99488496D01*
X36387384Y-99488515D01*
X35363589Y-100512310D01*
X35363570Y-100512330D01*
X35336194Y-100543688D01*
X35336187Y-100543698D01*
X35240819Y-100702202D01*
X35181748Y-100877515D01*
X35161748Y-101061424D01*
X35161748Y-101061429D01*
X35181748Y-101245338D01*
X35240817Y-101420647D01*
X35267618Y-101465191D01*
X35285313Y-101532783D01*
X35263656Y-101599212D01*
X35249048Y-101616800D01*
X34800300Y-102065550D01*
X34720773Y-102145077D01*
X34675550Y-102190300D01*
X34609271Y-102256578D01*
X34521671Y-102387680D01*
X34521664Y-102387693D01*
X34461326Y-102533364D01*
X34461323Y-102533376D01*
X34430562Y-102688019D01*
X34430562Y-104956467D01*
X34410877Y-105023506D01*
X34394243Y-105044148D01*
X33542241Y-105896149D01*
X33480918Y-105929634D01*
X33435162Y-105930941D01*
X33281469Y-105906598D01*
X33281464Y-105906598D01*
X33045280Y-105906598D01*
X33045275Y-105906598D01*
X32812003Y-105943544D01*
X32587375Y-106016531D01*
X32376938Y-106123755D01*
X32267922Y-106202960D01*
X32185862Y-106262581D01*
X32185860Y-106262583D01*
X32185859Y-106262583D01*
X32018857Y-106429585D01*
X32018857Y-106429586D01*
X32018855Y-106429588D01*
X31959234Y-106511648D01*
X31880029Y-106620664D01*
X31772805Y-106831101D01*
X31699818Y-107055729D01*
X31662872Y-107289000D01*
X31662872Y-107525195D01*
X31687215Y-107678888D01*
X31678261Y-107748181D01*
X31652423Y-107785967D01*
X31049216Y-108389176D01*
X30993465Y-108444927D01*
X30937714Y-108500677D01*
X30850114Y-108631779D01*
X30850107Y-108631792D01*
X30789769Y-108777463D01*
X30789766Y-108777475D01*
X30759005Y-108932118D01*
X30759005Y-108932123D01*
X30759005Y-110186789D01*
X30759005Y-110344473D01*
X30769889Y-110399191D01*
X30770579Y-110402657D01*
X30772962Y-110426850D01*
X30772962Y-111141525D01*
X30753277Y-111208564D01*
X30736643Y-111229206D01*
X29931874Y-112033974D01*
X29870551Y-112067459D01*
X29800859Y-112062475D01*
X29780265Y-112052544D01*
X29772392Y-112047807D01*
X29735723Y-112025744D01*
X29735722Y-112025743D01*
X29735721Y-112025743D01*
X29560412Y-111966674D01*
X29376503Y-111946674D01*
X29376499Y-111946674D01*
X29192589Y-111966674D01*
X29017276Y-112025745D01*
X28858772Y-112121113D01*
X28858762Y-112121120D01*
X28827404Y-112148496D01*
X28827384Y-112148515D01*
X27803589Y-113172310D01*
X27803570Y-113172330D01*
X27776194Y-113203688D01*
X27776187Y-113203698D01*
X27680819Y-113362202D01*
X27621748Y-113537515D01*
X27601748Y-113721424D01*
X27601748Y-113721429D01*
X27621748Y-113905338D01*
X27680817Y-114080647D01*
X27707618Y-114125191D01*
X27725313Y-114192783D01*
X27703656Y-114259212D01*
X27689049Y-114276800D01*
X27354773Y-114611077D01*
X27299022Y-114666828D01*
X27243271Y-114722578D01*
X27155671Y-114853680D01*
X27155664Y-114853693D01*
X27095326Y-114999364D01*
X27095323Y-114999376D01*
X27064562Y-115154019D01*
X27064562Y-116043448D01*
X27044877Y-116110487D01*
X27028243Y-116131129D01*
X24738573Y-118420799D01*
X24682822Y-118476550D01*
X24627071Y-118532300D01*
X24539471Y-118663402D01*
X24539464Y-118663415D01*
X24479126Y-118809086D01*
X24479123Y-118809098D01*
X24448362Y-118963741D01*
X24448362Y-120797704D01*
X24428677Y-120864743D01*
X24424680Y-120870590D01*
X24290229Y-121055644D01*
X24183005Y-121266081D01*
X24110018Y-121490709D01*
X24073072Y-121723980D01*
X22350156Y-121723980D01*
X22339566Y-121678091D01*
X22337507Y-121666804D01*
X22287327Y-121294682D01*
X22286322Y-121283233D01*
X22286000Y-121275441D01*
X22270829Y-120908088D01*
X22270886Y-120896625D01*
X22290211Y-120521629D01*
X22291335Y-120510189D01*
X22300613Y-120446317D01*
X22345309Y-120138613D01*
X22347481Y-120127361D01*
X22435649Y-119762359D01*
X22438853Y-119751360D01*
X22560451Y-119396094D01*
X22564660Y-119385437D01*
X22718645Y-119042963D01*
X22723822Y-119032742D01*
X22910332Y-118703419D01*
X22910717Y-118702746D01*
X22911924Y-118700647D01*
X22946793Y-118645242D01*
X22950239Y-118634095D01*
X22957149Y-118622093D01*
X22957565Y-118621694D01*
X22958144Y-118620396D01*
X77894573Y-26603145D01*
X77897650Y-26598663D01*
X77932193Y-26540149D01*
X77935221Y-26535281D01*
X78153995Y-26201156D01*
X78160724Y-26191851D01*
X78407741Y-25881698D01*
X78415298Y-25873065D01*
X78690013Y-25587141D01*
X78698322Y-25579260D01*
X78998366Y-25320036D01*
X79007390Y-25312944D01*
X79330163Y-25082662D01*
X79339797Y-25076442D01*
X79682527Y-24877078D01*
X79692721Y-24871766D01*
X80052453Y-24705038D01*
X80063073Y-24700703D01*
X80436730Y-24568040D01*
X80447713Y-24564706D01*
X80832041Y-24467262D01*
X80843294Y-24464959D01*
X81235005Y-24403566D01*
X81246432Y-24402315D01*
X81642134Y-24377504D01*
X81653632Y-24377319D01*
X82049930Y-24389301D01*
G37*
%TD.AperFunction*%
%TD*%
M02*
