%TF.GenerationSoftware,KiCad,Pcbnew,10.0.2*%
%TF.CreationDate,2026-06-25T10:32:49+03:00*%
%TF.ProjectId,kicad_selka_rev2,6b696361-645f-4736-956c-6b615f726576,2*%
%TF.SameCoordinates,Original*%
%TF.FileFunction,Soldermask,Bot*%
%TF.FilePolarity,Negative*%
%FSLAX46Y46*%
G04 Gerber Fmt 4.6, Leading zero omitted, Abs format (unit mm)*
G04 Created by KiCad (PCBNEW 10.0.2) date 2026-06-25 10:32:49*
%MOMM*%
%LPD*%
G01*
G04 APERTURE LIST*
G04 Aperture macros list*
%AMRoundRect*
0 Rectangle with rounded corners*
0 $1 Rounding radius*
0 $2 $3 $4 $5 $6 $7 $8 $9 X,Y pos of 4 corners*
0 Add a 4 corners polygon primitive as box body*
4,1,4,$2,$3,$4,$5,$6,$7,$8,$9,$2,$3,0*
0 Add four circle primitives for the rounded corners*
1,1,$1+$1,$2,$3*
1,1,$1+$1,$4,$5*
1,1,$1+$1,$6,$7*
1,1,$1+$1,$8,$9*
0 Add four rect primitives between the rounded corners*
20,1,$1+$1,$2,$3,$4,$5,0*
20,1,$1+$1,$4,$5,$6,$7,0*
20,1,$1+$1,$6,$7,$8,$9,0*
20,1,$1+$1,$8,$9,$2,$3,0*%
%AMHorizOval*
0 Thick line with rounded ends*
0 $1 width*
0 $2 $3 position (X,Y) of the first rounded end (center of the circle)*
0 $4 $5 position (X,Y) of the second rounded end (center of the circle)*
0 Add line between two ends*
20,1,$1,$2,$3,$4,$5,0*
0 Add two circle primitives to create the rounded ends*
1,1,$1,$2,$3*
1,1,$1,$4,$5*%
G04 Aperture macros list end*
%ADD10RoundRect,0.250000X0.000000X-0.919239X0.919239X0.000000X0.000000X0.919239X-0.919239X0.000000X0*%
%ADD11C,1.800000*%
%ADD12RoundRect,0.250000X-0.919239X0.000000X0.000000X-0.919239X0.919239X0.000000X0.000000X0.919239X0*%
%ADD13RoundRect,0.250000X0.650000X0.650000X-0.650000X0.650000X-0.650000X-0.650000X0.650000X-0.650000X0*%
%ADD14RoundRect,0.250000X-0.650000X-0.650000X0.650000X-0.650000X0.650000X0.650000X-0.650000X0.650000X0*%
%ADD15RoundRect,0.250000X0.919239X0.000000X0.000000X0.919239X-0.919239X0.000000X0.000000X-0.919239X0*%
%ADD16RoundRect,0.250000X-0.650000X0.650000X-0.650000X-0.650000X0.650000X-0.650000X0.650000X0.650000X0*%
%ADD17RoundRect,0.250000X0.650000X-0.650000X0.650000X0.650000X-0.650000X0.650000X-0.650000X-0.650000X0*%
%ADD18RoundRect,0.250000X0.000000X0.919239X-0.919239X0.000000X0.000000X-0.919239X0.919239X0.000000X0*%
%ADD19RoundRect,0.150000X-0.512652X-0.724784X0.724784X0.512652X0.512652X0.724784X-0.724784X-0.512652X0*%
%ADD20RoundRect,0.250000X-0.477297X1.042983X-1.042983X0.477297X0.477297X-1.042983X1.042983X-0.477297X0*%
%ADD21RoundRect,0.250000X-0.848528X0.000000X0.000000X-0.848528X0.848528X0.000000X0.000000X0.848528X0*%
%ADD22C,1.700000*%
%ADD23RoundRect,0.250000X0.625000X-0.400000X0.625000X0.400000X-0.625000X0.400000X-0.625000X-0.400000X0*%
%ADD24RoundRect,0.250000X0.848528X0.000000X0.000000X0.848528X-0.848528X0.000000X0.000000X-0.848528X0*%
%ADD25RoundRect,0.250001X-1.285165X-0.051265X-0.051265X-1.285165X1.285165X0.051265X0.051265X1.285165X0*%
%ADD26RoundRect,0.250000X0.751301X0.167938X0.167938X0.751301X-0.751301X-0.167938X-0.167938X-0.751301X0*%
%ADD27RoundRect,0.250000X-0.724784X-0.159099X-0.159099X-0.724784X0.724784X0.159099X0.159099X0.724784X0*%
%ADD28RoundRect,0.250000X-0.751301X-0.167938X-0.167938X-0.751301X0.751301X0.167938X0.167938X0.751301X0*%
%ADD29RoundRect,0.250000X0.600000X-0.600000X0.600000X0.600000X-0.600000X0.600000X-0.600000X-0.600000X0*%
%ADD30RoundRect,0.250000X0.883883X-0.176777X-0.176777X0.883883X-0.883883X0.176777X0.176777X-0.883883X0*%
%ADD31HorizOval,1.500000X-0.176777X0.176777X0.176777X-0.176777X0*%
%ADD32RoundRect,0.250000X0.565685X0.070711X0.070711X0.565685X-0.565685X-0.070711X-0.070711X-0.565685X0*%
G04 APERTURE END LIST*
D10*
%TO.C,D46*%
X60974101Y-121823749D03*
D11*
X62770152Y-120027698D03*
%TD*%
D12*
%TO.C,D62*%
X67176501Y-50421427D03*
D11*
X68972552Y-52217478D03*
%TD*%
D12*
%TO.C,D60*%
X59616501Y-63081427D03*
D11*
X61412552Y-64877478D03*
%TD*%
D13*
%TO.C,D10*%
X72121054Y-93701037D03*
D11*
X69581054Y-93701037D03*
%TD*%
D14*
%TO.C,D11*%
X68371054Y-100921037D03*
D11*
X70911054Y-100921037D03*
%TD*%
D12*
%TO.C,D58*%
X52056501Y-75741427D03*
D11*
X53852552Y-77537478D03*
%TD*%
D12*
%TO.C,D56*%
X44496501Y-88401427D03*
D11*
X46292552Y-90197478D03*
%TD*%
D15*
%TO.C,D57*%
X50079423Y-83883149D03*
D11*
X48283372Y-82087098D03*
%TD*%
D16*
%TO.C,D47*%
X54789062Y-119672588D03*
D11*
X54789062Y-122212588D03*
%TD*%
D14*
%TO.C,D1*%
X80463462Y-28821788D03*
D11*
X83003462Y-28821788D03*
%TD*%
D12*
%TO.C,D54*%
X36936501Y-101061427D03*
D11*
X38732552Y-102857478D03*
%TD*%
D15*
%TO.C,D63*%
X72759423Y-45903149D03*
D11*
X70963372Y-44107098D03*
%TD*%
D13*
%TO.C,D2*%
X81721054Y-35941037D03*
D11*
X79181054Y-35941037D03*
%TD*%
D16*
%TO.C,D49*%
X40633062Y-119672588D03*
D11*
X40633062Y-122212588D03*
%TD*%
D17*
%TO.C,D48*%
X47727862Y-122217588D03*
D11*
X47727862Y-119677588D03*
%TD*%
D18*
%TO.C,D51*%
X27369623Y-120046027D03*
D11*
X25573572Y-121842078D03*
%TD*%
D13*
%TO.C,D8*%
X74521054Y-79261037D03*
D11*
X71981054Y-79261037D03*
%TD*%
D15*
%TO.C,D53*%
X34959423Y-109203149D03*
D11*
X33163372Y-107407098D03*
%TD*%
D14*
%TO.C,D3*%
X77971054Y-43161037D03*
D11*
X80511054Y-43161037D03*
%TD*%
D14*
%TO.C,D9*%
X70771054Y-86481037D03*
D11*
X73311054Y-86481037D03*
%TD*%
D15*
%TO.C,D59*%
X57639423Y-71223149D03*
D11*
X55843372Y-69427098D03*
%TD*%
D17*
%TO.C,D50*%
X33571862Y-122217588D03*
D11*
X33571862Y-119677588D03*
%TD*%
D15*
%TO.C,D55*%
X42519423Y-96543149D03*
D11*
X40723372Y-94747098D03*
%TD*%
D13*
%TO.C,D6*%
X76921054Y-64821037D03*
D11*
X74381054Y-64821037D03*
%TD*%
D14*
%TO.C,D5*%
X75571054Y-57601037D03*
D11*
X78111054Y-57601037D03*
%TD*%
D12*
%TO.C,D64*%
X74736501Y-37761427D03*
D11*
X76532552Y-39557478D03*
%TD*%
D12*
%TO.C,D52*%
X29376501Y-113721427D03*
D11*
X31172552Y-115517478D03*
%TD*%
D13*
%TO.C,D4*%
X79321054Y-50381037D03*
D11*
X76781054Y-50381037D03*
%TD*%
D15*
%TO.C,D61*%
X65199423Y-58563149D03*
D11*
X63403372Y-56767098D03*
%TD*%
D10*
%TO.C,D13*%
X66344493Y-116262598D03*
D11*
X68140544Y-114466547D03*
%TD*%
D14*
%TO.C,D7*%
X73171054Y-72041037D03*
D11*
X75711054Y-72041037D03*
%TD*%
D13*
%TO.C,D12*%
X69721054Y-108141037D03*
D11*
X67181054Y-108141037D03*
%TD*%
D19*
%TO.C,U1*%
X57980531Y-98457150D03*
X57082505Y-97559124D03*
X56184479Y-96661099D03*
X55286454Y-95763073D03*
X54388428Y-94865047D03*
X53490403Y-93967022D03*
X52592377Y-93068996D03*
X51694351Y-92170971D03*
X50796326Y-91272945D03*
X49898300Y-90374919D03*
X56474393Y-83798826D03*
X57372419Y-84696852D03*
X58270445Y-85594877D03*
X59168470Y-86492903D03*
X60066496Y-87390929D03*
X60964521Y-88288954D03*
X61862547Y-89186980D03*
X62760573Y-90085005D03*
X63658598Y-90983031D03*
X64556624Y-91881057D03*
%TD*%
D20*
%TO.C,R15*%
X38613078Y-110580572D03*
X36421046Y-112772604D03*
%TD*%
D21*
%TO.C,SW1*%
X57968155Y-77052295D03*
D22*
X59764206Y-75256244D03*
%TD*%
D23*
%TO.C,R2*%
X68251062Y-75939388D03*
X68251062Y-72839388D03*
%TD*%
%TO.C,R3*%
X63679062Y-79444588D03*
X63679062Y-76344588D03*
%TD*%
D24*
%TO.C,J2*%
X57299854Y-106096123D03*
D22*
X55503803Y-107892174D03*
X53707752Y-109688225D03*
X51911700Y-111484277D03*
X50115649Y-113280328D03*
X48319598Y-115076379D03*
%TD*%
D23*
%TO.C,R4*%
X63729862Y-71697588D03*
X63729862Y-68597588D03*
%TD*%
D25*
%TO.C,C1*%
X41296636Y-113805162D03*
X44913488Y-117422014D03*
%TD*%
D26*
%TO.C,C2*%
X53201516Y-97389042D03*
X50991808Y-95179334D03*
%TD*%
D27*
%TO.C,R5*%
X65529446Y-95391372D03*
X67721478Y-97583404D03*
%TD*%
D28*
%TO.C,C3*%
X61431208Y-84663734D03*
X63640916Y-86873442D03*
%TD*%
D27*
%TO.C,R6*%
X62887846Y-98007572D03*
X65079878Y-100199604D03*
%TD*%
D29*
%TO.C,J1*%
X38333600Y-117518588D03*
D22*
X35793600Y-117518588D03*
%TD*%
D30*
%TO.C,J3*%
X62685210Y-107336441D03*
D31*
X61270996Y-108750655D03*
X59856783Y-110164868D03*
X58442569Y-111579082D03*
X57028356Y-112993295D03*
X55614142Y-114407509D03*
X54199929Y-115821722D03*
X52785715Y-117235936D03*
%TD*%
D23*
%TO.C,R1*%
X68251062Y-83914988D03*
X68251062Y-80814988D03*
%TD*%
D32*
%TO.C,R16*%
X58518769Y-81624295D03*
X57104555Y-80210081D03*
%TD*%
D27*
%TO.C,R7*%
X60220846Y-100547572D03*
X62412878Y-102739604D03*
%TD*%
M02*
