%TF.GenerationSoftware,KiCad,Pcbnew,10.0.2*%
%TF.CreationDate,2026-06-25T10:32:49+03:00*%
%TF.ProjectId,kicad_selka_rev2,6b696361-645f-4736-956c-6b615f726576,2*%
%TF.SameCoordinates,Original*%
%TF.FileFunction,Copper,L1,Top*%
%TF.FilePolarity,Positive*%
%FSLAX46Y46*%
G04 Gerber Fmt 4.6, Leading zero omitted, Abs format (unit mm)*
G04 Created by KiCad (PCBNEW 10.0.2) date 2026-06-25 10:32:49*
%MOMM*%
%LPD*%
G01*
G04 APERTURE LIST*
G04 Aperture macros list*
%AMRoundRect*
0 Rectangle with rounded corners*
0 $1 Rounding radius*
0 $2 $3 $4 $5 $6 $7 $8 $9 X,Y pos of 4 corners*
0 Add a 4 corners polygon primitive as box body*
4,1,4,$2,$3,$4,$5,$6,$7,$8,$9,$2,$3,0*
0 Add four circle primitives for the rounded corners*
1,1,$1+$1,$2,$3*
1,1,$1+$1,$4,$5*
1,1,$1+$1,$6,$7*
1,1,$1+$1,$8,$9*
0 Add four rect primitives between the rounded corners*
20,1,$1+$1,$2,$3,$4,$5,0*
20,1,$1+$1,$4,$5,$6,$7,0*
20,1,$1+$1,$6,$7,$8,$9,0*
20,1,$1+$1,$8,$9,$2,$3,0*%
%AMHorizOval*
0 Thick line with rounded ends*
0 $1 width*
0 $2 $3 position (X,Y) of the first rounded end (center of the circle)*
0 $4 $5 position (X,Y) of the second rounded end (center of the circle)*
0 Add line between two ends*
20,1,$1,$2,$3,$4,$5,0*
0 Add two circle primitives to create the rounded ends*
1,1,$1,$2,$3*
1,1,$1,$4,$5*%
G04 Aperture macros list end*
%TA.AperFunction,ComponentPad*%
%ADD10RoundRect,0.250000X0.000000X-0.919239X0.919239X0.000000X0.000000X0.919239X-0.919239X0.000000X0*%
%TD*%
%TA.AperFunction,ComponentPad*%
%ADD11C,1.800000*%
%TD*%
%TA.AperFunction,ComponentPad*%
%ADD12RoundRect,0.250000X-0.919239X0.000000X0.000000X-0.919239X0.919239X0.000000X0.000000X0.919239X0*%
%TD*%
%TA.AperFunction,ComponentPad*%
%ADD13RoundRect,0.250000X0.650000X0.650000X-0.650000X0.650000X-0.650000X-0.650000X0.650000X-0.650000X0*%
%TD*%
%TA.AperFunction,ComponentPad*%
%ADD14RoundRect,0.250000X-0.650000X-0.650000X0.650000X-0.650000X0.650000X0.650000X-0.650000X0.650000X0*%
%TD*%
%TA.AperFunction,ComponentPad*%
%ADD15RoundRect,0.250000X0.919239X0.000000X0.000000X0.919239X-0.919239X0.000000X0.000000X-0.919239X0*%
%TD*%
%TA.AperFunction,ComponentPad*%
%ADD16RoundRect,0.250000X-0.650000X0.650000X-0.650000X-0.650000X0.650000X-0.650000X0.650000X0.650000X0*%
%TD*%
%TA.AperFunction,ComponentPad*%
%ADD17RoundRect,0.250000X0.650000X-0.650000X0.650000X0.650000X-0.650000X0.650000X-0.650000X-0.650000X0*%
%TD*%
%TA.AperFunction,ComponentPad*%
%ADD18RoundRect,0.250000X0.000000X0.919239X-0.919239X0.000000X0.000000X-0.919239X0.919239X0.000000X0*%
%TD*%
%TA.AperFunction,ComponentPad*%
%ADD19RoundRect,0.250000X-0.848528X0.000000X0.000000X-0.848528X0.848528X0.000000X0.000000X0.848528X0*%
%TD*%
%TA.AperFunction,ComponentPad*%
%ADD20C,1.700000*%
%TD*%
%TA.AperFunction,ComponentPad*%
%ADD21RoundRect,0.250000X0.848528X0.000000X0.000000X0.848528X-0.848528X0.000000X0.000000X-0.848528X0*%
%TD*%
%TA.AperFunction,ComponentPad*%
%ADD22RoundRect,0.250000X0.600000X-0.600000X0.600000X0.600000X-0.600000X0.600000X-0.600000X-0.600000X0*%
%TD*%
%TA.AperFunction,ComponentPad*%
%ADD23RoundRect,0.250000X0.883883X-0.176777X-0.176777X0.883883X-0.883883X0.176777X0.176777X-0.883883X0*%
%TD*%
%TA.AperFunction,ComponentPad*%
%ADD24HorizOval,1.500000X-0.176777X0.176777X0.176777X-0.176777X0*%
%TD*%
%TA.AperFunction,ViaPad*%
%ADD25C,0.600000*%
%TD*%
%TA.AperFunction,Conductor*%
%ADD26C,0.400000*%
%TD*%
%TA.AperFunction,Conductor*%
%ADD27C,0.800000*%
%TD*%
G04 APERTURE END LIST*
D10*
%TO.P,D46,1,K_1*%
%TO.N,Net-(D11-K)*%
X60974101Y-121823749D03*
D11*
%TO.P,D46,2,A_2*%
%TO.N,Net-(D1-K)*%
X62770152Y-120027698D03*
%TD*%
D12*
%TO.P,D62,1,K_1*%
%TO.N,Net-(D10-A)*%
X67176501Y-50421427D03*
D11*
%TO.P,D62,2,A_2*%
%TO.N,Net-(D51-K)*%
X68972552Y-52217478D03*
%TD*%
D12*
%TO.P,D60,1,K_1*%
%TO.N,Net-(D10-A)*%
X59616501Y-63081427D03*
D11*
%TO.P,D60,2,A_2*%
%TO.N,Net-(D49-K)*%
X61412552Y-64877478D03*
%TD*%
D13*
%TO.P,D10,1,K_1*%
%TO.N,Net-(D1-A)*%
X72121054Y-93701037D03*
D11*
%TO.P,D10,2,A_2*%
%TO.N,Net-(D10-A)*%
X69581054Y-93701037D03*
%TD*%
D14*
%TO.P,D11,1,K_1*%
%TO.N,Net-(D11-K)*%
X68371054Y-100921037D03*
D11*
%TO.P,D11,2,A_2*%
%TO.N,Net-(D1-A)*%
X70911054Y-100921037D03*
%TD*%
D12*
%TO.P,D58,1,K_1*%
%TO.N,Net-(D10-A)*%
X52056501Y-75741427D03*
D11*
%TO.P,D58,2,A_2*%
%TO.N,Net-(D3-K)*%
X53852552Y-77537478D03*
%TD*%
D12*
%TO.P,D56,1,K_1*%
%TO.N,Net-(D10-A)*%
X44496501Y-88401427D03*
D11*
%TO.P,D56,2,A_2*%
%TO.N,Net-(D1-K)*%
X46292552Y-90197478D03*
%TD*%
D15*
%TO.P,D57,1,K_1*%
%TO.N,Net-(D3-K)*%
X50079423Y-83883149D03*
D11*
%TO.P,D57,2,A_2*%
%TO.N,Net-(D10-A)*%
X48283372Y-82087098D03*
%TD*%
D16*
%TO.P,D47,1,K_1*%
%TO.N,Net-(D3-K)*%
X54789062Y-119672588D03*
D11*
%TO.P,D47,2,A_2*%
%TO.N,Net-(D11-K)*%
X54789062Y-122212588D03*
%TD*%
D14*
%TO.P,D1,1,K_1*%
%TO.N,Net-(D1-K)*%
X80463462Y-28821788D03*
D11*
%TO.P,D1,2,A_2*%
%TO.N,Net-(D1-A)*%
X83003462Y-28821788D03*
%TD*%
D12*
%TO.P,D54,1,K_1*%
%TO.N,Net-(D11-K)*%
X36936501Y-101061427D03*
D11*
%TO.P,D54,2,A_2*%
%TO.N,Net-(D10-A)*%
X38732552Y-102857478D03*
%TD*%
D15*
%TO.P,D63,1,K_1*%
%TO.N,Net-(D1-K)*%
X72759423Y-45903149D03*
D11*
%TO.P,D63,2,A_2*%
%TO.N,Net-(D51-K)*%
X70963372Y-44107098D03*
%TD*%
D13*
%TO.P,D2,1,K_1*%
%TO.N,Net-(D1-A)*%
X81721054Y-35941037D03*
D11*
%TO.P,D2,2,A_2*%
%TO.N,Net-(D1-K)*%
X79181054Y-35941037D03*
%TD*%
D16*
%TO.P,D49,1,K_1*%
%TO.N,Net-(D49-K)*%
X40633062Y-119672588D03*
D11*
%TO.P,D49,2,A_2*%
%TO.N,Net-(D11-K)*%
X40633062Y-122212588D03*
%TD*%
D17*
%TO.P,D48,1,K_1*%
%TO.N,Net-(D11-K)*%
X47727862Y-122217588D03*
D11*
%TO.P,D48,2,A_2*%
%TO.N,Net-(D3-K)*%
X47727862Y-119677588D03*
%TD*%
D18*
%TO.P,D51,1,K_1*%
%TO.N,Net-(D51-K)*%
X27369623Y-120046027D03*
D11*
%TO.P,D51,2,A_2*%
%TO.N,Net-(D11-K)*%
X25573572Y-121842078D03*
%TD*%
D13*
%TO.P,D8,1,K_1*%
%TO.N,Net-(D1-A)*%
X74521054Y-79261037D03*
D11*
%TO.P,D8,2,A_2*%
%TO.N,Net-(D51-K)*%
X71981054Y-79261037D03*
%TD*%
D15*
%TO.P,D53,1,K_1*%
%TO.N,Net-(D10-A)*%
X34959423Y-109203149D03*
D11*
%TO.P,D53,2,A_2*%
%TO.N,Net-(D11-K)*%
X33163372Y-107407098D03*
%TD*%
D14*
%TO.P,D3,1,K_1*%
%TO.N,Net-(D3-K)*%
X77971054Y-43161037D03*
D11*
%TO.P,D3,2,A_2*%
%TO.N,Net-(D1-A)*%
X80511054Y-43161037D03*
%TD*%
D14*
%TO.P,D9,1,K_1*%
%TO.N,Net-(D10-A)*%
X70771054Y-86481037D03*
D11*
%TO.P,D9,2,A_2*%
%TO.N,Net-(D1-A)*%
X73311054Y-86481037D03*
%TD*%
D15*
%TO.P,D59,1,K_1*%
%TO.N,Net-(D49-K)*%
X57639423Y-71223149D03*
D11*
%TO.P,D59,2,A_2*%
%TO.N,Net-(D10-A)*%
X55843372Y-69427098D03*
%TD*%
D17*
%TO.P,D50,1,K_1*%
%TO.N,Net-(D11-K)*%
X33571862Y-122217588D03*
D11*
%TO.P,D50,2,A_2*%
%TO.N,Net-(D49-K)*%
X33571862Y-119677588D03*
%TD*%
D15*
%TO.P,D55,1,K_1*%
%TO.N,Net-(D1-K)*%
X42519423Y-96543149D03*
D11*
%TO.P,D55,2,A_2*%
%TO.N,Net-(D10-A)*%
X40723372Y-94747098D03*
%TD*%
D13*
%TO.P,D6,1,K_1*%
%TO.N,Net-(D1-A)*%
X76921054Y-64821037D03*
D11*
%TO.P,D6,2,A_2*%
%TO.N,Net-(D49-K)*%
X74381054Y-64821037D03*
%TD*%
D14*
%TO.P,D5,1,K_1*%
%TO.N,Net-(D49-K)*%
X75571054Y-57601037D03*
D11*
%TO.P,D5,2,A_2*%
%TO.N,Net-(D1-A)*%
X78111054Y-57601037D03*
%TD*%
D12*
%TO.P,D64,1,K_1*%
%TO.N,Net-(D51-K)*%
X74736501Y-37761427D03*
D11*
%TO.P,D64,2,A_2*%
%TO.N,Net-(D1-K)*%
X76532552Y-39557478D03*
%TD*%
D12*
%TO.P,D52,1,K_1*%
%TO.N,Net-(D11-K)*%
X29376501Y-113721427D03*
D11*
%TO.P,D52,2,A_2*%
%TO.N,Net-(D51-K)*%
X31172552Y-115517478D03*
%TD*%
D13*
%TO.P,D4,1,K_1*%
%TO.N,Net-(D1-A)*%
X79321054Y-50381037D03*
D11*
%TO.P,D4,2,A_2*%
%TO.N,Net-(D3-K)*%
X76781054Y-50381037D03*
%TD*%
D15*
%TO.P,D61,1,K_1*%
%TO.N,Net-(D51-K)*%
X65199423Y-58563149D03*
D11*
%TO.P,D61,2,A_2*%
%TO.N,Net-(D10-A)*%
X63403372Y-56767098D03*
%TD*%
D10*
%TO.P,D13,1,K_1*%
%TO.N,Net-(D1-K)*%
X66344493Y-116262598D03*
D11*
%TO.P,D13,2,A_2*%
%TO.N,Net-(D11-K)*%
X68140544Y-114466547D03*
%TD*%
D14*
%TO.P,D7,1,K_1*%
%TO.N,Net-(D51-K)*%
X73171054Y-72041037D03*
D11*
%TO.P,D7,2,A_2*%
%TO.N,Net-(D1-A)*%
X75711054Y-72041037D03*
%TD*%
D13*
%TO.P,D12,1,K_1*%
%TO.N,Net-(D1-A)*%
X69721054Y-108141037D03*
D11*
%TO.P,D12,2,A_2*%
%TO.N,Net-(D11-K)*%
X67181054Y-108141037D03*
%TD*%
D19*
%TO.P,SW1,1,A_1*%
%TO.N,Net-(SW1-A)*%
X57968155Y-77052295D03*
D20*
%TO.P,SW1,2,B_2*%
%TO.N,GND1*%
X59764206Y-75256244D03*
%TD*%
D21*
%TO.P,J2,1,Pin_1_1*%
%TO.N,/PB0*%
X57299854Y-106096123D03*
D20*
%TO.P,J2,6,Pin_6_6*%
%TO.N,/PB7*%
X48319598Y-115076379D03*
%TD*%
D22*
%TO.P,J1,1,Pin_1_1*%
%TO.N,+5V*%
X38333600Y-117518588D03*
D20*
%TO.P,J1,2,Pin_2_2*%
%TO.N,GND1*%
X35793600Y-117518588D03*
%TD*%
D23*
%TO.P,J3,1,Pin_1_1*%
%TO.N,/PB0*%
X62685210Y-107336441D03*
D24*
%TO.P,J3,2,Pin_2_2*%
%TO.N,/PB1*%
X61270996Y-108750655D03*
%TO.P,J3,3,Pin_3_3*%
%TO.N,/PB2*%
X59856783Y-110164868D03*
%TO.P,J3,4,Pin_4_4*%
%TO.N,/PB3*%
X58442569Y-111579082D03*
%TO.P,J3,5,Pin_5_5*%
%TO.N,/PB4*%
X57028356Y-112993295D03*
%TO.P,J3,6,Pin_6_6*%
%TO.N,/PB5*%
X55614142Y-114407509D03*
%TO.P,J3,7,Pin_7_7*%
%TO.N,/PB6*%
X54199929Y-115821722D03*
%TO.P,J3,8,Pin_8_8*%
%TO.N,GND1*%
X52785715Y-117235936D03*
%TD*%
D25*
%TO.N,Net-(D1-K)*%
X68251062Y-79545588D03*
X71680062Y-61359188D03*
X53493662Y-88638788D03*
X68276462Y-82491988D03*
X71705462Y-52850188D03*
%TO.N,Net-(D51-K)*%
X49340762Y-87076688D03*
%TO.N,Net-(D49-K)*%
X53519062Y-87267188D03*
X65965062Y-72712988D03*
X63704462Y-77869188D03*
X51080662Y-87394188D03*
%TO.N,Net-(D3-K)*%
X68251062Y-67023388D03*
X68327262Y-59225588D03*
X68276462Y-74338588D03*
%TO.N,/PB3*%
X57887862Y-95826988D03*
%TO.N,+5V*%
X63373000Y-84150200D03*
X51917600Y-98672958D03*
%TO.N,GND1*%
X26264862Y-116070788D03*
X56033662Y-66820188D03*
X78588862Y-62756188D03*
X33350200Y-104571800D03*
X80900262Y-48125788D03*
X50698400Y-97409000D03*
X76226662Y-76954788D03*
X52350662Y-72916188D03*
X60199262Y-91127988D03*
X79681062Y-54577388D03*
X72492862Y-98697188D03*
X43587662Y-116027200D03*
X37339262Y-123563788D03*
X58954662Y-123538388D03*
X38609262Y-113657788D03*
X76556862Y-32987388D03*
X60351662Y-59962188D03*
X51410862Y-123614588D03*
X48183800Y-79908400D03*
X37084000Y-114960400D03*
X65482462Y-119194988D03*
X40436800Y-92659200D03*
X73788262Y-91356588D03*
X77166462Y-69131588D03*
X83338662Y-33520788D03*
X44171862Y-123589188D03*
X30024062Y-123563788D03*
X71426062Y-105631388D03*
X69673462Y-112006788D03*
X45034200Y-85064600D03*
X64236600Y-84988400D03*
X82475062Y-40150188D03*
X64008000Y-53721000D03*
X29819600Y-110413800D03*
X67743062Y-47389188D03*
X58801000Y-88671400D03*
X45669200Y-113004600D03*
X71170800Y-41706800D03*
X37642800Y-97612200D03*
X74829662Y-83812788D03*
%TO.N,/PB4*%
X53519062Y-90645388D03*
X50647600Y-101473000D03*
X49455062Y-96919188D03*
%TO.N,/PB5*%
X50639137Y-104859663D03*
%TO.N,/PB6*%
X47133937Y-104986663D03*
%TO.N,/PB7*%
X47083137Y-108288663D03*
%TO.N,/CA3*%
X63513962Y-82403088D03*
X61913762Y-91826488D03*
%TD*%
%TO.N,Net-(D11-K)*%
D26*
X67181054Y-113507057D02*
X67181054Y-108141037D01*
X68140544Y-114466547D02*
X67181054Y-113507057D01*
%TO.N,Net-(D1-K)*%
X64745862Y-93642588D02*
X68301862Y-90086588D01*
X53493662Y-88638788D02*
X54331862Y-88638788D01*
X64745862Y-114953188D02*
X64745862Y-93642588D01*
X71705462Y-52850188D02*
X71705462Y-61333788D01*
X66055272Y-116262598D02*
X64745862Y-114953188D01*
X68301862Y-90086588D02*
X68301862Y-82517388D01*
X68301862Y-82517388D02*
X68276462Y-82491988D01*
X63577462Y-79393188D02*
X68098662Y-79393188D01*
X54331862Y-88638788D02*
X63577462Y-79393188D01*
X68098662Y-79393188D02*
X68251062Y-79545588D01*
X71705462Y-61333788D02*
X71680062Y-61359188D01*
%TO.N,Net-(D10-A)*%
X70771054Y-86481037D02*
X70771054Y-81328980D01*
X69825862Y-80383788D02*
X69825862Y-73170188D01*
X65182772Y-68527098D02*
X56743372Y-68527098D01*
X56743372Y-68527098D02*
X55843372Y-69427098D01*
X70771054Y-81328980D02*
X69825862Y-80383788D01*
X69825862Y-73170188D02*
X65182772Y-68527098D01*
%TO.N,Net-(D51-K)*%
X49340762Y-87076688D02*
X48693062Y-87724388D01*
X72557511Y-72041037D02*
X71287511Y-72041037D01*
X48693062Y-87724388D02*
X48693062Y-90543788D01*
X40488862Y-103960938D02*
X40488862Y-106596588D01*
X48693062Y-90543788D02*
X45365662Y-93871188D01*
X71287511Y-72041037D02*
X66600062Y-67353588D01*
X45365662Y-93871188D02*
X45365662Y-99084138D01*
X45365662Y-99084138D02*
X40488862Y-103960938D01*
X66600062Y-67353588D02*
X66600062Y-59631988D01*
X40488862Y-106596588D02*
X31567972Y-115517478D01*
X66600062Y-59631988D02*
X65531223Y-58563149D01*
%TO.N,Net-(D49-K)*%
X64475223Y-71223149D02*
X57639423Y-71223149D01*
X63704462Y-77869188D02*
X62917062Y-77869188D01*
X50344062Y-90797788D02*
X46838862Y-94302988D01*
X50344062Y-88130788D02*
X50344062Y-90797788D01*
X42089062Y-107028388D02*
X33571862Y-115545588D01*
X62917062Y-77869188D02*
X53519062Y-87267188D01*
X65965062Y-72712988D02*
X64475223Y-71223149D01*
X46838862Y-99515938D02*
X42089062Y-104265738D01*
X33571862Y-115545588D02*
X33571862Y-119677588D01*
X46838862Y-94302988D02*
X46838862Y-99515938D01*
X42089062Y-104265738D02*
X42089062Y-107028388D01*
X51080662Y-87394188D02*
X50344062Y-88130788D01*
%TO.N,Net-(D3-K)*%
X64136262Y-74338588D02*
X59284862Y-79189988D01*
X68327262Y-66947188D02*
X68251062Y-67023388D01*
X43662600Y-104851200D02*
X48210462Y-100303338D01*
X52058562Y-90962888D02*
X52058562Y-85862288D01*
X48210462Y-94810988D02*
X52058562Y-90962888D01*
X43662600Y-113681926D02*
X43662600Y-104851200D01*
X48210462Y-100303338D02*
X48210462Y-94810988D01*
X47727862Y-117747188D02*
X43662600Y-113681926D01*
X47727862Y-119677588D02*
X47727862Y-117747188D01*
X68327262Y-59225588D02*
X68327262Y-66947188D01*
X68276462Y-74338588D02*
X64136262Y-74338588D01*
X52058562Y-85862288D02*
X50079423Y-83883149D01*
X55505062Y-79189988D02*
X53852552Y-77537478D01*
X59284862Y-79189988D02*
X55505062Y-79189988D01*
%TO.N,/PB3*%
X57887862Y-95826988D02*
X54535062Y-99179788D01*
X54535062Y-107688788D02*
X58320502Y-111474228D01*
X54535062Y-99179788D02*
X54535062Y-107688788D01*
%TO.N,+5V*%
X62712600Y-84810600D02*
X63373000Y-84150200D01*
X52755800Y-96596200D02*
X52755800Y-96590250D01*
X52755800Y-96590250D02*
X62712600Y-86633450D01*
X62712600Y-86633450D02*
X62712600Y-84810600D01*
X51917600Y-98672958D02*
X51917600Y-97434400D01*
X51917600Y-97434400D02*
X52755800Y-96596200D01*
%TO.N,GND1*%
D27*
X52350662Y-72916188D02*
X52376062Y-72941588D01*
D26*
X50698400Y-99999800D02*
X45516800Y-105181400D01*
D27*
X37339262Y-121709588D02*
X37339262Y-123563788D01*
D26*
X64236600Y-87090650D02*
X60199262Y-91127988D01*
D27*
X35667862Y-117518588D02*
X35667862Y-116052600D01*
X36760062Y-114960400D02*
X35667862Y-116052600D01*
X37084000Y-114960400D02*
X36760062Y-114960400D01*
D26*
X45516800Y-105181400D02*
X45516800Y-112852200D01*
D27*
X35667862Y-117518588D02*
X35667862Y-120038188D01*
D26*
X50698400Y-97409000D02*
X50698400Y-96748600D01*
X64236600Y-84988400D02*
X64236600Y-87090650D01*
D27*
X53569862Y-74135388D02*
X52350662Y-72916188D01*
D26*
X50698400Y-96748600D02*
X58775600Y-88671400D01*
X58750200Y-88671400D02*
X58801000Y-88671400D01*
D27*
X35667862Y-120038188D02*
X37339262Y-121709588D01*
D26*
X45516800Y-112852200D02*
X45669200Y-113004600D01*
X50698400Y-97409000D02*
X50698400Y-99999800D01*
D27*
X58643350Y-74135388D02*
X53569862Y-74135388D01*
X59764206Y-75256244D02*
X58643350Y-74135388D01*
D26*
X58775600Y-88671400D02*
X58801000Y-88671400D01*
%TO.N,/PB4*%
X51011700Y-101786300D02*
X51011700Y-101803226D01*
X51011700Y-101803226D02*
X52807862Y-103599388D01*
X53519062Y-91280388D02*
X53519062Y-90645388D01*
X49455062Y-95344388D02*
X53519062Y-91280388D01*
X50647600Y-101473000D02*
X50698400Y-101473000D01*
X52807862Y-108806388D02*
X56906289Y-112904815D01*
X50698400Y-101473000D02*
X51011700Y-101786300D01*
X49455062Y-96919188D02*
X49455062Y-95344388D01*
X52807862Y-103599388D02*
X52807862Y-108806388D01*
%TO.N,/PB5*%
X50639137Y-104859663D02*
X50639137Y-109482463D01*
X50639137Y-109482463D02*
X55492075Y-114335401D01*
%TO.N,/PB6*%
X49251862Y-110889188D02*
X54184396Y-115821722D01*
X47133937Y-104986663D02*
X47303274Y-105156000D01*
X49251862Y-107113062D02*
X49251862Y-110889188D01*
X47133937Y-104995137D02*
X49251862Y-107113062D01*
X47133937Y-104986663D02*
X47133937Y-104995137D01*
%TO.N,/PB7*%
X47083137Y-108288663D02*
X47083137Y-113839918D01*
X47083137Y-113839918D02*
X48319598Y-115076379D01*
%TO.N,/CA3*%
X65838062Y-84727188D02*
X65838062Y-87902188D01*
X65838062Y-87902188D02*
X61913762Y-91826488D01*
X63513962Y-82403088D02*
X65838062Y-84727188D01*
%TD*%
%TA.AperFunction,Conductor*%
%TO.N,GND1*%
G36*
X82049930Y-24389301D02*
G01*
X82061375Y-24390179D01*
X82454872Y-24438855D01*
X82466188Y-24440791D01*
X82853480Y-24525739D01*
X82864583Y-24528721D01*
X83242300Y-24649200D01*
X83253082Y-24653198D01*
X83618027Y-24808188D01*
X83628382Y-24813165D01*
X83977370Y-25001314D01*
X83987233Y-25007238D01*
X84095530Y-25079327D01*
X84317270Y-25226929D01*
X84326542Y-25233743D01*
X84607415Y-25460943D01*
X84634788Y-25483085D01*
X84643390Y-25490730D01*
X84927193Y-25767579D01*
X84935049Y-25775989D01*
X85191957Y-26077951D01*
X85199000Y-26087053D01*
X85426809Y-26411536D01*
X85432978Y-26421253D01*
X85629723Y-26765466D01*
X85634964Y-26775711D01*
X85798946Y-27136671D01*
X85803215Y-27147359D01*
X85933029Y-27521978D01*
X85936284Y-27533000D01*
X86020675Y-27876767D01*
X86030807Y-27918041D01*
X86033029Y-27929332D01*
X86091448Y-28321487D01*
X86092613Y-28332937D01*
X86114420Y-28728798D01*
X86114519Y-28740307D01*
X86099531Y-29136488D01*
X86098563Y-29147955D01*
X86046741Y-29542317D01*
X86046734Y-29542377D01*
X86046159Y-29546758D01*
X86034551Y-29611620D01*
X86036721Y-29637176D01*
X86035480Y-29648926D01*
X86034725Y-29650756D01*
X86034518Y-29656047D01*
X72468921Y-112035897D01*
X72465844Y-112049653D01*
X72465230Y-112051810D01*
X72456416Y-112111723D01*
X72456087Y-112113835D01*
X72455316Y-112118514D01*
X72454799Y-112121434D01*
X72392505Y-112450256D01*
X72390195Y-112460193D01*
X72301241Y-112782201D01*
X72298124Y-112791908D01*
X72255340Y-112908459D01*
X72182994Y-113105536D01*
X72179087Y-113114960D01*
X72038570Y-113418049D01*
X72033902Y-113427120D01*
X71868946Y-113717630D01*
X71863548Y-113726287D01*
X71675266Y-114002261D01*
X71669174Y-114010445D01*
X71465288Y-114262052D01*
X71456868Y-114271426D01*
X61884565Y-123896026D01*
X61879789Y-123900577D01*
X61771562Y-123998364D01*
X61621470Y-124133974D01*
X61613217Y-124140807D01*
X61336957Y-124350087D01*
X61328143Y-124356182D01*
X61034876Y-124540810D01*
X61025570Y-124546122D01*
X60717447Y-124704748D01*
X60707717Y-124709237D01*
X60387036Y-124840674D01*
X60376955Y-124844305D01*
X60046145Y-124947560D01*
X60035787Y-124950308D01*
X59697281Y-125024620D01*
X59686726Y-125026463D01*
X59343078Y-125071272D01*
X59332402Y-125072197D01*
X58984337Y-125087249D01*
X58979016Y-125087365D01*
X26522481Y-125096715D01*
X26522476Y-125096715D01*
X26514197Y-125096716D01*
X26514006Y-125096666D01*
X26453244Y-125096731D01*
X26451023Y-125096732D01*
X26450992Y-125096733D01*
X26450990Y-125096732D01*
X26450891Y-125096733D01*
X26450882Y-125096730D01*
X26445244Y-125096606D01*
X26067286Y-125079471D01*
X26055836Y-125078418D01*
X25683952Y-125026744D01*
X25672648Y-125024635D01*
X25351502Y-124949159D01*
X25307141Y-124938733D01*
X25296088Y-124935588D01*
X25019147Y-124842706D01*
X24940116Y-124816200D01*
X24929395Y-124812042D01*
X24586010Y-124660193D01*
X24575721Y-124655060D01*
X24247882Y-124472058D01*
X24238112Y-124465994D01*
X23928632Y-124253409D01*
X23919467Y-124246467D01*
X23631006Y-124006127D01*
X23622522Y-123998364D01*
X23357567Y-123732338D01*
X23349840Y-123723824D01*
X23110666Y-123434401D01*
X23103760Y-123425207D01*
X23102975Y-123424055D01*
X22943652Y-123190098D01*
X22892427Y-123114877D01*
X22886402Y-123105083D01*
X22704722Y-122776508D01*
X22699630Y-122766198D01*
X22549163Y-122422197D01*
X22545049Y-122411460D01*
X22521894Y-122341487D01*
X22427096Y-122055009D01*
X22423995Y-122043939D01*
X22415623Y-122007660D01*
X22350156Y-121723980D01*
X24073072Y-121723980D01*
X24073072Y-121960175D01*
X24110018Y-122193446D01*
X24183005Y-122418074D01*
X24287612Y-122623375D01*
X24290229Y-122628511D01*
X24429055Y-122819588D01*
X24596062Y-122986595D01*
X24787139Y-123125421D01*
X24860125Y-123162609D01*
X24997575Y-123232644D01*
X24997577Y-123232644D01*
X24997580Y-123232646D01*
X25117984Y-123271767D01*
X25222203Y-123305631D01*
X25455475Y-123342578D01*
X25455480Y-123342578D01*
X25691669Y-123342578D01*
X25924940Y-123305631D01*
X26149564Y-123232646D01*
X26360005Y-123125421D01*
X26551082Y-122986595D01*
X26718089Y-122819588D01*
X26856915Y-122628511D01*
X26964140Y-122418070D01*
X27037125Y-122193446D01*
X27059916Y-122049550D01*
X27074072Y-121960175D01*
X27074072Y-121926854D01*
X27093757Y-121859815D01*
X27146561Y-121814060D01*
X27211474Y-121803581D01*
X27355582Y-121819253D01*
X27369622Y-121820780D01*
X27369623Y-121820780D01*
X27369625Y-121820780D01*
X27402478Y-121817206D01*
X27553534Y-121800780D01*
X27728845Y-121741710D01*
X27887358Y-121646336D01*
X27918724Y-121618954D01*
X28553384Y-120984292D01*
X28614705Y-120950809D01*
X28641587Y-120947976D01*
X32073124Y-120962704D01*
X32140078Y-120982676D01*
X32185605Y-121035676D01*
X32195252Y-121104877D01*
X32183680Y-121141796D01*
X32118825Y-121272567D01*
X32074179Y-121452088D01*
X32071362Y-121493636D01*
X32071362Y-122941539D01*
X32074179Y-122983087D01*
X32118825Y-123162609D01*
X32118826Y-123162611D01*
X32201018Y-123328338D01*
X32201019Y-123328339D01*
X32201020Y-123328341D01*
X32234807Y-123370373D01*
X32316921Y-123472528D01*
X32399035Y-123538533D01*
X32461109Y-123588430D01*
X32626841Y-123670625D01*
X32806363Y-123715270D01*
X32806364Y-123715270D01*
X32806367Y-123715271D01*
X32847908Y-123718088D01*
X32847910Y-123718088D01*
X34295814Y-123718088D01*
X34295816Y-123718088D01*
X34337357Y-123715271D01*
X34516883Y-123670625D01*
X34682615Y-123588430D01*
X34826802Y-123472528D01*
X34942704Y-123328341D01*
X35024899Y-123162609D01*
X35069545Y-122983083D01*
X35072362Y-122941542D01*
X35072362Y-121493634D01*
X35069545Y-121452093D01*
X35024899Y-121272567D01*
X34942704Y-121106835D01*
X34883823Y-121033584D01*
X34826802Y-120962647D01*
X34743261Y-120895495D01*
X34703343Y-120838151D01*
X34700763Y-120768329D01*
X34733664Y-120710772D01*
X35268310Y-120180952D01*
X35275978Y-120045718D01*
X35299426Y-119979900D01*
X35354735Y-119937208D01*
X35357242Y-119936261D01*
X35979577Y-119709404D01*
X36049302Y-119704939D01*
X36107400Y-119735961D01*
X37415460Y-120977292D01*
X37415461Y-120977292D01*
X37415462Y-120977293D01*
X39409567Y-120987396D01*
X39432471Y-120994247D01*
X39456247Y-120996774D01*
X39471926Y-121006050D01*
X39476505Y-121007420D01*
X39486623Y-121014745D01*
X39502106Y-121027190D01*
X39542026Y-121084532D01*
X39544608Y-121154354D01*
X39512104Y-121211519D01*
X39488545Y-121235078D01*
X39349719Y-121426154D01*
X39242495Y-121636591D01*
X39169508Y-121861219D01*
X39132562Y-122094490D01*
X39132562Y-122330685D01*
X39169508Y-122563956D01*
X39242495Y-122788584D01*
X39320430Y-122941539D01*
X39349719Y-122999021D01*
X39488545Y-123190098D01*
X39655552Y-123357105D01*
X39846629Y-123495931D01*
X39946053Y-123546590D01*
X40057065Y-123603154D01*
X40057067Y-123603154D01*
X40057070Y-123603156D01*
X40177474Y-123642277D01*
X40281693Y-123676141D01*
X40514965Y-123713088D01*
X40514970Y-123713088D01*
X40751159Y-123713088D01*
X40984430Y-123676141D01*
X41001406Y-123670625D01*
X41209054Y-123603156D01*
X41419495Y-123495931D01*
X41610572Y-123357105D01*
X41777579Y-123190098D01*
X41916405Y-122999021D01*
X42023630Y-122788580D01*
X42096615Y-122563956D01*
X42133562Y-122330685D01*
X42133562Y-122094490D01*
X42096615Y-121861219D01*
X42026796Y-121646340D01*
X42023630Y-121636596D01*
X42023628Y-121636593D01*
X42023628Y-121636591D01*
X41949297Y-121490709D01*
X41916405Y-121426155D01*
X41777579Y-121235078D01*
X41754020Y-121211519D01*
X41720536Y-121150197D01*
X41725520Y-121080505D01*
X41764013Y-121027193D01*
X41844311Y-120962648D01*
X41888000Y-120927530D01*
X41913751Y-120895495D01*
X42003904Y-120783341D01*
X42086099Y-120617609D01*
X42097365Y-120572306D01*
X42121779Y-120523647D01*
X42163931Y-120472200D01*
X42164000Y-118465600D01*
X39724897Y-116006429D01*
X39724896Y-116006428D01*
X39724897Y-116006428D01*
X36321575Y-115997614D01*
X36321574Y-115997614D01*
X36061067Y-116240343D01*
X35998600Y-116271642D01*
X35964499Y-116273034D01*
X35915378Y-116268244D01*
X35378340Y-116215867D01*
X35313528Y-116189768D01*
X35273115Y-116132772D01*
X35266378Y-116093046D01*
X35262584Y-115293160D01*
X35281951Y-115226031D01*
X35299561Y-115204240D01*
X38065376Y-112479904D01*
X38126949Y-112446884D01*
X38148570Y-112444305D01*
X40948869Y-112358165D01*
X41016482Y-112375779D01*
X41040860Y-112394925D01*
X42170508Y-113537515D01*
X42896106Y-114271426D01*
X43100143Y-114477800D01*
X46013969Y-117388014D01*
X46047491Y-117449315D01*
X46050341Y-117475406D01*
X46058595Y-120472249D01*
X46162957Y-120710770D01*
X46301403Y-121027192D01*
X46315757Y-121059997D01*
X46324835Y-121070684D01*
X46334099Y-121139937D01*
X46322629Y-121176179D01*
X46274824Y-121272569D01*
X46230179Y-121452088D01*
X46227362Y-121493636D01*
X46227362Y-122941539D01*
X46230179Y-122983087D01*
X46274825Y-123162609D01*
X46274826Y-123162611D01*
X46357018Y-123328338D01*
X46357019Y-123328339D01*
X46357020Y-123328341D01*
X46390807Y-123370373D01*
X46472921Y-123472528D01*
X46555035Y-123538533D01*
X46617109Y-123588430D01*
X46782841Y-123670625D01*
X46962363Y-123715270D01*
X46962364Y-123715270D01*
X46962367Y-123715271D01*
X47003908Y-123718088D01*
X47003910Y-123718088D01*
X48451814Y-123718088D01*
X48451816Y-123718088D01*
X48493357Y-123715271D01*
X48672883Y-123670625D01*
X48838615Y-123588430D01*
X48982802Y-123472528D01*
X49098704Y-123328341D01*
X49180899Y-123162609D01*
X49225545Y-122983083D01*
X49228362Y-122941542D01*
X49228362Y-121493634D01*
X49225545Y-121452093D01*
X49180899Y-121272567D01*
X49156482Y-121223335D01*
X49144331Y-121154533D01*
X49171307Y-121090081D01*
X49228847Y-121050445D01*
X49268015Y-121044244D01*
X53529143Y-121059570D01*
X53596109Y-121079495D01*
X53641674Y-121132464D01*
X53651369Y-121201657D01*
X53629013Y-121256454D01*
X53505721Y-121426151D01*
X53398495Y-121636591D01*
X53325508Y-121861219D01*
X53288562Y-122094490D01*
X53288562Y-122330685D01*
X53325508Y-122563956D01*
X53398495Y-122788584D01*
X53476430Y-122941539D01*
X53505719Y-122999021D01*
X53644545Y-123190098D01*
X53811552Y-123357105D01*
X54002629Y-123495931D01*
X54102053Y-123546590D01*
X54213065Y-123603154D01*
X54213067Y-123603154D01*
X54213070Y-123603156D01*
X54333474Y-123642277D01*
X54437693Y-123676141D01*
X54670965Y-123713088D01*
X54670970Y-123713088D01*
X54907159Y-123713088D01*
X55140430Y-123676141D01*
X55157406Y-123670625D01*
X55365054Y-123603156D01*
X55575495Y-123495931D01*
X55766572Y-123357105D01*
X55933579Y-123190098D01*
X56072405Y-122999021D01*
X56179630Y-122788580D01*
X56252615Y-122563956D01*
X56289562Y-122330685D01*
X56289562Y-122094490D01*
X56252615Y-121861219D01*
X56182796Y-121646340D01*
X56179630Y-121636596D01*
X56179628Y-121636593D01*
X56179628Y-121636591D01*
X56105297Y-121490709D01*
X56072405Y-121426155D01*
X55955712Y-121265542D01*
X55932234Y-121199740D01*
X55948059Y-121131686D01*
X55998165Y-121082991D01*
X56056477Y-121068661D01*
X59298411Y-121080322D01*
X59365379Y-121100247D01*
X59410944Y-121153216D01*
X59420639Y-121222409D01*
X59391385Y-121285860D01*
X59391379Y-121285867D01*
X59373793Y-121306011D01*
X59373787Y-121306020D01*
X59278419Y-121464524D01*
X59219348Y-121639837D01*
X59199348Y-121823746D01*
X59199348Y-121823751D01*
X59219348Y-122007660D01*
X59278419Y-122182973D01*
X59373787Y-122341477D01*
X59373794Y-122341487D01*
X59391016Y-122361214D01*
X59401174Y-122372850D01*
X59401179Y-122372855D01*
X59401189Y-122372866D01*
X60424984Y-123396661D01*
X60424994Y-123396670D01*
X60425000Y-123396676D01*
X60440683Y-123410367D01*
X60456362Y-123424055D01*
X60456372Y-123424062D01*
X60466185Y-123429966D01*
X60614879Y-123519432D01*
X60790190Y-123578502D01*
X60938022Y-123594578D01*
X60974099Y-123598502D01*
X60974101Y-123598502D01*
X60974103Y-123598502D01*
X61006956Y-123594928D01*
X61158012Y-123578502D01*
X61333323Y-123519432D01*
X61491836Y-123424058D01*
X61523202Y-123396676D01*
X61523211Y-123396667D01*
X61523218Y-123396661D01*
X62547013Y-122372866D01*
X62547019Y-122372859D01*
X62547028Y-122372850D01*
X62574410Y-122341484D01*
X62669784Y-122182971D01*
X62728854Y-122007660D01*
X62748854Y-121823749D01*
X62747800Y-121814060D01*
X62731656Y-121665604D01*
X62743977Y-121596829D01*
X62791525Y-121545634D01*
X62854929Y-121528198D01*
X62888249Y-121528198D01*
X63121520Y-121491251D01*
X63123188Y-121490709D01*
X63346144Y-121418266D01*
X63556585Y-121311041D01*
X63747662Y-121172215D01*
X63914669Y-121005208D01*
X64053495Y-120814131D01*
X64160720Y-120603690D01*
X64233705Y-120379066D01*
X64233791Y-120378524D01*
X64270652Y-120145795D01*
X64270652Y-119909600D01*
X64233705Y-119676329D01*
X64175413Y-119496926D01*
X64160720Y-119451706D01*
X64160718Y-119451703D01*
X64160718Y-119451701D01*
X64053494Y-119241264D01*
X63914669Y-119050188D01*
X63747662Y-118883181D01*
X63736081Y-118874767D01*
X63693418Y-118819439D01*
X63687439Y-118749825D01*
X63720045Y-118688031D01*
X63722700Y-118685381D01*
X65120491Y-117333082D01*
X65182358Y-117300617D01*
X65251957Y-117306754D01*
X65294389Y-117334522D01*
X65795376Y-117835510D01*
X65795386Y-117835519D01*
X65795392Y-117835525D01*
X65811075Y-117849216D01*
X65826754Y-117862904D01*
X65826764Y-117862911D01*
X65919465Y-117918687D01*
X65985271Y-117958281D01*
X66160582Y-118017351D01*
X66308414Y-118033427D01*
X66344491Y-118037351D01*
X66344493Y-118037351D01*
X66344495Y-118037351D01*
X66377348Y-118033777D01*
X66528404Y-118017351D01*
X66703715Y-117958281D01*
X66862228Y-117862907D01*
X66893594Y-117835525D01*
X66893603Y-117835516D01*
X66893610Y-117835510D01*
X67917405Y-116811715D01*
X67917411Y-116811708D01*
X67917420Y-116811699D01*
X67944802Y-116780333D01*
X68040176Y-116621820D01*
X68099246Y-116446509D01*
X68118111Y-116273035D01*
X68119246Y-116262600D01*
X68119246Y-116262595D01*
X68102048Y-116104453D01*
X68114369Y-116035678D01*
X68161917Y-115984483D01*
X68225321Y-115967047D01*
X68258641Y-115967047D01*
X68491912Y-115930100D01*
X68716536Y-115857115D01*
X68926977Y-115749890D01*
X69118054Y-115611064D01*
X69285061Y-115444057D01*
X69423887Y-115252980D01*
X69531112Y-115042539D01*
X69604097Y-114817915D01*
X69607650Y-114795482D01*
X69641044Y-114584644D01*
X69641044Y-114348449D01*
X69604097Y-114115178D01*
X69531110Y-113890550D01*
X69447413Y-113726287D01*
X69423887Y-113680114D01*
X69285061Y-113489037D01*
X69118054Y-113322030D01*
X68926977Y-113183204D01*
X68716536Y-113075979D01*
X68491912Y-113002994D01*
X68491910Y-113002993D01*
X68458496Y-112997701D01*
X68395361Y-112967771D01*
X68358431Y-112908459D01*
X68355891Y-112853069D01*
X68363307Y-112812242D01*
X68920693Y-109743377D01*
X68952041Y-109680935D01*
X69012171Y-109645353D01*
X69042697Y-109641537D01*
X70445006Y-109641537D01*
X70445008Y-109641537D01*
X70486549Y-109638720D01*
X70666075Y-109594074D01*
X70831807Y-109511879D01*
X70975994Y-109395977D01*
X71091896Y-109251790D01*
X71174091Y-109086058D01*
X71218737Y-108906532D01*
X71221554Y-108864991D01*
X71221554Y-107417083D01*
X71218737Y-107375542D01*
X71174091Y-107196016D01*
X71091896Y-107030284D01*
X71041999Y-106968210D01*
X70975994Y-106886096D01*
X70873839Y-106803982D01*
X70831807Y-106770195D01*
X70831805Y-106770194D01*
X70831804Y-106770193D01*
X70666077Y-106688001D01*
X70666075Y-106688000D01*
X70486551Y-106643354D01*
X70486555Y-106643354D01*
X70455393Y-106641241D01*
X70445008Y-106640537D01*
X70445006Y-106640537D01*
X69632802Y-106640537D01*
X69565763Y-106620852D01*
X69520008Y-106568048D01*
X69510064Y-106498890D01*
X69510798Y-106494378D01*
X69522566Y-106429585D01*
X70248739Y-102431417D01*
X70280086Y-102368977D01*
X70340216Y-102333395D01*
X70409058Y-102335647D01*
X70511634Y-102368977D01*
X70559685Y-102384590D01*
X70792957Y-102421537D01*
X70792962Y-102421537D01*
X71029151Y-102421537D01*
X71262422Y-102384590D01*
X71487046Y-102311605D01*
X71697487Y-102204380D01*
X71888564Y-102065554D01*
X72055571Y-101898547D01*
X72194397Y-101707470D01*
X72301622Y-101497029D01*
X72374607Y-101272405D01*
X72378894Y-101245338D01*
X72411554Y-101039134D01*
X72411554Y-100802939D01*
X72374607Y-100569668D01*
X72301620Y-100345040D01*
X72194396Y-100134603D01*
X72171326Y-100102850D01*
X72055571Y-99943527D01*
X71888564Y-99776520D01*
X71697487Y-99637694D01*
X71487050Y-99530470D01*
X71262422Y-99457483D01*
X71029151Y-99420537D01*
X71029146Y-99420537D01*
X70944145Y-99420537D01*
X70877106Y-99400852D01*
X70831351Y-99348048D01*
X70821407Y-99278890D01*
X70822141Y-99274378D01*
X71543381Y-95303378D01*
X71574729Y-95240935D01*
X71634859Y-95205353D01*
X71665385Y-95201537D01*
X72845006Y-95201537D01*
X72845008Y-95201537D01*
X72886549Y-95198720D01*
X73066075Y-95154074D01*
X73231807Y-95071879D01*
X73375994Y-94955977D01*
X73491896Y-94811790D01*
X73574091Y-94646058D01*
X73618737Y-94466532D01*
X73621554Y-94424991D01*
X73621554Y-92977083D01*
X73618737Y-92935542D01*
X73574091Y-92756016D01*
X73491896Y-92590284D01*
X73441999Y-92528210D01*
X73375994Y-92446096D01*
X73273839Y-92363982D01*
X73231807Y-92330195D01*
X73231805Y-92330194D01*
X73231804Y-92330193D01*
X73066077Y-92248001D01*
X73066075Y-92248000D01*
X72886551Y-92203354D01*
X72886555Y-92203354D01*
X72855393Y-92201241D01*
X72845008Y-92200537D01*
X72845006Y-92200537D01*
X72255489Y-92200537D01*
X72188450Y-92180852D01*
X72142695Y-92128048D01*
X72132751Y-92058890D01*
X72133485Y-92054378D01*
X72482279Y-90133983D01*
X72860496Y-88051588D01*
X72891844Y-87989147D01*
X72951974Y-87953565D01*
X73001898Y-87951276D01*
X73192957Y-87981537D01*
X73192962Y-87981537D01*
X73429151Y-87981537D01*
X73662422Y-87944590D01*
X73887046Y-87871605D01*
X74097487Y-87764380D01*
X74288564Y-87625554D01*
X74455571Y-87458547D01*
X74594397Y-87267470D01*
X74701622Y-87057029D01*
X74774607Y-86832405D01*
X74804024Y-86646674D01*
X74811554Y-86599134D01*
X74811554Y-86362939D01*
X74774607Y-86129668D01*
X74701620Y-85905040D01*
X74594396Y-85694603D01*
X74455571Y-85503527D01*
X74288564Y-85336520D01*
X74097487Y-85197694D01*
X73887050Y-85090470D01*
X73662423Y-85017484D01*
X73543856Y-84998704D01*
X73480722Y-84968774D01*
X73443791Y-84909462D01*
X73441251Y-84854072D01*
X73690370Y-83482475D01*
X74166067Y-80863378D01*
X74197415Y-80800935D01*
X74257545Y-80765353D01*
X74288071Y-80761537D01*
X75245006Y-80761537D01*
X75245008Y-80761537D01*
X75286549Y-80758720D01*
X75466075Y-80714074D01*
X75631807Y-80631879D01*
X75775994Y-80515977D01*
X75891896Y-80371790D01*
X75974091Y-80206058D01*
X76018737Y-80026532D01*
X76021554Y-79984991D01*
X76021554Y-78537083D01*
X76018737Y-78495542D01*
X75974091Y-78316016D01*
X75891896Y-78150284D01*
X75841999Y-78088210D01*
X75775994Y-78006096D01*
X75673839Y-77923982D01*
X75631807Y-77890195D01*
X75631805Y-77890194D01*
X75631804Y-77890193D01*
X75466077Y-77808001D01*
X75466075Y-77808000D01*
X75286551Y-77763354D01*
X75286555Y-77763354D01*
X75255393Y-77761241D01*
X75245008Y-77760537D01*
X75245006Y-77760537D01*
X74878176Y-77760537D01*
X74811137Y-77740852D01*
X74765382Y-77688048D01*
X74755438Y-77618890D01*
X74756172Y-77614378D01*
X74796244Y-77393752D01*
X75477410Y-73643377D01*
X75508758Y-73580935D01*
X75568888Y-73545353D01*
X75599414Y-73541537D01*
X75829151Y-73541537D01*
X76062422Y-73504590D01*
X76287046Y-73431605D01*
X76497487Y-73324380D01*
X76688564Y-73185554D01*
X76855571Y-73018547D01*
X76994397Y-72827470D01*
X77101622Y-72617029D01*
X77174607Y-72392405D01*
X77211554Y-72159134D01*
X77211554Y-71922939D01*
X77174607Y-71689668D01*
X77101620Y-71465040D01*
X76994396Y-71254603D01*
X76855571Y-71063527D01*
X76688564Y-70896520D01*
X76497487Y-70757694D01*
X76287050Y-70650470D01*
X76138874Y-70602325D01*
X76081199Y-70562887D01*
X76054001Y-70498528D01*
X76055188Y-70462240D01*
X76788754Y-66423378D01*
X76820102Y-66360935D01*
X76880232Y-66325353D01*
X76910758Y-66321537D01*
X77645006Y-66321537D01*
X77645008Y-66321537D01*
X77686549Y-66318720D01*
X77866075Y-66274074D01*
X78031807Y-66191879D01*
X78175994Y-66075977D01*
X78291896Y-65931790D01*
X78374091Y-65766058D01*
X78418737Y-65586532D01*
X78421554Y-65544991D01*
X78421554Y-64097083D01*
X78418737Y-64055542D01*
X78374091Y-63876016D01*
X78291896Y-63710284D01*
X78227782Y-63630523D01*
X78175994Y-63566096D01*
X78073839Y-63483982D01*
X78031807Y-63450195D01*
X78031805Y-63450194D01*
X78031804Y-63450193D01*
X77866077Y-63368001D01*
X77866075Y-63368000D01*
X77686551Y-63323354D01*
X77686555Y-63323354D01*
X77655393Y-63321241D01*
X77645008Y-63320537D01*
X77645006Y-63320537D01*
X77500862Y-63320537D01*
X77433823Y-63300852D01*
X77388068Y-63248048D01*
X77378124Y-63178890D01*
X77378858Y-63174378D01*
X77395741Y-63081427D01*
X78100097Y-59203378D01*
X78131445Y-59140935D01*
X78191575Y-59105353D01*
X78222101Y-59101537D01*
X78229151Y-59101537D01*
X78462422Y-59064590D01*
X78687046Y-58991605D01*
X78897487Y-58884380D01*
X79088564Y-58745554D01*
X79255571Y-58578547D01*
X79394397Y-58387470D01*
X79501622Y-58177029D01*
X79574607Y-57952405D01*
X79611554Y-57719134D01*
X79611554Y-57482939D01*
X79574607Y-57249668D01*
X79501620Y-57025040D01*
X79394396Y-56814603D01*
X79255571Y-56623527D01*
X79088564Y-56456520D01*
X78897487Y-56317694D01*
X78729555Y-56232128D01*
X78678759Y-56184153D01*
X78661964Y-56116332D01*
X78663844Y-56099493D01*
X79411441Y-51983378D01*
X79442789Y-51920935D01*
X79502919Y-51885353D01*
X79533445Y-51881537D01*
X80045006Y-51881537D01*
X80045008Y-51881537D01*
X80086549Y-51878720D01*
X80266075Y-51834074D01*
X80431807Y-51751879D01*
X80575994Y-51635977D01*
X80691896Y-51491790D01*
X80774091Y-51326058D01*
X80818737Y-51146532D01*
X80821554Y-51104991D01*
X80821554Y-49657083D01*
X80818737Y-49615542D01*
X80774091Y-49436016D01*
X80691896Y-49270284D01*
X80641999Y-49208210D01*
X80575994Y-49126096D01*
X80473839Y-49043982D01*
X80431807Y-49010195D01*
X80431805Y-49010194D01*
X80431804Y-49010193D01*
X80266077Y-48928001D01*
X80266075Y-48928000D01*
X80266073Y-48927999D01*
X80266069Y-48927998D01*
X80092190Y-48884755D01*
X80031883Y-48849473D01*
X80000225Y-48787187D01*
X80000113Y-48742262D01*
X80013842Y-48666674D01*
X80728882Y-44729800D01*
X80760229Y-44667360D01*
X80820359Y-44631778D01*
X80831466Y-44629492D01*
X80862422Y-44624590D01*
X81087046Y-44551605D01*
X81297487Y-44444380D01*
X81488564Y-44305554D01*
X81655571Y-44138547D01*
X81794397Y-43947470D01*
X81901622Y-43737029D01*
X81974607Y-43512405D01*
X82011554Y-43279134D01*
X82011554Y-43042939D01*
X81974607Y-42809668D01*
X81920630Y-42643545D01*
X81901622Y-42585045D01*
X81901620Y-42585042D01*
X81901620Y-42585040D01*
X81794396Y-42374603D01*
X81655571Y-42183527D01*
X81488564Y-42016520D01*
X81315841Y-41891029D01*
X81273176Y-41835699D01*
X81266723Y-41768552D01*
X82034128Y-37543378D01*
X82065476Y-37480935D01*
X82125606Y-37445353D01*
X82156132Y-37441537D01*
X82445006Y-37441537D01*
X82445008Y-37441537D01*
X82486549Y-37438720D01*
X82666075Y-37394074D01*
X82831807Y-37311879D01*
X82975994Y-37195977D01*
X83091896Y-37051790D01*
X83174091Y-36886058D01*
X83218737Y-36706532D01*
X83221554Y-36664991D01*
X83221554Y-35217083D01*
X83218737Y-35175542D01*
X83174091Y-34996016D01*
X83091896Y-34830284D01*
X83041999Y-34768210D01*
X82975994Y-34686096D01*
X82873839Y-34603982D01*
X82831807Y-34570195D01*
X82831805Y-34570194D01*
X82831804Y-34570193D01*
X82679010Y-34494415D01*
X82627697Y-34446994D01*
X82610167Y-34379359D01*
X82612098Y-34361180D01*
X83338988Y-30359065D01*
X83370335Y-30296625D01*
X83422668Y-30263298D01*
X83579454Y-30212356D01*
X83789895Y-30105131D01*
X83980972Y-29966305D01*
X84147979Y-29799298D01*
X84286805Y-29608221D01*
X84394030Y-29397780D01*
X84467015Y-29173156D01*
X84503962Y-28939885D01*
X84503962Y-28703690D01*
X84467015Y-28470419D01*
X84420473Y-28327179D01*
X84394030Y-28245796D01*
X84394028Y-28245793D01*
X84394028Y-28245791D01*
X84337406Y-28134666D01*
X84286805Y-28035355D01*
X84147979Y-27844278D01*
X83980972Y-27677271D01*
X83789895Y-27538445D01*
X83757577Y-27521978D01*
X83579458Y-27431221D01*
X83354830Y-27358234D01*
X83121559Y-27321288D01*
X83121554Y-27321288D01*
X82885370Y-27321288D01*
X82885365Y-27321288D01*
X82652093Y-27358234D01*
X82427465Y-27431221D01*
X82217028Y-27538445D01*
X82025952Y-27677271D01*
X82002393Y-27700830D01*
X81941069Y-27734314D01*
X81871377Y-27729328D01*
X81818066Y-27690834D01*
X81718404Y-27566849D01*
X81632430Y-27497741D01*
X81574215Y-27450946D01*
X81574213Y-27450945D01*
X81574212Y-27450944D01*
X81408485Y-27368752D01*
X81408483Y-27368751D01*
X81228959Y-27324105D01*
X81228963Y-27324105D01*
X81197801Y-27321992D01*
X81187416Y-27321288D01*
X79739508Y-27321288D01*
X79727639Y-27322092D01*
X79697962Y-27324105D01*
X79518440Y-27368751D01*
X79518438Y-27368752D01*
X79352711Y-27450944D01*
X79208521Y-27566847D01*
X79092618Y-27711037D01*
X79010426Y-27876764D01*
X79010425Y-27876766D01*
X78965779Y-28056288D01*
X78962962Y-28097836D01*
X78962962Y-29545739D01*
X78965779Y-29587287D01*
X79010425Y-29766809D01*
X79010426Y-29766811D01*
X79092618Y-29932538D01*
X79092619Y-29932539D01*
X79092620Y-29932541D01*
X79119761Y-29966305D01*
X79208523Y-30076729D01*
X79208530Y-30076735D01*
X79240527Y-30102456D01*
X79280446Y-30159799D01*
X79283025Y-30229621D01*
X79269661Y-30262071D01*
X75675524Y-36359207D01*
X75624522Y-36406963D01*
X75555799Y-36419565D01*
X75491171Y-36393011D01*
X75481021Y-36383919D01*
X75285617Y-36188514D01*
X75285607Y-36188505D01*
X75285602Y-36188500D01*
X75273966Y-36178342D01*
X75254239Y-36161120D01*
X75254229Y-36161113D01*
X75095725Y-36065745D01*
X75095724Y-36065744D01*
X75095723Y-36065744D01*
X74920412Y-36006674D01*
X74736503Y-35986674D01*
X74736499Y-35986674D01*
X74552589Y-36006674D01*
X74377276Y-36065745D01*
X74218772Y-36161113D01*
X74218762Y-36161120D01*
X74187404Y-36188496D01*
X74187384Y-36188515D01*
X73163589Y-37212310D01*
X73163570Y-37212330D01*
X73136194Y-37243688D01*
X73136187Y-37243698D01*
X73040819Y-37402202D01*
X72981748Y-37577515D01*
X72961748Y-37761424D01*
X72961748Y-37761429D01*
X72981748Y-37945338D01*
X73040819Y-38120651D01*
X73136187Y-38279155D01*
X73136194Y-38279165D01*
X73163570Y-38310523D01*
X73163588Y-38310543D01*
X73952348Y-39099302D01*
X73985833Y-39160625D01*
X73980849Y-39230316D01*
X73971489Y-39249952D01*
X71897459Y-42768360D01*
X71846457Y-42816116D01*
X71777734Y-42828718D01*
X71734342Y-42815876D01*
X71539368Y-42716531D01*
X71314740Y-42643544D01*
X71081469Y-42606598D01*
X71081464Y-42606598D01*
X70845280Y-42606598D01*
X70845275Y-42606598D01*
X70612003Y-42643544D01*
X70387375Y-42716531D01*
X70176938Y-42823755D01*
X70096422Y-42882254D01*
X69985862Y-42962581D01*
X69985860Y-42962583D01*
X69985859Y-42962583D01*
X69818857Y-43129585D01*
X69818857Y-43129586D01*
X69818855Y-43129588D01*
X69759234Y-43211648D01*
X69680029Y-43320664D01*
X69572805Y-43531101D01*
X69499818Y-43755729D01*
X69462872Y-43989000D01*
X69462872Y-44225195D01*
X69499818Y-44458466D01*
X69572805Y-44683094D01*
X69596605Y-44729803D01*
X69680029Y-44893531D01*
X69818855Y-45084608D01*
X69985862Y-45251615D01*
X70176939Y-45390441D01*
X70193920Y-45399093D01*
X70244716Y-45447065D01*
X70261513Y-45514886D01*
X70244449Y-45572547D01*
X68176669Y-49080352D01*
X68125667Y-49128108D01*
X68056944Y-49140710D01*
X67992316Y-49114156D01*
X67982166Y-49105064D01*
X67725617Y-48848514D01*
X67725607Y-48848505D01*
X67725602Y-48848500D01*
X67713966Y-48838342D01*
X67694239Y-48821120D01*
X67694229Y-48821113D01*
X67535725Y-48725745D01*
X67535724Y-48725744D01*
X67535723Y-48725744D01*
X67360412Y-48666674D01*
X67176503Y-48646674D01*
X67176499Y-48646674D01*
X66992589Y-48666674D01*
X66817276Y-48725745D01*
X66658772Y-48821113D01*
X66658762Y-48821120D01*
X66627404Y-48848496D01*
X66627384Y-48848515D01*
X65603589Y-49872310D01*
X65603570Y-49872330D01*
X65576194Y-49903688D01*
X65576187Y-49903698D01*
X65480819Y-50062202D01*
X65421748Y-50237515D01*
X65401748Y-50421424D01*
X65401748Y-50421429D01*
X65421748Y-50605338D01*
X65480819Y-50780651D01*
X65576187Y-50939155D01*
X65576194Y-50939165D01*
X65603570Y-50970523D01*
X65603588Y-50970543D01*
X66453494Y-51820448D01*
X66486979Y-51881771D01*
X66481995Y-51951462D01*
X66472635Y-51971098D01*
X64407669Y-55474128D01*
X64356667Y-55521884D01*
X64287943Y-55534486D01*
X64227962Y-55511477D01*
X64189808Y-55483757D01*
X64189807Y-55483756D01*
X64189805Y-55483755D01*
X64124087Y-55450270D01*
X63979368Y-55376531D01*
X63754740Y-55303544D01*
X63521469Y-55266598D01*
X63521464Y-55266598D01*
X63285280Y-55266598D01*
X63285275Y-55266598D01*
X63052003Y-55303544D01*
X62827375Y-55376531D01*
X62616938Y-55483755D01*
X62564459Y-55521884D01*
X62425862Y-55622581D01*
X62425860Y-55622583D01*
X62425859Y-55622583D01*
X62258857Y-55789585D01*
X62258857Y-55789586D01*
X62258855Y-55789588D01*
X62199234Y-55871648D01*
X62120029Y-55980664D01*
X62012805Y-56191101D01*
X61939818Y-56415729D01*
X61902872Y-56649000D01*
X61902872Y-56885195D01*
X61939818Y-57118466D01*
X62012805Y-57343094D01*
X62120029Y-57553531D01*
X62258855Y-57744608D01*
X62425862Y-57911615D01*
X62616939Y-58050441D01*
X62708662Y-58097176D01*
X62759458Y-58145150D01*
X62776253Y-58212971D01*
X62759189Y-58270630D01*
X60677814Y-61801497D01*
X60626812Y-61849253D01*
X60558089Y-61861855D01*
X60493461Y-61835301D01*
X60483311Y-61826209D01*
X60165617Y-61508514D01*
X60165607Y-61508505D01*
X60165602Y-61508500D01*
X60153966Y-61498342D01*
X60134239Y-61481120D01*
X60134229Y-61481113D01*
X59975725Y-61385745D01*
X59975724Y-61385744D01*
X59975723Y-61385744D01*
X59800412Y-61326674D01*
X59616503Y-61306674D01*
X59616499Y-61306674D01*
X59432589Y-61326674D01*
X59257276Y-61385745D01*
X59098772Y-61481113D01*
X59098762Y-61481120D01*
X59067404Y-61508496D01*
X59067384Y-61508515D01*
X58043589Y-62532310D01*
X58043570Y-62532330D01*
X58016194Y-62563688D01*
X58016187Y-62563698D01*
X57920819Y-62722202D01*
X57920818Y-62722205D01*
X57861748Y-62897516D01*
X57841748Y-63081427D01*
X57861748Y-63265338D01*
X57896339Y-63368000D01*
X57920819Y-63440651D01*
X58016187Y-63599155D01*
X58016194Y-63599165D01*
X58043570Y-63630523D01*
X58043588Y-63630543D01*
X58954639Y-64541593D01*
X58988124Y-64602916D01*
X58983140Y-64672607D01*
X58973780Y-64692243D01*
X57990121Y-66360935D01*
X57221067Y-67665567D01*
X57170065Y-67713323D01*
X57114245Y-67726598D01*
X56664527Y-67726598D01*
X56571786Y-67745046D01*
X56571785Y-67745046D01*
X56509882Y-67757359D01*
X56509870Y-67757362D01*
X56364199Y-67817700D01*
X56364186Y-67817707D01*
X56261134Y-67886565D01*
X56261126Y-67886570D01*
X56257069Y-67889282D01*
X56233083Y-67905309D01*
X56217081Y-67921310D01*
X56211351Y-67925830D01*
X56185429Y-67936250D01*
X56160915Y-67949635D01*
X56151461Y-67949904D01*
X56146523Y-67951890D01*
X56138133Y-67950285D01*
X56115163Y-67950941D01*
X55961469Y-67926598D01*
X55961464Y-67926598D01*
X55725280Y-67926598D01*
X55725275Y-67926598D01*
X55492003Y-67963544D01*
X55267375Y-68036531D01*
X55056938Y-68143755D01*
X54947922Y-68222960D01*
X54865862Y-68282581D01*
X54865860Y-68282583D01*
X54865859Y-68282583D01*
X54698857Y-68449585D01*
X54698857Y-68449586D01*
X54698855Y-68449588D01*
X54639234Y-68531648D01*
X54560029Y-68640664D01*
X54452805Y-68851101D01*
X54379818Y-69075729D01*
X54342872Y-69309000D01*
X54342872Y-69545195D01*
X54379818Y-69778466D01*
X54452805Y-70003094D01*
X54560029Y-70213531D01*
X54698855Y-70404608D01*
X54865862Y-70571615D01*
X55056939Y-70710441D01*
X55223402Y-70795258D01*
X55274198Y-70843233D01*
X55290993Y-70911054D01*
X55273929Y-70968712D01*
X53178959Y-74522642D01*
X53127957Y-74570398D01*
X53059234Y-74583000D01*
X52994606Y-74556446D01*
X52984456Y-74547354D01*
X52605617Y-74168514D01*
X52605607Y-74168505D01*
X52605602Y-74168500D01*
X52593966Y-74158342D01*
X52574239Y-74141120D01*
X52574229Y-74141113D01*
X52415725Y-74045745D01*
X52415724Y-74045744D01*
X52415723Y-74045744D01*
X52240412Y-73986674D01*
X52056503Y-73966674D01*
X52056499Y-73966674D01*
X51872589Y-73986674D01*
X51697276Y-74045745D01*
X51538772Y-74141113D01*
X51538762Y-74141120D01*
X51507404Y-74168496D01*
X51507384Y-74168515D01*
X50483589Y-75192310D01*
X50483570Y-75192330D01*
X50456194Y-75223688D01*
X50456187Y-75223698D01*
X50360819Y-75382202D01*
X50301748Y-75557515D01*
X50281748Y-75741424D01*
X50281748Y-75741429D01*
X50301748Y-75925338D01*
X50360819Y-76100651D01*
X50456187Y-76259155D01*
X50456194Y-76259165D01*
X50483570Y-76290523D01*
X50483588Y-76290543D01*
X51455784Y-77262738D01*
X51489269Y-77324061D01*
X51484285Y-77393752D01*
X51474925Y-77413388D01*
X49423761Y-80893006D01*
X49372759Y-80940762D01*
X49304036Y-80953364D01*
X49244055Y-80930356D01*
X49069805Y-80803755D01*
X49064270Y-80800935D01*
X48859368Y-80696531D01*
X48634740Y-80623544D01*
X48401469Y-80586598D01*
X48401464Y-80586598D01*
X48165280Y-80586598D01*
X48165275Y-80586598D01*
X47932003Y-80623544D01*
X47707375Y-80696531D01*
X47496938Y-80803755D01*
X47414875Y-80863378D01*
X47305862Y-80942581D01*
X47305860Y-80942583D01*
X47305859Y-80942583D01*
X47138857Y-81109585D01*
X47138857Y-81109586D01*
X47138855Y-81109588D01*
X47079234Y-81191648D01*
X47000029Y-81300664D01*
X46892805Y-81511101D01*
X46819818Y-81735729D01*
X46782872Y-81969000D01*
X46782872Y-82205195D01*
X46819818Y-82438466D01*
X46892805Y-82663094D01*
X47000029Y-82873531D01*
X47138855Y-83064608D01*
X47305862Y-83231615D01*
X47496939Y-83370441D01*
X47600154Y-83423031D01*
X47707379Y-83477666D01*
X47707385Y-83477668D01*
X47722179Y-83482475D01*
X47779855Y-83521912D01*
X47807054Y-83586270D01*
X47795140Y-83655117D01*
X47790684Y-83663375D01*
X45680104Y-87243787D01*
X45629102Y-87291543D01*
X45560379Y-87304145D01*
X45495751Y-87277591D01*
X45485601Y-87268499D01*
X45045617Y-86828514D01*
X45045607Y-86828505D01*
X45045602Y-86828500D01*
X45033966Y-86818342D01*
X45014239Y-86801120D01*
X45014229Y-86801113D01*
X44855725Y-86705745D01*
X44855724Y-86705744D01*
X44855723Y-86705744D01*
X44680412Y-86646674D01*
X44496503Y-86626674D01*
X44496499Y-86626674D01*
X44312589Y-86646674D01*
X44137276Y-86705745D01*
X43978772Y-86801113D01*
X43978762Y-86801120D01*
X43947404Y-86828496D01*
X43947384Y-86828515D01*
X42923589Y-87852310D01*
X42923570Y-87852330D01*
X42896194Y-87883688D01*
X42896187Y-87883698D01*
X42800819Y-88042202D01*
X42741748Y-88217515D01*
X42721748Y-88401424D01*
X42721748Y-88401429D01*
X42741748Y-88585338D01*
X42800819Y-88760651D01*
X42896187Y-88919155D01*
X42896194Y-88919165D01*
X42913416Y-88938892D01*
X42923574Y-88950528D01*
X42923579Y-88950533D01*
X42923589Y-88950544D01*
X43947384Y-89974339D01*
X43947395Y-89974349D01*
X43947400Y-89974354D01*
X43951123Y-89977604D01*
X43988678Y-90036522D01*
X43988418Y-90106391D01*
X43976394Y-90133983D01*
X41927413Y-93609897D01*
X41876411Y-93657653D01*
X41807688Y-93670255D01*
X41743060Y-93643701D01*
X41732910Y-93634609D01*
X41700884Y-93602583D01*
X41700882Y-93602581D01*
X41509805Y-93463755D01*
X41299368Y-93356531D01*
X41074740Y-93283544D01*
X40841469Y-93246598D01*
X40841464Y-93246598D01*
X40605280Y-93246598D01*
X40605275Y-93246598D01*
X40372003Y-93283544D01*
X40147375Y-93356531D01*
X39936938Y-93463755D01*
X39827922Y-93542960D01*
X39745862Y-93602581D01*
X39745860Y-93602583D01*
X39745859Y-93602583D01*
X39578857Y-93769585D01*
X39578857Y-93769586D01*
X39578855Y-93769588D01*
X39519234Y-93851648D01*
X39440029Y-93960664D01*
X39332805Y-94171101D01*
X39259818Y-94395729D01*
X39222872Y-94629000D01*
X39222872Y-94865195D01*
X39259818Y-95098466D01*
X39332805Y-95323094D01*
X39440029Y-95533531D01*
X39578855Y-95724608D01*
X39745862Y-95891615D01*
X39936939Y-96030441D01*
X40147380Y-96137666D01*
X40243748Y-96168978D01*
X40301422Y-96208414D01*
X40328621Y-96272773D01*
X40316707Y-96341619D01*
X40312251Y-96349877D01*
X38181250Y-99964933D01*
X38130248Y-100012689D01*
X38061525Y-100025291D01*
X37996897Y-99998737D01*
X37986747Y-99989645D01*
X37485617Y-99488514D01*
X37485607Y-99488505D01*
X37485602Y-99488500D01*
X37473966Y-99478342D01*
X37454239Y-99461120D01*
X37454229Y-99461113D01*
X37295725Y-99365745D01*
X37295724Y-99365744D01*
X37295723Y-99365744D01*
X37120412Y-99306674D01*
X36936503Y-99286674D01*
X36936499Y-99286674D01*
X36752589Y-99306674D01*
X36577276Y-99365745D01*
X36418772Y-99461113D01*
X36418762Y-99461120D01*
X36387404Y-99488496D01*
X36387384Y-99488515D01*
X35363589Y-100512310D01*
X35363570Y-100512330D01*
X35336194Y-100543688D01*
X35336187Y-100543698D01*
X35240819Y-100702202D01*
X35181748Y-100877515D01*
X35161748Y-101061424D01*
X35161748Y-101061429D01*
X35181748Y-101245338D01*
X35240819Y-101420651D01*
X35336187Y-101579155D01*
X35336194Y-101579165D01*
X35353416Y-101598892D01*
X35363574Y-101610528D01*
X35363579Y-101610533D01*
X35363589Y-101610544D01*
X36387384Y-102634339D01*
X36387394Y-102634348D01*
X36387400Y-102634354D01*
X36403083Y-102648045D01*
X36418762Y-102661733D01*
X36418763Y-102661733D01*
X36418766Y-102661736D01*
X36441006Y-102675117D01*
X36488301Y-102726546D01*
X36500284Y-102795381D01*
X36483900Y-102844337D01*
X34428559Y-106331043D01*
X34377557Y-106378799D01*
X34308834Y-106391401D01*
X34244206Y-106364847D01*
X34234056Y-106355755D01*
X34140884Y-106262583D01*
X34140882Y-106262581D01*
X33949805Y-106123755D01*
X33739368Y-106016531D01*
X33514740Y-105943544D01*
X33281469Y-105906598D01*
X33281464Y-105906598D01*
X33045280Y-105906598D01*
X33045275Y-105906598D01*
X32812003Y-105943544D01*
X32587375Y-106016531D01*
X32376938Y-106123755D01*
X32267922Y-106202960D01*
X32185862Y-106262581D01*
X32185860Y-106262583D01*
X32185859Y-106262583D01*
X32018857Y-106429585D01*
X32018857Y-106429586D01*
X32018855Y-106429588D01*
X31971782Y-106494378D01*
X31880029Y-106620664D01*
X31772805Y-106831101D01*
X31699818Y-107055729D01*
X31662872Y-107289000D01*
X31662872Y-107525195D01*
X31699818Y-107758466D01*
X31772805Y-107983094D01*
X31880029Y-108193531D01*
X32018855Y-108384608D01*
X32185862Y-108551615D01*
X32376939Y-108690441D01*
X32587380Y-108797666D01*
X32765313Y-108855480D01*
X32822989Y-108894918D01*
X32850187Y-108959276D01*
X32838272Y-109028123D01*
X32833817Y-109036380D01*
X30682395Y-112686078D01*
X30631393Y-112733834D01*
X30562670Y-112746436D01*
X30498042Y-112719882D01*
X30487892Y-112710790D01*
X29925617Y-112148514D01*
X29925607Y-112148505D01*
X29925602Y-112148500D01*
X29913966Y-112138342D01*
X29894239Y-112121120D01*
X29894229Y-112121113D01*
X29735725Y-112025745D01*
X29735724Y-112025744D01*
X29735723Y-112025744D01*
X29560412Y-111966674D01*
X29376503Y-111946674D01*
X29376499Y-111946674D01*
X29192589Y-111966674D01*
X29017276Y-112025745D01*
X28858772Y-112121113D01*
X28858762Y-112121120D01*
X28827404Y-112148496D01*
X28827384Y-112148515D01*
X27803589Y-113172310D01*
X27803570Y-113172330D01*
X27776194Y-113203688D01*
X27776187Y-113203698D01*
X27680819Y-113362202D01*
X27621748Y-113537515D01*
X27601748Y-113721424D01*
X27601748Y-113721429D01*
X27621748Y-113905338D01*
X27680819Y-114080651D01*
X27776187Y-114239155D01*
X27776194Y-114239165D01*
X27793416Y-114258892D01*
X27803574Y-114270528D01*
X27803579Y-114270533D01*
X27803589Y-114270544D01*
X28827384Y-115294339D01*
X28827394Y-115294348D01*
X28827400Y-115294354D01*
X28843083Y-115308045D01*
X28858762Y-115321733D01*
X28858767Y-115321737D01*
X28952750Y-115378285D01*
X29000045Y-115429714D01*
X29012027Y-115498549D01*
X28995643Y-115547504D01*
X27423020Y-118215321D01*
X27372018Y-118263077D01*
X27329605Y-118275625D01*
X27185711Y-118291274D01*
X27010398Y-118350345D01*
X26851894Y-118445713D01*
X26851884Y-118445720D01*
X26820526Y-118473096D01*
X26820506Y-118473115D01*
X25796711Y-119496910D01*
X25796692Y-119496930D01*
X25769316Y-119528288D01*
X25769309Y-119528298D01*
X25673941Y-119686802D01*
X25614870Y-119862115D01*
X25594870Y-120046024D01*
X25594870Y-120046029D01*
X25612068Y-120204172D01*
X25599747Y-120272947D01*
X25552199Y-120324142D01*
X25488795Y-120341578D01*
X25455475Y-120341578D01*
X25222203Y-120378524D01*
X24997575Y-120451511D01*
X24787138Y-120558735D01*
X24706106Y-120617609D01*
X24596062Y-120697561D01*
X24596060Y-120697563D01*
X24596059Y-120697563D01*
X24429057Y-120864565D01*
X24429057Y-120864566D01*
X24429055Y-120864568D01*
X24401606Y-120902348D01*
X24290229Y-121055644D01*
X24183005Y-121266081D01*
X24110018Y-121490709D01*
X24073072Y-121723980D01*
X22350156Y-121723980D01*
X22339566Y-121678091D01*
X22337507Y-121666804D01*
X22287327Y-121294682D01*
X22286322Y-121283233D01*
X22270829Y-120908088D01*
X22270886Y-120896625D01*
X22290211Y-120521629D01*
X22291335Y-120510189D01*
X22296846Y-120472249D01*
X22345309Y-120138613D01*
X22347481Y-120127361D01*
X22435649Y-119762359D01*
X22438853Y-119751360D01*
X22560451Y-119396094D01*
X22564660Y-119385437D01*
X22718645Y-119042963D01*
X22723822Y-119032742D01*
X22910332Y-118703419D01*
X22910717Y-118702746D01*
X22911924Y-118700647D01*
X22946793Y-118645242D01*
X22950239Y-118634095D01*
X22957149Y-118622093D01*
X22957565Y-118621694D01*
X22958144Y-118620396D01*
X77894573Y-26603145D01*
X77897650Y-26598663D01*
X77932193Y-26540149D01*
X77935221Y-26535281D01*
X78153995Y-26201156D01*
X78160724Y-26191851D01*
X78407741Y-25881698D01*
X78415298Y-25873065D01*
X78690013Y-25587141D01*
X78698322Y-25579260D01*
X78998366Y-25320036D01*
X79007390Y-25312944D01*
X79330163Y-25082662D01*
X79339797Y-25076442D01*
X79682527Y-24877078D01*
X79692721Y-24871766D01*
X80052453Y-24705038D01*
X80063073Y-24700703D01*
X80436730Y-24568040D01*
X80447713Y-24564706D01*
X80832041Y-24467262D01*
X80843294Y-24464959D01*
X81235005Y-24403566D01*
X81246432Y-24402315D01*
X81642134Y-24377504D01*
X81653632Y-24377319D01*
X82049930Y-24389301D01*
G37*
%TD.AperFunction*%
%TD*%
M02*
