M48
; DRILL file KiCad 10.0.2 date 2026-06-25T10:32:52
; FORMAT={-:-/ absolute / metric / decimal}
; #@! TF.CreationDate,2026-06-25T10:32:52+03:00
; #@! TF.GenerationSoftware,Kicad,Pcbnew,10.0.2
; #@! TF.FileFunction,Plated,1,2,PTH
FMAT,2
METRIC
; #@! TA.AperFunction,Plated,PTH,ViaDrill
T1C0.300
; #@! TA.AperFunction,Plated,PTH,ComponentDrill
T2C0.900
; #@! TA.AperFunction,Plated,PTH,ComponentDrill
T3C1.000
; #@! TA.AperFunction,Plated,PTH,ComponentDrill
T4C1.125
%
G90
G05
T1
X26.265Y-116.071
X29.82Y-110.414
X30.024Y-123.564
X33.35Y-104.572
X37.084Y-114.96
X37.339Y-123.564
X37.643Y-97.612
X38.609Y-113.658
X40.437Y-92.659
X43.588Y-116.027
X44.172Y-123.589
X45.034Y-85.065
X45.669Y-113.005
X47.083Y-108.289
X47.134Y-104.987
X48.184Y-79.908
X49.341Y-87.077
X49.455Y-96.919
X50.639Y-104.86
X50.648Y-101.473
X50.698Y-97.409
X51.081Y-87.394
X51.411Y-123.615
X51.918Y-98.673
X52.351Y-72.916
X53.494Y-88.639
X53.519Y-87.267
X53.519Y-90.645
X56.034Y-66.82
X57.888Y-95.827
X58.801Y-88.671
X58.955Y-123.538
X60.199Y-91.128
X60.352Y-59.962
X61.914Y-91.826
X63.373Y-84.15
X63.514Y-82.403
X63.704Y-77.869
X64.008Y-53.721
X64.237Y-84.988
X65.482Y-119.195
X65.965Y-72.713
X67.743Y-47.389
X68.251Y-67.023
X68.251Y-79.546
X68.276Y-74.339
X68.276Y-82.492
X68.327Y-59.226
X69.673Y-112.007
X71.171Y-41.707
X71.426Y-105.631
X71.68Y-61.359
X71.705Y-52.85
X72.493Y-98.697
X73.788Y-91.357
X74.83Y-83.813
X76.227Y-76.955
X76.557Y-32.987
X77.166Y-69.132
X78.589Y-62.756
X79.681Y-54.577
X80.9Y-48.126
X82.475Y-40.15
X83.339Y-33.521
T2
X25.574Y-121.842
X27.37Y-120.046
X29.377Y-113.721
X31.173Y-115.517
X33.163Y-107.407
X33.572Y-119.678
X33.572Y-122.218
X34.959Y-109.203
X36.937Y-101.061
X38.733Y-102.857
X40.633Y-119.673
X40.633Y-122.213
X40.723Y-94.747
X42.519Y-96.543
X44.497Y-88.401
X46.293Y-90.197
X47.728Y-119.678
X47.728Y-122.218
X48.283Y-82.087
X50.079Y-83.883
X52.057Y-75.741
X53.853Y-77.537
X54.789Y-119.673
X54.789Y-122.213
X55.843Y-69.427
X57.639Y-71.223
X59.617Y-63.081
X60.974Y-121.824
X61.413Y-64.877
X62.77Y-120.028
X63.403Y-56.767
X65.199Y-58.563
X66.344Y-116.263
X67.177Y-50.421
X67.181Y-108.141
X68.141Y-114.467
X68.371Y-100.921
X68.973Y-52.217
X69.581Y-93.701
X69.721Y-108.141
X70.771Y-86.481
X70.911Y-100.921
X70.963Y-44.107
X71.981Y-79.261
X72.121Y-93.701
X72.759Y-45.903
X73.171Y-72.041
X73.311Y-86.481
X74.381Y-64.821
X74.521Y-79.261
X74.737Y-37.761
X75.571Y-57.601
X75.711Y-72.041
X76.533Y-39.557
X76.781Y-50.381
X76.921Y-64.821
X77.971Y-43.161
X78.111Y-57.601
X79.181Y-35.941
X79.321Y-50.381
X80.463Y-28.822
X80.511Y-43.161
X81.721Y-35.941
X83.003Y-28.822
T3
X35.794Y-117.519
X38.334Y-117.519
X48.32Y-115.076
X57.3Y-106.096
X57.968Y-77.052
X59.764Y-75.256
T4
X52.786Y-117.236
X54.2Y-115.822
X55.614Y-114.408
X57.028Y-112.993
X58.443Y-111.579
X59.857Y-110.165
X61.271Y-108.751
X62.685Y-107.336
M30
