M48
; DRILL file KiCad 10.0.2 date 2026-05-29T20:59:07
; FORMAT={-:-/ absolute / metric / decimal}
; #@! TF.CreationDate,2026-05-29T20:59:07+03:00
; #@! TF.GenerationSoftware,Kicad,Pcbnew,10.0.2
; #@! TF.FileFunction,Plated,1,2,PTH
FMAT,2
METRIC
; #@! TA.AperFunction,Plated,PTH,ViaDrill
T1C0.300
; #@! TA.AperFunction,Plated,PTH,ComponentDrill
T2C0.800
; #@! TA.AperFunction,Plated,PTH,ComponentDrill
T3C0.900
; #@! TA.AperFunction,Plated,PTH,ComponentDrill
T4C1.000
%
G90
G05
T1
X94.005Y-119.558
X105.791Y-117.627
X107.315Y-127.279
X108.814Y-132.461
X109.499Y-94.132
X110.57Y-115.617
X112.56Y-114.49
X112.827Y-116.18
X114.402Y-113.868
X114.478Y-94.818
X114.859Y-111.735
X116.256Y-96.418
X117.945Y-108.61
X118.212Y-100.711
X118.542Y-94.31
X119.329Y-101.448
X120.447Y-102.87
X122.657Y-98.171
X123.596Y-99.238
X124.282Y-70.155
X126.009Y-113.538
X127.521Y-85.331
X129.489Y-79.536
X132.69Y-88.748
X133.96Y-79.477
X134.29Y-121.387
X135.636Y-75.006
X135.763Y-65.608
X138.659Y-92.431
X141.986Y-42.139
X143.485Y-63.703
T2
X115.79Y-120.837
X116.747Y-126.585
X118.161Y-125.171
X118.241Y-91.665
X119.575Y-123.757
X119.655Y-90.25
X120.989Y-122.343
X122.403Y-120.929
X122.861Y-113.766
X123.818Y-119.514
X125.232Y-118.1
X126.646Y-116.686
T3
X89.673Y-131.058
X91.469Y-129.262
X93.097Y-123.846
X95.637Y-123.846
X96.751Y-131.058
X96.877Y-117.516
X98.547Y-129.262
X99.417Y-117.516
X100.657Y-111.186
X103.197Y-111.186
X103.829Y-131.058
X104.437Y-104.856
X105.625Y-129.262
X106.977Y-104.856
X108.217Y-98.526
X110.757Y-98.526
X110.907Y-131.058
X111.997Y-92.196
X112.703Y-129.262
X114.537Y-92.196
X115.777Y-85.866
X117.985Y-131.058
X118.317Y-85.866
X119.557Y-79.536
X119.781Y-129.262
X122.097Y-79.536
X123.337Y-73.206
X125.063Y-131.058
X125.877Y-73.206
X126.859Y-129.262
X127.117Y-66.876
X129.657Y-66.876
X130.427Y-125.49
X130.897Y-60.546
X131.627Y-118.27
X132.223Y-123.694
X132.827Y-111.05
X133.423Y-116.474
X133.437Y-60.546
X134.027Y-103.83
X134.623Y-109.254
X134.677Y-54.216
X135.227Y-96.61
X135.823Y-102.034
X136.427Y-89.39
X137.023Y-94.814
X137.217Y-54.216
X137.627Y-82.17
X138.223Y-87.594
X138.457Y-47.886
X138.827Y-74.95
X139.423Y-80.374
X140.027Y-67.73
X140.623Y-73.154
X140.997Y-47.886
X141.227Y-60.51
X141.823Y-65.934
X142.427Y-53.29
X143.023Y-58.714
X143.627Y-46.07
X144.223Y-51.494
X144.905Y-38.927
X145.423Y-44.274
X146.701Y-37.131
T4
X100.427Y-126.441
X102.967Y-126.441
M30
