%TF.GenerationSoftware,KiCad,Pcbnew,10.0.2*%
%TF.CreationDate,2026-05-29T20:59:03+03:00*%
%TF.ProjectId,kicad_selka_rev2,6b696361-645f-4736-956c-6b615f726576,rev?*%
%TF.SameCoordinates,Original*%
%TF.FileFunction,Copper,L1,Top*%
%TF.FilePolarity,Positive*%
%FSLAX46Y46*%
G04 Gerber Fmt 4.6, Leading zero omitted, Abs format (unit mm)*
G04 Created by KiCad (PCBNEW 10.0.2) date 2026-05-29 20:59:03*
%MOMM*%
%LPD*%
G01*
G04 APERTURE LIST*
G04 Aperture macros list*
%AMHorizOval*
0 Thick line with rounded ends*
0 $1 width*
0 $2 $3 position (X,Y) of the first rounded end (center of the circle)*
0 $4 $5 position (X,Y) of the second rounded end (center of the circle)*
0 Add line between two ends*
20,1,$1,$2,$3,$4,$5,0*
0 Add two circle primitives to create the rounded ends*
1,1,$1,$2,$3*
1,1,$1,$4,$5*%
%AMRotRect*
0 Rectangle, with rotation*
0 The origin of the aperture is its center*
0 $1 length*
0 $2 width*
0 $3 Rotation angle, in degrees counterclockwise*
0 Add horizontal line*
21,1,$1,$2,0,0,$3*%
G04 Aperture macros list end*
%TA.AperFunction,ComponentPad*%
%ADD10RotRect,1.800000X1.800000X45.000000*%
%TD*%
%TA.AperFunction,ComponentPad*%
%ADD11C,1.800000*%
%TD*%
%TA.AperFunction,ComponentPad*%
%ADD12RotRect,1.800000X1.800000X225.000000*%
%TD*%
%TA.AperFunction,ComponentPad*%
%ADD13R,1.800000X1.800000*%
%TD*%
%TA.AperFunction,ComponentPad*%
%ADD14RotRect,1.350000X1.350000X315.000000*%
%TD*%
%TA.AperFunction,ComponentPad*%
%ADD15C,1.350000*%
%TD*%
%TA.AperFunction,ComponentPad*%
%ADD16RotRect,1.350000X1.350000X135.000000*%
%TD*%
%TA.AperFunction,ComponentPad*%
%ADD17R,1.700000X1.700000*%
%TD*%
%TA.AperFunction,ComponentPad*%
%ADD18C,1.700000*%
%TD*%
%TA.AperFunction,ComponentPad*%
%ADD19RotRect,2.000000X1.350000X135.000000*%
%TD*%
%TA.AperFunction,ComponentPad*%
%ADD20HorizOval,1.350000X-0.229810X0.229810X0.229810X-0.229810X0*%
%TD*%
%TA.AperFunction,ViaPad*%
%ADD21C,0.600000*%
%TD*%
%TA.AperFunction,Conductor*%
%ADD22C,0.400000*%
%TD*%
G04 APERTURE END LIST*
D10*
%TO.P,D13,1,K_1*%
%TO.N,Net-(D1-K)*%
X130427431Y-125490010D03*
D11*
%TO.P,D13,2,A_2*%
%TO.N,Net-(D11-K)*%
X132223482Y-123693959D03*
%TD*%
D12*
%TO.P,D46,1,K_1*%
%TO.N,Net-(D11-K)*%
X126858592Y-129262049D03*
D11*
%TO.P,D46,2,A_2*%
%TO.N,Net-(D1-K)*%
X125062541Y-131058100D03*
%TD*%
D13*
%TO.P,D62,1,K_1*%
%TO.N,Net-(D10-A)*%
X133437392Y-60546449D03*
D11*
%TO.P,D62,2,A_2*%
%TO.N,Net-(D51-K)*%
X130897392Y-60546449D03*
%TD*%
D13*
%TO.P,D60,1,K_1*%
%TO.N,Net-(D10-A)*%
X125877392Y-73206449D03*
D11*
%TO.P,D60,2,A_2*%
%TO.N,Net-(D49-K)*%
X123337392Y-73206449D03*
%TD*%
D10*
%TO.P,D10,1,K_1*%
%TO.N,Net-(D1-A)*%
X134027431Y-103830010D03*
D11*
%TO.P,D10,2,A_2*%
%TO.N,Net-(D10-A)*%
X135823482Y-102033959D03*
%TD*%
D10*
%TO.P,D11,1,K_1*%
%TO.N,Net-(D11-K)*%
X132827431Y-111050010D03*
D11*
%TO.P,D11,2,A_2*%
%TO.N,Net-(D1-A)*%
X134623482Y-109253959D03*
%TD*%
D13*
%TO.P,D58,1,K_1*%
%TO.N,Net-(D10-A)*%
X118317392Y-85866449D03*
D11*
%TO.P,D58,2,A_2*%
%TO.N,Net-(D3-K)*%
X115777392Y-85866449D03*
%TD*%
D13*
%TO.P,D56,1,K_1*%
%TO.N,Net-(D10-A)*%
X110757392Y-98526449D03*
D11*
%TO.P,D56,2,A_2*%
%TO.N,Net-(D1-K)*%
X108217392Y-98526449D03*
%TD*%
D13*
%TO.P,D57,1,K_1*%
%TO.N,Net-(D3-K)*%
X114537392Y-92196449D03*
D11*
%TO.P,D57,2,A_2*%
%TO.N,Net-(D10-A)*%
X111997392Y-92196449D03*
%TD*%
D12*
%TO.P,D47,1,K_1*%
%TO.N,Net-(D3-K)*%
X119780592Y-129262049D03*
D11*
%TO.P,D47,2,A_2*%
%TO.N,Net-(D11-K)*%
X117984541Y-131058100D03*
%TD*%
D10*
%TO.P,D1,1,K_1*%
%TO.N,Net-(D1-K)*%
X144905431Y-38926810D03*
D11*
%TO.P,D1,2,A_2*%
%TO.N,Net-(D1-A)*%
X146701482Y-37130759D03*
%TD*%
D13*
%TO.P,D54,1,K_1*%
%TO.N,Net-(D11-K)*%
X103197392Y-111186449D03*
D11*
%TO.P,D54,2,A_2*%
%TO.N,Net-(D10-A)*%
X100657392Y-111186449D03*
%TD*%
D13*
%TO.P,D63,1,K_1*%
%TO.N,Net-(D51-K)*%
X137217392Y-54216449D03*
D11*
%TO.P,D63,2,A_2*%
%TO.N,Net-(D1-K)*%
X134677392Y-54216449D03*
%TD*%
D10*
%TO.P,D2,1,K_1*%
%TO.N,Net-(D1-A)*%
X143627431Y-46070010D03*
D11*
%TO.P,D2,2,A_2*%
%TO.N,Net-(D1-K)*%
X145423482Y-44273959D03*
%TD*%
D12*
%TO.P,D49,1,K_1*%
%TO.N,Net-(D49-K)*%
X105624592Y-129262049D03*
D11*
%TO.P,D49,2,A_2*%
%TO.N,Net-(D11-K)*%
X103828541Y-131058100D03*
%TD*%
D12*
%TO.P,D48,1,K_1*%
%TO.N,Net-(D11-K)*%
X112702592Y-129262049D03*
D11*
%TO.P,D48,2,A_2*%
%TO.N,Net-(D3-K)*%
X110906541Y-131058100D03*
%TD*%
D12*
%TO.P,D51,1,K_1*%
%TO.N,Net-(D51-K)*%
X91468592Y-129262049D03*
D11*
%TO.P,D51,2,A_2*%
%TO.N,Net-(D11-K)*%
X89672541Y-131058100D03*
%TD*%
D10*
%TO.P,D8,1,K_1*%
%TO.N,Net-(D1-A)*%
X136427431Y-89390010D03*
D11*
%TO.P,D8,2,A_2*%
%TO.N,Net-(D51-K)*%
X138223482Y-87593959D03*
%TD*%
D13*
%TO.P,D53,1,K_1*%
%TO.N,Net-(D10-A)*%
X99417392Y-117516449D03*
D11*
%TO.P,D53,2,A_2*%
%TO.N,Net-(D11-K)*%
X96877392Y-117516449D03*
%TD*%
D10*
%TO.P,D3,1,K_1*%
%TO.N,Net-(D3-K)*%
X142427431Y-53290010D03*
D11*
%TO.P,D3,2,A_2*%
%TO.N,Net-(D1-A)*%
X144223482Y-51493959D03*
%TD*%
D10*
%TO.P,D9,1,K_1*%
%TO.N,Net-(D10-A)*%
X135227431Y-96610010D03*
D11*
%TO.P,D9,2,A_2*%
%TO.N,Net-(D1-A)*%
X137023482Y-94813959D03*
%TD*%
D13*
%TO.P,D59,1,K_1*%
%TO.N,Net-(D49-K)*%
X122097392Y-79536449D03*
D11*
%TO.P,D59,2,A_2*%
%TO.N,Net-(D10-A)*%
X119557392Y-79536449D03*
%TD*%
D12*
%TO.P,D50,1,K_1*%
%TO.N,Net-(D11-K)*%
X98546592Y-129262049D03*
D11*
%TO.P,D50,2,A_2*%
%TO.N,Net-(D49-K)*%
X96750541Y-131058100D03*
%TD*%
D13*
%TO.P,D55,1,K_1*%
%TO.N,Net-(D1-K)*%
X106977392Y-104856449D03*
D11*
%TO.P,D55,2,A_2*%
%TO.N,Net-(D10-A)*%
X104437392Y-104856449D03*
%TD*%
D10*
%TO.P,D6,1,K_1*%
%TO.N,Net-(D1-A)*%
X138827431Y-74950010D03*
D11*
%TO.P,D6,2,A_2*%
%TO.N,Net-(D49-K)*%
X140623482Y-73153959D03*
%TD*%
D10*
%TO.P,D5,1,K_1*%
%TO.N,Net-(D49-K)*%
X140027431Y-67730010D03*
D11*
%TO.P,D5,2,A_2*%
%TO.N,Net-(D1-A)*%
X141823482Y-65933959D03*
%TD*%
D13*
%TO.P,D64,1,K_1*%
%TO.N,Net-(D1-K)*%
X140997392Y-47886449D03*
D11*
%TO.P,D64,2,A_2*%
%TO.N,Net-(D51-K)*%
X138457392Y-47886449D03*
%TD*%
D13*
%TO.P,D52,1,K_1*%
%TO.N,Net-(D11-K)*%
X95637392Y-123846449D03*
D11*
%TO.P,D52,2,A_2*%
%TO.N,Net-(D51-K)*%
X93097392Y-123846449D03*
%TD*%
D10*
%TO.P,D4,1,K_1*%
%TO.N,Net-(D1-A)*%
X141227431Y-60510010D03*
D11*
%TO.P,D4,2,A_2*%
%TO.N,Net-(D3-K)*%
X143023482Y-58713959D03*
%TD*%
D13*
%TO.P,D61,1,K_1*%
%TO.N,Net-(D51-K)*%
X129657392Y-66876449D03*
D11*
%TO.P,D61,2,A_2*%
%TO.N,Net-(D10-A)*%
X127117392Y-66876449D03*
%TD*%
D10*
%TO.P,D7,1,K_1*%
%TO.N,Net-(D51-K)*%
X137627431Y-82170010D03*
D11*
%TO.P,D7,2,A_2*%
%TO.N,Net-(D1-A)*%
X139423482Y-80373959D03*
%TD*%
D10*
%TO.P,D12,1,K_1*%
%TO.N,Net-(D1-A)*%
X131627431Y-118270010D03*
D11*
%TO.P,D12,2,A_2*%
%TO.N,Net-(D11-K)*%
X133423482Y-116473959D03*
%TD*%
D14*
%TO.P,SW1,1,1_1*%
%TO.N,GND1*%
X118241093Y-91664507D03*
D15*
%TO.P,SW1,2,2_2*%
%TO.N,Net-(U1-PA7)*%
X119655307Y-90250293D03*
%TD*%
D16*
%TO.P,J2,1,Pin_1_1*%
%TO.N,/PB0*%
X122860641Y-113765759D03*
D15*
%TO.P,J2,6,Pin_6_6*%
%TO.N,/PB7*%
X115789573Y-120836827D03*
%TD*%
D17*
%TO.P,J1,1,Pin_1_1*%
%TO.N,+5V*%
X100426600Y-126441200D03*
D18*
%TO.P,J1,2,Pin_2_2*%
%TO.N,GND1*%
X102966600Y-126441200D03*
%TD*%
D19*
%TO.P,J3,1,Pin_1_1*%
%TO.N,/PB0*%
X126646081Y-116685919D03*
D20*
%TO.P,J3,2,Pin_2_2*%
%TO.N,/PB1*%
X125231867Y-118100133D03*
%TO.P,J3,3,Pin_3_3*%
%TO.N,/PB2*%
X123817654Y-119514346D03*
%TO.P,J3,4,Pin_4_4*%
%TO.N,/PB3*%
X122403440Y-120928560D03*
%TO.P,J3,5,Pin_5_5*%
%TO.N,/PB4*%
X120989227Y-122342773D03*
%TO.P,J3,6,Pin_6_6*%
%TO.N,/PB5*%
X119575013Y-123756987D03*
%TO.P,J3,7,Pin_7_7*%
%TO.N,/PB6*%
X118160800Y-125171200D03*
%TO.P,J3,8,Pin_8_8*%
%TO.N,GND1*%
X116746586Y-126585414D03*
%TD*%
D21*
%TO.N,Net-(D1-K)*%
X135763000Y-65608200D03*
X135636000Y-75006200D03*
X118211600Y-100711000D03*
X132689600Y-88747600D03*
%TO.N,Net-(D51-K)*%
X114477800Y-94818200D03*
%TO.N,Net-(D49-K)*%
X127520700Y-85331300D03*
X118541800Y-94310200D03*
X129489200Y-79536449D03*
X133959600Y-79476600D03*
X116255800Y-96418400D03*
%TO.N,/PB3*%
X117944900Y-108610400D03*
%TO.N,+5V*%
X122656600Y-98171000D03*
X120446800Y-102870000D03*
%TO.N,GND1*%
X143484600Y-63703200D03*
X126009400Y-113538000D03*
X119329200Y-101447600D03*
X141986000Y-42138600D03*
X134289800Y-121386600D03*
X124282200Y-70154800D03*
X112826800Y-116179600D03*
X107315000Y-127279400D03*
X108813600Y-132461000D03*
X109499400Y-94132400D03*
X94005400Y-119557800D03*
X123596400Y-99237800D03*
X105791000Y-117627400D03*
X138658600Y-92430600D03*
%TO.N,/PB4*%
X114858800Y-111734600D03*
%TO.N,/PB5*%
X114401600Y-113868200D03*
%TO.N,/PB6*%
X112560100Y-114490500D03*
%TO.N,/PB7*%
X110569873Y-115617127D03*
%TD*%
%TO.N,Net-(D11-K)*%
D22*
X100342643Y-131058100D02*
X98546592Y-129262049D01*
X133423482Y-116473959D02*
X133500223Y-116550700D01*
X103828541Y-131058100D02*
X100342643Y-131058100D01*
%TO.N,Net-(D1-K)*%
X145423482Y-44273959D02*
X145154583Y-44005060D01*
X145154583Y-44005060D02*
X143217460Y-44005060D01*
X124162541Y-130158100D02*
X124162541Y-128567459D01*
X140997392Y-46225128D02*
X140997392Y-47886449D01*
X108217392Y-98526449D02*
X108217392Y-103616449D01*
X132689600Y-88747600D02*
X132537200Y-88595200D01*
X129159000Y-114376200D02*
X129159000Y-124221579D01*
X129540000Y-88595200D02*
X118211600Y-99923600D01*
X143217460Y-44005060D02*
X140997392Y-46225128D01*
X135763000Y-65608200D02*
X135788400Y-65633600D01*
X108217392Y-103616449D02*
X106977392Y-104856449D01*
X135788400Y-74853800D02*
X135636000Y-75006200D01*
X118211600Y-100711000D02*
X118211600Y-103428800D01*
X127239990Y-125490010D02*
X130427431Y-125490010D01*
X118211600Y-103428800D02*
X129159000Y-114376200D01*
X132537200Y-88595200D02*
X129540000Y-88595200D01*
X145423482Y-44273959D02*
X145423482Y-39444861D01*
X129159000Y-124221579D02*
X130427431Y-125490010D01*
X135788400Y-65633600D02*
X135788400Y-74853800D01*
X125062541Y-131058100D02*
X124162541Y-130158100D01*
X145423482Y-39444861D02*
X144905431Y-38926810D01*
X118211600Y-99923600D02*
X118211600Y-100711000D01*
X124162541Y-128567459D02*
X127239990Y-125490010D01*
%TO.N,Net-(D10-A)*%
X110757392Y-93436449D02*
X111997392Y-92196449D01*
X135823482Y-97206061D02*
X135227431Y-96610010D01*
X133807200Y-95189779D02*
X133807200Y-87579200D01*
X135823482Y-102033959D02*
X135823482Y-97206061D01*
X99417392Y-112426449D02*
X100657392Y-111186449D01*
X125877392Y-68116449D02*
X125877392Y-73206449D01*
X128314229Y-82086229D02*
X121647171Y-82086229D01*
X110757392Y-98526449D02*
X110757392Y-93436449D01*
X133807200Y-87579200D02*
X128314229Y-82086229D01*
X119557392Y-79996449D02*
X119557392Y-79536449D01*
X135227431Y-96610010D02*
X133807200Y-95189779D01*
X127117392Y-66876449D02*
X125877392Y-68116449D01*
X99417392Y-117516449D02*
X99417392Y-112426449D01*
X121647171Y-82086229D02*
X119557392Y-79996449D01*
%TO.N,Net-(D51-K)*%
X136826743Y-54216449D02*
X130897392Y-60145800D01*
X93097392Y-122573657D02*
X94665449Y-121005600D01*
X93097392Y-123846449D02*
X93097392Y-122573657D01*
X105410000Y-116001800D02*
X105410000Y-111506000D01*
X129657392Y-61786449D02*
X130897392Y-60546449D01*
X130897392Y-60145800D02*
X130897392Y-60546449D01*
X129657392Y-66876449D02*
X129657392Y-72872600D01*
X129657392Y-66876449D02*
X129657392Y-61786449D01*
X112776000Y-104140000D02*
X112776000Y-96520000D01*
X137217392Y-54216449D02*
X136826743Y-54216449D01*
X93097392Y-123894808D02*
X91468592Y-125523608D01*
X100406200Y-121005600D02*
X105410000Y-116001800D01*
X137627431Y-80842639D02*
X129657392Y-72872600D01*
X112776000Y-96520000D02*
X114477800Y-94818200D01*
X138457392Y-47886449D02*
X137217392Y-49126449D01*
X137627431Y-82170010D02*
X137627431Y-80842639D01*
X137217392Y-49126449D02*
X137217392Y-54216449D01*
X105410000Y-111506000D02*
X112776000Y-104140000D01*
X93097392Y-123846449D02*
X93097392Y-123894808D01*
X94665449Y-121005600D02*
X100406200Y-121005600D01*
X91468592Y-125523608D02*
X91468592Y-129262049D01*
%TO.N,Net-(D49-K)*%
X105624592Y-122746808D02*
X105624592Y-129262049D01*
X114427000Y-105206800D02*
X114427000Y-98171000D01*
X133899751Y-79536449D02*
X122097392Y-79536449D01*
X107200700Y-119761000D02*
X107200700Y-121170700D01*
X116179600Y-96418400D02*
X116255800Y-96418400D01*
X97010441Y-131318000D02*
X96750541Y-131058100D01*
X107200700Y-121170700D02*
X105624592Y-122746808D01*
X140623482Y-73153959D02*
X140623482Y-68326061D01*
X107200700Y-118198900D02*
X107200700Y-112433100D01*
X122097392Y-79536449D02*
X122097392Y-74446449D01*
X122097392Y-74446449D02*
X123337392Y-73206449D01*
X107200700Y-118198900D02*
X107200700Y-119761000D01*
X133959600Y-79476600D02*
X133899751Y-79536449D01*
X118541800Y-94310200D02*
X127520700Y-85331300D01*
X140623482Y-68326061D02*
X140027431Y-67730010D01*
X114427000Y-98171000D02*
X116179600Y-96418400D01*
X107200700Y-112433100D02*
X114427000Y-105206800D01*
%TO.N,Net-(D1-A)*%
X141823482Y-61106061D02*
X141227431Y-60510010D01*
X140323482Y-82739318D02*
X140323482Y-81273959D01*
X136427431Y-86635369D02*
X140323482Y-82739318D01*
X131627431Y-118270010D02*
X133774190Y-118270010D01*
X136427431Y-89390010D02*
X136427431Y-86635369D01*
X135229600Y-116814600D02*
X135229600Y-109860077D01*
X134623482Y-109253959D02*
X134623482Y-104426061D01*
X141823482Y-65933959D02*
X141823482Y-61106061D01*
X135229600Y-109860077D02*
X134623482Y-109253959D01*
X140323482Y-81273959D02*
X139423482Y-80373959D01*
X146812000Y-37241277D02*
X146701482Y-37130759D01*
X133774190Y-118270010D02*
X135229600Y-116814600D01*
X134623482Y-104426061D02*
X134027431Y-103830010D01*
%TO.N,Net-(D3-K)*%
X119780592Y-129262049D02*
X115873351Y-129262049D01*
X117411500Y-97777300D02*
X116230400Y-98958400D01*
X115777392Y-85866449D02*
X115777392Y-90956449D01*
X115873351Y-129262049D02*
X114000559Y-131134841D01*
X142427431Y-53290010D02*
X142427431Y-58117908D01*
X108953300Y-129104858D02*
X110906541Y-131058100D01*
X114000559Y-131134841D02*
X110983282Y-131134841D01*
X115777392Y-90956449D02*
X114537392Y-92196449D01*
X118329049Y-82042000D02*
X115777392Y-84593657D01*
X114537392Y-92196449D02*
X117411500Y-95070558D01*
X115777392Y-84593657D02*
X115777392Y-85866449D01*
X142427431Y-58117908D02*
X143023482Y-58713959D01*
X116230400Y-98958400D02*
X116141500Y-98958400D01*
X116141500Y-105981500D02*
X108953300Y-113169700D01*
X108953300Y-113169700D02*
X108953300Y-129104858D01*
X116141500Y-98958400D02*
X116141500Y-105981500D01*
X111166441Y-131318000D02*
X110906541Y-131058100D01*
X117411500Y-95070558D02*
X117411500Y-97777300D01*
X110983282Y-131134841D02*
X110906541Y-131058100D01*
%TO.N,/PB3*%
X117944900Y-108610400D02*
X120154700Y-110820200D01*
X120154700Y-110820200D02*
X120154700Y-114719100D01*
X121818400Y-116382800D02*
X121818400Y-120343520D01*
X120154700Y-114719100D02*
X121818400Y-116382800D01*
X121818400Y-120343520D02*
X122403440Y-120928560D01*
%TO.N,+5V*%
X120446800Y-102870000D02*
X120446800Y-100380800D01*
X120446800Y-100380800D02*
X122656600Y-98171000D01*
%TO.N,/PB4*%
X114858800Y-111734600D02*
X120192800Y-117068600D01*
X120192800Y-117068600D02*
X120192800Y-121546346D01*
X120192800Y-121546346D02*
X120989227Y-122342773D01*
%TO.N,/PB5*%
X118795800Y-122977774D02*
X119575013Y-123756987D01*
X118795800Y-118262400D02*
X118795800Y-122977774D01*
X114401600Y-113868200D02*
X118795800Y-118262400D01*
%TO.N,/PB6*%
X117525800Y-124536200D02*
X118160800Y-125171200D01*
X112560100Y-114490500D02*
X117525800Y-119456200D01*
X117525800Y-119456200D02*
X117525800Y-124536200D01*
%TO.N,/PB7*%
X110569873Y-115617127D02*
X115789573Y-120836827D01*
%TD*%
%TA.AperFunction,Conductor*%
%TO.N,GND1*%
G36*
X132162721Y-89215385D02*
G01*
X132183358Y-89232014D01*
X132243058Y-89291714D01*
X132243059Y-89291715D01*
X132357782Y-89368371D01*
X132357795Y-89368378D01*
X132485267Y-89421178D01*
X132485272Y-89421180D01*
X132485276Y-89421180D01*
X132485277Y-89421181D01*
X132620604Y-89448100D01*
X132620607Y-89448100D01*
X132758595Y-89448100D01*
X132849884Y-89429941D01*
X132893928Y-89421180D01*
X133021411Y-89368375D01*
X133021416Y-89368371D01*
X133024239Y-89366863D01*
X133025895Y-89366517D01*
X133027040Y-89366044D01*
X133027129Y-89366260D01*
X133092641Y-89352616D01*
X133157887Y-89377612D01*
X133199261Y-89433914D01*
X133206700Y-89476217D01*
X133206700Y-95103109D01*
X133206699Y-95103127D01*
X133206699Y-95268833D01*
X133206698Y-95268833D01*
X133247623Y-95421564D01*
X133257848Y-95439274D01*
X133326677Y-95558491D01*
X133326681Y-95558496D01*
X133445549Y-95677364D01*
X133445555Y-95677369D01*
X133795540Y-96027354D01*
X133829025Y-96088677D01*
X133824041Y-96158369D01*
X133795541Y-96202715D01*
X133679822Y-96318436D01*
X133649153Y-96349105D01*
X133593343Y-96425918D01*
X133554139Y-96546575D01*
X133554139Y-96546577D01*
X133554139Y-96673443D01*
X133593343Y-96794100D01*
X133593344Y-96794101D01*
X133649151Y-96870915D01*
X133649153Y-96870917D01*
X134966518Y-98188281D01*
X134966521Y-98188284D01*
X135022335Y-98228835D01*
X135043341Y-98244098D01*
X135137300Y-98274627D01*
X135194976Y-98314064D01*
X135222174Y-98378423D01*
X135222982Y-98392558D01*
X135222982Y-100804356D01*
X135203297Y-100871395D01*
X135155282Y-100914838D01*
X135141871Y-100921671D01*
X134976268Y-101041987D01*
X134831510Y-101186745D01*
X134711197Y-101352345D01*
X134618263Y-101534735D01*
X134555004Y-101729424D01*
X134522982Y-101931607D01*
X134522982Y-102136310D01*
X134529161Y-102175323D01*
X134520206Y-102244617D01*
X134475210Y-102298069D01*
X134408459Y-102318708D01*
X134341145Y-102299983D01*
X134319007Y-102282402D01*
X134288340Y-102251735D01*
X134211522Y-102195922D01*
X134090865Y-102156718D01*
X134090864Y-102156718D01*
X133963998Y-102156718D01*
X133963996Y-102156718D01*
X133843341Y-102195922D01*
X133843339Y-102195923D01*
X133766525Y-102251730D01*
X133766523Y-102251732D01*
X132449159Y-103569097D01*
X132449156Y-103569100D01*
X132393343Y-103645918D01*
X132354139Y-103766575D01*
X132354139Y-103766577D01*
X132354139Y-103893443D01*
X132393343Y-104014100D01*
X132393344Y-104014101D01*
X132449151Y-104090915D01*
X132449153Y-104090917D01*
X133766518Y-105408281D01*
X133766521Y-105408284D01*
X133808225Y-105438584D01*
X133843341Y-105464098D01*
X133937300Y-105494627D01*
X133994976Y-105534064D01*
X134022174Y-105598423D01*
X134022982Y-105612558D01*
X134022982Y-108024356D01*
X134003297Y-108091395D01*
X133955282Y-108134838D01*
X133941871Y-108141671D01*
X133776268Y-108261987D01*
X133631510Y-108406745D01*
X133511197Y-108572345D01*
X133418263Y-108754735D01*
X133355004Y-108949424D01*
X133322982Y-109151607D01*
X133322982Y-109356310D01*
X133329161Y-109395323D01*
X133320206Y-109464617D01*
X133275210Y-109518069D01*
X133208459Y-109538708D01*
X133141145Y-109519983D01*
X133119007Y-109502402D01*
X133088340Y-109471735D01*
X133011522Y-109415922D01*
X132890865Y-109376718D01*
X132890864Y-109376718D01*
X132763998Y-109376718D01*
X132763996Y-109376718D01*
X132643341Y-109415922D01*
X132643339Y-109415923D01*
X132566525Y-109471730D01*
X132566523Y-109471732D01*
X131249159Y-110789097D01*
X131249156Y-110789100D01*
X131193343Y-110865918D01*
X131154139Y-110986575D01*
X131154139Y-111113444D01*
X131154263Y-111113825D01*
X131193343Y-111234100D01*
X131193344Y-111234101D01*
X131249151Y-111310915D01*
X131249153Y-111310917D01*
X132566518Y-112628281D01*
X132566521Y-112628284D01*
X132643339Y-112684097D01*
X132643340Y-112684097D01*
X132643341Y-112684098D01*
X132763998Y-112723302D01*
X132763999Y-112723302D01*
X132890863Y-112723302D01*
X132890864Y-112723302D01*
X133011521Y-112684098D01*
X133088340Y-112628286D01*
X134405705Y-111310919D01*
X134405707Y-111310915D01*
X134408869Y-111307215D01*
X134409992Y-111308174D01*
X134460103Y-111269527D01*
X134529716Y-111263543D01*
X134591513Y-111296144D01*
X134625875Y-111356980D01*
X134629100Y-111385075D01*
X134629100Y-115541030D01*
X134609415Y-115608069D01*
X134556611Y-115653824D01*
X134487453Y-115663768D01*
X134423897Y-115634743D01*
X134417419Y-115628711D01*
X134270695Y-115481987D01*
X134105095Y-115361674D01*
X134105094Y-115361673D01*
X134105092Y-115361672D01*
X134048135Y-115332650D01*
X133922705Y-115268740D01*
X133728016Y-115205481D01*
X133553477Y-115177837D01*
X133525834Y-115173459D01*
X133321130Y-115173459D01*
X133296811Y-115177310D01*
X133118947Y-115205481D01*
X132924258Y-115268740D01*
X132741868Y-115361674D01*
X132576268Y-115481987D01*
X132431510Y-115626745D01*
X132311197Y-115792345D01*
X132218263Y-115974735D01*
X132155004Y-116169424D01*
X132133730Y-116303745D01*
X132122982Y-116371607D01*
X132122982Y-116576311D01*
X132124160Y-116583749D01*
X132129161Y-116615323D01*
X132120206Y-116684617D01*
X132075210Y-116738069D01*
X132008459Y-116758708D01*
X131941145Y-116739983D01*
X131919007Y-116722402D01*
X131888340Y-116691735D01*
X131811522Y-116635922D01*
X131690865Y-116596718D01*
X131690864Y-116596718D01*
X131563998Y-116596718D01*
X131563996Y-116596718D01*
X131443341Y-116635922D01*
X131443339Y-116635923D01*
X131366525Y-116691730D01*
X131366523Y-116691732D01*
X130049159Y-118009097D01*
X130049156Y-118009100D01*
X129987606Y-118093816D01*
X129986261Y-118092838D01*
X129946009Y-118135457D01*
X129878187Y-118152251D01*
X129812053Y-118129712D01*
X129768602Y-118074997D01*
X129759500Y-118028365D01*
X129759500Y-114465260D01*
X129759501Y-114465247D01*
X129759501Y-114297144D01*
X129758124Y-114292005D01*
X129718577Y-114144416D01*
X129677073Y-114072528D01*
X129639524Y-114007490D01*
X129639518Y-114007482D01*
X118848419Y-103216383D01*
X118814934Y-103155060D01*
X118812100Y-103128702D01*
X118812100Y-102938995D01*
X119746299Y-102938995D01*
X119773218Y-103074322D01*
X119773221Y-103074332D01*
X119826021Y-103201804D01*
X119826028Y-103201817D01*
X119902685Y-103316541D01*
X119902688Y-103316545D01*
X120000254Y-103414111D01*
X120000258Y-103414114D01*
X120114982Y-103490771D01*
X120114995Y-103490778D01*
X120230053Y-103538436D01*
X120242472Y-103543580D01*
X120242476Y-103543580D01*
X120242477Y-103543581D01*
X120377804Y-103570500D01*
X120377807Y-103570500D01*
X120515795Y-103570500D01*
X120606841Y-103552389D01*
X120651128Y-103543580D01*
X120778611Y-103490775D01*
X120893342Y-103414114D01*
X120990914Y-103316542D01*
X121067575Y-103201811D01*
X121120380Y-103074328D01*
X121147300Y-102938993D01*
X121147300Y-102801007D01*
X121147300Y-102801004D01*
X121120381Y-102665677D01*
X121120380Y-102665676D01*
X121120380Y-102665672D01*
X121106441Y-102632020D01*
X121067576Y-102538190D01*
X121064705Y-102532819D01*
X121066005Y-102532123D01*
X121047320Y-102472438D01*
X121047300Y-102470230D01*
X121047300Y-100680896D01*
X121066985Y-100613857D01*
X121083614Y-100593220D01*
X122798538Y-98878295D01*
X122855382Y-98847256D01*
X122855106Y-98846346D01*
X122859477Y-98845020D01*
X122859859Y-98844812D01*
X122860834Y-98844608D01*
X122860925Y-98844580D01*
X122860928Y-98844580D01*
X122988411Y-98791775D01*
X123103142Y-98715114D01*
X123200714Y-98617542D01*
X123277375Y-98502811D01*
X123330180Y-98375328D01*
X123355098Y-98250057D01*
X123357100Y-98239995D01*
X123357100Y-98102004D01*
X123330181Y-97966677D01*
X123330180Y-97966676D01*
X123330180Y-97966672D01*
X123288408Y-97865824D01*
X123277378Y-97839195D01*
X123277371Y-97839182D01*
X123200714Y-97724458D01*
X123200711Y-97724454D01*
X123103145Y-97626888D01*
X123103141Y-97626885D01*
X122988417Y-97550228D01*
X122988404Y-97550221D01*
X122860932Y-97497421D01*
X122860922Y-97497418D01*
X122725595Y-97470500D01*
X122725593Y-97470500D01*
X122587607Y-97470500D01*
X122587605Y-97470500D01*
X122452277Y-97497418D01*
X122452267Y-97497421D01*
X122324795Y-97550221D01*
X122324782Y-97550228D01*
X122210058Y-97626885D01*
X122210054Y-97626888D01*
X122112488Y-97724454D01*
X122112485Y-97724458D01*
X122035828Y-97839182D01*
X122035821Y-97839195D01*
X121983020Y-97966669D01*
X121981250Y-97972506D01*
X121979836Y-97972077D01*
X121950848Y-98027488D01*
X121949302Y-98029061D01*
X120078086Y-99900278D01*
X119966281Y-100012082D01*
X119966275Y-100012090D01*
X119921166Y-100090223D01*
X119921166Y-100090224D01*
X119887223Y-100149014D01*
X119887223Y-100149015D01*
X119846299Y-100301743D01*
X119846299Y-100301745D01*
X119846299Y-100469846D01*
X119846300Y-100469859D01*
X119846300Y-102470230D01*
X119828053Y-102532369D01*
X119828895Y-102532819D01*
X119826735Y-102536859D01*
X119826615Y-102537269D01*
X119826078Y-102538087D01*
X119826023Y-102538190D01*
X119773221Y-102665667D01*
X119773218Y-102665677D01*
X119746300Y-102801004D01*
X119746300Y-102801007D01*
X119746300Y-102938993D01*
X119746300Y-102938995D01*
X119746299Y-102938995D01*
X118812100Y-102938995D01*
X118812100Y-101110769D01*
X118830346Y-101048627D01*
X118829506Y-101048178D01*
X118831664Y-101044140D01*
X118831785Y-101043730D01*
X118832321Y-101042910D01*
X118832371Y-101042816D01*
X118832375Y-101042811D01*
X118885180Y-100915328D01*
X118912100Y-100779993D01*
X118912100Y-100642007D01*
X118912100Y-100642004D01*
X118885181Y-100506677D01*
X118885180Y-100506676D01*
X118885180Y-100506672D01*
X118865789Y-100459857D01*
X118832376Y-100379190D01*
X118829505Y-100373819D01*
X118830805Y-100373123D01*
X118827346Y-100362072D01*
X118817123Y-100346165D01*
X118812670Y-100315195D01*
X118812120Y-100313438D01*
X118812100Y-100311230D01*
X118812100Y-100223697D01*
X118831785Y-100156658D01*
X118848419Y-100136016D01*
X129752416Y-89232019D01*
X129813739Y-89198534D01*
X129840097Y-89195700D01*
X132095682Y-89195700D01*
X132162721Y-89215385D01*
G37*
%TD.AperFunction*%
%TA.AperFunction,Conductor*%
G36*
X146132868Y-33616713D02*
G01*
X146144313Y-33617591D01*
X146537810Y-33666267D01*
X146549126Y-33668203D01*
X146936418Y-33753151D01*
X146947521Y-33756133D01*
X147325238Y-33876612D01*
X147336020Y-33880610D01*
X147700965Y-34035600D01*
X147711320Y-34040577D01*
X148060308Y-34228726D01*
X148070171Y-34234650D01*
X148178468Y-34306739D01*
X148400208Y-34454341D01*
X148409480Y-34461155D01*
X148690353Y-34688355D01*
X148717726Y-34710497D01*
X148726328Y-34718142D01*
X149010131Y-34994991D01*
X149017987Y-35003401D01*
X149274895Y-35305363D01*
X149281938Y-35314465D01*
X149509747Y-35638948D01*
X149515916Y-35648665D01*
X149712661Y-35992878D01*
X149717902Y-36003123D01*
X149881884Y-36364083D01*
X149886153Y-36374771D01*
X150015967Y-36749390D01*
X150019222Y-36760412D01*
X150085012Y-37028407D01*
X150113745Y-37145453D01*
X150115967Y-37156744D01*
X150174386Y-37548899D01*
X150175551Y-37560349D01*
X150197358Y-37956210D01*
X150197457Y-37967719D01*
X150182469Y-38363900D01*
X150181501Y-38375367D01*
X150129679Y-38769729D01*
X150129672Y-38769789D01*
X150129097Y-38774170D01*
X150117489Y-38839032D01*
X150119659Y-38864588D01*
X150118418Y-38876338D01*
X150117663Y-38878168D01*
X150117456Y-38883459D01*
X136551859Y-121263307D01*
X136548783Y-121277058D01*
X136548173Y-121279203D01*
X136539359Y-121339105D01*
X136539028Y-121341223D01*
X136538252Y-121345930D01*
X136537737Y-121348842D01*
X136475439Y-121677662D01*
X136473129Y-121687599D01*
X136384169Y-122009616D01*
X136381050Y-122019329D01*
X136265925Y-122332935D01*
X136262019Y-122342359D01*
X136121498Y-122645457D01*
X136116830Y-122654528D01*
X135951870Y-122945048D01*
X135946472Y-122953704D01*
X135758200Y-123229669D01*
X135752109Y-123237853D01*
X135548224Y-123489465D01*
X135539803Y-123498840D01*
X125967502Y-133123439D01*
X125962714Y-133128003D01*
X125704399Y-133361404D01*
X125696145Y-133368238D01*
X125419909Y-133577507D01*
X125411095Y-133583603D01*
X125117813Y-133768244D01*
X125108507Y-133773556D01*
X124800378Y-133932187D01*
X124790647Y-133936675D01*
X124469990Y-134068103D01*
X124459908Y-134071735D01*
X124129091Y-134174990D01*
X124118733Y-134177738D01*
X123780231Y-134252045D01*
X123769675Y-134253888D01*
X123426029Y-134298692D01*
X123415353Y-134299617D01*
X123067290Y-134314661D01*
X123061971Y-134314777D01*
X90605432Y-134324127D01*
X90605427Y-134324127D01*
X90597141Y-134324128D01*
X90596954Y-134324079D01*
X90536286Y-134324143D01*
X90533973Y-134324144D01*
X90533942Y-134324145D01*
X90533940Y-134324144D01*
X90533842Y-134324145D01*
X90533833Y-134324142D01*
X90528193Y-134324018D01*
X90150238Y-134306877D01*
X90138788Y-134305824D01*
X89766907Y-134254144D01*
X89755603Y-134252035D01*
X89390103Y-134166128D01*
X89379044Y-134162981D01*
X89023073Y-134043589D01*
X89012353Y-134039431D01*
X88668975Y-133887580D01*
X88658686Y-133882447D01*
X88330846Y-133699441D01*
X88321077Y-133693377D01*
X88011603Y-133480793D01*
X88002437Y-133473850D01*
X87871796Y-133365001D01*
X87713977Y-133233506D01*
X87705498Y-133225748D01*
X87440551Y-132959728D01*
X87432823Y-132951214D01*
X87193648Y-132661787D01*
X87186742Y-132652593D01*
X86975405Y-132342256D01*
X86969381Y-132332462D01*
X86813237Y-132050071D01*
X86787702Y-132003890D01*
X86782612Y-131993582D01*
X86744005Y-131905319D01*
X86632141Y-131649577D01*
X86628039Y-131638873D01*
X86510075Y-131282390D01*
X86506982Y-131271351D01*
X86434147Y-130955748D01*
X88372041Y-130955748D01*
X88372041Y-131160451D01*
X88404063Y-131362634D01*
X88467322Y-131557323D01*
X88518925Y-131658597D01*
X88558028Y-131735342D01*
X88560256Y-131739713D01*
X88680569Y-131905313D01*
X88825327Y-132050071D01*
X88980290Y-132162656D01*
X88990931Y-132170387D01*
X89107148Y-132229603D01*
X89173317Y-132263318D01*
X89173319Y-132263318D01*
X89173322Y-132263320D01*
X89277678Y-132297227D01*
X89368006Y-132326577D01*
X89436996Y-132337504D01*
X89570189Y-132358600D01*
X89570190Y-132358600D01*
X89774892Y-132358600D01*
X89774893Y-132358600D01*
X89977075Y-132326577D01*
X90171760Y-132263320D01*
X90354151Y-132170387D01*
X90447131Y-132102832D01*
X90519754Y-132050071D01*
X90519756Y-132050068D01*
X90519760Y-132050066D01*
X90664507Y-131905319D01*
X90664509Y-131905315D01*
X90664512Y-131905313D01*
X90750865Y-131786456D01*
X90784828Y-131739710D01*
X90877761Y-131557319D01*
X90941018Y-131362634D01*
X90973041Y-131160452D01*
X90973041Y-130955748D01*
X90966861Y-130916732D01*
X90975815Y-130847443D01*
X91020810Y-130793991D01*
X91087561Y-130773350D01*
X91154875Y-130792074D01*
X91177015Y-130809656D01*
X91207682Y-130840323D01*
X91284500Y-130896136D01*
X91284501Y-130896136D01*
X91284502Y-130896137D01*
X91405159Y-130935341D01*
X91405160Y-130935341D01*
X91532024Y-130935341D01*
X91532025Y-130935341D01*
X91652682Y-130896137D01*
X91729501Y-130840325D01*
X93046866Y-129522958D01*
X93102680Y-129446139D01*
X93141884Y-129325482D01*
X93141884Y-129198616D01*
X93102680Y-129077959D01*
X93080355Y-129047231D01*
X93046871Y-129001143D01*
X92105411Y-128059683D01*
X92071926Y-127998360D01*
X92069092Y-127972002D01*
X92069092Y-125823704D01*
X92088777Y-125756665D01*
X92105407Y-125736027D01*
X92281759Y-125559675D01*
X99176100Y-125559675D01*
X99176100Y-127322717D01*
X99186892Y-127390857D01*
X99190954Y-127416504D01*
X99248550Y-127529542D01*
X99248552Y-127529544D01*
X99248554Y-127529547D01*
X99338252Y-127619245D01*
X99338254Y-127619246D01*
X99338258Y-127619250D01*
X99451294Y-127676845D01*
X99451298Y-127676847D01*
X99545075Y-127691699D01*
X99545081Y-127691700D01*
X101308118Y-127691699D01*
X101401904Y-127676846D01*
X101514942Y-127619250D01*
X101604650Y-127529542D01*
X101662246Y-127416504D01*
X101677100Y-127322719D01*
X101677099Y-127307932D01*
X101680871Y-127292995D01*
X101691099Y-127275652D01*
X101696768Y-127256331D01*
X101708487Y-127246171D01*
X101716366Y-127232813D01*
X101734347Y-127223753D01*
X101749561Y-127210564D01*
X101766452Y-127207576D01*
X101778763Y-127201374D01*
X101793051Y-127202872D01*
X101810830Y-127199728D01*
X101851329Y-127202915D01*
X102483637Y-126570608D01*
X102500675Y-126634193D01*
X102566501Y-126748207D01*
X102659593Y-126841299D01*
X102773607Y-126907125D01*
X102837190Y-126924162D01*
X102204882Y-127556469D01*
X102204882Y-127556470D01*
X102259049Y-127595824D01*
X102448382Y-127692295D01*
X102650470Y-127757957D01*
X102860354Y-127791200D01*
X103072846Y-127791200D01*
X103282727Y-127757957D01*
X103282730Y-127757957D01*
X103484817Y-127692295D01*
X103674154Y-127595822D01*
X103728316Y-127556470D01*
X103728317Y-127556470D01*
X103096008Y-126924162D01*
X103159593Y-126907125D01*
X103273607Y-126841299D01*
X103366699Y-126748207D01*
X103432525Y-126634193D01*
X103449562Y-126570608D01*
X104081870Y-127202917D01*
X104081870Y-127202916D01*
X104121222Y-127148754D01*
X104217695Y-126959417D01*
X104283357Y-126757330D01*
X104283357Y-126757327D01*
X104316600Y-126547446D01*
X104316600Y-126334953D01*
X104283357Y-126125072D01*
X104283357Y-126125069D01*
X104217695Y-125922982D01*
X104121224Y-125733649D01*
X104081870Y-125679482D01*
X104081869Y-125679482D01*
X103449562Y-126311790D01*
X103432525Y-126248207D01*
X103366699Y-126134193D01*
X103273607Y-126041101D01*
X103159593Y-125975275D01*
X103096009Y-125958237D01*
X103728316Y-125325928D01*
X103674150Y-125286575D01*
X103484817Y-125190104D01*
X103282729Y-125124442D01*
X103072846Y-125091200D01*
X102860354Y-125091200D01*
X102650472Y-125124442D01*
X102650469Y-125124442D01*
X102448382Y-125190104D01*
X102259039Y-125286580D01*
X102204882Y-125325927D01*
X102204882Y-125325928D01*
X102837191Y-125958237D01*
X102773607Y-125975275D01*
X102659593Y-126041101D01*
X102566501Y-126134193D01*
X102500675Y-126248207D01*
X102483637Y-126311791D01*
X101851328Y-125679482D01*
X101810829Y-125682670D01*
X101742451Y-125668306D01*
X101692694Y-125619255D01*
X101680871Y-125589404D01*
X101677099Y-125574462D01*
X101677099Y-125559682D01*
X101662246Y-125465896D01*
X101604650Y-125352858D01*
X101604648Y-125352856D01*
X101604645Y-125352852D01*
X101514947Y-125263154D01*
X101514944Y-125263152D01*
X101514942Y-125263150D01*
X101438117Y-125224005D01*
X101401901Y-125205552D01*
X101308124Y-125190700D01*
X99545082Y-125190700D01*
X99464119Y-125203523D01*
X99451296Y-125205554D01*
X99338258Y-125263150D01*
X99338257Y-125263151D01*
X99338252Y-125263154D01*
X99248554Y-125352852D01*
X99248552Y-125352856D01*
X99248550Y-125352858D01*
X99242048Y-125365619D01*
X99190952Y-125465898D01*
X99176100Y-125559675D01*
X92281759Y-125559675D01*
X92690906Y-125150527D01*
X92752227Y-125117044D01*
X92797979Y-125115737D01*
X92995040Y-125146949D01*
X92995042Y-125146949D01*
X93199743Y-125146949D01*
X93199744Y-125146949D01*
X93401926Y-125114926D01*
X93596611Y-125051669D01*
X93779002Y-124958736D01*
X93908327Y-124864777D01*
X93944605Y-124838420D01*
X93944607Y-124838417D01*
X93944611Y-124838415D01*
X94089358Y-124693668D01*
X94112572Y-124661715D01*
X94167900Y-124619048D01*
X94237513Y-124613067D01*
X94299310Y-124645671D01*
X94333669Y-124706509D01*
X94336892Y-124734595D01*
X94336892Y-124777965D01*
X94341783Y-124808844D01*
X94351746Y-124871753D01*
X94409342Y-124984791D01*
X94409344Y-124984793D01*
X94409346Y-124984796D01*
X94499044Y-125074494D01*
X94499046Y-125074495D01*
X94499050Y-125074499D01*
X94598774Y-125125311D01*
X94612090Y-125132096D01*
X94705867Y-125146948D01*
X94705873Y-125146949D01*
X96568910Y-125146948D01*
X96662696Y-125132095D01*
X96775734Y-125074499D01*
X96865442Y-124984791D01*
X96923038Y-124871753D01*
X96923038Y-124871751D01*
X96923039Y-124871750D01*
X96937891Y-124777973D01*
X96937892Y-124777968D01*
X96937891Y-122914931D01*
X96923038Y-122821145D01*
X96865442Y-122708107D01*
X96865438Y-122708103D01*
X96865437Y-122708101D01*
X96775739Y-122618403D01*
X96775736Y-122618401D01*
X96775734Y-122618399D01*
X96698909Y-122579254D01*
X96662693Y-122560801D01*
X96568916Y-122545949D01*
X94705874Y-122545949D01*
X94624911Y-122558772D01*
X94612088Y-122560803D01*
X94499050Y-122618399D01*
X94499049Y-122618400D01*
X94499044Y-122618403D01*
X94409346Y-122708101D01*
X94409343Y-122708106D01*
X94351744Y-122821147D01*
X94336892Y-122914924D01*
X94336892Y-122958298D01*
X94317207Y-123025337D01*
X94264403Y-123071092D01*
X94195245Y-123081036D01*
X94131689Y-123052011D01*
X94112574Y-123031183D01*
X94089363Y-122999235D01*
X93944612Y-122854484D01*
X93944602Y-122854477D01*
X93918970Y-122835854D01*
X93900582Y-122822494D01*
X93857917Y-122767163D01*
X93851938Y-122697550D01*
X93884544Y-122635755D01*
X93885707Y-122634575D01*
X94877865Y-121642419D01*
X94939188Y-121608934D01*
X94965546Y-121606100D01*
X100319531Y-121606100D01*
X100319547Y-121606101D01*
X100327143Y-121606101D01*
X100485254Y-121606101D01*
X100485257Y-121606101D01*
X100637985Y-121565177D01*
X100688104Y-121536239D01*
X100774916Y-121486120D01*
X100886720Y-121374316D01*
X100886720Y-121374314D01*
X100896928Y-121364107D01*
X100896930Y-121364104D01*
X105768506Y-116492528D01*
X105768511Y-116492524D01*
X105778714Y-116482320D01*
X105778716Y-116482320D01*
X105890520Y-116370516D01*
X105947386Y-116272020D01*
X105969577Y-116233585D01*
X106010501Y-116080857D01*
X106010501Y-115922743D01*
X106010501Y-115915148D01*
X106010500Y-115915130D01*
X106010500Y-111806096D01*
X106030185Y-111739057D01*
X106046814Y-111718420D01*
X113144713Y-104620521D01*
X113144716Y-104620520D01*
X113256520Y-104508716D01*
X113306639Y-104421904D01*
X113335577Y-104371785D01*
X113376500Y-104219057D01*
X113376500Y-104060943D01*
X113376500Y-96820097D01*
X113396185Y-96753058D01*
X113412819Y-96732416D01*
X114013748Y-96131487D01*
X114619739Y-95525495D01*
X114676572Y-95494462D01*
X114676295Y-95493549D01*
X114680683Y-95492217D01*
X114681060Y-95492012D01*
X114682022Y-95491811D01*
X114682117Y-95491782D01*
X114682128Y-95491780D01*
X114809611Y-95438975D01*
X114924342Y-95362314D01*
X115021914Y-95264742D01*
X115098575Y-95150011D01*
X115151380Y-95022528D01*
X115169592Y-94930971D01*
X115178300Y-94887195D01*
X115178300Y-94749204D01*
X115151381Y-94613877D01*
X115151380Y-94613876D01*
X115151380Y-94613872D01*
X115110231Y-94514528D01*
X115098578Y-94486395D01*
X115098571Y-94486382D01*
X115021914Y-94371658D01*
X115021911Y-94371654D01*
X114924345Y-94274088D01*
X114924341Y-94274085D01*
X114809617Y-94197428D01*
X114809604Y-94197421D01*
X114682132Y-94144621D01*
X114682122Y-94144618D01*
X114546795Y-94117700D01*
X114546793Y-94117700D01*
X114408807Y-94117700D01*
X114408805Y-94117700D01*
X114273477Y-94144618D01*
X114273467Y-94144621D01*
X114145995Y-94197421D01*
X114145982Y-94197428D01*
X114031258Y-94274085D01*
X114031254Y-94274088D01*
X113933688Y-94371654D01*
X113933685Y-94371658D01*
X113857028Y-94486382D01*
X113857021Y-94486395D01*
X113804221Y-94613867D01*
X113802453Y-94619698D01*
X113801041Y-94619269D01*
X113772046Y-94674689D01*
X113770503Y-94676259D01*
X112407286Y-96039478D01*
X112295481Y-96151282D01*
X112295479Y-96151285D01*
X112279709Y-96178599D01*
X112263939Y-96205915D01*
X112216423Y-96288215D01*
X112175499Y-96440943D01*
X112175499Y-96440945D01*
X112175499Y-96609046D01*
X112175500Y-96609059D01*
X112175500Y-97278802D01*
X112155815Y-97345841D01*
X112103011Y-97391596D01*
X112033853Y-97401540D01*
X111970297Y-97372515D01*
X111963819Y-97366483D01*
X111895739Y-97298403D01*
X111895736Y-97298401D01*
X111895734Y-97298399D01*
X111816390Y-97257971D01*
X111782693Y-97240801D01*
X111688916Y-97225949D01*
X111688911Y-97225949D01*
X111481892Y-97225949D01*
X111414853Y-97206264D01*
X111369098Y-97153460D01*
X111357892Y-97101949D01*
X111357892Y-93736545D01*
X111366536Y-93707104D01*
X111373060Y-93677118D01*
X111376814Y-93672102D01*
X111377577Y-93669506D01*
X111394207Y-93648868D01*
X111552549Y-93490525D01*
X111613872Y-93457041D01*
X111678546Y-93460275D01*
X111692858Y-93464926D01*
X111895040Y-93496949D01*
X111895041Y-93496949D01*
X112099743Y-93496949D01*
X112099744Y-93496949D01*
X112301926Y-93464926D01*
X112496611Y-93401669D01*
X112679002Y-93308736D01*
X112798728Y-93221751D01*
X112844605Y-93188420D01*
X112844607Y-93188417D01*
X112844611Y-93188415D01*
X112989358Y-93043668D01*
X113012572Y-93011715D01*
X113067900Y-92969048D01*
X113137513Y-92963067D01*
X113199310Y-92995671D01*
X113233669Y-93056509D01*
X113236892Y-93084595D01*
X113236892Y-93127965D01*
X113246466Y-93188415D01*
X113251746Y-93221753D01*
X113309342Y-93334791D01*
X113309344Y-93334793D01*
X113309346Y-93334796D01*
X113399044Y-93424494D01*
X113399046Y-93424495D01*
X113399050Y-93424499D01*
X113512088Y-93482095D01*
X113512090Y-93482096D01*
X113605867Y-93496948D01*
X113605873Y-93496949D01*
X114937293Y-93496948D01*
X115004332Y-93516633D01*
X115024974Y-93533267D01*
X116774681Y-95282973D01*
X116808166Y-95344296D01*
X116811000Y-95370654D01*
X116811000Y-95714900D01*
X116791315Y-95781939D01*
X116738511Y-95827694D01*
X116669353Y-95837638D01*
X116618110Y-95818003D01*
X116587615Y-95797627D01*
X116587604Y-95797621D01*
X116460132Y-95744821D01*
X116460122Y-95744818D01*
X116324795Y-95717900D01*
X116324793Y-95717900D01*
X116186807Y-95717900D01*
X116186805Y-95717900D01*
X116051477Y-95744818D01*
X116051467Y-95744821D01*
X115923995Y-95797621D01*
X115923982Y-95797628D01*
X115809258Y-95874285D01*
X115809254Y-95874288D01*
X115711688Y-95971854D01*
X115711685Y-95971858D01*
X115635028Y-96086582D01*
X115635020Y-96086597D01*
X115625264Y-96110151D01*
X115598385Y-96150378D01*
X114058286Y-97690478D01*
X113946481Y-97802282D01*
X113946480Y-97802284D01*
X113909796Y-97865823D01*
X113867423Y-97939215D01*
X113826499Y-98091943D01*
X113826499Y-98091945D01*
X113826499Y-98260046D01*
X113826500Y-98260059D01*
X113826500Y-104906702D01*
X113806815Y-104973741D01*
X113790181Y-104994383D01*
X106720181Y-112064382D01*
X106720179Y-112064385D01*
X106689245Y-112117966D01*
X106689244Y-112117968D01*
X106641123Y-112201314D01*
X106638326Y-112211753D01*
X106600199Y-112354043D01*
X106600199Y-112354045D01*
X106600199Y-112522146D01*
X106600200Y-112522159D01*
X106600200Y-120870602D01*
X106580515Y-120937641D01*
X106563881Y-120958283D01*
X105144073Y-122378090D01*
X105144069Y-122378095D01*
X105116713Y-122425480D01*
X105116712Y-122425482D01*
X105065015Y-122515023D01*
X105024091Y-122667751D01*
X105024091Y-122667753D01*
X105024091Y-122835854D01*
X105024092Y-122835867D01*
X105024092Y-127972002D01*
X105004407Y-128039041D01*
X104987773Y-128059683D01*
X104046317Y-129001140D01*
X104046315Y-129001142D01*
X103990504Y-129077957D01*
X103951300Y-129198614D01*
X103951300Y-129198616D01*
X103951300Y-129325482D01*
X103990504Y-129446139D01*
X103990505Y-129446140D01*
X104046310Y-129522951D01*
X104046313Y-129522954D01*
X104046316Y-129522958D01*
X104076984Y-129553626D01*
X104110468Y-129614945D01*
X104105484Y-129684637D01*
X104063614Y-129740571D01*
X103998150Y-129764989D01*
X103969907Y-129763779D01*
X103957078Y-129761747D01*
X103930893Y-129757600D01*
X103726189Y-129757600D01*
X103701870Y-129761451D01*
X103524006Y-129789622D01*
X103329317Y-129852881D01*
X103146927Y-129945815D01*
X102981327Y-130066128D01*
X102836569Y-130210886D01*
X102716256Y-130376485D01*
X102709424Y-130389895D01*
X102661450Y-130440691D01*
X102598939Y-130457600D01*
X100642741Y-130457600D01*
X100575702Y-130437915D01*
X100555060Y-130421281D01*
X99978482Y-129844703D01*
X99944997Y-129783380D01*
X99949981Y-129713688D01*
X99978479Y-129669343D01*
X100124866Y-129522958D01*
X100180680Y-129446139D01*
X100219884Y-129325482D01*
X100219884Y-129198616D01*
X100180680Y-129077959D01*
X100158355Y-129047231D01*
X100124871Y-129001143D01*
X100124869Y-129001141D01*
X98807504Y-127683777D01*
X98807501Y-127683774D01*
X98730683Y-127627961D01*
X98610026Y-127588757D01*
X98610025Y-127588757D01*
X98483159Y-127588757D01*
X98483157Y-127588757D01*
X98362502Y-127627961D01*
X98362500Y-127627962D01*
X98285686Y-127683769D01*
X98285684Y-127683771D01*
X96968320Y-129001136D01*
X96968317Y-129001139D01*
X96912504Y-129077957D01*
X96873300Y-129198614D01*
X96873300Y-129198616D01*
X96873300Y-129325482D01*
X96912504Y-129446139D01*
X96912505Y-129446140D01*
X96968310Y-129522951D01*
X96968313Y-129522954D01*
X96968316Y-129522958D01*
X96998984Y-129553626D01*
X97032468Y-129614945D01*
X97027484Y-129684637D01*
X96985614Y-129740571D01*
X96920150Y-129764989D01*
X96891907Y-129763779D01*
X96879078Y-129761747D01*
X96852893Y-129757600D01*
X96648189Y-129757600D01*
X96623870Y-129761451D01*
X96446006Y-129789622D01*
X96251317Y-129852881D01*
X96068927Y-129945815D01*
X95903327Y-130066128D01*
X95758569Y-130210886D01*
X95638256Y-130376486D01*
X95545322Y-130558876D01*
X95482063Y-130753565D01*
X95450041Y-130955748D01*
X95450041Y-131160451D01*
X95482063Y-131362634D01*
X95545322Y-131557323D01*
X95596925Y-131658597D01*
X95636028Y-131735342D01*
X95638256Y-131739713D01*
X95758569Y-131905313D01*
X95903327Y-132050071D01*
X96058290Y-132162656D01*
X96068931Y-132170387D01*
X96185148Y-132229603D01*
X96251317Y-132263318D01*
X96251319Y-132263318D01*
X96251322Y-132263320D01*
X96355678Y-132297227D01*
X96446006Y-132326577D01*
X96514996Y-132337504D01*
X96648189Y-132358600D01*
X96648190Y-132358600D01*
X96852892Y-132358600D01*
X96852893Y-132358600D01*
X97055075Y-132326577D01*
X97249760Y-132263320D01*
X97432151Y-132170387D01*
X97525131Y-132102832D01*
X97597754Y-132050071D01*
X97597756Y-132050068D01*
X97597760Y-132050066D01*
X97742507Y-131905319D01*
X97742509Y-131905315D01*
X97742512Y-131905313D01*
X97828865Y-131786456D01*
X97862828Y-131739710D01*
X97955761Y-131557319D01*
X98019018Y-131362634D01*
X98051041Y-131160452D01*
X98051041Y-130955748D01*
X98044861Y-130916732D01*
X98053815Y-130847443D01*
X98098810Y-130793991D01*
X98165561Y-130773350D01*
X98232875Y-130792074D01*
X98255015Y-130809656D01*
X98285682Y-130840323D01*
X98362500Y-130896136D01*
X98362501Y-130896136D01*
X98362502Y-130896137D01*
X98483159Y-130935341D01*
X98483160Y-130935341D01*
X98610024Y-130935341D01*
X98610025Y-130935341D01*
X98730682Y-130896137D01*
X98807501Y-130840325D01*
X98953887Y-130693938D01*
X99015207Y-130660455D01*
X99084899Y-130665439D01*
X99129247Y-130693940D01*
X99973927Y-131538620D01*
X99973929Y-131538621D01*
X99973933Y-131538624D01*
X100110852Y-131617673D01*
X100110859Y-131617677D01*
X100263586Y-131658601D01*
X100263588Y-131658601D01*
X100429297Y-131658601D01*
X100429313Y-131658600D01*
X102598939Y-131658600D01*
X102665978Y-131678285D01*
X102709424Y-131726305D01*
X102716256Y-131739714D01*
X102836569Y-131905313D01*
X102981327Y-132050071D01*
X103136290Y-132162656D01*
X103146931Y-132170387D01*
X103263148Y-132229603D01*
X103329317Y-132263318D01*
X103329319Y-132263318D01*
X103329322Y-132263320D01*
X103433678Y-132297227D01*
X103524006Y-132326577D01*
X103592996Y-132337504D01*
X103726189Y-132358600D01*
X103726190Y-132358600D01*
X103930892Y-132358600D01*
X103930893Y-132358600D01*
X104133075Y-132326577D01*
X104327760Y-132263320D01*
X104510151Y-132170387D01*
X104603131Y-132102832D01*
X104675754Y-132050071D01*
X104675756Y-132050068D01*
X104675760Y-132050066D01*
X104820507Y-131905319D01*
X104820509Y-131905315D01*
X104820512Y-131905313D01*
X104906865Y-131786456D01*
X104940828Y-131739710D01*
X105033761Y-131557319D01*
X105097018Y-131362634D01*
X105129041Y-131160452D01*
X105129041Y-130955748D01*
X105122861Y-130916732D01*
X105131815Y-130847443D01*
X105176810Y-130793991D01*
X105243561Y-130773350D01*
X105310875Y-130792074D01*
X105333015Y-130809656D01*
X105363682Y-130840323D01*
X105440500Y-130896136D01*
X105440501Y-130896136D01*
X105440502Y-130896137D01*
X105561159Y-130935341D01*
X105561160Y-130935341D01*
X105688024Y-130935341D01*
X105688025Y-130935341D01*
X105808682Y-130896137D01*
X105885501Y-130840325D01*
X107202866Y-129522958D01*
X107258680Y-129446139D01*
X107297884Y-129325482D01*
X107297884Y-129198616D01*
X107258680Y-129077959D01*
X107236355Y-129047231D01*
X107202871Y-129001143D01*
X106261411Y-128059683D01*
X106227926Y-127998360D01*
X106225092Y-127972002D01*
X106225092Y-123046904D01*
X106244777Y-122979865D01*
X106261406Y-122959228D01*
X107559206Y-121661427D01*
X107559211Y-121661424D01*
X107569414Y-121651220D01*
X107569416Y-121651220D01*
X107681220Y-121539416D01*
X107712628Y-121485016D01*
X107747314Y-121424938D01*
X107747315Y-121424936D01*
X107752574Y-121415825D01*
X107760277Y-121402485D01*
X107801200Y-121249758D01*
X107801200Y-121091643D01*
X107801200Y-119681943D01*
X107801200Y-118119843D01*
X107801200Y-112733196D01*
X107820885Y-112666157D01*
X107837514Y-112645520D01*
X114785506Y-105697527D01*
X114785511Y-105697524D01*
X114795714Y-105687320D01*
X114795716Y-105687320D01*
X114907520Y-105575516D01*
X114986577Y-105438584D01*
X115027500Y-105285857D01*
X115027500Y-98471097D01*
X115047185Y-98404058D01*
X115063819Y-98383416D01*
X115644953Y-97802282D01*
X116302619Y-97144615D01*
X116363940Y-97111132D01*
X116365942Y-97110714D01*
X116460128Y-97091980D01*
X116587611Y-97039175D01*
X116587616Y-97039171D01*
X116587619Y-97039170D01*
X116618108Y-97018798D01*
X116684785Y-96997919D01*
X116752166Y-97016403D01*
X116798856Y-97068381D01*
X116811000Y-97121899D01*
X116811000Y-97477202D01*
X116791315Y-97544241D01*
X116774681Y-97564883D01*
X115975591Y-98363972D01*
X115920008Y-98396065D01*
X115909714Y-98398823D01*
X115909712Y-98398824D01*
X115772787Y-98477877D01*
X115772782Y-98477881D01*
X115660981Y-98589682D01*
X115660975Y-98589690D01*
X115581926Y-98726609D01*
X115581923Y-98726616D01*
X115541000Y-98879343D01*
X115541000Y-105681402D01*
X115521315Y-105748441D01*
X115504681Y-105769083D01*
X108472781Y-112800982D01*
X108472779Y-112800985D01*
X108422661Y-112887794D01*
X108422659Y-112887796D01*
X108393725Y-112937909D01*
X108393724Y-112937910D01*
X108393723Y-112937915D01*
X108352799Y-113090643D01*
X108352799Y-113090645D01*
X108352799Y-113258746D01*
X108352800Y-113258759D01*
X108352800Y-129018187D01*
X108352799Y-129018205D01*
X108352799Y-129183912D01*
X108352798Y-129183912D01*
X108356738Y-129198616D01*
X108393723Y-129336643D01*
X108410696Y-129366041D01*
X108422658Y-129386758D01*
X108422659Y-129386762D01*
X108422660Y-129386762D01*
X108472779Y-129473572D01*
X108472781Y-129473575D01*
X108591649Y-129592443D01*
X108591655Y-129592448D01*
X109612463Y-130613257D01*
X109645948Y-130674580D01*
X109642714Y-130739255D01*
X109638063Y-130753568D01*
X109606041Y-130955748D01*
X109606041Y-131160451D01*
X109638063Y-131362634D01*
X109701322Y-131557323D01*
X109752925Y-131658597D01*
X109792028Y-131735342D01*
X109794256Y-131739713D01*
X109914569Y-131905313D01*
X110059327Y-132050071D01*
X110214290Y-132162656D01*
X110224931Y-132170387D01*
X110341148Y-132229603D01*
X110407317Y-132263318D01*
X110407319Y-132263318D01*
X110407322Y-132263320D01*
X110511678Y-132297227D01*
X110602006Y-132326577D01*
X110670996Y-132337504D01*
X110804189Y-132358600D01*
X110804190Y-132358600D01*
X111008892Y-132358600D01*
X111008893Y-132358600D01*
X111211075Y-132326577D01*
X111405760Y-132263320D01*
X111588151Y-132170387D01*
X111681131Y-132102832D01*
X111753754Y-132050071D01*
X111753756Y-132050068D01*
X111753760Y-132050066D01*
X111898507Y-131905319D01*
X111984865Y-131786455D01*
X112040195Y-131743790D01*
X112085184Y-131735341D01*
X113913890Y-131735341D01*
X113913906Y-131735342D01*
X113921502Y-131735342D01*
X114079613Y-131735342D01*
X114079616Y-131735342D01*
X114232344Y-131694418D01*
X114294382Y-131658600D01*
X114369275Y-131615361D01*
X114481079Y-131503557D01*
X114481079Y-131503555D01*
X114491283Y-131493352D01*
X114491286Y-131493347D01*
X116085767Y-129898868D01*
X116147090Y-129865383D01*
X116173448Y-129862549D01*
X117041545Y-129862549D01*
X117108584Y-129882234D01*
X117154339Y-129935038D01*
X117164283Y-130004196D01*
X117135258Y-130067752D01*
X117129226Y-130074230D01*
X116992573Y-130210882D01*
X116992569Y-130210886D01*
X116872256Y-130376486D01*
X116779322Y-130558876D01*
X116716063Y-130753565D01*
X116684041Y-130955748D01*
X116684041Y-131160451D01*
X116716063Y-131362634D01*
X116779322Y-131557323D01*
X116830925Y-131658597D01*
X116870028Y-131735342D01*
X116872256Y-131739713D01*
X116992569Y-131905313D01*
X117137327Y-132050071D01*
X117292290Y-132162656D01*
X117302931Y-132170387D01*
X117419148Y-132229603D01*
X117485317Y-132263318D01*
X117485319Y-132263318D01*
X117485322Y-132263320D01*
X117589678Y-132297227D01*
X117680006Y-132326577D01*
X117748996Y-132337504D01*
X117882189Y-132358600D01*
X117882190Y-132358600D01*
X118086892Y-132358600D01*
X118086893Y-132358600D01*
X118289075Y-132326577D01*
X118483760Y-132263320D01*
X118666151Y-132170387D01*
X118759131Y-132102832D01*
X118831754Y-132050071D01*
X118831756Y-132050068D01*
X118831760Y-132050066D01*
X118976507Y-131905319D01*
X118976509Y-131905315D01*
X118976512Y-131905313D01*
X119062865Y-131786456D01*
X119096828Y-131739710D01*
X119189761Y-131557319D01*
X119253018Y-131362634D01*
X119285041Y-131160452D01*
X119285041Y-130955748D01*
X119278861Y-130916732D01*
X119287815Y-130847443D01*
X119332810Y-130793991D01*
X119399561Y-130773350D01*
X119466875Y-130792074D01*
X119489015Y-130809656D01*
X119519682Y-130840323D01*
X119596500Y-130896136D01*
X119596501Y-130896136D01*
X119596502Y-130896137D01*
X119717159Y-130935341D01*
X119717160Y-130935341D01*
X119844024Y-130935341D01*
X119844025Y-130935341D01*
X119964682Y-130896137D01*
X120041501Y-130840325D01*
X121358866Y-129522958D01*
X121414680Y-129446139D01*
X121453884Y-129325482D01*
X121453884Y-129198616D01*
X121414680Y-129077959D01*
X121392355Y-129047231D01*
X121358871Y-129001143D01*
X121358869Y-129001141D01*
X120041504Y-127683777D01*
X120041501Y-127683774D01*
X119964683Y-127627961D01*
X119844026Y-127588757D01*
X119844025Y-127588757D01*
X119717159Y-127588757D01*
X119717157Y-127588757D01*
X119596502Y-127627961D01*
X119596500Y-127627962D01*
X119519686Y-127683769D01*
X119519684Y-127683771D01*
X118578227Y-128625230D01*
X118516904Y-128658715D01*
X118490546Y-128661549D01*
X115960020Y-128661549D01*
X115960004Y-128661548D01*
X115952408Y-128661548D01*
X115794294Y-128661548D01*
X115714361Y-128682966D01*
X115641567Y-128702471D01*
X115611401Y-128719888D01*
X115611400Y-128719887D01*
X115504638Y-128781526D01*
X115504633Y-128781530D01*
X115430041Y-128856123D01*
X115392831Y-128893333D01*
X115392829Y-128893335D01*
X114572477Y-129713688D01*
X113788143Y-130498022D01*
X113761215Y-130512725D01*
X113735397Y-130529318D01*
X113729196Y-130530209D01*
X113726820Y-130531507D01*
X113700462Y-130534341D01*
X113568847Y-130534341D01*
X113501808Y-130514656D01*
X113456053Y-130461852D01*
X113446109Y-130392694D01*
X113475134Y-130329138D01*
X113481166Y-130322660D01*
X113868787Y-129935038D01*
X114280866Y-129522958D01*
X114336680Y-129446139D01*
X114375884Y-129325482D01*
X114375884Y-129198616D01*
X114336680Y-129077959D01*
X114314355Y-129047231D01*
X114280871Y-129001143D01*
X114280869Y-129001141D01*
X112963504Y-127683777D01*
X112963495Y-127683770D01*
X112906012Y-127642005D01*
X112905996Y-127641994D01*
X112886682Y-127627961D01*
X112766026Y-127588757D01*
X112766025Y-127588757D01*
X112639159Y-127588757D01*
X112639157Y-127588757D01*
X112518502Y-127627961D01*
X112518500Y-127627962D01*
X112441686Y-127683769D01*
X112441684Y-127683771D01*
X111124320Y-129001136D01*
X111124317Y-129001139D01*
X111068504Y-129077957D01*
X111029300Y-129198614D01*
X111029300Y-129198616D01*
X111029300Y-129325482D01*
X111068504Y-129446139D01*
X111068505Y-129446140D01*
X111124310Y-129522951D01*
X111124313Y-129522954D01*
X111124316Y-129522958D01*
X111154984Y-129553626D01*
X111188468Y-129614945D01*
X111183484Y-129684637D01*
X111141614Y-129740571D01*
X111076150Y-129764989D01*
X111047907Y-129763779D01*
X111035078Y-129761747D01*
X111008893Y-129757600D01*
X110804189Y-129757600D01*
X110766140Y-129763626D01*
X110602009Y-129789622D01*
X110593258Y-129792465D01*
X110587695Y-129794273D01*
X110517854Y-129796267D01*
X110461698Y-129764022D01*
X110034319Y-129336643D01*
X109590119Y-128892442D01*
X109556634Y-128831119D01*
X109553800Y-128804761D01*
X109553800Y-115686122D01*
X109869372Y-115686122D01*
X109896291Y-115821449D01*
X109896294Y-115821459D01*
X109949094Y-115948931D01*
X109949101Y-115948944D01*
X110025758Y-116063668D01*
X110025761Y-116063672D01*
X110123327Y-116161238D01*
X110123331Y-116161241D01*
X110238055Y-116237898D01*
X110238068Y-116237905D01*
X110314551Y-116269585D01*
X110365545Y-116290707D01*
X110365552Y-116290708D01*
X110371378Y-116292476D01*
X110370948Y-116293892D01*
X110426347Y-116322864D01*
X110427935Y-116324424D01*
X114688760Y-120585250D01*
X114722245Y-120646573D01*
X114723552Y-120692328D01*
X114714073Y-120752177D01*
X114714073Y-120921476D01*
X114740554Y-121088674D01*
X114792869Y-121249680D01*
X114838434Y-121339105D01*
X114867470Y-121396091D01*
X114869725Y-121400515D01*
X114969221Y-121537461D01*
X114969225Y-121537466D01*
X115088933Y-121657174D01*
X115088938Y-121657178D01*
X115208390Y-121743964D01*
X115225888Y-121756677D01*
X115321998Y-121805647D01*
X115376719Y-121833530D01*
X115376721Y-121833530D01*
X115376724Y-121833532D01*
X115455140Y-121859011D01*
X115537725Y-121885845D01*
X115704924Y-121912327D01*
X115704929Y-121912327D01*
X115874222Y-121912327D01*
X116041420Y-121885845D01*
X116202422Y-121833532D01*
X116353258Y-121756677D01*
X116490214Y-121657173D01*
X116609919Y-121537468D01*
X116641251Y-121494343D01*
X116700982Y-121412131D01*
X116756311Y-121369465D01*
X116825925Y-121363486D01*
X116887720Y-121396091D01*
X116922077Y-121456930D01*
X116925300Y-121485016D01*
X116925300Y-124457139D01*
X116925299Y-124457143D01*
X116925299Y-124493309D01*
X116925299Y-124536556D01*
X116919230Y-124574874D01*
X116881971Y-124689542D01*
X116855490Y-124856740D01*
X116855490Y-125026035D01*
X116860238Y-125056017D01*
X116851281Y-125125311D01*
X116806284Y-125178762D01*
X116739532Y-125199400D01*
X116718366Y-125197886D01*
X116609250Y-125180604D01*
X116424302Y-125180604D01*
X116241628Y-125209537D01*
X116065734Y-125266688D01*
X115900937Y-125350657D01*
X115880345Y-125365618D01*
X115880345Y-125365619D01*
X116700140Y-126185414D01*
X116693925Y-126185414D01*
X116592192Y-126212673D01*
X116500980Y-126265334D01*
X116426506Y-126339808D01*
X116373845Y-126431020D01*
X116346586Y-126532753D01*
X116346586Y-126538968D01*
X115526791Y-125719173D01*
X115526790Y-125719173D01*
X115511829Y-125739765D01*
X115427860Y-125904562D01*
X115370709Y-126080456D01*
X115341776Y-126263129D01*
X115341776Y-126448078D01*
X115370709Y-126630751D01*
X115427860Y-126806645D01*
X115511829Y-126971441D01*
X115620531Y-127121058D01*
X115620535Y-127121063D01*
X115738959Y-127239487D01*
X116346586Y-126631860D01*
X116346586Y-126638075D01*
X116373845Y-126739808D01*
X116426506Y-126831020D01*
X116500980Y-126905494D01*
X116592192Y-126958155D01*
X116693925Y-126985414D01*
X116700138Y-126985414D01*
X116092512Y-127593039D01*
X116210938Y-127711466D01*
X116360562Y-127820173D01*
X116525358Y-127904141D01*
X116701248Y-127961290D01*
X116883922Y-127990224D01*
X117068870Y-127990224D01*
X117251543Y-127961290D01*
X117427436Y-127904139D01*
X117592232Y-127820170D01*
X117592239Y-127820166D01*
X117612825Y-127805208D01*
X117612826Y-127805207D01*
X116793032Y-126985414D01*
X116799247Y-126985414D01*
X116900980Y-126958155D01*
X116992192Y-126905494D01*
X117066666Y-126831020D01*
X117119327Y-126739808D01*
X117146586Y-126638075D01*
X117146586Y-126631860D01*
X117966379Y-127451654D01*
X117966380Y-127451653D01*
X117981338Y-127431067D01*
X117981342Y-127431060D01*
X118065311Y-127266264D01*
X118122462Y-127090371D01*
X118151396Y-126907698D01*
X118151396Y-126722750D01*
X118134113Y-126613633D01*
X118143067Y-126544340D01*
X118188063Y-126490888D01*
X118254815Y-126470248D01*
X118275984Y-126471762D01*
X118305961Y-126476510D01*
X118305966Y-126476510D01*
X118475259Y-126476510D01*
X118642457Y-126450028D01*
X118648458Y-126448078D01*
X118803459Y-126397715D01*
X118954295Y-126320861D01*
X119091251Y-126221356D01*
X119210956Y-126101651D01*
X119310461Y-125964695D01*
X119387315Y-125813859D01*
X119439628Y-125652857D01*
X119444950Y-125619255D01*
X119466110Y-125485659D01*
X119466110Y-125316360D01*
X119444996Y-125183054D01*
X119453950Y-125113761D01*
X119498947Y-125060309D01*
X119565698Y-125039669D01*
X119586867Y-125041183D01*
X119720174Y-125062297D01*
X119720179Y-125062297D01*
X119889472Y-125062297D01*
X120056670Y-125035815D01*
X120217672Y-124983502D01*
X120368508Y-124906648D01*
X120505464Y-124807143D01*
X120625169Y-124687438D01*
X120724674Y-124550482D01*
X120801528Y-124399646D01*
X120853841Y-124238644D01*
X120859678Y-124201793D01*
X120880323Y-124071446D01*
X120880323Y-123902148D01*
X120863559Y-123796310D01*
X120859208Y-123768837D01*
X120868162Y-123699546D01*
X120913158Y-123646094D01*
X120979909Y-123625454D01*
X121001073Y-123626967D01*
X121064622Y-123637032D01*
X121134389Y-123648083D01*
X121134393Y-123648083D01*
X121303686Y-123648083D01*
X121470884Y-123621601D01*
X121631886Y-123569288D01*
X121782722Y-123492434D01*
X121919678Y-123392929D01*
X122039383Y-123273224D01*
X122138888Y-123136268D01*
X122215742Y-122985432D01*
X122268055Y-122824430D01*
X122280322Y-122746979D01*
X122294537Y-122657232D01*
X122294537Y-122487933D01*
X122273423Y-122354627D01*
X122282377Y-122285334D01*
X122327374Y-122231882D01*
X122394125Y-122211242D01*
X122415294Y-122212756D01*
X122548601Y-122233870D01*
X122548606Y-122233870D01*
X122717899Y-122233870D01*
X122885097Y-122207388D01*
X122915184Y-122197612D01*
X123046099Y-122155075D01*
X123196935Y-122078221D01*
X123333891Y-121978716D01*
X123453596Y-121859011D01*
X123553101Y-121722055D01*
X123629955Y-121571219D01*
X123682268Y-121410217D01*
X123687955Y-121374313D01*
X123708750Y-121243019D01*
X123708750Y-121073721D01*
X123696535Y-120996603D01*
X123687635Y-120940410D01*
X123696589Y-120871119D01*
X123741585Y-120817667D01*
X123808336Y-120797027D01*
X123829500Y-120798540D01*
X123893049Y-120808605D01*
X123962816Y-120819656D01*
X123962820Y-120819656D01*
X124132113Y-120819656D01*
X124299311Y-120793174D01*
X124329392Y-120783400D01*
X124460313Y-120740861D01*
X124611149Y-120664007D01*
X124748105Y-120564502D01*
X124867810Y-120444797D01*
X124967315Y-120307841D01*
X125044169Y-120157005D01*
X125096482Y-119996003D01*
X125108998Y-119916979D01*
X125122964Y-119828805D01*
X125122964Y-119659506D01*
X125101850Y-119526200D01*
X125110804Y-119456907D01*
X125155801Y-119403455D01*
X125222552Y-119382815D01*
X125243721Y-119384329D01*
X125377028Y-119405443D01*
X125377033Y-119405443D01*
X125546326Y-119405443D01*
X125713524Y-119378961D01*
X125719119Y-119377143D01*
X125874526Y-119326648D01*
X126025362Y-119249794D01*
X126162318Y-119150289D01*
X126282023Y-119030584D01*
X126381528Y-118893628D01*
X126458382Y-118742792D01*
X126510695Y-118581790D01*
X126517036Y-118541753D01*
X126537177Y-118414592D01*
X126537177Y-118352049D01*
X126556862Y-118285010D01*
X126609666Y-118239255D01*
X126678824Y-118229311D01*
X126699485Y-118234115D01*
X126783732Y-118261488D01*
X126812454Y-118270821D01*
X126812455Y-118270821D01*
X126812458Y-118270822D01*
X126812461Y-118270822D01*
X126939321Y-118270822D01*
X126939324Y-118270822D01*
X127059980Y-118231619D01*
X127136800Y-118175806D01*
X128135967Y-117176638D01*
X128191781Y-117099818D01*
X128230984Y-116979162D01*
X128230984Y-116852296D01*
X128225953Y-116836813D01*
X128211720Y-116793007D01*
X128191781Y-116731639D01*
X128189085Y-116727929D01*
X128146441Y-116669235D01*
X128135968Y-116654820D01*
X127430079Y-115948931D01*
X126677180Y-115196032D01*
X126600363Y-115140220D01*
X126600361Y-115140219D01*
X126570196Y-115130418D01*
X126479707Y-115101016D01*
X126479704Y-115101016D01*
X126352838Y-115101016D01*
X126352834Y-115101016D01*
X126232181Y-115140219D01*
X126155365Y-115196029D01*
X126155359Y-115196034D01*
X125156197Y-116195197D01*
X125156194Y-116195200D01*
X125100382Y-116272017D01*
X125100381Y-116272020D01*
X125061178Y-116392672D01*
X125061178Y-116519545D01*
X125062781Y-116524477D01*
X125097882Y-116632507D01*
X125099877Y-116702346D01*
X125063797Y-116762179D01*
X125001096Y-116793007D01*
X124979951Y-116794823D01*
X124917408Y-116794823D01*
X124750209Y-116821304D01*
X124589203Y-116873619D01*
X124438368Y-116950475D01*
X124301422Y-117049971D01*
X124301417Y-117049975D01*
X124181709Y-117169683D01*
X124181705Y-117169688D01*
X124082209Y-117306634D01*
X124005353Y-117457469D01*
X123953038Y-117618475D01*
X123926557Y-117785673D01*
X123926557Y-117954973D01*
X123947670Y-118088279D01*
X123938715Y-118157572D01*
X123893719Y-118211024D01*
X123826967Y-118231663D01*
X123805800Y-118230149D01*
X123672495Y-118209036D01*
X123672488Y-118209036D01*
X123503200Y-118209036D01*
X123503195Y-118209036D01*
X123335996Y-118235517D01*
X123174990Y-118287832D01*
X123024155Y-118364688D01*
X122887209Y-118464184D01*
X122887204Y-118464188D01*
X122767496Y-118583896D01*
X122767492Y-118583901D01*
X122667994Y-118720849D01*
X122653384Y-118749523D01*
X122605409Y-118800319D01*
X122537588Y-118817113D01*
X122471453Y-118794575D01*
X122428002Y-118739859D01*
X122418900Y-118693227D01*
X122418900Y-116303745D01*
X122418900Y-116303743D01*
X122386275Y-116181984D01*
X122377977Y-116151015D01*
X122337471Y-116080857D01*
X122298920Y-116014084D01*
X122187116Y-115902280D01*
X122182785Y-115897949D01*
X122182774Y-115897939D01*
X120791519Y-114506684D01*
X120758034Y-114445361D01*
X120755200Y-114419003D01*
X120755200Y-113702324D01*
X121505547Y-113702324D01*
X121505547Y-113702326D01*
X121505547Y-113829192D01*
X121544751Y-113949849D01*
X121544752Y-113949850D01*
X121600559Y-114026664D01*
X121600561Y-114026666D01*
X122599732Y-115025835D01*
X122599734Y-115025837D01*
X122676549Y-115081648D01*
X122676550Y-115081648D01*
X122676551Y-115081649D01*
X122797208Y-115120853D01*
X122797209Y-115120853D01*
X122924073Y-115120853D01*
X122924074Y-115120853D01*
X123044731Y-115081649D01*
X123121550Y-115025837D01*
X124120717Y-114026668D01*
X124176531Y-113949849D01*
X124215735Y-113829192D01*
X124215735Y-113702326D01*
X124176531Y-113581669D01*
X124143638Y-113536395D01*
X124120722Y-113504853D01*
X124120720Y-113504851D01*
X123121549Y-112505682D01*
X123121547Y-112505680D01*
X123044732Y-112449869D01*
X122924075Y-112410665D01*
X122924074Y-112410665D01*
X122797208Y-112410665D01*
X122797206Y-112410665D01*
X122676551Y-112449869D01*
X122676549Y-112449870D01*
X122599735Y-112505677D01*
X122599733Y-112505679D01*
X121600564Y-113504850D01*
X121600562Y-113504852D01*
X121544751Y-113581667D01*
X121505547Y-113702324D01*
X120755200Y-113702324D01*
X120755200Y-110741145D01*
X120755200Y-110741143D01*
X120714277Y-110588416D01*
X120714277Y-110588415D01*
X120666024Y-110504839D01*
X120635220Y-110451484D01*
X120523416Y-110339680D01*
X120523415Y-110339679D01*
X120519085Y-110335349D01*
X120519074Y-110335339D01*
X118652197Y-108468462D01*
X118621163Y-108411627D01*
X118620249Y-108411905D01*
X118618917Y-108407514D01*
X118618712Y-108407139D01*
X118618512Y-108406179D01*
X118618481Y-108406077D01*
X118618480Y-108406072D01*
X118597358Y-108355078D01*
X118565678Y-108278595D01*
X118565671Y-108278582D01*
X118489014Y-108163858D01*
X118489011Y-108163854D01*
X118391445Y-108066288D01*
X118391441Y-108066285D01*
X118276717Y-107989628D01*
X118276704Y-107989621D01*
X118149232Y-107936821D01*
X118149222Y-107936818D01*
X118013895Y-107909900D01*
X118013893Y-107909900D01*
X117875907Y-107909900D01*
X117875905Y-107909900D01*
X117740577Y-107936818D01*
X117740567Y-107936821D01*
X117613095Y-107989621D01*
X117613082Y-107989628D01*
X117498358Y-108066285D01*
X117498354Y-108066288D01*
X117400788Y-108163854D01*
X117400785Y-108163858D01*
X117324128Y-108278582D01*
X117324121Y-108278595D01*
X117271321Y-108406067D01*
X117271318Y-108406077D01*
X117244400Y-108541404D01*
X117244400Y-108541407D01*
X117244400Y-108679393D01*
X117244400Y-108679395D01*
X117244399Y-108679395D01*
X117271318Y-108814722D01*
X117271321Y-108814732D01*
X117324121Y-108942204D01*
X117324128Y-108942217D01*
X117400785Y-109056941D01*
X117400788Y-109056945D01*
X117498354Y-109154511D01*
X117498358Y-109154514D01*
X117613082Y-109231171D01*
X117613095Y-109231178D01*
X117689578Y-109262858D01*
X117740572Y-109283980D01*
X117740579Y-109283981D01*
X117746405Y-109285749D01*
X117745975Y-109287165D01*
X117801374Y-109316137D01*
X117802962Y-109317697D01*
X119517881Y-111032616D01*
X119551366Y-111093939D01*
X119554200Y-111120297D01*
X119554200Y-114632430D01*
X119554199Y-114632448D01*
X119554199Y-114798154D01*
X119554198Y-114798154D01*
X119554199Y-114798157D01*
X119593156Y-114943545D01*
X119595124Y-114950887D01*
X119610027Y-114976699D01*
X119610028Y-114976701D01*
X119674177Y-115087812D01*
X119674181Y-115087817D01*
X119793049Y-115206685D01*
X119793055Y-115206690D01*
X121181581Y-116595216D01*
X121215066Y-116656539D01*
X121217900Y-116682897D01*
X121217900Y-120175712D01*
X121204385Y-120232006D01*
X121176927Y-120285894D01*
X121124611Y-120446902D01*
X121098130Y-120614100D01*
X121098130Y-120783400D01*
X121119243Y-120916706D01*
X121110288Y-120985999D01*
X121065292Y-121039451D01*
X120998540Y-121060090D01*
X120977372Y-121058576D01*
X120897902Y-121045989D01*
X120834767Y-121016060D01*
X120797836Y-120956748D01*
X120793300Y-120923516D01*
X120793300Y-116989545D01*
X120793299Y-116989541D01*
X120790517Y-116979159D01*
X120774510Y-116919416D01*
X120752377Y-116836815D01*
X120721009Y-116782485D01*
X120721009Y-116782484D01*
X120673322Y-116699887D01*
X120673321Y-116699886D01*
X120673320Y-116699884D01*
X120561516Y-116588080D01*
X120561515Y-116588079D01*
X120557185Y-116583749D01*
X120557174Y-116583739D01*
X115566097Y-111592662D01*
X115535063Y-111535827D01*
X115534149Y-111536105D01*
X115532817Y-111531714D01*
X115532612Y-111531339D01*
X115532412Y-111530379D01*
X115532381Y-111530277D01*
X115532380Y-111530272D01*
X115489580Y-111426943D01*
X115479578Y-111402795D01*
X115479571Y-111402782D01*
X115402914Y-111288058D01*
X115402911Y-111288054D01*
X115305345Y-111190488D01*
X115305341Y-111190485D01*
X115190617Y-111113828D01*
X115190604Y-111113821D01*
X115063132Y-111061021D01*
X115063122Y-111061018D01*
X114927795Y-111034100D01*
X114927793Y-111034100D01*
X114789807Y-111034100D01*
X114789805Y-111034100D01*
X114654477Y-111061018D01*
X114654467Y-111061021D01*
X114526995Y-111113821D01*
X114526982Y-111113828D01*
X114412258Y-111190485D01*
X114412254Y-111190488D01*
X114314688Y-111288054D01*
X114314685Y-111288058D01*
X114238028Y-111402782D01*
X114238021Y-111402795D01*
X114185221Y-111530267D01*
X114185218Y-111530277D01*
X114158300Y-111665604D01*
X114158300Y-111665607D01*
X114158300Y-111803593D01*
X114158300Y-111803595D01*
X114158299Y-111803595D01*
X114185218Y-111938922D01*
X114185221Y-111938932D01*
X114238021Y-112066404D01*
X114238028Y-112066417D01*
X114314685Y-112181141D01*
X114314688Y-112181145D01*
X114412254Y-112278711D01*
X114412258Y-112278714D01*
X114526982Y-112355371D01*
X114526995Y-112355378D01*
X114603478Y-112387058D01*
X114654472Y-112408180D01*
X114654479Y-112408181D01*
X114660305Y-112409949D01*
X114659875Y-112411365D01*
X114715274Y-112440337D01*
X114716862Y-112441897D01*
X119555981Y-117281016D01*
X119589466Y-117342339D01*
X119592300Y-117368697D01*
X119592300Y-117979207D01*
X119591310Y-117982576D01*
X119592114Y-117985995D01*
X119581537Y-118015858D01*
X119572615Y-118046246D01*
X119569961Y-118048544D01*
X119568789Y-118051857D01*
X119543741Y-118071265D01*
X119519811Y-118092001D01*
X119516335Y-118092500D01*
X119513559Y-118094652D01*
X119482004Y-118097437D01*
X119450653Y-118101945D01*
X119447458Y-118100486D01*
X119443960Y-118100795D01*
X119415910Y-118086078D01*
X119387097Y-118072920D01*
X119384280Y-118069483D01*
X119382089Y-118068334D01*
X119375986Y-118059364D01*
X119360471Y-118040435D01*
X119355807Y-118032222D01*
X119355377Y-118030615D01*
X119326439Y-117980495D01*
X119276320Y-117893684D01*
X119164516Y-117781880D01*
X119164515Y-117781879D01*
X119160185Y-117777549D01*
X119160174Y-117777539D01*
X115108897Y-113726262D01*
X115077863Y-113669427D01*
X115076949Y-113669705D01*
X115075617Y-113665314D01*
X115075412Y-113664939D01*
X115075212Y-113663979D01*
X115075181Y-113663877D01*
X115075180Y-113663872D01*
X115041130Y-113581667D01*
X115022378Y-113536395D01*
X115022371Y-113536382D01*
X114945714Y-113421658D01*
X114945711Y-113421654D01*
X114848145Y-113324088D01*
X114848141Y-113324085D01*
X114733417Y-113247428D01*
X114733404Y-113247421D01*
X114605932Y-113194621D01*
X114605922Y-113194618D01*
X114470595Y-113167700D01*
X114470593Y-113167700D01*
X114332607Y-113167700D01*
X114332605Y-113167700D01*
X114197277Y-113194618D01*
X114197267Y-113194621D01*
X114069795Y-113247421D01*
X114069782Y-113247428D01*
X113955058Y-113324085D01*
X113955054Y-113324088D01*
X113857488Y-113421654D01*
X113857485Y-113421658D01*
X113780828Y-113536382D01*
X113780821Y-113536395D01*
X113728021Y-113663867D01*
X113728018Y-113663877D01*
X113701100Y-113799204D01*
X113701100Y-113799207D01*
X113701100Y-113937193D01*
X113701100Y-113937195D01*
X113701099Y-113937195D01*
X113728018Y-114072522D01*
X113728021Y-114072532D01*
X113780821Y-114200004D01*
X113780828Y-114200017D01*
X113857485Y-114314741D01*
X113857488Y-114314745D01*
X113955054Y-114412311D01*
X113955058Y-114412314D01*
X114069782Y-114488971D01*
X114069795Y-114488978D01*
X114112542Y-114506684D01*
X114197272Y-114541780D01*
X114197279Y-114541781D01*
X114203105Y-114543549D01*
X114202675Y-114544965D01*
X114258074Y-114573937D01*
X114259662Y-114575497D01*
X118158981Y-118474816D01*
X118192466Y-118536139D01*
X118195300Y-118562497D01*
X118195300Y-118977101D01*
X118189061Y-118998346D01*
X118187482Y-119020433D01*
X118179409Y-119031216D01*
X118175615Y-119044140D01*
X118158880Y-119058640D01*
X118145611Y-119076367D01*
X118132990Y-119081074D01*
X118122811Y-119089895D01*
X118100894Y-119093046D01*
X118080147Y-119100785D01*
X118066985Y-119097922D01*
X118053653Y-119099839D01*
X118033511Y-119090640D01*
X118011874Y-119085934D01*
X117994147Y-119072663D01*
X117990097Y-119070814D01*
X117983620Y-119064783D01*
X117917182Y-118998346D01*
X117894516Y-118975680D01*
X117894513Y-118975678D01*
X113267397Y-114348562D01*
X113236363Y-114291727D01*
X113235449Y-114292005D01*
X113234117Y-114287614D01*
X113233912Y-114287239D01*
X113233712Y-114286279D01*
X113233681Y-114286177D01*
X113233680Y-114286172D01*
X113197988Y-114200004D01*
X113180878Y-114158695D01*
X113180871Y-114158682D01*
X113104214Y-114043958D01*
X113104211Y-114043954D01*
X113006645Y-113946388D01*
X113006641Y-113946385D01*
X112891917Y-113869728D01*
X112891904Y-113869721D01*
X112764432Y-113816921D01*
X112764422Y-113816918D01*
X112629095Y-113790000D01*
X112629093Y-113790000D01*
X112491107Y-113790000D01*
X112491105Y-113790000D01*
X112355777Y-113816918D01*
X112355767Y-113816921D01*
X112228295Y-113869721D01*
X112228282Y-113869728D01*
X112113558Y-113946385D01*
X112113554Y-113946388D01*
X112015988Y-114043954D01*
X112015985Y-114043958D01*
X111939328Y-114158682D01*
X111939321Y-114158695D01*
X111886521Y-114286167D01*
X111886518Y-114286177D01*
X111859600Y-114421504D01*
X111859600Y-114421507D01*
X111859600Y-114559493D01*
X111859600Y-114559495D01*
X111859599Y-114559495D01*
X111886518Y-114694822D01*
X111886521Y-114694832D01*
X111939321Y-114822304D01*
X111939328Y-114822317D01*
X112015985Y-114937041D01*
X112015988Y-114937045D01*
X112113554Y-115034611D01*
X112113558Y-115034614D01*
X112228282Y-115111271D01*
X112228295Y-115111278D01*
X112251412Y-115120853D01*
X112355772Y-115164080D01*
X112355779Y-115164081D01*
X112361605Y-115165849D01*
X112361175Y-115167265D01*
X112416574Y-115196237D01*
X112418162Y-115197797D01*
X116888981Y-119668616D01*
X116922466Y-119729939D01*
X116925300Y-119756297D01*
X116925300Y-120188637D01*
X116905615Y-120255676D01*
X116852811Y-120301431D01*
X116783653Y-120311375D01*
X116720097Y-120282350D01*
X116700982Y-120261522D01*
X116609924Y-120136192D01*
X116609920Y-120136187D01*
X116490212Y-120016479D01*
X116490207Y-120016475D01*
X116353261Y-119916979D01*
X116353260Y-119916978D01*
X116353258Y-119916977D01*
X116306155Y-119892977D01*
X116202426Y-119840123D01*
X116041420Y-119787808D01*
X115874222Y-119761327D01*
X115874217Y-119761327D01*
X115704929Y-119761327D01*
X115704923Y-119761327D01*
X115645074Y-119770806D01*
X115575781Y-119761851D01*
X115537996Y-119736014D01*
X111277170Y-115475189D01*
X111246136Y-115418354D01*
X111245222Y-115418632D01*
X111243890Y-115414241D01*
X111243685Y-115413866D01*
X111243485Y-115412906D01*
X111243454Y-115412804D01*
X111243453Y-115412799D01*
X111222276Y-115361672D01*
X111190651Y-115285322D01*
X111190644Y-115285309D01*
X111113987Y-115170585D01*
X111113984Y-115170581D01*
X111016418Y-115073015D01*
X111016414Y-115073012D01*
X110901690Y-114996355D01*
X110901677Y-114996348D01*
X110774205Y-114943548D01*
X110774195Y-114943545D01*
X110638868Y-114916627D01*
X110638866Y-114916627D01*
X110500880Y-114916627D01*
X110500878Y-114916627D01*
X110365550Y-114943545D01*
X110365540Y-114943548D01*
X110238068Y-114996348D01*
X110238055Y-114996355D01*
X110123331Y-115073012D01*
X110123327Y-115073015D01*
X110025761Y-115170581D01*
X110025758Y-115170585D01*
X109949101Y-115285309D01*
X109949094Y-115285322D01*
X109896294Y-115412794D01*
X109896291Y-115412804D01*
X109869373Y-115548131D01*
X109869373Y-115548134D01*
X109869373Y-115686120D01*
X109869373Y-115686122D01*
X109869372Y-115686122D01*
X109553800Y-115686122D01*
X109553800Y-113469796D01*
X109573485Y-113402757D01*
X109590114Y-113382120D01*
X116510213Y-106462021D01*
X116510216Y-106462020D01*
X116622020Y-106350216D01*
X116672139Y-106263404D01*
X116701077Y-106213285D01*
X116742001Y-106060557D01*
X116742001Y-105902443D01*
X116742001Y-105894848D01*
X116742000Y-105894830D01*
X116742000Y-100779995D01*
X117511099Y-100779995D01*
X117538018Y-100915322D01*
X117538021Y-100915332D01*
X117590822Y-101042806D01*
X117593694Y-101048178D01*
X117592392Y-101048874D01*
X117611080Y-101108554D01*
X117611100Y-101110769D01*
X117611100Y-103342130D01*
X117611099Y-103342148D01*
X117611099Y-103507854D01*
X117611098Y-103507854D01*
X117648092Y-103645918D01*
X117652023Y-103660585D01*
X117672185Y-103695506D01*
X117713218Y-103766577D01*
X117731079Y-103797514D01*
X117731081Y-103797517D01*
X117849949Y-103916385D01*
X117849955Y-103916390D01*
X128522181Y-114588616D01*
X128555666Y-114649939D01*
X128558500Y-114676297D01*
X128558500Y-124134909D01*
X128558499Y-124134927D01*
X128558499Y-124300633D01*
X128558498Y-124300633D01*
X128599423Y-124453364D01*
X128623638Y-124495304D01*
X128623639Y-124495308D01*
X128678475Y-124590288D01*
X128678481Y-124590296D01*
X128766014Y-124677829D01*
X128799499Y-124739152D01*
X128794515Y-124808844D01*
X128752643Y-124864777D01*
X128687179Y-124889194D01*
X128678333Y-124889510D01*
X127160933Y-124889510D01*
X127008204Y-124930433D01*
X126978042Y-124947848D01*
X126978041Y-124947848D01*
X126871277Y-125009487D01*
X126871272Y-125009491D01*
X123682022Y-128198741D01*
X123682020Y-128198744D01*
X123631902Y-128285553D01*
X123631900Y-128285555D01*
X123602966Y-128335668D01*
X123602965Y-128335669D01*
X123602964Y-128335674D01*
X123562040Y-128488402D01*
X123562040Y-128488404D01*
X123562040Y-128656505D01*
X123562041Y-128656518D01*
X123562041Y-130071430D01*
X123562040Y-130071448D01*
X123562040Y-130237154D01*
X123562039Y-130237154D01*
X123599374Y-130376490D01*
X123602964Y-130389885D01*
X123607340Y-130397464D01*
X123607343Y-130397476D01*
X123607347Y-130397475D01*
X123679289Y-130522084D01*
X123682020Y-130526814D01*
X123682022Y-130526817D01*
X123768462Y-130613257D01*
X123801947Y-130674580D01*
X123798714Y-130739249D01*
X123794064Y-130753560D01*
X123794064Y-130753562D01*
X123762041Y-130955748D01*
X123762041Y-131160451D01*
X123794063Y-131362634D01*
X123857322Y-131557323D01*
X123908925Y-131658597D01*
X123948028Y-131735342D01*
X123950256Y-131739713D01*
X124070569Y-131905313D01*
X124215327Y-132050071D01*
X124370290Y-132162656D01*
X124380931Y-132170387D01*
X124497148Y-132229603D01*
X124563317Y-132263318D01*
X124563319Y-132263318D01*
X124563322Y-132263320D01*
X124667678Y-132297227D01*
X124758006Y-132326577D01*
X124826996Y-132337504D01*
X124960189Y-132358600D01*
X124960190Y-132358600D01*
X125164892Y-132358600D01*
X125164893Y-132358600D01*
X125367075Y-132326577D01*
X125561760Y-132263320D01*
X125744151Y-132170387D01*
X125837131Y-132102832D01*
X125909754Y-132050071D01*
X125909756Y-132050068D01*
X125909760Y-132050066D01*
X126054507Y-131905319D01*
X126054509Y-131905315D01*
X126054512Y-131905313D01*
X126140865Y-131786456D01*
X126174828Y-131739710D01*
X126267761Y-131557319D01*
X126331018Y-131362634D01*
X126363041Y-131160452D01*
X126363041Y-130955748D01*
X126356861Y-130916732D01*
X126365815Y-130847443D01*
X126410810Y-130793991D01*
X126477561Y-130773350D01*
X126544875Y-130792074D01*
X126567015Y-130809656D01*
X126597682Y-130840323D01*
X126674500Y-130896136D01*
X126674501Y-130896136D01*
X126674502Y-130896137D01*
X126795159Y-130935341D01*
X126795160Y-130935341D01*
X126922024Y-130935341D01*
X126922025Y-130935341D01*
X127042682Y-130896137D01*
X127119501Y-130840325D01*
X128436866Y-129522958D01*
X128492680Y-129446139D01*
X128531884Y-129325482D01*
X128531884Y-129198616D01*
X128492680Y-129077959D01*
X128470355Y-129047231D01*
X128436871Y-129001143D01*
X128436869Y-129001141D01*
X127119504Y-127683777D01*
X127119501Y-127683774D01*
X127042683Y-127627961D01*
X126922026Y-127588757D01*
X126922025Y-127588757D01*
X126795159Y-127588757D01*
X126795157Y-127588757D01*
X126674502Y-127627961D01*
X126674500Y-127627962D01*
X126597686Y-127683769D01*
X126597684Y-127683771D01*
X125280320Y-129001136D01*
X125280317Y-129001139D01*
X125224504Y-129077957D01*
X125185300Y-129198614D01*
X125185300Y-129198616D01*
X125185300Y-129325482D01*
X125224504Y-129446139D01*
X125224505Y-129446140D01*
X125280310Y-129522951D01*
X125280313Y-129522954D01*
X125280316Y-129522958D01*
X125310984Y-129553626D01*
X125344468Y-129614945D01*
X125339484Y-129684637D01*
X125297614Y-129740571D01*
X125232150Y-129764989D01*
X125203907Y-129763779D01*
X125191078Y-129761747D01*
X125164893Y-129757600D01*
X124960189Y-129757600D01*
X124960182Y-129757600D01*
X124906438Y-129766112D01*
X124837145Y-129757157D01*
X124783693Y-129712161D01*
X124763054Y-129645409D01*
X124763041Y-129643639D01*
X124763041Y-128867556D01*
X124782726Y-128800517D01*
X124799360Y-128779875D01*
X127452406Y-126126829D01*
X127513729Y-126093344D01*
X127540087Y-126090510D01*
X129137385Y-126090510D01*
X129204424Y-126110195D01*
X129225066Y-126126829D01*
X130166521Y-127068284D01*
X130243339Y-127124097D01*
X130243340Y-127124097D01*
X130243341Y-127124098D01*
X130363998Y-127163302D01*
X130363999Y-127163302D01*
X130490863Y-127163302D01*
X130490864Y-127163302D01*
X130611521Y-127124098D01*
X130688340Y-127068286D01*
X132005705Y-125750919D01*
X132061519Y-125674100D01*
X132100723Y-125553443D01*
X132100723Y-125426577D01*
X132061519Y-125305920D01*
X132030445Y-125263150D01*
X132005712Y-125229107D01*
X132005709Y-125229104D01*
X132005707Y-125229101D01*
X131975037Y-125198431D01*
X131941554Y-125137113D01*
X131946538Y-125067421D01*
X131988408Y-125011487D01*
X132053872Y-124987069D01*
X132082117Y-124988279D01*
X132121130Y-124994459D01*
X132121131Y-124994459D01*
X132325833Y-124994459D01*
X132325834Y-124994459D01*
X132528016Y-124962436D01*
X132722701Y-124899179D01*
X132905092Y-124806246D01*
X133003712Y-124734595D01*
X133070695Y-124685930D01*
X133070697Y-124685927D01*
X133070701Y-124685925D01*
X133215448Y-124541178D01*
X133215450Y-124541174D01*
X133215453Y-124541172D01*
X133268214Y-124468549D01*
X133335769Y-124375569D01*
X133428702Y-124193178D01*
X133491959Y-123998493D01*
X133523982Y-123796311D01*
X133523982Y-123591607D01*
X133509289Y-123498840D01*
X133491959Y-123389424D01*
X133454203Y-123273224D01*
X133428702Y-123194740D01*
X133428700Y-123194737D01*
X133428700Y-123194735D01*
X133394985Y-123128566D01*
X133335769Y-123012349D01*
X133296499Y-122958298D01*
X133215453Y-122846745D01*
X133070695Y-122701987D01*
X132905095Y-122581674D01*
X132905094Y-122581673D01*
X132905092Y-122581672D01*
X132834982Y-122545949D01*
X132722705Y-122488740D01*
X132528016Y-122425481D01*
X132352143Y-122397626D01*
X132325834Y-122393459D01*
X132121130Y-122393459D01*
X132096811Y-122397310D01*
X131918947Y-122425481D01*
X131724258Y-122488740D01*
X131541868Y-122581674D01*
X131376268Y-122701987D01*
X131231510Y-122846745D01*
X131111197Y-123012345D01*
X131018263Y-123194735D01*
X130955004Y-123389424D01*
X130922982Y-123591607D01*
X130922982Y-123796310D01*
X130929161Y-123835323D01*
X130920206Y-123904617D01*
X130875210Y-123958069D01*
X130808459Y-123978708D01*
X130741145Y-123959983D01*
X130719007Y-123942402D01*
X130688340Y-123911735D01*
X130611522Y-123855922D01*
X130490865Y-123816718D01*
X130490864Y-123816718D01*
X130363998Y-123816718D01*
X130363996Y-123816718D01*
X130243341Y-123855922D01*
X130243339Y-123855923D01*
X130166525Y-123911730D01*
X130166523Y-123911732D01*
X130020137Y-124058119D01*
X130012191Y-124062457D01*
X130006766Y-124069705D01*
X129982006Y-124078939D01*
X129958814Y-124091604D01*
X129949784Y-124090958D01*
X129941302Y-124094122D01*
X129915481Y-124088505D01*
X129889122Y-124086620D01*
X129880068Y-124080801D01*
X129873029Y-124079270D01*
X129844775Y-124058119D01*
X129795819Y-124009163D01*
X129762334Y-123947840D01*
X129759500Y-123921482D01*
X129759500Y-118511653D01*
X129779185Y-118444614D01*
X129831989Y-118398859D01*
X129901147Y-118388915D01*
X129964703Y-118417940D01*
X129987106Y-118446570D01*
X129987608Y-118446206D01*
X130049151Y-118530915D01*
X130049153Y-118530917D01*
X131366518Y-119848281D01*
X131366521Y-119848284D01*
X131443339Y-119904097D01*
X131443340Y-119904097D01*
X131443341Y-119904098D01*
X131563998Y-119943302D01*
X131563999Y-119943302D01*
X131690863Y-119943302D01*
X131690864Y-119943302D01*
X131811521Y-119904098D01*
X131888340Y-119848286D01*
X132829796Y-118906828D01*
X132891119Y-118873344D01*
X132917477Y-118870510D01*
X133687521Y-118870510D01*
X133687537Y-118870511D01*
X133695133Y-118870511D01*
X133853244Y-118870511D01*
X133853247Y-118870511D01*
X134005975Y-118829587D01*
X134005977Y-118829585D01*
X134005979Y-118829585D01*
X134005980Y-118829584D01*
X134058259Y-118799401D01*
X134058260Y-118799400D01*
X134142906Y-118750530D01*
X134254710Y-118638726D01*
X134254710Y-118638724D01*
X134264914Y-118628521D01*
X134264917Y-118628516D01*
X135710120Y-117183316D01*
X135789177Y-117046384D01*
X135830101Y-116893657D01*
X135830101Y-116735542D01*
X135830101Y-116727947D01*
X135830100Y-116727929D01*
X135830100Y-109772893D01*
X135831956Y-109772893D01*
X135835757Y-109731463D01*
X135891959Y-109558493D01*
X135923982Y-109356311D01*
X135923982Y-109151607D01*
X135891959Y-108949425D01*
X135828702Y-108754740D01*
X135828700Y-108754737D01*
X135828700Y-108754735D01*
X135790311Y-108679393D01*
X135735769Y-108572349D01*
X135713289Y-108541407D01*
X135615453Y-108406745D01*
X135470695Y-108261987D01*
X135305092Y-108141671D01*
X135291682Y-108134838D01*
X135240888Y-108086862D01*
X135223982Y-108024356D01*
X135223982Y-104524004D01*
X135243667Y-104456965D01*
X135260301Y-104436323D01*
X135605705Y-104090919D01*
X135612845Y-104081092D01*
X135661519Y-104014100D01*
X135700723Y-103893443D01*
X135700723Y-103766577D01*
X135661519Y-103645920D01*
X135606944Y-103570803D01*
X135605712Y-103569107D01*
X135605709Y-103569104D01*
X135605707Y-103569101D01*
X135575037Y-103538431D01*
X135541554Y-103477113D01*
X135546538Y-103407421D01*
X135588408Y-103351487D01*
X135653872Y-103327069D01*
X135682117Y-103328279D01*
X135721130Y-103334459D01*
X135721131Y-103334459D01*
X135925833Y-103334459D01*
X135925834Y-103334459D01*
X136128016Y-103302436D01*
X136322701Y-103239179D01*
X136505092Y-103146246D01*
X136604074Y-103074332D01*
X136670695Y-103025930D01*
X136670697Y-103025927D01*
X136670701Y-103025925D01*
X136815448Y-102881178D01*
X136815450Y-102881174D01*
X136815453Y-102881172D01*
X136873697Y-102801004D01*
X136935769Y-102715569D01*
X137028702Y-102533178D01*
X137091959Y-102338493D01*
X137123982Y-102136311D01*
X137123982Y-101931607D01*
X137091959Y-101729425D01*
X137028702Y-101534740D01*
X137028700Y-101534737D01*
X137028700Y-101534735D01*
X136994985Y-101468566D01*
X136935769Y-101352349D01*
X136928038Y-101341708D01*
X136815453Y-101186745D01*
X136670695Y-101041987D01*
X136505092Y-100921671D01*
X136491682Y-100914838D01*
X136440888Y-100866862D01*
X136423982Y-100804356D01*
X136423982Y-97304004D01*
X136443667Y-97236965D01*
X136460301Y-97216323D01*
X136805705Y-96870919D01*
X136861518Y-96794101D01*
X136861517Y-96794101D01*
X136861519Y-96794100D01*
X136900723Y-96673443D01*
X136900723Y-96546577D01*
X136861519Y-96425920D01*
X136835819Y-96390547D01*
X136805712Y-96349107D01*
X136805709Y-96349104D01*
X136805707Y-96349101D01*
X136775037Y-96318431D01*
X136741554Y-96257113D01*
X136746538Y-96187421D01*
X136788408Y-96131487D01*
X136853872Y-96107069D01*
X136882117Y-96108279D01*
X136921130Y-96114459D01*
X136921131Y-96114459D01*
X137125833Y-96114459D01*
X137125834Y-96114459D01*
X137328016Y-96082436D01*
X137522701Y-96019179D01*
X137705092Y-95926246D01*
X137798072Y-95858691D01*
X137870695Y-95805930D01*
X137870697Y-95805927D01*
X137870701Y-95805925D01*
X138015448Y-95661178D01*
X138015450Y-95661174D01*
X138015453Y-95661172D01*
X138114025Y-95525497D01*
X138135769Y-95495569D01*
X138228702Y-95313178D01*
X138291959Y-95118493D01*
X138323982Y-94916311D01*
X138323982Y-94711607D01*
X138291959Y-94509425D01*
X138291864Y-94509134D01*
X138228700Y-94314735D01*
X138168927Y-94197425D01*
X138135769Y-94132349D01*
X138116536Y-94105877D01*
X138015453Y-93966745D01*
X137870695Y-93821987D01*
X137705095Y-93701674D01*
X137705094Y-93701673D01*
X137705092Y-93701672D01*
X137601451Y-93648864D01*
X137522705Y-93608740D01*
X137328016Y-93545481D01*
X137153477Y-93517837D01*
X137125834Y-93513459D01*
X136921130Y-93513459D01*
X136896811Y-93517310D01*
X136718947Y-93545481D01*
X136524258Y-93608740D01*
X136341868Y-93701674D01*
X136176268Y-93821987D01*
X136031510Y-93966745D01*
X135911197Y-94132345D01*
X135818263Y-94314735D01*
X135755004Y-94509424D01*
X135722982Y-94711607D01*
X135722982Y-94916310D01*
X135729161Y-94955323D01*
X135720206Y-95024617D01*
X135675210Y-95078069D01*
X135608459Y-95098708D01*
X135541145Y-95079983D01*
X135519007Y-95062402D01*
X135488340Y-95031735D01*
X135411522Y-94975922D01*
X135290865Y-94936718D01*
X135290864Y-94936718D01*
X135163998Y-94936718D01*
X135163996Y-94936718D01*
X135043341Y-94975922D01*
X135043339Y-94975923D01*
X134966525Y-95031730D01*
X134966523Y-95031732D01*
X134820137Y-95178119D01*
X134758814Y-95211604D01*
X134689122Y-95206620D01*
X134644775Y-95178119D01*
X134444019Y-94977363D01*
X134410534Y-94916040D01*
X134407700Y-94889682D01*
X134407700Y-87500145D01*
X134407700Y-87500143D01*
X134366777Y-87347416D01*
X134366777Y-87347415D01*
X134302376Y-87235870D01*
X134287720Y-87210484D01*
X134287718Y-87210482D01*
X134287717Y-87210480D01*
X134171597Y-87094360D01*
X134171574Y-87094339D01*
X128801819Y-81724584D01*
X128801817Y-81724581D01*
X128682946Y-81605710D01*
X128682945Y-81605709D01*
X128596133Y-81555589D01*
X128596133Y-81555588D01*
X128596129Y-81555587D01*
X128546014Y-81526652D01*
X128393286Y-81485728D01*
X128235172Y-81485728D01*
X128227576Y-81485728D01*
X128227560Y-81485729D01*
X121947268Y-81485729D01*
X121880229Y-81466044D01*
X121859587Y-81449410D01*
X121458807Y-81048629D01*
X121425322Y-80987306D01*
X121430306Y-80917614D01*
X121472178Y-80861681D01*
X121537642Y-80837264D01*
X121546488Y-80836948D01*
X123028909Y-80836948D01*
X123028910Y-80836948D01*
X123122696Y-80822095D01*
X123235734Y-80764499D01*
X123325442Y-80674791D01*
X123383038Y-80561753D01*
X123383038Y-80561751D01*
X123383039Y-80561750D01*
X123397892Y-80467973D01*
X123397892Y-80260949D01*
X123417577Y-80193910D01*
X123470381Y-80148155D01*
X123521892Y-80136949D01*
X129089430Y-80136949D01*
X129151569Y-80155195D01*
X129152019Y-80154354D01*
X129156059Y-80156513D01*
X129156469Y-80156634D01*
X129157287Y-80157170D01*
X129157390Y-80157225D01*
X129245957Y-80193910D01*
X129284872Y-80210029D01*
X129284876Y-80210029D01*
X129284877Y-80210030D01*
X129420204Y-80236949D01*
X129420207Y-80236949D01*
X129558195Y-80236949D01*
X129653159Y-80218059D01*
X129693528Y-80210029D01*
X129821011Y-80157224D01*
X129821011Y-80157223D01*
X129826381Y-80154354D01*
X129827076Y-80155654D01*
X129886762Y-80136969D01*
X129888970Y-80136949D01*
X133698665Y-80136949D01*
X133746113Y-80146386D01*
X133755272Y-80150180D01*
X133787110Y-80156513D01*
X133890604Y-80177100D01*
X133890607Y-80177100D01*
X134028595Y-80177100D01*
X134119641Y-80158989D01*
X134163928Y-80150180D01*
X134291411Y-80097375D01*
X134406142Y-80020714D01*
X134503714Y-79923142D01*
X134580375Y-79808411D01*
X134633180Y-79680928D01*
X134660100Y-79545593D01*
X134660100Y-79407607D01*
X134660100Y-79407604D01*
X134633181Y-79272277D01*
X134633180Y-79272276D01*
X134633180Y-79272272D01*
X134590296Y-79168740D01*
X134580378Y-79144795D01*
X134580371Y-79144782D01*
X134503714Y-79030058D01*
X134503711Y-79030054D01*
X134406145Y-78932488D01*
X134406141Y-78932485D01*
X134291417Y-78855828D01*
X134291404Y-78855821D01*
X134163932Y-78803021D01*
X134163922Y-78803018D01*
X134028595Y-78776100D01*
X134028593Y-78776100D01*
X133890607Y-78776100D01*
X133890605Y-78776100D01*
X133755277Y-78803018D01*
X133755267Y-78803021D01*
X133627795Y-78855821D01*
X133627782Y-78855828D01*
X133539151Y-78915051D01*
X133472474Y-78935929D01*
X133470260Y-78935949D01*
X129888970Y-78935949D01*
X129826830Y-78917702D01*
X129826381Y-78918544D01*
X129822340Y-78916384D01*
X129821931Y-78916264D01*
X129821112Y-78915727D01*
X129821009Y-78915672D01*
X129693532Y-78862870D01*
X129693522Y-78862867D01*
X129558195Y-78835949D01*
X129558193Y-78835949D01*
X129420207Y-78835949D01*
X129420205Y-78835949D01*
X129284877Y-78862867D01*
X129284867Y-78862870D01*
X129157390Y-78915672D01*
X129152019Y-78918544D01*
X129151323Y-78917243D01*
X129091638Y-78935929D01*
X129089430Y-78935949D01*
X123521891Y-78935949D01*
X123454852Y-78916264D01*
X123409097Y-78863460D01*
X123397891Y-78811949D01*
X123397891Y-78604931D01*
X123397890Y-78604924D01*
X123383038Y-78511145D01*
X123325442Y-78398107D01*
X123325438Y-78398103D01*
X123325437Y-78398101D01*
X123235739Y-78308403D01*
X123235736Y-78308401D01*
X123235734Y-78308399D01*
X123156390Y-78267971D01*
X123122693Y-78250801D01*
X123028916Y-78235949D01*
X123028911Y-78235949D01*
X122821892Y-78235949D01*
X122754853Y-78216264D01*
X122709098Y-78163460D01*
X122697892Y-78111949D01*
X122697892Y-74746545D01*
X122706536Y-74717104D01*
X122713060Y-74687118D01*
X122716814Y-74682102D01*
X122717577Y-74679506D01*
X122734207Y-74658868D01*
X122892549Y-74500525D01*
X122953872Y-74467041D01*
X123018546Y-74470275D01*
X123032858Y-74474926D01*
X123235040Y-74506949D01*
X123235041Y-74506949D01*
X123439743Y-74506949D01*
X123439744Y-74506949D01*
X123641926Y-74474926D01*
X123836611Y-74411669D01*
X124019002Y-74318736D01*
X124138729Y-74231750D01*
X124184605Y-74198420D01*
X124184607Y-74198417D01*
X124184611Y-74198415D01*
X124329358Y-74053668D01*
X124352572Y-74021715D01*
X124407900Y-73979048D01*
X124477513Y-73973067D01*
X124539310Y-74005671D01*
X124573669Y-74066509D01*
X124576892Y-74094595D01*
X124576892Y-74137965D01*
X124578153Y-74145925D01*
X124591746Y-74231753D01*
X124649342Y-74344791D01*
X124649344Y-74344793D01*
X124649346Y-74344796D01*
X124739044Y-74434494D01*
X124739046Y-74434495D01*
X124739050Y-74434499D01*
X124827016Y-74479320D01*
X124852090Y-74492096D01*
X124945867Y-74506948D01*
X124945873Y-74506949D01*
X126808910Y-74506948D01*
X126902696Y-74492095D01*
X127015734Y-74434499D01*
X127105442Y-74344791D01*
X127163038Y-74231753D01*
X127163038Y-74231751D01*
X127163039Y-74231750D01*
X127177891Y-74137973D01*
X127177892Y-74137968D01*
X127177891Y-72274931D01*
X127163038Y-72181145D01*
X127105442Y-72068107D01*
X127105438Y-72068103D01*
X127105437Y-72068101D01*
X127015739Y-71978403D01*
X127015736Y-71978401D01*
X127015734Y-71978399D01*
X126936390Y-71937971D01*
X126902693Y-71920801D01*
X126808916Y-71905949D01*
X126808911Y-71905949D01*
X126601892Y-71905949D01*
X126534853Y-71886264D01*
X126489098Y-71833460D01*
X126477892Y-71781949D01*
X126477892Y-68416545D01*
X126486536Y-68387104D01*
X126493060Y-68357118D01*
X126496814Y-68352102D01*
X126497577Y-68349506D01*
X126514207Y-68328868D01*
X126672549Y-68170525D01*
X126733872Y-68137041D01*
X126798546Y-68140275D01*
X126812858Y-68144926D01*
X127015040Y-68176949D01*
X127015041Y-68176949D01*
X127219743Y-68176949D01*
X127219744Y-68176949D01*
X127421926Y-68144926D01*
X127616611Y-68081669D01*
X127799002Y-67988736D01*
X127901729Y-67914101D01*
X127964605Y-67868420D01*
X127964607Y-67868417D01*
X127964611Y-67868415D01*
X128109358Y-67723668D01*
X128132572Y-67691715D01*
X128187900Y-67649048D01*
X128257513Y-67643067D01*
X128319310Y-67675671D01*
X128353669Y-67736509D01*
X128356892Y-67764595D01*
X128356892Y-67807965D01*
X128366466Y-67868415D01*
X128371746Y-67901753D01*
X128429342Y-68014791D01*
X128429344Y-68014793D01*
X128429346Y-68014796D01*
X128519044Y-68104494D01*
X128519046Y-68104495D01*
X128519050Y-68104499D01*
X128632086Y-68162094D01*
X128632090Y-68162096D01*
X128725867Y-68176948D01*
X128725873Y-68176949D01*
X128932892Y-68176948D01*
X128999931Y-68196632D01*
X129045686Y-68249436D01*
X129056892Y-68300948D01*
X129056892Y-72785930D01*
X129056891Y-72785948D01*
X129056891Y-72951654D01*
X129056890Y-72951654D01*
X129097815Y-73104385D01*
X129126750Y-73154500D01*
X129126751Y-73154504D01*
X129126752Y-73154504D01*
X129176871Y-73241314D01*
X129176873Y-73241317D01*
X129295741Y-73360185D01*
X129295747Y-73360190D01*
X136859225Y-80923668D01*
X136892710Y-80984991D01*
X136887726Y-81054683D01*
X136859225Y-81099030D01*
X136049156Y-81909101D01*
X136049154Y-81909103D01*
X135993343Y-81985918D01*
X135954139Y-82106575D01*
X135954139Y-82106577D01*
X135954139Y-82233443D01*
X135993343Y-82354100D01*
X135993344Y-82354101D01*
X136049151Y-82430915D01*
X136049153Y-82430917D01*
X137366518Y-83748281D01*
X137366521Y-83748284D01*
X137443339Y-83804097D01*
X137443340Y-83804097D01*
X137443341Y-83804098D01*
X137563998Y-83843302D01*
X137563999Y-83843302D01*
X137690863Y-83843302D01*
X137690864Y-83843302D01*
X137811521Y-83804098D01*
X137888340Y-83748286D01*
X139205705Y-82430919D01*
X139261519Y-82354100D01*
X139300723Y-82233443D01*
X139300723Y-82106577D01*
X139261519Y-81985920D01*
X139235819Y-81950547D01*
X139205712Y-81909107D01*
X139205708Y-81909103D01*
X139205707Y-81909101D01*
X139175037Y-81878431D01*
X139141554Y-81817113D01*
X139146538Y-81747421D01*
X139188408Y-81691487D01*
X139253872Y-81667069D01*
X139282117Y-81668279D01*
X139321130Y-81674459D01*
X139321131Y-81674459D01*
X139525832Y-81674459D01*
X139525834Y-81674459D01*
X139579585Y-81665945D01*
X139648876Y-81674899D01*
X139702329Y-81719895D01*
X139722969Y-81786646D01*
X139722982Y-81788418D01*
X139722982Y-82439220D01*
X139703297Y-82506259D01*
X139686663Y-82526901D01*
X135946912Y-86266651D01*
X135946911Y-86266653D01*
X135912947Y-86325482D01*
X135900542Y-86346968D01*
X135900540Y-86346970D01*
X135867856Y-86403578D01*
X135867855Y-86403579D01*
X135867854Y-86403584D01*
X135826930Y-86556312D01*
X135826930Y-86556314D01*
X135826930Y-86724415D01*
X135826931Y-86724428D01*
X135826931Y-88099963D01*
X135807246Y-88167002D01*
X135790612Y-88187644D01*
X134849156Y-89129101D01*
X134849154Y-89129103D01*
X134793343Y-89205918D01*
X134754139Y-89326575D01*
X134754139Y-89326577D01*
X134754139Y-89453443D01*
X134793343Y-89574100D01*
X134793344Y-89574101D01*
X134849151Y-89650915D01*
X134849153Y-89650917D01*
X136166518Y-90968281D01*
X136166521Y-90968284D01*
X136243339Y-91024097D01*
X136243340Y-91024097D01*
X136243341Y-91024098D01*
X136363998Y-91063302D01*
X136363999Y-91063302D01*
X136490863Y-91063302D01*
X136490864Y-91063302D01*
X136611521Y-91024098D01*
X136688183Y-90968400D01*
X136688336Y-90968289D01*
X136688336Y-90968288D01*
X136688340Y-90968286D01*
X138005705Y-89650919D01*
X138061519Y-89574100D01*
X138100723Y-89453443D01*
X138100723Y-89326577D01*
X138061519Y-89205920D01*
X138035819Y-89170547D01*
X138005712Y-89129107D01*
X138005708Y-89129103D01*
X138005707Y-89129101D01*
X137975037Y-89098431D01*
X137941554Y-89037113D01*
X137946538Y-88967421D01*
X137988408Y-88911487D01*
X138053872Y-88887069D01*
X138082117Y-88888279D01*
X138121130Y-88894459D01*
X138121131Y-88894459D01*
X138325833Y-88894459D01*
X138325834Y-88894459D01*
X138528016Y-88862436D01*
X138722701Y-88799179D01*
X138905092Y-88706246D01*
X138998072Y-88638691D01*
X139070695Y-88585930D01*
X139070697Y-88585927D01*
X139070701Y-88585925D01*
X139215448Y-88441178D01*
X139215450Y-88441174D01*
X139215453Y-88441172D01*
X139268214Y-88368549D01*
X139335769Y-88275569D01*
X139428702Y-88093178D01*
X139491959Y-87898493D01*
X139523982Y-87696311D01*
X139523982Y-87491607D01*
X139491959Y-87289425D01*
X139428702Y-87094740D01*
X139428700Y-87094737D01*
X139428700Y-87094735D01*
X139382873Y-87004796D01*
X139335769Y-86912349D01*
X139296584Y-86858415D01*
X139215453Y-86746745D01*
X139070695Y-86601987D01*
X138905095Y-86481674D01*
X138905094Y-86481673D01*
X138905092Y-86481672D01*
X138848135Y-86452650D01*
X138722705Y-86388740D01*
X138528016Y-86325481D01*
X138353477Y-86297837D01*
X138325834Y-86293459D01*
X138121130Y-86293459D01*
X138053736Y-86304133D01*
X137918946Y-86325482D01*
X137918943Y-86325482D01*
X137917776Y-86325862D01*
X137917307Y-86325875D01*
X137914201Y-86326621D01*
X137914044Y-86325968D01*
X137847935Y-86327850D01*
X137788105Y-86291764D01*
X137757283Y-86229061D01*
X137765254Y-86159647D01*
X137791786Y-86120248D01*
X140681988Y-83230045D01*
X140681993Y-83230042D01*
X140692196Y-83219838D01*
X140692198Y-83219838D01*
X140804002Y-83108034D01*
X140854534Y-83020510D01*
X140883059Y-82971103D01*
X140923982Y-82818375D01*
X140923982Y-82660261D01*
X140923982Y-81194902D01*
X140886411Y-81054683D01*
X140883059Y-81042174D01*
X140883059Y-81042173D01*
X140854121Y-80992054D01*
X140854119Y-80992051D01*
X140850043Y-80984991D01*
X140804002Y-80905243D01*
X140717558Y-80818799D01*
X140684074Y-80757475D01*
X140687310Y-80692798D01*
X140691959Y-80678493D01*
X140723982Y-80476311D01*
X140723982Y-80271607D01*
X140702654Y-80136949D01*
X140691959Y-80069424D01*
X140628700Y-79874735D01*
X140594902Y-79808404D01*
X140535769Y-79692349D01*
X140527467Y-79680922D01*
X140415453Y-79526745D01*
X140270695Y-79381987D01*
X140105095Y-79261674D01*
X140105094Y-79261673D01*
X140105092Y-79261672D01*
X140046689Y-79231914D01*
X139922705Y-79168740D01*
X139728016Y-79105481D01*
X139553477Y-79077837D01*
X139525834Y-79073459D01*
X139321130Y-79073459D01*
X139296811Y-79077310D01*
X139118947Y-79105481D01*
X138924258Y-79168740D01*
X138741868Y-79261674D01*
X138576268Y-79381987D01*
X138431510Y-79526745D01*
X138311197Y-79692345D01*
X138218263Y-79874735D01*
X138155005Y-80069423D01*
X138131334Y-80218871D01*
X138101404Y-80282005D01*
X138042093Y-80318936D01*
X137972230Y-80317938D01*
X137921180Y-80287153D01*
X132709222Y-75075195D01*
X134935499Y-75075195D01*
X134962418Y-75210522D01*
X134962421Y-75210532D01*
X135015221Y-75338004D01*
X135015228Y-75338017D01*
X135091885Y-75452741D01*
X135091888Y-75452745D01*
X135189454Y-75550311D01*
X135189458Y-75550314D01*
X135304182Y-75626971D01*
X135304195Y-75626978D01*
X135431667Y-75679778D01*
X135431672Y-75679780D01*
X135431676Y-75679780D01*
X135431677Y-75679781D01*
X135567004Y-75706700D01*
X135567007Y-75706700D01*
X135704995Y-75706700D01*
X135796041Y-75688589D01*
X135840328Y-75679780D01*
X135967811Y-75626975D01*
X136082542Y-75550314D01*
X136180114Y-75452742D01*
X136256775Y-75338011D01*
X136309580Y-75210528D01*
X136323319Y-75141450D01*
X136337550Y-75103643D01*
X136347977Y-75085585D01*
X136388900Y-74932857D01*
X136388900Y-74886575D01*
X137154139Y-74886575D01*
X137154139Y-74886577D01*
X137154139Y-75013443D01*
X137193343Y-75134100D01*
X137193344Y-75134101D01*
X137249151Y-75210915D01*
X137249153Y-75210917D01*
X138566518Y-76528281D01*
X138566521Y-76528284D01*
X138643339Y-76584097D01*
X138643340Y-76584097D01*
X138643341Y-76584098D01*
X138763998Y-76623302D01*
X138763999Y-76623302D01*
X138890863Y-76623302D01*
X138890864Y-76623302D01*
X139011521Y-76584098D01*
X139088340Y-76528286D01*
X140405705Y-75210919D01*
X140461519Y-75134100D01*
X140500723Y-75013443D01*
X140500723Y-74886577D01*
X140461519Y-74765920D01*
X140410127Y-74695184D01*
X140405712Y-74689107D01*
X140405709Y-74689104D01*
X140405707Y-74689101D01*
X140375037Y-74658431D01*
X140341554Y-74597113D01*
X140346538Y-74527421D01*
X140388408Y-74471487D01*
X140453872Y-74447069D01*
X140482117Y-74448279D01*
X140521130Y-74454459D01*
X140521131Y-74454459D01*
X140725833Y-74454459D01*
X140725834Y-74454459D01*
X140928016Y-74422436D01*
X141122701Y-74359179D01*
X141305092Y-74266246D01*
X141398454Y-74198415D01*
X141470695Y-74145930D01*
X141470697Y-74145927D01*
X141470701Y-74145925D01*
X141615448Y-74001178D01*
X141615450Y-74001174D01*
X141615453Y-74001172D01*
X141697633Y-73888059D01*
X141735769Y-73835569D01*
X141828702Y-73653178D01*
X141891959Y-73458493D01*
X141923982Y-73256311D01*
X141923982Y-73051607D01*
X141891959Y-72849425D01*
X141828702Y-72654740D01*
X141828700Y-72654737D01*
X141828700Y-72654735D01*
X141762514Y-72524839D01*
X141735769Y-72472349D01*
X141713019Y-72441036D01*
X141615453Y-72306745D01*
X141470695Y-72161987D01*
X141305092Y-72041671D01*
X141291682Y-72034838D01*
X141240888Y-71986862D01*
X141223982Y-71924356D01*
X141223982Y-68424004D01*
X141243667Y-68356965D01*
X141260301Y-68336323D01*
X141605705Y-67990919D01*
X141661518Y-67914101D01*
X141661517Y-67914101D01*
X141661519Y-67914100D01*
X141700723Y-67793443D01*
X141700723Y-67666577D01*
X141661519Y-67545920D01*
X141635819Y-67510547D01*
X141605712Y-67469107D01*
X141605709Y-67469104D01*
X141605707Y-67469101D01*
X141575037Y-67438431D01*
X141541554Y-67377113D01*
X141546538Y-67307421D01*
X141588408Y-67251487D01*
X141653872Y-67227069D01*
X141682117Y-67228279D01*
X141721130Y-67234459D01*
X141721131Y-67234459D01*
X141925833Y-67234459D01*
X141925834Y-67234459D01*
X142128016Y-67202436D01*
X142322701Y-67139179D01*
X142505092Y-67046246D01*
X142598072Y-66978691D01*
X142670695Y-66925930D01*
X142670697Y-66925927D01*
X142670701Y-66925925D01*
X142815448Y-66781178D01*
X142815450Y-66781174D01*
X142815453Y-66781172D01*
X142868214Y-66708549D01*
X142935769Y-66615569D01*
X143028702Y-66433178D01*
X143091959Y-66238493D01*
X143123982Y-66036311D01*
X143123982Y-65831607D01*
X143094965Y-65648403D01*
X143091959Y-65629424D01*
X143051030Y-65503460D01*
X143028702Y-65434740D01*
X143028700Y-65434737D01*
X143028700Y-65434735D01*
X142994985Y-65368566D01*
X142935769Y-65252349D01*
X142869876Y-65161654D01*
X142815453Y-65086745D01*
X142670695Y-64941987D01*
X142505092Y-64821671D01*
X142491682Y-64814838D01*
X142440888Y-64766862D01*
X142423982Y-64704356D01*
X142423982Y-61204004D01*
X142443667Y-61136965D01*
X142460301Y-61116323D01*
X142805705Y-60770919D01*
X142861518Y-60694101D01*
X142861517Y-60694101D01*
X142861519Y-60694100D01*
X142900723Y-60573443D01*
X142900723Y-60446577D01*
X142861519Y-60325920D01*
X142835819Y-60290547D01*
X142805712Y-60249107D01*
X142805709Y-60249104D01*
X142805707Y-60249101D01*
X142775037Y-60218431D01*
X142741554Y-60157113D01*
X142746538Y-60087421D01*
X142788408Y-60031487D01*
X142853872Y-60007069D01*
X142882117Y-60008279D01*
X142921130Y-60014459D01*
X142921131Y-60014459D01*
X143125833Y-60014459D01*
X143125834Y-60014459D01*
X143328016Y-59982436D01*
X143522701Y-59919179D01*
X143705092Y-59826246D01*
X143802418Y-59755535D01*
X143870695Y-59705930D01*
X143870697Y-59705927D01*
X143870701Y-59705925D01*
X144015448Y-59561178D01*
X144015450Y-59561174D01*
X144015453Y-59561172D01*
X144107728Y-59434164D01*
X144135769Y-59395569D01*
X144228702Y-59213178D01*
X144291959Y-59018493D01*
X144323982Y-58816311D01*
X144323982Y-58611607D01*
X144291959Y-58409425D01*
X144291958Y-58409423D01*
X144228700Y-58214735D01*
X144194985Y-58148566D01*
X144135769Y-58032349D01*
X144128038Y-58021708D01*
X144015453Y-57866745D01*
X143870695Y-57721987D01*
X143705095Y-57601674D01*
X143705094Y-57601673D01*
X143705092Y-57601672D01*
X143648135Y-57572650D01*
X143522705Y-57508740D01*
X143328016Y-57445481D01*
X143132533Y-57414520D01*
X143069398Y-57384591D01*
X143032467Y-57325279D01*
X143027931Y-57292047D01*
X143027931Y-54580056D01*
X143047616Y-54513017D01*
X143064250Y-54492375D01*
X144005702Y-53550922D01*
X144005705Y-53550919D01*
X144061518Y-53474101D01*
X144061517Y-53474101D01*
X144061519Y-53474100D01*
X144100723Y-53353443D01*
X144100723Y-53226577D01*
X144061519Y-53105920D01*
X144035819Y-53070547D01*
X144005712Y-53029107D01*
X144005709Y-53029104D01*
X144005707Y-53029101D01*
X143975037Y-52998431D01*
X143941554Y-52937113D01*
X143946538Y-52867421D01*
X143988408Y-52811487D01*
X144053872Y-52787069D01*
X144082117Y-52788279D01*
X144121130Y-52794459D01*
X144121131Y-52794459D01*
X144325833Y-52794459D01*
X144325834Y-52794459D01*
X144528016Y-52762436D01*
X144722701Y-52699179D01*
X144905092Y-52606246D01*
X144998072Y-52538691D01*
X145070695Y-52485930D01*
X145070697Y-52485927D01*
X145070701Y-52485925D01*
X145215448Y-52341178D01*
X145215450Y-52341174D01*
X145215453Y-52341172D01*
X145268214Y-52268549D01*
X145335769Y-52175569D01*
X145428702Y-51993178D01*
X145491959Y-51798493D01*
X145523982Y-51596311D01*
X145523982Y-51391607D01*
X145491959Y-51189425D01*
X145428702Y-50994740D01*
X145428700Y-50994737D01*
X145428700Y-50994735D01*
X145394985Y-50928566D01*
X145335769Y-50812349D01*
X145328038Y-50801708D01*
X145215453Y-50646745D01*
X145070695Y-50501987D01*
X144905095Y-50381674D01*
X144905094Y-50381673D01*
X144905092Y-50381672D01*
X144848135Y-50352650D01*
X144722705Y-50288740D01*
X144528016Y-50225481D01*
X144353477Y-50197837D01*
X144325834Y-50193459D01*
X144121130Y-50193459D01*
X144096811Y-50197310D01*
X143918947Y-50225481D01*
X143724258Y-50288740D01*
X143541868Y-50381674D01*
X143376268Y-50501987D01*
X143231510Y-50646745D01*
X143111197Y-50812345D01*
X143018263Y-50994735D01*
X142955004Y-51189424D01*
X142922982Y-51391607D01*
X142922982Y-51596310D01*
X142929161Y-51635323D01*
X142920206Y-51704617D01*
X142875210Y-51758069D01*
X142808459Y-51778708D01*
X142741145Y-51759983D01*
X142719007Y-51742402D01*
X142688340Y-51711735D01*
X142611522Y-51655922D01*
X142490865Y-51616718D01*
X142490864Y-51616718D01*
X142363998Y-51616718D01*
X142363996Y-51616718D01*
X142243341Y-51655922D01*
X142243339Y-51655923D01*
X142166525Y-51711730D01*
X142166523Y-51711732D01*
X140849159Y-53029097D01*
X140849156Y-53029100D01*
X140793343Y-53105918D01*
X140754139Y-53226575D01*
X140754139Y-53353444D01*
X140759270Y-53369235D01*
X140793343Y-53474100D01*
X140793344Y-53474101D01*
X140849151Y-53550915D01*
X140849153Y-53550917D01*
X141790612Y-54492374D01*
X141824097Y-54553697D01*
X141826931Y-54580055D01*
X141826931Y-58038847D01*
X141826930Y-58038851D01*
X141826930Y-58162786D01*
X141826930Y-58169147D01*
X141818842Y-58209805D01*
X141819767Y-58210106D01*
X141755005Y-58409420D01*
X141755005Y-58409423D01*
X141722982Y-58611607D01*
X141722982Y-58816310D01*
X141729161Y-58855323D01*
X141720206Y-58924617D01*
X141675210Y-58978069D01*
X141608459Y-58998708D01*
X141541145Y-58979983D01*
X141519007Y-58962402D01*
X141488340Y-58931735D01*
X141411522Y-58875922D01*
X141290865Y-58836718D01*
X141290864Y-58836718D01*
X141163998Y-58836718D01*
X141163996Y-58836718D01*
X141043341Y-58875922D01*
X141043339Y-58875923D01*
X140966525Y-58931730D01*
X140966523Y-58931732D01*
X139649159Y-60249097D01*
X139649156Y-60249100D01*
X139593343Y-60325918D01*
X139554139Y-60446575D01*
X139554139Y-60446577D01*
X139554139Y-60573443D01*
X139593343Y-60694100D01*
X139593344Y-60694101D01*
X139649151Y-60770915D01*
X139649153Y-60770917D01*
X140966518Y-62088281D01*
X140966521Y-62088284D01*
X141022335Y-62128835D01*
X141043341Y-62144098D01*
X141137300Y-62174627D01*
X141194976Y-62214064D01*
X141222174Y-62278423D01*
X141222982Y-62292558D01*
X141222982Y-64704356D01*
X141203297Y-64771395D01*
X141155282Y-64814838D01*
X141141871Y-64821671D01*
X140976268Y-64941987D01*
X140831510Y-65086745D01*
X140711197Y-65252345D01*
X140618263Y-65434735D01*
X140555004Y-65629424D01*
X140537792Y-65738101D01*
X140522982Y-65831607D01*
X140522982Y-66036311D01*
X140526214Y-66056718D01*
X140529161Y-66075323D01*
X140520206Y-66144617D01*
X140475210Y-66198069D01*
X140408459Y-66218708D01*
X140341145Y-66199983D01*
X140319007Y-66182402D01*
X140288340Y-66151735D01*
X140211522Y-66095922D01*
X140090865Y-66056718D01*
X140090864Y-66056718D01*
X139963998Y-66056718D01*
X139963996Y-66056718D01*
X139843341Y-66095922D01*
X139843339Y-66095923D01*
X139766525Y-66151730D01*
X139766523Y-66151732D01*
X138449159Y-67469097D01*
X138449156Y-67469100D01*
X138393343Y-67545918D01*
X138354139Y-67666575D01*
X138354139Y-67793444D01*
X138358858Y-67807966D01*
X138393343Y-67914100D01*
X138393344Y-67914101D01*
X138449151Y-67990915D01*
X138449153Y-67990917D01*
X139766518Y-69308281D01*
X139766521Y-69308284D01*
X139822335Y-69348835D01*
X139843341Y-69364098D01*
X139937300Y-69394627D01*
X139994976Y-69434064D01*
X140022174Y-69498423D01*
X140022982Y-69512558D01*
X140022982Y-71924356D01*
X140003297Y-71991395D01*
X139955282Y-72034838D01*
X139941871Y-72041671D01*
X139776268Y-72161987D01*
X139631510Y-72306745D01*
X139511197Y-72472345D01*
X139418263Y-72654735D01*
X139355004Y-72849424D01*
X139322982Y-73051607D01*
X139322982Y-73256310D01*
X139329161Y-73295323D01*
X139320206Y-73364617D01*
X139275210Y-73418069D01*
X139208459Y-73438708D01*
X139141145Y-73419983D01*
X139119007Y-73402402D01*
X139088340Y-73371735D01*
X139011522Y-73315922D01*
X138890865Y-73276718D01*
X138890864Y-73276718D01*
X138763998Y-73276718D01*
X138763996Y-73276718D01*
X138643341Y-73315922D01*
X138643339Y-73315923D01*
X138566525Y-73371730D01*
X138566523Y-73371732D01*
X137249159Y-74689097D01*
X137249156Y-74689100D01*
X137193343Y-74765918D01*
X137154139Y-74886575D01*
X136388900Y-74886575D01*
X136388900Y-74774743D01*
X136388900Y-65952303D01*
X136398339Y-65904850D01*
X136406778Y-65884477D01*
X136436580Y-65812528D01*
X136463500Y-65677193D01*
X136463500Y-65539207D01*
X136463500Y-65539204D01*
X136436581Y-65403877D01*
X136436580Y-65403876D01*
X136436580Y-65403872D01*
X136436578Y-65403867D01*
X136383778Y-65276395D01*
X136383771Y-65276382D01*
X136307114Y-65161658D01*
X136307111Y-65161654D01*
X136209545Y-65064088D01*
X136209541Y-65064085D01*
X136094817Y-64987428D01*
X136094804Y-64987421D01*
X135967332Y-64934621D01*
X135967322Y-64934618D01*
X135831995Y-64907700D01*
X135831993Y-64907700D01*
X135694007Y-64907700D01*
X135694005Y-64907700D01*
X135558677Y-64934618D01*
X135558667Y-64934621D01*
X135431195Y-64987421D01*
X135431182Y-64987428D01*
X135316458Y-65064085D01*
X135316454Y-65064088D01*
X135218888Y-65161654D01*
X135218885Y-65161658D01*
X135142228Y-65276382D01*
X135142221Y-65276395D01*
X135089421Y-65403867D01*
X135089418Y-65403877D01*
X135062500Y-65539204D01*
X135062500Y-65539207D01*
X135062500Y-65677193D01*
X135062500Y-65677195D01*
X135062499Y-65677195D01*
X135089418Y-65812522D01*
X135089421Y-65812532D01*
X135142221Y-65940004D01*
X135142223Y-65940008D01*
X135142225Y-65940011D01*
X135167003Y-65977094D01*
X135187880Y-66043767D01*
X135187900Y-66045982D01*
X135187900Y-74412281D01*
X135168215Y-74479320D01*
X135151581Y-74499962D01*
X135091888Y-74559654D01*
X135091885Y-74559658D01*
X135015228Y-74674382D01*
X135015221Y-74674395D01*
X134962421Y-74801867D01*
X134962418Y-74801877D01*
X134935500Y-74937204D01*
X134935500Y-74937207D01*
X134935500Y-75075193D01*
X134935500Y-75075195D01*
X134935499Y-75075195D01*
X132709222Y-75075195D01*
X130294211Y-72660184D01*
X130260726Y-72598861D01*
X130257892Y-72572503D01*
X130257892Y-68300948D01*
X130277577Y-68233909D01*
X130330381Y-68188154D01*
X130381892Y-68176948D01*
X130588909Y-68176948D01*
X130588910Y-68176948D01*
X130682696Y-68162095D01*
X130795734Y-68104499D01*
X130885442Y-68014791D01*
X130943038Y-67901753D01*
X130943038Y-67901751D01*
X130943039Y-67901750D01*
X130957891Y-67807973D01*
X130957892Y-67807968D01*
X130957891Y-65944931D01*
X130943038Y-65851145D01*
X130885442Y-65738107D01*
X130885438Y-65738103D01*
X130885437Y-65738101D01*
X130795739Y-65648403D01*
X130795736Y-65648401D01*
X130795734Y-65648399D01*
X130716390Y-65607971D01*
X130682693Y-65590801D01*
X130588916Y-65575949D01*
X130588911Y-65575949D01*
X130381892Y-65575949D01*
X130314853Y-65556264D01*
X130269098Y-65503460D01*
X130257892Y-65451949D01*
X130257892Y-62086545D01*
X130266536Y-62057104D01*
X130273060Y-62027118D01*
X130276814Y-62022102D01*
X130277577Y-62019506D01*
X130294207Y-61998868D01*
X130452549Y-61840525D01*
X130513872Y-61807041D01*
X130578546Y-61810275D01*
X130592858Y-61814926D01*
X130795040Y-61846949D01*
X130795041Y-61846949D01*
X130999743Y-61846949D01*
X130999744Y-61846949D01*
X131201926Y-61814926D01*
X131396611Y-61751669D01*
X131579002Y-61658736D01*
X131698729Y-61571750D01*
X131744605Y-61538420D01*
X131744607Y-61538417D01*
X131744611Y-61538415D01*
X131889358Y-61393668D01*
X131912572Y-61361715D01*
X131967900Y-61319048D01*
X132037513Y-61313067D01*
X132099310Y-61345671D01*
X132133669Y-61406509D01*
X132136892Y-61434595D01*
X132136892Y-61477965D01*
X132146466Y-61538415D01*
X132151746Y-61571753D01*
X132209342Y-61684791D01*
X132209344Y-61684793D01*
X132209346Y-61684796D01*
X132299044Y-61774494D01*
X132299046Y-61774495D01*
X132299050Y-61774499D01*
X132412086Y-61832094D01*
X132412090Y-61832096D01*
X132505867Y-61846948D01*
X132505873Y-61846949D01*
X134368910Y-61846948D01*
X134462696Y-61832095D01*
X134575734Y-61774499D01*
X134665442Y-61684791D01*
X134723038Y-61571753D01*
X134723038Y-61571751D01*
X134723039Y-61571750D01*
X134737891Y-61477973D01*
X134737892Y-61477968D01*
X134737891Y-59614931D01*
X134723038Y-59521145D01*
X134665442Y-59408107D01*
X134665438Y-59408103D01*
X134665437Y-59408101D01*
X134575739Y-59318403D01*
X134575736Y-59318401D01*
X134575734Y-59318399D01*
X134496390Y-59277971D01*
X134462693Y-59260801D01*
X134368916Y-59245949D01*
X134368911Y-59245949D01*
X132945839Y-59245949D01*
X132878800Y-59226264D01*
X132833045Y-59173460D01*
X132823101Y-59104302D01*
X132852126Y-59040746D01*
X132858158Y-59034268D01*
X136339159Y-55553267D01*
X136400482Y-55519782D01*
X136426840Y-55516948D01*
X138148909Y-55516948D01*
X138148910Y-55516948D01*
X138242696Y-55502095D01*
X138355734Y-55444499D01*
X138445442Y-55354791D01*
X138503038Y-55241753D01*
X138503038Y-55241751D01*
X138503039Y-55241750D01*
X138517891Y-55147973D01*
X138517892Y-55147968D01*
X138517891Y-53284931D01*
X138503038Y-53191145D01*
X138445442Y-53078107D01*
X138445438Y-53078103D01*
X138445437Y-53078101D01*
X138355739Y-52988403D01*
X138355736Y-52988401D01*
X138355734Y-52988399D01*
X138276390Y-52947971D01*
X138242693Y-52930801D01*
X138148916Y-52915949D01*
X138148911Y-52915949D01*
X137941892Y-52915949D01*
X137874853Y-52896264D01*
X137829098Y-52843460D01*
X137817892Y-52791949D01*
X137817892Y-49426545D01*
X137826536Y-49397104D01*
X137833060Y-49367118D01*
X137836814Y-49362102D01*
X137837577Y-49359506D01*
X137854207Y-49338868D01*
X138012549Y-49180525D01*
X138073872Y-49147041D01*
X138138546Y-49150275D01*
X138152858Y-49154926D01*
X138355040Y-49186949D01*
X138355041Y-49186949D01*
X138559743Y-49186949D01*
X138559744Y-49186949D01*
X138761926Y-49154926D01*
X138956611Y-49091669D01*
X139139002Y-48998736D01*
X139258729Y-48911750D01*
X139304605Y-48878420D01*
X139304607Y-48878417D01*
X139304611Y-48878415D01*
X139449358Y-48733668D01*
X139472572Y-48701715D01*
X139527900Y-48659048D01*
X139597513Y-48653067D01*
X139659310Y-48685671D01*
X139693669Y-48746509D01*
X139696892Y-48774595D01*
X139696892Y-48817965D01*
X139706466Y-48878415D01*
X139711746Y-48911753D01*
X139769342Y-49024791D01*
X139769344Y-49024793D01*
X139769346Y-49024796D01*
X139859044Y-49114494D01*
X139859046Y-49114495D01*
X139859050Y-49114499D01*
X139972086Y-49172094D01*
X139972090Y-49172096D01*
X140065867Y-49186948D01*
X140065873Y-49186949D01*
X141928910Y-49186948D01*
X142022696Y-49172095D01*
X142135734Y-49114499D01*
X142225442Y-49024791D01*
X142283038Y-48911753D01*
X142283038Y-48911751D01*
X142283039Y-48911750D01*
X142297891Y-48817973D01*
X142297892Y-48817968D01*
X142297891Y-46954931D01*
X142297891Y-46954930D01*
X142297891Y-46954925D01*
X142286969Y-46885965D01*
X142295924Y-46816672D01*
X142340920Y-46763220D01*
X142407672Y-46742581D01*
X142474985Y-46761306D01*
X142497123Y-46778887D01*
X143366518Y-47648281D01*
X143366521Y-47648284D01*
X143443339Y-47704097D01*
X143443340Y-47704097D01*
X143443341Y-47704098D01*
X143563998Y-47743302D01*
X143563999Y-47743302D01*
X143690863Y-47743302D01*
X143690864Y-47743302D01*
X143811521Y-47704098D01*
X143888340Y-47648286D01*
X145205705Y-46330919D01*
X145261519Y-46254100D01*
X145300723Y-46133443D01*
X145300723Y-46006577D01*
X145261519Y-45885920D01*
X145235819Y-45850547D01*
X145205712Y-45809107D01*
X145205709Y-45809104D01*
X145205707Y-45809101D01*
X145175037Y-45778431D01*
X145141554Y-45717113D01*
X145146538Y-45647421D01*
X145188408Y-45591487D01*
X145253872Y-45567069D01*
X145282117Y-45568279D01*
X145321130Y-45574459D01*
X145321131Y-45574459D01*
X145525833Y-45574459D01*
X145525834Y-45574459D01*
X145728016Y-45542436D01*
X145922701Y-45479179D01*
X146105092Y-45386246D01*
X146198072Y-45318691D01*
X146270695Y-45265930D01*
X146270697Y-45265927D01*
X146270701Y-45265925D01*
X146415448Y-45121178D01*
X146415450Y-45121174D01*
X146415453Y-45121172D01*
X146468214Y-45048549D01*
X146535769Y-44955569D01*
X146628702Y-44773178D01*
X146691959Y-44578493D01*
X146723982Y-44376311D01*
X146723982Y-44171607D01*
X146691959Y-43969425D01*
X146628702Y-43774740D01*
X146628700Y-43774737D01*
X146628700Y-43774735D01*
X146594985Y-43708566D01*
X146535769Y-43592349D01*
X146528038Y-43581708D01*
X146415453Y-43426745D01*
X146270695Y-43281987D01*
X146105092Y-43161671D01*
X146091682Y-43154838D01*
X146040888Y-43106862D01*
X146023982Y-43044356D01*
X146023982Y-39698804D01*
X146043667Y-39631765D01*
X146060301Y-39611123D01*
X146483705Y-39187719D01*
X146539518Y-39110901D01*
X146539517Y-39110901D01*
X146539519Y-39110900D01*
X146578723Y-38990243D01*
X146578723Y-38863377D01*
X146539519Y-38742720D01*
X146513819Y-38707347D01*
X146483712Y-38665907D01*
X146483709Y-38665904D01*
X146483707Y-38665901D01*
X146453037Y-38635231D01*
X146419554Y-38573913D01*
X146424538Y-38504221D01*
X146466408Y-38448287D01*
X146531872Y-38423869D01*
X146560117Y-38425079D01*
X146599130Y-38431259D01*
X146599131Y-38431259D01*
X146803833Y-38431259D01*
X146803834Y-38431259D01*
X147006016Y-38399236D01*
X147200701Y-38335979D01*
X147383092Y-38243046D01*
X147476072Y-38175491D01*
X147548695Y-38122730D01*
X147548697Y-38122727D01*
X147548701Y-38122725D01*
X147693448Y-37977978D01*
X147693450Y-37977974D01*
X147693453Y-37977972D01*
X147746214Y-37905349D01*
X147813769Y-37812369D01*
X147906702Y-37629978D01*
X147969959Y-37435293D01*
X148001982Y-37233111D01*
X148001982Y-37028407D01*
X147969959Y-36826225D01*
X147906702Y-36631540D01*
X147906700Y-36631537D01*
X147906700Y-36631535D01*
X147872985Y-36565366D01*
X147813769Y-36449149D01*
X147755778Y-36369330D01*
X147693453Y-36283545D01*
X147548695Y-36138787D01*
X147383095Y-36018474D01*
X147383094Y-36018473D01*
X147383092Y-36018472D01*
X147326135Y-35989450D01*
X147200705Y-35925540D01*
X147006016Y-35862281D01*
X146831477Y-35834637D01*
X146803834Y-35830259D01*
X146599130Y-35830259D01*
X146574811Y-35834110D01*
X146396947Y-35862281D01*
X146202258Y-35925540D01*
X146019868Y-36018474D01*
X145854268Y-36138787D01*
X145709510Y-36283545D01*
X145589197Y-36449145D01*
X145496263Y-36631535D01*
X145433004Y-36826224D01*
X145400982Y-37028407D01*
X145400982Y-37233110D01*
X145407161Y-37272123D01*
X145398206Y-37341417D01*
X145353210Y-37394869D01*
X145286459Y-37415508D01*
X145219145Y-37396783D01*
X145197007Y-37379202D01*
X145166340Y-37348535D01*
X145089522Y-37292722D01*
X144968865Y-37253518D01*
X144968864Y-37253518D01*
X144841998Y-37253518D01*
X144841996Y-37253518D01*
X144721341Y-37292722D01*
X144721339Y-37292723D01*
X144644525Y-37348530D01*
X144644523Y-37348532D01*
X143327159Y-38665897D01*
X143327156Y-38665900D01*
X143271343Y-38742718D01*
X143232139Y-38863375D01*
X143232139Y-38863377D01*
X143232139Y-38990243D01*
X143271343Y-39110900D01*
X143271344Y-39110901D01*
X143327151Y-39187715D01*
X143327153Y-39187717D01*
X144644518Y-40505081D01*
X144644521Y-40505084D01*
X144721341Y-40560898D01*
X144737299Y-40566083D01*
X144794975Y-40605519D01*
X144822174Y-40669878D01*
X144822982Y-40684014D01*
X144822982Y-43044356D01*
X144803297Y-43111395D01*
X144755282Y-43154838D01*
X144741871Y-43161671D01*
X144576268Y-43281987D01*
X144576264Y-43281991D01*
X144490015Y-43368241D01*
X144428692Y-43401726D01*
X144402334Y-43404560D01*
X143138402Y-43404560D01*
X142985674Y-43445483D01*
X142967214Y-43456142D01*
X142967211Y-43456143D01*
X142848750Y-43524535D01*
X142848742Y-43524541D01*
X140516873Y-45856410D01*
X140516869Y-45856415D01*
X140499837Y-45885918D01*
X140499836Y-45885920D01*
X140437815Y-45993343D01*
X140396891Y-46146071D01*
X140396891Y-46146073D01*
X140396891Y-46314174D01*
X140396892Y-46314187D01*
X140396892Y-46461949D01*
X140377207Y-46528988D01*
X140324403Y-46574743D01*
X140272893Y-46585949D01*
X140065874Y-46585949D01*
X139984911Y-46598772D01*
X139972088Y-46600803D01*
X139859050Y-46658399D01*
X139859049Y-46658400D01*
X139859044Y-46658403D01*
X139769346Y-46748101D01*
X139769343Y-46748106D01*
X139711744Y-46861147D01*
X139696892Y-46954924D01*
X139696892Y-46998298D01*
X139677207Y-47065337D01*
X139624403Y-47111092D01*
X139555245Y-47121036D01*
X139491689Y-47092011D01*
X139472574Y-47071183D01*
X139449363Y-47039235D01*
X139304605Y-46894477D01*
X139139005Y-46774164D01*
X139139004Y-46774163D01*
X139139002Y-46774162D01*
X139077021Y-46742581D01*
X138956615Y-46681230D01*
X138761926Y-46617971D01*
X138587387Y-46590327D01*
X138559744Y-46585949D01*
X138355040Y-46585949D01*
X138330721Y-46589800D01*
X138152857Y-46617971D01*
X137958168Y-46681230D01*
X137775778Y-46774164D01*
X137610178Y-46894477D01*
X137465420Y-47039235D01*
X137345107Y-47204835D01*
X137252173Y-47387225D01*
X137188914Y-47581914D01*
X137156892Y-47784097D01*
X137156892Y-47988800D01*
X137188914Y-48190983D01*
X137193565Y-48205297D01*
X137195557Y-48275139D01*
X137163313Y-48331291D01*
X136848678Y-48645927D01*
X136736873Y-48757731D01*
X136736871Y-48757734D01*
X136702097Y-48817966D01*
X136702096Y-48817968D01*
X136657815Y-48894663D01*
X136657815Y-48894664D01*
X136616891Y-49047392D01*
X136616891Y-49047394D01*
X136616891Y-49215495D01*
X136616892Y-49215508D01*
X136616892Y-52791949D01*
X136597207Y-52858988D01*
X136544403Y-52904743D01*
X136492893Y-52915949D01*
X136285874Y-52915949D01*
X136204911Y-52928772D01*
X136192088Y-52930803D01*
X136079050Y-52988399D01*
X136079049Y-52988400D01*
X136079044Y-52988403D01*
X135989346Y-53078101D01*
X135989343Y-53078106D01*
X135931744Y-53191147D01*
X135916892Y-53284924D01*
X135916892Y-53328298D01*
X135897207Y-53395337D01*
X135844403Y-53441092D01*
X135775245Y-53451036D01*
X135711689Y-53422011D01*
X135692574Y-53401183D01*
X135669363Y-53369235D01*
X135524605Y-53224477D01*
X135359005Y-53104164D01*
X135359004Y-53104163D01*
X135359002Y-53104162D01*
X135302045Y-53075140D01*
X135176615Y-53011230D01*
X134981926Y-52947971D01*
X134807387Y-52920327D01*
X134779744Y-52915949D01*
X134575040Y-52915949D01*
X134550721Y-52919800D01*
X134372857Y-52947971D01*
X134178168Y-53011230D01*
X133995778Y-53104164D01*
X133830178Y-53224477D01*
X133685420Y-53369235D01*
X133565107Y-53534835D01*
X133472173Y-53717225D01*
X133408914Y-53911914D01*
X133376892Y-54114097D01*
X133376892Y-54318800D01*
X133408914Y-54520983D01*
X133472173Y-54715672D01*
X133565107Y-54898062D01*
X133685420Y-55063662D01*
X133830178Y-55208420D01*
X133985141Y-55321005D01*
X133995782Y-55328736D01*
X134111999Y-55387952D01*
X134178168Y-55421667D01*
X134178170Y-55421667D01*
X134178173Y-55421669D01*
X134372858Y-55484926D01*
X134422698Y-55492820D01*
X134485833Y-55522749D01*
X134522764Y-55582061D01*
X134521766Y-55651923D01*
X134490981Y-55702974D01*
X130984327Y-59209630D01*
X130923004Y-59243115D01*
X130896646Y-59245949D01*
X130795040Y-59245949D01*
X130770721Y-59249800D01*
X130592857Y-59277971D01*
X130398168Y-59341230D01*
X130215778Y-59434164D01*
X130050178Y-59554477D01*
X129905420Y-59699235D01*
X129785107Y-59864835D01*
X129692173Y-60047225D01*
X129628914Y-60241914D01*
X129596892Y-60444097D01*
X129596892Y-60648800D01*
X129628914Y-60850983D01*
X129633565Y-60865297D01*
X129635557Y-60935139D01*
X129603313Y-60991291D01*
X129288678Y-61305927D01*
X129176873Y-61417731D01*
X129176871Y-61417734D01*
X129142097Y-61477966D01*
X129142096Y-61477968D01*
X129097815Y-61554663D01*
X129097815Y-61554664D01*
X129056891Y-61707392D01*
X129056891Y-61707394D01*
X129056891Y-61875495D01*
X129056892Y-61875508D01*
X129056892Y-65451949D01*
X129037207Y-65518988D01*
X128984403Y-65564743D01*
X128932893Y-65575949D01*
X128725874Y-65575949D01*
X128644911Y-65588772D01*
X128632088Y-65590803D01*
X128519050Y-65648399D01*
X128519049Y-65648400D01*
X128519044Y-65648403D01*
X128429346Y-65738101D01*
X128429343Y-65738106D01*
X128371744Y-65851147D01*
X128356892Y-65944924D01*
X128356892Y-65988298D01*
X128337207Y-66055337D01*
X128284403Y-66101092D01*
X128215245Y-66111036D01*
X128151689Y-66082011D01*
X128132574Y-66061183D01*
X128109363Y-66029235D01*
X127964605Y-65884477D01*
X127799005Y-65764164D01*
X127799004Y-65764163D01*
X127799002Y-65764162D01*
X127742045Y-65735140D01*
X127616615Y-65671230D01*
X127421926Y-65607971D01*
X127247387Y-65580327D01*
X127219744Y-65575949D01*
X127015040Y-65575949D01*
X126990721Y-65579800D01*
X126812857Y-65607971D01*
X126618168Y-65671230D01*
X126435778Y-65764164D01*
X126270178Y-65884477D01*
X126125420Y-66029235D01*
X126005107Y-66194835D01*
X125912173Y-66377225D01*
X125848914Y-66571914D01*
X125816892Y-66774097D01*
X125816892Y-66978800D01*
X125848914Y-67180983D01*
X125853565Y-67195297D01*
X125855557Y-67265139D01*
X125823313Y-67321291D01*
X125508678Y-67635927D01*
X125396873Y-67747731D01*
X125396871Y-67747734D01*
X125362097Y-67807966D01*
X125362096Y-67807968D01*
X125317815Y-67884663D01*
X125309927Y-67914101D01*
X125276891Y-68037392D01*
X125276891Y-68037394D01*
X125276891Y-68205495D01*
X125276892Y-68205508D01*
X125276892Y-71781949D01*
X125257207Y-71848988D01*
X125204403Y-71894743D01*
X125152893Y-71905949D01*
X124945874Y-71905949D01*
X124864911Y-71918772D01*
X124852088Y-71920803D01*
X124739050Y-71978399D01*
X124739049Y-71978400D01*
X124739044Y-71978403D01*
X124649346Y-72068101D01*
X124649343Y-72068106D01*
X124591744Y-72181147D01*
X124576892Y-72274924D01*
X124576892Y-72318298D01*
X124557207Y-72385337D01*
X124504403Y-72431092D01*
X124435245Y-72441036D01*
X124371689Y-72412011D01*
X124352574Y-72391183D01*
X124329363Y-72359235D01*
X124184605Y-72214477D01*
X124019005Y-72094164D01*
X124019004Y-72094163D01*
X124019002Y-72094162D01*
X123915985Y-72041672D01*
X123836615Y-72001230D01*
X123641926Y-71937971D01*
X123467387Y-71910327D01*
X123439744Y-71905949D01*
X123235040Y-71905949D01*
X123210721Y-71909800D01*
X123032857Y-71937971D01*
X122838168Y-72001230D01*
X122655778Y-72094164D01*
X122490178Y-72214477D01*
X122345420Y-72359235D01*
X122225107Y-72524835D01*
X122132173Y-72707225D01*
X122068914Y-72901914D01*
X122036892Y-73104097D01*
X122036892Y-73308800D01*
X122068914Y-73510983D01*
X122073565Y-73525297D01*
X122075557Y-73595139D01*
X122043313Y-73651291D01*
X121728678Y-73965927D01*
X121616873Y-74077731D01*
X121616871Y-74077734D01*
X121582097Y-74137966D01*
X121582096Y-74137968D01*
X121537815Y-74214663D01*
X121537815Y-74214664D01*
X121496891Y-74367392D01*
X121496891Y-74367394D01*
X121496891Y-74535495D01*
X121496892Y-74535508D01*
X121496892Y-78111949D01*
X121477207Y-78178988D01*
X121424403Y-78224743D01*
X121372893Y-78235949D01*
X121165874Y-78235949D01*
X121084911Y-78248772D01*
X121072088Y-78250803D01*
X120959050Y-78308399D01*
X120959049Y-78308400D01*
X120959044Y-78308403D01*
X120869346Y-78398101D01*
X120869343Y-78398106D01*
X120811744Y-78511147D01*
X120796892Y-78604924D01*
X120796892Y-78648298D01*
X120777207Y-78715337D01*
X120724403Y-78761092D01*
X120655245Y-78771036D01*
X120591689Y-78742011D01*
X120572574Y-78721183D01*
X120549363Y-78689235D01*
X120404605Y-78544477D01*
X120239005Y-78424164D01*
X120239004Y-78424163D01*
X120239002Y-78424162D01*
X120182045Y-78395140D01*
X120056615Y-78331230D01*
X119861926Y-78267971D01*
X119687387Y-78240327D01*
X119659744Y-78235949D01*
X119455040Y-78235949D01*
X119430721Y-78239800D01*
X119252857Y-78267971D01*
X119058168Y-78331230D01*
X118875778Y-78424164D01*
X118710178Y-78544477D01*
X118565420Y-78689235D01*
X118445107Y-78854835D01*
X118352173Y-79037225D01*
X118288914Y-79231914D01*
X118256892Y-79434097D01*
X118256892Y-79638800D01*
X118288914Y-79840983D01*
X118352173Y-80035672D01*
X118408586Y-80146387D01*
X118441012Y-80210027D01*
X118445107Y-80218062D01*
X118565420Y-80383662D01*
X118710178Y-80528420D01*
X118865141Y-80641005D01*
X118875782Y-80648736D01*
X118962251Y-80692794D01*
X119058168Y-80741667D01*
X119058170Y-80741667D01*
X119058173Y-80741669D01*
X119128437Y-80764499D01*
X119252857Y-80804926D01*
X119340447Y-80818799D01*
X119455040Y-80836949D01*
X119497295Y-80836949D01*
X119564334Y-80856634D01*
X119584975Y-80873267D01*
X121278455Y-82566749D01*
X121278457Y-82566750D01*
X121278461Y-82566753D01*
X121415380Y-82645802D01*
X121415387Y-82645806D01*
X121568114Y-82686730D01*
X121568116Y-82686730D01*
X121733825Y-82686730D01*
X121733841Y-82686729D01*
X128014132Y-82686729D01*
X128081171Y-82706414D01*
X128101813Y-82723048D01*
X133170381Y-87791616D01*
X133185084Y-87818543D01*
X133201677Y-87844362D01*
X133202568Y-87850562D01*
X133203866Y-87852939D01*
X133206700Y-87879297D01*
X133206700Y-88018982D01*
X133187015Y-88086021D01*
X133134211Y-88131776D01*
X133065053Y-88141720D01*
X133024250Y-88128342D01*
X133021409Y-88126823D01*
X132893932Y-88074021D01*
X132893920Y-88074018D01*
X132824854Y-88060280D01*
X132787043Y-88046049D01*
X132768986Y-88035623D01*
X132768987Y-88035623D01*
X132706881Y-88018982D01*
X132616257Y-87994699D01*
X132458143Y-87994699D01*
X132450547Y-87994699D01*
X132450531Y-87994700D01*
X129626669Y-87994700D01*
X129626653Y-87994699D01*
X129619057Y-87994699D01*
X129460943Y-87994699D01*
X129346397Y-88025392D01*
X129308214Y-88035623D01*
X129266480Y-88059719D01*
X129266479Y-88059719D01*
X129171287Y-88114677D01*
X129171282Y-88114681D01*
X117731081Y-99554882D01*
X117731080Y-99554884D01*
X117682669Y-99638736D01*
X117680961Y-99641694D01*
X117680959Y-99641696D01*
X117652025Y-99691809D01*
X117652024Y-99691810D01*
X117649887Y-99699786D01*
X117611099Y-99844543D01*
X117611099Y-99844545D01*
X117611099Y-100012646D01*
X117611100Y-100012659D01*
X117611100Y-100311230D01*
X117592853Y-100373369D01*
X117593695Y-100373819D01*
X117591535Y-100377859D01*
X117591415Y-100378269D01*
X117590878Y-100379087D01*
X117590823Y-100379190D01*
X117538021Y-100506667D01*
X117538018Y-100506677D01*
X117511100Y-100642004D01*
X117511100Y-100642007D01*
X117511100Y-100779993D01*
X117511100Y-100779995D01*
X117511099Y-100779995D01*
X116742000Y-100779995D01*
X116742000Y-99347397D01*
X116761685Y-99280358D01*
X116778319Y-99259716D01*
X117311426Y-98726609D01*
X117892020Y-98146016D01*
X117971077Y-98009084D01*
X118012001Y-97856357D01*
X118012001Y-97698242D01*
X118012001Y-97690647D01*
X118012000Y-97690629D01*
X118012000Y-95030671D01*
X118031685Y-94963632D01*
X118084489Y-94917877D01*
X118153647Y-94907933D01*
X118204893Y-94927570D01*
X118209989Y-94930975D01*
X118209991Y-94930975D01*
X118209995Y-94930978D01*
X118268770Y-94955323D01*
X118337472Y-94983780D01*
X118337476Y-94983780D01*
X118337477Y-94983781D01*
X118472804Y-95010700D01*
X118472807Y-95010700D01*
X118610795Y-95010700D01*
X118707312Y-94991501D01*
X118746128Y-94983780D01*
X118873611Y-94930975D01*
X118988342Y-94854314D01*
X119085914Y-94756742D01*
X119162575Y-94642011D01*
X119215380Y-94514528D01*
X119215380Y-94514525D01*
X119217146Y-94508706D01*
X119218560Y-94509134D01*
X119247534Y-94453727D01*
X119249041Y-94452192D01*
X127662638Y-86038595D01*
X127719482Y-86007556D01*
X127719206Y-86006646D01*
X127723577Y-86005320D01*
X127723959Y-86005112D01*
X127724934Y-86004908D01*
X127725025Y-86004880D01*
X127725028Y-86004880D01*
X127852511Y-85952075D01*
X127967242Y-85875414D01*
X128064814Y-85777842D01*
X128141475Y-85663111D01*
X128194280Y-85535628D01*
X128221200Y-85400293D01*
X128221200Y-85262307D01*
X128221200Y-85262304D01*
X128194281Y-85126977D01*
X128194280Y-85126976D01*
X128194280Y-85126972D01*
X128179418Y-85091092D01*
X128141478Y-84999495D01*
X128141471Y-84999482D01*
X128064814Y-84884758D01*
X128064811Y-84884754D01*
X127967245Y-84787188D01*
X127967241Y-84787185D01*
X127852517Y-84710528D01*
X127852504Y-84710521D01*
X127725032Y-84657721D01*
X127725022Y-84657718D01*
X127589695Y-84630800D01*
X127589693Y-84630800D01*
X127451707Y-84630800D01*
X127451705Y-84630800D01*
X127316377Y-84657718D01*
X127316367Y-84657721D01*
X127188895Y-84710521D01*
X127188882Y-84710528D01*
X127074158Y-84787185D01*
X127074154Y-84787188D01*
X126976588Y-84884754D01*
X126976585Y-84884758D01*
X126899928Y-84999482D01*
X126899921Y-84999495D01*
X126847120Y-85126969D01*
X126845350Y-85132806D01*
X126843936Y-85132377D01*
X126814948Y-85187788D01*
X126813402Y-85189361D01*
X118399861Y-93602902D01*
X118343028Y-93633935D01*
X118343306Y-93634850D01*
X118338910Y-93636183D01*
X118338538Y-93636387D01*
X118337587Y-93636585D01*
X118337469Y-93636620D01*
X118209995Y-93689421D01*
X118209982Y-93689428D01*
X118095258Y-93766085D01*
X118095254Y-93766088D01*
X117997688Y-93863654D01*
X117997685Y-93863658D01*
X117921028Y-93978382D01*
X117921021Y-93978395D01*
X117868221Y-94105867D01*
X117868218Y-94105877D01*
X117841300Y-94241204D01*
X117841300Y-94351761D01*
X117821615Y-94418800D01*
X117768811Y-94464555D01*
X117699653Y-94474499D01*
X117636097Y-94445474D01*
X117629619Y-94439442D01*
X115874210Y-92684033D01*
X115840725Y-92622710D01*
X115837891Y-92596352D01*
X115837891Y-91796546D01*
X115857576Y-91729507D01*
X115874204Y-91708870D01*
X115918567Y-91664507D01*
X116781357Y-91664507D01*
X116801817Y-91806820D01*
X116801818Y-91806825D01*
X116861544Y-91937604D01*
X116899124Y-91984239D01*
X116899128Y-91984243D01*
X117233464Y-92318580D01*
X117233465Y-92318580D01*
X117841093Y-91710952D01*
X117841093Y-91717168D01*
X117868352Y-91818901D01*
X117921013Y-91910113D01*
X117995487Y-91984587D01*
X118086699Y-92037248D01*
X118188432Y-92064507D01*
X118194646Y-92064507D01*
X117587019Y-92672134D01*
X117921360Y-93006475D01*
X117967995Y-93044055D01*
X118098774Y-93103781D01*
X118098779Y-93103782D01*
X118241093Y-93124242D01*
X118383406Y-93103782D01*
X118383411Y-93103781D01*
X118514190Y-93044055D01*
X118560825Y-93006475D01*
X118895166Y-92672134D01*
X118895166Y-92672133D01*
X118287541Y-92064507D01*
X118293754Y-92064507D01*
X118395487Y-92037248D01*
X118486699Y-91984587D01*
X118561173Y-91910113D01*
X118613834Y-91818901D01*
X118641093Y-91717168D01*
X118641093Y-91710953D01*
X119248719Y-92318580D01*
X119248720Y-92318580D01*
X119583061Y-91984239D01*
X119620641Y-91937604D01*
X119680367Y-91806825D01*
X119680368Y-91806820D01*
X119700828Y-91664507D01*
X119680368Y-91522193D01*
X119680367Y-91522189D01*
X119668542Y-91496296D01*
X119658598Y-91427137D01*
X119687623Y-91363582D01*
X119746401Y-91325807D01*
X119761938Y-91322311D01*
X119907154Y-91299311D01*
X119930375Y-91291766D01*
X120068156Y-91246998D01*
X120218992Y-91170143D01*
X120355948Y-91070639D01*
X120475653Y-90950934D01*
X120575157Y-90813978D01*
X120652012Y-90663142D01*
X120704325Y-90502140D01*
X120730807Y-90334942D01*
X120730807Y-90165643D01*
X120704325Y-89998445D01*
X120652010Y-89837439D01*
X120624127Y-89782718D01*
X120575157Y-89686608D01*
X120549225Y-89650915D01*
X120475658Y-89549658D01*
X120475654Y-89549653D01*
X120355946Y-89429945D01*
X120355941Y-89429941D01*
X120218995Y-89330445D01*
X120218994Y-89330444D01*
X120218992Y-89330443D01*
X120171889Y-89306443D01*
X120068160Y-89253589D01*
X119907154Y-89201274D01*
X119739956Y-89174793D01*
X119739951Y-89174793D01*
X119570663Y-89174793D01*
X119570658Y-89174793D01*
X119403459Y-89201274D01*
X119242453Y-89253589D01*
X119091618Y-89330445D01*
X118954672Y-89429941D01*
X118954667Y-89429945D01*
X118834959Y-89549653D01*
X118834955Y-89549658D01*
X118735459Y-89686604D01*
X118658603Y-89837439D01*
X118606289Y-89998444D01*
X118583288Y-90143662D01*
X118553358Y-90206796D01*
X118494047Y-90243727D01*
X118424184Y-90242729D01*
X118409305Y-90237058D01*
X118383411Y-90225233D01*
X118383406Y-90225231D01*
X118241093Y-90204771D01*
X118098779Y-90225231D01*
X118098774Y-90225232D01*
X117967995Y-90284958D01*
X117921355Y-90322542D01*
X117587019Y-90656878D01*
X117587019Y-90656879D01*
X118194647Y-91264507D01*
X118188432Y-91264507D01*
X118086699Y-91291766D01*
X117995487Y-91344427D01*
X117921013Y-91418901D01*
X117868352Y-91510113D01*
X117841093Y-91611846D01*
X117841093Y-91618061D01*
X117233465Y-91010433D01*
X117233464Y-91010433D01*
X116899128Y-91344769D01*
X116861544Y-91391409D01*
X116801818Y-91522188D01*
X116801817Y-91522193D01*
X116781357Y-91664507D01*
X115918567Y-91664507D01*
X116146105Y-91436970D01*
X116146108Y-91436969D01*
X116257912Y-91325165D01*
X116308031Y-91238353D01*
X116336969Y-91188234D01*
X116377893Y-91035506D01*
X116377893Y-90877392D01*
X116377893Y-90869797D01*
X116377892Y-90869779D01*
X116377892Y-87096050D01*
X116397577Y-87029011D01*
X116445598Y-86985565D01*
X116459002Y-86978736D01*
X116624611Y-86858415D01*
X116769358Y-86713668D01*
X116792572Y-86681715D01*
X116847900Y-86639048D01*
X116917513Y-86633067D01*
X116979310Y-86665671D01*
X117013669Y-86726509D01*
X117016892Y-86754595D01*
X117016892Y-86797965D01*
X117026466Y-86858414D01*
X117031746Y-86891753D01*
X117089342Y-87004791D01*
X117089344Y-87004793D01*
X117089346Y-87004796D01*
X117179044Y-87094494D01*
X117179046Y-87094495D01*
X117179050Y-87094499D01*
X117292086Y-87152094D01*
X117292090Y-87152096D01*
X117385867Y-87166948D01*
X117385873Y-87166949D01*
X119248910Y-87166948D01*
X119342696Y-87152095D01*
X119455734Y-87094499D01*
X119545442Y-87004791D01*
X119603038Y-86891753D01*
X119603038Y-86891751D01*
X119603039Y-86891750D01*
X119617891Y-86797973D01*
X119617892Y-86797968D01*
X119617891Y-84934931D01*
X119603038Y-84841145D01*
X119545442Y-84728107D01*
X119545438Y-84728103D01*
X119545437Y-84728101D01*
X119455739Y-84638403D01*
X119455736Y-84638401D01*
X119455734Y-84638399D01*
X119378909Y-84599254D01*
X119342693Y-84580801D01*
X119248916Y-84565949D01*
X117385874Y-84565949D01*
X117304911Y-84578772D01*
X117292088Y-84580803D01*
X117179050Y-84638399D01*
X117179049Y-84638400D01*
X117179044Y-84638403D01*
X117089346Y-84728101D01*
X117089343Y-84728106D01*
X117031744Y-84841147D01*
X117016892Y-84934924D01*
X117016892Y-84978298D01*
X116997207Y-85045337D01*
X116944403Y-85091092D01*
X116875245Y-85101036D01*
X116811689Y-85072011D01*
X116792574Y-85051183D01*
X116769363Y-85019235D01*
X116624612Y-84874484D01*
X116624602Y-84874477D01*
X116608048Y-84862449D01*
X116580582Y-84842494D01*
X116537917Y-84787163D01*
X116531938Y-84717550D01*
X116564544Y-84655755D01*
X116565710Y-84654572D01*
X118809568Y-82410716D01*
X118888626Y-82273785D01*
X118929550Y-82121057D01*
X118929550Y-81962943D01*
X118888626Y-81810215D01*
X118809568Y-81673284D01*
X118697765Y-81561481D01*
X118560834Y-81482423D01*
X118408106Y-81441499D01*
X118249992Y-81441499D01*
X118135446Y-81472192D01*
X118097263Y-81482423D01*
X117960333Y-81561481D01*
X117960330Y-81561483D01*
X115408678Y-84113135D01*
X115296873Y-84224939D01*
X115296871Y-84224942D01*
X115246753Y-84311751D01*
X115246751Y-84311753D01*
X115217817Y-84361866D01*
X115217816Y-84361867D01*
X115217815Y-84361872D01*
X115176891Y-84514600D01*
X115176891Y-84514602D01*
X115176891Y-84636847D01*
X115157206Y-84703886D01*
X115109188Y-84747331D01*
X115095778Y-84754163D01*
X114930178Y-84874477D01*
X114785420Y-85019235D01*
X114665107Y-85184835D01*
X114572173Y-85367225D01*
X114508914Y-85561914D01*
X114476892Y-85764097D01*
X114476892Y-85968800D01*
X114508914Y-86170983D01*
X114572173Y-86365672D01*
X114665107Y-86548062D01*
X114785420Y-86713662D01*
X114785426Y-86713668D01*
X114930173Y-86858415D01*
X115095782Y-86978736D01*
X115109185Y-86985565D01*
X115159981Y-87033537D01*
X115176892Y-87096050D01*
X115176892Y-90656351D01*
X115168247Y-90685791D01*
X115161724Y-90715778D01*
X115157969Y-90720793D01*
X115157207Y-90723390D01*
X115140573Y-90744032D01*
X115024975Y-90859630D01*
X114963652Y-90893115D01*
X114937294Y-90895949D01*
X113605874Y-90895949D01*
X113524911Y-90908772D01*
X113512088Y-90910803D01*
X113399050Y-90968399D01*
X113399049Y-90968400D01*
X113399044Y-90968403D01*
X113309346Y-91058101D01*
X113309343Y-91058106D01*
X113251744Y-91171147D01*
X113236892Y-91264924D01*
X113236892Y-91308298D01*
X113217207Y-91375337D01*
X113164403Y-91421092D01*
X113095245Y-91431036D01*
X113031689Y-91402011D01*
X113012574Y-91381183D01*
X112989363Y-91349235D01*
X112844605Y-91204477D01*
X112679005Y-91084164D01*
X112679004Y-91084163D01*
X112679002Y-91084162D01*
X112622045Y-91055140D01*
X112496615Y-90991230D01*
X112301926Y-90927971D01*
X112127387Y-90900327D01*
X112099744Y-90895949D01*
X111895040Y-90895949D01*
X111870721Y-90899800D01*
X111692857Y-90927971D01*
X111498168Y-90991230D01*
X111315778Y-91084164D01*
X111150178Y-91204477D01*
X111005420Y-91349235D01*
X110885107Y-91514835D01*
X110792173Y-91697225D01*
X110728914Y-91891914D01*
X110696892Y-92094097D01*
X110696892Y-92298800D01*
X110728914Y-92500983D01*
X110733565Y-92515297D01*
X110735557Y-92585139D01*
X110703313Y-92641291D01*
X110388678Y-92955927D01*
X110276873Y-93067731D01*
X110276871Y-93067734D01*
X110242097Y-93127966D01*
X110242096Y-93127968D01*
X110197815Y-93204663D01*
X110197815Y-93204664D01*
X110156891Y-93357392D01*
X110156891Y-93357394D01*
X110156891Y-93525495D01*
X110156892Y-93525508D01*
X110156892Y-97101949D01*
X110137207Y-97168988D01*
X110084403Y-97214743D01*
X110032893Y-97225949D01*
X109825874Y-97225949D01*
X109744911Y-97238772D01*
X109732088Y-97240803D01*
X109619050Y-97298399D01*
X109619049Y-97298400D01*
X109619044Y-97298403D01*
X109529346Y-97388101D01*
X109529343Y-97388106D01*
X109529342Y-97388107D01*
X109522498Y-97401540D01*
X109471744Y-97501147D01*
X109456892Y-97594924D01*
X109456892Y-97638298D01*
X109437207Y-97705337D01*
X109384403Y-97751092D01*
X109315245Y-97761036D01*
X109251689Y-97732011D01*
X109232574Y-97711183D01*
X109209363Y-97679235D01*
X109064605Y-97534477D01*
X108899005Y-97414164D01*
X108899004Y-97414163D01*
X108899002Y-97414162D01*
X108842045Y-97385140D01*
X108716615Y-97321230D01*
X108521926Y-97257971D01*
X108347387Y-97230327D01*
X108319744Y-97225949D01*
X108115040Y-97225949D01*
X108090721Y-97229800D01*
X107912857Y-97257971D01*
X107718168Y-97321230D01*
X107535778Y-97414164D01*
X107370178Y-97534477D01*
X107225420Y-97679235D01*
X107105107Y-97844835D01*
X107012173Y-98027225D01*
X106948914Y-98221914D01*
X106916892Y-98424097D01*
X106916892Y-98628800D01*
X106948914Y-98830983D01*
X107012173Y-99025672D01*
X107105107Y-99208062D01*
X107225420Y-99373662D01*
X107225426Y-99373668D01*
X107370173Y-99518415D01*
X107535782Y-99638736D01*
X107549185Y-99645565D01*
X107599981Y-99693537D01*
X107616892Y-99756050D01*
X107616892Y-103316351D01*
X107608247Y-103345791D01*
X107601724Y-103375778D01*
X107597969Y-103380793D01*
X107597207Y-103383390D01*
X107580573Y-103404032D01*
X107464975Y-103519630D01*
X107403652Y-103553115D01*
X107377294Y-103555949D01*
X106045874Y-103555949D01*
X105964911Y-103568772D01*
X105952088Y-103570803D01*
X105839050Y-103628399D01*
X105839049Y-103628400D01*
X105839044Y-103628403D01*
X105749346Y-103718101D01*
X105749343Y-103718106D01*
X105691744Y-103831147D01*
X105676892Y-103924924D01*
X105676892Y-103968298D01*
X105657207Y-104035337D01*
X105604403Y-104081092D01*
X105535245Y-104091036D01*
X105471689Y-104062011D01*
X105452574Y-104041183D01*
X105429363Y-104009235D01*
X105284605Y-103864477D01*
X105119005Y-103744164D01*
X105119004Y-103744163D01*
X105119002Y-103744162D01*
X105062045Y-103715140D01*
X104936615Y-103651230D01*
X104741926Y-103587971D01*
X104567387Y-103560327D01*
X104539744Y-103555949D01*
X104335040Y-103555949D01*
X104310721Y-103559800D01*
X104132857Y-103587971D01*
X103938168Y-103651230D01*
X103755778Y-103744164D01*
X103590178Y-103864477D01*
X103445420Y-104009235D01*
X103325107Y-104174835D01*
X103232173Y-104357225D01*
X103168914Y-104551914D01*
X103136892Y-104754097D01*
X103136892Y-104958800D01*
X103168914Y-105160983D01*
X103232173Y-105355672D01*
X103258981Y-105408284D01*
X103323069Y-105534064D01*
X103325107Y-105538062D01*
X103445420Y-105703662D01*
X103590178Y-105848420D01*
X103745141Y-105961005D01*
X103755782Y-105968736D01*
X103871999Y-106027952D01*
X103938168Y-106061667D01*
X103938170Y-106061667D01*
X103938173Y-106061669D01*
X104008437Y-106084499D01*
X104132857Y-106124926D01*
X104233949Y-106140937D01*
X104335040Y-106156949D01*
X104335041Y-106156949D01*
X104539743Y-106156949D01*
X104539744Y-106156949D01*
X104741926Y-106124926D01*
X104936611Y-106061669D01*
X105119002Y-105968736D01*
X105238729Y-105881750D01*
X105284605Y-105848420D01*
X105284607Y-105848417D01*
X105284611Y-105848415D01*
X105429358Y-105703668D01*
X105452572Y-105671715D01*
X105507900Y-105629048D01*
X105577513Y-105623067D01*
X105639310Y-105655671D01*
X105673669Y-105716509D01*
X105676892Y-105744595D01*
X105676892Y-105787965D01*
X105686466Y-105848415D01*
X105691746Y-105881753D01*
X105749342Y-105994791D01*
X105749344Y-105994793D01*
X105749346Y-105994796D01*
X105839044Y-106084494D01*
X105839046Y-106084495D01*
X105839050Y-106084499D01*
X105952086Y-106142094D01*
X105952090Y-106142096D01*
X106045867Y-106156948D01*
X106045873Y-106156949D01*
X107908910Y-106156948D01*
X108002696Y-106142095D01*
X108115734Y-106084499D01*
X108205442Y-105994791D01*
X108263038Y-105881753D01*
X108263038Y-105881751D01*
X108263039Y-105881750D01*
X108277891Y-105787973D01*
X108277892Y-105787968D01*
X108277891Y-104456544D01*
X108297576Y-104389506D01*
X108314205Y-104368869D01*
X108575898Y-104107177D01*
X108575903Y-104107173D01*
X108586106Y-104096969D01*
X108586108Y-104096969D01*
X108697912Y-103985165D01*
X108750867Y-103893443D01*
X108766431Y-103866486D01*
X108766432Y-103866485D01*
X108770707Y-103859078D01*
X108776969Y-103848234D01*
X108817893Y-103695506D01*
X108817893Y-103537392D01*
X108817893Y-103529797D01*
X108817892Y-103529779D01*
X108817892Y-99756050D01*
X108837577Y-99689011D01*
X108885598Y-99645565D01*
X108899002Y-99638736D01*
X109064611Y-99518415D01*
X109209358Y-99373668D01*
X109232572Y-99341715D01*
X109287900Y-99299048D01*
X109357513Y-99293067D01*
X109419310Y-99325671D01*
X109453669Y-99386509D01*
X109456892Y-99414595D01*
X109456892Y-99457965D01*
X109466466Y-99518414D01*
X109471746Y-99551753D01*
X109529342Y-99664791D01*
X109529344Y-99664793D01*
X109529346Y-99664796D01*
X109619044Y-99754494D01*
X109619046Y-99754495D01*
X109619050Y-99754499D01*
X109732086Y-99812094D01*
X109732090Y-99812096D01*
X109825867Y-99826948D01*
X109825873Y-99826949D01*
X111688910Y-99826948D01*
X111782696Y-99812095D01*
X111895734Y-99754499D01*
X111895739Y-99754494D01*
X111963819Y-99686415D01*
X112025142Y-99652930D01*
X112094834Y-99657914D01*
X112150767Y-99699786D01*
X112175184Y-99765250D01*
X112175500Y-99774096D01*
X112175500Y-103839902D01*
X112155815Y-103906941D01*
X112139181Y-103927583D01*
X104929481Y-111137282D01*
X104929477Y-111137287D01*
X104907693Y-111175021D01*
X104907692Y-111175023D01*
X104873584Y-111234099D01*
X104856585Y-111263543D01*
X104850423Y-111274215D01*
X104809499Y-111426943D01*
X104809499Y-111426945D01*
X104809499Y-111595046D01*
X104809500Y-111595059D01*
X104809500Y-115701703D01*
X104789815Y-115768742D01*
X104773181Y-115789384D01*
X100193784Y-120368781D01*
X100132461Y-120402266D01*
X100106103Y-120405100D01*
X94586389Y-120405100D01*
X94545468Y-120416064D01*
X94545468Y-120416065D01*
X94515937Y-120423978D01*
X94433663Y-120446023D01*
X94433658Y-120446026D01*
X94296739Y-120525075D01*
X94296731Y-120525081D01*
X92616873Y-122204939D01*
X92616871Y-122204942D01*
X92581455Y-122266286D01*
X92581454Y-122266288D01*
X92537815Y-122341871D01*
X92528110Y-122378090D01*
X92496891Y-122494600D01*
X92496891Y-122494602D01*
X92496891Y-122616847D01*
X92477206Y-122683886D01*
X92429188Y-122727331D01*
X92415778Y-122734163D01*
X92250178Y-122854477D01*
X92105420Y-122999235D01*
X91985107Y-123164835D01*
X91892173Y-123347225D01*
X91828914Y-123541914D01*
X91796892Y-123744097D01*
X91796892Y-123948800D01*
X91824821Y-124125139D01*
X91828915Y-124150983D01*
X91836526Y-124174407D01*
X91845424Y-124201793D01*
X91847418Y-124271634D01*
X91815173Y-124327790D01*
X91102723Y-125040240D01*
X91102715Y-125040248D01*
X91099878Y-125043086D01*
X91099876Y-125043088D01*
X90988072Y-125154892D01*
X90967398Y-125190701D01*
X90909015Y-125291823D01*
X90868091Y-125444551D01*
X90868091Y-125444553D01*
X90868091Y-125612654D01*
X90868092Y-125612667D01*
X90868092Y-127972002D01*
X90848407Y-128039041D01*
X90831773Y-128059683D01*
X89890317Y-129001140D01*
X89890315Y-129001142D01*
X89834504Y-129077957D01*
X89795300Y-129198614D01*
X89795300Y-129198616D01*
X89795300Y-129325482D01*
X89834504Y-129446139D01*
X89834505Y-129446140D01*
X89890310Y-129522951D01*
X89890313Y-129522954D01*
X89890316Y-129522958D01*
X89920984Y-129553626D01*
X89954468Y-129614945D01*
X89949484Y-129684637D01*
X89907614Y-129740571D01*
X89842150Y-129764989D01*
X89813907Y-129763779D01*
X89801078Y-129761747D01*
X89774893Y-129757600D01*
X89570189Y-129757600D01*
X89545870Y-129761451D01*
X89368006Y-129789622D01*
X89173317Y-129852881D01*
X88990927Y-129945815D01*
X88825327Y-130066128D01*
X88680569Y-130210886D01*
X88560256Y-130376486D01*
X88467322Y-130558876D01*
X88404063Y-130753565D01*
X88372041Y-130955748D01*
X86434147Y-130955748D01*
X86422548Y-130905486D01*
X86420489Y-130894199D01*
X86370307Y-130522081D01*
X86369302Y-130510630D01*
X86365611Y-130421281D01*
X86353805Y-130135488D01*
X86353862Y-130124025D01*
X86373184Y-129749029D01*
X86374308Y-129737591D01*
X86378002Y-129712161D01*
X86428276Y-129366033D01*
X86430453Y-129354752D01*
X86437523Y-129325482D01*
X86518610Y-128989771D01*
X86521814Y-128978766D01*
X86643408Y-128623499D01*
X86647621Y-128612834D01*
X86801596Y-128270366D01*
X86806773Y-128260146D01*
X86993245Y-127930875D01*
X86993659Y-127930153D01*
X86994876Y-127928038D01*
X87029734Y-127872646D01*
X87033177Y-127861507D01*
X87040089Y-127849502D01*
X87040504Y-127849104D01*
X87041082Y-127847808D01*
X93270249Y-117414097D01*
X95576892Y-117414097D01*
X95576892Y-117618801D01*
X95581270Y-117646444D01*
X95608914Y-117820983D01*
X95672173Y-118015672D01*
X95765107Y-118198062D01*
X95885420Y-118363662D01*
X96030178Y-118508420D01*
X96134071Y-118583901D01*
X96195782Y-118628736D01*
X96311999Y-118687952D01*
X96378168Y-118721667D01*
X96378170Y-118721667D01*
X96378173Y-118721669D01*
X96448437Y-118744499D01*
X96572857Y-118784926D01*
X96633778Y-118794575D01*
X96775040Y-118816949D01*
X96775041Y-118816949D01*
X96979743Y-118816949D01*
X96979744Y-118816949D01*
X97181926Y-118784926D01*
X97376611Y-118721669D01*
X97559002Y-118628736D01*
X97693637Y-118530919D01*
X97724605Y-118508420D01*
X97724607Y-118508417D01*
X97724611Y-118508415D01*
X97869358Y-118363668D01*
X97892572Y-118331715D01*
X97947900Y-118289048D01*
X98017513Y-118283067D01*
X98079310Y-118315671D01*
X98113669Y-118376509D01*
X98116892Y-118404595D01*
X98116892Y-118447965D01*
X98119462Y-118464190D01*
X98131746Y-118541753D01*
X98189342Y-118654791D01*
X98189344Y-118654793D01*
X98189346Y-118654796D01*
X98279044Y-118744494D01*
X98279046Y-118744495D01*
X98279050Y-118744499D01*
X98392086Y-118802094D01*
X98392090Y-118802096D01*
X98485867Y-118816948D01*
X98485873Y-118816949D01*
X100348910Y-118816948D01*
X100442696Y-118802095D01*
X100555734Y-118744499D01*
X100645442Y-118654791D01*
X100703038Y-118541753D01*
X100703038Y-118541751D01*
X100703039Y-118541750D01*
X100717891Y-118447973D01*
X100717892Y-118447968D01*
X100717891Y-116584931D01*
X100703038Y-116491145D01*
X100645442Y-116378107D01*
X100645438Y-116378103D01*
X100645437Y-116378101D01*
X100555739Y-116288403D01*
X100555736Y-116288401D01*
X100555734Y-116288399D01*
X100476390Y-116247971D01*
X100442693Y-116230801D01*
X100348916Y-116215949D01*
X100348911Y-116215949D01*
X100141892Y-116215949D01*
X100074853Y-116196264D01*
X100029098Y-116143460D01*
X100017892Y-116091949D01*
X100017892Y-112726545D01*
X100026536Y-112697104D01*
X100033060Y-112667118D01*
X100036814Y-112662102D01*
X100037577Y-112659506D01*
X100054207Y-112638868D01*
X100212549Y-112480525D01*
X100273872Y-112447041D01*
X100338546Y-112450275D01*
X100352858Y-112454926D01*
X100555040Y-112486949D01*
X100555041Y-112486949D01*
X100759743Y-112486949D01*
X100759744Y-112486949D01*
X100961926Y-112454926D01*
X101156611Y-112391669D01*
X101339002Y-112298736D01*
X101473093Y-112201314D01*
X101504605Y-112178420D01*
X101504607Y-112178417D01*
X101504611Y-112178415D01*
X101649358Y-112033668D01*
X101672572Y-112001715D01*
X101727900Y-111959048D01*
X101797513Y-111953067D01*
X101859310Y-111985671D01*
X101893669Y-112046509D01*
X101896892Y-112074595D01*
X101896892Y-112117965D01*
X101906466Y-112178415D01*
X101911746Y-112211753D01*
X101969342Y-112324791D01*
X101969344Y-112324793D01*
X101969346Y-112324796D01*
X102059044Y-112414494D01*
X102059046Y-112414495D01*
X102059050Y-112414499D01*
X102172086Y-112472094D01*
X102172090Y-112472096D01*
X102265867Y-112486948D01*
X102265873Y-112486949D01*
X104128910Y-112486948D01*
X104222696Y-112472095D01*
X104335734Y-112414499D01*
X104425442Y-112324791D01*
X104483038Y-112211753D01*
X104483038Y-112211751D01*
X104483039Y-112211750D01*
X104497891Y-112117973D01*
X104497892Y-112117968D01*
X104497891Y-110254931D01*
X104483038Y-110161145D01*
X104425442Y-110048107D01*
X104425438Y-110048103D01*
X104425437Y-110048101D01*
X104335739Y-109958403D01*
X104335736Y-109958401D01*
X104335734Y-109958399D01*
X104256390Y-109917971D01*
X104222693Y-109900801D01*
X104128916Y-109885949D01*
X102265874Y-109885949D01*
X102184911Y-109898772D01*
X102172088Y-109900803D01*
X102059050Y-109958399D01*
X102059049Y-109958400D01*
X102059044Y-109958403D01*
X101969346Y-110048101D01*
X101969343Y-110048106D01*
X101911744Y-110161147D01*
X101896892Y-110254924D01*
X101896892Y-110298298D01*
X101877207Y-110365337D01*
X101824403Y-110411092D01*
X101755245Y-110421036D01*
X101691689Y-110392011D01*
X101672574Y-110371183D01*
X101649363Y-110339235D01*
X101504605Y-110194477D01*
X101339005Y-110074164D01*
X101339004Y-110074163D01*
X101339002Y-110074162D01*
X101282045Y-110045140D01*
X101156615Y-109981230D01*
X100961926Y-109917971D01*
X100787387Y-109890327D01*
X100759744Y-109885949D01*
X100555040Y-109885949D01*
X100530721Y-109889800D01*
X100352857Y-109917971D01*
X100158168Y-109981230D01*
X99975778Y-110074164D01*
X99810178Y-110194477D01*
X99665420Y-110339235D01*
X99545107Y-110504835D01*
X99452173Y-110687225D01*
X99388914Y-110881914D01*
X99356892Y-111084097D01*
X99356892Y-111288800D01*
X99388914Y-111490983D01*
X99393565Y-111505297D01*
X99395557Y-111575139D01*
X99363313Y-111631291D01*
X99048678Y-111945927D01*
X98936873Y-112057731D01*
X98936871Y-112057734D01*
X98902097Y-112117966D01*
X98902096Y-112117968D01*
X98857815Y-112194663D01*
X98857815Y-112194664D01*
X98816891Y-112347392D01*
X98816891Y-112347394D01*
X98816891Y-112515495D01*
X98816892Y-112515508D01*
X98816892Y-116091949D01*
X98797207Y-116158988D01*
X98744403Y-116204743D01*
X98692893Y-116215949D01*
X98485874Y-116215949D01*
X98404911Y-116228772D01*
X98392088Y-116230803D01*
X98279050Y-116288399D01*
X98279049Y-116288400D01*
X98279044Y-116288403D01*
X98189346Y-116378101D01*
X98189343Y-116378106D01*
X98131744Y-116491147D01*
X98116892Y-116584924D01*
X98116892Y-116628298D01*
X98097207Y-116695337D01*
X98044403Y-116741092D01*
X97975245Y-116751036D01*
X97911689Y-116722011D01*
X97892574Y-116701183D01*
X97869363Y-116669235D01*
X97724605Y-116524477D01*
X97559005Y-116404164D01*
X97559004Y-116404163D01*
X97559002Y-116404162D01*
X97492966Y-116370515D01*
X97376615Y-116311230D01*
X97181926Y-116247971D01*
X97007387Y-116220327D01*
X96979744Y-116215949D01*
X96775040Y-116215949D01*
X96750721Y-116219800D01*
X96572857Y-116247971D01*
X96378168Y-116311230D01*
X96195778Y-116404164D01*
X96030178Y-116524477D01*
X95885420Y-116669235D01*
X95765107Y-116834835D01*
X95672173Y-117017225D01*
X95608914Y-117211914D01*
X95587731Y-117345661D01*
X95576892Y-117414097D01*
X93270249Y-117414097D01*
X141982197Y-35822709D01*
X141983093Y-35821832D01*
X142015388Y-35767124D01*
X142015450Y-35767022D01*
X142015488Y-35766986D01*
X142018159Y-35762693D01*
X142236933Y-35428568D01*
X142243662Y-35419263D01*
X142490679Y-35109110D01*
X142498236Y-35100477D01*
X142772951Y-34814553D01*
X142781260Y-34806672D01*
X143081304Y-34547448D01*
X143090328Y-34540356D01*
X143413101Y-34310074D01*
X143422735Y-34303854D01*
X143765465Y-34104490D01*
X143775659Y-34099178D01*
X144135391Y-33932450D01*
X144146011Y-33928115D01*
X144519668Y-33795452D01*
X144530651Y-33792118D01*
X144914979Y-33694674D01*
X144926232Y-33692371D01*
X145317943Y-33630978D01*
X145329370Y-33629727D01*
X145725072Y-33604916D01*
X145736570Y-33604731D01*
X146132868Y-33616713D01*
G37*
%TD.AperFunction*%
%TD*%
M02*
