%TF.GenerationSoftware,KiCad,Pcbnew,10.0.2*%
%TF.CreationDate,2026-05-29T20:59:03+03:00*%
%TF.ProjectId,kicad_selka_rev2,6b696361-645f-4736-956c-6b615f726576,rev?*%
%TF.SameCoordinates,Original*%
%TF.FileFunction,Legend,Bot*%
%TF.FilePolarity,Positive*%
%FSLAX46Y46*%
G04 Gerber Fmt 4.6, Leading zero omitted, Abs format (unit mm)*
G04 Created by KiCad (PCBNEW 10.0.2) date 2026-05-29 20:59:03*
%MOMM*%
%LPD*%
G01*
G04 APERTURE LIST*
%ADD10C,0.125000*%
%ADD11C,0.150000*%
%ADD12C,0.200000*%
%ADD13C,0.120000*%
G04 APERTURE END LIST*
D10*
X100336735Y-123657195D02*
X100717687Y-123657195D01*
X100717687Y-123657195D02*
X100755783Y-124038147D01*
X100755783Y-124038147D02*
X100717687Y-124000052D01*
X100717687Y-124000052D02*
X100641497Y-123961957D01*
X100641497Y-123961957D02*
X100451021Y-123961957D01*
X100451021Y-123961957D02*
X100374830Y-124000052D01*
X100374830Y-124000052D02*
X100336735Y-124038147D01*
X100336735Y-124038147D02*
X100298640Y-124114338D01*
X100298640Y-124114338D02*
X100298640Y-124304814D01*
X100298640Y-124304814D02*
X100336735Y-124381004D01*
X100336735Y-124381004D02*
X100374830Y-124419100D01*
X100374830Y-124419100D02*
X100451021Y-124457195D01*
X100451021Y-124457195D02*
X100641497Y-124457195D01*
X100641497Y-124457195D02*
X100717687Y-124419100D01*
X100717687Y-124419100D02*
X100755783Y-124381004D01*
X100070068Y-123657195D02*
X99803401Y-124457195D01*
X99803401Y-124457195D02*
X99536735Y-123657195D01*
X103575240Y-123720690D02*
X103651430Y-123682595D01*
X103651430Y-123682595D02*
X103765716Y-123682595D01*
X103765716Y-123682595D02*
X103880002Y-123720690D01*
X103880002Y-123720690D02*
X103956192Y-123796880D01*
X103956192Y-123796880D02*
X103994287Y-123873071D01*
X103994287Y-123873071D02*
X104032383Y-124025452D01*
X104032383Y-124025452D02*
X104032383Y-124139738D01*
X104032383Y-124139738D02*
X103994287Y-124292119D01*
X103994287Y-124292119D02*
X103956192Y-124368309D01*
X103956192Y-124368309D02*
X103880002Y-124444500D01*
X103880002Y-124444500D02*
X103765716Y-124482595D01*
X103765716Y-124482595D02*
X103689525Y-124482595D01*
X103689525Y-124482595D02*
X103575240Y-124444500D01*
X103575240Y-124444500D02*
X103537144Y-124406404D01*
X103537144Y-124406404D02*
X103537144Y-124139738D01*
X103537144Y-124139738D02*
X103689525Y-124139738D01*
X103194287Y-124482595D02*
X103194287Y-123682595D01*
X103194287Y-123682595D02*
X102737144Y-124482595D01*
X102737144Y-124482595D02*
X102737144Y-123682595D01*
X102356192Y-124482595D02*
X102356192Y-123682595D01*
X102356192Y-123682595D02*
X102165716Y-123682595D01*
X102165716Y-123682595D02*
X102051430Y-123720690D01*
X102051430Y-123720690D02*
X101975240Y-123796880D01*
X101975240Y-123796880D02*
X101937145Y-123873071D01*
X101937145Y-123873071D02*
X101899049Y-124025452D01*
X101899049Y-124025452D02*
X101899049Y-124139738D01*
X101899049Y-124139738D02*
X101937145Y-124292119D01*
X101937145Y-124292119D02*
X101975240Y-124368309D01*
X101975240Y-124368309D02*
X102051430Y-124444500D01*
X102051430Y-124444500D02*
X102165716Y-124482595D01*
X102165716Y-124482595D02*
X102356192Y-124482595D01*
D11*
X109101651Y-114886548D02*
X109674071Y-114785533D01*
X109505712Y-115290609D02*
X110212819Y-114583502D01*
X110212819Y-114583502D02*
X109943445Y-114314128D01*
X109943445Y-114314128D02*
X109842430Y-114280456D01*
X109842430Y-114280456D02*
X109775086Y-114280456D01*
X109775086Y-114280456D02*
X109674071Y-114314128D01*
X109674071Y-114314128D02*
X109573056Y-114415143D01*
X109573056Y-114415143D02*
X109539384Y-114516158D01*
X109539384Y-114516158D02*
X109539384Y-114583502D01*
X109539384Y-114583502D02*
X109573056Y-114684517D01*
X109573056Y-114684517D02*
X109842430Y-114953891D01*
X109168995Y-114213113D02*
X108933293Y-113977410D01*
X108461888Y-114246784D02*
X108798606Y-114583502D01*
X108798606Y-114583502D02*
X109505712Y-113876395D01*
X109505712Y-113876395D02*
X109168995Y-113539678D01*
X108226186Y-113943739D02*
X108091499Y-113876395D01*
X108091499Y-113876395D02*
X107923140Y-113708036D01*
X107923140Y-113708036D02*
X107889468Y-113607021D01*
X107889468Y-113607021D02*
X107889468Y-113539678D01*
X107889468Y-113539678D02*
X107923140Y-113438662D01*
X107923140Y-113438662D02*
X107990484Y-113371319D01*
X107990484Y-113371319D02*
X108091499Y-113337647D01*
X108091499Y-113337647D02*
X108158842Y-113337647D01*
X108158842Y-113337647D02*
X108259858Y-113371319D01*
X108259858Y-113371319D02*
X108428216Y-113472334D01*
X108428216Y-113472334D02*
X108529232Y-113506006D01*
X108529232Y-113506006D02*
X108596575Y-113506006D01*
X108596575Y-113506006D02*
X108697590Y-113472334D01*
X108697590Y-113472334D02*
X108764934Y-113404991D01*
X108764934Y-113404991D02*
X108798606Y-113303975D01*
X108798606Y-113303975D02*
X108798606Y-113236632D01*
X108798606Y-113236632D02*
X108764934Y-113135617D01*
X108764934Y-113135617D02*
X108596575Y-112967258D01*
X108596575Y-112967258D02*
X108461888Y-112899914D01*
X107855797Y-112899914D02*
X107620094Y-112664212D01*
X107148690Y-112933586D02*
X107485407Y-113270304D01*
X107485407Y-113270304D02*
X108192514Y-112563197D01*
X108192514Y-112563197D02*
X107855797Y-112226479D01*
X107653766Y-112024449D02*
X107249705Y-111620388D01*
X106744629Y-112529525D02*
X107451735Y-111822418D01*
X111078758Y-112722784D02*
X111179773Y-112756456D01*
X111179773Y-112756456D02*
X111280789Y-112857471D01*
X111280789Y-112857471D02*
X111348132Y-112992158D01*
X111348132Y-112992158D02*
X111348132Y-113126846D01*
X111348132Y-113126846D02*
X111314460Y-113227861D01*
X111314460Y-113227861D02*
X111213445Y-113396220D01*
X111213445Y-113396220D02*
X111112430Y-113497235D01*
X111112430Y-113497235D02*
X110944071Y-113598250D01*
X110944071Y-113598250D02*
X110843056Y-113631922D01*
X110843056Y-113631922D02*
X110708369Y-113631922D01*
X110708369Y-113631922D02*
X110573682Y-113564578D01*
X110573682Y-113564578D02*
X110506338Y-113497235D01*
X110506338Y-113497235D02*
X110438995Y-113362548D01*
X110438995Y-113362548D02*
X110438995Y-113295204D01*
X110438995Y-113295204D02*
X110674697Y-113059502D01*
X110674697Y-113059502D02*
X110809384Y-113194189D01*
X110068606Y-113059502D02*
X110775712Y-112352395D01*
X110775712Y-112352395D02*
X109664545Y-112655441D01*
X109664545Y-112655441D02*
X110371651Y-111948334D01*
X109327827Y-112318724D02*
X110034934Y-111611617D01*
X110034934Y-111611617D02*
X109866575Y-111443258D01*
X109866575Y-111443258D02*
X109731888Y-111375914D01*
X109731888Y-111375914D02*
X109597201Y-111375914D01*
X109597201Y-111375914D02*
X109496186Y-111409586D01*
X109496186Y-111409586D02*
X109327827Y-111510601D01*
X109327827Y-111510601D02*
X109226812Y-111611617D01*
X109226812Y-111611617D02*
X109125797Y-111779975D01*
X109125797Y-111779975D02*
X109092125Y-111880991D01*
X109092125Y-111880991D02*
X109092125Y-112015678D01*
X109092125Y-112015678D02*
X109159468Y-112150365D01*
X109159468Y-112150365D02*
X109327827Y-112318724D01*
X112670102Y-111325784D02*
X113006819Y-111662502D01*
X113006819Y-111662502D02*
X112703773Y-112032891D01*
X112703773Y-112032891D02*
X112703773Y-111965548D01*
X112703773Y-111965548D02*
X112670102Y-111864533D01*
X112670102Y-111864533D02*
X112501743Y-111696174D01*
X112501743Y-111696174D02*
X112400728Y-111662502D01*
X112400728Y-111662502D02*
X112333384Y-111662502D01*
X112333384Y-111662502D02*
X112232369Y-111696174D01*
X112232369Y-111696174D02*
X112064010Y-111864533D01*
X112064010Y-111864533D02*
X112030338Y-111965548D01*
X112030338Y-111965548D02*
X112030338Y-112032891D01*
X112030338Y-112032891D02*
X112064010Y-112133907D01*
X112064010Y-112133907D02*
X112232369Y-112302265D01*
X112232369Y-112302265D02*
X112333384Y-112335937D01*
X112333384Y-112335937D02*
X112400728Y-112335937D01*
X112434399Y-111090082D02*
X111491590Y-111561487D01*
X111491590Y-111561487D02*
X111962995Y-110618678D01*
X113891056Y-111099609D02*
X113756369Y-111032265D01*
X113756369Y-111032265D02*
X113588010Y-110863907D01*
X113588010Y-110863907D02*
X113554338Y-110762891D01*
X113554338Y-110762891D02*
X113554338Y-110695548D01*
X113554338Y-110695548D02*
X113588010Y-110594533D01*
X113588010Y-110594533D02*
X113655354Y-110527189D01*
X113655354Y-110527189D02*
X113756369Y-110493517D01*
X113756369Y-110493517D02*
X113823712Y-110493517D01*
X113823712Y-110493517D02*
X113924728Y-110527189D01*
X113924728Y-110527189D02*
X114093086Y-110628204D01*
X114093086Y-110628204D02*
X114194102Y-110661876D01*
X114194102Y-110661876D02*
X114261445Y-110661876D01*
X114261445Y-110661876D02*
X114362460Y-110628204D01*
X114362460Y-110628204D02*
X114429804Y-110560861D01*
X114429804Y-110560861D02*
X114463476Y-110459846D01*
X114463476Y-110459846D02*
X114463476Y-110392502D01*
X114463476Y-110392502D02*
X114429804Y-110291487D01*
X114429804Y-110291487D02*
X114261445Y-110123128D01*
X114261445Y-110123128D02*
X114126758Y-110055784D01*
X112813560Y-109954769D02*
X112813560Y-110022113D01*
X112813560Y-110022113D02*
X112880903Y-110156800D01*
X112880903Y-110156800D02*
X112948247Y-110224143D01*
X112948247Y-110224143D02*
X113082934Y-110291487D01*
X113082934Y-110291487D02*
X113217621Y-110291487D01*
X113217621Y-110291487D02*
X113318636Y-110257815D01*
X113318636Y-110257815D02*
X113486995Y-110156800D01*
X113486995Y-110156800D02*
X113588010Y-110055784D01*
X113588010Y-110055784D02*
X113689025Y-109887426D01*
X113689025Y-109887426D02*
X113722697Y-109786410D01*
X113722697Y-109786410D02*
X113722697Y-109651723D01*
X113722697Y-109651723D02*
X113655354Y-109517036D01*
X113655354Y-109517036D02*
X113588010Y-109449693D01*
X113588010Y-109449693D02*
X113453323Y-109382349D01*
X113453323Y-109382349D02*
X113385980Y-109382349D01*
X112443171Y-109719067D02*
X113150277Y-109011960D01*
X112039110Y-109315006D02*
X112746216Y-109213991D01*
X112746216Y-108607899D02*
X112746216Y-109416021D01*
X115093712Y-109575609D02*
X115800819Y-108868502D01*
X115800819Y-108868502D02*
X115060041Y-109137876D01*
X115060041Y-109137876D02*
X115329415Y-108397097D01*
X115329415Y-108397097D02*
X114622308Y-109104204D01*
X114285591Y-108767487D02*
X114992697Y-108060380D01*
X114016217Y-108430770D02*
X113881530Y-108363426D01*
X113881530Y-108363426D02*
X113713171Y-108195067D01*
X113713171Y-108195067D02*
X113679499Y-108094052D01*
X113679499Y-108094052D02*
X113679499Y-108026709D01*
X113679499Y-108026709D02*
X113713171Y-107925693D01*
X113713171Y-107925693D02*
X113780515Y-107858350D01*
X113780515Y-107858350D02*
X113881530Y-107824678D01*
X113881530Y-107824678D02*
X113948873Y-107824678D01*
X113948873Y-107824678D02*
X114049889Y-107858350D01*
X114049889Y-107858350D02*
X114218247Y-107959365D01*
X114218247Y-107959365D02*
X114319263Y-107993037D01*
X114319263Y-107993037D02*
X114386606Y-107993037D01*
X114386606Y-107993037D02*
X114487621Y-107959365D01*
X114487621Y-107959365D02*
X114554965Y-107892022D01*
X114554965Y-107892022D02*
X114588637Y-107791006D01*
X114588637Y-107791006D02*
X114588637Y-107723663D01*
X114588637Y-107723663D02*
X114554965Y-107622648D01*
X114554965Y-107622648D02*
X114386606Y-107454289D01*
X114386606Y-107454289D02*
X114251919Y-107386945D01*
X113847858Y-106915541D02*
X113713171Y-106780854D01*
X113713171Y-106780854D02*
X113612156Y-106747182D01*
X113612156Y-106747182D02*
X113477469Y-106747182D01*
X113477469Y-106747182D02*
X113309110Y-106848197D01*
X113309110Y-106848197D02*
X113073408Y-107083900D01*
X113073408Y-107083900D02*
X112972393Y-107252258D01*
X112972393Y-107252258D02*
X112972393Y-107386945D01*
X112972393Y-107386945D02*
X113006064Y-107487961D01*
X113006064Y-107487961D02*
X113140751Y-107622648D01*
X113140751Y-107622648D02*
X113241767Y-107656319D01*
X113241767Y-107656319D02*
X113376454Y-107656319D01*
X113376454Y-107656319D02*
X113544812Y-107555304D01*
X113544812Y-107555304D02*
X113780515Y-107319602D01*
X113780515Y-107319602D02*
X113881530Y-107151243D01*
X113881530Y-107151243D02*
X113881530Y-107016556D01*
X113881530Y-107016556D02*
X113847858Y-106915541D01*
X116617712Y-108305609D02*
X117324819Y-107598502D01*
X117324819Y-107598502D02*
X116584041Y-107867876D01*
X116584041Y-107867876D02*
X116853415Y-107127097D01*
X116853415Y-107127097D02*
X116146308Y-107834204D01*
X116382010Y-106655693D02*
X116247323Y-106521006D01*
X116247323Y-106521006D02*
X116146308Y-106487334D01*
X116146308Y-106487334D02*
X116011621Y-106487334D01*
X116011621Y-106487334D02*
X115843262Y-106588350D01*
X115843262Y-106588350D02*
X115607560Y-106824052D01*
X115607560Y-106824052D02*
X115506545Y-106992411D01*
X115506545Y-106992411D02*
X115506545Y-107127098D01*
X115506545Y-107127098D02*
X115540217Y-107228113D01*
X115540217Y-107228113D02*
X115674904Y-107362800D01*
X115674904Y-107362800D02*
X115775919Y-107396472D01*
X115775919Y-107396472D02*
X115910606Y-107396472D01*
X115910606Y-107396472D02*
X116078965Y-107295456D01*
X116078965Y-107295456D02*
X116314667Y-107059754D01*
X116314667Y-107059754D02*
X116415682Y-106891395D01*
X116415682Y-106891395D02*
X116415682Y-106756708D01*
X116415682Y-106756708D02*
X116382010Y-106655693D01*
X115136156Y-106756708D02*
X115001469Y-106689365D01*
X115001469Y-106689365D02*
X114833110Y-106521006D01*
X114833110Y-106521006D02*
X114799438Y-106419991D01*
X114799438Y-106419991D02*
X114799438Y-106352647D01*
X114799438Y-106352647D02*
X114833110Y-106251632D01*
X114833110Y-106251632D02*
X114900453Y-106184289D01*
X114900453Y-106184289D02*
X115001469Y-106150617D01*
X115001469Y-106150617D02*
X115068812Y-106150617D01*
X115068812Y-106150617D02*
X115169827Y-106184289D01*
X115169827Y-106184289D02*
X115338186Y-106285304D01*
X115338186Y-106285304D02*
X115439201Y-106318976D01*
X115439201Y-106318976D02*
X115506545Y-106318976D01*
X115506545Y-106318976D02*
X115607560Y-106285304D01*
X115607560Y-106285304D02*
X115674904Y-106217960D01*
X115674904Y-106217960D02*
X115708575Y-106116945D01*
X115708575Y-106116945D02*
X115708575Y-106049602D01*
X115708575Y-106049602D02*
X115674904Y-105948586D01*
X115674904Y-105948586D02*
X115506545Y-105780228D01*
X115506545Y-105780228D02*
X115371858Y-105712884D01*
X114395377Y-106083273D02*
X115102484Y-105376167D01*
D12*
X126365311Y-122214508D02*
X125658204Y-121507401D01*
X125658204Y-121507401D02*
X125927578Y-122248179D01*
X125927578Y-122248179D02*
X125186799Y-121978805D01*
X125186799Y-121978805D02*
X125893906Y-122685912D01*
X125388830Y-122786927D02*
X125052113Y-123123645D01*
X125658204Y-122921614D02*
X124715395Y-122450210D01*
X124715395Y-122450210D02*
X125186800Y-123393019D01*
X124951097Y-123561378D02*
X124883754Y-123696065D01*
X124883754Y-123696065D02*
X124715395Y-123864423D01*
X124715395Y-123864423D02*
X124614380Y-123898095D01*
X124614380Y-123898095D02*
X124547036Y-123898095D01*
X124547036Y-123898095D02*
X124446021Y-123864423D01*
X124446021Y-123864423D02*
X124378677Y-123797080D01*
X124378677Y-123797080D02*
X124345006Y-123696065D01*
X124345006Y-123696065D02*
X124345006Y-123628721D01*
X124345006Y-123628721D02*
X124378677Y-123527706D01*
X124378677Y-123527706D02*
X124479693Y-123359347D01*
X124479693Y-123359347D02*
X124513364Y-123258332D01*
X124513364Y-123258332D02*
X124513364Y-123190988D01*
X124513364Y-123190988D02*
X124479693Y-123089973D01*
X124479693Y-123089973D02*
X124412349Y-123022630D01*
X124412349Y-123022630D02*
X124311334Y-122988958D01*
X124311334Y-122988958D02*
X124243990Y-122988958D01*
X124243990Y-122988958D02*
X124142975Y-123022630D01*
X124142975Y-123022630D02*
X123974616Y-123190988D01*
X123974616Y-123190988D02*
X123907273Y-123325675D01*
X123671571Y-123494034D02*
X123267510Y-123898095D01*
X124176647Y-124403172D02*
X123469540Y-123696065D01*
X123368525Y-124470515D02*
X123132822Y-124706217D01*
X123402196Y-125177622D02*
X123738914Y-124840904D01*
X123738914Y-124840904D02*
X123031807Y-124133798D01*
X123031807Y-124133798D02*
X122695090Y-124470515D01*
X122695090Y-125884729D02*
X122594074Y-125312309D01*
X123099151Y-125480668D02*
X122392044Y-124773561D01*
X122392044Y-124773561D02*
X122122670Y-125042935D01*
X122122670Y-125042935D02*
X122088998Y-125143950D01*
X122088998Y-125143950D02*
X122088998Y-125211294D01*
X122088998Y-125211294D02*
X122122670Y-125312309D01*
X122122670Y-125312309D02*
X122223685Y-125413324D01*
X122223685Y-125413324D02*
X122324700Y-125446996D01*
X122324700Y-125446996D02*
X122392044Y-125446996D01*
X122392044Y-125446996D02*
X122493059Y-125413324D01*
X122493059Y-125413324D02*
X122762433Y-125143950D01*
D11*
X130923435Y-122246576D02*
X130216328Y-121539470D01*
X130216328Y-121539470D02*
X130047969Y-121707828D01*
X130047969Y-121707828D02*
X129980626Y-121842515D01*
X129980626Y-121842515D02*
X129980626Y-121977202D01*
X129980626Y-121977202D02*
X130014298Y-122078218D01*
X130014298Y-122078218D02*
X130115313Y-122246576D01*
X130115313Y-122246576D02*
X130216328Y-122347592D01*
X130216328Y-122347592D02*
X130384687Y-122448607D01*
X130384687Y-122448607D02*
X130485702Y-122482279D01*
X130485702Y-122482279D02*
X130620389Y-122482279D01*
X130620389Y-122482279D02*
X130755076Y-122414935D01*
X130755076Y-122414935D02*
X130923435Y-122246576D01*
X129845939Y-123324072D02*
X130250000Y-122920011D01*
X130047969Y-123122042D02*
X129340863Y-122414935D01*
X129340863Y-122414935D02*
X129509221Y-122448607D01*
X129509221Y-122448607D02*
X129643908Y-122448607D01*
X129643908Y-122448607D02*
X129744924Y-122414935D01*
X128903130Y-122852668D02*
X128465397Y-123290401D01*
X128465397Y-123290401D02*
X128970473Y-123324073D01*
X128970473Y-123324073D02*
X128869458Y-123425088D01*
X128869458Y-123425088D02*
X128835786Y-123526103D01*
X128835786Y-123526103D02*
X128835786Y-123593447D01*
X128835786Y-123593447D02*
X128869458Y-123694462D01*
X128869458Y-123694462D02*
X129037817Y-123862821D01*
X129037817Y-123862821D02*
X129138832Y-123896492D01*
X129138832Y-123896492D02*
X129206175Y-123896492D01*
X129206175Y-123896492D02*
X129307191Y-123862821D01*
X129307191Y-123862821D02*
X129509221Y-123660790D01*
X129509221Y-123660790D02*
X129542893Y-123559775D01*
X129542893Y-123559775D02*
X129542893Y-123492431D01*
X125437035Y-127936175D02*
X124729928Y-127229069D01*
X124729928Y-127229069D02*
X124561569Y-127397427D01*
X124561569Y-127397427D02*
X124494226Y-127532114D01*
X124494226Y-127532114D02*
X124494226Y-127666801D01*
X124494226Y-127666801D02*
X124527898Y-127767817D01*
X124527898Y-127767817D02*
X124628913Y-127936175D01*
X124628913Y-127936175D02*
X124729928Y-128037191D01*
X124729928Y-128037191D02*
X124898287Y-128138206D01*
X124898287Y-128138206D02*
X124999302Y-128171878D01*
X124999302Y-128171878D02*
X125133989Y-128171878D01*
X125133989Y-128171878D02*
X125268676Y-128104534D01*
X125268676Y-128104534D02*
X125437035Y-127936175D01*
X123955478Y-128474923D02*
X124426882Y-128946328D01*
X123854463Y-128037191D02*
X124527898Y-128373908D01*
X124527898Y-128373908D02*
X124090165Y-128811641D01*
X123046340Y-128912656D02*
X123181027Y-128777969D01*
X123181027Y-128777969D02*
X123282043Y-128744298D01*
X123282043Y-128744298D02*
X123349386Y-128744298D01*
X123349386Y-128744298D02*
X123517745Y-128777969D01*
X123517745Y-128777969D02*
X123686104Y-128878985D01*
X123686104Y-128878985D02*
X123955478Y-129148359D01*
X123955478Y-129148359D02*
X123989149Y-129249374D01*
X123989149Y-129249374D02*
X123989149Y-129316717D01*
X123989149Y-129316717D02*
X123955478Y-129417733D01*
X123955478Y-129417733D02*
X123820791Y-129552420D01*
X123820791Y-129552420D02*
X123719775Y-129586091D01*
X123719775Y-129586091D02*
X123652432Y-129586091D01*
X123652432Y-129586091D02*
X123551417Y-129552420D01*
X123551417Y-129552420D02*
X123383058Y-129384061D01*
X123383058Y-129384061D02*
X123349386Y-129283046D01*
X123349386Y-129283046D02*
X123349386Y-129215702D01*
X123349386Y-129215702D02*
X123383058Y-129114687D01*
X123383058Y-129114687D02*
X123517745Y-128980000D01*
X123517745Y-128980000D02*
X123618760Y-128946328D01*
X123618760Y-128946328D02*
X123686104Y-128946328D01*
X123686104Y-128946328D02*
X123787119Y-128980000D01*
X133167285Y-63573819D02*
X133167285Y-62573819D01*
X133167285Y-62573819D02*
X132929190Y-62573819D01*
X132929190Y-62573819D02*
X132786333Y-62621438D01*
X132786333Y-62621438D02*
X132691095Y-62716676D01*
X132691095Y-62716676D02*
X132643476Y-62811914D01*
X132643476Y-62811914D02*
X132595857Y-63002390D01*
X132595857Y-63002390D02*
X132595857Y-63145247D01*
X132595857Y-63145247D02*
X132643476Y-63335723D01*
X132643476Y-63335723D02*
X132691095Y-63430961D01*
X132691095Y-63430961D02*
X132786333Y-63526200D01*
X132786333Y-63526200D02*
X132929190Y-63573819D01*
X132929190Y-63573819D02*
X133167285Y-63573819D01*
X131738714Y-62573819D02*
X131929190Y-62573819D01*
X131929190Y-62573819D02*
X132024428Y-62621438D01*
X132024428Y-62621438D02*
X132072047Y-62669057D01*
X132072047Y-62669057D02*
X132167285Y-62811914D01*
X132167285Y-62811914D02*
X132214904Y-63002390D01*
X132214904Y-63002390D02*
X132214904Y-63383342D01*
X132214904Y-63383342D02*
X132167285Y-63478580D01*
X132167285Y-63478580D02*
X132119666Y-63526200D01*
X132119666Y-63526200D02*
X132024428Y-63573819D01*
X132024428Y-63573819D02*
X131833952Y-63573819D01*
X131833952Y-63573819D02*
X131738714Y-63526200D01*
X131738714Y-63526200D02*
X131691095Y-63478580D01*
X131691095Y-63478580D02*
X131643476Y-63383342D01*
X131643476Y-63383342D02*
X131643476Y-63145247D01*
X131643476Y-63145247D02*
X131691095Y-63050009D01*
X131691095Y-63050009D02*
X131738714Y-63002390D01*
X131738714Y-63002390D02*
X131833952Y-62954771D01*
X131833952Y-62954771D02*
X132024428Y-62954771D01*
X132024428Y-62954771D02*
X132119666Y-63002390D01*
X132119666Y-63002390D02*
X132167285Y-63050009D01*
X132167285Y-63050009D02*
X132214904Y-63145247D01*
X131262523Y-62669057D02*
X131214904Y-62621438D01*
X131214904Y-62621438D02*
X131119666Y-62573819D01*
X131119666Y-62573819D02*
X130881571Y-62573819D01*
X130881571Y-62573819D02*
X130786333Y-62621438D01*
X130786333Y-62621438D02*
X130738714Y-62669057D01*
X130738714Y-62669057D02*
X130691095Y-62764295D01*
X130691095Y-62764295D02*
X130691095Y-62859533D01*
X130691095Y-62859533D02*
X130738714Y-63002390D01*
X130738714Y-63002390D02*
X131310142Y-63573819D01*
X131310142Y-63573819D02*
X130691095Y-63573819D01*
X125801285Y-76273819D02*
X125801285Y-75273819D01*
X125801285Y-75273819D02*
X125563190Y-75273819D01*
X125563190Y-75273819D02*
X125420333Y-75321438D01*
X125420333Y-75321438D02*
X125325095Y-75416676D01*
X125325095Y-75416676D02*
X125277476Y-75511914D01*
X125277476Y-75511914D02*
X125229857Y-75702390D01*
X125229857Y-75702390D02*
X125229857Y-75845247D01*
X125229857Y-75845247D02*
X125277476Y-76035723D01*
X125277476Y-76035723D02*
X125325095Y-76130961D01*
X125325095Y-76130961D02*
X125420333Y-76226200D01*
X125420333Y-76226200D02*
X125563190Y-76273819D01*
X125563190Y-76273819D02*
X125801285Y-76273819D01*
X124372714Y-75273819D02*
X124563190Y-75273819D01*
X124563190Y-75273819D02*
X124658428Y-75321438D01*
X124658428Y-75321438D02*
X124706047Y-75369057D01*
X124706047Y-75369057D02*
X124801285Y-75511914D01*
X124801285Y-75511914D02*
X124848904Y-75702390D01*
X124848904Y-75702390D02*
X124848904Y-76083342D01*
X124848904Y-76083342D02*
X124801285Y-76178580D01*
X124801285Y-76178580D02*
X124753666Y-76226200D01*
X124753666Y-76226200D02*
X124658428Y-76273819D01*
X124658428Y-76273819D02*
X124467952Y-76273819D01*
X124467952Y-76273819D02*
X124372714Y-76226200D01*
X124372714Y-76226200D02*
X124325095Y-76178580D01*
X124325095Y-76178580D02*
X124277476Y-76083342D01*
X124277476Y-76083342D02*
X124277476Y-75845247D01*
X124277476Y-75845247D02*
X124325095Y-75750009D01*
X124325095Y-75750009D02*
X124372714Y-75702390D01*
X124372714Y-75702390D02*
X124467952Y-75654771D01*
X124467952Y-75654771D02*
X124658428Y-75654771D01*
X124658428Y-75654771D02*
X124753666Y-75702390D01*
X124753666Y-75702390D02*
X124801285Y-75750009D01*
X124801285Y-75750009D02*
X124848904Y-75845247D01*
X123658428Y-75273819D02*
X123563190Y-75273819D01*
X123563190Y-75273819D02*
X123467952Y-75321438D01*
X123467952Y-75321438D02*
X123420333Y-75369057D01*
X123420333Y-75369057D02*
X123372714Y-75464295D01*
X123372714Y-75464295D02*
X123325095Y-75654771D01*
X123325095Y-75654771D02*
X123325095Y-75892866D01*
X123325095Y-75892866D02*
X123372714Y-76083342D01*
X123372714Y-76083342D02*
X123420333Y-76178580D01*
X123420333Y-76178580D02*
X123467952Y-76226200D01*
X123467952Y-76226200D02*
X123563190Y-76273819D01*
X123563190Y-76273819D02*
X123658428Y-76273819D01*
X123658428Y-76273819D02*
X123753666Y-76226200D01*
X123753666Y-76226200D02*
X123801285Y-76178580D01*
X123801285Y-76178580D02*
X123848904Y-76083342D01*
X123848904Y-76083342D02*
X123896523Y-75892866D01*
X123896523Y-75892866D02*
X123896523Y-75654771D01*
X123896523Y-75654771D02*
X123848904Y-75464295D01*
X123848904Y-75464295D02*
X123801285Y-75369057D01*
X123801285Y-75369057D02*
X123753666Y-75321438D01*
X123753666Y-75321438D02*
X123658428Y-75273819D01*
X137705235Y-103983975D02*
X136998128Y-103276869D01*
X136998128Y-103276869D02*
X136829769Y-103445227D01*
X136829769Y-103445227D02*
X136762426Y-103579914D01*
X136762426Y-103579914D02*
X136762426Y-103714601D01*
X136762426Y-103714601D02*
X136796098Y-103815617D01*
X136796098Y-103815617D02*
X136897113Y-103983975D01*
X136897113Y-103983975D02*
X136998128Y-104084991D01*
X136998128Y-104084991D02*
X137166487Y-104186006D01*
X137166487Y-104186006D02*
X137267502Y-104219678D01*
X137267502Y-104219678D02*
X137402189Y-104219678D01*
X137402189Y-104219678D02*
X137536876Y-104152334D01*
X137536876Y-104152334D02*
X137705235Y-103983975D01*
X136627739Y-105061471D02*
X137031800Y-104657410D01*
X136829769Y-104859441D02*
X136122663Y-104152334D01*
X136122663Y-104152334D02*
X136291021Y-104186006D01*
X136291021Y-104186006D02*
X136425708Y-104186006D01*
X136425708Y-104186006D02*
X136526724Y-104152334D01*
X135482899Y-104792098D02*
X135415556Y-104859441D01*
X135415556Y-104859441D02*
X135381884Y-104960456D01*
X135381884Y-104960456D02*
X135381884Y-105027800D01*
X135381884Y-105027800D02*
X135415556Y-105128815D01*
X135415556Y-105128815D02*
X135516571Y-105297174D01*
X135516571Y-105297174D02*
X135684930Y-105465533D01*
X135684930Y-105465533D02*
X135853288Y-105566548D01*
X135853288Y-105566548D02*
X135954304Y-105600220D01*
X135954304Y-105600220D02*
X136021647Y-105600220D01*
X136021647Y-105600220D02*
X136122662Y-105566548D01*
X136122662Y-105566548D02*
X136190006Y-105499204D01*
X136190006Y-105499204D02*
X136223678Y-105398189D01*
X136223678Y-105398189D02*
X136223678Y-105330846D01*
X136223678Y-105330846D02*
X136190006Y-105229830D01*
X136190006Y-105229830D02*
X136088991Y-105061472D01*
X136088991Y-105061472D02*
X135920632Y-104893113D01*
X135920632Y-104893113D02*
X135752273Y-104792098D01*
X135752273Y-104792098D02*
X135651258Y-104758426D01*
X135651258Y-104758426D02*
X135583914Y-104758426D01*
X135583914Y-104758426D02*
X135482899Y-104792098D01*
X136435235Y-111349975D02*
X135728128Y-110642869D01*
X135728128Y-110642869D02*
X135559769Y-110811227D01*
X135559769Y-110811227D02*
X135492426Y-110945914D01*
X135492426Y-110945914D02*
X135492426Y-111080601D01*
X135492426Y-111080601D02*
X135526098Y-111181617D01*
X135526098Y-111181617D02*
X135627113Y-111349975D01*
X135627113Y-111349975D02*
X135728128Y-111450991D01*
X135728128Y-111450991D02*
X135896487Y-111552006D01*
X135896487Y-111552006D02*
X135997502Y-111585678D01*
X135997502Y-111585678D02*
X136132189Y-111585678D01*
X136132189Y-111585678D02*
X136266876Y-111518334D01*
X136266876Y-111518334D02*
X136435235Y-111349975D01*
X135357739Y-112427471D02*
X135761800Y-112023410D01*
X135559769Y-112225441D02*
X134852663Y-111518334D01*
X134852663Y-111518334D02*
X135021021Y-111552006D01*
X135021021Y-111552006D02*
X135155708Y-111552006D01*
X135155708Y-111552006D02*
X135256724Y-111518334D01*
X134684304Y-113100907D02*
X135088365Y-112696846D01*
X134886334Y-112898876D02*
X134179227Y-112191769D01*
X134179227Y-112191769D02*
X134347586Y-112225441D01*
X134347586Y-112225441D02*
X134482273Y-112225441D01*
X134482273Y-112225441D02*
X134583288Y-112191769D01*
X118435285Y-88973819D02*
X118435285Y-87973819D01*
X118435285Y-87973819D02*
X118197190Y-87973819D01*
X118197190Y-87973819D02*
X118054333Y-88021438D01*
X118054333Y-88021438D02*
X117959095Y-88116676D01*
X117959095Y-88116676D02*
X117911476Y-88211914D01*
X117911476Y-88211914D02*
X117863857Y-88402390D01*
X117863857Y-88402390D02*
X117863857Y-88545247D01*
X117863857Y-88545247D02*
X117911476Y-88735723D01*
X117911476Y-88735723D02*
X117959095Y-88830961D01*
X117959095Y-88830961D02*
X118054333Y-88926200D01*
X118054333Y-88926200D02*
X118197190Y-88973819D01*
X118197190Y-88973819D02*
X118435285Y-88973819D01*
X116959095Y-87973819D02*
X117435285Y-87973819D01*
X117435285Y-87973819D02*
X117482904Y-88450009D01*
X117482904Y-88450009D02*
X117435285Y-88402390D01*
X117435285Y-88402390D02*
X117340047Y-88354771D01*
X117340047Y-88354771D02*
X117101952Y-88354771D01*
X117101952Y-88354771D02*
X117006714Y-88402390D01*
X117006714Y-88402390D02*
X116959095Y-88450009D01*
X116959095Y-88450009D02*
X116911476Y-88545247D01*
X116911476Y-88545247D02*
X116911476Y-88783342D01*
X116911476Y-88783342D02*
X116959095Y-88878580D01*
X116959095Y-88878580D02*
X117006714Y-88926200D01*
X117006714Y-88926200D02*
X117101952Y-88973819D01*
X117101952Y-88973819D02*
X117340047Y-88973819D01*
X117340047Y-88973819D02*
X117435285Y-88926200D01*
X117435285Y-88926200D02*
X117482904Y-88878580D01*
X116340047Y-88402390D02*
X116435285Y-88354771D01*
X116435285Y-88354771D02*
X116482904Y-88307152D01*
X116482904Y-88307152D02*
X116530523Y-88211914D01*
X116530523Y-88211914D02*
X116530523Y-88164295D01*
X116530523Y-88164295D02*
X116482904Y-88069057D01*
X116482904Y-88069057D02*
X116435285Y-88021438D01*
X116435285Y-88021438D02*
X116340047Y-87973819D01*
X116340047Y-87973819D02*
X116149571Y-87973819D01*
X116149571Y-87973819D02*
X116054333Y-88021438D01*
X116054333Y-88021438D02*
X116006714Y-88069057D01*
X116006714Y-88069057D02*
X115959095Y-88164295D01*
X115959095Y-88164295D02*
X115959095Y-88211914D01*
X115959095Y-88211914D02*
X116006714Y-88307152D01*
X116006714Y-88307152D02*
X116054333Y-88354771D01*
X116054333Y-88354771D02*
X116149571Y-88402390D01*
X116149571Y-88402390D02*
X116340047Y-88402390D01*
X116340047Y-88402390D02*
X116435285Y-88450009D01*
X116435285Y-88450009D02*
X116482904Y-88497628D01*
X116482904Y-88497628D02*
X116530523Y-88592866D01*
X116530523Y-88592866D02*
X116530523Y-88783342D01*
X116530523Y-88783342D02*
X116482904Y-88878580D01*
X116482904Y-88878580D02*
X116435285Y-88926200D01*
X116435285Y-88926200D02*
X116340047Y-88973819D01*
X116340047Y-88973819D02*
X116149571Y-88973819D01*
X116149571Y-88973819D02*
X116054333Y-88926200D01*
X116054333Y-88926200D02*
X116006714Y-88878580D01*
X116006714Y-88878580D02*
X115959095Y-88783342D01*
X115959095Y-88783342D02*
X115959095Y-88592866D01*
X115959095Y-88592866D02*
X116006714Y-88497628D01*
X116006714Y-88497628D02*
X116054333Y-88450009D01*
X116054333Y-88450009D02*
X116149571Y-88402390D01*
X110701677Y-101546819D02*
X110701677Y-100546819D01*
X110701677Y-100546819D02*
X110463582Y-100546819D01*
X110463582Y-100546819D02*
X110320725Y-100594438D01*
X110320725Y-100594438D02*
X110225487Y-100689676D01*
X110225487Y-100689676D02*
X110177868Y-100784914D01*
X110177868Y-100784914D02*
X110130249Y-100975390D01*
X110130249Y-100975390D02*
X110130249Y-101118247D01*
X110130249Y-101118247D02*
X110177868Y-101308723D01*
X110177868Y-101308723D02*
X110225487Y-101403961D01*
X110225487Y-101403961D02*
X110320725Y-101499200D01*
X110320725Y-101499200D02*
X110463582Y-101546819D01*
X110463582Y-101546819D02*
X110701677Y-101546819D01*
X109225487Y-100546819D02*
X109701677Y-100546819D01*
X109701677Y-100546819D02*
X109749296Y-101023009D01*
X109749296Y-101023009D02*
X109701677Y-100975390D01*
X109701677Y-100975390D02*
X109606439Y-100927771D01*
X109606439Y-100927771D02*
X109368344Y-100927771D01*
X109368344Y-100927771D02*
X109273106Y-100975390D01*
X109273106Y-100975390D02*
X109225487Y-101023009D01*
X109225487Y-101023009D02*
X109177868Y-101118247D01*
X109177868Y-101118247D02*
X109177868Y-101356342D01*
X109177868Y-101356342D02*
X109225487Y-101451580D01*
X109225487Y-101451580D02*
X109273106Y-101499200D01*
X109273106Y-101499200D02*
X109368344Y-101546819D01*
X109368344Y-101546819D02*
X109606439Y-101546819D01*
X109606439Y-101546819D02*
X109701677Y-101499200D01*
X109701677Y-101499200D02*
X109749296Y-101451580D01*
X108320725Y-100546819D02*
X108511201Y-100546819D01*
X108511201Y-100546819D02*
X108606439Y-100594438D01*
X108606439Y-100594438D02*
X108654058Y-100642057D01*
X108654058Y-100642057D02*
X108749296Y-100784914D01*
X108749296Y-100784914D02*
X108796915Y-100975390D01*
X108796915Y-100975390D02*
X108796915Y-101356342D01*
X108796915Y-101356342D02*
X108749296Y-101451580D01*
X108749296Y-101451580D02*
X108701677Y-101499200D01*
X108701677Y-101499200D02*
X108606439Y-101546819D01*
X108606439Y-101546819D02*
X108415963Y-101546819D01*
X108415963Y-101546819D02*
X108320725Y-101499200D01*
X108320725Y-101499200D02*
X108273106Y-101451580D01*
X108273106Y-101451580D02*
X108225487Y-101356342D01*
X108225487Y-101356342D02*
X108225487Y-101118247D01*
X108225487Y-101118247D02*
X108273106Y-101023009D01*
X108273106Y-101023009D02*
X108320725Y-100975390D01*
X108320725Y-100975390D02*
X108415963Y-100927771D01*
X108415963Y-100927771D02*
X108606439Y-100927771D01*
X108606439Y-100927771D02*
X108701677Y-100975390D01*
X108701677Y-100975390D02*
X108749296Y-101023009D01*
X108749296Y-101023009D02*
X108796915Y-101118247D01*
X114498285Y-95323819D02*
X114498285Y-94323819D01*
X114498285Y-94323819D02*
X114260190Y-94323819D01*
X114260190Y-94323819D02*
X114117333Y-94371438D01*
X114117333Y-94371438D02*
X114022095Y-94466676D01*
X114022095Y-94466676D02*
X113974476Y-94561914D01*
X113974476Y-94561914D02*
X113926857Y-94752390D01*
X113926857Y-94752390D02*
X113926857Y-94895247D01*
X113926857Y-94895247D02*
X113974476Y-95085723D01*
X113974476Y-95085723D02*
X114022095Y-95180961D01*
X114022095Y-95180961D02*
X114117333Y-95276200D01*
X114117333Y-95276200D02*
X114260190Y-95323819D01*
X114260190Y-95323819D02*
X114498285Y-95323819D01*
X113022095Y-94323819D02*
X113498285Y-94323819D01*
X113498285Y-94323819D02*
X113545904Y-94800009D01*
X113545904Y-94800009D02*
X113498285Y-94752390D01*
X113498285Y-94752390D02*
X113403047Y-94704771D01*
X113403047Y-94704771D02*
X113164952Y-94704771D01*
X113164952Y-94704771D02*
X113069714Y-94752390D01*
X113069714Y-94752390D02*
X113022095Y-94800009D01*
X113022095Y-94800009D02*
X112974476Y-94895247D01*
X112974476Y-94895247D02*
X112974476Y-95133342D01*
X112974476Y-95133342D02*
X113022095Y-95228580D01*
X113022095Y-95228580D02*
X113069714Y-95276200D01*
X113069714Y-95276200D02*
X113164952Y-95323819D01*
X113164952Y-95323819D02*
X113403047Y-95323819D01*
X113403047Y-95323819D02*
X113498285Y-95276200D01*
X113498285Y-95276200D02*
X113545904Y-95228580D01*
X112641142Y-94323819D02*
X111974476Y-94323819D01*
X111974476Y-94323819D02*
X112403047Y-95323819D01*
X119469764Y-132236024D02*
X120176871Y-132943130D01*
X120176871Y-132943130D02*
X120345230Y-132774772D01*
X120345230Y-132774772D02*
X120412573Y-132640085D01*
X120412573Y-132640085D02*
X120412573Y-132505398D01*
X120412573Y-132505398D02*
X120378901Y-132404382D01*
X120378901Y-132404382D02*
X120277886Y-132236024D01*
X120277886Y-132236024D02*
X120176871Y-132135008D01*
X120176871Y-132135008D02*
X120008512Y-132033993D01*
X120008512Y-132033993D02*
X119907497Y-132000321D01*
X119907497Y-132000321D02*
X119772810Y-132000321D01*
X119772810Y-132000321D02*
X119638123Y-132067665D01*
X119638123Y-132067665D02*
X119469764Y-132236024D01*
X120951321Y-131697276D02*
X120479917Y-131225871D01*
X121052336Y-132135008D02*
X120378901Y-131798291D01*
X120378901Y-131798291D02*
X120816634Y-131360558D01*
X121490069Y-131629932D02*
X121961474Y-131158527D01*
X121961474Y-131158527D02*
X120951321Y-130754466D01*
X148290517Y-39931693D02*
X147583410Y-39224587D01*
X147583410Y-39224587D02*
X147415051Y-39392945D01*
X147415051Y-39392945D02*
X147347708Y-39527632D01*
X147347708Y-39527632D02*
X147347708Y-39662319D01*
X147347708Y-39662319D02*
X147381380Y-39763335D01*
X147381380Y-39763335D02*
X147482395Y-39931693D01*
X147482395Y-39931693D02*
X147583410Y-40032709D01*
X147583410Y-40032709D02*
X147751769Y-40133724D01*
X147751769Y-40133724D02*
X147852784Y-40167396D01*
X147852784Y-40167396D02*
X147987471Y-40167396D01*
X147987471Y-40167396D02*
X148122158Y-40100052D01*
X148122158Y-40100052D02*
X148290517Y-39931693D01*
X147213021Y-41009189D02*
X147617082Y-40605128D01*
X147415051Y-40807159D02*
X146707945Y-40100052D01*
X146707945Y-40100052D02*
X146876303Y-40133724D01*
X146876303Y-40133724D02*
X147010990Y-40133724D01*
X147010990Y-40133724D02*
X147112006Y-40100052D01*
X103195285Y-114246819D02*
X103195285Y-113246819D01*
X103195285Y-113246819D02*
X102957190Y-113246819D01*
X102957190Y-113246819D02*
X102814333Y-113294438D01*
X102814333Y-113294438D02*
X102719095Y-113389676D01*
X102719095Y-113389676D02*
X102671476Y-113484914D01*
X102671476Y-113484914D02*
X102623857Y-113675390D01*
X102623857Y-113675390D02*
X102623857Y-113818247D01*
X102623857Y-113818247D02*
X102671476Y-114008723D01*
X102671476Y-114008723D02*
X102719095Y-114103961D01*
X102719095Y-114103961D02*
X102814333Y-114199200D01*
X102814333Y-114199200D02*
X102957190Y-114246819D01*
X102957190Y-114246819D02*
X103195285Y-114246819D01*
X101719095Y-113246819D02*
X102195285Y-113246819D01*
X102195285Y-113246819D02*
X102242904Y-113723009D01*
X102242904Y-113723009D02*
X102195285Y-113675390D01*
X102195285Y-113675390D02*
X102100047Y-113627771D01*
X102100047Y-113627771D02*
X101861952Y-113627771D01*
X101861952Y-113627771D02*
X101766714Y-113675390D01*
X101766714Y-113675390D02*
X101719095Y-113723009D01*
X101719095Y-113723009D02*
X101671476Y-113818247D01*
X101671476Y-113818247D02*
X101671476Y-114056342D01*
X101671476Y-114056342D02*
X101719095Y-114151580D01*
X101719095Y-114151580D02*
X101766714Y-114199200D01*
X101766714Y-114199200D02*
X101861952Y-114246819D01*
X101861952Y-114246819D02*
X102100047Y-114246819D01*
X102100047Y-114246819D02*
X102195285Y-114199200D01*
X102195285Y-114199200D02*
X102242904Y-114151580D01*
X100814333Y-113580152D02*
X100814333Y-114246819D01*
X101052428Y-113199200D02*
X101290523Y-113913485D01*
X101290523Y-113913485D02*
X100671476Y-113913485D01*
X137161677Y-57223819D02*
X137161677Y-56223819D01*
X137161677Y-56223819D02*
X136923582Y-56223819D01*
X136923582Y-56223819D02*
X136780725Y-56271438D01*
X136780725Y-56271438D02*
X136685487Y-56366676D01*
X136685487Y-56366676D02*
X136637868Y-56461914D01*
X136637868Y-56461914D02*
X136590249Y-56652390D01*
X136590249Y-56652390D02*
X136590249Y-56795247D01*
X136590249Y-56795247D02*
X136637868Y-56985723D01*
X136637868Y-56985723D02*
X136685487Y-57080961D01*
X136685487Y-57080961D02*
X136780725Y-57176200D01*
X136780725Y-57176200D02*
X136923582Y-57223819D01*
X136923582Y-57223819D02*
X137161677Y-57223819D01*
X135733106Y-56223819D02*
X135923582Y-56223819D01*
X135923582Y-56223819D02*
X136018820Y-56271438D01*
X136018820Y-56271438D02*
X136066439Y-56319057D01*
X136066439Y-56319057D02*
X136161677Y-56461914D01*
X136161677Y-56461914D02*
X136209296Y-56652390D01*
X136209296Y-56652390D02*
X136209296Y-57033342D01*
X136209296Y-57033342D02*
X136161677Y-57128580D01*
X136161677Y-57128580D02*
X136114058Y-57176200D01*
X136114058Y-57176200D02*
X136018820Y-57223819D01*
X136018820Y-57223819D02*
X135828344Y-57223819D01*
X135828344Y-57223819D02*
X135733106Y-57176200D01*
X135733106Y-57176200D02*
X135685487Y-57128580D01*
X135685487Y-57128580D02*
X135637868Y-57033342D01*
X135637868Y-57033342D02*
X135637868Y-56795247D01*
X135637868Y-56795247D02*
X135685487Y-56700009D01*
X135685487Y-56700009D02*
X135733106Y-56652390D01*
X135733106Y-56652390D02*
X135828344Y-56604771D01*
X135828344Y-56604771D02*
X136018820Y-56604771D01*
X136018820Y-56604771D02*
X136114058Y-56652390D01*
X136114058Y-56652390D02*
X136161677Y-56700009D01*
X136161677Y-56700009D02*
X136209296Y-56795247D01*
X135304534Y-56223819D02*
X134685487Y-56223819D01*
X134685487Y-56223819D02*
X135018820Y-56604771D01*
X135018820Y-56604771D02*
X134875963Y-56604771D01*
X134875963Y-56604771D02*
X134780725Y-56652390D01*
X134780725Y-56652390D02*
X134733106Y-56700009D01*
X134733106Y-56700009D02*
X134685487Y-56795247D01*
X134685487Y-56795247D02*
X134685487Y-57033342D01*
X134685487Y-57033342D02*
X134733106Y-57128580D01*
X134733106Y-57128580D02*
X134780725Y-57176200D01*
X134780725Y-57176200D02*
X134875963Y-57223819D01*
X134875963Y-57223819D02*
X135161677Y-57223819D01*
X135161677Y-57223819D02*
X135256915Y-57176200D01*
X135256915Y-57176200D02*
X135304534Y-57128580D01*
X147020517Y-47043693D02*
X146313410Y-46336587D01*
X146313410Y-46336587D02*
X146145051Y-46504945D01*
X146145051Y-46504945D02*
X146077708Y-46639632D01*
X146077708Y-46639632D02*
X146077708Y-46774319D01*
X146077708Y-46774319D02*
X146111380Y-46875335D01*
X146111380Y-46875335D02*
X146212395Y-47043693D01*
X146212395Y-47043693D02*
X146313410Y-47144709D01*
X146313410Y-47144709D02*
X146481769Y-47245724D01*
X146481769Y-47245724D02*
X146582784Y-47279396D01*
X146582784Y-47279396D02*
X146717471Y-47279396D01*
X146717471Y-47279396D02*
X146852158Y-47212052D01*
X146852158Y-47212052D02*
X147020517Y-47043693D01*
X145707319Y-47077365D02*
X145639975Y-47077365D01*
X145639975Y-47077365D02*
X145538960Y-47111037D01*
X145538960Y-47111037D02*
X145370601Y-47279396D01*
X145370601Y-47279396D02*
X145336929Y-47380411D01*
X145336929Y-47380411D02*
X145336929Y-47447754D01*
X145336929Y-47447754D02*
X145370601Y-47548770D01*
X145370601Y-47548770D02*
X145437945Y-47616113D01*
X145437945Y-47616113D02*
X145572632Y-47683457D01*
X145572632Y-47683457D02*
X146380754Y-47683457D01*
X146380754Y-47683457D02*
X145943021Y-48121189D01*
X107987235Y-131415975D02*
X107280128Y-130708869D01*
X107280128Y-130708869D02*
X107111769Y-130877227D01*
X107111769Y-130877227D02*
X107044426Y-131011914D01*
X107044426Y-131011914D02*
X107044426Y-131146601D01*
X107044426Y-131146601D02*
X107078098Y-131247617D01*
X107078098Y-131247617D02*
X107179113Y-131415975D01*
X107179113Y-131415975D02*
X107280128Y-131516991D01*
X107280128Y-131516991D02*
X107448487Y-131618006D01*
X107448487Y-131618006D02*
X107549502Y-131651678D01*
X107549502Y-131651678D02*
X107684189Y-131651678D01*
X107684189Y-131651678D02*
X107818876Y-131584334D01*
X107818876Y-131584334D02*
X107987235Y-131415975D01*
X106505678Y-131954723D02*
X106977082Y-132426128D01*
X106404663Y-131516991D02*
X107078098Y-131853708D01*
X107078098Y-131853708D02*
X106640365Y-132291441D01*
X106573021Y-132830189D02*
X106438334Y-132964876D01*
X106438334Y-132964876D02*
X106337319Y-132998548D01*
X106337319Y-132998548D02*
X106269975Y-132998548D01*
X106269975Y-132998548D02*
X106101617Y-132964876D01*
X106101617Y-132964876D02*
X105933258Y-132863861D01*
X105933258Y-132863861D02*
X105663884Y-132594487D01*
X105663884Y-132594487D02*
X105630212Y-132493472D01*
X105630212Y-132493472D02*
X105630212Y-132426128D01*
X105630212Y-132426128D02*
X105663884Y-132325113D01*
X105663884Y-132325113D02*
X105798571Y-132190426D01*
X105798571Y-132190426D02*
X105899586Y-132156754D01*
X105899586Y-132156754D02*
X105966930Y-132156754D01*
X105966930Y-132156754D02*
X106067945Y-132190426D01*
X106067945Y-132190426D02*
X106236304Y-132358785D01*
X106236304Y-132358785D02*
X106269975Y-132459800D01*
X106269975Y-132459800D02*
X106269975Y-132527143D01*
X106269975Y-132527143D02*
X106236304Y-132628159D01*
X106236304Y-132628159D02*
X106101617Y-132762846D01*
X106101617Y-132762846D02*
X106000601Y-132796517D01*
X106000601Y-132796517D02*
X105933258Y-132796517D01*
X105933258Y-132796517D02*
X105832243Y-132762846D01*
X114972235Y-131288975D02*
X114265128Y-130581869D01*
X114265128Y-130581869D02*
X114096769Y-130750227D01*
X114096769Y-130750227D02*
X114029426Y-130884914D01*
X114029426Y-130884914D02*
X114029426Y-131019601D01*
X114029426Y-131019601D02*
X114063098Y-131120617D01*
X114063098Y-131120617D02*
X114164113Y-131288975D01*
X114164113Y-131288975D02*
X114265128Y-131389991D01*
X114265128Y-131389991D02*
X114433487Y-131491006D01*
X114433487Y-131491006D02*
X114534502Y-131524678D01*
X114534502Y-131524678D02*
X114669189Y-131524678D01*
X114669189Y-131524678D02*
X114803876Y-131457334D01*
X114803876Y-131457334D02*
X114972235Y-131288975D01*
X113490678Y-131827723D02*
X113962082Y-132299128D01*
X113389663Y-131389991D02*
X114063098Y-131726708D01*
X114063098Y-131726708D02*
X113625365Y-132164441D01*
X113086617Y-132366472D02*
X113120288Y-132265456D01*
X113120288Y-132265456D02*
X113120288Y-132198113D01*
X113120288Y-132198113D02*
X113086617Y-132097098D01*
X113086617Y-132097098D02*
X113052945Y-132063426D01*
X113052945Y-132063426D02*
X112951930Y-132029754D01*
X112951930Y-132029754D02*
X112884586Y-132029754D01*
X112884586Y-132029754D02*
X112783571Y-132063426D01*
X112783571Y-132063426D02*
X112648884Y-132198113D01*
X112648884Y-132198113D02*
X112615212Y-132299128D01*
X112615212Y-132299128D02*
X112615212Y-132366472D01*
X112615212Y-132366472D02*
X112648884Y-132467487D01*
X112648884Y-132467487D02*
X112682556Y-132501159D01*
X112682556Y-132501159D02*
X112783571Y-132534830D01*
X112783571Y-132534830D02*
X112850914Y-132534830D01*
X112850914Y-132534830D02*
X112951930Y-132501159D01*
X112951930Y-132501159D02*
X113086617Y-132366472D01*
X113086617Y-132366472D02*
X113187632Y-132332800D01*
X113187632Y-132332800D02*
X113254975Y-132332800D01*
X113254975Y-132332800D02*
X113355991Y-132366472D01*
X113355991Y-132366472D02*
X113490678Y-132501159D01*
X113490678Y-132501159D02*
X113524349Y-132602174D01*
X113524349Y-132602174D02*
X113524349Y-132669517D01*
X113524349Y-132669517D02*
X113490678Y-132770533D01*
X113490678Y-132770533D02*
X113355991Y-132905220D01*
X113355991Y-132905220D02*
X113254975Y-132938891D01*
X113254975Y-132938891D02*
X113187632Y-132938891D01*
X113187632Y-132938891D02*
X113086617Y-132905220D01*
X113086617Y-132905220D02*
X112951930Y-132770533D01*
X112951930Y-132770533D02*
X112918258Y-132669517D01*
X112918258Y-132669517D02*
X112918258Y-132602174D01*
X112918258Y-132602174D02*
X112951930Y-132501159D01*
X93509235Y-131415975D02*
X92802128Y-130708869D01*
X92802128Y-130708869D02*
X92633769Y-130877227D01*
X92633769Y-130877227D02*
X92566426Y-131011914D01*
X92566426Y-131011914D02*
X92566426Y-131146601D01*
X92566426Y-131146601D02*
X92600098Y-131247617D01*
X92600098Y-131247617D02*
X92701113Y-131415975D01*
X92701113Y-131415975D02*
X92802128Y-131516991D01*
X92802128Y-131516991D02*
X92970487Y-131618006D01*
X92970487Y-131618006D02*
X93071502Y-131651678D01*
X93071502Y-131651678D02*
X93206189Y-131651678D01*
X93206189Y-131651678D02*
X93340876Y-131584334D01*
X93340876Y-131584334D02*
X93509235Y-131415975D01*
X91758304Y-131752693D02*
X92095021Y-131415975D01*
X92095021Y-131415975D02*
X92465411Y-131719021D01*
X92465411Y-131719021D02*
X92398067Y-131719021D01*
X92398067Y-131719021D02*
X92297052Y-131752693D01*
X92297052Y-131752693D02*
X92128693Y-131921052D01*
X92128693Y-131921052D02*
X92095021Y-132022067D01*
X92095021Y-132022067D02*
X92095021Y-132089410D01*
X92095021Y-132089410D02*
X92128693Y-132190426D01*
X92128693Y-132190426D02*
X92297052Y-132358784D01*
X92297052Y-132358784D02*
X92398067Y-132392456D01*
X92398067Y-132392456D02*
X92465411Y-132392456D01*
X92465411Y-132392456D02*
X92566426Y-132358784D01*
X92566426Y-132358784D02*
X92734785Y-132190426D01*
X92734785Y-132190426D02*
X92768456Y-132089410D01*
X92768456Y-132089410D02*
X92768456Y-132022067D01*
X91758304Y-133166907D02*
X92162365Y-132762846D01*
X91960334Y-132964876D02*
X91253227Y-132257769D01*
X91253227Y-132257769D02*
X91421586Y-132291441D01*
X91421586Y-132291441D02*
X91556273Y-132291441D01*
X91556273Y-132291441D02*
X91657288Y-132257769D01*
X139908517Y-90223693D02*
X139201410Y-89516587D01*
X139201410Y-89516587D02*
X139033051Y-89684945D01*
X139033051Y-89684945D02*
X138965708Y-89819632D01*
X138965708Y-89819632D02*
X138965708Y-89954319D01*
X138965708Y-89954319D02*
X138999380Y-90055335D01*
X138999380Y-90055335D02*
X139100395Y-90223693D01*
X139100395Y-90223693D02*
X139201410Y-90324709D01*
X139201410Y-90324709D02*
X139369769Y-90425724D01*
X139369769Y-90425724D02*
X139470784Y-90459396D01*
X139470784Y-90459396D02*
X139605471Y-90459396D01*
X139605471Y-90459396D02*
X139740158Y-90392052D01*
X139740158Y-90392052D02*
X139908517Y-90223693D01*
X138696334Y-90627754D02*
X138730006Y-90526739D01*
X138730006Y-90526739D02*
X138730006Y-90459396D01*
X138730006Y-90459396D02*
X138696334Y-90358380D01*
X138696334Y-90358380D02*
X138662662Y-90324709D01*
X138662662Y-90324709D02*
X138561647Y-90291037D01*
X138561647Y-90291037D02*
X138494303Y-90291037D01*
X138494303Y-90291037D02*
X138393288Y-90324709D01*
X138393288Y-90324709D02*
X138258601Y-90459396D01*
X138258601Y-90459396D02*
X138224929Y-90560411D01*
X138224929Y-90560411D02*
X138224929Y-90627754D01*
X138224929Y-90627754D02*
X138258601Y-90728770D01*
X138258601Y-90728770D02*
X138292273Y-90762441D01*
X138292273Y-90762441D02*
X138393288Y-90796113D01*
X138393288Y-90796113D02*
X138460632Y-90796113D01*
X138460632Y-90796113D02*
X138561647Y-90762441D01*
X138561647Y-90762441D02*
X138696334Y-90627754D01*
X138696334Y-90627754D02*
X138797349Y-90594083D01*
X138797349Y-90594083D02*
X138864693Y-90594083D01*
X138864693Y-90594083D02*
X138965708Y-90627754D01*
X138965708Y-90627754D02*
X139100395Y-90762441D01*
X139100395Y-90762441D02*
X139134067Y-90863457D01*
X139134067Y-90863457D02*
X139134067Y-90930800D01*
X139134067Y-90930800D02*
X139100395Y-91031815D01*
X139100395Y-91031815D02*
X138965708Y-91166502D01*
X138965708Y-91166502D02*
X138864693Y-91200174D01*
X138864693Y-91200174D02*
X138797349Y-91200174D01*
X138797349Y-91200174D02*
X138696334Y-91166502D01*
X138696334Y-91166502D02*
X138561647Y-91031815D01*
X138561647Y-91031815D02*
X138527975Y-90930800D01*
X138527975Y-90930800D02*
X138527975Y-90863457D01*
X138527975Y-90863457D02*
X138561647Y-90762441D01*
X99385285Y-120596819D02*
X99385285Y-119596819D01*
X99385285Y-119596819D02*
X99147190Y-119596819D01*
X99147190Y-119596819D02*
X99004333Y-119644438D01*
X99004333Y-119644438D02*
X98909095Y-119739676D01*
X98909095Y-119739676D02*
X98861476Y-119834914D01*
X98861476Y-119834914D02*
X98813857Y-120025390D01*
X98813857Y-120025390D02*
X98813857Y-120168247D01*
X98813857Y-120168247D02*
X98861476Y-120358723D01*
X98861476Y-120358723D02*
X98909095Y-120453961D01*
X98909095Y-120453961D02*
X99004333Y-120549200D01*
X99004333Y-120549200D02*
X99147190Y-120596819D01*
X99147190Y-120596819D02*
X99385285Y-120596819D01*
X97909095Y-119596819D02*
X98385285Y-119596819D01*
X98385285Y-119596819D02*
X98432904Y-120073009D01*
X98432904Y-120073009D02*
X98385285Y-120025390D01*
X98385285Y-120025390D02*
X98290047Y-119977771D01*
X98290047Y-119977771D02*
X98051952Y-119977771D01*
X98051952Y-119977771D02*
X97956714Y-120025390D01*
X97956714Y-120025390D02*
X97909095Y-120073009D01*
X97909095Y-120073009D02*
X97861476Y-120168247D01*
X97861476Y-120168247D02*
X97861476Y-120406342D01*
X97861476Y-120406342D02*
X97909095Y-120501580D01*
X97909095Y-120501580D02*
X97956714Y-120549200D01*
X97956714Y-120549200D02*
X98051952Y-120596819D01*
X98051952Y-120596819D02*
X98290047Y-120596819D01*
X98290047Y-120596819D02*
X98385285Y-120549200D01*
X98385285Y-120549200D02*
X98432904Y-120501580D01*
X97528142Y-119596819D02*
X96909095Y-119596819D01*
X96909095Y-119596819D02*
X97242428Y-119977771D01*
X97242428Y-119977771D02*
X97099571Y-119977771D01*
X97099571Y-119977771D02*
X97004333Y-120025390D01*
X97004333Y-120025390D02*
X96956714Y-120073009D01*
X96956714Y-120073009D02*
X96909095Y-120168247D01*
X96909095Y-120168247D02*
X96909095Y-120406342D01*
X96909095Y-120406342D02*
X96956714Y-120501580D01*
X96956714Y-120501580D02*
X97004333Y-120549200D01*
X97004333Y-120549200D02*
X97099571Y-120596819D01*
X97099571Y-120596819D02*
X97385285Y-120596819D01*
X97385285Y-120596819D02*
X97480523Y-120549200D01*
X97480523Y-120549200D02*
X97528142Y-120501580D01*
X145877517Y-54282693D02*
X145170410Y-53575587D01*
X145170410Y-53575587D02*
X145002051Y-53743945D01*
X145002051Y-53743945D02*
X144934708Y-53878632D01*
X144934708Y-53878632D02*
X144934708Y-54013319D01*
X144934708Y-54013319D02*
X144968380Y-54114335D01*
X144968380Y-54114335D02*
X145069395Y-54282693D01*
X145069395Y-54282693D02*
X145170410Y-54383709D01*
X145170410Y-54383709D02*
X145338769Y-54484724D01*
X145338769Y-54484724D02*
X145439784Y-54518396D01*
X145439784Y-54518396D02*
X145574471Y-54518396D01*
X145574471Y-54518396D02*
X145709158Y-54451052D01*
X145709158Y-54451052D02*
X145877517Y-54282693D01*
X144530647Y-54215350D02*
X144092914Y-54653083D01*
X144092914Y-54653083D02*
X144597990Y-54686754D01*
X144597990Y-54686754D02*
X144496975Y-54787770D01*
X144496975Y-54787770D02*
X144463303Y-54888785D01*
X144463303Y-54888785D02*
X144463303Y-54956128D01*
X144463303Y-54956128D02*
X144496975Y-55057144D01*
X144496975Y-55057144D02*
X144665334Y-55225502D01*
X144665334Y-55225502D02*
X144766349Y-55259174D01*
X144766349Y-55259174D02*
X144833693Y-55259174D01*
X144833693Y-55259174D02*
X144934708Y-55225502D01*
X144934708Y-55225502D02*
X145136738Y-55023472D01*
X145136738Y-55023472D02*
X145170410Y-54922457D01*
X145170410Y-54922457D02*
X145170410Y-54855113D01*
X138638517Y-97335693D02*
X137931410Y-96628587D01*
X137931410Y-96628587D02*
X137763051Y-96796945D01*
X137763051Y-96796945D02*
X137695708Y-96931632D01*
X137695708Y-96931632D02*
X137695708Y-97066319D01*
X137695708Y-97066319D02*
X137729380Y-97167335D01*
X137729380Y-97167335D02*
X137830395Y-97335693D01*
X137830395Y-97335693D02*
X137931410Y-97436709D01*
X137931410Y-97436709D02*
X138099769Y-97537724D01*
X138099769Y-97537724D02*
X138200784Y-97571396D01*
X138200784Y-97571396D02*
X138335471Y-97571396D01*
X138335471Y-97571396D02*
X138470158Y-97504052D01*
X138470158Y-97504052D02*
X138638517Y-97335693D01*
X137897738Y-98076472D02*
X137763051Y-98211159D01*
X137763051Y-98211159D02*
X137662036Y-98244831D01*
X137662036Y-98244831D02*
X137594693Y-98244831D01*
X137594693Y-98244831D02*
X137426334Y-98211159D01*
X137426334Y-98211159D02*
X137257975Y-98110144D01*
X137257975Y-98110144D02*
X136988601Y-97840770D01*
X136988601Y-97840770D02*
X136954929Y-97739754D01*
X136954929Y-97739754D02*
X136954929Y-97672411D01*
X136954929Y-97672411D02*
X136988601Y-97571396D01*
X136988601Y-97571396D02*
X137123288Y-97436709D01*
X137123288Y-97436709D02*
X137224303Y-97403037D01*
X137224303Y-97403037D02*
X137291647Y-97403037D01*
X137291647Y-97403037D02*
X137392662Y-97436709D01*
X137392662Y-97436709D02*
X137561021Y-97605067D01*
X137561021Y-97605067D02*
X137594693Y-97706083D01*
X137594693Y-97706083D02*
X137594693Y-97773426D01*
X137594693Y-97773426D02*
X137561021Y-97874441D01*
X137561021Y-97874441D02*
X137426334Y-98009128D01*
X137426334Y-98009128D02*
X137325319Y-98042800D01*
X137325319Y-98042800D02*
X137257975Y-98042800D01*
X137257975Y-98042800D02*
X137156960Y-98009128D01*
X122041677Y-82623819D02*
X122041677Y-81623819D01*
X122041677Y-81623819D02*
X121803582Y-81623819D01*
X121803582Y-81623819D02*
X121660725Y-81671438D01*
X121660725Y-81671438D02*
X121565487Y-81766676D01*
X121565487Y-81766676D02*
X121517868Y-81861914D01*
X121517868Y-81861914D02*
X121470249Y-82052390D01*
X121470249Y-82052390D02*
X121470249Y-82195247D01*
X121470249Y-82195247D02*
X121517868Y-82385723D01*
X121517868Y-82385723D02*
X121565487Y-82480961D01*
X121565487Y-82480961D02*
X121660725Y-82576200D01*
X121660725Y-82576200D02*
X121803582Y-82623819D01*
X121803582Y-82623819D02*
X122041677Y-82623819D01*
X120565487Y-81623819D02*
X121041677Y-81623819D01*
X121041677Y-81623819D02*
X121089296Y-82100009D01*
X121089296Y-82100009D02*
X121041677Y-82052390D01*
X121041677Y-82052390D02*
X120946439Y-82004771D01*
X120946439Y-82004771D02*
X120708344Y-82004771D01*
X120708344Y-82004771D02*
X120613106Y-82052390D01*
X120613106Y-82052390D02*
X120565487Y-82100009D01*
X120565487Y-82100009D02*
X120517868Y-82195247D01*
X120517868Y-82195247D02*
X120517868Y-82433342D01*
X120517868Y-82433342D02*
X120565487Y-82528580D01*
X120565487Y-82528580D02*
X120613106Y-82576200D01*
X120613106Y-82576200D02*
X120708344Y-82623819D01*
X120708344Y-82623819D02*
X120946439Y-82623819D01*
X120946439Y-82623819D02*
X121041677Y-82576200D01*
X121041677Y-82576200D02*
X121089296Y-82528580D01*
X120041677Y-82623819D02*
X119851201Y-82623819D01*
X119851201Y-82623819D02*
X119755963Y-82576200D01*
X119755963Y-82576200D02*
X119708344Y-82528580D01*
X119708344Y-82528580D02*
X119613106Y-82385723D01*
X119613106Y-82385723D02*
X119565487Y-82195247D01*
X119565487Y-82195247D02*
X119565487Y-81814295D01*
X119565487Y-81814295D02*
X119613106Y-81719057D01*
X119613106Y-81719057D02*
X119660725Y-81671438D01*
X119660725Y-81671438D02*
X119755963Y-81623819D01*
X119755963Y-81623819D02*
X119946439Y-81623819D01*
X119946439Y-81623819D02*
X120041677Y-81671438D01*
X120041677Y-81671438D02*
X120089296Y-81719057D01*
X120089296Y-81719057D02*
X120136915Y-81814295D01*
X120136915Y-81814295D02*
X120136915Y-82052390D01*
X120136915Y-82052390D02*
X120089296Y-82147628D01*
X120089296Y-82147628D02*
X120041677Y-82195247D01*
X120041677Y-82195247D02*
X119946439Y-82242866D01*
X119946439Y-82242866D02*
X119755963Y-82242866D01*
X119755963Y-82242866D02*
X119660725Y-82195247D01*
X119660725Y-82195247D02*
X119613106Y-82147628D01*
X119613106Y-82147628D02*
X119565487Y-82052390D01*
X100748235Y-131415975D02*
X100041128Y-130708869D01*
X100041128Y-130708869D02*
X99872769Y-130877227D01*
X99872769Y-130877227D02*
X99805426Y-131011914D01*
X99805426Y-131011914D02*
X99805426Y-131146601D01*
X99805426Y-131146601D02*
X99839098Y-131247617D01*
X99839098Y-131247617D02*
X99940113Y-131415975D01*
X99940113Y-131415975D02*
X100041128Y-131516991D01*
X100041128Y-131516991D02*
X100209487Y-131618006D01*
X100209487Y-131618006D02*
X100310502Y-131651678D01*
X100310502Y-131651678D02*
X100445189Y-131651678D01*
X100445189Y-131651678D02*
X100579876Y-131584334D01*
X100579876Y-131584334D02*
X100748235Y-131415975D01*
X98997304Y-131752693D02*
X99334021Y-131415975D01*
X99334021Y-131415975D02*
X99704411Y-131719021D01*
X99704411Y-131719021D02*
X99637067Y-131719021D01*
X99637067Y-131719021D02*
X99536052Y-131752693D01*
X99536052Y-131752693D02*
X99367693Y-131921052D01*
X99367693Y-131921052D02*
X99334021Y-132022067D01*
X99334021Y-132022067D02*
X99334021Y-132089410D01*
X99334021Y-132089410D02*
X99367693Y-132190426D01*
X99367693Y-132190426D02*
X99536052Y-132358784D01*
X99536052Y-132358784D02*
X99637067Y-132392456D01*
X99637067Y-132392456D02*
X99704411Y-132392456D01*
X99704411Y-132392456D02*
X99805426Y-132358784D01*
X99805426Y-132358784D02*
X99973785Y-132190426D01*
X99973785Y-132190426D02*
X100007456Y-132089410D01*
X100007456Y-132089410D02*
X100007456Y-132022067D01*
X98525899Y-132224098D02*
X98458556Y-132291441D01*
X98458556Y-132291441D02*
X98424884Y-132392456D01*
X98424884Y-132392456D02*
X98424884Y-132459800D01*
X98424884Y-132459800D02*
X98458556Y-132560815D01*
X98458556Y-132560815D02*
X98559571Y-132729174D01*
X98559571Y-132729174D02*
X98727930Y-132897533D01*
X98727930Y-132897533D02*
X98896288Y-132998548D01*
X98896288Y-132998548D02*
X98997304Y-133032220D01*
X98997304Y-133032220D02*
X99064647Y-133032220D01*
X99064647Y-133032220D02*
X99165662Y-132998548D01*
X99165662Y-132998548D02*
X99233006Y-132931204D01*
X99233006Y-132931204D02*
X99266678Y-132830189D01*
X99266678Y-132830189D02*
X99266678Y-132762846D01*
X99266678Y-132762846D02*
X99233006Y-132661830D01*
X99233006Y-132661830D02*
X99131991Y-132493472D01*
X99131991Y-132493472D02*
X98963632Y-132325113D01*
X98963632Y-132325113D02*
X98795273Y-132224098D01*
X98795273Y-132224098D02*
X98694258Y-132190426D01*
X98694258Y-132190426D02*
X98626914Y-132190426D01*
X98626914Y-132190426D02*
X98525899Y-132224098D01*
X106751285Y-107896819D02*
X106751285Y-106896819D01*
X106751285Y-106896819D02*
X106513190Y-106896819D01*
X106513190Y-106896819D02*
X106370333Y-106944438D01*
X106370333Y-106944438D02*
X106275095Y-107039676D01*
X106275095Y-107039676D02*
X106227476Y-107134914D01*
X106227476Y-107134914D02*
X106179857Y-107325390D01*
X106179857Y-107325390D02*
X106179857Y-107468247D01*
X106179857Y-107468247D02*
X106227476Y-107658723D01*
X106227476Y-107658723D02*
X106275095Y-107753961D01*
X106275095Y-107753961D02*
X106370333Y-107849200D01*
X106370333Y-107849200D02*
X106513190Y-107896819D01*
X106513190Y-107896819D02*
X106751285Y-107896819D01*
X105275095Y-106896819D02*
X105751285Y-106896819D01*
X105751285Y-106896819D02*
X105798904Y-107373009D01*
X105798904Y-107373009D02*
X105751285Y-107325390D01*
X105751285Y-107325390D02*
X105656047Y-107277771D01*
X105656047Y-107277771D02*
X105417952Y-107277771D01*
X105417952Y-107277771D02*
X105322714Y-107325390D01*
X105322714Y-107325390D02*
X105275095Y-107373009D01*
X105275095Y-107373009D02*
X105227476Y-107468247D01*
X105227476Y-107468247D02*
X105227476Y-107706342D01*
X105227476Y-107706342D02*
X105275095Y-107801580D01*
X105275095Y-107801580D02*
X105322714Y-107849200D01*
X105322714Y-107849200D02*
X105417952Y-107896819D01*
X105417952Y-107896819D02*
X105656047Y-107896819D01*
X105656047Y-107896819D02*
X105751285Y-107849200D01*
X105751285Y-107849200D02*
X105798904Y-107801580D01*
X104322714Y-106896819D02*
X104798904Y-106896819D01*
X104798904Y-106896819D02*
X104846523Y-107373009D01*
X104846523Y-107373009D02*
X104798904Y-107325390D01*
X104798904Y-107325390D02*
X104703666Y-107277771D01*
X104703666Y-107277771D02*
X104465571Y-107277771D01*
X104465571Y-107277771D02*
X104370333Y-107325390D01*
X104370333Y-107325390D02*
X104322714Y-107373009D01*
X104322714Y-107373009D02*
X104275095Y-107468247D01*
X104275095Y-107468247D02*
X104275095Y-107706342D01*
X104275095Y-107706342D02*
X104322714Y-107801580D01*
X104322714Y-107801580D02*
X104370333Y-107849200D01*
X104370333Y-107849200D02*
X104465571Y-107896819D01*
X104465571Y-107896819D02*
X104703666Y-107896819D01*
X104703666Y-107896819D02*
X104798904Y-107849200D01*
X104798904Y-107849200D02*
X104846523Y-107801580D01*
X142321517Y-75618693D02*
X141614410Y-74911587D01*
X141614410Y-74911587D02*
X141446051Y-75079945D01*
X141446051Y-75079945D02*
X141378708Y-75214632D01*
X141378708Y-75214632D02*
X141378708Y-75349319D01*
X141378708Y-75349319D02*
X141412380Y-75450335D01*
X141412380Y-75450335D02*
X141513395Y-75618693D01*
X141513395Y-75618693D02*
X141614410Y-75719709D01*
X141614410Y-75719709D02*
X141782769Y-75820724D01*
X141782769Y-75820724D02*
X141883784Y-75854396D01*
X141883784Y-75854396D02*
X142018471Y-75854396D01*
X142018471Y-75854396D02*
X142153158Y-75787052D01*
X142153158Y-75787052D02*
X142321517Y-75618693D01*
X140604258Y-75921739D02*
X140738945Y-75787052D01*
X140738945Y-75787052D02*
X140839960Y-75753380D01*
X140839960Y-75753380D02*
X140907303Y-75753380D01*
X140907303Y-75753380D02*
X141075662Y-75787052D01*
X141075662Y-75787052D02*
X141244021Y-75888067D01*
X141244021Y-75888067D02*
X141513395Y-76157441D01*
X141513395Y-76157441D02*
X141547067Y-76258457D01*
X141547067Y-76258457D02*
X141547067Y-76325800D01*
X141547067Y-76325800D02*
X141513395Y-76426815D01*
X141513395Y-76426815D02*
X141378708Y-76561502D01*
X141378708Y-76561502D02*
X141277693Y-76595174D01*
X141277693Y-76595174D02*
X141210349Y-76595174D01*
X141210349Y-76595174D02*
X141109334Y-76561502D01*
X141109334Y-76561502D02*
X140940975Y-76393144D01*
X140940975Y-76393144D02*
X140907303Y-76292128D01*
X140907303Y-76292128D02*
X140907303Y-76224785D01*
X140907303Y-76224785D02*
X140940975Y-76123770D01*
X140940975Y-76123770D02*
X141075662Y-75989083D01*
X141075662Y-75989083D02*
X141176677Y-75955411D01*
X141176677Y-75955411D02*
X141244021Y-75955411D01*
X141244021Y-75955411D02*
X141345036Y-75989083D01*
X143464517Y-68506693D02*
X142757410Y-67799587D01*
X142757410Y-67799587D02*
X142589051Y-67967945D01*
X142589051Y-67967945D02*
X142521708Y-68102632D01*
X142521708Y-68102632D02*
X142521708Y-68237319D01*
X142521708Y-68237319D02*
X142555380Y-68338335D01*
X142555380Y-68338335D02*
X142656395Y-68506693D01*
X142656395Y-68506693D02*
X142757410Y-68607709D01*
X142757410Y-68607709D02*
X142925769Y-68708724D01*
X142925769Y-68708724D02*
X143026784Y-68742396D01*
X143026784Y-68742396D02*
X143161471Y-68742396D01*
X143161471Y-68742396D02*
X143296158Y-68675052D01*
X143296158Y-68675052D02*
X143464517Y-68506693D01*
X141713586Y-68843411D02*
X142050303Y-68506693D01*
X142050303Y-68506693D02*
X142420693Y-68809739D01*
X142420693Y-68809739D02*
X142353349Y-68809739D01*
X142353349Y-68809739D02*
X142252334Y-68843411D01*
X142252334Y-68843411D02*
X142083975Y-69011770D01*
X142083975Y-69011770D02*
X142050303Y-69112785D01*
X142050303Y-69112785D02*
X142050303Y-69180128D01*
X142050303Y-69180128D02*
X142083975Y-69281144D01*
X142083975Y-69281144D02*
X142252334Y-69449502D01*
X142252334Y-69449502D02*
X142353349Y-69483174D01*
X142353349Y-69483174D02*
X142420693Y-69483174D01*
X142420693Y-69483174D02*
X142521708Y-69449502D01*
X142521708Y-69449502D02*
X142690067Y-69281144D01*
X142690067Y-69281144D02*
X142723738Y-69180128D01*
X142723738Y-69180128D02*
X142723738Y-69112785D01*
X140787285Y-51000819D02*
X140787285Y-50000819D01*
X140787285Y-50000819D02*
X140549190Y-50000819D01*
X140549190Y-50000819D02*
X140406333Y-50048438D01*
X140406333Y-50048438D02*
X140311095Y-50143676D01*
X140311095Y-50143676D02*
X140263476Y-50238914D01*
X140263476Y-50238914D02*
X140215857Y-50429390D01*
X140215857Y-50429390D02*
X140215857Y-50572247D01*
X140215857Y-50572247D02*
X140263476Y-50762723D01*
X140263476Y-50762723D02*
X140311095Y-50857961D01*
X140311095Y-50857961D02*
X140406333Y-50953200D01*
X140406333Y-50953200D02*
X140549190Y-51000819D01*
X140549190Y-51000819D02*
X140787285Y-51000819D01*
X139358714Y-50000819D02*
X139549190Y-50000819D01*
X139549190Y-50000819D02*
X139644428Y-50048438D01*
X139644428Y-50048438D02*
X139692047Y-50096057D01*
X139692047Y-50096057D02*
X139787285Y-50238914D01*
X139787285Y-50238914D02*
X139834904Y-50429390D01*
X139834904Y-50429390D02*
X139834904Y-50810342D01*
X139834904Y-50810342D02*
X139787285Y-50905580D01*
X139787285Y-50905580D02*
X139739666Y-50953200D01*
X139739666Y-50953200D02*
X139644428Y-51000819D01*
X139644428Y-51000819D02*
X139453952Y-51000819D01*
X139453952Y-51000819D02*
X139358714Y-50953200D01*
X139358714Y-50953200D02*
X139311095Y-50905580D01*
X139311095Y-50905580D02*
X139263476Y-50810342D01*
X139263476Y-50810342D02*
X139263476Y-50572247D01*
X139263476Y-50572247D02*
X139311095Y-50477009D01*
X139311095Y-50477009D02*
X139358714Y-50429390D01*
X139358714Y-50429390D02*
X139453952Y-50381771D01*
X139453952Y-50381771D02*
X139644428Y-50381771D01*
X139644428Y-50381771D02*
X139739666Y-50429390D01*
X139739666Y-50429390D02*
X139787285Y-50477009D01*
X139787285Y-50477009D02*
X139834904Y-50572247D01*
X138406333Y-50334152D02*
X138406333Y-51000819D01*
X138644428Y-49953200D02*
X138882523Y-50667485D01*
X138882523Y-50667485D02*
X138263476Y-50667485D01*
X95702285Y-126819819D02*
X95702285Y-125819819D01*
X95702285Y-125819819D02*
X95464190Y-125819819D01*
X95464190Y-125819819D02*
X95321333Y-125867438D01*
X95321333Y-125867438D02*
X95226095Y-125962676D01*
X95226095Y-125962676D02*
X95178476Y-126057914D01*
X95178476Y-126057914D02*
X95130857Y-126248390D01*
X95130857Y-126248390D02*
X95130857Y-126391247D01*
X95130857Y-126391247D02*
X95178476Y-126581723D01*
X95178476Y-126581723D02*
X95226095Y-126676961D01*
X95226095Y-126676961D02*
X95321333Y-126772200D01*
X95321333Y-126772200D02*
X95464190Y-126819819D01*
X95464190Y-126819819D02*
X95702285Y-126819819D01*
X94226095Y-125819819D02*
X94702285Y-125819819D01*
X94702285Y-125819819D02*
X94749904Y-126296009D01*
X94749904Y-126296009D02*
X94702285Y-126248390D01*
X94702285Y-126248390D02*
X94607047Y-126200771D01*
X94607047Y-126200771D02*
X94368952Y-126200771D01*
X94368952Y-126200771D02*
X94273714Y-126248390D01*
X94273714Y-126248390D02*
X94226095Y-126296009D01*
X94226095Y-126296009D02*
X94178476Y-126391247D01*
X94178476Y-126391247D02*
X94178476Y-126629342D01*
X94178476Y-126629342D02*
X94226095Y-126724580D01*
X94226095Y-126724580D02*
X94273714Y-126772200D01*
X94273714Y-126772200D02*
X94368952Y-126819819D01*
X94368952Y-126819819D02*
X94607047Y-126819819D01*
X94607047Y-126819819D02*
X94702285Y-126772200D01*
X94702285Y-126772200D02*
X94749904Y-126724580D01*
X93797523Y-125915057D02*
X93749904Y-125867438D01*
X93749904Y-125867438D02*
X93654666Y-125819819D01*
X93654666Y-125819819D02*
X93416571Y-125819819D01*
X93416571Y-125819819D02*
X93321333Y-125867438D01*
X93321333Y-125867438D02*
X93273714Y-125915057D01*
X93273714Y-125915057D02*
X93226095Y-126010295D01*
X93226095Y-126010295D02*
X93226095Y-126105533D01*
X93226095Y-126105533D02*
X93273714Y-126248390D01*
X93273714Y-126248390D02*
X93845142Y-126819819D01*
X93845142Y-126819819D02*
X93226095Y-126819819D01*
X144607517Y-61267693D02*
X143900410Y-60560587D01*
X143900410Y-60560587D02*
X143732051Y-60728945D01*
X143732051Y-60728945D02*
X143664708Y-60863632D01*
X143664708Y-60863632D02*
X143664708Y-60998319D01*
X143664708Y-60998319D02*
X143698380Y-61099335D01*
X143698380Y-61099335D02*
X143799395Y-61267693D01*
X143799395Y-61267693D02*
X143900410Y-61368709D01*
X143900410Y-61368709D02*
X144068769Y-61469724D01*
X144068769Y-61469724D02*
X144169784Y-61503396D01*
X144169784Y-61503396D02*
X144304471Y-61503396D01*
X144304471Y-61503396D02*
X144439158Y-61436052D01*
X144439158Y-61436052D02*
X144607517Y-61267693D01*
X143125960Y-61806441D02*
X143597364Y-62277846D01*
X143024945Y-61368709D02*
X143698380Y-61705426D01*
X143698380Y-61705426D02*
X143260647Y-62143159D01*
X129601677Y-69923819D02*
X129601677Y-68923819D01*
X129601677Y-68923819D02*
X129363582Y-68923819D01*
X129363582Y-68923819D02*
X129220725Y-68971438D01*
X129220725Y-68971438D02*
X129125487Y-69066676D01*
X129125487Y-69066676D02*
X129077868Y-69161914D01*
X129077868Y-69161914D02*
X129030249Y-69352390D01*
X129030249Y-69352390D02*
X129030249Y-69495247D01*
X129030249Y-69495247D02*
X129077868Y-69685723D01*
X129077868Y-69685723D02*
X129125487Y-69780961D01*
X129125487Y-69780961D02*
X129220725Y-69876200D01*
X129220725Y-69876200D02*
X129363582Y-69923819D01*
X129363582Y-69923819D02*
X129601677Y-69923819D01*
X128173106Y-68923819D02*
X128363582Y-68923819D01*
X128363582Y-68923819D02*
X128458820Y-68971438D01*
X128458820Y-68971438D02*
X128506439Y-69019057D01*
X128506439Y-69019057D02*
X128601677Y-69161914D01*
X128601677Y-69161914D02*
X128649296Y-69352390D01*
X128649296Y-69352390D02*
X128649296Y-69733342D01*
X128649296Y-69733342D02*
X128601677Y-69828580D01*
X128601677Y-69828580D02*
X128554058Y-69876200D01*
X128554058Y-69876200D02*
X128458820Y-69923819D01*
X128458820Y-69923819D02*
X128268344Y-69923819D01*
X128268344Y-69923819D02*
X128173106Y-69876200D01*
X128173106Y-69876200D02*
X128125487Y-69828580D01*
X128125487Y-69828580D02*
X128077868Y-69733342D01*
X128077868Y-69733342D02*
X128077868Y-69495247D01*
X128077868Y-69495247D02*
X128125487Y-69400009D01*
X128125487Y-69400009D02*
X128173106Y-69352390D01*
X128173106Y-69352390D02*
X128268344Y-69304771D01*
X128268344Y-69304771D02*
X128458820Y-69304771D01*
X128458820Y-69304771D02*
X128554058Y-69352390D01*
X128554058Y-69352390D02*
X128601677Y-69400009D01*
X128601677Y-69400009D02*
X128649296Y-69495247D01*
X127125487Y-69923819D02*
X127696915Y-69923819D01*
X127411201Y-69923819D02*
X127411201Y-68923819D01*
X127411201Y-68923819D02*
X127506439Y-69066676D01*
X127506439Y-69066676D02*
X127601677Y-69161914D01*
X127601677Y-69161914D02*
X127696915Y-69209533D01*
X141178517Y-82984693D02*
X140471410Y-82277587D01*
X140471410Y-82277587D02*
X140303051Y-82445945D01*
X140303051Y-82445945D02*
X140235708Y-82580632D01*
X140235708Y-82580632D02*
X140235708Y-82715319D01*
X140235708Y-82715319D02*
X140269380Y-82816335D01*
X140269380Y-82816335D02*
X140370395Y-82984693D01*
X140370395Y-82984693D02*
X140471410Y-83085709D01*
X140471410Y-83085709D02*
X140639769Y-83186724D01*
X140639769Y-83186724D02*
X140740784Y-83220396D01*
X140740784Y-83220396D02*
X140875471Y-83220396D01*
X140875471Y-83220396D02*
X141010158Y-83153052D01*
X141010158Y-83153052D02*
X141178517Y-82984693D01*
X139831647Y-82917350D02*
X139360242Y-83388754D01*
X139360242Y-83388754D02*
X140370395Y-83792815D01*
X135419235Y-118461975D02*
X134712128Y-117754869D01*
X134712128Y-117754869D02*
X134543769Y-117923227D01*
X134543769Y-117923227D02*
X134476426Y-118057914D01*
X134476426Y-118057914D02*
X134476426Y-118192601D01*
X134476426Y-118192601D02*
X134510098Y-118293617D01*
X134510098Y-118293617D02*
X134611113Y-118461975D01*
X134611113Y-118461975D02*
X134712128Y-118562991D01*
X134712128Y-118562991D02*
X134880487Y-118664006D01*
X134880487Y-118664006D02*
X134981502Y-118697678D01*
X134981502Y-118697678D02*
X135116189Y-118697678D01*
X135116189Y-118697678D02*
X135250876Y-118630334D01*
X135250876Y-118630334D02*
X135419235Y-118461975D01*
X134341739Y-119539471D02*
X134745800Y-119135410D01*
X134543769Y-119337441D02*
X133836663Y-118630334D01*
X133836663Y-118630334D02*
X134005021Y-118664006D01*
X134005021Y-118664006D02*
X134139708Y-118664006D01*
X134139708Y-118664006D02*
X134240724Y-118630334D01*
X133432601Y-119169082D02*
X133365258Y-119169082D01*
X133365258Y-119169082D02*
X133264243Y-119202754D01*
X133264243Y-119202754D02*
X133095884Y-119371113D01*
X133095884Y-119371113D02*
X133062212Y-119472128D01*
X133062212Y-119472128D02*
X133062212Y-119539472D01*
X133062212Y-119539472D02*
X133095884Y-119640487D01*
X133095884Y-119640487D02*
X133163227Y-119707830D01*
X133163227Y-119707830D02*
X133297914Y-119775174D01*
X133297914Y-119775174D02*
X134106036Y-119775174D01*
X134106036Y-119775174D02*
X133668304Y-120212907D01*
X122657446Y-109133950D02*
X123229866Y-109706370D01*
X123229866Y-109706370D02*
X123263538Y-109807385D01*
X123263538Y-109807385D02*
X123263538Y-109874729D01*
X123263538Y-109874729D02*
X123229866Y-109975744D01*
X123229866Y-109975744D02*
X123095179Y-110110431D01*
X123095179Y-110110431D02*
X122994164Y-110144103D01*
X122994164Y-110144103D02*
X122926820Y-110144103D01*
X122926820Y-110144103D02*
X122825805Y-110110431D01*
X122825805Y-110110431D02*
X122253385Y-109538011D01*
X122253385Y-110952225D02*
X122657446Y-110548164D01*
X122455416Y-110750194D02*
X121748309Y-110043088D01*
X121748309Y-110043088D02*
X121916668Y-110076759D01*
X121916668Y-110076759D02*
X122051355Y-110076759D01*
X122051355Y-110076759D02*
X122152370Y-110043088D01*
X112350163Y-123407374D02*
X112922582Y-123306359D01*
X112754224Y-123811435D02*
X113461330Y-123104328D01*
X113461330Y-123104328D02*
X113191956Y-122834954D01*
X113191956Y-122834954D02*
X113090941Y-122801282D01*
X113090941Y-122801282D02*
X113023598Y-122801282D01*
X113023598Y-122801282D02*
X112922582Y-122834954D01*
X112922582Y-122834954D02*
X112821567Y-122935969D01*
X112821567Y-122935969D02*
X112787895Y-123036985D01*
X112787895Y-123036985D02*
X112787895Y-123104328D01*
X112787895Y-123104328D02*
X112821567Y-123205343D01*
X112821567Y-123205343D02*
X113090941Y-123474717D01*
X111676728Y-122733939D02*
X112080789Y-123138000D01*
X111878758Y-122935969D02*
X112585865Y-122228863D01*
X112585865Y-122228863D02*
X112552193Y-122397221D01*
X112552193Y-122397221D02*
X112552193Y-122531908D01*
X112552193Y-122531908D02*
X112585865Y-122632924D01*
X111744071Y-121387069D02*
X112080789Y-121723786D01*
X112080789Y-121723786D02*
X111777743Y-122094175D01*
X111777743Y-122094175D02*
X111777743Y-122026832D01*
X111777743Y-122026832D02*
X111744071Y-121925817D01*
X111744071Y-121925817D02*
X111575712Y-121757458D01*
X111575712Y-121757458D02*
X111474697Y-121723786D01*
X111474697Y-121723786D02*
X111407353Y-121723786D01*
X111407353Y-121723786D02*
X111306338Y-121757458D01*
X111306338Y-121757458D02*
X111137979Y-121925817D01*
X111137979Y-121925817D02*
X111104308Y-122026832D01*
X111104308Y-122026832D02*
X111104308Y-122094175D01*
X111104308Y-122094175D02*
X111137979Y-122195191D01*
X111137979Y-122195191D02*
X111306338Y-122363549D01*
X111306338Y-122363549D02*
X111407353Y-122397221D01*
X111407353Y-122397221D02*
X111474697Y-122397221D01*
X121863674Y-89724342D02*
X121728987Y-89656999D01*
X121728987Y-89656999D02*
X121560629Y-89488640D01*
X121560629Y-89488640D02*
X121526957Y-89387625D01*
X121526957Y-89387625D02*
X121526957Y-89320281D01*
X121526957Y-89320281D02*
X121560629Y-89219266D01*
X121560629Y-89219266D02*
X121627972Y-89151922D01*
X121627972Y-89151922D02*
X121728987Y-89118251D01*
X121728987Y-89118251D02*
X121796331Y-89118251D01*
X121796331Y-89118251D02*
X121897346Y-89151922D01*
X121897346Y-89151922D02*
X122065705Y-89252938D01*
X122065705Y-89252938D02*
X122166720Y-89286609D01*
X122166720Y-89286609D02*
X122234064Y-89286609D01*
X122234064Y-89286609D02*
X122335079Y-89252938D01*
X122335079Y-89252938D02*
X122402422Y-89185594D01*
X122402422Y-89185594D02*
X122436094Y-89084579D01*
X122436094Y-89084579D02*
X122436094Y-89017235D01*
X122436094Y-89017235D02*
X122402422Y-88916220D01*
X122402422Y-88916220D02*
X122234064Y-88747861D01*
X122234064Y-88747861D02*
X122099377Y-88680518D01*
X121897346Y-88411144D02*
X121021880Y-88949892D01*
X121021880Y-88949892D02*
X121392270Y-88310128D01*
X121392270Y-88310128D02*
X120752506Y-88680518D01*
X120752506Y-88680518D02*
X121291254Y-87805052D01*
X119944385Y-87872396D02*
X120348446Y-88276457D01*
X120146415Y-88074426D02*
X120853522Y-87367320D01*
X120853522Y-87367320D02*
X120819850Y-87535678D01*
X120819850Y-87535678D02*
X120819850Y-87670365D01*
X120819850Y-87670365D02*
X120853522Y-87771381D01*
X135145018Y-83780333D02*
X134668827Y-83447000D01*
X135145018Y-83208905D02*
X134145018Y-83208905D01*
X134145018Y-83208905D02*
X134145018Y-83589857D01*
X134145018Y-83589857D02*
X134192637Y-83685095D01*
X134192637Y-83685095D02*
X134240256Y-83732714D01*
X134240256Y-83732714D02*
X134335494Y-83780333D01*
X134335494Y-83780333D02*
X134478351Y-83780333D01*
X134478351Y-83780333D02*
X134573589Y-83732714D01*
X134573589Y-83732714D02*
X134621208Y-83685095D01*
X134621208Y-83685095D02*
X134668827Y-83589857D01*
X134668827Y-83589857D02*
X134668827Y-83208905D01*
X134240256Y-84161286D02*
X134192637Y-84208905D01*
X134192637Y-84208905D02*
X134145018Y-84304143D01*
X134145018Y-84304143D02*
X134145018Y-84542238D01*
X134145018Y-84542238D02*
X134192637Y-84637476D01*
X134192637Y-84637476D02*
X134240256Y-84685095D01*
X134240256Y-84685095D02*
X134335494Y-84732714D01*
X134335494Y-84732714D02*
X134430732Y-84732714D01*
X134430732Y-84732714D02*
X134573589Y-84685095D01*
X134573589Y-84685095D02*
X135145018Y-84113667D01*
X135145018Y-84113667D02*
X135145018Y-84732714D01*
X130166618Y-88199933D02*
X129690427Y-87866600D01*
X130166618Y-87628505D02*
X129166618Y-87628505D01*
X129166618Y-87628505D02*
X129166618Y-88009457D01*
X129166618Y-88009457D02*
X129214237Y-88104695D01*
X129214237Y-88104695D02*
X129261856Y-88152314D01*
X129261856Y-88152314D02*
X129357094Y-88199933D01*
X129357094Y-88199933D02*
X129499951Y-88199933D01*
X129499951Y-88199933D02*
X129595189Y-88152314D01*
X129595189Y-88152314D02*
X129642808Y-88104695D01*
X129642808Y-88104695D02*
X129690427Y-88009457D01*
X129690427Y-88009457D02*
X129690427Y-87628505D01*
X129166618Y-88533267D02*
X129166618Y-89152314D01*
X129166618Y-89152314D02*
X129547570Y-88818981D01*
X129547570Y-88818981D02*
X129547570Y-88961838D01*
X129547570Y-88961838D02*
X129595189Y-89057076D01*
X129595189Y-89057076D02*
X129642808Y-89104695D01*
X129642808Y-89104695D02*
X129738046Y-89152314D01*
X129738046Y-89152314D02*
X129976141Y-89152314D01*
X129976141Y-89152314D02*
X130071379Y-89104695D01*
X130071379Y-89104695D02*
X130118999Y-89057076D01*
X130118999Y-89057076D02*
X130166618Y-88961838D01*
X130166618Y-88961838D02*
X130166618Y-88676124D01*
X130166618Y-88676124D02*
X130118999Y-88580886D01*
X130118999Y-88580886D02*
X130071379Y-88533267D01*
X124801802Y-112219801D02*
X124296726Y-112724877D01*
X124296726Y-112724877D02*
X124229382Y-112859564D01*
X124229382Y-112859564D02*
X124229382Y-112994251D01*
X124229382Y-112994251D02*
X124296726Y-113128938D01*
X124296726Y-113128938D02*
X124364069Y-113196282D01*
X124431413Y-111984098D02*
X124431413Y-111916755D01*
X124431413Y-111916755D02*
X124397741Y-111815740D01*
X124397741Y-111815740D02*
X124229382Y-111647381D01*
X124229382Y-111647381D02*
X124128367Y-111613709D01*
X124128367Y-111613709D02*
X124061023Y-111613709D01*
X124061023Y-111613709D02*
X123960008Y-111647381D01*
X123960008Y-111647381D02*
X123892665Y-111714724D01*
X123892665Y-111714724D02*
X123825321Y-111849411D01*
X123825321Y-111849411D02*
X123825321Y-112657533D01*
X123825321Y-112657533D02*
X123387588Y-112219801D01*
X129252218Y-79259133D02*
X128776027Y-78925800D01*
X129252218Y-78687705D02*
X128252218Y-78687705D01*
X128252218Y-78687705D02*
X128252218Y-79068657D01*
X128252218Y-79068657D02*
X128299837Y-79163895D01*
X128299837Y-79163895D02*
X128347456Y-79211514D01*
X128347456Y-79211514D02*
X128442694Y-79259133D01*
X128442694Y-79259133D02*
X128585551Y-79259133D01*
X128585551Y-79259133D02*
X128680789Y-79211514D01*
X128680789Y-79211514D02*
X128728408Y-79163895D01*
X128728408Y-79163895D02*
X128776027Y-79068657D01*
X128776027Y-79068657D02*
X128776027Y-78687705D01*
X128585551Y-80116276D02*
X129252218Y-80116276D01*
X128204599Y-79878181D02*
X128918884Y-79640086D01*
X128918884Y-79640086D02*
X128918884Y-80259133D01*
X109083588Y-126229112D02*
X109083588Y-126296456D01*
X109083588Y-126296456D02*
X109150932Y-126431143D01*
X109150932Y-126431143D02*
X109218275Y-126498486D01*
X109218275Y-126498486D02*
X109352962Y-126565830D01*
X109352962Y-126565830D02*
X109487649Y-126565830D01*
X109487649Y-126565830D02*
X109588664Y-126532158D01*
X109588664Y-126532158D02*
X109757023Y-126431143D01*
X109757023Y-126431143D02*
X109858038Y-126330128D01*
X109858038Y-126330128D02*
X109959054Y-126161769D01*
X109959054Y-126161769D02*
X109992725Y-126060754D01*
X109992725Y-126060754D02*
X109992725Y-125926067D01*
X109992725Y-125926067D02*
X109925382Y-125791380D01*
X109925382Y-125791380D02*
X109858038Y-125724036D01*
X109858038Y-125724036D02*
X109723351Y-125656693D01*
X109723351Y-125656693D02*
X109656008Y-125656693D01*
X108342810Y-125623021D02*
X108746871Y-126027082D01*
X108544840Y-125825051D02*
X109251947Y-125117945D01*
X109251947Y-125117945D02*
X109218275Y-125286303D01*
X109218275Y-125286303D02*
X109218275Y-125420990D01*
X109218275Y-125420990D02*
X109251947Y-125522006D01*
X124807218Y-84669333D02*
X124331027Y-84336000D01*
X124807218Y-84097905D02*
X123807218Y-84097905D01*
X123807218Y-84097905D02*
X123807218Y-84478857D01*
X123807218Y-84478857D02*
X123854837Y-84574095D01*
X123854837Y-84574095D02*
X123902456Y-84621714D01*
X123902456Y-84621714D02*
X123997694Y-84669333D01*
X123997694Y-84669333D02*
X124140551Y-84669333D01*
X124140551Y-84669333D02*
X124235789Y-84621714D01*
X124235789Y-84621714D02*
X124283408Y-84574095D01*
X124283408Y-84574095D02*
X124331027Y-84478857D01*
X124331027Y-84478857D02*
X124331027Y-84097905D01*
X123807218Y-85574095D02*
X123807218Y-85097905D01*
X123807218Y-85097905D02*
X124283408Y-85050286D01*
X124283408Y-85050286D02*
X124235789Y-85097905D01*
X124235789Y-85097905D02*
X124188170Y-85193143D01*
X124188170Y-85193143D02*
X124188170Y-85431238D01*
X124188170Y-85431238D02*
X124235789Y-85526476D01*
X124235789Y-85526476D02*
X124283408Y-85574095D01*
X124283408Y-85574095D02*
X124378646Y-85621714D01*
X124378646Y-85621714D02*
X124616741Y-85621714D01*
X124616741Y-85621714D02*
X124711979Y-85574095D01*
X124711979Y-85574095D02*
X124759599Y-85526476D01*
X124759599Y-85526476D02*
X124807218Y-85431238D01*
X124807218Y-85431238D02*
X124807218Y-85193143D01*
X124807218Y-85193143D02*
X124759599Y-85097905D01*
X124759599Y-85097905D02*
X124711979Y-85050286D01*
X131317445Y-105443056D02*
X131889864Y-105342041D01*
X131721506Y-105847117D02*
X132428612Y-105140010D01*
X132428612Y-105140010D02*
X132159238Y-104870636D01*
X132159238Y-104870636D02*
X132058223Y-104836964D01*
X132058223Y-104836964D02*
X131990880Y-104836964D01*
X131990880Y-104836964D02*
X131889864Y-104870636D01*
X131889864Y-104870636D02*
X131788849Y-104971651D01*
X131788849Y-104971651D02*
X131755177Y-105072667D01*
X131755177Y-105072667D02*
X131755177Y-105140010D01*
X131755177Y-105140010D02*
X131788849Y-105241025D01*
X131788849Y-105241025D02*
X132058223Y-105510399D01*
X131418460Y-104129858D02*
X131553147Y-104264545D01*
X131553147Y-104264545D02*
X131586819Y-104365560D01*
X131586819Y-104365560D02*
X131586819Y-104432903D01*
X131586819Y-104432903D02*
X131553147Y-104601262D01*
X131553147Y-104601262D02*
X131452132Y-104769621D01*
X131452132Y-104769621D02*
X131182758Y-105038995D01*
X131182758Y-105038995D02*
X131081742Y-105072667D01*
X131081742Y-105072667D02*
X131014399Y-105072667D01*
X131014399Y-105072667D02*
X130913384Y-105038995D01*
X130913384Y-105038995D02*
X130778697Y-104904308D01*
X130778697Y-104904308D02*
X130745025Y-104803293D01*
X130745025Y-104803293D02*
X130745025Y-104735949D01*
X130745025Y-104735949D02*
X130778697Y-104634934D01*
X130778697Y-104634934D02*
X130947055Y-104466575D01*
X130947055Y-104466575D02*
X131048071Y-104432903D01*
X131048071Y-104432903D02*
X131115414Y-104432903D01*
X131115414Y-104432903D02*
X131216429Y-104466575D01*
X131216429Y-104466575D02*
X131351116Y-104601262D01*
X131351116Y-104601262D02*
X131384788Y-104702277D01*
X131384788Y-104702277D02*
X131384788Y-104769621D01*
X131384788Y-104769621D02*
X131351116Y-104870636D01*
X98478933Y-125896019D02*
X98478933Y-126610304D01*
X98478933Y-126610304D02*
X98526552Y-126753161D01*
X98526552Y-126753161D02*
X98621790Y-126848400D01*
X98621790Y-126848400D02*
X98764647Y-126896019D01*
X98764647Y-126896019D02*
X98859885Y-126896019D01*
X97478933Y-126896019D02*
X98050361Y-126896019D01*
X97764647Y-126896019D02*
X97764647Y-125896019D01*
X97764647Y-125896019D02*
X97859885Y-126038876D01*
X97859885Y-126038876D02*
X97955123Y-126134114D01*
X97955123Y-126134114D02*
X98050361Y-126181733D01*
X128759279Y-115044125D02*
X128254203Y-115549201D01*
X128254203Y-115549201D02*
X128186859Y-115683888D01*
X128186859Y-115683888D02*
X128186859Y-115818575D01*
X128186859Y-115818575D02*
X128254203Y-115953262D01*
X128254203Y-115953262D02*
X128321546Y-116020606D01*
X128489905Y-114774751D02*
X128052172Y-114337018D01*
X128052172Y-114337018D02*
X128018500Y-114842094D01*
X128018500Y-114842094D02*
X127917485Y-114741079D01*
X127917485Y-114741079D02*
X127816470Y-114707407D01*
X127816470Y-114707407D02*
X127749126Y-114707407D01*
X127749126Y-114707407D02*
X127648111Y-114741079D01*
X127648111Y-114741079D02*
X127479752Y-114909438D01*
X127479752Y-114909438D02*
X127446081Y-115010453D01*
X127446081Y-115010453D02*
X127446081Y-115077796D01*
X127446081Y-115077796D02*
X127479752Y-115178812D01*
X127479752Y-115178812D02*
X127681783Y-115380842D01*
X127681783Y-115380842D02*
X127782798Y-115414514D01*
X127782798Y-115414514D02*
X127850142Y-115414514D01*
X135424418Y-91425733D02*
X134948227Y-91092400D01*
X135424418Y-90854305D02*
X134424418Y-90854305D01*
X134424418Y-90854305D02*
X134424418Y-91235257D01*
X134424418Y-91235257D02*
X134472037Y-91330495D01*
X134472037Y-91330495D02*
X134519656Y-91378114D01*
X134519656Y-91378114D02*
X134614894Y-91425733D01*
X134614894Y-91425733D02*
X134757751Y-91425733D01*
X134757751Y-91425733D02*
X134852989Y-91378114D01*
X134852989Y-91378114D02*
X134900608Y-91330495D01*
X134900608Y-91330495D02*
X134948227Y-91235257D01*
X134948227Y-91235257D02*
X134948227Y-90854305D01*
X135424418Y-92378114D02*
X135424418Y-91806686D01*
X135424418Y-92092400D02*
X134424418Y-92092400D01*
X134424418Y-92092400D02*
X134567275Y-91997162D01*
X134567275Y-91997162D02*
X134662513Y-91901924D01*
X134662513Y-91901924D02*
X134710132Y-91806686D01*
X127888445Y-108821256D02*
X128460864Y-108720241D01*
X128292506Y-109225317D02*
X128999612Y-108518210D01*
X128999612Y-108518210D02*
X128730238Y-108248836D01*
X128730238Y-108248836D02*
X128629223Y-108215164D01*
X128629223Y-108215164D02*
X128561880Y-108215164D01*
X128561880Y-108215164D02*
X128460864Y-108248836D01*
X128460864Y-108248836D02*
X128359849Y-108349851D01*
X128359849Y-108349851D02*
X128326177Y-108450867D01*
X128326177Y-108450867D02*
X128326177Y-108518210D01*
X128326177Y-108518210D02*
X128359849Y-108619225D01*
X128359849Y-108619225D02*
X128629223Y-108888599D01*
X128359849Y-107878447D02*
X127888445Y-107407042D01*
X127888445Y-107407042D02*
X127484384Y-108417195D01*
%TO.C,U1*%
D13*
X113977703Y-98481567D02*
X114143873Y-98647737D01*
X119436567Y-93022703D02*
X113977703Y-98481567D01*
X119602737Y-93188873D02*
X119436567Y-93022703D01*
X123018063Y-107521927D02*
X123184233Y-107688097D01*
X123184233Y-107688097D02*
X128643097Y-102229233D01*
X128643097Y-102229233D02*
X128476927Y-102063063D01*
X122462984Y-108084077D02*
X122554908Y-108656834D01*
X123035741Y-108176001D01*
X122462984Y-108084077D01*
G36*
X123035741Y-108176001D02*
G01*
X122554908Y-108656834D01*
X122462984Y-108084077D01*
X123035741Y-108176001D01*
G37*
%TO.C,R15*%
X107521511Y-120156570D02*
X108545030Y-121180089D01*
X109437770Y-118240311D02*
X110461289Y-119263830D01*
%TO.C,SW1*%
X116671316Y-91664507D02*
X117456204Y-92449396D01*
X117456204Y-90879618D02*
X116671316Y-91664507D01*
X118163311Y-90172512D02*
X119655307Y-88680516D01*
X118163311Y-90172512D02*
X119733088Y-91742289D01*
X119655307Y-88680516D02*
X121225084Y-90250293D01*
X119733088Y-91742289D02*
X121225084Y-90250293D01*
%TO.C,R2*%
X131055200Y-84670737D02*
X131055200Y-83223263D01*
X133765200Y-84670737D02*
X133765200Y-83223263D01*
%TO.C,R3*%
X126076800Y-89090337D02*
X126076800Y-87642863D01*
X128786800Y-89090337D02*
X128786800Y-87642863D01*
%TO.C,J2*%
X110366064Y-115922435D02*
X113335913Y-118892283D01*
X110875181Y-115413318D02*
X110366064Y-115922435D01*
X111780278Y-114508221D02*
X114750126Y-117478070D01*
X112289395Y-113999104D02*
X111780278Y-114508221D01*
X112805583Y-119422613D02*
X121446427Y-110781768D01*
X113194491Y-113094008D02*
X116164340Y-116063856D01*
X113703608Y-112584891D02*
X113194491Y-113094008D01*
X113845030Y-118383166D02*
X110875181Y-115413318D01*
X114021806Y-120638837D02*
X112805583Y-119422613D01*
X114608705Y-111679794D02*
X117578553Y-114649642D01*
X114886700Y-120443070D02*
X114552136Y-120108507D01*
X115117822Y-111170677D02*
X114608705Y-111679794D01*
X115259243Y-116968953D02*
X112289395Y-113999104D01*
X115395817Y-119933953D02*
X115061253Y-119599390D01*
X115513802Y-119146842D02*
X114297578Y-117930618D01*
X116022918Y-110265580D02*
X118992767Y-113235429D01*
X116300913Y-119028857D02*
X115966350Y-118694293D01*
X116532035Y-109756464D02*
X116022918Y-110265580D01*
X116673457Y-115554739D02*
X113703608Y-112584891D01*
X116810030Y-118519740D02*
X116475467Y-118185176D01*
X116928015Y-117732628D02*
X115711791Y-116516404D01*
X117715127Y-117614643D02*
X117380563Y-117280080D01*
X118087670Y-114140526D02*
X115117822Y-111170677D01*
X118224244Y-117105526D02*
X117889680Y-116770963D01*
X118342229Y-116318414D02*
X117126005Y-115102191D01*
X119129340Y-116200429D02*
X118794777Y-115865866D01*
X119501884Y-112726312D02*
X116532035Y-109756464D01*
X119638457Y-115691313D02*
X119303894Y-115356749D01*
X119756442Y-114904201D02*
X118540219Y-113687977D01*
X120543554Y-114786216D02*
X120208991Y-114451653D01*
X121052671Y-114277099D02*
X120718107Y-113942536D01*
X121170656Y-113489987D02*
X119954432Y-112273764D01*
X121446427Y-110781768D02*
X122662651Y-111997992D01*
X121909582Y-113323817D02*
X121623204Y-113037439D01*
X122418699Y-112814700D02*
X122132321Y-112528322D01*
X122662651Y-111997992D02*
X114021806Y-120638837D01*
X123567748Y-114472866D02*
X124274855Y-113765759D01*
X124274855Y-113765759D02*
X123567748Y-113058652D01*
X120916097Y-111312098D02*
X117946249Y-108342250D01*
X117437132Y-108851367D01*
X120406980Y-111821215D01*
X120916097Y-111312098D01*
G36*
X120916097Y-111312098D02*
G01*
X120406980Y-111821215D01*
X117437132Y-108851367D01*
X117946249Y-108342250D01*
X120916097Y-111312098D01*
G37*
%TO.C,R4*%
X125162400Y-80149537D02*
X125162400Y-78702063D01*
X127872400Y-80149537D02*
X127872400Y-78702063D01*
%TO.C,C1*%
X101745047Y-120622552D02*
X104163352Y-118204247D01*
X104163352Y-118204247D02*
X109070673Y-123111568D01*
X106652368Y-125529873D02*
X101745047Y-120622552D01*
%TO.C,R5*%
X120717400Y-85559737D02*
X120717400Y-84112263D01*
X123427400Y-85559737D02*
X123427400Y-84112263D01*
%TO.C,R6*%
X128400311Y-107100970D02*
X129423830Y-108124489D01*
X130316570Y-105184711D02*
X131340089Y-106208230D01*
%TO.C,J1*%
X99046600Y-125061200D02*
X99046601Y-126441200D01*
X100426600Y-125061201D02*
X99046600Y-125061200D01*
X101696600Y-125061200D02*
X101696600Y-127821200D01*
X101696600Y-125061200D02*
X104346600Y-125061200D01*
X101696600Y-127821200D02*
X104346600Y-127821200D01*
X104346600Y-125061200D02*
X104346600Y-127821200D01*
%TO.C,J3*%
X116746586Y-128155191D02*
X115176809Y-126585414D01*
X125154086Y-116608137D02*
X115176809Y-126585414D01*
X126723863Y-118177914D02*
X116746586Y-128155191D01*
X126723863Y-118177914D02*
X125154086Y-116608137D01*
X127430970Y-117470808D02*
X128215858Y-116685919D01*
X128215858Y-116685919D02*
X127430970Y-115901030D01*
%TO.C,R1*%
X131334600Y-92316137D02*
X131334600Y-90868663D01*
X134044600Y-92316137D02*
X134044600Y-90868663D01*
%TO.C,R7*%
X124971311Y-110479170D02*
X125994830Y-111502689D01*
X126887570Y-108562911D02*
X127911089Y-109586430D01*
%TD*%
M02*
