%TF.GenerationSoftware,KiCad,Pcbnew,10.0.2*%
%TF.CreationDate,2026-05-29T20:59:03+03:00*%
%TF.ProjectId,kicad_selka_rev2,6b696361-645f-4736-956c-6b615f726576,rev?*%
%TF.SameCoordinates,Original*%
%TF.FileFunction,Soldermask,Top*%
%TF.FilePolarity,Negative*%
%FSLAX46Y46*%
G04 Gerber Fmt 4.6, Leading zero omitted, Abs format (unit mm)*
G04 Created by KiCad (PCBNEW 10.0.2) date 2026-05-29 20:59:03*
%MOMM*%
%LPD*%
G01*
G04 APERTURE LIST*
G04 Aperture macros list*
%AMHorizOval*
0 Thick line with rounded ends*
0 $1 width*
0 $2 $3 position (X,Y) of the first rounded end (center of the circle)*
0 $4 $5 position (X,Y) of the second rounded end (center of the circle)*
0 Add line between two ends*
20,1,$1,$2,$3,$4,$5,0*
0 Add two circle primitives to create the rounded ends*
1,1,$1,$2,$3*
1,1,$1,$4,$5*%
%AMRotRect*
0 Rectangle, with rotation*
0 The origin of the aperture is its center*
0 $1 length*
0 $2 width*
0 $3 Rotation angle, in degrees counterclockwise*
0 Add horizontal line*
21,1,$1,$2,0,0,$3*%
G04 Aperture macros list end*
%ADD10RotRect,1.800000X1.800000X45.000000*%
%ADD11C,1.800000*%
%ADD12RotRect,1.800000X1.800000X225.000000*%
%ADD13R,1.800000X1.800000*%
%ADD14RotRect,1.350000X1.350000X315.000000*%
%ADD15C,1.350000*%
%ADD16RotRect,1.350000X1.350000X135.000000*%
%ADD17R,1.700000X1.700000*%
%ADD18C,1.700000*%
%ADD19RotRect,2.000000X1.350000X135.000000*%
%ADD20HorizOval,1.350000X-0.229810X0.229810X0.229810X-0.229810X0*%
G04 APERTURE END LIST*
D10*
%TO.C,D13*%
X130427431Y-125490010D03*
D11*
X132223482Y-123693959D03*
%TD*%
D12*
%TO.C,D46*%
X126858592Y-129262049D03*
D11*
X125062541Y-131058100D03*
%TD*%
D13*
%TO.C,D62*%
X133437392Y-60546449D03*
D11*
X130897392Y-60546449D03*
%TD*%
D13*
%TO.C,D60*%
X125877392Y-73206449D03*
D11*
X123337392Y-73206449D03*
%TD*%
D10*
%TO.C,D10*%
X134027431Y-103830010D03*
D11*
X135823482Y-102033959D03*
%TD*%
D10*
%TO.C,D11*%
X132827431Y-111050010D03*
D11*
X134623482Y-109253959D03*
%TD*%
D13*
%TO.C,D58*%
X118317392Y-85866449D03*
D11*
X115777392Y-85866449D03*
%TD*%
D13*
%TO.C,D56*%
X110757392Y-98526449D03*
D11*
X108217392Y-98526449D03*
%TD*%
D13*
%TO.C,D57*%
X114537392Y-92196449D03*
D11*
X111997392Y-92196449D03*
%TD*%
D12*
%TO.C,D47*%
X119780592Y-129262049D03*
D11*
X117984541Y-131058100D03*
%TD*%
D10*
%TO.C,D1*%
X144905431Y-38926810D03*
D11*
X146701482Y-37130759D03*
%TD*%
D13*
%TO.C,D54*%
X103197392Y-111186449D03*
D11*
X100657392Y-111186449D03*
%TD*%
D13*
%TO.C,D63*%
X137217392Y-54216449D03*
D11*
X134677392Y-54216449D03*
%TD*%
D10*
%TO.C,D2*%
X143627431Y-46070010D03*
D11*
X145423482Y-44273959D03*
%TD*%
D12*
%TO.C,D49*%
X105624592Y-129262049D03*
D11*
X103828541Y-131058100D03*
%TD*%
D12*
%TO.C,D48*%
X112702592Y-129262049D03*
D11*
X110906541Y-131058100D03*
%TD*%
D12*
%TO.C,D51*%
X91468592Y-129262049D03*
D11*
X89672541Y-131058100D03*
%TD*%
D10*
%TO.C,D8*%
X136427431Y-89390010D03*
D11*
X138223482Y-87593959D03*
%TD*%
D13*
%TO.C,D53*%
X99417392Y-117516449D03*
D11*
X96877392Y-117516449D03*
%TD*%
D10*
%TO.C,D3*%
X142427431Y-53290010D03*
D11*
X144223482Y-51493959D03*
%TD*%
D10*
%TO.C,D9*%
X135227431Y-96610010D03*
D11*
X137023482Y-94813959D03*
%TD*%
D13*
%TO.C,D59*%
X122097392Y-79536449D03*
D11*
X119557392Y-79536449D03*
%TD*%
D12*
%TO.C,D50*%
X98546592Y-129262049D03*
D11*
X96750541Y-131058100D03*
%TD*%
D13*
%TO.C,D55*%
X106977392Y-104856449D03*
D11*
X104437392Y-104856449D03*
%TD*%
D10*
%TO.C,D6*%
X138827431Y-74950010D03*
D11*
X140623482Y-73153959D03*
%TD*%
D10*
%TO.C,D5*%
X140027431Y-67730010D03*
D11*
X141823482Y-65933959D03*
%TD*%
D13*
%TO.C,D64*%
X140997392Y-47886449D03*
D11*
X138457392Y-47886449D03*
%TD*%
D13*
%TO.C,D52*%
X95637392Y-123846449D03*
D11*
X93097392Y-123846449D03*
%TD*%
D10*
%TO.C,D4*%
X141227431Y-60510010D03*
D11*
X143023482Y-58713959D03*
%TD*%
D13*
%TO.C,D61*%
X129657392Y-66876449D03*
D11*
X127117392Y-66876449D03*
%TD*%
D10*
%TO.C,D7*%
X137627431Y-82170010D03*
D11*
X139423482Y-80373959D03*
%TD*%
D10*
%TO.C,D12*%
X131627431Y-118270010D03*
D11*
X133423482Y-116473959D03*
%TD*%
D14*
%TO.C,SW1*%
X118241093Y-91664507D03*
D15*
X119655307Y-90250293D03*
%TD*%
D16*
%TO.C,J2*%
X122860641Y-113765759D03*
D15*
X115789573Y-120836827D03*
%TD*%
D17*
%TO.C,J1*%
X100426600Y-126441200D03*
D18*
X102966600Y-126441200D03*
%TD*%
D19*
%TO.C,J3*%
X126646081Y-116685919D03*
D20*
X125231867Y-118100133D03*
X123817654Y-119514346D03*
X122403440Y-120928560D03*
X120989227Y-122342773D03*
X119575013Y-123756987D03*
X118160800Y-125171200D03*
X116746586Y-126585414D03*
%TD*%
M02*
