%TF.GenerationSoftware,KiCad,Pcbnew,10.0.2*%
%TF.CreationDate,2026-05-29T20:59:33+03:00*%
%TF.ProjectId,kicad_selka_rev2,6b696361-645f-4736-956c-6b615f726576,rev?*%
%TF.SameCoordinates,Original*%
%TF.FileFunction,Copper,L2,Bot*%
%TF.FilePolarity,Positive*%
%FSLAX46Y46*%
G04 Gerber Fmt 4.6, Leading zero omitted, Abs format (unit mm)*
G04 Created by KiCad (PCBNEW 10.0.2) date 2026-05-29 20:59:33*
%MOMM*%
%LPD*%
G01*
G04 APERTURE LIST*
G04 Aperture macros list*
%AMRoundRect*
0 Rectangle with rounded corners*
0 $1 Rounding radius*
0 $2 $3 $4 $5 $6 $7 $8 $9 X,Y pos of 4 corners*
0 Add a 4 corners polygon primitive as box body*
4,1,4,$2,$3,$4,$5,$6,$7,$8,$9,$2,$3,0*
0 Add four circle primitives for the rounded corners*
1,1,$1+$1,$2,$3*
1,1,$1+$1,$4,$5*
1,1,$1+$1,$6,$7*
1,1,$1+$1,$8,$9*
0 Add four rect primitives between the rounded corners*
20,1,$1+$1,$2,$3,$4,$5,0*
20,1,$1+$1,$4,$5,$6,$7,0*
20,1,$1+$1,$6,$7,$8,$9,0*
20,1,$1+$1,$8,$9,$2,$3,0*%
%AMHorizOval*
0 Thick line with rounded ends*
0 $1 width*
0 $2 $3 position (X,Y) of the first rounded end (center of the circle)*
0 $4 $5 position (X,Y) of the second rounded end (center of the circle)*
0 Add line between two ends*
20,1,$1,$2,$3,$4,$5,0*
0 Add two circle primitives to create the rounded ends*
1,1,$1,$2,$3*
1,1,$1,$4,$5*%
%AMRotRect*
0 Rectangle, with rotation*
0 The origin of the aperture is its center*
0 $1 length*
0 $2 width*
0 $3 Rotation angle, in degrees counterclockwise*
0 Add horizontal line*
21,1,$1,$2,0,0,$3*%
G04 Aperture macros list end*
%TA.AperFunction,SMDPad,CuDef*%
%ADD10RoundRect,0.250000X-1.075000X0.400000X-1.075000X-0.400000X1.075000X-0.400000X1.075000X0.400000X0*%
%TD*%
%TA.AperFunction,SMDPad,CuDef*%
%ADD11RoundRect,0.250000X-1.042983X-0.477297X-0.477297X-1.042983X1.042983X0.477297X0.477297X1.042983X0*%
%TD*%
%TA.AperFunction,ComponentPad*%
%ADD12RotRect,2.000000X1.350000X135.000000*%
%TD*%
%TA.AperFunction,ComponentPad*%
%ADD13HorizOval,1.350000X-0.229810X0.229810X0.229810X-0.229810X0*%
%TD*%
%TA.AperFunction,ComponentPad*%
%ADD14R,1.800000X1.800000*%
%TD*%
%TA.AperFunction,ComponentPad*%
%ADD15C,1.800000*%
%TD*%
%TA.AperFunction,ComponentPad*%
%ADD16RotRect,1.800000X1.800000X225.000000*%
%TD*%
%TA.AperFunction,ComponentPad*%
%ADD17RotRect,1.800000X1.800000X45.000000*%
%TD*%
%TA.AperFunction,ViaPad*%
%ADD18C,0.600000*%
%TD*%
%TA.AperFunction,Conductor*%
%ADD19C,0.400000*%
%TD*%
G04 APERTURE END LIST*
D10*
%TO.P,R14,1*%
%TO.N,/CB6*%
X163999220Y-159895744D03*
%TO.P,R14,2*%
%TO.N,Net-(D14-A)*%
X163999220Y-162995746D03*
%TD*%
%TO.P,R12,1*%
%TO.N,/CB4*%
X171778543Y-159914318D03*
%TO.P,R12,2*%
%TO.N,Net-(D22-K)*%
X171778543Y-163014320D03*
%TD*%
D11*
%TO.P,R9,1*%
%TO.N,/CB1*%
X178307231Y-148616169D03*
%TO.P,R9,2*%
%TO.N,Net-(D16-K)*%
X180499263Y-150808201D03*
%TD*%
%TO.P,R8,1*%
%TO.N,/CB0*%
X181064204Y-145872330D03*
%TO.P,R8,2*%
%TO.N,Net-(D14-K)*%
X183256236Y-148064362D03*
%TD*%
D12*
%TO.P,J4,1,Pin_1_1*%
%TO.N,/CB0*%
X173569355Y-143621211D03*
D13*
%TO.P,J4,2,Pin_2_2*%
%TO.N,/CB1*%
X172155141Y-145035425D03*
%TO.P,J4,3,Pin_3_3*%
%TO.N,/CB2*%
X170740928Y-146449638D03*
%TO.P,J4,4,Pin_4_4*%
%TO.N,/CB3*%
X169326714Y-147863852D03*
%TO.P,J4,5,Pin_5_5*%
%TO.N,/CB4*%
X167912501Y-149278065D03*
%TO.P,J4,6,Pin_6_6*%
%TO.N,/CB5*%
X166498287Y-150692279D03*
%TO.P,J4,7,Pin_7_7*%
%TO.N,/CB6*%
X165084074Y-152106492D03*
%TO.P,J4,8,Pin_8_8*%
%TO.N,GND2*%
X163669860Y-153520706D03*
%TD*%
D10*
%TO.P,R13,1*%
%TO.N,/CB5*%
X167888882Y-159905032D03*
%TO.P,R13,2*%
%TO.N,Net-(D24-K)*%
X167888882Y-163005034D03*
%TD*%
D11*
%TO.P,R11,1*%
%TO.N,/CB3*%
X172725377Y-153993636D03*
%TO.P,R11,2*%
%TO.N,Net-(D20-K)*%
X174917409Y-156185668D03*
%TD*%
%TO.P,R10,1*%
%TO.N,/CB2*%
X175513231Y-151410169D03*
%TO.P,R10,2*%
%TO.N,Net-(D18-K)*%
X177705263Y-153602201D03*
%TD*%
D14*
%TO.P,D28,1,K_1*%
%TO.N,Net-(D16-K)*%
X153343431Y-215813169D03*
D15*
%TO.P,D28,2,A_2*%
%TO.N,Net-(D24-K)*%
X155883431Y-215813169D03*
%TD*%
D16*
%TO.P,D23,1,K_1*%
%TO.N,Net-(D14-A)*%
X149333392Y-209519608D03*
D15*
%TO.P,D23,2,A_2*%
%TO.N,Net-(D22-K)*%
X147537341Y-211315659D03*
%TD*%
D14*
%TO.P,D33,1,K_1*%
%TO.N,Net-(D24-K)*%
X172243431Y-184163169D03*
D15*
%TO.P,D33,2,A_2*%
%TO.N,Net-(D20-K)*%
X174783431Y-184163169D03*
%TD*%
D14*
%TO.P,D36,1,K_1*%
%TO.N,Net-(D14-K)*%
X183583431Y-165173169D03*
D15*
%TO.P,D36,2,A_2*%
%TO.N,Net-(D22-K)*%
X186123431Y-165173169D03*
%TD*%
D16*
%TO.P,D26,1,K_1*%
%TO.N,Net-(D14-K)*%
X145655392Y-231102808D03*
D15*
%TO.P,D26,2,A_2*%
%TO.N,Net-(D24-K)*%
X143859341Y-232898859D03*
%TD*%
D16*
%TO.P,D17,1,K_1*%
%TO.N,Net-(D14-A)*%
X156533392Y-166199608D03*
D15*
%TO.P,D17,2,A_2*%
%TO.N,Net-(D16-K)*%
X154737341Y-167995659D03*
%TD*%
D16*
%TO.P,D24,1,K_1*%
%TO.N,Net-(D24-K)*%
X148133392Y-216739608D03*
D15*
%TO.P,D24,2,A_2*%
%TO.N,Net-(D14-A)*%
X146337341Y-218535659D03*
%TD*%
D14*
%TO.P,D29,1,K_1*%
%TO.N,Net-(D24-K)*%
X157123431Y-209483169D03*
D15*
%TO.P,D29,2,A_2*%
%TO.N,Net-(D16-K)*%
X159663431Y-209483169D03*
%TD*%
D17*
%TO.P,D45,1,K_1*%
%TO.N,Net-(D20-K)*%
X163702231Y-140767569D03*
D15*
%TO.P,D45,2,A_2*%
%TO.N,Net-(D14-K)*%
X165498282Y-138971518D03*
%TD*%
D16*
%TO.P,D15,1,K_1*%
%TO.N,Net-(D14-A)*%
X158933392Y-151759608D03*
D15*
%TO.P,D15,2,A_2*%
%TO.N,Net-(D14-K)*%
X157137341Y-153555659D03*
%TD*%
D16*
%TO.P,D19,1,K_1*%
%TO.N,Net-(D14-A)*%
X154133392Y-180639608D03*
D15*
%TO.P,D19,2,A_2*%
%TO.N,Net-(D18-K)*%
X152337341Y-182435659D03*
%TD*%
D17*
%TO.P,D42,1,K_1*%
%TO.N,Net-(D20-K)*%
X184936231Y-140767569D03*
D15*
%TO.P,D42,2,A_2*%
%TO.N,Net-(D22-K)*%
X186732282Y-138971518D03*
%TD*%
D14*
%TO.P,D35,1,K_1*%
%TO.N,Net-(D24-K)*%
X179803431Y-171503169D03*
D15*
%TO.P,D35,2,A_2*%
%TO.N,Net-(D22-K)*%
X182343431Y-171503169D03*
%TD*%
D14*
%TO.P,D30,1,K_1*%
%TO.N,Net-(D18-K)*%
X160903431Y-203153169D03*
D15*
%TO.P,D30,2,A_2*%
%TO.N,Net-(D24-K)*%
X163443431Y-203153169D03*
%TD*%
D16*
%TO.P,D16,1,K_1*%
%TO.N,Net-(D16-K)*%
X157733392Y-158979608D03*
D15*
%TO.P,D16,2,A_2*%
%TO.N,Net-(D14-A)*%
X155937341Y-160775659D03*
%TD*%
D14*
%TO.P,D32,1,K_1*%
%TO.N,Net-(D20-K)*%
X168463431Y-190493169D03*
D15*
%TO.P,D32,2,A_2*%
%TO.N,Net-(D24-K)*%
X171003431Y-190493169D03*
%TD*%
D17*
%TO.P,D44,1,K_1*%
%TO.N,Net-(D14-K)*%
X170780231Y-140767569D03*
D15*
%TO.P,D44,2,A_2*%
%TO.N,Net-(D20-K)*%
X172576282Y-138971518D03*
%TD*%
D16*
%TO.P,D22,1,K_1*%
%TO.N,Net-(D22-K)*%
X150533392Y-202299608D03*
D15*
%TO.P,D22,2,A_2*%
%TO.N,Net-(D14-A)*%
X148737341Y-204095659D03*
%TD*%
D14*
%TO.P,D37,1,K_1*%
%TO.N,Net-(D22-K)*%
X187363431Y-158843169D03*
D15*
%TO.P,D37,2,A_2*%
%TO.N,Net-(D14-K)*%
X189903431Y-158843169D03*
%TD*%
D16*
%TO.P,D20,1,K_1*%
%TO.N,Net-(D20-K)*%
X152933392Y-187859608D03*
D15*
%TO.P,D20,2,A_2*%
%TO.N,Net-(D14-A)*%
X151137341Y-189655659D03*
%TD*%
D14*
%TO.P,D38,1,K_1*%
%TO.N,Net-(D16-K)*%
X191143431Y-152513169D03*
D15*
%TO.P,D38,2,A_2*%
%TO.N,Net-(D22-K)*%
X193683431Y-152513169D03*
%TD*%
D17*
%TO.P,D40,1,K_1*%
%TO.N,Net-(D18-K)*%
X199092231Y-140767569D03*
D15*
%TO.P,D40,2,A_2*%
%TO.N,Net-(D22-K)*%
X200888282Y-138971518D03*
%TD*%
D14*
%TO.P,D39,1,K_1*%
%TO.N,Net-(D22-K)*%
X194923431Y-146183169D03*
D15*
%TO.P,D39,2,A_2*%
%TO.N,Net-(D16-K)*%
X197463431Y-146183169D03*
%TD*%
D16*
%TO.P,D14,1,K_1*%
%TO.N,Net-(D14-K)*%
X160133392Y-144539608D03*
D15*
%TO.P,D14,2,A_2*%
%TO.N,Net-(D14-A)*%
X158337341Y-146335659D03*
%TD*%
D14*
%TO.P,D27,1,K_1*%
%TO.N,Net-(D24-K)*%
X149563431Y-222143169D03*
D15*
%TO.P,D27,2,A_2*%
%TO.N,Net-(D14-K)*%
X152103431Y-222143169D03*
%TD*%
D14*
%TO.P,D34,1,K_1*%
%TO.N,Net-(D22-K)*%
X176023431Y-177833169D03*
D15*
%TO.P,D34,2,A_2*%
%TO.N,Net-(D24-K)*%
X178563431Y-177833169D03*
%TD*%
D17*
%TO.P,D41,1,K_1*%
%TO.N,Net-(D22-K)*%
X192014231Y-140767569D03*
D15*
%TO.P,D41,2,A_2*%
%TO.N,Net-(D18-K)*%
X193810282Y-138971518D03*
%TD*%
D17*
%TO.P,D43,1,K_1*%
%TO.N,Net-(D22-K)*%
X177858231Y-140767569D03*
D15*
%TO.P,D43,2,A_2*%
%TO.N,Net-(D20-K)*%
X179654282Y-138971518D03*
%TD*%
D16*
%TO.P,D21,1,K_1*%
%TO.N,Net-(D14-A)*%
X151733392Y-195079608D03*
D15*
%TO.P,D21,2,A_2*%
%TO.N,Net-(D20-K)*%
X149937341Y-196875659D03*
%TD*%
D16*
%TO.P,D18,1,K_1*%
%TO.N,Net-(D18-K)*%
X155333392Y-173419608D03*
D15*
%TO.P,D18,2,A_2*%
%TO.N,Net-(D14-A)*%
X153537341Y-175215659D03*
%TD*%
D16*
%TO.P,D25,1,K_1*%
%TO.N,Net-(D14-A)*%
X146933392Y-223959608D03*
D15*
%TO.P,D25,2,A_2*%
%TO.N,Net-(D24-K)*%
X145137341Y-225755659D03*
%TD*%
D14*
%TO.P,D31,1,K_1*%
%TO.N,Net-(D24-K)*%
X164683431Y-196823169D03*
D15*
%TO.P,D31,2,A_2*%
%TO.N,Net-(D18-K)*%
X167223431Y-196823169D03*
%TD*%
D18*
%TO.N,GND2*%
X156023620Y-148797146D03*
X189246820Y-144225146D03*
X146574820Y-206023346D03*
X196587420Y-150295746D03*
X149292620Y-229594546D03*
X181626820Y-175619546D03*
X160621020Y-161471746D03*
X165878820Y-168913946D03*
X166488420Y-200917946D03*
X182134820Y-137113146D03*
X151477020Y-177651546D03*
%TO.N,Net-(D16-K)*%
X166623231Y-171095169D03*
X181195020Y-155601169D03*
%TO.N,Net-(D14-K)*%
X162686231Y-169167946D03*
X182752231Y-153061169D03*
%TO.N,Net-(D20-K)*%
X157065020Y-180928146D03*
X174768820Y-161039946D03*
X184466731Y-159982669D03*
%TO.N,Net-(D18-K)*%
X176927820Y-173419608D03*
X186181231Y-156109169D03*
X178883620Y-158268169D03*
%TO.N,Net-(D24-K)*%
X169282420Y-170285546D03*
%TO.N,Net-(D22-K)*%
X160062220Y-177829346D03*
X170171420Y-177833169D03*
%TD*%
%TO.N,/CB6*%
D19*
X165955020Y-156366346D02*
X165955020Y-152977438D01*
X163966897Y-159863421D02*
X163999220Y-159895744D01*
X163999220Y-158322146D02*
X165955020Y-156366346D01*
X163999220Y-159895744D02*
X163999220Y-158322146D01*
X165955020Y-152977438D02*
X165084074Y-152106492D01*
%TO.N,/CB4*%
X171778543Y-157795669D02*
X169625320Y-155642446D01*
X171778543Y-159914318D02*
X171778543Y-157795669D01*
X169625320Y-155642446D02*
X169625320Y-150990884D01*
X169625320Y-150990884D02*
X167912501Y-149278065D01*
X171778543Y-159914318D02*
X171797020Y-159895841D01*
%TO.N,/CB1*%
X175821208Y-146130146D02*
X175305644Y-146130146D01*
X175305644Y-146130146D02*
X173249862Y-146130146D01*
X173249862Y-146130146D02*
X172155141Y-145035425D01*
X178307231Y-148616169D02*
X175821208Y-146130146D01*
%TO.N,/CB0*%
X178813085Y-143621211D02*
X178297521Y-143621211D01*
X173569355Y-143621211D02*
X178297521Y-143621211D01*
X181064204Y-145872330D02*
X178813085Y-143621211D01*
%TO.N,/CB5*%
X167888882Y-159905032D02*
X167856559Y-159872709D01*
X167888882Y-152082874D02*
X166498287Y-150692279D01*
X167888882Y-159905032D02*
X167888882Y-152082874D01*
X167047220Y-151241212D02*
X166498287Y-150692279D01*
%TO.N,/CB3*%
X171314420Y-153314922D02*
X171314420Y-149851558D01*
X172481150Y-154481652D02*
X171314420Y-153314922D01*
X171314420Y-149851558D02*
X169326714Y-147863852D01*
%TO.N,/CB2*%
X170740928Y-146637866D02*
X170740928Y-146449638D01*
X175513231Y-151410169D02*
X170740928Y-146637866D01*
%TO.N,Net-(D16-K)*%
X166623231Y-171095169D02*
X166623231Y-188367169D01*
X161289231Y-198908169D02*
X154431231Y-205766169D01*
X181195020Y-151503958D02*
X180499263Y-150808201D01*
X153343431Y-213838969D02*
X153343431Y-215813169D01*
X154431231Y-212751169D02*
X153343431Y-213838969D01*
X166623231Y-188367169D02*
X161289231Y-193701169D01*
X180261182Y-151520908D02*
X180261182Y-151085684D01*
X154431231Y-205766169D02*
X154431231Y-212751169D01*
X181195020Y-155601169D02*
X181195020Y-151503958D01*
X161289231Y-193701169D02*
X161289231Y-198908169D01*
%TO.N,Net-(D14-K)*%
X162686231Y-169167946D02*
X162686231Y-187986169D01*
X152103431Y-219440369D02*
X152103431Y-222143169D01*
X152103431Y-222143169D02*
X152103431Y-224654769D01*
X183583431Y-165173169D02*
X183561231Y-165173169D01*
X151002231Y-218339169D02*
X152103431Y-219440369D01*
X151002231Y-213259169D02*
X151002231Y-218339169D01*
X152103431Y-224654769D02*
X145655392Y-231102808D01*
X158114231Y-192558169D02*
X158114231Y-198781169D01*
X152526231Y-211735169D02*
X151002231Y-213259169D01*
X183256236Y-148064362D02*
X184217620Y-149025746D01*
X152526231Y-204369169D02*
X152526231Y-211735169D01*
X183561231Y-165173169D02*
X182752231Y-164364169D01*
X182772997Y-153061169D02*
X182752231Y-153061169D01*
X162686231Y-187986169D02*
X158114231Y-192558169D01*
X184217620Y-151616546D02*
X182772997Y-153061169D01*
X158114231Y-198781169D02*
X152526231Y-204369169D01*
X184217620Y-149025746D02*
X184217620Y-151616546D01*
X182752231Y-153061169D02*
X182752231Y-164364169D01*
%TO.N,Net-(D22-K)*%
X154495531Y-192620869D02*
X154495531Y-198337469D01*
X196722231Y-138837169D02*
X200753933Y-138837169D01*
X195706231Y-144425169D02*
X197917023Y-144425169D01*
X191360223Y-156109169D02*
X188594231Y-156109169D01*
X193683431Y-153785961D02*
X191360223Y-156109169D01*
X159892231Y-187224169D02*
X154495531Y-192620869D01*
X195261731Y-140323069D02*
X195261731Y-140297669D01*
%TO.N,Net-(D20-K)*%
X175761737Y-160178663D02*
X175761737Y-157029995D01*
X179007633Y-138324869D02*
X173222931Y-138324869D01*
X163702231Y-140767569D02*
X166851831Y-140767569D01*
X186071820Y-152302346D02*
X186071820Y-141903158D01*
%TO.N,Net-(D14-A)*%
X153450311Y-172146249D02*
X156533392Y-169063169D01*
X154133392Y-180639608D02*
X154133392Y-183712008D01*
X162551420Y-166199608D02*
X156533392Y-166199608D01*
X153537341Y-175215659D02*
X153988851Y-175667169D01*
X148737341Y-208923557D02*
X149333392Y-209519608D01*
X155937341Y-160775659D02*
X155764731Y-160603049D01*
X156533392Y-169063169D02*
X156533392Y-166199608D01*
X158933392Y-154528008D02*
X158933392Y-151759608D01*
X146176231Y-218374549D02*
X146176231Y-215654330D01*
X151002231Y-189520549D02*
X151137341Y-189655659D01*
X146337341Y-218535659D02*
X146176231Y-218374549D01*
X151733392Y-197796008D02*
X151733392Y-195079608D01*
X149333392Y-212497169D02*
X149333392Y-209519608D01*
X163999220Y-164748346D02*
X162551420Y-166196146D01*
X148737341Y-204095659D02*
X148737341Y-208923557D01*
X153450311Y-175128629D02*
X153450311Y-172146249D01*
X155764731Y-157696669D02*
X158933392Y-154528008D01*
X155937341Y-165603557D02*
X156533392Y-166199608D01*
X146176231Y-215654330D02*
X149333392Y-212497169D01*
X163999220Y-162995746D02*
X164017697Y-163014223D01*
X153537341Y-180043557D02*
X154133392Y-180639608D01*
X151137341Y-194483557D02*
X151733392Y-195079608D01*
X154133392Y-183712008D02*
X151002231Y-186843169D01*
X148462231Y-203820549D02*
X148462231Y-201067169D01*
X153537341Y-175215659D02*
X153537341Y-180043557D01*
X158337341Y-146335659D02*
X158337341Y-151163557D01*
X163999220Y-164748346D02*
X163999220Y-162995746D01*
X151137341Y-189655659D02*
X151137341Y-194483557D01*
X158337341Y-151163557D02*
X158933392Y-151759608D01*
X148462231Y-201067169D02*
X151733392Y-197796008D01*
X148737341Y-204095659D02*
X148462231Y-203820549D01*
X153537341Y-175215659D02*
X153450311Y-175128629D01*
X151002231Y-186843169D02*
X151002231Y-189520549D01*
X162551420Y-166196146D02*
X162551420Y-166199608D01*
X155764731Y-160603049D02*
X155764731Y-157696669D01*
X155937341Y-160775659D02*
X155937341Y-165603557D01*
%TO.N,Net-(D18-K)*%
X188230820Y-154054946D02*
X188230820Y-148852580D01*
X194309231Y-142774169D02*
X188230820Y-148852580D01*
X178883620Y-166983546D02*
X176927820Y-168939346D01*
X196468231Y-142774169D02*
X194309231Y-142774169D01*
X199092231Y-140767569D02*
X198474831Y-140767569D01*
X198474831Y-140767569D02*
X196468231Y-142774169D01*
X178883620Y-158268169D02*
X178883620Y-166983546D01*
X176927820Y-168939346D02*
X176927820Y-173419608D01*
X186181231Y-156109169D02*
X186181231Y-156104535D01*
X178883620Y-154780558D02*
X177705263Y-153602201D01*
X178883620Y-158268169D02*
X178883620Y-154780558D01*
X186181231Y-156104535D02*
X188230820Y-154054946D01*
X177467182Y-153879684D02*
X177467182Y-154060908D01*
%TO.N,Net-(D24-K)*%
X149563431Y-222143169D02*
X149563431Y-221153157D01*
X157123431Y-209483169D02*
X157123431Y-214573169D01*
X145137341Y-225755659D02*
X144652231Y-225270549D01*
X164683431Y-196823169D02*
X164683431Y-201913169D01*
X167888882Y-168968208D02*
X169206220Y-170285546D01*
X160908231Y-206655169D02*
X163443431Y-204119969D01*
X163443431Y-204119969D02*
X163443431Y-203153169D01*
X172243431Y-184163169D02*
X172243431Y-189253169D01*
X168528231Y-194209169D02*
X171003431Y-191733969D01*
X164683431Y-201913169D02*
X163443431Y-203153169D01*
X172243431Y-189253169D02*
X171003431Y-190493169D01*
X171003431Y-191733969D02*
X171003431Y-190493169D01*
X157123431Y-207899969D02*
X158368231Y-206655169D01*
X157123431Y-209483169D02*
X157123431Y-207899969D01*
X166242231Y-194209169D02*
X168528231Y-194209169D01*
X148133392Y-219723118D02*
X148133392Y-216739608D01*
X158368231Y-206655169D02*
X160908231Y-206655169D01*
X169206220Y-170285546D02*
X169282420Y-170285546D01*
X167888882Y-163005034D02*
X167888882Y-168968208D01*
X149563431Y-221153157D02*
X148133392Y-219723118D01*
X164683431Y-196823169D02*
X164683431Y-195767969D01*
X157123431Y-214573169D02*
X155883431Y-215813169D01*
X164683431Y-195767969D02*
X166242231Y-194209169D01*
%TO.N,Net-(D22-K)*%
X176023431Y-176553969D02*
X177164231Y-175413169D01*
X182343431Y-170686369D02*
X182343431Y-171503169D01*
X200965023Y-141377169D02*
X200965023Y-139048259D01*
X171778543Y-173428223D02*
X170120620Y-175086146D01*
X194923431Y-151273169D02*
X193683431Y-152513169D01*
X182343431Y-172519969D02*
X179450231Y-175413169D01*
X179450231Y-175413169D02*
X177164231Y-175413169D01*
X186280433Y-138519669D02*
X183831731Y-138519669D01*
X194923431Y-146183169D02*
X194923431Y-145207969D01*
X192014231Y-140767569D02*
X194817231Y-140767569D01*
X197917023Y-144425169D02*
X200965023Y-141377169D01*
X183831731Y-138519669D02*
X181583831Y-140767569D01*
X188594231Y-156109169D02*
X187363431Y-157339969D01*
X187363431Y-158843169D02*
X187363431Y-163933169D01*
X193683431Y-152513169D02*
X193683431Y-153785961D01*
X170120620Y-175086146D02*
X170120620Y-177829346D01*
X171778543Y-163014320D02*
X171778543Y-173428223D01*
X159892231Y-177999335D02*
X159892231Y-187224169D01*
X176023431Y-177833169D02*
X176023431Y-176553969D01*
X190218180Y-138971518D02*
X192014231Y-140767569D01*
X186732282Y-138971518D02*
X190218180Y-138971518D01*
X195261731Y-140297669D02*
X196722231Y-138837169D01*
X194923431Y-146183169D02*
X194923431Y-151273169D01*
X194817231Y-140767569D02*
X195261731Y-140323069D01*
X200965023Y-139048259D02*
X200888282Y-138971518D01*
X187363431Y-157339969D02*
X187363431Y-158843169D01*
X186732282Y-138971518D02*
X186280433Y-138519669D01*
X200753933Y-138837169D02*
X200888282Y-138971518D01*
X154495531Y-198337469D02*
X150533392Y-202299608D01*
X160062220Y-177829346D02*
X159892231Y-177999335D01*
X181583831Y-140767569D02*
X177858231Y-140767569D01*
X194923431Y-145207969D02*
X195706231Y-144425169D01*
X187363431Y-163933169D02*
X186123431Y-165173169D01*
X182343431Y-171503169D02*
X182343431Y-172519969D01*
%TO.N,Net-(D20-K)*%
X179654282Y-138971518D02*
X179007633Y-138324869D01*
X172124433Y-138519669D02*
X169099731Y-138519669D01*
X174900454Y-161039946D02*
X175761737Y-160178663D01*
X174783431Y-182430369D02*
X174783431Y-184163169D01*
X174768820Y-161039946D02*
X174900454Y-161039946D01*
X173227231Y-180874169D02*
X174783431Y-182430369D01*
X184530231Y-153843935D02*
X186071820Y-152302346D01*
X172576282Y-138971518D02*
X172124433Y-138519669D01*
X172576282Y-138971518D02*
X173222931Y-138324869D01*
X173227231Y-175286169D02*
X173227231Y-180874169D01*
X153033792Y-187859608D02*
X152933392Y-187859608D01*
X184530231Y-159919169D02*
X184530231Y-153843935D01*
X166851831Y-140767569D02*
X169099731Y-138519669D01*
X157065020Y-180928146D02*
X157065020Y-183828380D01*
X157065020Y-183828380D02*
X153033792Y-187859608D01*
X186071820Y-141903158D02*
X184936231Y-140767569D01*
X174768820Y-173744580D02*
X173227231Y-175286169D01*
X184466731Y-159982669D02*
X184530231Y-159919169D01*
X174768820Y-161039946D02*
X174768820Y-173744580D01*
X175761737Y-157029995D02*
X174917409Y-156185668D01*
%TD*%
%TA.AperFunction,Conductor*%
%TO.N,GND2*%
G36*
X200021992Y-135680074D02*
G01*
X200027628Y-135680198D01*
X200405592Y-135697339D01*
X200417032Y-135698391D01*
X200788936Y-135750073D01*
X200800205Y-135752175D01*
X201165730Y-135838086D01*
X201176777Y-135841230D01*
X201459666Y-135936110D01*
X201532750Y-135960622D01*
X201543471Y-135964780D01*
X201775838Y-136067538D01*
X201886853Y-136116631D01*
X201897141Y-136121763D01*
X202224990Y-136304775D01*
X202234744Y-136310830D01*
X202544235Y-136523424D01*
X202553385Y-136530355D01*
X202841855Y-136770706D01*
X202850333Y-136778463D01*
X203115280Y-137044483D01*
X203123008Y-137052997D01*
X203362184Y-137342424D01*
X203369090Y-137351618D01*
X203580427Y-137661955D01*
X203586451Y-137671749D01*
X203768127Y-138000315D01*
X203773218Y-138010624D01*
X203923685Y-138354623D01*
X203927800Y-138365360D01*
X204027610Y-138666984D01*
X204045752Y-138721806D01*
X204048854Y-138732878D01*
X204133281Y-139098714D01*
X204135345Y-139110026D01*
X204185524Y-139482130D01*
X204186530Y-139493584D01*
X204202025Y-139868707D01*
X204201967Y-139880206D01*
X204182646Y-140255181D01*
X204181522Y-140266624D01*
X204127555Y-140638171D01*
X204125377Y-140649461D01*
X204037221Y-141014429D01*
X204034006Y-141025469D01*
X203912424Y-141380698D01*
X203908200Y-141391393D01*
X203754237Y-141733830D01*
X203749041Y-141744086D01*
X203562594Y-142073310D01*
X203562159Y-142074072D01*
X203560937Y-142076193D01*
X203526089Y-142131571D01*
X203522644Y-142142708D01*
X203515735Y-142154711D01*
X203515318Y-142155108D01*
X203514740Y-142156408D01*
X148578290Y-234173692D01*
X148575215Y-234178176D01*
X148540698Y-234236642D01*
X148537659Y-234241526D01*
X148318900Y-234575627D01*
X148312156Y-234584953D01*
X148065154Y-234895084D01*
X148057574Y-234903744D01*
X147782889Y-235189632D01*
X147774539Y-235197552D01*
X147474522Y-235456751D01*
X147465473Y-235463862D01*
X147142733Y-235694119D01*
X147133073Y-235700355D01*
X147014131Y-235769543D01*
X146790361Y-235899706D01*
X146780156Y-235905024D01*
X146420448Y-236071739D01*
X146409792Y-236076089D01*
X146036171Y-236208737D01*
X146025159Y-236212080D01*
X145640856Y-236309517D01*
X145629581Y-236311825D01*
X145237888Y-236373213D01*
X145226447Y-236374465D01*
X144830758Y-236399274D01*
X144819252Y-236399460D01*
X144422975Y-236387479D01*
X144411499Y-236386598D01*
X144018033Y-236337926D01*
X144006689Y-236335985D01*
X143619418Y-236251041D01*
X143608304Y-236248056D01*
X143230597Y-236127581D01*
X143219806Y-236123579D01*
X142854877Y-235968596D01*
X142844504Y-235963610D01*
X142725972Y-235899706D01*
X142495527Y-235775467D01*
X142485664Y-235769543D01*
X142377381Y-235697464D01*
X142155622Y-235549849D01*
X142146350Y-235543036D01*
X142120369Y-235522020D01*
X141838110Y-235293698D01*
X141829508Y-235286053D01*
X141545704Y-235009205D01*
X141537848Y-235000795D01*
X141447909Y-234895084D01*
X141280939Y-234698833D01*
X141273898Y-234689734D01*
X141197176Y-234580453D01*
X141046088Y-234365249D01*
X141039924Y-234355541D01*
X140974754Y-234241526D01*
X140843166Y-234011313D01*
X140837935Y-234001085D01*
X140673949Y-233640120D01*
X140669682Y-233629436D01*
X140589512Y-233398082D01*
X140539860Y-233254799D01*
X140536610Y-233243790D01*
X140442086Y-232858747D01*
X140439865Y-232847464D01*
X140434270Y-232809905D01*
X140432274Y-232796507D01*
X142558841Y-232796507D01*
X142558841Y-233001210D01*
X142590863Y-233203393D01*
X142654122Y-233398082D01*
X142747056Y-233580472D01*
X142867369Y-233746072D01*
X143012127Y-233890830D01*
X143114985Y-233965559D01*
X143177731Y-234011146D01*
X143293948Y-234070362D01*
X143360117Y-234104077D01*
X143360119Y-234104077D01*
X143360122Y-234104079D01*
X143464478Y-234137986D01*
X143554806Y-234167336D01*
X143623247Y-234178176D01*
X143756989Y-234199359D01*
X143756990Y-234199359D01*
X143961692Y-234199359D01*
X143961693Y-234199359D01*
X144163875Y-234167336D01*
X144358560Y-234104079D01*
X144540951Y-234011146D01*
X144633931Y-233943591D01*
X144706554Y-233890830D01*
X144706556Y-233890827D01*
X144706560Y-233890825D01*
X144851307Y-233746078D01*
X144851309Y-233746074D01*
X144851312Y-233746072D01*
X144932100Y-233634875D01*
X144971628Y-233580469D01*
X145064561Y-233398078D01*
X145127818Y-233203393D01*
X145159841Y-233001211D01*
X145159841Y-232796507D01*
X145153661Y-232757491D01*
X145162615Y-232688202D01*
X145207610Y-232634750D01*
X145274361Y-232614109D01*
X145341675Y-232632833D01*
X145363815Y-232650415D01*
X145394482Y-232681082D01*
X145471300Y-232736895D01*
X145471301Y-232736895D01*
X145471302Y-232736896D01*
X145591959Y-232776100D01*
X145591960Y-232776100D01*
X145718824Y-232776100D01*
X145718825Y-232776100D01*
X145839482Y-232736896D01*
X145916301Y-232681084D01*
X147233666Y-231363717D01*
X147289480Y-231286898D01*
X147328684Y-231166241D01*
X147328684Y-231039375D01*
X147289480Y-230918718D01*
X147267155Y-230887990D01*
X147233671Y-230841902D01*
X147087282Y-230695513D01*
X147053797Y-230634190D01*
X147058781Y-230564498D01*
X147087280Y-230520153D01*
X152461937Y-225145497D01*
X152461942Y-225145493D01*
X152472145Y-225135289D01*
X152472147Y-225135289D01*
X152583951Y-225023485D01*
X152587613Y-225017142D01*
X152652265Y-224905162D01*
X152652266Y-224905160D01*
X152656624Y-224897609D01*
X152663008Y-224886554D01*
X152703931Y-224733827D01*
X152703931Y-224575712D01*
X152703931Y-223372770D01*
X152723616Y-223305731D01*
X152771637Y-223262285D01*
X152785041Y-223255456D01*
X152950650Y-223135135D01*
X153095397Y-222990388D01*
X153095399Y-222990384D01*
X153095402Y-222990382D01*
X153154833Y-222908581D01*
X153215718Y-222824779D01*
X153308651Y-222642388D01*
X153371908Y-222447703D01*
X153403931Y-222245521D01*
X153403931Y-222040817D01*
X153371908Y-221838635D01*
X153308651Y-221643950D01*
X153308649Y-221643947D01*
X153308649Y-221643945D01*
X153274934Y-221577776D01*
X153215718Y-221461559D01*
X153207987Y-221450918D01*
X153095402Y-221295955D01*
X152950644Y-221151197D01*
X152785041Y-221030881D01*
X152771631Y-221024048D01*
X152720837Y-220976072D01*
X152703931Y-220913566D01*
X152703931Y-219529428D01*
X152703932Y-219529415D01*
X152703932Y-219361314D01*
X152703932Y-219361312D01*
X152663008Y-219208584D01*
X152621194Y-219136160D01*
X152621194Y-219136159D01*
X152583955Y-219071659D01*
X152583952Y-219071655D01*
X152583951Y-219071653D01*
X152472147Y-218959849D01*
X152472146Y-218959848D01*
X152467816Y-218955518D01*
X152467805Y-218955508D01*
X151639050Y-218126753D01*
X151605565Y-218065430D01*
X151602731Y-218039072D01*
X151602731Y-214881644D01*
X152042931Y-214881644D01*
X152042931Y-216744686D01*
X152052174Y-216803042D01*
X152057785Y-216838473D01*
X152115381Y-216951511D01*
X152115383Y-216951513D01*
X152115385Y-216951516D01*
X152205083Y-217041214D01*
X152205085Y-217041215D01*
X152205089Y-217041219D01*
X152318125Y-217098814D01*
X152318129Y-217098816D01*
X152411906Y-217113668D01*
X152411912Y-217113669D01*
X154274949Y-217113668D01*
X154368735Y-217098815D01*
X154481773Y-217041219D01*
X154571481Y-216951511D01*
X154629077Y-216838473D01*
X154629077Y-216838471D01*
X154629078Y-216838470D01*
X154643930Y-216744694D01*
X154643931Y-216744688D01*
X154643930Y-216701318D01*
X154663613Y-216634282D01*
X154716416Y-216588526D01*
X154785574Y-216578581D01*
X154849131Y-216607604D01*
X154868248Y-216628434D01*
X154891459Y-216660381D01*
X154891463Y-216660386D01*
X155036217Y-216805140D01*
X155191180Y-216917725D01*
X155201821Y-216925456D01*
X155318038Y-216984672D01*
X155384207Y-217018387D01*
X155384209Y-217018387D01*
X155384212Y-217018389D01*
X155454476Y-217041219D01*
X155578896Y-217081646D01*
X155679988Y-217097657D01*
X155781079Y-217113669D01*
X155781080Y-217113669D01*
X155985782Y-217113669D01*
X155985783Y-217113669D01*
X156187965Y-217081646D01*
X156382650Y-217018389D01*
X156565041Y-216925456D01*
X156684768Y-216838470D01*
X156730644Y-216805140D01*
X156730646Y-216805137D01*
X156730650Y-216805135D01*
X156875397Y-216660388D01*
X156875399Y-216660384D01*
X156875402Y-216660382D01*
X156951590Y-216555516D01*
X156995718Y-216494779D01*
X157088651Y-216312388D01*
X157151908Y-216117703D01*
X157183931Y-215915521D01*
X157183931Y-215710817D01*
X157151908Y-215508635D01*
X157147256Y-215494320D01*
X157145263Y-215424481D01*
X157177506Y-215368327D01*
X157492144Y-215053690D01*
X157492147Y-215053689D01*
X157603951Y-214941885D01*
X157654070Y-214855073D01*
X157683008Y-214804954D01*
X157723932Y-214652226D01*
X157723932Y-214494112D01*
X157723932Y-214486517D01*
X157723931Y-214486499D01*
X157723931Y-210907668D01*
X157743616Y-210840629D01*
X157796420Y-210794874D01*
X157847931Y-210783668D01*
X158054948Y-210783668D01*
X158054949Y-210783668D01*
X158148735Y-210768815D01*
X158261773Y-210711219D01*
X158351481Y-210621511D01*
X158409077Y-210508473D01*
X158409077Y-210508471D01*
X158409078Y-210508470D01*
X158423930Y-210414694D01*
X158423931Y-210414688D01*
X158423930Y-210371318D01*
X158443613Y-210304282D01*
X158496416Y-210258526D01*
X158565574Y-210248581D01*
X158629131Y-210277604D01*
X158648248Y-210298434D01*
X158671459Y-210330381D01*
X158671463Y-210330386D01*
X158816217Y-210475140D01*
X158971180Y-210587725D01*
X158981821Y-210595456D01*
X159098038Y-210654672D01*
X159164207Y-210688387D01*
X159164209Y-210688387D01*
X159164212Y-210688389D01*
X159234476Y-210711219D01*
X159358896Y-210751646D01*
X159459988Y-210767657D01*
X159561079Y-210783669D01*
X159561080Y-210783669D01*
X159765782Y-210783669D01*
X159765783Y-210783669D01*
X159967965Y-210751646D01*
X160162650Y-210688389D01*
X160345041Y-210595456D01*
X160464768Y-210508470D01*
X160510644Y-210475140D01*
X160510646Y-210475137D01*
X160510650Y-210475135D01*
X160655397Y-210330388D01*
X160655399Y-210330384D01*
X160655402Y-210330382D01*
X160747677Y-210203374D01*
X160775718Y-210164779D01*
X160868651Y-209982388D01*
X160931908Y-209787703D01*
X160963931Y-209585521D01*
X160963931Y-209380817D01*
X160944590Y-209258702D01*
X160931908Y-209178634D01*
X160868649Y-208983945D01*
X160814145Y-208876976D01*
X160775718Y-208801559D01*
X160767987Y-208790918D01*
X160655402Y-208635955D01*
X160510644Y-208491197D01*
X160345044Y-208370884D01*
X160345043Y-208370883D01*
X160345041Y-208370882D01*
X160288084Y-208341860D01*
X160162654Y-208277950D01*
X159967965Y-208214691D01*
X159793426Y-208187047D01*
X159765783Y-208182669D01*
X159561079Y-208182669D01*
X159536760Y-208186520D01*
X159358896Y-208214691D01*
X159164207Y-208277950D01*
X158981817Y-208370884D01*
X158816217Y-208491197D01*
X158671463Y-208635951D01*
X158671459Y-208635956D01*
X158648248Y-208667904D01*
X158592918Y-208710570D01*
X158523305Y-208716549D01*
X158461510Y-208683943D01*
X158427153Y-208623105D01*
X158423930Y-208595019D01*
X158423930Y-208551651D01*
X158423929Y-208551644D01*
X158409077Y-208457865D01*
X158351481Y-208344827D01*
X158351477Y-208344823D01*
X158351476Y-208344821D01*
X158261778Y-208255123D01*
X158261775Y-208255121D01*
X158261773Y-208255119D01*
X158182429Y-208214691D01*
X158148732Y-208197521D01*
X158054955Y-208182669D01*
X158054950Y-208182669D01*
X157989328Y-208182669D01*
X157922289Y-208162984D01*
X157876534Y-208110180D01*
X157866590Y-208041022D01*
X157895615Y-207977466D01*
X157901647Y-207970988D01*
X158580647Y-207291988D01*
X158641970Y-207258503D01*
X158668328Y-207255669D01*
X160821562Y-207255669D01*
X160821578Y-207255670D01*
X160829174Y-207255670D01*
X160987285Y-207255670D01*
X160987288Y-207255670D01*
X161140016Y-207214746D01*
X161190135Y-207185808D01*
X161276947Y-207135689D01*
X161388751Y-207023885D01*
X161388751Y-207023883D01*
X161398959Y-207013676D01*
X161398961Y-207013673D01*
X163801937Y-204610697D01*
X163801942Y-204610693D01*
X163812145Y-204600489D01*
X163812147Y-204600489D01*
X163923951Y-204488685D01*
X163999177Y-204358389D01*
X164003008Y-204351754D01*
X164003009Y-204351749D01*
X164004377Y-204349381D01*
X164054948Y-204301170D01*
X164055002Y-204301141D01*
X164125041Y-204265456D01*
X164290650Y-204145135D01*
X164435397Y-204000388D01*
X164435399Y-204000384D01*
X164435402Y-204000382D01*
X164524398Y-203877887D01*
X164555718Y-203834779D01*
X164648651Y-203652388D01*
X164711908Y-203457703D01*
X164743931Y-203255521D01*
X164743931Y-203050817D01*
X164711908Y-202848635D01*
X164707256Y-202834320D01*
X164705263Y-202764481D01*
X164737506Y-202708327D01*
X165052144Y-202393690D01*
X165052147Y-202393689D01*
X165163951Y-202281885D01*
X165214070Y-202195073D01*
X165243008Y-202144954D01*
X165283932Y-201992226D01*
X165283932Y-201834112D01*
X165283932Y-201826517D01*
X165283931Y-201826499D01*
X165283931Y-198247668D01*
X165303616Y-198180629D01*
X165356420Y-198134874D01*
X165407931Y-198123668D01*
X165614948Y-198123668D01*
X165614949Y-198123668D01*
X165708735Y-198108815D01*
X165821773Y-198051219D01*
X165911481Y-197961511D01*
X165969077Y-197848473D01*
X165969077Y-197848471D01*
X165969078Y-197848470D01*
X165983930Y-197754694D01*
X165983931Y-197754688D01*
X165983930Y-197711318D01*
X166003613Y-197644282D01*
X166056416Y-197598526D01*
X166125574Y-197588581D01*
X166189131Y-197617604D01*
X166208248Y-197638434D01*
X166231459Y-197670381D01*
X166231463Y-197670386D01*
X166376217Y-197815140D01*
X166531180Y-197927725D01*
X166541821Y-197935456D01*
X166644838Y-197987946D01*
X166724207Y-198028387D01*
X166724209Y-198028387D01*
X166724212Y-198028389D01*
X166794476Y-198051219D01*
X166918896Y-198091646D01*
X166999484Y-198104410D01*
X167121079Y-198123669D01*
X167121080Y-198123669D01*
X167325782Y-198123669D01*
X167325783Y-198123669D01*
X167527965Y-198091646D01*
X167722650Y-198028389D01*
X167905041Y-197935456D01*
X168024768Y-197848470D01*
X168070644Y-197815140D01*
X168070646Y-197815137D01*
X168070650Y-197815135D01*
X168215397Y-197670388D01*
X168215399Y-197670384D01*
X168215402Y-197670382D01*
X168297582Y-197557269D01*
X168335718Y-197504779D01*
X168428651Y-197322388D01*
X168491908Y-197127703D01*
X168523931Y-196925521D01*
X168523931Y-196720817D01*
X168491908Y-196518635D01*
X168428651Y-196323950D01*
X168428649Y-196323947D01*
X168428649Y-196323945D01*
X168362463Y-196194049D01*
X168335718Y-196141559D01*
X168327987Y-196130918D01*
X168215402Y-195975955D01*
X168070644Y-195831197D01*
X167905044Y-195710884D01*
X167905043Y-195710883D01*
X167905041Y-195710882D01*
X167848084Y-195681860D01*
X167722654Y-195617950D01*
X167527965Y-195554691D01*
X167353426Y-195527047D01*
X167325783Y-195522669D01*
X167121079Y-195522669D01*
X167096760Y-195526520D01*
X166918896Y-195554691D01*
X166724207Y-195617950D01*
X166541817Y-195710884D01*
X166376217Y-195831197D01*
X166231463Y-195975951D01*
X166231459Y-195975956D01*
X166208248Y-196007904D01*
X166152918Y-196050570D01*
X166083305Y-196056549D01*
X166021510Y-196023943D01*
X165987153Y-195963105D01*
X165983930Y-195935019D01*
X165983930Y-195891651D01*
X165982669Y-195883687D01*
X165969077Y-195797865D01*
X165911481Y-195684827D01*
X165911477Y-195684823D01*
X165911476Y-195684821D01*
X165851325Y-195624670D01*
X165817840Y-195563347D01*
X165822824Y-195493655D01*
X165851322Y-195449311D01*
X166454647Y-194845988D01*
X166515970Y-194812503D01*
X166542328Y-194809669D01*
X168441562Y-194809669D01*
X168441578Y-194809670D01*
X168449174Y-194809670D01*
X168607285Y-194809670D01*
X168607288Y-194809670D01*
X168760016Y-194768746D01*
X168810135Y-194739808D01*
X168896947Y-194689689D01*
X169008751Y-194577885D01*
X169008751Y-194577883D01*
X169018959Y-194567676D01*
X169018961Y-194567673D01*
X171361937Y-192224697D01*
X171361942Y-192224693D01*
X171372145Y-192214489D01*
X171372147Y-192214489D01*
X171483951Y-192102685D01*
X171563008Y-191965753D01*
X171603931Y-191813026D01*
X171603931Y-191722770D01*
X171623616Y-191655731D01*
X171671637Y-191612285D01*
X171685041Y-191605456D01*
X171850650Y-191485135D01*
X171995397Y-191340388D01*
X171995399Y-191340384D01*
X171995402Y-191340382D01*
X172054833Y-191258581D01*
X172115718Y-191174779D01*
X172208651Y-190992388D01*
X172271908Y-190797703D01*
X172303931Y-190595521D01*
X172303931Y-190390817D01*
X172271908Y-190188635D01*
X172267256Y-190174320D01*
X172265263Y-190104481D01*
X172297506Y-190048327D01*
X172601937Y-189743897D01*
X172601942Y-189743893D01*
X172612145Y-189733689D01*
X172612147Y-189733689D01*
X172723951Y-189621885D01*
X172775326Y-189532900D01*
X172803008Y-189484954D01*
X172843932Y-189332226D01*
X172843932Y-189174112D01*
X172843932Y-189166517D01*
X172843931Y-189166499D01*
X172843931Y-185587668D01*
X172863616Y-185520629D01*
X172916420Y-185474874D01*
X172967931Y-185463668D01*
X173174948Y-185463668D01*
X173174949Y-185463668D01*
X173268735Y-185448815D01*
X173381773Y-185391219D01*
X173471481Y-185301511D01*
X173529077Y-185188473D01*
X173529077Y-185188471D01*
X173529078Y-185188470D01*
X173543930Y-185094694D01*
X173543931Y-185094688D01*
X173543930Y-185051318D01*
X173563613Y-184984282D01*
X173616416Y-184938526D01*
X173685574Y-184928581D01*
X173749131Y-184957604D01*
X173768248Y-184978434D01*
X173791459Y-185010381D01*
X173791463Y-185010386D01*
X173936217Y-185155140D01*
X174091180Y-185267725D01*
X174101821Y-185275456D01*
X174218038Y-185334672D01*
X174284207Y-185368387D01*
X174284209Y-185368387D01*
X174284212Y-185368389D01*
X174354476Y-185391219D01*
X174478896Y-185431646D01*
X174579988Y-185447657D01*
X174681079Y-185463669D01*
X174681080Y-185463669D01*
X174885782Y-185463669D01*
X174885783Y-185463669D01*
X175087965Y-185431646D01*
X175282650Y-185368389D01*
X175465041Y-185275456D01*
X175584768Y-185188470D01*
X175630644Y-185155140D01*
X175630646Y-185155137D01*
X175630650Y-185155135D01*
X175775397Y-185010388D01*
X175775399Y-185010384D01*
X175775402Y-185010382D01*
X175834833Y-184928581D01*
X175895718Y-184844779D01*
X175988651Y-184662388D01*
X176051908Y-184467703D01*
X176083931Y-184265521D01*
X176083931Y-184060817D01*
X176059638Y-183907437D01*
X176051908Y-183858634D01*
X175988649Y-183663945D01*
X175929542Y-183547943D01*
X175895718Y-183481559D01*
X175856533Y-183427625D01*
X175775402Y-183315955D01*
X175630644Y-183171197D01*
X175465041Y-183050881D01*
X175451631Y-183044048D01*
X175400837Y-182996072D01*
X175383931Y-182933566D01*
X175383931Y-182351314D01*
X175383931Y-182351312D01*
X175343008Y-182198585D01*
X175343008Y-182198584D01*
X175326546Y-182170072D01*
X175304060Y-182131124D01*
X175304060Y-182131123D01*
X175263955Y-182061659D01*
X175263952Y-182061655D01*
X175263951Y-182061653D01*
X175152147Y-181949849D01*
X175152146Y-181949848D01*
X175147816Y-181945518D01*
X175147805Y-181945508D01*
X173864050Y-180661753D01*
X173830565Y-180600430D01*
X173827731Y-180574072D01*
X173827731Y-176901644D01*
X174722931Y-176901644D01*
X174722931Y-178764686D01*
X174732505Y-178825135D01*
X174737785Y-178858473D01*
X174795381Y-178971511D01*
X174795383Y-178971513D01*
X174795385Y-178971516D01*
X174885083Y-179061214D01*
X174885085Y-179061215D01*
X174885089Y-179061219D01*
X174998125Y-179118814D01*
X174998129Y-179118816D01*
X175091906Y-179133668D01*
X175091912Y-179133669D01*
X176954949Y-179133668D01*
X177048735Y-179118815D01*
X177161773Y-179061219D01*
X177251481Y-178971511D01*
X177309077Y-178858473D01*
X177309077Y-178858471D01*
X177309078Y-178858470D01*
X177323930Y-178764694D01*
X177323931Y-178764688D01*
X177323930Y-178721318D01*
X177343613Y-178654282D01*
X177396416Y-178608526D01*
X177465574Y-178598581D01*
X177529131Y-178627604D01*
X177548248Y-178648434D01*
X177571459Y-178680381D01*
X177571463Y-178680386D01*
X177716217Y-178825140D01*
X177868189Y-178935552D01*
X177881821Y-178945456D01*
X177998038Y-179004672D01*
X178064207Y-179038387D01*
X178064209Y-179038387D01*
X178064212Y-179038389D01*
X178134836Y-179061336D01*
X178258896Y-179101646D01*
X178359988Y-179117657D01*
X178461079Y-179133669D01*
X178461080Y-179133669D01*
X178665782Y-179133669D01*
X178665783Y-179133669D01*
X178867965Y-179101646D01*
X179062650Y-179038389D01*
X179245041Y-178945456D01*
X179366710Y-178857059D01*
X179410644Y-178825140D01*
X179410646Y-178825137D01*
X179410650Y-178825135D01*
X179555397Y-178680388D01*
X179555399Y-178680384D01*
X179555402Y-178680382D01*
X179614833Y-178598581D01*
X179675718Y-178514779D01*
X179768651Y-178332388D01*
X179831908Y-178137703D01*
X179863931Y-177935521D01*
X179863931Y-177730817D01*
X179847173Y-177625013D01*
X179831908Y-177528634D01*
X179788483Y-177394987D01*
X179768651Y-177333950D01*
X179768649Y-177333947D01*
X179768649Y-177333945D01*
X179734934Y-177267776D01*
X179675718Y-177151559D01*
X179659216Y-177128846D01*
X179555402Y-176985955D01*
X179410644Y-176841197D01*
X179245044Y-176720884D01*
X179245043Y-176720883D01*
X179245041Y-176720882D01*
X179188084Y-176691860D01*
X179062654Y-176627950D01*
X178867965Y-176564691D01*
X178693426Y-176537047D01*
X178665783Y-176532669D01*
X178461079Y-176532669D01*
X178436760Y-176536520D01*
X178258896Y-176564691D01*
X178064207Y-176627950D01*
X177881817Y-176720884D01*
X177716217Y-176841197D01*
X177571463Y-176985951D01*
X177571459Y-176985956D01*
X177548248Y-177017904D01*
X177492918Y-177060570D01*
X177423305Y-177066549D01*
X177361510Y-177033943D01*
X177327153Y-176973105D01*
X177323930Y-176945019D01*
X177323930Y-176901651D01*
X177323929Y-176901644D01*
X177309077Y-176807865D01*
X177251481Y-176694827D01*
X177251477Y-176694823D01*
X177251476Y-176694821D01*
X177161778Y-176605123D01*
X177161769Y-176605116D01*
X177088434Y-176567750D01*
X177037638Y-176519776D01*
X177020843Y-176451955D01*
X177043381Y-176385820D01*
X177057035Y-176369598D01*
X177376649Y-176049985D01*
X177437970Y-176016503D01*
X177464328Y-176013669D01*
X179363562Y-176013669D01*
X179363578Y-176013670D01*
X179371174Y-176013670D01*
X179529285Y-176013670D01*
X179529288Y-176013670D01*
X179682016Y-175972746D01*
X179732135Y-175943808D01*
X179818947Y-175893689D01*
X179930751Y-175781885D01*
X179930751Y-175781883D01*
X179940959Y-175771676D01*
X179940960Y-175771673D01*
X182823951Y-172888685D01*
X182903008Y-172751753D01*
X182911719Y-172719239D01*
X182948081Y-172659583D01*
X182975193Y-172640854D01*
X183025041Y-172615456D01*
X183190650Y-172495135D01*
X183335397Y-172350388D01*
X183335399Y-172350384D01*
X183335402Y-172350382D01*
X183394833Y-172268581D01*
X183455718Y-172184779D01*
X183548651Y-172002388D01*
X183611908Y-171807703D01*
X183643931Y-171605521D01*
X183643931Y-171400817D01*
X183611908Y-171198635D01*
X183548651Y-171003950D01*
X183548649Y-171003947D01*
X183548649Y-171003945D01*
X183498904Y-170906317D01*
X183455718Y-170821559D01*
X183447987Y-170810918D01*
X183335402Y-170655955D01*
X183190644Y-170511197D01*
X183025044Y-170390884D01*
X183025043Y-170390883D01*
X183025041Y-170390882D01*
X182953714Y-170354539D01*
X182842650Y-170297948D01*
X182814073Y-170288663D01*
X182764712Y-170258414D01*
X182712148Y-170205850D01*
X182712140Y-170205844D01*
X182575221Y-170126795D01*
X182575217Y-170126793D01*
X182575215Y-170126792D01*
X182422488Y-170085869D01*
X182264374Y-170085869D01*
X182111647Y-170126792D01*
X182111640Y-170126795D01*
X181974716Y-170205847D01*
X181922146Y-170258416D01*
X181872789Y-170288663D01*
X181844214Y-170297948D01*
X181661816Y-170390884D01*
X181496217Y-170511197D01*
X181351463Y-170655951D01*
X181351459Y-170655956D01*
X181328248Y-170687904D01*
X181272918Y-170730570D01*
X181203305Y-170736549D01*
X181141510Y-170703943D01*
X181107153Y-170643105D01*
X181103930Y-170615019D01*
X181103930Y-170571651D01*
X181103828Y-170571007D01*
X181089077Y-170477865D01*
X181031481Y-170364827D01*
X181031477Y-170364823D01*
X181031476Y-170364821D01*
X180941778Y-170275123D01*
X180941775Y-170275121D01*
X180941773Y-170275119D01*
X180864948Y-170235974D01*
X180828732Y-170217521D01*
X180734955Y-170202669D01*
X178871913Y-170202669D01*
X178790950Y-170215492D01*
X178778127Y-170217523D01*
X178665089Y-170275119D01*
X178665088Y-170275120D01*
X178665083Y-170275123D01*
X178575385Y-170364821D01*
X178575382Y-170364826D01*
X178517783Y-170477867D01*
X178502931Y-170571644D01*
X178502931Y-172434686D01*
X178512505Y-172495134D01*
X178517785Y-172528473D01*
X178575381Y-172641511D01*
X178575383Y-172641513D01*
X178575385Y-172641516D01*
X178665083Y-172731214D01*
X178665085Y-172731215D01*
X178665089Y-172731219D01*
X178778125Y-172788814D01*
X178778129Y-172788816D01*
X178871906Y-172803668D01*
X178871912Y-172803669D01*
X180734949Y-172803668D01*
X180828735Y-172788815D01*
X180941773Y-172731219D01*
X181031481Y-172641511D01*
X181089077Y-172528473D01*
X181094358Y-172495134D01*
X181103930Y-172434694D01*
X181103931Y-172434688D01*
X181103930Y-172391318D01*
X181123613Y-172324282D01*
X181176416Y-172278526D01*
X181245574Y-172268581D01*
X181309131Y-172297604D01*
X181328248Y-172318434D01*
X181351458Y-172350380D01*
X181351462Y-172350384D01*
X181351465Y-172350388D01*
X181392399Y-172391322D01*
X181419939Y-172418862D01*
X181453423Y-172480186D01*
X181448438Y-172549877D01*
X181419938Y-172594224D01*
X181294919Y-172719244D01*
X181151158Y-172863005D01*
X181083771Y-172930392D01*
X181083768Y-172930393D01*
X179237815Y-174776350D01*
X179176492Y-174809835D01*
X179150134Y-174812669D01*
X177250900Y-174812669D01*
X177250884Y-174812668D01*
X177243288Y-174812668D01*
X177085174Y-174812668D01*
X176977818Y-174841434D01*
X176932441Y-174853593D01*
X176932440Y-174853594D01*
X176882327Y-174882528D01*
X176882326Y-174882529D01*
X176838920Y-174907589D01*
X176795516Y-174932648D01*
X176795513Y-174932650D01*
X175542912Y-176185251D01*
X175542910Y-176185254D01*
X175500516Y-176258684D01*
X175495328Y-176267670D01*
X175463854Y-176322184D01*
X175430557Y-176446446D01*
X175428502Y-176451963D01*
X175410958Y-176475414D01*
X175395714Y-176500424D01*
X175390272Y-176503067D01*
X175386649Y-176507911D01*
X175359210Y-176518155D01*
X175332867Y-176530952D01*
X175322652Y-176531804D01*
X175321193Y-176532350D01*
X175319785Y-176532044D01*
X175312306Y-176532669D01*
X175091913Y-176532669D01*
X175010950Y-176545492D01*
X174998127Y-176547523D01*
X174885089Y-176605119D01*
X174885088Y-176605120D01*
X174885083Y-176605123D01*
X174795385Y-176694821D01*
X174795382Y-176694826D01*
X174737783Y-176807867D01*
X174722931Y-176901644D01*
X173827731Y-176901644D01*
X173827731Y-175586265D01*
X173847416Y-175519226D01*
X173864045Y-175498589D01*
X175127326Y-174235307D01*
X175127331Y-174235304D01*
X175137534Y-174225100D01*
X175137536Y-174225100D01*
X175249340Y-174113296D01*
X175308724Y-174010439D01*
X175328397Y-173976365D01*
X175369320Y-173823637D01*
X175369320Y-173665523D01*
X175369320Y-161471676D01*
X175389005Y-161404637D01*
X175405639Y-161383995D01*
X175709441Y-161080193D01*
X176120243Y-160669391D01*
X176120248Y-160669387D01*
X176130451Y-160659183D01*
X176130453Y-160659183D01*
X176242257Y-160547379D01*
X176310481Y-160429211D01*
X176313963Y-160423180D01*
X176313964Y-160423179D01*
X176317597Y-160416885D01*
X176321314Y-160410448D01*
X176362237Y-160257720D01*
X176362237Y-160099606D01*
X176362237Y-156950938D01*
X176321314Y-156798211D01*
X176312386Y-156782747D01*
X176242261Y-156661285D01*
X176242255Y-156661277D01*
X176172523Y-156591545D01*
X176139038Y-156530222D01*
X176144022Y-156460530D01*
X176172518Y-156416188D01*
X176466817Y-156121891D01*
X176490840Y-156093765D01*
X176505968Y-156066248D01*
X176570017Y-155949741D01*
X176574320Y-155932986D01*
X176610892Y-155790548D01*
X176610892Y-155626194D01*
X176570018Y-155467003D01*
X176570017Y-155467002D01*
X176570017Y-155467000D01*
X176490844Y-155322983D01*
X176490839Y-155322976D01*
X176466820Y-155294854D01*
X176466800Y-155294833D01*
X175808243Y-154636276D01*
X175808222Y-154636256D01*
X175780100Y-154612237D01*
X175780093Y-154612232D01*
X175636076Y-154533059D01*
X175476885Y-154492185D01*
X175476883Y-154492185D01*
X175312529Y-154492185D01*
X175312526Y-154492185D01*
X175153335Y-154533059D01*
X175009318Y-154612232D01*
X175009311Y-154612237D01*
X174981189Y-154636256D01*
X174981168Y-154636276D01*
X173368017Y-156249427D01*
X173367997Y-156249448D01*
X173343978Y-156277570D01*
X173343973Y-156277577D01*
X173264800Y-156421594D01*
X173223926Y-156580785D01*
X173223926Y-156745144D01*
X173264800Y-156904335D01*
X173343973Y-157048352D01*
X173343977Y-157048358D01*
X173367997Y-157076481D01*
X173368017Y-157076502D01*
X174026574Y-157735059D01*
X174026595Y-157735079D01*
X174054717Y-157759098D01*
X174054724Y-157759103D01*
X174198741Y-157838276D01*
X174198743Y-157838276D01*
X174198744Y-157838277D01*
X174357935Y-157879151D01*
X174357938Y-157879151D01*
X174522286Y-157879151D01*
X174522289Y-157879151D01*
X174681480Y-157838277D01*
X174718610Y-157817865D01*
X174825499Y-157759103D01*
X174825499Y-157759102D01*
X174825506Y-157759099D01*
X174853632Y-157735076D01*
X174949557Y-157639150D01*
X175010878Y-157605667D01*
X175080570Y-157610651D01*
X175136504Y-157652522D01*
X175160921Y-157717986D01*
X175161237Y-157726833D01*
X175161237Y-159878566D01*
X175141552Y-159945605D01*
X175124918Y-159966247D01*
X174788038Y-160303127D01*
X174726715Y-160336612D01*
X174700357Y-160339446D01*
X174699825Y-160339446D01*
X174564497Y-160366364D01*
X174564487Y-160366367D01*
X174437015Y-160419167D01*
X174437002Y-160419174D01*
X174322278Y-160495831D01*
X174322274Y-160495834D01*
X174224708Y-160593400D01*
X174224705Y-160593404D01*
X174148048Y-160708128D01*
X174148041Y-160708141D01*
X174095241Y-160835613D01*
X174095238Y-160835623D01*
X174068320Y-160970950D01*
X174068320Y-160970953D01*
X174068320Y-161108939D01*
X174068320Y-161108941D01*
X174068319Y-161108941D01*
X174095238Y-161244268D01*
X174095241Y-161244278D01*
X174148042Y-161371752D01*
X174150914Y-161377124D01*
X174149612Y-161377820D01*
X174168300Y-161437500D01*
X174168320Y-161439715D01*
X174168320Y-173444482D01*
X174148635Y-173511521D01*
X174132001Y-173532163D01*
X172746712Y-174917451D01*
X172746710Y-174917454D01*
X172737937Y-174932650D01*
X172708363Y-174983874D01*
X172700274Y-174997885D01*
X172673387Y-175044455D01*
X172667654Y-175054384D01*
X172626730Y-175207112D01*
X172626730Y-175207114D01*
X172626730Y-175375215D01*
X172626731Y-175375228D01*
X172626731Y-180787499D01*
X172626730Y-180787517D01*
X172626730Y-180953223D01*
X172626729Y-180953223D01*
X172638496Y-180997139D01*
X172667654Y-181105954D01*
X172684515Y-181135158D01*
X172684516Y-181135160D01*
X172684517Y-181135160D01*
X172739526Y-181230440D01*
X172746710Y-181242883D01*
X172746712Y-181242886D01*
X172865580Y-181361754D01*
X172865586Y-181361759D01*
X174146612Y-182642785D01*
X174161315Y-182669712D01*
X174177908Y-182695531D01*
X174178799Y-182701731D01*
X174180097Y-182704108D01*
X174182931Y-182730466D01*
X174182931Y-182933566D01*
X174163246Y-183000605D01*
X174115231Y-183044048D01*
X174101820Y-183050881D01*
X173936217Y-183171197D01*
X173791463Y-183315951D01*
X173791459Y-183315956D01*
X173768248Y-183347904D01*
X173712918Y-183390570D01*
X173643305Y-183396549D01*
X173581510Y-183363943D01*
X173547153Y-183303105D01*
X173543930Y-183275019D01*
X173543930Y-183231651D01*
X173543929Y-183231644D01*
X173529077Y-183137865D01*
X173471481Y-183024827D01*
X173471477Y-183024823D01*
X173471476Y-183024821D01*
X173381778Y-182935123D01*
X173381775Y-182935121D01*
X173381773Y-182935119D01*
X173304948Y-182895974D01*
X173268732Y-182877521D01*
X173174955Y-182862669D01*
X171311913Y-182862669D01*
X171230950Y-182875492D01*
X171218127Y-182877523D01*
X171105089Y-182935119D01*
X171105088Y-182935120D01*
X171105083Y-182935123D01*
X171015385Y-183024821D01*
X171015382Y-183024826D01*
X171015381Y-183024827D01*
X171002106Y-183050881D01*
X170957783Y-183137867D01*
X170942931Y-183231644D01*
X170942931Y-185094686D01*
X170952505Y-185155135D01*
X170957785Y-185188473D01*
X171015381Y-185301511D01*
X171015383Y-185301513D01*
X171015385Y-185301516D01*
X171105083Y-185391214D01*
X171105085Y-185391215D01*
X171105089Y-185391219D01*
X171218125Y-185448814D01*
X171218129Y-185448816D01*
X171311906Y-185463668D01*
X171311912Y-185463669D01*
X171518931Y-185463668D01*
X171585970Y-185483352D01*
X171631725Y-185536156D01*
X171642931Y-185587668D01*
X171642931Y-188953071D01*
X171634286Y-188982511D01*
X171627763Y-189012498D01*
X171624008Y-189017513D01*
X171623246Y-189020110D01*
X171606612Y-189040752D01*
X171448273Y-189199091D01*
X171386950Y-189232576D01*
X171322274Y-189229341D01*
X171307965Y-189224692D01*
X171307959Y-189224691D01*
X171105783Y-189192669D01*
X170901079Y-189192669D01*
X170876760Y-189196520D01*
X170698896Y-189224691D01*
X170504207Y-189287950D01*
X170321817Y-189380884D01*
X170156217Y-189501197D01*
X170011463Y-189645951D01*
X170011459Y-189645956D01*
X169988248Y-189677904D01*
X169932918Y-189720570D01*
X169863305Y-189726549D01*
X169801510Y-189693943D01*
X169767153Y-189633105D01*
X169763930Y-189605019D01*
X169763930Y-189561651D01*
X169762609Y-189553310D01*
X169749077Y-189467865D01*
X169691481Y-189354827D01*
X169691477Y-189354823D01*
X169691476Y-189354821D01*
X169601778Y-189265123D01*
X169601775Y-189265121D01*
X169601773Y-189265119D01*
X169522429Y-189224691D01*
X169488732Y-189207521D01*
X169394955Y-189192669D01*
X167531913Y-189192669D01*
X167450950Y-189205492D01*
X167438127Y-189207523D01*
X167325089Y-189265119D01*
X167325088Y-189265120D01*
X167325083Y-189265123D01*
X167235385Y-189354821D01*
X167235382Y-189354826D01*
X167177783Y-189467867D01*
X167162931Y-189561644D01*
X167162931Y-191424686D01*
X167172505Y-191485134D01*
X167177785Y-191518473D01*
X167235381Y-191631511D01*
X167235383Y-191631513D01*
X167235385Y-191631516D01*
X167325083Y-191721214D01*
X167325085Y-191721215D01*
X167325089Y-191721219D01*
X167438125Y-191778814D01*
X167438129Y-191778816D01*
X167531906Y-191793668D01*
X167531912Y-191793669D01*
X169394949Y-191793668D01*
X169488735Y-191778815D01*
X169601773Y-191721219D01*
X169691481Y-191631511D01*
X169749077Y-191518473D01*
X169749077Y-191518471D01*
X169749078Y-191518470D01*
X169763930Y-191424694D01*
X169763931Y-191424688D01*
X169763930Y-191381318D01*
X169783613Y-191314282D01*
X169836416Y-191268526D01*
X169905574Y-191258581D01*
X169969131Y-191287604D01*
X169988248Y-191308434D01*
X170011459Y-191340381D01*
X170011463Y-191340386D01*
X170156213Y-191485136D01*
X170156218Y-191485140D01*
X170181708Y-191503660D01*
X170224374Y-191558990D01*
X170230353Y-191628603D01*
X170197747Y-191690398D01*
X170196504Y-191691659D01*
X168315815Y-193572350D01*
X168254492Y-193605835D01*
X168228134Y-193608669D01*
X166321288Y-193608669D01*
X166163174Y-193608669D01*
X166010446Y-193649592D01*
X166010445Y-193649592D01*
X166010443Y-193649593D01*
X166010440Y-193649594D01*
X165960327Y-193678528D01*
X165960326Y-193678529D01*
X165916920Y-193703589D01*
X165873516Y-193728648D01*
X165873513Y-193728650D01*
X164202912Y-195399251D01*
X164202908Y-195399256D01*
X164167452Y-195460669D01*
X164116885Y-195508885D01*
X164060065Y-195522669D01*
X163751913Y-195522669D01*
X163670950Y-195535492D01*
X163658127Y-195537523D01*
X163545089Y-195595119D01*
X163545088Y-195595120D01*
X163545083Y-195595123D01*
X163455385Y-195684821D01*
X163455382Y-195684826D01*
X163397783Y-195797867D01*
X163382931Y-195891644D01*
X163382931Y-197754686D01*
X163392505Y-197815135D01*
X163397785Y-197848473D01*
X163455381Y-197961511D01*
X163455383Y-197961513D01*
X163455385Y-197961516D01*
X163545083Y-198051214D01*
X163545085Y-198051215D01*
X163545089Y-198051219D01*
X163649482Y-198104410D01*
X163658129Y-198108816D01*
X163751906Y-198123668D01*
X163751912Y-198123669D01*
X163958931Y-198123668D01*
X164025970Y-198143352D01*
X164071725Y-198196156D01*
X164082931Y-198247668D01*
X164082931Y-201613071D01*
X164074286Y-201642511D01*
X164067763Y-201672498D01*
X164064008Y-201677513D01*
X164063246Y-201680110D01*
X164046612Y-201700752D01*
X163888273Y-201859091D01*
X163826950Y-201892576D01*
X163762274Y-201889341D01*
X163747965Y-201884692D01*
X163747959Y-201884691D01*
X163545783Y-201852669D01*
X163341079Y-201852669D01*
X163316760Y-201856520D01*
X163138896Y-201884691D01*
X162944207Y-201947950D01*
X162761817Y-202040884D01*
X162596217Y-202161197D01*
X162451463Y-202305951D01*
X162451459Y-202305956D01*
X162428248Y-202337904D01*
X162372918Y-202380570D01*
X162303305Y-202386549D01*
X162241510Y-202353943D01*
X162207153Y-202293105D01*
X162203930Y-202265019D01*
X162203930Y-202221651D01*
X162203929Y-202221644D01*
X162189077Y-202127865D01*
X162131481Y-202014827D01*
X162131477Y-202014823D01*
X162131476Y-202014821D01*
X162041778Y-201925123D01*
X162041775Y-201925121D01*
X162041773Y-201925119D01*
X161962429Y-201884691D01*
X161928732Y-201867521D01*
X161834955Y-201852669D01*
X159971913Y-201852669D01*
X159890950Y-201865492D01*
X159878127Y-201867523D01*
X159765089Y-201925119D01*
X159765088Y-201925120D01*
X159765083Y-201925123D01*
X159675385Y-202014821D01*
X159675382Y-202014826D01*
X159617783Y-202127867D01*
X159602931Y-202221644D01*
X159602931Y-204084686D01*
X159612505Y-204145134D01*
X159617785Y-204178473D01*
X159675381Y-204291511D01*
X159675383Y-204291513D01*
X159675385Y-204291516D01*
X159765083Y-204381214D01*
X159765085Y-204381215D01*
X159765089Y-204381219D01*
X159869007Y-204434168D01*
X159878129Y-204438816D01*
X159971906Y-204453668D01*
X159971912Y-204453669D01*
X161834949Y-204453668D01*
X161928735Y-204438815D01*
X161937857Y-204434167D01*
X162006521Y-204421270D01*
X162071262Y-204447544D01*
X162111521Y-204504649D01*
X162114516Y-204574454D01*
X162081832Y-204632332D01*
X160695815Y-206018350D01*
X160634492Y-206051835D01*
X160608134Y-206054669D01*
X158454900Y-206054669D01*
X158454884Y-206054668D01*
X158447288Y-206054668D01*
X158289174Y-206054668D01*
X158181818Y-206083434D01*
X158136441Y-206095593D01*
X158136440Y-206095594D01*
X158086327Y-206124528D01*
X158086326Y-206124529D01*
X158042920Y-206149589D01*
X157999516Y-206174648D01*
X157999513Y-206174650D01*
X156642912Y-207531251D01*
X156642910Y-207531254D01*
X156592792Y-207618063D01*
X156592790Y-207618065D01*
X156563856Y-207668178D01*
X156563855Y-207668179D01*
X156563854Y-207668184D01*
X156522930Y-207820912D01*
X156522930Y-207820914D01*
X156522930Y-207989015D01*
X156522931Y-207989028D01*
X156522931Y-208058669D01*
X156503246Y-208125708D01*
X156450442Y-208171463D01*
X156398932Y-208182669D01*
X156191913Y-208182669D01*
X156110950Y-208195492D01*
X156098127Y-208197523D01*
X155985089Y-208255119D01*
X155985088Y-208255120D01*
X155985083Y-208255123D01*
X155895385Y-208344821D01*
X155895382Y-208344826D01*
X155837783Y-208457867D01*
X155822931Y-208551644D01*
X155822931Y-210414686D01*
X155831445Y-210468440D01*
X155837785Y-210508473D01*
X155895381Y-210621511D01*
X155895383Y-210621513D01*
X155895385Y-210621516D01*
X155985083Y-210711214D01*
X155985085Y-210711215D01*
X155985089Y-210711219D01*
X156077473Y-210758291D01*
X156098129Y-210768816D01*
X156191906Y-210783668D01*
X156191912Y-210783669D01*
X156398931Y-210783668D01*
X156465970Y-210803352D01*
X156511725Y-210856156D01*
X156522931Y-210907668D01*
X156522931Y-214273071D01*
X156514286Y-214302511D01*
X156507763Y-214332498D01*
X156504008Y-214337513D01*
X156503246Y-214340110D01*
X156486612Y-214360752D01*
X156328273Y-214519091D01*
X156266950Y-214552576D01*
X156202274Y-214549341D01*
X156187965Y-214544692D01*
X156187959Y-214544691D01*
X155985783Y-214512669D01*
X155781079Y-214512669D01*
X155756760Y-214516520D01*
X155578896Y-214544691D01*
X155384207Y-214607950D01*
X155201817Y-214700884D01*
X155036217Y-214821197D01*
X154891463Y-214965951D01*
X154891459Y-214965956D01*
X154868248Y-214997904D01*
X154812918Y-215040570D01*
X154743305Y-215046549D01*
X154681510Y-215013943D01*
X154647153Y-214953105D01*
X154643930Y-214925019D01*
X154643930Y-214881651D01*
X154643929Y-214881644D01*
X154629077Y-214787865D01*
X154571481Y-214674827D01*
X154571477Y-214674823D01*
X154571476Y-214674821D01*
X154481778Y-214585123D01*
X154481775Y-214585121D01*
X154481773Y-214585119D01*
X154402429Y-214544691D01*
X154368732Y-214527521D01*
X154274955Y-214512669D01*
X154274950Y-214512669D01*
X154067931Y-214512669D01*
X154059245Y-214510118D01*
X154050284Y-214511407D01*
X154026243Y-214500428D01*
X154000892Y-214492984D01*
X153994964Y-214486143D01*
X153986728Y-214482382D01*
X153972438Y-214460147D01*
X153955137Y-214440180D01*
X153952849Y-214429665D01*
X153948954Y-214423604D01*
X153943931Y-214388669D01*
X153943931Y-214139066D01*
X153963616Y-214072027D01*
X153980250Y-214051385D01*
X154424457Y-213607178D01*
X154911751Y-213119885D01*
X154990808Y-212982953D01*
X155031732Y-212830226D01*
X155031732Y-212672111D01*
X155031732Y-212664516D01*
X155031731Y-212664498D01*
X155031731Y-206066266D01*
X155051416Y-205999227D01*
X155068050Y-205978585D01*
X158392685Y-202653950D01*
X161769751Y-199276885D01*
X161848808Y-199139953D01*
X161889732Y-198987226D01*
X161889732Y-198829111D01*
X161889732Y-198821516D01*
X161889731Y-198821498D01*
X161889731Y-194001265D01*
X161909416Y-193934226D01*
X161926045Y-193913589D01*
X166991944Y-188847690D01*
X166991947Y-188847689D01*
X167103751Y-188735885D01*
X167153870Y-188649073D01*
X167182808Y-188598954D01*
X167223731Y-188446226D01*
X167223731Y-188288112D01*
X167223731Y-177902164D01*
X169470919Y-177902164D01*
X169497838Y-178037491D01*
X169497841Y-178037501D01*
X169550641Y-178164973D01*
X169550648Y-178164986D01*
X169627305Y-178279710D01*
X169627308Y-178279714D01*
X169724874Y-178377280D01*
X169724878Y-178377283D01*
X169839602Y-178453940D01*
X169839615Y-178453947D01*
X169967087Y-178506747D01*
X169967092Y-178506749D01*
X169967096Y-178506749D01*
X169967097Y-178506750D01*
X170102424Y-178533669D01*
X170102427Y-178533669D01*
X170240415Y-178533669D01*
X170335379Y-178514779D01*
X170375748Y-178506749D01*
X170503231Y-178453944D01*
X170617962Y-178377283D01*
X170715534Y-178279711D01*
X170792195Y-178164980D01*
X170793782Y-178161150D01*
X170823923Y-178088381D01*
X170845000Y-178037497D01*
X170853809Y-177993210D01*
X170871920Y-177902164D01*
X170871920Y-177764173D01*
X170845001Y-177628846D01*
X170845000Y-177628845D01*
X170845000Y-177628841D01*
X170843418Y-177625021D01*
X170792198Y-177501364D01*
X170792191Y-177501351D01*
X170742018Y-177426262D01*
X170721140Y-177359584D01*
X170721120Y-177357371D01*
X170721120Y-175386242D01*
X170740805Y-175319203D01*
X170757434Y-175298566D01*
X172137049Y-173918950D01*
X172137054Y-173918947D01*
X172147257Y-173908743D01*
X172147259Y-173908743D01*
X172259063Y-173796939D01*
X172326279Y-173680517D01*
X172338120Y-173660008D01*
X172379043Y-173507281D01*
X172379043Y-173349166D01*
X172379043Y-164188820D01*
X172398728Y-164121781D01*
X172451532Y-164076026D01*
X172503043Y-164064820D01*
X172919229Y-164064820D01*
X172919237Y-164064820D01*
X172956112Y-164061918D01*
X172956114Y-164061917D01*
X172956116Y-164061917D01*
X173010058Y-164046245D01*
X173113941Y-164016064D01*
X173255408Y-163932401D01*
X173371624Y-163816185D01*
X173455287Y-163674718D01*
X173501141Y-163516889D01*
X173504043Y-163480014D01*
X173504043Y-162548626D01*
X173501141Y-162511751D01*
X173498443Y-162502466D01*
X173455288Y-162353926D01*
X173455287Y-162353923D01*
X173455287Y-162353922D01*
X173371624Y-162212455D01*
X173371622Y-162212453D01*
X173371619Y-162212449D01*
X173255413Y-162096243D01*
X173255405Y-162096237D01*
X173113939Y-162012575D01*
X173113936Y-162012574D01*
X172956116Y-161966722D01*
X172956110Y-161966721D01*
X172919244Y-161963820D01*
X172919237Y-161963820D01*
X170637849Y-161963820D01*
X170637841Y-161963820D01*
X170600975Y-161966721D01*
X170600969Y-161966722D01*
X170443149Y-162012574D01*
X170443146Y-162012575D01*
X170301680Y-162096237D01*
X170301672Y-162096243D01*
X170185466Y-162212449D01*
X170185460Y-162212457D01*
X170101798Y-162353923D01*
X170101797Y-162353926D01*
X170055945Y-162511746D01*
X170055944Y-162511752D01*
X170053043Y-162548618D01*
X170053043Y-163480021D01*
X170055944Y-163516887D01*
X170055945Y-163516889D01*
X170101797Y-163674713D01*
X170101798Y-163674716D01*
X170185460Y-163816182D01*
X170185466Y-163816190D01*
X170301672Y-163932396D01*
X170301676Y-163932399D01*
X170301678Y-163932401D01*
X170443145Y-164016064D01*
X170484767Y-164028156D01*
X170600969Y-164061917D01*
X170600972Y-164061917D01*
X170600974Y-164061918D01*
X170637849Y-164064820D01*
X171054043Y-164064820D01*
X171121082Y-164084505D01*
X171166837Y-164137309D01*
X171178043Y-164188820D01*
X171178043Y-173128125D01*
X171158358Y-173195164D01*
X171141724Y-173215806D01*
X169640101Y-174717428D01*
X169640097Y-174717433D01*
X169615574Y-174759911D01*
X169615573Y-174759913D01*
X169561043Y-174854361D01*
X169520119Y-175007089D01*
X169520119Y-175007091D01*
X169520119Y-175175192D01*
X169520120Y-175175205D01*
X169520120Y-177550387D01*
X169518721Y-177557417D01*
X169516781Y-177578970D01*
X169514488Y-177588647D01*
X169497840Y-177628841D01*
X169470920Y-177764176D01*
X169470920Y-177902162D01*
X169470920Y-177902164D01*
X169470919Y-177902164D01*
X167223731Y-177902164D01*
X167223731Y-171494938D01*
X167241977Y-171432796D01*
X167241137Y-171432347D01*
X167243295Y-171428309D01*
X167243416Y-171427899D01*
X167243952Y-171427079D01*
X167244002Y-171426985D01*
X167244006Y-171426980D01*
X167296811Y-171299497D01*
X167323731Y-171164162D01*
X167323731Y-171026176D01*
X167323731Y-171026173D01*
X167296812Y-170890846D01*
X167296811Y-170890845D01*
X167296811Y-170890841D01*
X167268112Y-170821555D01*
X167244009Y-170763364D01*
X167244002Y-170763351D01*
X167167345Y-170648627D01*
X167167342Y-170648623D01*
X167069776Y-170551057D01*
X167069772Y-170551054D01*
X166955048Y-170474397D01*
X166955035Y-170474390D01*
X166827563Y-170421590D01*
X166827553Y-170421587D01*
X166692226Y-170394669D01*
X166692224Y-170394669D01*
X166554238Y-170394669D01*
X166554236Y-170394669D01*
X166418908Y-170421587D01*
X166418898Y-170421590D01*
X166291426Y-170474390D01*
X166291413Y-170474397D01*
X166176689Y-170551054D01*
X166176685Y-170551057D01*
X166079119Y-170648623D01*
X166079116Y-170648627D01*
X166002459Y-170763351D01*
X166002452Y-170763364D01*
X165949652Y-170890836D01*
X165949649Y-170890846D01*
X165922731Y-171026173D01*
X165922731Y-171026176D01*
X165922731Y-171164162D01*
X165922731Y-171164164D01*
X165922730Y-171164164D01*
X165949649Y-171299491D01*
X165949652Y-171299501D01*
X166002453Y-171426975D01*
X166005325Y-171432347D01*
X166004023Y-171433043D01*
X166022711Y-171492723D01*
X166022731Y-171494938D01*
X166022731Y-188067071D01*
X166003046Y-188134110D01*
X165986412Y-188154752D01*
X160808712Y-193332451D01*
X160808710Y-193332454D01*
X160766068Y-193406314D01*
X160766067Y-193406315D01*
X160729654Y-193469383D01*
X160729654Y-193469384D01*
X160688730Y-193622112D01*
X160688730Y-193622114D01*
X160688730Y-193790215D01*
X160688731Y-193790228D01*
X160688731Y-198608071D01*
X160669046Y-198675110D01*
X160652412Y-198695752D01*
X153950712Y-205397451D01*
X153950710Y-205397454D01*
X153900592Y-205484263D01*
X153900590Y-205484265D01*
X153871656Y-205534378D01*
X153871655Y-205534379D01*
X153871654Y-205534384D01*
X153830730Y-205687112D01*
X153830730Y-205687114D01*
X153830730Y-205855215D01*
X153830731Y-205855228D01*
X153830731Y-212451071D01*
X153811046Y-212518110D01*
X153794412Y-212538752D01*
X152862912Y-213470251D01*
X152862910Y-213470254D01*
X152812792Y-213557063D01*
X152812790Y-213557065D01*
X152783856Y-213607178D01*
X152783855Y-213607179D01*
X152783854Y-213607184D01*
X152742930Y-213759912D01*
X152742930Y-213759914D01*
X152742930Y-213928015D01*
X152742931Y-213928028D01*
X152742931Y-214388669D01*
X152723246Y-214455708D01*
X152670442Y-214501463D01*
X152618932Y-214512669D01*
X152411913Y-214512669D01*
X152330950Y-214525492D01*
X152318127Y-214527523D01*
X152205089Y-214585119D01*
X152205088Y-214585120D01*
X152205083Y-214585123D01*
X152115385Y-214674821D01*
X152115382Y-214674826D01*
X152057783Y-214787867D01*
X152042931Y-214881644D01*
X151602731Y-214881644D01*
X151602731Y-213559265D01*
X151622416Y-213492226D01*
X151639045Y-213471589D01*
X152884737Y-212225896D01*
X152884742Y-212225893D01*
X152894945Y-212215689D01*
X152894947Y-212215689D01*
X153006751Y-212103885D01*
X153085808Y-211966953D01*
X153115765Y-211855150D01*
X153126731Y-211814227D01*
X153126731Y-211656112D01*
X153126731Y-204669265D01*
X153146416Y-204602226D01*
X153163045Y-204581589D01*
X158472737Y-199271896D01*
X158472742Y-199271893D01*
X158482945Y-199261689D01*
X158482947Y-199261689D01*
X158594751Y-199149885D01*
X158673808Y-199012953D01*
X158714731Y-198860226D01*
X158714731Y-192858265D01*
X158734416Y-192791226D01*
X158751045Y-192770589D01*
X163044737Y-188476896D01*
X163044742Y-188476893D01*
X163054945Y-188466689D01*
X163054947Y-188466689D01*
X163166751Y-188354885D01*
X163245808Y-188217953D01*
X163286731Y-188065226D01*
X163286731Y-169567715D01*
X163304977Y-169505573D01*
X163304137Y-169505124D01*
X163306295Y-169501086D01*
X163306416Y-169500676D01*
X163306952Y-169499856D01*
X163307002Y-169499762D01*
X163307006Y-169499757D01*
X163359811Y-169372274D01*
X163375191Y-169294954D01*
X163386731Y-169236941D01*
X163386731Y-169098950D01*
X163359812Y-168963623D01*
X163359811Y-168963622D01*
X163359811Y-168963618D01*
X163328966Y-168889151D01*
X163307009Y-168836141D01*
X163307002Y-168836128D01*
X163230345Y-168721404D01*
X163230342Y-168721400D01*
X163132776Y-168623834D01*
X163132772Y-168623831D01*
X163018048Y-168547174D01*
X163018035Y-168547167D01*
X162890563Y-168494367D01*
X162890553Y-168494364D01*
X162755226Y-168467446D01*
X162755224Y-168467446D01*
X162617238Y-168467446D01*
X162617236Y-168467446D01*
X162481908Y-168494364D01*
X162481898Y-168494367D01*
X162354426Y-168547167D01*
X162354413Y-168547174D01*
X162239689Y-168623831D01*
X162239685Y-168623834D01*
X162142119Y-168721400D01*
X162142116Y-168721404D01*
X162065459Y-168836128D01*
X162065452Y-168836141D01*
X162012652Y-168963613D01*
X162012649Y-168963623D01*
X161985731Y-169098950D01*
X161985731Y-169098953D01*
X161985731Y-169236939D01*
X161985731Y-169236941D01*
X161985730Y-169236941D01*
X162012649Y-169372268D01*
X162012652Y-169372278D01*
X162065453Y-169499752D01*
X162068325Y-169505124D01*
X162067023Y-169505820D01*
X162085711Y-169565500D01*
X162085731Y-169567715D01*
X162085731Y-187686071D01*
X162066046Y-187753110D01*
X162049412Y-187773752D01*
X157633712Y-192189451D01*
X157633710Y-192189454D01*
X157619256Y-192214490D01*
X157597512Y-192252153D01*
X157583592Y-192276263D01*
X157583590Y-192276265D01*
X157554656Y-192326378D01*
X157554655Y-192326379D01*
X157554654Y-192326384D01*
X157513730Y-192479112D01*
X157513730Y-192479114D01*
X157513730Y-192647215D01*
X157513731Y-192647228D01*
X157513731Y-198481071D01*
X157494046Y-198548110D01*
X157477412Y-198568752D01*
X152045712Y-204000451D01*
X152045710Y-204000453D01*
X152024657Y-204036919D01*
X152015758Y-204052334D01*
X151966654Y-204137384D01*
X151925730Y-204290112D01*
X151925730Y-204290114D01*
X151925730Y-204458215D01*
X151925731Y-204458228D01*
X151925731Y-211435071D01*
X151906046Y-211502110D01*
X151889412Y-211522752D01*
X150521712Y-212890451D01*
X150521710Y-212890454D01*
X150471592Y-212977263D01*
X150471590Y-212977265D01*
X150442656Y-213027378D01*
X150442655Y-213027379D01*
X150442654Y-213027384D01*
X150401730Y-213180112D01*
X150401730Y-213180114D01*
X150401730Y-213348215D01*
X150401731Y-213348228D01*
X150401731Y-218252499D01*
X150401730Y-218252517D01*
X150401730Y-218418223D01*
X150401729Y-218418223D01*
X150442654Y-218570955D01*
X150442655Y-218570956D01*
X150463080Y-218606333D01*
X150521712Y-218707886D01*
X150640580Y-218826754D01*
X150640586Y-218826759D01*
X151466612Y-219652785D01*
X151500097Y-219714108D01*
X151502931Y-219740466D01*
X151502931Y-220913566D01*
X151483246Y-220980605D01*
X151435231Y-221024048D01*
X151421820Y-221030881D01*
X151256217Y-221151197D01*
X151111463Y-221295951D01*
X151111459Y-221295956D01*
X151088248Y-221327904D01*
X151032918Y-221370570D01*
X150963305Y-221376549D01*
X150901510Y-221343943D01*
X150867153Y-221283105D01*
X150863930Y-221255019D01*
X150863930Y-221211651D01*
X150863929Y-221211644D01*
X150849077Y-221117865D01*
X150791481Y-221004827D01*
X150791477Y-221004823D01*
X150791476Y-221004821D01*
X150701778Y-220915123D01*
X150701775Y-220915121D01*
X150701773Y-220915119D01*
X150599928Y-220863226D01*
X150588732Y-220857521D01*
X150494955Y-220842669D01*
X150494950Y-220842669D01*
X150149161Y-220842669D01*
X150082122Y-220822984D01*
X150050412Y-220789731D01*
X150048901Y-220790892D01*
X150043949Y-220784439D01*
X148770211Y-219510701D01*
X148736726Y-219449378D01*
X148733892Y-219423020D01*
X148733892Y-218029654D01*
X148753577Y-217962615D01*
X148770211Y-217941973D01*
X149711663Y-217000520D01*
X149711666Y-217000517D01*
X149747272Y-216951511D01*
X149767480Y-216923698D01*
X149806684Y-216803041D01*
X149806684Y-216676175D01*
X149767480Y-216555518D01*
X149723351Y-216494779D01*
X149711671Y-216478702D01*
X149711669Y-216478700D01*
X148394304Y-215161336D01*
X148394301Y-215161333D01*
X148317483Y-215105520D01*
X148196826Y-215066316D01*
X148196825Y-215066316D01*
X148069959Y-215066316D01*
X148069957Y-215066316D01*
X147949302Y-215105520D01*
X147949300Y-215105521D01*
X147872486Y-215161328D01*
X147872484Y-215161330D01*
X146988412Y-216045403D01*
X146968975Y-216056015D01*
X146952242Y-216070516D01*
X146938910Y-216072432D01*
X146927089Y-216078888D01*
X146905002Y-216077308D01*
X146883084Y-216080460D01*
X146870832Y-216074864D01*
X146857397Y-216073904D01*
X146839670Y-216060633D01*
X146819528Y-216051435D01*
X146812245Y-216040103D01*
X146801464Y-216032032D01*
X146793726Y-216011286D01*
X146781754Y-215992657D01*
X146778602Y-215970738D01*
X146777047Y-215966568D01*
X146776731Y-215957722D01*
X146776731Y-215954426D01*
X146796416Y-215887387D01*
X146813045Y-215866750D01*
X149691898Y-212987896D01*
X149691903Y-212987893D01*
X149702106Y-212977689D01*
X149702108Y-212977689D01*
X149813912Y-212865885D01*
X149834501Y-212830224D01*
X149864277Y-212778650D01*
X149892967Y-212728957D01*
X149892966Y-212728957D01*
X149892969Y-212728954D01*
X149933893Y-212576226D01*
X149933893Y-212418112D01*
X149933893Y-212410517D01*
X149933892Y-212410499D01*
X149933892Y-210809654D01*
X149953577Y-210742615D01*
X149970211Y-210721973D01*
X150911663Y-209780520D01*
X150911666Y-209780517D01*
X150967479Y-209703699D01*
X150967478Y-209703699D01*
X150967480Y-209703698D01*
X151006684Y-209583041D01*
X151006684Y-209456175D01*
X150967480Y-209335518D01*
X150945155Y-209304790D01*
X150911671Y-209258702D01*
X150911669Y-209258700D01*
X149594304Y-207941336D01*
X149594301Y-207941333D01*
X149517483Y-207885520D01*
X149423522Y-207854990D01*
X149365847Y-207815552D01*
X149338649Y-207751193D01*
X149337841Y-207737059D01*
X149337841Y-205325260D01*
X149357526Y-205258221D01*
X149405547Y-205214775D01*
X149418951Y-205207946D01*
X149584560Y-205087625D01*
X149729307Y-204942878D01*
X149729309Y-204942874D01*
X149729312Y-204942872D01*
X149782073Y-204870249D01*
X149849628Y-204777269D01*
X149942561Y-204594878D01*
X150005818Y-204400193D01*
X150037841Y-204198011D01*
X150037841Y-203993307D01*
X150031661Y-203954291D01*
X150040615Y-203885002D01*
X150085610Y-203831550D01*
X150152361Y-203810909D01*
X150219675Y-203829633D01*
X150241815Y-203847215D01*
X150272482Y-203877882D01*
X150349300Y-203933695D01*
X150349301Y-203933695D01*
X150349302Y-203933696D01*
X150469959Y-203972900D01*
X150469960Y-203972900D01*
X150596824Y-203972900D01*
X150596825Y-203972900D01*
X150717482Y-203933696D01*
X150794301Y-203877884D01*
X152111666Y-202560517D01*
X152167480Y-202483698D01*
X152206684Y-202363041D01*
X152206684Y-202236175D01*
X152167480Y-202115518D01*
X152145155Y-202084790D01*
X152111671Y-202038702D01*
X151965282Y-201892313D01*
X151931797Y-201830990D01*
X151936781Y-201761298D01*
X151965280Y-201716953D01*
X154976051Y-198706185D01*
X155055108Y-198569253D01*
X155096032Y-198416526D01*
X155096032Y-198258411D01*
X155096032Y-198250816D01*
X155096031Y-198250798D01*
X155096031Y-192920965D01*
X155115716Y-192853926D01*
X155132345Y-192833289D01*
X160250737Y-187714896D01*
X160250742Y-187714893D01*
X160260945Y-187704689D01*
X160260947Y-187704689D01*
X160372751Y-187592885D01*
X160451808Y-187455953D01*
X160492731Y-187303226D01*
X160492731Y-178440853D01*
X160512416Y-178373814D01*
X160529045Y-178353176D01*
X160606334Y-178275888D01*
X160682995Y-178161157D01*
X160735800Y-178033674D01*
X160758356Y-177920278D01*
X160762720Y-177898341D01*
X160762720Y-177760350D01*
X160735801Y-177625023D01*
X160735800Y-177625022D01*
X160735800Y-177625018D01*
X160735798Y-177625013D01*
X160682998Y-177497541D01*
X160682991Y-177497528D01*
X160606334Y-177382804D01*
X160606331Y-177382800D01*
X160508765Y-177285234D01*
X160508761Y-177285231D01*
X160394037Y-177208574D01*
X160394024Y-177208567D01*
X160266552Y-177155767D01*
X160266542Y-177155764D01*
X160131215Y-177128846D01*
X160131213Y-177128846D01*
X159993227Y-177128846D01*
X159993225Y-177128846D01*
X159857897Y-177155764D01*
X159857887Y-177155767D01*
X159730415Y-177208567D01*
X159730402Y-177208574D01*
X159615678Y-177285231D01*
X159615674Y-177285234D01*
X159518108Y-177382800D01*
X159518105Y-177382804D01*
X159441448Y-177497528D01*
X159441441Y-177497541D01*
X159388640Y-177625015D01*
X159388638Y-177625021D01*
X159378806Y-177674452D01*
X159377607Y-177677635D01*
X159377696Y-177679485D01*
X159364580Y-177712252D01*
X159361595Y-177717423D01*
X159361590Y-177717431D01*
X159332656Y-177767544D01*
X159332655Y-177767545D01*
X159316775Y-177826807D01*
X159291730Y-177920278D01*
X159291730Y-177920280D01*
X159291730Y-178088381D01*
X159291731Y-178088394D01*
X159291731Y-186924071D01*
X159272046Y-186991110D01*
X159255412Y-187011752D01*
X154015012Y-192252151D01*
X154015010Y-192252153D01*
X154001090Y-192276265D01*
X153991113Y-192293546D01*
X153935954Y-192389084D01*
X153895030Y-192541812D01*
X153895030Y-192541814D01*
X153895030Y-192709915D01*
X153895031Y-192709928D01*
X153895031Y-198037371D01*
X153875346Y-198104410D01*
X153858712Y-198125052D01*
X151116046Y-200867717D01*
X151054723Y-200901202D01*
X150985031Y-200896218D01*
X150940685Y-200867718D01*
X150794301Y-200721334D01*
X150794298Y-200721331D01*
X150717483Y-200665520D01*
X150596826Y-200626316D01*
X150596825Y-200626316D01*
X150469959Y-200626316D01*
X150469957Y-200626316D01*
X150349302Y-200665520D01*
X150349300Y-200665521D01*
X150272486Y-200721328D01*
X150272484Y-200721330D01*
X149274412Y-201719403D01*
X149213089Y-201752888D01*
X149143397Y-201747904D01*
X149087464Y-201706032D01*
X149063047Y-201640568D01*
X149062731Y-201631722D01*
X149062731Y-201367265D01*
X149082416Y-201300226D01*
X149099045Y-201279589D01*
X152091898Y-198286735D01*
X152091903Y-198286732D01*
X152102106Y-198276528D01*
X152102108Y-198276528D01*
X152213912Y-198164724D01*
X152279444Y-198051219D01*
X152292969Y-198027793D01*
X152333892Y-197875066D01*
X152333892Y-197716951D01*
X152333892Y-196369654D01*
X152353577Y-196302615D01*
X152370211Y-196281973D01*
X153311663Y-195340520D01*
X153311666Y-195340517D01*
X153367479Y-195263699D01*
X153367478Y-195263699D01*
X153367480Y-195263698D01*
X153406684Y-195143041D01*
X153406684Y-195016175D01*
X153367480Y-194895518D01*
X153331495Y-194845988D01*
X153311671Y-194818702D01*
X153311669Y-194818700D01*
X151994304Y-193501336D01*
X151994301Y-193501333D01*
X151917483Y-193445520D01*
X151823522Y-193414990D01*
X151765847Y-193375552D01*
X151738649Y-193311193D01*
X151737841Y-193297059D01*
X151737841Y-190885260D01*
X151757526Y-190818221D01*
X151805547Y-190774775D01*
X151818951Y-190767946D01*
X151984560Y-190647625D01*
X152129307Y-190502878D01*
X152129309Y-190502874D01*
X152129312Y-190502872D01*
X152210723Y-190390817D01*
X152249628Y-190337269D01*
X152342561Y-190154878D01*
X152405818Y-189960193D01*
X152437841Y-189758011D01*
X152437841Y-189553307D01*
X152431661Y-189514291D01*
X152440615Y-189445002D01*
X152485610Y-189391550D01*
X152552361Y-189370909D01*
X152619675Y-189389633D01*
X152641815Y-189407215D01*
X152672482Y-189437882D01*
X152749300Y-189493695D01*
X152749301Y-189493695D01*
X152749302Y-189493696D01*
X152869959Y-189532900D01*
X152869960Y-189532900D01*
X152996824Y-189532900D01*
X152996825Y-189532900D01*
X153117482Y-189493696D01*
X153194301Y-189437884D01*
X154511666Y-188120517D01*
X154567480Y-188043698D01*
X154606684Y-187923041D01*
X154606684Y-187796175D01*
X154567480Y-187675518D01*
X154545155Y-187644790D01*
X154511671Y-187598702D01*
X154415482Y-187502513D01*
X154381997Y-187441190D01*
X154386981Y-187371498D01*
X154415480Y-187327153D01*
X157423526Y-184319108D01*
X157423531Y-184319104D01*
X157433734Y-184308900D01*
X157433736Y-184308900D01*
X157545540Y-184197096D01*
X157549181Y-184190787D01*
X157613489Y-184079405D01*
X157613490Y-184079402D01*
X157624597Y-184060165D01*
X157665520Y-183907438D01*
X157665520Y-183749323D01*
X157665520Y-181327915D01*
X157683766Y-181265773D01*
X157682926Y-181265324D01*
X157685084Y-181261286D01*
X157685205Y-181260876D01*
X157685741Y-181260056D01*
X157685791Y-181259962D01*
X157685795Y-181259957D01*
X157738600Y-181132474D01*
X157765520Y-180997139D01*
X157765520Y-180859153D01*
X157765520Y-180859150D01*
X157738601Y-180723823D01*
X157738600Y-180723822D01*
X157738600Y-180723818D01*
X157712892Y-180661753D01*
X157685798Y-180596341D01*
X157685791Y-180596328D01*
X157609134Y-180481604D01*
X157609131Y-180481600D01*
X157511565Y-180384034D01*
X157511561Y-180384031D01*
X157396837Y-180307374D01*
X157396824Y-180307367D01*
X157269352Y-180254567D01*
X157269342Y-180254564D01*
X157134015Y-180227646D01*
X157134013Y-180227646D01*
X156996027Y-180227646D01*
X156996025Y-180227646D01*
X156860697Y-180254564D01*
X156860687Y-180254567D01*
X156733215Y-180307367D01*
X156733202Y-180307374D01*
X156618478Y-180384031D01*
X156618474Y-180384034D01*
X156520908Y-180481600D01*
X156520905Y-180481604D01*
X156444248Y-180596328D01*
X156444241Y-180596341D01*
X156391441Y-180723813D01*
X156391438Y-180723823D01*
X156364520Y-180859150D01*
X156364520Y-180859153D01*
X156364520Y-180997139D01*
X156364520Y-180997141D01*
X156364519Y-180997141D01*
X156391438Y-181132468D01*
X156391441Y-181132478D01*
X156444242Y-181259952D01*
X156447114Y-181265324D01*
X156445812Y-181266020D01*
X156464500Y-181325700D01*
X156464520Y-181327915D01*
X156464520Y-183528282D01*
X156444835Y-183595321D01*
X156428201Y-183615963D01*
X153566246Y-186477917D01*
X153504923Y-186511402D01*
X153435231Y-186506418D01*
X153390885Y-186477918D01*
X153194301Y-186281334D01*
X153194298Y-186281331D01*
X153117483Y-186225520D01*
X152996826Y-186186316D01*
X152996825Y-186186316D01*
X152869959Y-186186316D01*
X152869955Y-186186316D01*
X152825476Y-186200769D01*
X152755635Y-186202764D01*
X152695802Y-186166684D01*
X152664974Y-186103983D01*
X152672939Y-186034569D01*
X152699475Y-185995158D01*
X154491898Y-184202735D01*
X154491903Y-184202732D01*
X154502106Y-184192528D01*
X154502108Y-184192528D01*
X154613912Y-184080724D01*
X154692969Y-183943792D01*
X154733892Y-183791065D01*
X154733892Y-181929654D01*
X154753577Y-181862615D01*
X154770211Y-181841973D01*
X155711663Y-180900520D01*
X155711666Y-180900517D01*
X155711671Y-180900510D01*
X155767480Y-180823698D01*
X155806684Y-180703041D01*
X155806684Y-180576175D01*
X155767480Y-180455518D01*
X155745155Y-180424790D01*
X155711671Y-180378702D01*
X155711669Y-180378700D01*
X154394304Y-179061336D01*
X154394301Y-179061333D01*
X154317483Y-179005520D01*
X154223522Y-178974990D01*
X154165847Y-178935552D01*
X154138649Y-178871193D01*
X154137841Y-178857059D01*
X154137841Y-176445260D01*
X154157526Y-176378221D01*
X154205547Y-176334775D01*
X154218951Y-176327946D01*
X154384560Y-176207625D01*
X154529307Y-176062878D01*
X154529309Y-176062874D01*
X154529312Y-176062872D01*
X154594792Y-175972745D01*
X154649628Y-175897269D01*
X154742561Y-175714878D01*
X154805818Y-175520193D01*
X154837841Y-175318011D01*
X154837841Y-175113307D01*
X154831661Y-175074291D01*
X154840615Y-175005002D01*
X154885610Y-174951550D01*
X154952361Y-174930909D01*
X155019675Y-174949633D01*
X155041815Y-174967215D01*
X155072482Y-174997882D01*
X155149300Y-175053695D01*
X155149301Y-175053695D01*
X155149302Y-175053696D01*
X155269959Y-175092900D01*
X155269960Y-175092900D01*
X155396824Y-175092900D01*
X155396825Y-175092900D01*
X155517482Y-175053696D01*
X155594301Y-174997884D01*
X156911666Y-173680517D01*
X156911668Y-173680515D01*
X156967479Y-173603699D01*
X156967478Y-173603699D01*
X156967480Y-173603698D01*
X157006684Y-173483041D01*
X157006684Y-173356175D01*
X156967480Y-173235518D01*
X156926772Y-173179488D01*
X156911671Y-173158702D01*
X156911669Y-173158700D01*
X155594304Y-171841336D01*
X155594301Y-171841333D01*
X155517483Y-171785520D01*
X155396826Y-171746316D01*
X155396825Y-171746316D01*
X155269959Y-171746316D01*
X155269957Y-171746316D01*
X155149302Y-171785520D01*
X155149300Y-171785521D01*
X155072486Y-171841328D01*
X155072484Y-171841330D01*
X154262492Y-172651323D01*
X154243055Y-172661935D01*
X154226322Y-172676436D01*
X154212990Y-172678352D01*
X154201169Y-172684808D01*
X154179082Y-172683228D01*
X154157164Y-172686380D01*
X154144912Y-172680784D01*
X154131477Y-172679824D01*
X154113750Y-172666553D01*
X154093608Y-172657355D01*
X154086325Y-172646023D01*
X154075544Y-172637952D01*
X154067806Y-172617206D01*
X154055834Y-172598577D01*
X154052682Y-172576658D01*
X154051127Y-172572488D01*
X154050811Y-172563642D01*
X154050811Y-172446346D01*
X154070496Y-172379307D01*
X154087130Y-172358665D01*
X155486671Y-170959124D01*
X156891898Y-169553897D01*
X156891903Y-169553893D01*
X156902106Y-169543689D01*
X156902108Y-169543689D01*
X157013912Y-169431885D01*
X157092263Y-169296175D01*
X157092277Y-169296161D01*
X157092273Y-169296159D01*
X157092968Y-169294955D01*
X157092969Y-169294954D01*
X157133892Y-169142227D01*
X157133892Y-168984112D01*
X157133892Y-167489654D01*
X157153577Y-167422615D01*
X157170211Y-167401973D01*
X157735757Y-166836427D01*
X157797080Y-166802942D01*
X157823438Y-166800108D01*
X162630475Y-166800108D01*
X162630477Y-166800108D01*
X162783204Y-166759185D01*
X162920136Y-166680128D01*
X163031940Y-166568324D01*
X163031942Y-166568321D01*
X163036886Y-166561878D01*
X163037600Y-166562426D01*
X163048212Y-166548587D01*
X164357726Y-165239074D01*
X164357731Y-165239070D01*
X164367934Y-165228866D01*
X164367936Y-165228866D01*
X164479740Y-165117062D01*
X164558797Y-164980130D01*
X164599720Y-164827403D01*
X164599720Y-164170246D01*
X164619405Y-164103207D01*
X164672209Y-164057452D01*
X164723720Y-164046246D01*
X165139906Y-164046246D01*
X165139914Y-164046246D01*
X165176789Y-164043344D01*
X165176791Y-164043343D01*
X165176793Y-164043343D01*
X165218411Y-164031251D01*
X165334618Y-163997490D01*
X165476085Y-163913827D01*
X165592301Y-163797611D01*
X165675964Y-163656144D01*
X165716422Y-163516887D01*
X165721817Y-163498319D01*
X165721818Y-163498313D01*
X165724720Y-163461440D01*
X165724720Y-162539332D01*
X166163382Y-162539332D01*
X166163382Y-163470735D01*
X166166283Y-163507601D01*
X166166284Y-163507607D01*
X166212136Y-163665427D01*
X166212137Y-163665430D01*
X166212138Y-163665432D01*
X166244854Y-163720752D01*
X166295799Y-163806896D01*
X166295805Y-163806904D01*
X166412011Y-163923110D01*
X166412015Y-163923113D01*
X166412017Y-163923115D01*
X166553484Y-164006778D01*
X166572226Y-164012223D01*
X166711308Y-164052631D01*
X166711311Y-164052631D01*
X166711313Y-164052632D01*
X166748188Y-164055534D01*
X167164382Y-164055534D01*
X167231421Y-164075219D01*
X167277176Y-164128023D01*
X167288382Y-164179534D01*
X167288382Y-168881538D01*
X167288381Y-168881556D01*
X167288381Y-169047262D01*
X167288380Y-169047262D01*
X167329306Y-169199996D01*
X167329818Y-169200882D01*
X167329841Y-169200921D01*
X167408359Y-169336920D01*
X167408363Y-169336925D01*
X167527231Y-169455793D01*
X167527237Y-169455798D01*
X168625004Y-170553565D01*
X168651884Y-170593792D01*
X168661645Y-170617358D01*
X168661646Y-170617359D01*
X168738302Y-170732083D01*
X168738308Y-170732091D01*
X168835874Y-170829657D01*
X168835878Y-170829660D01*
X168950602Y-170906317D01*
X168950615Y-170906324D01*
X169078087Y-170959124D01*
X169078092Y-170959126D01*
X169078096Y-170959126D01*
X169078097Y-170959127D01*
X169213424Y-170986046D01*
X169213427Y-170986046D01*
X169351415Y-170986046D01*
X169442461Y-170967935D01*
X169486748Y-170959126D01*
X169614231Y-170906321D01*
X169728962Y-170829660D01*
X169826534Y-170732088D01*
X169903195Y-170617357D01*
X169904164Y-170615019D01*
X169930658Y-170551055D01*
X169956000Y-170489874D01*
X169974938Y-170394669D01*
X169982920Y-170354541D01*
X169982920Y-170216550D01*
X169956001Y-170081223D01*
X169956000Y-170081222D01*
X169956000Y-170081218D01*
X169955998Y-170081213D01*
X169903198Y-169953741D01*
X169903191Y-169953728D01*
X169826534Y-169839004D01*
X169826531Y-169839000D01*
X169728965Y-169741434D01*
X169728961Y-169741431D01*
X169614237Y-169664774D01*
X169614224Y-169664767D01*
X169486752Y-169611967D01*
X169486742Y-169611964D01*
X169392725Y-169593263D01*
X169330814Y-169560878D01*
X169329236Y-169559327D01*
X168525701Y-168755792D01*
X168492216Y-168694469D01*
X168489382Y-168668111D01*
X168489382Y-164179534D01*
X168509067Y-164112495D01*
X168561871Y-164066740D01*
X168613382Y-164055534D01*
X169029568Y-164055534D01*
X169029576Y-164055534D01*
X169066451Y-164052632D01*
X169066453Y-164052631D01*
X169066455Y-164052631D01*
X169108073Y-164040539D01*
X169224280Y-164006778D01*
X169365747Y-163923115D01*
X169481963Y-163806899D01*
X169565626Y-163665432D01*
X169611480Y-163507603D01*
X169614382Y-163470728D01*
X169614382Y-162539340D01*
X169611480Y-162502465D01*
X169608780Y-162493172D01*
X169565627Y-162344640D01*
X169565626Y-162344637D01*
X169565626Y-162344636D01*
X169481963Y-162203169D01*
X169481961Y-162203167D01*
X169481958Y-162203163D01*
X169365752Y-162086957D01*
X169365744Y-162086951D01*
X169224278Y-162003289D01*
X169224275Y-162003288D01*
X169066455Y-161957436D01*
X169066449Y-161957435D01*
X169029583Y-161954534D01*
X169029576Y-161954534D01*
X166748188Y-161954534D01*
X166748180Y-161954534D01*
X166711314Y-161957435D01*
X166711308Y-161957436D01*
X166553488Y-162003288D01*
X166553485Y-162003289D01*
X166412019Y-162086951D01*
X166412011Y-162086957D01*
X166295805Y-162203163D01*
X166295799Y-162203171D01*
X166212137Y-162344637D01*
X166212136Y-162344640D01*
X166166284Y-162502460D01*
X166166283Y-162502466D01*
X166163382Y-162539332D01*
X165724720Y-162539332D01*
X165724720Y-162530052D01*
X165721818Y-162493177D01*
X165675964Y-162335348D01*
X165592301Y-162193881D01*
X165592299Y-162193879D01*
X165592296Y-162193875D01*
X165476090Y-162077669D01*
X165476082Y-162077663D01*
X165350323Y-162003290D01*
X165334618Y-161994002D01*
X165334617Y-161994001D01*
X165334616Y-161994001D01*
X165334613Y-161994000D01*
X165176793Y-161948148D01*
X165176787Y-161948147D01*
X165139921Y-161945246D01*
X165139914Y-161945246D01*
X162858526Y-161945246D01*
X162858518Y-161945246D01*
X162821652Y-161948147D01*
X162821646Y-161948148D01*
X162663826Y-161994000D01*
X162663823Y-161994001D01*
X162522357Y-162077663D01*
X162522349Y-162077669D01*
X162406143Y-162193875D01*
X162406137Y-162193883D01*
X162322475Y-162335349D01*
X162322474Y-162335352D01*
X162276622Y-162493172D01*
X162276621Y-162493178D01*
X162273720Y-162530044D01*
X162273720Y-163461447D01*
X162276621Y-163498313D01*
X162276622Y-163498319D01*
X162322474Y-163656139D01*
X162322475Y-163656142D01*
X162322476Y-163656144D01*
X162348477Y-163700110D01*
X162406137Y-163797608D01*
X162406143Y-163797616D01*
X162522349Y-163913822D01*
X162522353Y-163913825D01*
X162522355Y-163913827D01*
X162663822Y-163997490D01*
X162695791Y-164006778D01*
X162821646Y-164043343D01*
X162821649Y-164043343D01*
X162821651Y-164043344D01*
X162858526Y-164046246D01*
X163274720Y-164046246D01*
X163341759Y-164065931D01*
X163387514Y-164118735D01*
X163398720Y-164170246D01*
X163398720Y-164448249D01*
X163379035Y-164515288D01*
X163362401Y-164535930D01*
X162335542Y-165562789D01*
X162274219Y-165596274D01*
X162247861Y-165599108D01*
X157823438Y-165599108D01*
X157756399Y-165579423D01*
X157735757Y-165562789D01*
X156794301Y-164621333D01*
X156717483Y-164565520D01*
X156623522Y-164534990D01*
X156565847Y-164495552D01*
X156538649Y-164431193D01*
X156537841Y-164417059D01*
X156537841Y-162005260D01*
X156557526Y-161938221D01*
X156605547Y-161894775D01*
X156618951Y-161887946D01*
X156784560Y-161767625D01*
X156929307Y-161622878D01*
X156929309Y-161622874D01*
X156929312Y-161622872D01*
X156982073Y-161550249D01*
X157049628Y-161457269D01*
X157142561Y-161274878D01*
X157205818Y-161080193D01*
X157237841Y-160878011D01*
X157237841Y-160673307D01*
X157231661Y-160634291D01*
X157240615Y-160565002D01*
X157285610Y-160511550D01*
X157352361Y-160490909D01*
X157419675Y-160509633D01*
X157441815Y-160527215D01*
X157472482Y-160557882D01*
X157549300Y-160613695D01*
X157549301Y-160613695D01*
X157549302Y-160613696D01*
X157669959Y-160652900D01*
X157669960Y-160652900D01*
X157796824Y-160652900D01*
X157796825Y-160652900D01*
X157917482Y-160613696D01*
X157994301Y-160557884D01*
X158981745Y-159570439D01*
X159212250Y-159339934D01*
X159311663Y-159240520D01*
X159311666Y-159240517D01*
X159367479Y-159163699D01*
X159367478Y-159163699D01*
X159367480Y-159163698D01*
X159406684Y-159043041D01*
X159406684Y-158916175D01*
X159367480Y-158795518D01*
X159327012Y-158739818D01*
X159311671Y-158718702D01*
X159311669Y-158718700D01*
X157994304Y-157401336D01*
X157994301Y-157401333D01*
X157917483Y-157345520D01*
X157796826Y-157306316D01*
X157796825Y-157306316D01*
X157669959Y-157306316D01*
X157669957Y-157306316D01*
X157549302Y-157345520D01*
X157549300Y-157345521D01*
X157472486Y-157401328D01*
X157472484Y-157401330D01*
X156576912Y-158296903D01*
X156557475Y-158307515D01*
X156540742Y-158322016D01*
X156527410Y-158323932D01*
X156515589Y-158330388D01*
X156493502Y-158328808D01*
X156471584Y-158331960D01*
X156459332Y-158326364D01*
X156445897Y-158325404D01*
X156428170Y-158312133D01*
X156408028Y-158302935D01*
X156400745Y-158291603D01*
X156389964Y-158283532D01*
X156382226Y-158262786D01*
X156370254Y-158244157D01*
X156367102Y-158222238D01*
X156365547Y-158218068D01*
X156365231Y-158209222D01*
X156365231Y-157996765D01*
X156384916Y-157929726D01*
X156401545Y-157909089D01*
X159291898Y-155018735D01*
X159291903Y-155018732D01*
X159302106Y-155008528D01*
X159302108Y-155008528D01*
X159413912Y-154896724D01*
X159492969Y-154759792D01*
X159533892Y-154607065D01*
X159533892Y-153198421D01*
X162265050Y-153198421D01*
X162265050Y-153383370D01*
X162293983Y-153566043D01*
X162351134Y-153741937D01*
X162435103Y-153906733D01*
X162543805Y-154056350D01*
X162543809Y-154056355D01*
X162662233Y-154174779D01*
X163269860Y-153567152D01*
X163269860Y-153573367D01*
X163297119Y-153675100D01*
X163349780Y-153766312D01*
X163424254Y-153840786D01*
X163515466Y-153893447D01*
X163617199Y-153920706D01*
X163623412Y-153920706D01*
X163015786Y-154528331D01*
X163134212Y-154646758D01*
X163283836Y-154755465D01*
X163448632Y-154839433D01*
X163624522Y-154896582D01*
X163807196Y-154925516D01*
X163992144Y-154925516D01*
X164174817Y-154896582D01*
X164350710Y-154839431D01*
X164515506Y-154755462D01*
X164515513Y-154755458D01*
X164536099Y-154740500D01*
X164536100Y-154740499D01*
X163716306Y-153920706D01*
X163722521Y-153920706D01*
X163824254Y-153893447D01*
X163915466Y-153840786D01*
X163989940Y-153766312D01*
X164042601Y-153675100D01*
X164069860Y-153573367D01*
X164069860Y-153567152D01*
X164889653Y-154386946D01*
X164889654Y-154386945D01*
X164904612Y-154366359D01*
X164904616Y-154366352D01*
X164988585Y-154201556D01*
X165045736Y-154025663D01*
X165074670Y-153842990D01*
X165074670Y-153658042D01*
X165057387Y-153548925D01*
X165060732Y-153523032D01*
X165060222Y-153496926D01*
X165065138Y-153488936D01*
X165066341Y-153479632D01*
X165083156Y-153459656D01*
X165096840Y-153437420D01*
X165105295Y-153433356D01*
X165111337Y-153426180D01*
X165136279Y-153418467D01*
X165159815Y-153407158D01*
X165172968Y-153407123D01*
X165178089Y-153405540D01*
X165195103Y-153406467D01*
X165197180Y-153406724D01*
X165229240Y-153411802D01*
X165238174Y-153411802D01*
X165245763Y-153412742D01*
X165271086Y-153423713D01*
X165297559Y-153431487D01*
X165302687Y-153437405D01*
X165309874Y-153440519D01*
X165325245Y-153463438D01*
X165343314Y-153484291D01*
X165345274Y-153493304D01*
X165348791Y-153498547D01*
X165349025Y-153510546D01*
X165354520Y-153535802D01*
X165354520Y-156066248D01*
X165334835Y-156133287D01*
X165318201Y-156153929D01*
X163518701Y-157953428D01*
X163518695Y-157953436D01*
X163477176Y-158025351D01*
X163477176Y-158025353D01*
X163439643Y-158090360D01*
X163426001Y-158141270D01*
X163398719Y-158243089D01*
X163398719Y-158243091D01*
X163398719Y-158411192D01*
X163398720Y-158411205D01*
X163398720Y-158721244D01*
X163379035Y-158788283D01*
X163326231Y-158834038D01*
X163274720Y-158845244D01*
X162858518Y-158845244D01*
X162821652Y-158848145D01*
X162821646Y-158848146D01*
X162663826Y-158893998D01*
X162663823Y-158893999D01*
X162522357Y-158977661D01*
X162522349Y-158977667D01*
X162406143Y-159093873D01*
X162406137Y-159093881D01*
X162322475Y-159235347D01*
X162322474Y-159235350D01*
X162276622Y-159393170D01*
X162276621Y-159393176D01*
X162273720Y-159430042D01*
X162273720Y-160361445D01*
X162276621Y-160398311D01*
X162276622Y-160398317D01*
X162322474Y-160556137D01*
X162322475Y-160556140D01*
X162322476Y-160556142D01*
X162333461Y-160574716D01*
X162406137Y-160697606D01*
X162406143Y-160697614D01*
X162522349Y-160813820D01*
X162522353Y-160813823D01*
X162522355Y-160813825D01*
X162663822Y-160897488D01*
X162695791Y-160906776D01*
X162821646Y-160943341D01*
X162821649Y-160943341D01*
X162821651Y-160943342D01*
X162858526Y-160946244D01*
X162858534Y-160946244D01*
X165139906Y-160946244D01*
X165139914Y-160946244D01*
X165176789Y-160943342D01*
X165176791Y-160943341D01*
X165176793Y-160943341D01*
X165218411Y-160931249D01*
X165334618Y-160897488D01*
X165476085Y-160813825D01*
X165592301Y-160697609D01*
X165675964Y-160556142D01*
X165718292Y-160410450D01*
X165721817Y-160398317D01*
X165721818Y-160398311D01*
X165724720Y-160361438D01*
X165724720Y-159430050D01*
X165721818Y-159393175D01*
X165675964Y-159235346D01*
X165592301Y-159093879D01*
X165592299Y-159093877D01*
X165592296Y-159093873D01*
X165476090Y-158977667D01*
X165476082Y-158977661D01*
X165350323Y-158903288D01*
X165334618Y-158894000D01*
X165334617Y-158893999D01*
X165334616Y-158893999D01*
X165334613Y-158893998D01*
X165176793Y-158848146D01*
X165176787Y-158848145D01*
X165139921Y-158845244D01*
X165139914Y-158845244D01*
X164723720Y-158845244D01*
X164715034Y-158842693D01*
X164706073Y-158843982D01*
X164682032Y-158833003D01*
X164656681Y-158825559D01*
X164650753Y-158818718D01*
X164642517Y-158814957D01*
X164628227Y-158792722D01*
X164610926Y-158772755D01*
X164608638Y-158762240D01*
X164604743Y-158756179D01*
X164599720Y-158721244D01*
X164599720Y-158622242D01*
X164619405Y-158555203D01*
X164636034Y-158534566D01*
X166323733Y-156846867D01*
X166323736Y-156846866D01*
X166435540Y-156735062D01*
X166485659Y-156648250D01*
X166514597Y-156598131D01*
X166555521Y-156445403D01*
X166555521Y-156287289D01*
X166555521Y-156279694D01*
X166555520Y-156279676D01*
X166555520Y-153066498D01*
X166555521Y-153066485D01*
X166555521Y-152898382D01*
X166544390Y-152856841D01*
X166514597Y-152745654D01*
X166494813Y-152711387D01*
X166435544Y-152608728D01*
X166435538Y-152608720D01*
X166414695Y-152587877D01*
X166381210Y-152526554D01*
X166379903Y-152480803D01*
X166389384Y-152420946D01*
X166389384Y-152251658D01*
X166389384Y-152251652D01*
X166368270Y-152118346D01*
X166377224Y-152049053D01*
X166422221Y-151995601D01*
X166488972Y-151974961D01*
X166510141Y-151976475D01*
X166643448Y-151997589D01*
X166643453Y-151997589D01*
X166812738Y-151997589D01*
X166812741Y-151997589D01*
X166872596Y-151988108D01*
X166941886Y-151997062D01*
X166979673Y-152022900D01*
X167252063Y-152295290D01*
X167285548Y-152356613D01*
X167288382Y-152382971D01*
X167288382Y-158730532D01*
X167268697Y-158797571D01*
X167215893Y-158843326D01*
X167164382Y-158854532D01*
X166748180Y-158854532D01*
X166711314Y-158857433D01*
X166711308Y-158857434D01*
X166553488Y-158903286D01*
X166553485Y-158903287D01*
X166412019Y-158986949D01*
X166412011Y-158986955D01*
X166295805Y-159103161D01*
X166295799Y-159103169D01*
X166212137Y-159244635D01*
X166212136Y-159244638D01*
X166166284Y-159402458D01*
X166166283Y-159402464D01*
X166163382Y-159439330D01*
X166163382Y-160370733D01*
X166166283Y-160407599D01*
X166166284Y-160407605D01*
X166212136Y-160565425D01*
X166212137Y-160565428D01*
X166295799Y-160706894D01*
X166295805Y-160706902D01*
X166412011Y-160823108D01*
X166412015Y-160823111D01*
X166412017Y-160823113D01*
X166553484Y-160906776D01*
X166585446Y-160916062D01*
X166711308Y-160952629D01*
X166711311Y-160952629D01*
X166711313Y-160952630D01*
X166748188Y-160955532D01*
X166748196Y-160955532D01*
X169029568Y-160955532D01*
X169029576Y-160955532D01*
X169066451Y-160952630D01*
X169066453Y-160952629D01*
X169066455Y-160952629D01*
X169108073Y-160940537D01*
X169224280Y-160906776D01*
X169365747Y-160823113D01*
X169481963Y-160706897D01*
X169565626Y-160565430D01*
X169606954Y-160423179D01*
X169611479Y-160407605D01*
X169611480Y-160407599D01*
X169614382Y-160370726D01*
X169614382Y-159439338D01*
X169611480Y-159402463D01*
X169608780Y-159393170D01*
X169565627Y-159244638D01*
X169565626Y-159244635D01*
X169565626Y-159244634D01*
X169481963Y-159103167D01*
X169481961Y-159103165D01*
X169481958Y-159103161D01*
X169365752Y-158986955D01*
X169365744Y-158986949D01*
X169287563Y-158940713D01*
X169224280Y-158903288D01*
X169224279Y-158903287D01*
X169224278Y-158903287D01*
X169224275Y-158903286D01*
X169066455Y-158857434D01*
X169066449Y-158857433D01*
X169029583Y-158854532D01*
X169029576Y-158854532D01*
X168613382Y-158854532D01*
X168546343Y-158834847D01*
X168500588Y-158782043D01*
X168489382Y-158730532D01*
X168489382Y-152003818D01*
X168489381Y-152003812D01*
X168480618Y-151971107D01*
X168448459Y-151851089D01*
X168395560Y-151759466D01*
X168369402Y-151714158D01*
X168257598Y-151602354D01*
X168257595Y-151602352D01*
X167828908Y-151173665D01*
X167795423Y-151112342D01*
X167794116Y-151066591D01*
X167803597Y-151006733D01*
X167803597Y-150837445D01*
X167803597Y-150837440D01*
X167791188Y-150759097D01*
X167782482Y-150704129D01*
X167791436Y-150634838D01*
X167836432Y-150581386D01*
X167903183Y-150560746D01*
X167924347Y-150562259D01*
X167987577Y-150572274D01*
X168057663Y-150583375D01*
X168057667Y-150583375D01*
X168226952Y-150583375D01*
X168226955Y-150583375D01*
X168286810Y-150573894D01*
X168356100Y-150582848D01*
X168393887Y-150608686D01*
X168988501Y-151203300D01*
X169021986Y-151264623D01*
X169024820Y-151290981D01*
X169024820Y-155555776D01*
X169024819Y-155555794D01*
X169024819Y-155721500D01*
X169024818Y-155721500D01*
X169065742Y-155874229D01*
X169083416Y-155904842D01*
X169144795Y-156011155D01*
X169144801Y-156011163D01*
X169263669Y-156130031D01*
X169263675Y-156130036D01*
X171141724Y-158008085D01*
X171175209Y-158069408D01*
X171178043Y-158095766D01*
X171178043Y-158739818D01*
X171158358Y-158806857D01*
X171105554Y-158852612D01*
X171054043Y-158863818D01*
X170637841Y-158863818D01*
X170600975Y-158866719D01*
X170600969Y-158866720D01*
X170443149Y-158912572D01*
X170443146Y-158912573D01*
X170301680Y-158996235D01*
X170301672Y-158996241D01*
X170185466Y-159112447D01*
X170185460Y-159112455D01*
X170101798Y-159253921D01*
X170101797Y-159253924D01*
X170055945Y-159411744D01*
X170055944Y-159411750D01*
X170053043Y-159448616D01*
X170053043Y-160380019D01*
X170055944Y-160416885D01*
X170055945Y-160416891D01*
X170101797Y-160574711D01*
X170101798Y-160574714D01*
X170185460Y-160716180D01*
X170185466Y-160716188D01*
X170301672Y-160832394D01*
X170301676Y-160832397D01*
X170301678Y-160832399D01*
X170443145Y-160916062D01*
X170484767Y-160928154D01*
X170600969Y-160961915D01*
X170600972Y-160961915D01*
X170600974Y-160961916D01*
X170637849Y-160964818D01*
X170637857Y-160964818D01*
X172919229Y-160964818D01*
X172919237Y-160964818D01*
X172956112Y-160961916D01*
X172956114Y-160961915D01*
X172956116Y-160961915D01*
X173010058Y-160946243D01*
X173113941Y-160916062D01*
X173255408Y-160832399D01*
X173371624Y-160716183D01*
X173455287Y-160574716D01*
X173500477Y-160419174D01*
X173501140Y-160416891D01*
X173501141Y-160416885D01*
X173504043Y-160380012D01*
X173504043Y-159448624D01*
X173501141Y-159411749D01*
X173498443Y-159402464D01*
X173455288Y-159253924D01*
X173455287Y-159253921D01*
X173455287Y-159253920D01*
X173371624Y-159112453D01*
X173371622Y-159112451D01*
X173371619Y-159112447D01*
X173255413Y-158996241D01*
X173255405Y-158996235D01*
X173169650Y-158945520D01*
X173113941Y-158912574D01*
X173113940Y-158912573D01*
X173113939Y-158912573D01*
X173113936Y-158912572D01*
X172956116Y-158866720D01*
X172956110Y-158866719D01*
X172919244Y-158863818D01*
X172919237Y-158863818D01*
X172503043Y-158863818D01*
X172436004Y-158844133D01*
X172390249Y-158791329D01*
X172379043Y-158739818D01*
X172379043Y-157716614D01*
X172379043Y-157716612D01*
X172341016Y-157574692D01*
X172338120Y-157563884D01*
X172309182Y-157513764D01*
X172259063Y-157426953D01*
X172147259Y-157315149D01*
X172147258Y-157315148D01*
X172142928Y-157310818D01*
X172142917Y-157310808D01*
X170262139Y-155430030D01*
X170228654Y-155368707D01*
X170225820Y-155342349D01*
X170225820Y-151079943D01*
X170225821Y-151079930D01*
X170225821Y-150911829D01*
X170225821Y-150911827D01*
X170184897Y-150759099D01*
X170133595Y-150670242D01*
X170105840Y-150622168D01*
X169994036Y-150510364D01*
X169994035Y-150510363D01*
X169989705Y-150506033D01*
X169989694Y-150506023D01*
X169243122Y-149759451D01*
X169209637Y-149698128D01*
X169208330Y-149652377D01*
X169217811Y-149592519D01*
X169217811Y-149423231D01*
X169217811Y-149423225D01*
X169196697Y-149289919D01*
X169205651Y-149220626D01*
X169250648Y-149167174D01*
X169317399Y-149146534D01*
X169338568Y-149148048D01*
X169471875Y-149169162D01*
X169471880Y-149169162D01*
X169641165Y-149169162D01*
X169641168Y-149169162D01*
X169701023Y-149159681D01*
X169770313Y-149168635D01*
X169808100Y-149194473D01*
X170677601Y-150063974D01*
X170711086Y-150125297D01*
X170713920Y-150151655D01*
X170713920Y-153228252D01*
X170713919Y-153228270D01*
X170713919Y-153393976D01*
X170713918Y-153393976D01*
X170720481Y-153418467D01*
X170752622Y-153538420D01*
X170754843Y-153546706D01*
X170754843Y-153546707D01*
X170759156Y-153554178D01*
X170759157Y-153554179D01*
X170833897Y-153683634D01*
X170833901Y-153683639D01*
X170952769Y-153802507D01*
X170952775Y-153802512D01*
X171115859Y-153965596D01*
X171149344Y-154026919D01*
X171144360Y-154096611D01*
X171136841Y-154113013D01*
X171072768Y-154229563D01*
X171031894Y-154388753D01*
X171031894Y-154553112D01*
X171072768Y-154712303D01*
X171151941Y-154856320D01*
X171151946Y-154856327D01*
X171175965Y-154884449D01*
X171175985Y-154884470D01*
X171834542Y-155543027D01*
X171834563Y-155543047D01*
X171862685Y-155567066D01*
X171862692Y-155567071D01*
X172006709Y-155646244D01*
X172006711Y-155646244D01*
X172006712Y-155646245D01*
X172165903Y-155687119D01*
X172165906Y-155687119D01*
X172330254Y-155687119D01*
X172330257Y-155687119D01*
X172489448Y-155646245D01*
X172521454Y-155628650D01*
X172633467Y-155567071D01*
X172633467Y-155567070D01*
X172633474Y-155567067D01*
X172661600Y-155543044D01*
X174207326Y-153997318D01*
X176011780Y-153997318D01*
X176011780Y-154161677D01*
X176052654Y-154320868D01*
X176131827Y-154464885D01*
X176131832Y-154464892D01*
X176155851Y-154493014D01*
X176155871Y-154493035D01*
X176814428Y-155151592D01*
X176814449Y-155151612D01*
X176842571Y-155175631D01*
X176842578Y-155175636D01*
X176986595Y-155254809D01*
X176986597Y-155254809D01*
X176986598Y-155254810D01*
X177145789Y-155295684D01*
X177145792Y-155295684D01*
X177310140Y-155295684D01*
X177310143Y-155295684D01*
X177469334Y-155254810D01*
X177562473Y-155203607D01*
X177613353Y-155175636D01*
X177613353Y-155175635D01*
X177613360Y-155175632D01*
X177641486Y-155151609D01*
X177935780Y-154857315D01*
X177943725Y-154852976D01*
X177949151Y-154845729D01*
X177973910Y-154836494D01*
X177997103Y-154823830D01*
X178006132Y-154824475D01*
X178014615Y-154821312D01*
X178040435Y-154826928D01*
X178066794Y-154828814D01*
X178075847Y-154834632D01*
X178082888Y-154836164D01*
X178111142Y-154857315D01*
X178246801Y-154992974D01*
X178280286Y-155054297D01*
X178283120Y-155080655D01*
X178283120Y-157868399D01*
X178264873Y-157930538D01*
X178265715Y-157930988D01*
X178263555Y-157935028D01*
X178263435Y-157935438D01*
X178262898Y-157936256D01*
X178262843Y-157936359D01*
X178210041Y-158063836D01*
X178210038Y-158063846D01*
X178183120Y-158199173D01*
X178183120Y-158199176D01*
X178183120Y-158337162D01*
X178183120Y-158337164D01*
X178183119Y-158337164D01*
X178210038Y-158472491D01*
X178210041Y-158472501D01*
X178262842Y-158599975D01*
X178265714Y-158605347D01*
X178264412Y-158606043D01*
X178283100Y-158665723D01*
X178283120Y-158667938D01*
X178283120Y-166683448D01*
X178263435Y-166750487D01*
X178246801Y-166771129D01*
X176447301Y-168570628D01*
X176447297Y-168570633D01*
X176430638Y-168599490D01*
X176430637Y-168599492D01*
X176368243Y-168707561D01*
X176327319Y-168860289D01*
X176327319Y-168860291D01*
X176327319Y-169028392D01*
X176327320Y-169028405D01*
X176327320Y-173019838D01*
X176309073Y-173081977D01*
X176309915Y-173082427D01*
X176307755Y-173086467D01*
X176307635Y-173086877D01*
X176307098Y-173087695D01*
X176307043Y-173087798D01*
X176254241Y-173215275D01*
X176254238Y-173215285D01*
X176227320Y-173350612D01*
X176227320Y-173350615D01*
X176227320Y-173488601D01*
X176227320Y-173488603D01*
X176227319Y-173488603D01*
X176254238Y-173623930D01*
X176254241Y-173623940D01*
X176307041Y-173751412D01*
X176307048Y-173751425D01*
X176383705Y-173866149D01*
X176383708Y-173866153D01*
X176481274Y-173963719D01*
X176481278Y-173963722D01*
X176596002Y-174040379D01*
X176596015Y-174040386D01*
X176723487Y-174093186D01*
X176723492Y-174093188D01*
X176723496Y-174093188D01*
X176723497Y-174093189D01*
X176858824Y-174120108D01*
X176858827Y-174120108D01*
X176996815Y-174120108D01*
X177087861Y-174101997D01*
X177132148Y-174093188D01*
X177230744Y-174052348D01*
X177259624Y-174040386D01*
X177259624Y-174040385D01*
X177259631Y-174040383D01*
X177374362Y-173963722D01*
X177471934Y-173866150D01*
X177548595Y-173751419D01*
X177601400Y-173623936D01*
X177623761Y-173511521D01*
X177628320Y-173488603D01*
X177628320Y-173350612D01*
X177601401Y-173215285D01*
X177601400Y-173215284D01*
X177601400Y-173215280D01*
X177577964Y-173158700D01*
X177548596Y-173087798D01*
X177545725Y-173082427D01*
X177547025Y-173081731D01*
X177528340Y-173022046D01*
X177528320Y-173019838D01*
X177528320Y-169239442D01*
X177548005Y-169172403D01*
X177564634Y-169151766D01*
X179242126Y-167474273D01*
X179242131Y-167474270D01*
X179252334Y-167464066D01*
X179252336Y-167464066D01*
X179364140Y-167352262D01*
X179427825Y-167241956D01*
X179443197Y-167215331D01*
X179484121Y-167062603D01*
X179484121Y-166904489D01*
X179484121Y-166896894D01*
X179484120Y-166896876D01*
X179484120Y-158667938D01*
X179502366Y-158605796D01*
X179501526Y-158605347D01*
X179503684Y-158601309D01*
X179503805Y-158600899D01*
X179504341Y-158600079D01*
X179504391Y-158599985D01*
X179504395Y-158599980D01*
X179557200Y-158472497D01*
X179584120Y-158337162D01*
X179584120Y-158199176D01*
X179584120Y-158199173D01*
X179557201Y-158063846D01*
X179557200Y-158063845D01*
X179557200Y-158063841D01*
X179548958Y-158043943D01*
X179504396Y-157936359D01*
X179501525Y-157930988D01*
X179502825Y-157930292D01*
X179484140Y-157870607D01*
X179484120Y-157868399D01*
X179484120Y-154701503D01*
X179484120Y-154701501D01*
X179443197Y-154548774D01*
X179431394Y-154528331D01*
X179364144Y-154411848D01*
X179364141Y-154411844D01*
X179364140Y-154411842D01*
X179252336Y-154300038D01*
X179252335Y-154300037D01*
X179248005Y-154295707D01*
X179247994Y-154295697D01*
X178960377Y-154008080D01*
X178926892Y-153946757D01*
X178931876Y-153877065D01*
X178960377Y-153832718D01*
X179254654Y-153538441D01*
X179254671Y-153538424D01*
X179278694Y-153510298D01*
X179288037Y-153493304D01*
X179357871Y-153366274D01*
X179358606Y-153363415D01*
X179398746Y-153207081D01*
X179398746Y-153042727D01*
X179357872Y-152883536D01*
X179357871Y-152883535D01*
X179357871Y-152883533D01*
X179278698Y-152739516D01*
X179278693Y-152739509D01*
X179254674Y-152711387D01*
X179254654Y-152711366D01*
X178596097Y-152052809D01*
X178596076Y-152052789D01*
X178567954Y-152028770D01*
X178567947Y-152028765D01*
X178423930Y-151949592D01*
X178264739Y-151908718D01*
X178264737Y-151908718D01*
X178100383Y-151908718D01*
X178100380Y-151908718D01*
X177941189Y-151949592D01*
X177797172Y-152028765D01*
X177797165Y-152028770D01*
X177769043Y-152052789D01*
X177769022Y-152052809D01*
X176155871Y-153665960D01*
X176155851Y-153665981D01*
X176131832Y-153694103D01*
X176131827Y-153694110D01*
X176052654Y-153838127D01*
X176011780Y-153997318D01*
X174207326Y-153997318D01*
X174274785Y-153929859D01*
X174298808Y-153901733D01*
X174318992Y-153865019D01*
X174377985Y-153757709D01*
X174382220Y-153741217D01*
X174418860Y-153598516D01*
X174418860Y-153434162D01*
X174377986Y-153274971D01*
X174377985Y-153274970D01*
X174377985Y-153274968D01*
X174298812Y-153130951D01*
X174298807Y-153130944D01*
X174274788Y-153102822D01*
X174274768Y-153102801D01*
X173616211Y-152444244D01*
X173616190Y-152444224D01*
X173588068Y-152420205D01*
X173588061Y-152420200D01*
X173444044Y-152341027D01*
X173284853Y-152300153D01*
X173284851Y-152300153D01*
X173120497Y-152300153D01*
X173120494Y-152300153D01*
X172961303Y-152341027D01*
X172817286Y-152420200D01*
X172817279Y-152420205D01*
X172789157Y-152444224D01*
X172789136Y-152444244D01*
X172128738Y-153104643D01*
X172120792Y-153108981D01*
X172115367Y-153116229D01*
X172090607Y-153125463D01*
X172067415Y-153138128D01*
X172058385Y-153137482D01*
X172049903Y-153140646D01*
X172024082Y-153135029D01*
X171997723Y-153133144D01*
X171988669Y-153127325D01*
X171981630Y-153125794D01*
X171953376Y-153104643D01*
X171951239Y-153102506D01*
X171917754Y-153041183D01*
X171914920Y-153014825D01*
X171914920Y-149940618D01*
X171914921Y-149940605D01*
X171914921Y-149772502D01*
X171914921Y-149772501D01*
X171873997Y-149619774D01*
X171870521Y-149613753D01*
X171794944Y-149482848D01*
X171794938Y-149482840D01*
X170657335Y-148345238D01*
X170623850Y-148283915D01*
X170622543Y-148238164D01*
X170632024Y-148178306D01*
X170632024Y-148009018D01*
X170632024Y-148009013D01*
X170619809Y-147931895D01*
X170610909Y-147875702D01*
X170614082Y-147851145D01*
X170613041Y-147826407D01*
X170618481Y-147817102D01*
X170619863Y-147806411D01*
X170635811Y-147787465D01*
X170648309Y-147766092D01*
X170657916Y-147761205D01*
X170664859Y-147752959D01*
X170688516Y-147745644D01*
X170710588Y-147734419D01*
X170725487Y-147734212D01*
X170731610Y-147732319D01*
X170745851Y-147732934D01*
X170749305Y-147733283D01*
X170886094Y-147754948D01*
X170963668Y-147754948D01*
X170969882Y-147755576D01*
X170996694Y-147766482D01*
X171024452Y-147774633D01*
X171032321Y-147780974D01*
X171034602Y-147781902D01*
X171036081Y-147784004D01*
X171045093Y-147791266D01*
X174258117Y-151004291D01*
X174291601Y-151065612D01*
X174286617Y-151135304D01*
X174258116Y-151179651D01*
X173963839Y-151473928D01*
X173963819Y-151473949D01*
X173939800Y-151502071D01*
X173939795Y-151502078D01*
X173860622Y-151646095D01*
X173819748Y-151805286D01*
X173819748Y-151969645D01*
X173860622Y-152128836D01*
X173939795Y-152272853D01*
X173939800Y-152272860D01*
X173963819Y-152300982D01*
X173963839Y-152301003D01*
X174622396Y-152959560D01*
X174622417Y-152959580D01*
X174650539Y-152983599D01*
X174650546Y-152983604D01*
X174794563Y-153062777D01*
X174794565Y-153062777D01*
X174794566Y-153062778D01*
X174953757Y-153103652D01*
X174953760Y-153103652D01*
X175118108Y-153103652D01*
X175118111Y-153103652D01*
X175277302Y-153062778D01*
X175316584Y-153041183D01*
X175421321Y-152983604D01*
X175421321Y-152983603D01*
X175421328Y-152983600D01*
X175449454Y-152959577D01*
X177062639Y-151346392D01*
X177086662Y-151318266D01*
X177086666Y-151318259D01*
X177149855Y-151203318D01*
X178805780Y-151203318D01*
X178805780Y-151367677D01*
X178846654Y-151526868D01*
X178925827Y-151670885D01*
X178925832Y-151670892D01*
X178949851Y-151699014D01*
X178949871Y-151699035D01*
X179608428Y-152357592D01*
X179608449Y-152357612D01*
X179636571Y-152381631D01*
X179636578Y-152381636D01*
X179780595Y-152460809D01*
X179780597Y-152460809D01*
X179780598Y-152460810D01*
X179939789Y-152501684D01*
X179939792Y-152501684D01*
X180104140Y-152501684D01*
X180104143Y-152501684D01*
X180263334Y-152460810D01*
X180407360Y-152381632D01*
X180407362Y-152381629D01*
X180410782Y-152379750D01*
X180479013Y-152364703D01*
X180544547Y-152388933D01*
X180586578Y-152444747D01*
X180594520Y-152488412D01*
X180594520Y-155201399D01*
X180576273Y-155263538D01*
X180577115Y-155263988D01*
X180574955Y-155268028D01*
X180574835Y-155268438D01*
X180574298Y-155269256D01*
X180574243Y-155269359D01*
X180521441Y-155396836D01*
X180521438Y-155396846D01*
X180494520Y-155532173D01*
X180494520Y-155532176D01*
X180494520Y-155670162D01*
X180494520Y-155670164D01*
X180494519Y-155670164D01*
X180521438Y-155805491D01*
X180521441Y-155805501D01*
X180574241Y-155932973D01*
X180574248Y-155932986D01*
X180650905Y-156047710D01*
X180650908Y-156047714D01*
X180748474Y-156145280D01*
X180748478Y-156145283D01*
X180863202Y-156221940D01*
X180863215Y-156221947D01*
X180983860Y-156271919D01*
X180990692Y-156274749D01*
X180990696Y-156274749D01*
X180990697Y-156274750D01*
X181126024Y-156301669D01*
X181126027Y-156301669D01*
X181264015Y-156301669D01*
X181374578Y-156279676D01*
X181399348Y-156274749D01*
X181526831Y-156221944D01*
X181641562Y-156145283D01*
X181739134Y-156047711D01*
X181815795Y-155932980D01*
X181868600Y-155805497D01*
X181892147Y-155687119D01*
X181895520Y-155670164D01*
X181895520Y-155532173D01*
X181868601Y-155396846D01*
X181868600Y-155396845D01*
X181868600Y-155396841D01*
X181838005Y-155322977D01*
X181815796Y-155269359D01*
X181812925Y-155263988D01*
X181814225Y-155263292D01*
X181795540Y-155203607D01*
X181795520Y-155201399D01*
X181795520Y-151593017D01*
X181795521Y-151593004D01*
X181795521Y-151424903D01*
X181795521Y-151424901D01*
X181754597Y-151272173D01*
X181754596Y-151272172D01*
X181754596Y-151272170D01*
X181754594Y-151272167D01*
X181716640Y-151206430D01*
X181700166Y-151138530D01*
X181723018Y-151072503D01*
X181736333Y-151056761D01*
X182048671Y-150744424D01*
X182072694Y-150716298D01*
X182086325Y-150691504D01*
X182151871Y-150572274D01*
X182154443Y-150562260D01*
X182192746Y-150413081D01*
X182192746Y-150248727D01*
X182151872Y-150089536D01*
X182151871Y-150089535D01*
X182151871Y-150089533D01*
X182072698Y-149945516D01*
X182072693Y-149945509D01*
X182068504Y-149940605D01*
X182048671Y-149917384D01*
X182048654Y-149917366D01*
X181390097Y-149258809D01*
X181390076Y-149258789D01*
X181361954Y-149234770D01*
X181361947Y-149234765D01*
X181217930Y-149155592D01*
X181058739Y-149114718D01*
X181058737Y-149114718D01*
X180894383Y-149114718D01*
X180894380Y-149114718D01*
X180735189Y-149155592D01*
X180591172Y-149234765D01*
X180591165Y-149234770D01*
X180563043Y-149258789D01*
X180563022Y-149258809D01*
X178949871Y-150871960D01*
X178949851Y-150871981D01*
X178925832Y-150900103D01*
X178925827Y-150900110D01*
X178846654Y-151044127D01*
X178805780Y-151203318D01*
X177149855Y-151203318D01*
X177165838Y-151174244D01*
X177165838Y-151174243D01*
X177165840Y-151174240D01*
X177206714Y-151015049D01*
X177206714Y-150850695D01*
X177165840Y-150691504D01*
X177165839Y-150691503D01*
X177165839Y-150691501D01*
X177086666Y-150547484D01*
X177086661Y-150547477D01*
X177062642Y-150519355D01*
X177062622Y-150519334D01*
X176404065Y-149860777D01*
X176404044Y-149860757D01*
X176375922Y-149836738D01*
X176375915Y-149836733D01*
X176231898Y-149757560D01*
X176072707Y-149716686D01*
X176072705Y-149716686D01*
X175908351Y-149716686D01*
X175908348Y-149716686D01*
X175749157Y-149757560D01*
X175605140Y-149836733D01*
X175605133Y-149836738D01*
X175577011Y-149860757D01*
X175576990Y-149860777D01*
X175282713Y-150155054D01*
X175221390Y-150188539D01*
X175151698Y-150183555D01*
X175107353Y-150155055D01*
X172040093Y-147087796D01*
X172006609Y-147026474D01*
X172009845Y-146961796D01*
X172019756Y-146931295D01*
X172044584Y-146774537D01*
X172046238Y-146764097D01*
X172046238Y-146594798D01*
X172025124Y-146461492D01*
X172034078Y-146392199D01*
X172079075Y-146338747D01*
X172145826Y-146318107D01*
X172166995Y-146319621D01*
X172300302Y-146340735D01*
X172300307Y-146340735D01*
X172469592Y-146340735D01*
X172469595Y-146340735D01*
X172529450Y-146331254D01*
X172534873Y-146331955D01*
X172540000Y-146330043D01*
X172569152Y-146336384D01*
X172598740Y-146340208D01*
X172604344Y-146344040D01*
X172608273Y-146344895D01*
X172636527Y-146366046D01*
X172765001Y-146494520D01*
X172765011Y-146494531D01*
X172769341Y-146498861D01*
X172769342Y-146498862D01*
X172881146Y-146610666D01*
X172881148Y-146610667D01*
X172881152Y-146610670D01*
X172932286Y-146640192D01*
X172932291Y-146640194D01*
X173018071Y-146689720D01*
X173018072Y-146689720D01*
X173018077Y-146689723D01*
X173170804Y-146730646D01*
X173170805Y-146730646D01*
X175226587Y-146730646D01*
X175521111Y-146730646D01*
X175588150Y-146750331D01*
X175608792Y-146766965D01*
X177052116Y-148210289D01*
X177085601Y-148271612D01*
X177080617Y-148341304D01*
X177052116Y-148385651D01*
X176757839Y-148679928D01*
X176757819Y-148679949D01*
X176733800Y-148708071D01*
X176733795Y-148708078D01*
X176654622Y-148852095D01*
X176613748Y-149011286D01*
X176613748Y-149175645D01*
X176654622Y-149334836D01*
X176733795Y-149478853D01*
X176733800Y-149478860D01*
X176757819Y-149506982D01*
X176757839Y-149507003D01*
X177416396Y-150165560D01*
X177416417Y-150165580D01*
X177444539Y-150189599D01*
X177444546Y-150189604D01*
X177588563Y-150268777D01*
X177588565Y-150268777D01*
X177588566Y-150268778D01*
X177747757Y-150309652D01*
X177747760Y-150309652D01*
X177912108Y-150309652D01*
X177912111Y-150309652D01*
X178071302Y-150268778D01*
X178177089Y-150210622D01*
X178215321Y-150189604D01*
X178215321Y-150189603D01*
X178215328Y-150189600D01*
X178243454Y-150165577D01*
X179856639Y-148552392D01*
X179880662Y-148524266D01*
X179902873Y-148483865D01*
X179959839Y-148380242D01*
X179961941Y-148372058D01*
X180000714Y-148221049D01*
X180000714Y-148056695D01*
X179959840Y-147897504D01*
X179959839Y-147897503D01*
X179959839Y-147897501D01*
X179880666Y-147753484D01*
X179880661Y-147753477D01*
X179856642Y-147725355D01*
X179856622Y-147725334D01*
X179198065Y-147066777D01*
X179198044Y-147066757D01*
X179169922Y-147042738D01*
X179169915Y-147042733D01*
X179025898Y-146963560D01*
X178866707Y-146922686D01*
X178866705Y-146922686D01*
X178702351Y-146922686D01*
X178702348Y-146922686D01*
X178543157Y-146963560D01*
X178399140Y-147042733D01*
X178399133Y-147042738D01*
X178371011Y-147066757D01*
X178370990Y-147066777D01*
X178076713Y-147361054D01*
X178015390Y-147394539D01*
X177945698Y-147389555D01*
X177901351Y-147361054D01*
X176308798Y-145768501D01*
X176308796Y-145768498D01*
X176189925Y-145649627D01*
X176189924Y-145649626D01*
X176103112Y-145599506D01*
X176103112Y-145599505D01*
X176103108Y-145599504D01*
X176052993Y-145570569D01*
X175900265Y-145529645D01*
X175742151Y-145529645D01*
X175734555Y-145529645D01*
X175734539Y-145529646D01*
X173577163Y-145529646D01*
X173564823Y-145526022D01*
X173552003Y-145527067D01*
X173531937Y-145516366D01*
X173510124Y-145509961D01*
X173501702Y-145500242D01*
X173490352Y-145494189D01*
X173479257Y-145474338D01*
X173464369Y-145457157D01*
X173461743Y-145443003D01*
X173456263Y-145433199D01*
X173455456Y-145409115D01*
X173453398Y-145398022D01*
X173453762Y-145392109D01*
X173460451Y-145349879D01*
X173460451Y-145283531D01*
X173460686Y-145279717D01*
X173471325Y-145250307D01*
X173480136Y-145220302D01*
X173483113Y-145217721D01*
X173484455Y-145214014D01*
X173509314Y-145195018D01*
X173532940Y-145174547D01*
X173536839Y-145173986D01*
X173539972Y-145171593D01*
X173571146Y-145169053D01*
X173602098Y-145164603D01*
X173608241Y-145166031D01*
X173609611Y-145165920D01*
X173611041Y-145166682D01*
X173622759Y-145169407D01*
X173689834Y-145191201D01*
X173735728Y-145206113D01*
X173735729Y-145206113D01*
X173735732Y-145206114D01*
X173735735Y-145206114D01*
X173862595Y-145206114D01*
X173862598Y-145206114D01*
X173983254Y-145166911D01*
X174060074Y-145111098D01*
X174913141Y-144258029D01*
X174974464Y-144224545D01*
X175000822Y-144221711D01*
X178218464Y-144221711D01*
X178512988Y-144221711D01*
X178580027Y-144241396D01*
X178600669Y-144258030D01*
X179809089Y-145466450D01*
X179842574Y-145527773D01*
X179837590Y-145597465D01*
X179809089Y-145641812D01*
X179514812Y-145936089D01*
X179514792Y-145936110D01*
X179490773Y-145964232D01*
X179490768Y-145964239D01*
X179411595Y-146108256D01*
X179370721Y-146267447D01*
X179370721Y-146431806D01*
X179411595Y-146590997D01*
X179490768Y-146735014D01*
X179490773Y-146735021D01*
X179514792Y-146763143D01*
X179514812Y-146763164D01*
X180173369Y-147421721D01*
X180173390Y-147421741D01*
X180201512Y-147445760D01*
X180201519Y-147445765D01*
X180345536Y-147524938D01*
X180345538Y-147524938D01*
X180345539Y-147524939D01*
X180504730Y-147565813D01*
X180504733Y-147565813D01*
X180669081Y-147565813D01*
X180669084Y-147565813D01*
X180828275Y-147524939D01*
X180868643Y-147502747D01*
X180972294Y-147445765D01*
X180972294Y-147445764D01*
X180972301Y-147445761D01*
X181000427Y-147421738D01*
X182613612Y-145808553D01*
X182637635Y-145780427D01*
X182648078Y-145761432D01*
X182716812Y-145636403D01*
X182726287Y-145599504D01*
X182757687Y-145477210D01*
X182757687Y-145312856D01*
X182716813Y-145153665D01*
X182716812Y-145153664D01*
X182716812Y-145153662D01*
X182637639Y-145009645D01*
X182637634Y-145009638D01*
X182613615Y-144981516D01*
X182613595Y-144981495D01*
X181955038Y-144322938D01*
X181955017Y-144322918D01*
X181926895Y-144298899D01*
X181926888Y-144298894D01*
X181782871Y-144219721D01*
X181623680Y-144178847D01*
X181623678Y-144178847D01*
X181459324Y-144178847D01*
X181459321Y-144178847D01*
X181300130Y-144219721D01*
X181156113Y-144298894D01*
X181156106Y-144298899D01*
X181127984Y-144322918D01*
X181127963Y-144322938D01*
X180833686Y-144617215D01*
X180772363Y-144650700D01*
X180702671Y-144645716D01*
X180658324Y-144617215D01*
X179300675Y-143259566D01*
X179300673Y-143259563D01*
X179181802Y-143140692D01*
X179181801Y-143140691D01*
X179094989Y-143090571D01*
X179094989Y-143090570D01*
X179094985Y-143090569D01*
X179044870Y-143061634D01*
X178892142Y-143020710D01*
X178734028Y-143020710D01*
X178726432Y-143020710D01*
X178726416Y-143020711D01*
X174541203Y-143020711D01*
X174474164Y-143001026D01*
X174453522Y-142984392D01*
X173600454Y-142131324D01*
X173523637Y-142075512D01*
X173523635Y-142075511D01*
X173493470Y-142065710D01*
X173402981Y-142036308D01*
X173402978Y-142036308D01*
X173276112Y-142036308D01*
X173276108Y-142036308D01*
X173155455Y-142075511D01*
X173078639Y-142131321D01*
X173078633Y-142131326D01*
X172079471Y-143130489D01*
X172079468Y-143130492D01*
X172023656Y-143207309D01*
X172023655Y-143207312D01*
X171984452Y-143327964D01*
X171984452Y-143454837D01*
X172003753Y-143514238D01*
X172021156Y-143567799D01*
X172023151Y-143637638D01*
X171987071Y-143697471D01*
X171924370Y-143728299D01*
X171903225Y-143730115D01*
X171840682Y-143730115D01*
X171673483Y-143756596D01*
X171512477Y-143808911D01*
X171361642Y-143885767D01*
X171224696Y-143985263D01*
X171224691Y-143985267D01*
X171104983Y-144104975D01*
X171104979Y-144104980D01*
X171005483Y-144241926D01*
X170928627Y-144392761D01*
X170876312Y-144553767D01*
X170849831Y-144720965D01*
X170849831Y-144890265D01*
X170870944Y-145023571D01*
X170861989Y-145092864D01*
X170816993Y-145146316D01*
X170750241Y-145166955D01*
X170729074Y-145165441D01*
X170595769Y-145144328D01*
X170595762Y-145144328D01*
X170426474Y-145144328D01*
X170426469Y-145144328D01*
X170259270Y-145170809D01*
X170098264Y-145223124D01*
X169947429Y-145299980D01*
X169810483Y-145399476D01*
X169810478Y-145399480D01*
X169690770Y-145519188D01*
X169690766Y-145519193D01*
X169591270Y-145656139D01*
X169514414Y-145806974D01*
X169462099Y-145967980D01*
X169435618Y-146135178D01*
X169435618Y-146304477D01*
X169456732Y-146437785D01*
X169447777Y-146507078D01*
X169402781Y-146560530D01*
X169336030Y-146581170D01*
X169314861Y-146579656D01*
X169181553Y-146558542D01*
X169181548Y-146558542D01*
X169012260Y-146558542D01*
X169012255Y-146558542D01*
X168845056Y-146585023D01*
X168684050Y-146637338D01*
X168533215Y-146714194D01*
X168396269Y-146813690D01*
X168396264Y-146813694D01*
X168276556Y-146933402D01*
X168276552Y-146933407D01*
X168177056Y-147070353D01*
X168100200Y-147221188D01*
X168047885Y-147382194D01*
X168021404Y-147549392D01*
X168021404Y-147718692D01*
X168042517Y-147851998D01*
X168033562Y-147921291D01*
X167988566Y-147974743D01*
X167921814Y-147995382D01*
X167900647Y-147993868D01*
X167767342Y-147972755D01*
X167767335Y-147972755D01*
X167598047Y-147972755D01*
X167598042Y-147972755D01*
X167430843Y-147999236D01*
X167269837Y-148051551D01*
X167119002Y-148128407D01*
X166982056Y-148227903D01*
X166982051Y-148227907D01*
X166862343Y-148347615D01*
X166862339Y-148347620D01*
X166762843Y-148484566D01*
X166685987Y-148635401D01*
X166633672Y-148796407D01*
X166607191Y-148963605D01*
X166607191Y-149132904D01*
X166628305Y-149266212D01*
X166619350Y-149335505D01*
X166574354Y-149388957D01*
X166507603Y-149409597D01*
X166486434Y-149408083D01*
X166353126Y-149386969D01*
X166353121Y-149386969D01*
X166183833Y-149386969D01*
X166183828Y-149386969D01*
X166016629Y-149413450D01*
X165855623Y-149465765D01*
X165704788Y-149542621D01*
X165567842Y-149642117D01*
X165567837Y-149642121D01*
X165448129Y-149761829D01*
X165448125Y-149761834D01*
X165348629Y-149898780D01*
X165271773Y-150049615D01*
X165219458Y-150210621D01*
X165192977Y-150377819D01*
X165192977Y-150547119D01*
X165214090Y-150680425D01*
X165205135Y-150749718D01*
X165160139Y-150803170D01*
X165093387Y-150823809D01*
X165072220Y-150822295D01*
X164938915Y-150801182D01*
X164938908Y-150801182D01*
X164769620Y-150801182D01*
X164769615Y-150801182D01*
X164602416Y-150827663D01*
X164441410Y-150879978D01*
X164290575Y-150956834D01*
X164153629Y-151056330D01*
X164153624Y-151056334D01*
X164033916Y-151176042D01*
X164033912Y-151176047D01*
X163934416Y-151312993D01*
X163857560Y-151463828D01*
X163805245Y-151624834D01*
X163778764Y-151792032D01*
X163778764Y-151961327D01*
X163783512Y-151991309D01*
X163774555Y-152060603D01*
X163729558Y-152114054D01*
X163662806Y-152134692D01*
X163641640Y-152133178D01*
X163532524Y-152115896D01*
X163347576Y-152115896D01*
X163164902Y-152144829D01*
X162989008Y-152201980D01*
X162824211Y-152285949D01*
X162803619Y-152300910D01*
X162803619Y-152300911D01*
X163623414Y-153120706D01*
X163617199Y-153120706D01*
X163515466Y-153147965D01*
X163424254Y-153200626D01*
X163349780Y-153275100D01*
X163297119Y-153366312D01*
X163269860Y-153468045D01*
X163269860Y-153474260D01*
X162450065Y-152654465D01*
X162450064Y-152654465D01*
X162435103Y-152675057D01*
X162351134Y-152839854D01*
X162293983Y-153015748D01*
X162265050Y-153198421D01*
X159533892Y-153198421D01*
X159533892Y-153049654D01*
X159553577Y-152982615D01*
X159570211Y-152961973D01*
X160511663Y-152020520D01*
X160511666Y-152020517D01*
X160528325Y-151997589D01*
X160567480Y-151943698D01*
X160606684Y-151823041D01*
X160606684Y-151696175D01*
X160567480Y-151575518D01*
X160532134Y-151526868D01*
X160511671Y-151498702D01*
X160511669Y-151498700D01*
X159194304Y-150181336D01*
X159194301Y-150181333D01*
X159117483Y-150125520D01*
X159023522Y-150094990D01*
X158965847Y-150055552D01*
X158938649Y-149991193D01*
X158937841Y-149977059D01*
X158937841Y-147565260D01*
X158957526Y-147498221D01*
X159005547Y-147454775D01*
X159018951Y-147447946D01*
X159184560Y-147327625D01*
X159329307Y-147182878D01*
X159329309Y-147182874D01*
X159329312Y-147182872D01*
X159398387Y-147087797D01*
X159449628Y-147017269D01*
X159542561Y-146834878D01*
X159605818Y-146640193D01*
X159637841Y-146438011D01*
X159637841Y-146233307D01*
X159631661Y-146194291D01*
X159640615Y-146125002D01*
X159685610Y-146071550D01*
X159752361Y-146050909D01*
X159819675Y-146069633D01*
X159841815Y-146087215D01*
X159872482Y-146117882D01*
X159949300Y-146173695D01*
X159949301Y-146173695D01*
X159949302Y-146173696D01*
X160069959Y-146212900D01*
X160069960Y-146212900D01*
X160196824Y-146212900D01*
X160196825Y-146212900D01*
X160317482Y-146173696D01*
X160394301Y-146117884D01*
X161711666Y-144800517D01*
X161767480Y-144723698D01*
X161806684Y-144603041D01*
X161806684Y-144476175D01*
X161767480Y-144355518D01*
X161743795Y-144322918D01*
X161711671Y-144278702D01*
X161711669Y-144278700D01*
X160394304Y-142961336D01*
X160394301Y-142961333D01*
X160317483Y-142905520D01*
X160196826Y-142866316D01*
X160196825Y-142866316D01*
X160069959Y-142866316D01*
X160069957Y-142866316D01*
X159949302Y-142905520D01*
X159949300Y-142905521D01*
X159872486Y-142961328D01*
X159872484Y-142961330D01*
X158555120Y-144278695D01*
X158555117Y-144278698D01*
X158499304Y-144355516D01*
X158460100Y-144476173D01*
X158460100Y-144476175D01*
X158460100Y-144603041D01*
X158499304Y-144723698D01*
X158499305Y-144723699D01*
X158555110Y-144800510D01*
X158555113Y-144800513D01*
X158555116Y-144800517D01*
X158585784Y-144831185D01*
X158619268Y-144892504D01*
X158614284Y-144962196D01*
X158572414Y-145018130D01*
X158506950Y-145042548D01*
X158478707Y-145041338D01*
X158465878Y-145039306D01*
X158439693Y-145035159D01*
X158234989Y-145035159D01*
X158210670Y-145039010D01*
X158032806Y-145067181D01*
X157838117Y-145130440D01*
X157655727Y-145223374D01*
X157490127Y-145343687D01*
X157345369Y-145488445D01*
X157225056Y-145654045D01*
X157132122Y-145836435D01*
X157068863Y-146031124D01*
X157036841Y-146233307D01*
X157036841Y-146438010D01*
X157068863Y-146640193D01*
X157132122Y-146834882D01*
X157225056Y-147017272D01*
X157345369Y-147182872D01*
X157345375Y-147182878D01*
X157490122Y-147327625D01*
X157655731Y-147447946D01*
X157669134Y-147454775D01*
X157719930Y-147502747D01*
X157736841Y-147565260D01*
X157736841Y-151065613D01*
X157717156Y-151132652D01*
X157700522Y-151153294D01*
X157355115Y-151498701D01*
X157299304Y-151575516D01*
X157260100Y-151696173D01*
X157260100Y-151823042D01*
X157268317Y-151848330D01*
X157299304Y-151943698D01*
X157299305Y-151943699D01*
X157355110Y-152020510D01*
X157355113Y-152020513D01*
X157355116Y-152020517D01*
X157385784Y-152051185D01*
X157419268Y-152112504D01*
X157414284Y-152182196D01*
X157372414Y-152238130D01*
X157306950Y-152262548D01*
X157278707Y-152261338D01*
X157265878Y-152259306D01*
X157239693Y-152255159D01*
X157034989Y-152255159D01*
X157010670Y-152259010D01*
X156832806Y-152287181D01*
X156638117Y-152350440D01*
X156455727Y-152443374D01*
X156290127Y-152563687D01*
X156145369Y-152708445D01*
X156025056Y-152874045D01*
X155932122Y-153056435D01*
X155868863Y-153251124D01*
X155836841Y-153453307D01*
X155836841Y-153658010D01*
X155868863Y-153860193D01*
X155932122Y-154054882D01*
X156025056Y-154237272D01*
X156145369Y-154402872D01*
X156290127Y-154547630D01*
X156426568Y-154646758D01*
X156455731Y-154667946D01*
X156571948Y-154727162D01*
X156638117Y-154760877D01*
X156638119Y-154760877D01*
X156638122Y-154760879D01*
X156742478Y-154794786D01*
X156832806Y-154824136D01*
X156910831Y-154836494D01*
X157034989Y-154856159D01*
X157034990Y-154856159D01*
X157239692Y-154856159D01*
X157239693Y-154856159D01*
X157441875Y-154824136D01*
X157441880Y-154824134D01*
X157441882Y-154824134D01*
X157463414Y-154817138D01*
X157533255Y-154815141D01*
X157593088Y-154851221D01*
X157623917Y-154913921D01*
X157615954Y-154983335D01*
X157589415Y-155022749D01*
X155284212Y-157327951D01*
X155284208Y-157327956D01*
X155243360Y-157398709D01*
X155243360Y-157398710D01*
X155205154Y-157464883D01*
X155205154Y-157464884D01*
X155164230Y-157617612D01*
X155164230Y-157617614D01*
X155164230Y-157785715D01*
X155164231Y-157785728D01*
X155164231Y-159666668D01*
X155144546Y-159733707D01*
X155113116Y-159766986D01*
X155090128Y-159783687D01*
X155090123Y-159783691D01*
X154945369Y-159928445D01*
X154825056Y-160094045D01*
X154732122Y-160276435D01*
X154668863Y-160471124D01*
X154636841Y-160673307D01*
X154636841Y-160878010D01*
X154668863Y-161080193D01*
X154732122Y-161274882D01*
X154787719Y-161383995D01*
X154806225Y-161420316D01*
X154825056Y-161457272D01*
X154945369Y-161622872D01*
X154945375Y-161622878D01*
X155090122Y-161767625D01*
X155255731Y-161887946D01*
X155269134Y-161894775D01*
X155319930Y-161942747D01*
X155336841Y-162005260D01*
X155336841Y-165505613D01*
X155317156Y-165572652D01*
X155300522Y-165593294D01*
X154955115Y-165938701D01*
X154899304Y-166015516D01*
X154860100Y-166136173D01*
X154860100Y-166263042D01*
X154879702Y-166323369D01*
X154899304Y-166383698D01*
X154899305Y-166383699D01*
X154955110Y-166460510D01*
X154955113Y-166460513D01*
X154955116Y-166460517D01*
X154985784Y-166491185D01*
X155019268Y-166552504D01*
X155014284Y-166622196D01*
X154972414Y-166678130D01*
X154906950Y-166702548D01*
X154878707Y-166701338D01*
X154865878Y-166699306D01*
X154839693Y-166695159D01*
X154634989Y-166695159D01*
X154610670Y-166699010D01*
X154432806Y-166727181D01*
X154238117Y-166790440D01*
X154055727Y-166883374D01*
X153890127Y-167003687D01*
X153745369Y-167148445D01*
X153625056Y-167314045D01*
X153532122Y-167496435D01*
X153468863Y-167691124D01*
X153436841Y-167893307D01*
X153436841Y-168098010D01*
X153468863Y-168300193D01*
X153532122Y-168494882D01*
X153625056Y-168677272D01*
X153745369Y-168842872D01*
X153890127Y-168987630D01*
X154043349Y-169098950D01*
X154055731Y-169107946D01*
X154141723Y-169151761D01*
X154238117Y-169200877D01*
X154238119Y-169200877D01*
X154238122Y-169200879D01*
X154342478Y-169234786D01*
X154432806Y-169264136D01*
X154533898Y-169280147D01*
X154634989Y-169296159D01*
X154634990Y-169296159D01*
X154839692Y-169296159D01*
X154839693Y-169296159D01*
X155041875Y-169264136D01*
X155204380Y-169211334D01*
X155274218Y-169209340D01*
X155334051Y-169245420D01*
X155364880Y-169308120D01*
X155356916Y-169377535D01*
X155330377Y-169416947D01*
X153084194Y-171663129D01*
X153084186Y-171663137D01*
X153081597Y-171665727D01*
X153081595Y-171665729D01*
X152969791Y-171777533D01*
X152952373Y-171807703D01*
X152946067Y-171818624D01*
X152946067Y-171818625D01*
X152932957Y-171841333D01*
X152890734Y-171914464D01*
X152849810Y-172067192D01*
X152849810Y-172067194D01*
X152849810Y-172235295D01*
X152849811Y-172235308D01*
X152849811Y-174044491D01*
X152830126Y-174111530D01*
X152798696Y-174144809D01*
X152690128Y-174223687D01*
X152690123Y-174223691D01*
X152545369Y-174368445D01*
X152425056Y-174534045D01*
X152332122Y-174716435D01*
X152268863Y-174911124D01*
X152236841Y-175113307D01*
X152236841Y-175318010D01*
X152268863Y-175520193D01*
X152332122Y-175714882D01*
X152396032Y-175840312D01*
X152423229Y-175893688D01*
X152425056Y-175897272D01*
X152545369Y-176062872D01*
X152545375Y-176062878D01*
X152690122Y-176207625D01*
X152855731Y-176327946D01*
X152869134Y-176334775D01*
X152919930Y-176382747D01*
X152936841Y-176445260D01*
X152936841Y-179945613D01*
X152917156Y-180012652D01*
X152900522Y-180033294D01*
X152555115Y-180378701D01*
X152499304Y-180455516D01*
X152460100Y-180576173D01*
X152460100Y-180703042D01*
X152479702Y-180763369D01*
X152499304Y-180823698D01*
X152499305Y-180823699D01*
X152555110Y-180900510D01*
X152555113Y-180900513D01*
X152555116Y-180900517D01*
X152585784Y-180931185D01*
X152619268Y-180992504D01*
X152614284Y-181062196D01*
X152572414Y-181118130D01*
X152506950Y-181142548D01*
X152478707Y-181141338D01*
X152465878Y-181139306D01*
X152439693Y-181135159D01*
X152234989Y-181135159D01*
X152210670Y-181139010D01*
X152032806Y-181167181D01*
X151838117Y-181230440D01*
X151655727Y-181323374D01*
X151490127Y-181443687D01*
X151345369Y-181588445D01*
X151225056Y-181754045D01*
X151132122Y-181936435D01*
X151068864Y-182131123D01*
X151036841Y-182333307D01*
X151036841Y-182538010D01*
X151068863Y-182740193D01*
X151132122Y-182934882D01*
X151225056Y-183117272D01*
X151345369Y-183282872D01*
X151490127Y-183427630D01*
X151645090Y-183540215D01*
X151655731Y-183547946D01*
X151748710Y-183595321D01*
X151838117Y-183640877D01*
X151838119Y-183640877D01*
X151838122Y-183640879D01*
X151942478Y-183674786D01*
X152032806Y-183704136D01*
X152133898Y-183720147D01*
X152234989Y-183736159D01*
X152234990Y-183736159D01*
X152439692Y-183736159D01*
X152439693Y-183736159D01*
X152641875Y-183704136D01*
X152836560Y-183640879D01*
X153018951Y-183547946D01*
X153113918Y-183478949D01*
X153184554Y-183427630D01*
X153184556Y-183427627D01*
X153184560Y-183427625D01*
X153321211Y-183290974D01*
X153340647Y-183280361D01*
X153357381Y-183265861D01*
X153370712Y-183263944D01*
X153382534Y-183257489D01*
X153404620Y-183259068D01*
X153426539Y-183255917D01*
X153438790Y-183261512D01*
X153452226Y-183262473D01*
X153469952Y-183275743D01*
X153490095Y-183284942D01*
X153497377Y-183296273D01*
X153508159Y-183304345D01*
X153515896Y-183325090D01*
X153527869Y-183343720D01*
X153531020Y-183365638D01*
X153532576Y-183369809D01*
X153532892Y-183378655D01*
X153532892Y-183411910D01*
X153513207Y-183478949D01*
X153496573Y-183499591D01*
X150521712Y-186474451D01*
X150521710Y-186474454D01*
X150471592Y-186561263D01*
X150471590Y-186561265D01*
X150442656Y-186611378D01*
X150442655Y-186611379D01*
X150442654Y-186611384D01*
X150401730Y-186764112D01*
X150401730Y-186764114D01*
X150401730Y-186932215D01*
X150401731Y-186932228D01*
X150401731Y-188519422D01*
X150382046Y-188586461D01*
X150350618Y-188619739D01*
X150290122Y-188663692D01*
X150145369Y-188808445D01*
X150025056Y-188974045D01*
X149932122Y-189156435D01*
X149868863Y-189351124D01*
X149836841Y-189553307D01*
X149836841Y-189758010D01*
X149868863Y-189960193D01*
X149932122Y-190154882D01*
X150025056Y-190337272D01*
X150145369Y-190502872D01*
X150145375Y-190502878D01*
X150290122Y-190647625D01*
X150455731Y-190767946D01*
X150469134Y-190774775D01*
X150519930Y-190822747D01*
X150536841Y-190885260D01*
X150536841Y-194385613D01*
X150517156Y-194452652D01*
X150500522Y-194473294D01*
X150155115Y-194818701D01*
X150099304Y-194895516D01*
X150060100Y-195016173D01*
X150060100Y-195016175D01*
X150060100Y-195143041D01*
X150099304Y-195263698D01*
X150099305Y-195263699D01*
X150155110Y-195340510D01*
X150155113Y-195340513D01*
X150155116Y-195340517D01*
X150185784Y-195371185D01*
X150219268Y-195432504D01*
X150214284Y-195502196D01*
X150172414Y-195558130D01*
X150106950Y-195582548D01*
X150078707Y-195581338D01*
X150065878Y-195579306D01*
X150039693Y-195575159D01*
X149834989Y-195575159D01*
X149810670Y-195579010D01*
X149632806Y-195607181D01*
X149438117Y-195670440D01*
X149255727Y-195763374D01*
X149090127Y-195883687D01*
X148945369Y-196028445D01*
X148825056Y-196194045D01*
X148732122Y-196376435D01*
X148668863Y-196571124D01*
X148636841Y-196773307D01*
X148636841Y-196978010D01*
X148668863Y-197180193D01*
X148732122Y-197374882D01*
X148796032Y-197500312D01*
X148798310Y-197504782D01*
X148825056Y-197557272D01*
X148945369Y-197722872D01*
X149090127Y-197867630D01*
X149219346Y-197961511D01*
X149255731Y-197987946D01*
X149335101Y-198028387D01*
X149438117Y-198080877D01*
X149438119Y-198080877D01*
X149438122Y-198080879D01*
X149510543Y-198104410D01*
X149632806Y-198144136D01*
X149733898Y-198160147D01*
X149834989Y-198176159D01*
X149834990Y-198176159D01*
X150039692Y-198176159D01*
X150039693Y-198176159D01*
X150214453Y-198148479D01*
X150283745Y-198157433D01*
X150337197Y-198202429D01*
X150357837Y-198269181D01*
X150339112Y-198336495D01*
X150321531Y-198358633D01*
X147981712Y-200698451D01*
X147981710Y-200698454D01*
X147931592Y-200785263D01*
X147931590Y-200785265D01*
X147902656Y-200835378D01*
X147902655Y-200835379D01*
X147902654Y-200835384D01*
X147861730Y-200988112D01*
X147861730Y-200988114D01*
X147861730Y-201156215D01*
X147861731Y-201156228D01*
X147861731Y-203080722D01*
X147842046Y-203147761D01*
X147825412Y-203168403D01*
X147745373Y-203248441D01*
X147745369Y-203248445D01*
X147625056Y-203414045D01*
X147532122Y-203596435D01*
X147468863Y-203791124D01*
X147436841Y-203993307D01*
X147436841Y-204198010D01*
X147468863Y-204400193D01*
X147532122Y-204594882D01*
X147625056Y-204777272D01*
X147745369Y-204942872D01*
X147745375Y-204942878D01*
X147890122Y-205087625D01*
X148055731Y-205207946D01*
X148069134Y-205214775D01*
X148119930Y-205262747D01*
X148136841Y-205325260D01*
X148136841Y-208825613D01*
X148117156Y-208892652D01*
X148100522Y-208913294D01*
X147755115Y-209258701D01*
X147699304Y-209335516D01*
X147660100Y-209456173D01*
X147660100Y-209583042D01*
X147679702Y-209643369D01*
X147699304Y-209703698D01*
X147699305Y-209703699D01*
X147755110Y-209780510D01*
X147755113Y-209780513D01*
X147755116Y-209780517D01*
X147785784Y-209811185D01*
X147819268Y-209872504D01*
X147814284Y-209942196D01*
X147772414Y-209998130D01*
X147706950Y-210022548D01*
X147678707Y-210021338D01*
X147665878Y-210019306D01*
X147639693Y-210015159D01*
X147434989Y-210015159D01*
X147410670Y-210019010D01*
X147232806Y-210047181D01*
X147038117Y-210110440D01*
X146855727Y-210203374D01*
X146690127Y-210323687D01*
X146545369Y-210468445D01*
X146425056Y-210634045D01*
X146332122Y-210816435D01*
X146268863Y-211011124D01*
X146236841Y-211213307D01*
X146236841Y-211418010D01*
X146268863Y-211620193D01*
X146332122Y-211814882D01*
X146425056Y-211997272D01*
X146545369Y-212162872D01*
X146690127Y-212307630D01*
X146831717Y-212410499D01*
X146855731Y-212427946D01*
X146971948Y-212487162D01*
X147038117Y-212520877D01*
X147038119Y-212520877D01*
X147038122Y-212520879D01*
X147142478Y-212554786D01*
X147232806Y-212584136D01*
X147333898Y-212600147D01*
X147434989Y-212616159D01*
X147434990Y-212616159D01*
X147639692Y-212616159D01*
X147639693Y-212616159D01*
X147841875Y-212584136D01*
X148036560Y-212520879D01*
X148203227Y-212435957D01*
X148271894Y-212423062D01*
X148336634Y-212449338D01*
X148376892Y-212506444D01*
X148379884Y-212576250D01*
X148347201Y-212634124D01*
X145695712Y-215285612D01*
X145695711Y-215285614D01*
X145647959Y-215368325D01*
X145645592Y-215372424D01*
X145645590Y-215372426D01*
X145616656Y-215422539D01*
X145616655Y-215422540D01*
X145616654Y-215422545D01*
X145575730Y-215575273D01*
X145575730Y-215575275D01*
X145575730Y-215743376D01*
X145575731Y-215743389D01*
X145575731Y-217418313D01*
X145556046Y-217485352D01*
X145524617Y-217518630D01*
X145490128Y-217543688D01*
X145490119Y-217543695D01*
X145345369Y-217688445D01*
X145225056Y-217854045D01*
X145132122Y-218036435D01*
X145068863Y-218231124D01*
X145036841Y-218433307D01*
X145036841Y-218638010D01*
X145068863Y-218840193D01*
X145132122Y-219034882D01*
X145225056Y-219217272D01*
X145345369Y-219382872D01*
X145490127Y-219527630D01*
X145639905Y-219636448D01*
X145655731Y-219647946D01*
X145771948Y-219707162D01*
X145838117Y-219740877D01*
X145838119Y-219740877D01*
X145838122Y-219740879D01*
X145942478Y-219774786D01*
X146032806Y-219804136D01*
X146133898Y-219820147D01*
X146234989Y-219836159D01*
X146234990Y-219836159D01*
X146439692Y-219836159D01*
X146439693Y-219836159D01*
X146641875Y-219804136D01*
X146836560Y-219740879D01*
X147018951Y-219647946D01*
X147111931Y-219580391D01*
X147184554Y-219527630D01*
X147184556Y-219527627D01*
X147184560Y-219527625D01*
X147321211Y-219390974D01*
X147340647Y-219380361D01*
X147357381Y-219365861D01*
X147370712Y-219363944D01*
X147382534Y-219357489D01*
X147404620Y-219359068D01*
X147426539Y-219355917D01*
X147438790Y-219361512D01*
X147452226Y-219362473D01*
X147469952Y-219375743D01*
X147490095Y-219384942D01*
X147497377Y-219396273D01*
X147508159Y-219404345D01*
X147515896Y-219425090D01*
X147527869Y-219443720D01*
X147531020Y-219465638D01*
X147532576Y-219469809D01*
X147532892Y-219478655D01*
X147532892Y-219636448D01*
X147532891Y-219636466D01*
X147532891Y-219802172D01*
X147532890Y-219802172D01*
X147573815Y-219954903D01*
X147599820Y-219999945D01*
X147599822Y-219999947D01*
X147652871Y-220091832D01*
X147652873Y-220091835D01*
X147771741Y-220210703D01*
X147771747Y-220210708D01*
X148362941Y-220801903D01*
X148396426Y-220863226D01*
X148391442Y-220932918D01*
X148362943Y-220977264D01*
X148335383Y-221004824D01*
X148335382Y-221004826D01*
X148335381Y-221004827D01*
X148322106Y-221030881D01*
X148277783Y-221117867D01*
X148262931Y-221211644D01*
X148262931Y-223074687D01*
X148273854Y-223143653D01*
X148264898Y-223212946D01*
X148219901Y-223266398D01*
X148153149Y-223287036D01*
X148085835Y-223268310D01*
X148063699Y-223250730D01*
X147194304Y-222381336D01*
X147194301Y-222381333D01*
X147117483Y-222325520D01*
X146996826Y-222286316D01*
X146996825Y-222286316D01*
X146869959Y-222286316D01*
X146869957Y-222286316D01*
X146749302Y-222325520D01*
X146749300Y-222325521D01*
X146672486Y-222381328D01*
X146672484Y-222381330D01*
X145355120Y-223698695D01*
X145355117Y-223698698D01*
X145299304Y-223775516D01*
X145260100Y-223896173D01*
X145260100Y-223896175D01*
X145260100Y-224023041D01*
X145299304Y-224143698D01*
X145299305Y-224143699D01*
X145355110Y-224220510D01*
X145355113Y-224220513D01*
X145355116Y-224220517D01*
X145385784Y-224251185D01*
X145419268Y-224312504D01*
X145414284Y-224382196D01*
X145372414Y-224438130D01*
X145306950Y-224462548D01*
X145278707Y-224461338D01*
X145265878Y-224459306D01*
X145239693Y-224455159D01*
X145034989Y-224455159D01*
X145010670Y-224459010D01*
X144832806Y-224487181D01*
X144638117Y-224550440D01*
X144455727Y-224643374D01*
X144290127Y-224763687D01*
X144145369Y-224908445D01*
X144025056Y-225074045D01*
X143932122Y-225256435D01*
X143868863Y-225451124D01*
X143836841Y-225653307D01*
X143836841Y-225858010D01*
X143868863Y-226060193D01*
X143932122Y-226254882D01*
X144025056Y-226437272D01*
X144145369Y-226602872D01*
X144290127Y-226747630D01*
X144445090Y-226860215D01*
X144455731Y-226867946D01*
X144571948Y-226927162D01*
X144638117Y-226960877D01*
X144638119Y-226960877D01*
X144638122Y-226960879D01*
X144742478Y-226994786D01*
X144832806Y-227024136D01*
X144933898Y-227040147D01*
X145034989Y-227056159D01*
X145034990Y-227056159D01*
X145239692Y-227056159D01*
X145239693Y-227056159D01*
X145441875Y-227024136D01*
X145636560Y-226960879D01*
X145818951Y-226867946D01*
X145911931Y-226800391D01*
X145984554Y-226747630D01*
X145984556Y-226747627D01*
X145984560Y-226747625D01*
X146129307Y-226602878D01*
X146129309Y-226602874D01*
X146129312Y-226602872D01*
X146182073Y-226530249D01*
X146249628Y-226437269D01*
X146342561Y-226254878D01*
X146405818Y-226060193D01*
X146437841Y-225858011D01*
X146437841Y-225653307D01*
X146431661Y-225614291D01*
X146440615Y-225545002D01*
X146485610Y-225491550D01*
X146552361Y-225470909D01*
X146619675Y-225489633D01*
X146641815Y-225507215D01*
X146672482Y-225537882D01*
X146749300Y-225593695D01*
X146749301Y-225593695D01*
X146749302Y-225593696D01*
X146869959Y-225632900D01*
X146869960Y-225632900D01*
X146996824Y-225632900D01*
X146996825Y-225632900D01*
X147117482Y-225593696D01*
X147194301Y-225537884D01*
X148511666Y-224220517D01*
X148567480Y-224143698D01*
X148606684Y-224023041D01*
X148606684Y-223896175D01*
X148567480Y-223775518D01*
X148545155Y-223744790D01*
X148511671Y-223698702D01*
X148455870Y-223642901D01*
X148422385Y-223581578D01*
X148427369Y-223511886D01*
X148469241Y-223455953D01*
X148534705Y-223431536D01*
X148562949Y-223432747D01*
X148631906Y-223443668D01*
X148631912Y-223443669D01*
X150494949Y-223443668D01*
X150588735Y-223428815D01*
X150701773Y-223371219D01*
X150791481Y-223281511D01*
X150849077Y-223168473D01*
X150849077Y-223168471D01*
X150849078Y-223168470D01*
X150863930Y-223074694D01*
X150863931Y-223074688D01*
X150863930Y-223031318D01*
X150883613Y-222964282D01*
X150936416Y-222918526D01*
X151005574Y-222908581D01*
X151069131Y-222937604D01*
X151088248Y-222958434D01*
X151111459Y-222990381D01*
X151111463Y-222990386D01*
X151111465Y-222990388D01*
X151256212Y-223135135D01*
X151421821Y-223255456D01*
X151435224Y-223262285D01*
X151486020Y-223310257D01*
X151502931Y-223372770D01*
X151502931Y-224354671D01*
X151483246Y-224421710D01*
X151466612Y-224442352D01*
X146238046Y-229670917D01*
X146176723Y-229704402D01*
X146107031Y-229699418D01*
X146062685Y-229670918D01*
X145916301Y-229524534D01*
X145916298Y-229524531D01*
X145839483Y-229468720D01*
X145718826Y-229429516D01*
X145718825Y-229429516D01*
X145591959Y-229429516D01*
X145591957Y-229429516D01*
X145471302Y-229468720D01*
X145471300Y-229468721D01*
X145394486Y-229524528D01*
X145394484Y-229524530D01*
X144077120Y-230841895D01*
X144077117Y-230841898D01*
X144021304Y-230918716D01*
X143982100Y-231039373D01*
X143982100Y-231039375D01*
X143982100Y-231166241D01*
X144021304Y-231286898D01*
X144021305Y-231286899D01*
X144077110Y-231363710D01*
X144077113Y-231363713D01*
X144077116Y-231363717D01*
X144107784Y-231394385D01*
X144141268Y-231455704D01*
X144136284Y-231525396D01*
X144094414Y-231581330D01*
X144028950Y-231605748D01*
X144000707Y-231604538D01*
X143987878Y-231602506D01*
X143961693Y-231598359D01*
X143756989Y-231598359D01*
X143732670Y-231602210D01*
X143554806Y-231630381D01*
X143360117Y-231693640D01*
X143177727Y-231786574D01*
X143012127Y-231906887D01*
X142867369Y-232051645D01*
X142747056Y-232217245D01*
X142654122Y-232399635D01*
X142590863Y-232594324D01*
X142558841Y-232796507D01*
X140432274Y-232796507D01*
X140429234Y-232776099D01*
X140381443Y-232455296D01*
X140380281Y-232443874D01*
X140358469Y-232047983D01*
X140358371Y-232036508D01*
X140373356Y-231640307D01*
X140374324Y-231628844D01*
X140378330Y-231598359D01*
X140426727Y-231230044D01*
X140438334Y-231165182D01*
X140436163Y-231139625D01*
X140437404Y-231127881D01*
X140438158Y-231126050D01*
X140438365Y-231120764D01*
X154003966Y-148740897D01*
X154007047Y-148727129D01*
X154007642Y-148725033D01*
X154007646Y-148725026D01*
X154016476Y-148665022D01*
X154016777Y-148663093D01*
X154017570Y-148658277D01*
X154018073Y-148655436D01*
X154080396Y-148326563D01*
X154082704Y-148316638D01*
X154171674Y-147994611D01*
X154174789Y-147984910D01*
X154289931Y-147671268D01*
X154293818Y-147661890D01*
X154434360Y-147358749D01*
X154439008Y-147349716D01*
X154603976Y-147059172D01*
X154609369Y-147050525D01*
X154689267Y-146933407D01*
X154797658Y-146774522D01*
X154803719Y-146766379D01*
X155007617Y-146514729D01*
X155016010Y-146505385D01*
X160785739Y-140704134D01*
X162028939Y-140704134D01*
X162028939Y-140704136D01*
X162028939Y-140831002D01*
X162068143Y-140951659D01*
X162068144Y-140951660D01*
X162123951Y-141028474D01*
X162123953Y-141028476D01*
X163441318Y-142345840D01*
X163441321Y-142345843D01*
X163518139Y-142401656D01*
X163518140Y-142401656D01*
X163518141Y-142401657D01*
X163638798Y-142440861D01*
X163638799Y-142440861D01*
X163765663Y-142440861D01*
X163765664Y-142440861D01*
X163886321Y-142401657D01*
X163963140Y-142345845D01*
X164904596Y-141404387D01*
X164965919Y-141370903D01*
X164992277Y-141368069D01*
X166765162Y-141368069D01*
X166765178Y-141368070D01*
X166772774Y-141368070D01*
X166930885Y-141368070D01*
X166930888Y-141368070D01*
X167083616Y-141327146D01*
X167083618Y-141327144D01*
X167083620Y-141327144D01*
X167083621Y-141327143D01*
X167133903Y-141298113D01*
X167133904Y-141298112D01*
X167220547Y-141248089D01*
X167332351Y-141136285D01*
X167332351Y-141136283D01*
X167342555Y-141126080D01*
X167342558Y-141126075D01*
X169312148Y-139156488D01*
X169373471Y-139123003D01*
X169399829Y-139120169D01*
X170289084Y-139120169D01*
X170356123Y-139139854D01*
X170401878Y-139192658D01*
X170411822Y-139261816D01*
X170382797Y-139325372D01*
X170376765Y-139331850D01*
X169201956Y-140506659D01*
X169146143Y-140583477D01*
X169106939Y-140704134D01*
X169106939Y-140704136D01*
X169106939Y-140831002D01*
X169146143Y-140951659D01*
X169146144Y-140951660D01*
X169201951Y-141028474D01*
X169201953Y-141028476D01*
X170519318Y-142345840D01*
X170519321Y-142345843D01*
X170596139Y-142401656D01*
X170596140Y-142401656D01*
X170596141Y-142401657D01*
X170716798Y-142440861D01*
X170716799Y-142440861D01*
X170843663Y-142440861D01*
X170843664Y-142440861D01*
X170964321Y-142401657D01*
X171041140Y-142345845D01*
X172358505Y-141028478D01*
X172414319Y-140951659D01*
X172453523Y-140831002D01*
X172453523Y-140704136D01*
X172414319Y-140583479D01*
X172388619Y-140548106D01*
X172358512Y-140506666D01*
X172358508Y-140506662D01*
X172358507Y-140506660D01*
X172327837Y-140475990D01*
X172294354Y-140414672D01*
X172299338Y-140344980D01*
X172341208Y-140289046D01*
X172406672Y-140264628D01*
X172434917Y-140265838D01*
X172473930Y-140272018D01*
X172473931Y-140272018D01*
X172678633Y-140272018D01*
X172678634Y-140272018D01*
X172880816Y-140239995D01*
X173075501Y-140176738D01*
X173257892Y-140083805D01*
X173350872Y-140016250D01*
X173423495Y-139963489D01*
X173423497Y-139963486D01*
X173423501Y-139963484D01*
X173568248Y-139818737D01*
X173568250Y-139818733D01*
X173568253Y-139818731D01*
X173621014Y-139746108D01*
X173688569Y-139653128D01*
X173781502Y-139470737D01*
X173844759Y-139276052D01*
X173876782Y-139073870D01*
X173876782Y-139049369D01*
X173896467Y-138982330D01*
X173949271Y-138936575D01*
X174000782Y-138925369D01*
X177578950Y-138925369D01*
X177645989Y-138945054D01*
X177691744Y-138997858D01*
X177701688Y-139067016D01*
X177672663Y-139130572D01*
X177651834Y-139149688D01*
X177597325Y-139189289D01*
X177597323Y-139189291D01*
X176279959Y-140506656D01*
X176279956Y-140506659D01*
X176224143Y-140583477D01*
X176184939Y-140704134D01*
X176184939Y-140704136D01*
X176184939Y-140831002D01*
X176224143Y-140951659D01*
X176224144Y-140951660D01*
X176279951Y-141028474D01*
X176279953Y-141028476D01*
X177597318Y-142345840D01*
X177597321Y-142345843D01*
X177674139Y-142401656D01*
X177674140Y-142401656D01*
X177674141Y-142401657D01*
X177794798Y-142440861D01*
X177794799Y-142440861D01*
X177921663Y-142440861D01*
X177921664Y-142440861D01*
X178042321Y-142401657D01*
X178119140Y-142345845D01*
X179060596Y-141404387D01*
X179121919Y-141370903D01*
X179148277Y-141368069D01*
X181497162Y-141368069D01*
X181497178Y-141368070D01*
X181504774Y-141368070D01*
X181662885Y-141368070D01*
X181662888Y-141368070D01*
X181815616Y-141327146D01*
X181815618Y-141327144D01*
X181815620Y-141327144D01*
X181815621Y-141327143D01*
X181865903Y-141298113D01*
X181865904Y-141298112D01*
X181952547Y-141248089D01*
X182064351Y-141136285D01*
X182064351Y-141136283D01*
X182074555Y-141126080D01*
X182074558Y-141126075D01*
X184044148Y-139156488D01*
X184105471Y-139123003D01*
X184131829Y-139120169D01*
X184445084Y-139120169D01*
X184512123Y-139139854D01*
X184557878Y-139192658D01*
X184567822Y-139261816D01*
X184538797Y-139325372D01*
X184532765Y-139331850D01*
X183357956Y-140506659D01*
X183302143Y-140583477D01*
X183262939Y-140704134D01*
X183262939Y-140704136D01*
X183262939Y-140831002D01*
X183302143Y-140951659D01*
X183302144Y-140951660D01*
X183357951Y-141028474D01*
X183357953Y-141028476D01*
X184675318Y-142345840D01*
X184675321Y-142345843D01*
X184752139Y-142401656D01*
X184752140Y-142401656D01*
X184752141Y-142401657D01*
X184872798Y-142440861D01*
X184872799Y-142440861D01*
X184999663Y-142440861D01*
X184999664Y-142440861D01*
X185120321Y-142401657D01*
X185197140Y-142345845D01*
X185259641Y-142283343D01*
X185320961Y-142249860D01*
X185390653Y-142254844D01*
X185446587Y-142296715D01*
X185471004Y-142362179D01*
X185471320Y-142371026D01*
X185471320Y-152002248D01*
X185451635Y-152069287D01*
X185435001Y-152089929D01*
X184049712Y-153475217D01*
X184049708Y-153475222D01*
X184008438Y-153546706D01*
X184008438Y-153546707D01*
X183970654Y-153612149D01*
X183967088Y-153625457D01*
X183929730Y-153764878D01*
X183929730Y-153764880D01*
X183929730Y-153932981D01*
X183929731Y-153932994D01*
X183929731Y-159487864D01*
X183910046Y-159554903D01*
X183908833Y-159556755D01*
X183845959Y-159650851D01*
X183845952Y-159650864D01*
X183793152Y-159778336D01*
X183793149Y-159778346D01*
X183766231Y-159913673D01*
X183766231Y-159913676D01*
X183766231Y-160051662D01*
X183766231Y-160051664D01*
X183766230Y-160051664D01*
X183793149Y-160186991D01*
X183793152Y-160187001D01*
X183845952Y-160314473D01*
X183845959Y-160314486D01*
X183922616Y-160429210D01*
X183922619Y-160429214D01*
X184020185Y-160526780D01*
X184020189Y-160526783D01*
X184134913Y-160603440D01*
X184134926Y-160603447D01*
X184254315Y-160652899D01*
X184262403Y-160656249D01*
X184262407Y-160656249D01*
X184262408Y-160656250D01*
X184397735Y-160683169D01*
X184397738Y-160683169D01*
X184535726Y-160683169D01*
X184626772Y-160665058D01*
X184671059Y-160656249D01*
X184798542Y-160603444D01*
X184913273Y-160526783D01*
X185010845Y-160429211D01*
X185087506Y-160314480D01*
X185140311Y-160186997D01*
X185158800Y-160094049D01*
X185167231Y-160051664D01*
X185167231Y-159913673D01*
X185147041Y-159812174D01*
X185140311Y-159778341D01*
X185140309Y-159778336D01*
X185140168Y-159777994D01*
X185140095Y-159777630D01*
X185138542Y-159772508D01*
X185139046Y-159772354D01*
X185130731Y-159730546D01*
X185130731Y-154144031D01*
X185150416Y-154076992D01*
X185167045Y-154056355D01*
X186440533Y-152782867D01*
X186440536Y-152782866D01*
X186552340Y-152671062D01*
X186602459Y-152584250D01*
X186631397Y-152534131D01*
X186672320Y-152381403D01*
X186672320Y-152223289D01*
X186672320Y-141824101D01*
X186631397Y-141671374D01*
X186631393Y-141671367D01*
X186552344Y-141534448D01*
X186552341Y-141534444D01*
X186552340Y-141534442D01*
X186440536Y-141422638D01*
X186440535Y-141422637D01*
X186436205Y-141418307D01*
X186436194Y-141418297D01*
X186368121Y-141350224D01*
X186334636Y-141288901D01*
X186339620Y-141219209D01*
X186368119Y-141174863D01*
X186514505Y-141028478D01*
X186570319Y-140951659D01*
X186609523Y-140831002D01*
X186609523Y-140704136D01*
X186570319Y-140583479D01*
X186544619Y-140548106D01*
X186514512Y-140506666D01*
X186514508Y-140506662D01*
X186514507Y-140506660D01*
X186483837Y-140475990D01*
X186450354Y-140414672D01*
X186455338Y-140344980D01*
X186497208Y-140289046D01*
X186562672Y-140264628D01*
X186590917Y-140265838D01*
X186629930Y-140272018D01*
X186629931Y-140272018D01*
X186834633Y-140272018D01*
X186834634Y-140272018D01*
X187036816Y-140239995D01*
X187231501Y-140176738D01*
X187413892Y-140083805D01*
X187506872Y-140016250D01*
X187579495Y-139963489D01*
X187579497Y-139963486D01*
X187579501Y-139963484D01*
X187724248Y-139818737D01*
X187724250Y-139818733D01*
X187724253Y-139818731D01*
X187844566Y-139653132D01*
X187844567Y-139653131D01*
X187844569Y-139653128D01*
X187851399Y-139639722D01*
X187899373Y-139588927D01*
X187961884Y-139572018D01*
X189918083Y-139572018D01*
X189985122Y-139591703D01*
X190005764Y-139608337D01*
X190582340Y-140184914D01*
X190615825Y-140246237D01*
X190610841Y-140315929D01*
X190582342Y-140360274D01*
X190527945Y-140414672D01*
X190435953Y-140506664D01*
X190380143Y-140583477D01*
X190340939Y-140704134D01*
X190340939Y-140704136D01*
X190340939Y-140831002D01*
X190380143Y-140951659D01*
X190380144Y-140951660D01*
X190435951Y-141028474D01*
X190435953Y-141028476D01*
X191753318Y-142345840D01*
X191753321Y-142345843D01*
X191830139Y-142401656D01*
X191830140Y-142401656D01*
X191830141Y-142401657D01*
X191950798Y-142440861D01*
X191950799Y-142440861D01*
X192077663Y-142440861D01*
X192077664Y-142440861D01*
X192198321Y-142401657D01*
X192275140Y-142345845D01*
X193216596Y-141404387D01*
X193277919Y-141370903D01*
X193304277Y-141368069D01*
X194730562Y-141368069D01*
X194730578Y-141368070D01*
X194738174Y-141368070D01*
X194896285Y-141368070D01*
X194896288Y-141368070D01*
X195049016Y-141327146D01*
X195049018Y-141327144D01*
X195049020Y-141327144D01*
X195049021Y-141327143D01*
X195099303Y-141298113D01*
X195099304Y-141298112D01*
X195185947Y-141248089D01*
X195297751Y-141136285D01*
X195297751Y-141136283D01*
X195307955Y-141126080D01*
X195307959Y-141126075D01*
X195620237Y-140813797D01*
X195620242Y-140813793D01*
X195630445Y-140803589D01*
X195630447Y-140803589D01*
X195742251Y-140691785D01*
X195768790Y-140645815D01*
X195788488Y-140620145D01*
X196934647Y-139473988D01*
X196995970Y-139440503D01*
X197022328Y-139437669D01*
X198283584Y-139437669D01*
X198350623Y-139457354D01*
X198396378Y-139510158D01*
X198406322Y-139579316D01*
X198377297Y-139642872D01*
X198371265Y-139649350D01*
X197513956Y-140506660D01*
X197513954Y-140506662D01*
X197458143Y-140583477D01*
X197418939Y-140704134D01*
X197418939Y-140831005D01*
X197430581Y-140866833D01*
X197432576Y-140936674D01*
X197400331Y-140992832D01*
X196255815Y-142137350D01*
X196194492Y-142170835D01*
X196168134Y-142173669D01*
X194388288Y-142173669D01*
X194230173Y-142173669D01*
X194077446Y-142214592D01*
X194077445Y-142214592D01*
X194077443Y-142214593D01*
X194077440Y-142214594D01*
X194027327Y-142243528D01*
X194027326Y-142243529D01*
X194007728Y-142254844D01*
X193940516Y-142293648D01*
X193940513Y-142293650D01*
X187750301Y-148483862D01*
X187750299Y-148483865D01*
X187749892Y-148484570D01*
X187719558Y-148537111D01*
X187671243Y-148620795D01*
X187630319Y-148773523D01*
X187630319Y-148773525D01*
X187630319Y-148941626D01*
X187630320Y-148941639D01*
X187630320Y-153754848D01*
X187610635Y-153821887D01*
X187594001Y-153842529D01*
X186033371Y-155403158D01*
X185981694Y-155434135D01*
X185976903Y-155435588D01*
X185849426Y-155488390D01*
X185849413Y-155488397D01*
X185734689Y-155565054D01*
X185734687Y-155565056D01*
X185637119Y-155662623D01*
X185637116Y-155662627D01*
X185560459Y-155777351D01*
X185560452Y-155777364D01*
X185507652Y-155904836D01*
X185507649Y-155904846D01*
X185480731Y-156040173D01*
X185480731Y-156040176D01*
X185480731Y-156178162D01*
X185480731Y-156178164D01*
X185480730Y-156178164D01*
X185507649Y-156313491D01*
X185507652Y-156313501D01*
X185560452Y-156440973D01*
X185560459Y-156440986D01*
X185637116Y-156555710D01*
X185637119Y-156555714D01*
X185734685Y-156653280D01*
X185734689Y-156653283D01*
X185849413Y-156729940D01*
X185849426Y-156729947D01*
X185976898Y-156782747D01*
X185976903Y-156782749D01*
X185976907Y-156782749D01*
X185976908Y-156782750D01*
X186112235Y-156809669D01*
X186112238Y-156809669D01*
X186250226Y-156809669D01*
X186341272Y-156791558D01*
X186385559Y-156782749D01*
X186513042Y-156729944D01*
X186627773Y-156653283D01*
X186725345Y-156555711D01*
X186802006Y-156440980D01*
X186854811Y-156313497D01*
X186855742Y-156308812D01*
X186888123Y-156246904D01*
X186889621Y-156245378D01*
X188711340Y-154423662D01*
X188790397Y-154286730D01*
X188831321Y-154134003D01*
X188831321Y-153975888D01*
X188831321Y-153968293D01*
X188831320Y-153968275D01*
X188831320Y-149152677D01*
X188851005Y-149085638D01*
X188867639Y-149064996D01*
X194521647Y-143410988D01*
X194582970Y-143377503D01*
X194609328Y-143374669D01*
X196381562Y-143374669D01*
X196381578Y-143374670D01*
X196389174Y-143374670D01*
X196547285Y-143374670D01*
X196547288Y-143374670D01*
X196700016Y-143333746D01*
X196750135Y-143304808D01*
X196836947Y-143254689D01*
X196948751Y-143142885D01*
X196948751Y-143142883D01*
X196958959Y-143132676D01*
X196958961Y-143132673D01*
X198200877Y-141890756D01*
X198262198Y-141857273D01*
X198331890Y-141862257D01*
X198376234Y-141890756D01*
X198560990Y-142075511D01*
X198831324Y-142345845D01*
X198896769Y-142393395D01*
X198939434Y-142448726D01*
X198945412Y-142518339D01*
X198912805Y-142580134D01*
X198911563Y-142581393D01*
X197704607Y-143788350D01*
X197643284Y-143821835D01*
X197616926Y-143824669D01*
X195627171Y-143824669D01*
X195586250Y-143835633D01*
X195586250Y-143835634D01*
X195548982Y-143845620D01*
X195474445Y-143865592D01*
X195474440Y-143865595D01*
X195337521Y-143944644D01*
X195337513Y-143944650D01*
X194554830Y-144727333D01*
X194554717Y-144727447D01*
X194554715Y-144727449D01*
X194442911Y-144839253D01*
X194442504Y-144839956D01*
X194436243Y-144846235D01*
X194412363Y-144859314D01*
X194390375Y-144875365D01*
X194379650Y-144877233D01*
X194374964Y-144879800D01*
X194367801Y-144879297D01*
X194348446Y-144882669D01*
X193991913Y-144882669D01*
X193910950Y-144895492D01*
X193898127Y-144897523D01*
X193785089Y-144955119D01*
X193785088Y-144955120D01*
X193785083Y-144955123D01*
X193695385Y-145044821D01*
X193695382Y-145044826D01*
X193637783Y-145157867D01*
X193622931Y-145251644D01*
X193622931Y-147114686D01*
X193632253Y-147173545D01*
X193637785Y-147208473D01*
X193695381Y-147321511D01*
X193695383Y-147321513D01*
X193695385Y-147321516D01*
X193785083Y-147411214D01*
X193785085Y-147411215D01*
X193785089Y-147411219D01*
X193898125Y-147468814D01*
X193898129Y-147468816D01*
X193991906Y-147483668D01*
X193991912Y-147483669D01*
X194198931Y-147483668D01*
X194265970Y-147503352D01*
X194311725Y-147556156D01*
X194322931Y-147607668D01*
X194322931Y-150973071D01*
X194314286Y-151002511D01*
X194307763Y-151032498D01*
X194304008Y-151037513D01*
X194303246Y-151040110D01*
X194286612Y-151060752D01*
X194128273Y-151219091D01*
X194066950Y-151252576D01*
X194002274Y-151249341D01*
X193987965Y-151244692D01*
X193955936Y-151239619D01*
X193785783Y-151212669D01*
X193581079Y-151212669D01*
X193556760Y-151216520D01*
X193378896Y-151244691D01*
X193184207Y-151307950D01*
X193001817Y-151400884D01*
X192836217Y-151521197D01*
X192691463Y-151665951D01*
X192691459Y-151665956D01*
X192668248Y-151697904D01*
X192612918Y-151740570D01*
X192543305Y-151746549D01*
X192481510Y-151713943D01*
X192447153Y-151653105D01*
X192443930Y-151625019D01*
X192443930Y-151581651D01*
X192442958Y-151575516D01*
X192429077Y-151487865D01*
X192371481Y-151374827D01*
X192371477Y-151374823D01*
X192371476Y-151374821D01*
X192281778Y-151285123D01*
X192281775Y-151285121D01*
X192281773Y-151285119D01*
X192192475Y-151239619D01*
X192168732Y-151227521D01*
X192074955Y-151212669D01*
X190211913Y-151212669D01*
X190130950Y-151225492D01*
X190118127Y-151227523D01*
X190005089Y-151285119D01*
X190005088Y-151285120D01*
X190005083Y-151285123D01*
X189915385Y-151374821D01*
X189915382Y-151374826D01*
X189915381Y-151374827D01*
X189902105Y-151400882D01*
X189857783Y-151487867D01*
X189842931Y-151581644D01*
X189842931Y-153444686D01*
X189851205Y-153496926D01*
X189857785Y-153538473D01*
X189915381Y-153651511D01*
X189915383Y-153651513D01*
X189915385Y-153651516D01*
X190005083Y-153741214D01*
X190005085Y-153741215D01*
X190005089Y-153741219D01*
X190111507Y-153795442D01*
X190118129Y-153798816D01*
X190211906Y-153813668D01*
X190211912Y-153813669D01*
X192074949Y-153813668D01*
X192168735Y-153798815D01*
X192281773Y-153741219D01*
X192371481Y-153651511D01*
X192429077Y-153538473D01*
X192429077Y-153538471D01*
X192429078Y-153538470D01*
X192443930Y-153444694D01*
X192443931Y-153444688D01*
X192443930Y-153401318D01*
X192463613Y-153334282D01*
X192516416Y-153288526D01*
X192585574Y-153278581D01*
X192649131Y-153307604D01*
X192668248Y-153328434D01*
X192691459Y-153360381D01*
X192691463Y-153360386D01*
X192836215Y-153505138D01*
X192880238Y-153537122D01*
X192922904Y-153592452D01*
X192928883Y-153662065D01*
X192896277Y-153723860D01*
X192895034Y-153725121D01*
X191147807Y-155472350D01*
X191086484Y-155505835D01*
X191060126Y-155508669D01*
X188673288Y-155508669D01*
X188515174Y-155508669D01*
X188362446Y-155549592D01*
X188335664Y-155565055D01*
X188280589Y-155596852D01*
X188225516Y-155628648D01*
X188225513Y-155628650D01*
X186882912Y-156971251D01*
X186882906Y-156971259D01*
X186838394Y-157048358D01*
X186838394Y-157048359D01*
X186803854Y-157108184D01*
X186762930Y-157260912D01*
X186762930Y-157260914D01*
X186762930Y-157418669D01*
X186743245Y-157485708D01*
X186690441Y-157531463D01*
X186638931Y-157542669D01*
X186431913Y-157542669D01*
X186350950Y-157555492D01*
X186338127Y-157557523D01*
X186225089Y-157615119D01*
X186225088Y-157615120D01*
X186225083Y-157615123D01*
X186135385Y-157704821D01*
X186135382Y-157704826D01*
X186135381Y-157704827D01*
X186122105Y-157730882D01*
X186077783Y-157817867D01*
X186062931Y-157911644D01*
X186062931Y-159774686D01*
X186064358Y-159783693D01*
X186077785Y-159868473D01*
X186135381Y-159981511D01*
X186135383Y-159981513D01*
X186135385Y-159981516D01*
X186225083Y-160071214D01*
X186225085Y-160071215D01*
X186225089Y-160071219D01*
X186338125Y-160128814D01*
X186338129Y-160128816D01*
X186431906Y-160143668D01*
X186431912Y-160143669D01*
X186638931Y-160143668D01*
X186705970Y-160163352D01*
X186751725Y-160216156D01*
X186762931Y-160267668D01*
X186762931Y-163633071D01*
X186754286Y-163662511D01*
X186747763Y-163692498D01*
X186744008Y-163697513D01*
X186743246Y-163700110D01*
X186726612Y-163720752D01*
X186568273Y-163879091D01*
X186506950Y-163912576D01*
X186442274Y-163909341D01*
X186427965Y-163904692D01*
X186427959Y-163904691D01*
X186225783Y-163872669D01*
X186021079Y-163872669D01*
X185996760Y-163876520D01*
X185818896Y-163904691D01*
X185624207Y-163967950D01*
X185441817Y-164060884D01*
X185276217Y-164181197D01*
X185131463Y-164325951D01*
X185131459Y-164325956D01*
X185108248Y-164357904D01*
X185052918Y-164400570D01*
X184983305Y-164406549D01*
X184921510Y-164373943D01*
X184887153Y-164313105D01*
X184883930Y-164285019D01*
X184883930Y-164241651D01*
X184869077Y-164147865D01*
X184811481Y-164034827D01*
X184811477Y-164034823D01*
X184811476Y-164034821D01*
X184721778Y-163945123D01*
X184721775Y-163945121D01*
X184721773Y-163945119D01*
X184642429Y-163904691D01*
X184608732Y-163887521D01*
X184514955Y-163872669D01*
X184514950Y-163872669D01*
X183476731Y-163872669D01*
X183409692Y-163852984D01*
X183363937Y-163800180D01*
X183352731Y-163748669D01*
X183352731Y-153460938D01*
X183362861Y-153411849D01*
X183367339Y-153401460D01*
X183373006Y-153392980D01*
X183422330Y-153273900D01*
X183422655Y-153273147D01*
X183424723Y-153270654D01*
X183448841Y-153234558D01*
X184576126Y-152107274D01*
X184576131Y-152107270D01*
X184586334Y-152097066D01*
X184586336Y-152097066D01*
X184698140Y-151985262D01*
X184777197Y-151848330D01*
X184818120Y-151695603D01*
X184818120Y-148946689D01*
X184817451Y-148944190D01*
X184777197Y-148793961D01*
X184728818Y-148710167D01*
X184698140Y-148657030D01*
X184586336Y-148545226D01*
X184586335Y-148545225D01*
X184582005Y-148540895D01*
X184581994Y-148540885D01*
X184511350Y-148470241D01*
X184477865Y-148408918D01*
X184482849Y-148339226D01*
X184511350Y-148294879D01*
X184805627Y-148000602D01*
X184805644Y-148000585D01*
X184829667Y-147972459D01*
X184908845Y-147828433D01*
X184949719Y-147669242D01*
X184949719Y-147504888D01*
X184908845Y-147345697D01*
X184908844Y-147345696D01*
X184908844Y-147345694D01*
X184829671Y-147201677D01*
X184829666Y-147201670D01*
X184805647Y-147173548D01*
X184805627Y-147173527D01*
X184147070Y-146514970D01*
X184147049Y-146514950D01*
X184118927Y-146490931D01*
X184118920Y-146490926D01*
X183974903Y-146411753D01*
X183815712Y-146370879D01*
X183815710Y-146370879D01*
X183651356Y-146370879D01*
X183651353Y-146370879D01*
X183492162Y-146411753D01*
X183348145Y-146490926D01*
X183348138Y-146490931D01*
X183320016Y-146514950D01*
X183319995Y-146514970D01*
X181706844Y-148128121D01*
X181706824Y-148128142D01*
X181682805Y-148156264D01*
X181682800Y-148156271D01*
X181603627Y-148300288D01*
X181562753Y-148459479D01*
X181562753Y-148623838D01*
X181603627Y-148783029D01*
X181682800Y-148927046D01*
X181682805Y-148927053D01*
X181706824Y-148955175D01*
X181706844Y-148955196D01*
X182365401Y-149613753D01*
X182365422Y-149613773D01*
X182393544Y-149637792D01*
X182393551Y-149637797D01*
X182537568Y-149716970D01*
X182537570Y-149716970D01*
X182537571Y-149716971D01*
X182696762Y-149757845D01*
X182696765Y-149757845D01*
X182861113Y-149757845D01*
X182861116Y-149757845D01*
X183020307Y-149716971D01*
X183020309Y-149716970D01*
X183164326Y-149637797D01*
X183164326Y-149637796D01*
X183164333Y-149637793D01*
X183192459Y-149613770D01*
X183405439Y-149400790D01*
X183466762Y-149367305D01*
X183536453Y-149372289D01*
X183592387Y-149414160D01*
X183616804Y-149479625D01*
X183617120Y-149488471D01*
X183617120Y-151316448D01*
X183597435Y-151383487D01*
X183580801Y-151404129D01*
X182636214Y-152348715D01*
X182574891Y-152382200D01*
X182572725Y-152382651D01*
X182547908Y-152387587D01*
X182547898Y-152387590D01*
X182420426Y-152440390D01*
X182420413Y-152440397D01*
X182305689Y-152517054D01*
X182305685Y-152517057D01*
X182208119Y-152614623D01*
X182208116Y-152614627D01*
X182131459Y-152729351D01*
X182131452Y-152729364D01*
X182078652Y-152856836D01*
X182078649Y-152856846D01*
X182051731Y-152992173D01*
X182051731Y-152992176D01*
X182051731Y-153130162D01*
X182051731Y-153130164D01*
X182051730Y-153130164D01*
X182078649Y-153265491D01*
X182078652Y-153265501D01*
X182131453Y-153392975D01*
X182134325Y-153398347D01*
X182133023Y-153399043D01*
X182151711Y-153458723D01*
X182151731Y-153460938D01*
X182151731Y-164277499D01*
X182151730Y-164277517D01*
X182151730Y-164443223D01*
X182151729Y-164443223D01*
X182192655Y-164595958D01*
X182192656Y-164595959D01*
X182212890Y-164631004D01*
X182212892Y-164631007D01*
X182266318Y-164723544D01*
X182282931Y-164785544D01*
X182282931Y-166104686D01*
X182292505Y-166165135D01*
X182297785Y-166198473D01*
X182355381Y-166311511D01*
X182355383Y-166311513D01*
X182355385Y-166311516D01*
X182445083Y-166401214D01*
X182445085Y-166401215D01*
X182445089Y-166401219D01*
X182558125Y-166458814D01*
X182558129Y-166458816D01*
X182651906Y-166473668D01*
X182651912Y-166473669D01*
X184514949Y-166473668D01*
X184608735Y-166458815D01*
X184721773Y-166401219D01*
X184811481Y-166311511D01*
X184869077Y-166198473D01*
X184869077Y-166198471D01*
X184869078Y-166198470D01*
X184883930Y-166104694D01*
X184883931Y-166104688D01*
X184883930Y-166061318D01*
X184903613Y-165994282D01*
X184956416Y-165948526D01*
X185025574Y-165938581D01*
X185089131Y-165967604D01*
X185108248Y-165988434D01*
X185131459Y-166020381D01*
X185131463Y-166020386D01*
X185276217Y-166165140D01*
X185431180Y-166277725D01*
X185441821Y-166285456D01*
X185558038Y-166344672D01*
X185624207Y-166378387D01*
X185624209Y-166378387D01*
X185624212Y-166378389D01*
X185694476Y-166401219D01*
X185818896Y-166441646D01*
X185919988Y-166457657D01*
X186021079Y-166473669D01*
X186021080Y-166473669D01*
X186225782Y-166473669D01*
X186225783Y-166473669D01*
X186427965Y-166441646D01*
X186622650Y-166378389D01*
X186805041Y-166285456D01*
X186924768Y-166198470D01*
X186970644Y-166165140D01*
X186970646Y-166165137D01*
X186970650Y-166165135D01*
X187115397Y-166020388D01*
X187115399Y-166020384D01*
X187115402Y-166020382D01*
X187174833Y-165938581D01*
X187235718Y-165854779D01*
X187328651Y-165672388D01*
X187391908Y-165477703D01*
X187423931Y-165275521D01*
X187423931Y-165070817D01*
X187391908Y-164868635D01*
X187387256Y-164854320D01*
X187385263Y-164784481D01*
X187417506Y-164728327D01*
X187732144Y-164413690D01*
X187732147Y-164413689D01*
X187843951Y-164301885D01*
X187894070Y-164215073D01*
X187923008Y-164164954D01*
X187963932Y-164012226D01*
X187963932Y-163854112D01*
X187963932Y-163846517D01*
X187963931Y-163846499D01*
X187963931Y-160267668D01*
X187983616Y-160200629D01*
X188036420Y-160154874D01*
X188087931Y-160143668D01*
X188294948Y-160143668D01*
X188294949Y-160143668D01*
X188388735Y-160128815D01*
X188501773Y-160071219D01*
X188591481Y-159981511D01*
X188649077Y-159868473D01*
X188649077Y-159868471D01*
X188649078Y-159868470D01*
X188663930Y-159774694D01*
X188663931Y-159774688D01*
X188663930Y-159731318D01*
X188683613Y-159664282D01*
X188736416Y-159618526D01*
X188805574Y-159608581D01*
X188869131Y-159637604D01*
X188888248Y-159658434D01*
X188911459Y-159690381D01*
X188911463Y-159690386D01*
X189056217Y-159835140D01*
X189164311Y-159913673D01*
X189221821Y-159955456D01*
X189338038Y-160014672D01*
X189404207Y-160048387D01*
X189404209Y-160048387D01*
X189404212Y-160048389D01*
X189474476Y-160071219D01*
X189598896Y-160111646D01*
X189699988Y-160127657D01*
X189801079Y-160143669D01*
X189801080Y-160143669D01*
X190005782Y-160143669D01*
X190005783Y-160143669D01*
X190207965Y-160111646D01*
X190402650Y-160048389D01*
X190585041Y-159955456D01*
X190704768Y-159868470D01*
X190750644Y-159835140D01*
X190750646Y-159835137D01*
X190750650Y-159835135D01*
X190895397Y-159690388D01*
X190895399Y-159690384D01*
X190895402Y-159690382D01*
X190992486Y-159556755D01*
X191015718Y-159524779D01*
X191108651Y-159342388D01*
X191171908Y-159147703D01*
X191203931Y-158945521D01*
X191203931Y-158740817D01*
X191182585Y-158606043D01*
X191171908Y-158538634D01*
X191130499Y-158411192D01*
X191108651Y-158343950D01*
X191108649Y-158343947D01*
X191108649Y-158343945D01*
X191057804Y-158244157D01*
X191015718Y-158161559D01*
X190967917Y-158095766D01*
X190895402Y-157995955D01*
X190750644Y-157851197D01*
X190585044Y-157730884D01*
X190585043Y-157730883D01*
X190585041Y-157730882D01*
X190528084Y-157701860D01*
X190402654Y-157637950D01*
X190207965Y-157574691D01*
X190033426Y-157547047D01*
X190005783Y-157542669D01*
X189801079Y-157542669D01*
X189776760Y-157546520D01*
X189598896Y-157574691D01*
X189404207Y-157637950D01*
X189221817Y-157730884D01*
X189056217Y-157851197D01*
X188911463Y-157995951D01*
X188911459Y-157995956D01*
X188888248Y-158027904D01*
X188832918Y-158070570D01*
X188763305Y-158076549D01*
X188701510Y-158043943D01*
X188667153Y-157983105D01*
X188663930Y-157955019D01*
X188663930Y-157911651D01*
X188658783Y-157879151D01*
X188649077Y-157817865D01*
X188591481Y-157704827D01*
X188591477Y-157704823D01*
X188591476Y-157704821D01*
X188501778Y-157615123D01*
X188501775Y-157615121D01*
X188501773Y-157615119D01*
X188422429Y-157574691D01*
X188388732Y-157557521D01*
X188290138Y-157541906D01*
X188290476Y-157539767D01*
X188233616Y-157518095D01*
X188192145Y-157461864D01*
X188187659Y-157392138D01*
X188220953Y-157331681D01*
X188444451Y-157108184D01*
X188806647Y-156745988D01*
X188867970Y-156712503D01*
X188894328Y-156709669D01*
X191273554Y-156709669D01*
X191273570Y-156709670D01*
X191281166Y-156709670D01*
X191439277Y-156709670D01*
X191439280Y-156709670D01*
X191592008Y-156668746D01*
X191672709Y-156622153D01*
X191728939Y-156589689D01*
X191840743Y-156477885D01*
X191840743Y-156477883D01*
X191850947Y-156467680D01*
X191850951Y-156467675D01*
X194041937Y-154276689D01*
X194041942Y-154276685D01*
X194052145Y-154266481D01*
X194052147Y-154266481D01*
X194163951Y-154154677D01*
X194220106Y-154057413D01*
X194243008Y-154017746D01*
X194283931Y-153865019D01*
X194283931Y-153742770D01*
X194303616Y-153675731D01*
X194351637Y-153632285D01*
X194365041Y-153625456D01*
X194530650Y-153505135D01*
X194675397Y-153360388D01*
X194675399Y-153360384D01*
X194675402Y-153360382D01*
X194737362Y-153275100D01*
X194795718Y-153194779D01*
X194888651Y-153012388D01*
X194951908Y-152817703D01*
X194983931Y-152615521D01*
X194983931Y-152410817D01*
X194972877Y-152341027D01*
X194951909Y-152208641D01*
X194951908Y-152208640D01*
X194951908Y-152208635D01*
X194947256Y-152194320D01*
X194945263Y-152124481D01*
X194977506Y-152068327D01*
X195281937Y-151763897D01*
X195281942Y-151763893D01*
X195292145Y-151753689D01*
X195292147Y-151753689D01*
X195403951Y-151641885D01*
X195456734Y-151550461D01*
X195483008Y-151504954D01*
X195523932Y-151352226D01*
X195523932Y-151194112D01*
X195523932Y-151186517D01*
X195523931Y-151186499D01*
X195523931Y-147607668D01*
X195543616Y-147540629D01*
X195596420Y-147494874D01*
X195647931Y-147483668D01*
X195854948Y-147483668D01*
X195854949Y-147483668D01*
X195948735Y-147468815D01*
X196061773Y-147411219D01*
X196151481Y-147321511D01*
X196209077Y-147208473D01*
X196209077Y-147208471D01*
X196209078Y-147208470D01*
X196223930Y-147114694D01*
X196223931Y-147114688D01*
X196223930Y-147071318D01*
X196243613Y-147004282D01*
X196296416Y-146958526D01*
X196365574Y-146948581D01*
X196429131Y-146977604D01*
X196448248Y-146998434D01*
X196471459Y-147030381D01*
X196471463Y-147030386D01*
X196616217Y-147175140D01*
X196729230Y-147257247D01*
X196781821Y-147295456D01*
X196888277Y-147349698D01*
X196964207Y-147388387D01*
X196964209Y-147388387D01*
X196964212Y-147388389D01*
X197034476Y-147411219D01*
X197158896Y-147451646D01*
X197259988Y-147467657D01*
X197361079Y-147483669D01*
X197361080Y-147483669D01*
X197565782Y-147483669D01*
X197565783Y-147483669D01*
X197767965Y-147451646D01*
X197962650Y-147388389D01*
X198145041Y-147295456D01*
X198274126Y-147201671D01*
X198310644Y-147175140D01*
X198310646Y-147175137D01*
X198310650Y-147175135D01*
X198455397Y-147030388D01*
X198455399Y-147030384D01*
X198455402Y-147030382D01*
X198525861Y-146933402D01*
X198575718Y-146864779D01*
X198668651Y-146682388D01*
X198731908Y-146487703D01*
X198763931Y-146285521D01*
X198763931Y-146080817D01*
X198745466Y-145964233D01*
X198731908Y-145878634D01*
X198668649Y-145683945D01*
X198634934Y-145617776D01*
X198575718Y-145501559D01*
X198558028Y-145477210D01*
X198455402Y-145335955D01*
X198310648Y-145191201D01*
X198310643Y-145191197D01*
X198235125Y-145136330D01*
X198192459Y-145081000D01*
X198186480Y-145011387D01*
X198219086Y-144949592D01*
X198226169Y-144942856D01*
X198235380Y-144934762D01*
X198285739Y-144905689D01*
X198397543Y-144793885D01*
X198397544Y-144793882D01*
X201333736Y-141857690D01*
X201333739Y-141857689D01*
X201445543Y-141745885D01*
X201495662Y-141659073D01*
X201524600Y-141608954D01*
X201565524Y-141456226D01*
X201565524Y-141298112D01*
X201565524Y-141298111D01*
X201565524Y-141290517D01*
X201565523Y-141290499D01*
X201565523Y-140150160D01*
X201585208Y-140083121D01*
X201616637Y-140049842D01*
X201735501Y-139963484D01*
X201880248Y-139818737D01*
X201880250Y-139818733D01*
X201880253Y-139818731D01*
X201933014Y-139746108D01*
X202000569Y-139653128D01*
X202093502Y-139470737D01*
X202156759Y-139276052D01*
X202188782Y-139073870D01*
X202188782Y-138869166D01*
X202156759Y-138666984D01*
X202093502Y-138472299D01*
X202093500Y-138472296D01*
X202093500Y-138472294D01*
X202059785Y-138406125D01*
X202000569Y-138289908D01*
X201961889Y-138236669D01*
X201880253Y-138124304D01*
X201735495Y-137979546D01*
X201569895Y-137859233D01*
X201569894Y-137859232D01*
X201569892Y-137859231D01*
X201512935Y-137830209D01*
X201387505Y-137766299D01*
X201192816Y-137703040D01*
X201018277Y-137675396D01*
X200990634Y-137671018D01*
X200785930Y-137671018D01*
X200761611Y-137674869D01*
X200583747Y-137703040D01*
X200389058Y-137766299D01*
X200206668Y-137859233D01*
X200041068Y-137979546D01*
X199896312Y-138124302D01*
X199851813Y-138185553D01*
X199796484Y-138228220D01*
X199751494Y-138236669D01*
X196808900Y-138236669D01*
X196808884Y-138236668D01*
X196801288Y-138236668D01*
X196643174Y-138236668D01*
X196535818Y-138265434D01*
X196490441Y-138277593D01*
X196490440Y-138277594D01*
X196440327Y-138306528D01*
X196440326Y-138306529D01*
X196396920Y-138331589D01*
X196353516Y-138356648D01*
X196353513Y-138356650D01*
X196241709Y-138468455D01*
X195272944Y-139437219D01*
X195211621Y-139470704D01*
X195141929Y-139465720D01*
X195085996Y-139423848D01*
X195061579Y-139358384D01*
X195067333Y-139311218D01*
X195078757Y-139276059D01*
X195078757Y-139276057D01*
X195078759Y-139276052D01*
X195110782Y-139073870D01*
X195110782Y-138869166D01*
X195078759Y-138666984D01*
X195015502Y-138472299D01*
X195015500Y-138472296D01*
X195015500Y-138472294D01*
X194981785Y-138406125D01*
X194922569Y-138289908D01*
X194883889Y-138236669D01*
X194802253Y-138124304D01*
X194657495Y-137979546D01*
X194491895Y-137859233D01*
X194491894Y-137859232D01*
X194491892Y-137859231D01*
X194434935Y-137830209D01*
X194309505Y-137766299D01*
X194114816Y-137703040D01*
X193940277Y-137675396D01*
X193912634Y-137671018D01*
X193707930Y-137671018D01*
X193683611Y-137674869D01*
X193505747Y-137703040D01*
X193311058Y-137766299D01*
X193128668Y-137859233D01*
X192963068Y-137979546D01*
X192818310Y-138124304D01*
X192697997Y-138289904D01*
X192605063Y-138472294D01*
X192541804Y-138666983D01*
X192509782Y-138869166D01*
X192509782Y-139073869D01*
X192515961Y-139112882D01*
X192507006Y-139182176D01*
X192462010Y-139235628D01*
X192395259Y-139256267D01*
X192327945Y-139237542D01*
X192305807Y-139219961D01*
X192275140Y-139189294D01*
X192198322Y-139133481D01*
X192077665Y-139094277D01*
X192077664Y-139094277D01*
X191950798Y-139094277D01*
X191950796Y-139094277D01*
X191830141Y-139133481D01*
X191830139Y-139133482D01*
X191753328Y-139189287D01*
X191753322Y-139189293D01*
X191606935Y-139335678D01*
X191545614Y-139369162D01*
X191475922Y-139364178D01*
X191431575Y-139335677D01*
X190705770Y-138609873D01*
X190705768Y-138609870D01*
X190586897Y-138490999D01*
X190586896Y-138490998D01*
X190480128Y-138429356D01*
X190480127Y-138429355D01*
X190449963Y-138411940D01*
X190394061Y-138396961D01*
X190297237Y-138371017D01*
X190139123Y-138371017D01*
X190131527Y-138371017D01*
X190131511Y-138371018D01*
X187961884Y-138371018D01*
X187894845Y-138351333D01*
X187851399Y-138303313D01*
X187844566Y-138289903D01*
X187724253Y-138124304D01*
X187579495Y-137979546D01*
X187413895Y-137859233D01*
X187413894Y-137859232D01*
X187413892Y-137859231D01*
X187356935Y-137830209D01*
X187231505Y-137766299D01*
X187036816Y-137703040D01*
X186862277Y-137675396D01*
X186834634Y-137671018D01*
X186629930Y-137671018D01*
X186605611Y-137674869D01*
X186427747Y-137703040D01*
X186233058Y-137766299D01*
X186050668Y-137859233D01*
X186000769Y-137895487D01*
X185934963Y-137918967D01*
X185927884Y-137919169D01*
X183918401Y-137919169D01*
X183918385Y-137919168D01*
X183910789Y-137919168D01*
X183752674Y-137919168D01*
X183676310Y-137939630D01*
X183599945Y-137960092D01*
X183599940Y-137960095D01*
X183463021Y-138039144D01*
X183463013Y-138039150D01*
X181371415Y-140130750D01*
X181310092Y-140164235D01*
X181283734Y-140167069D01*
X180597278Y-140167069D01*
X180530239Y-140147384D01*
X180484484Y-140094580D01*
X180474540Y-140025422D01*
X180503565Y-139961866D01*
X180509597Y-139955388D01*
X180575783Y-139889202D01*
X180646248Y-139818737D01*
X180646250Y-139818733D01*
X180646253Y-139818731D01*
X180699014Y-139746108D01*
X180766569Y-139653128D01*
X180859502Y-139470737D01*
X180922759Y-139276052D01*
X180954782Y-139073870D01*
X180954782Y-138869166D01*
X180922759Y-138666984D01*
X180859502Y-138472299D01*
X180859500Y-138472296D01*
X180859500Y-138472294D01*
X180825785Y-138406125D01*
X180766569Y-138289908D01*
X180727889Y-138236669D01*
X180646253Y-138124304D01*
X180501495Y-137979546D01*
X180335895Y-137859233D01*
X180335894Y-137859232D01*
X180335892Y-137859231D01*
X180278935Y-137830209D01*
X180153505Y-137766299D01*
X179958816Y-137703040D01*
X179784277Y-137675396D01*
X179756634Y-137671018D01*
X179551930Y-137671018D01*
X179484536Y-137681692D01*
X179349746Y-137703041D01*
X179229817Y-137742008D01*
X179159975Y-137744003D01*
X179159406Y-137743852D01*
X179086690Y-137724368D01*
X178928576Y-137724368D01*
X178920980Y-137724368D01*
X178920964Y-137724369D01*
X173309601Y-137724369D01*
X173309585Y-137724368D01*
X173301989Y-137724368D01*
X173143874Y-137724368D01*
X173143872Y-137724368D01*
X173071156Y-137743852D01*
X173001306Y-137742189D01*
X173000746Y-137742008D01*
X172880818Y-137703041D01*
X172746028Y-137681692D01*
X172678634Y-137671018D01*
X172473930Y-137671018D01*
X172449611Y-137674869D01*
X172271747Y-137703040D01*
X172077058Y-137766299D01*
X171894668Y-137859233D01*
X171844769Y-137895487D01*
X171778963Y-137918967D01*
X171771884Y-137919169D01*
X169186401Y-137919169D01*
X169186385Y-137919168D01*
X169178789Y-137919168D01*
X169020674Y-137919168D01*
X168944310Y-137939630D01*
X168867945Y-137960092D01*
X168867940Y-137960095D01*
X168731021Y-138039144D01*
X168731013Y-138039150D01*
X166639415Y-140130750D01*
X166612487Y-140145453D01*
X166586669Y-140162046D01*
X166580468Y-140162937D01*
X166578092Y-140164235D01*
X166551734Y-140167069D01*
X166441278Y-140167069D01*
X166374239Y-140147384D01*
X166328484Y-140094580D01*
X166318540Y-140025422D01*
X166347565Y-139961866D01*
X166353597Y-139955388D01*
X166419783Y-139889202D01*
X166490248Y-139818737D01*
X166490250Y-139818733D01*
X166490253Y-139818731D01*
X166543014Y-139746108D01*
X166610569Y-139653128D01*
X166703502Y-139470737D01*
X166766759Y-139276052D01*
X166798782Y-139073870D01*
X166798782Y-138869166D01*
X166766759Y-138666984D01*
X166703502Y-138472299D01*
X166703500Y-138472296D01*
X166703500Y-138472294D01*
X166669785Y-138406125D01*
X166610569Y-138289908D01*
X166571889Y-138236669D01*
X166490253Y-138124304D01*
X166345495Y-137979546D01*
X166179895Y-137859233D01*
X166179894Y-137859232D01*
X166179892Y-137859231D01*
X166122935Y-137830209D01*
X165997505Y-137766299D01*
X165802816Y-137703040D01*
X165628277Y-137675396D01*
X165600634Y-137671018D01*
X165395930Y-137671018D01*
X165371611Y-137674869D01*
X165193747Y-137703040D01*
X164999058Y-137766299D01*
X164816668Y-137859233D01*
X164651068Y-137979546D01*
X164506310Y-138124304D01*
X164385997Y-138289904D01*
X164293063Y-138472294D01*
X164229804Y-138666983D01*
X164197782Y-138869166D01*
X164197782Y-139073869D01*
X164203961Y-139112882D01*
X164195006Y-139182176D01*
X164150010Y-139235628D01*
X164083259Y-139256267D01*
X164015945Y-139237542D01*
X163993807Y-139219961D01*
X163963140Y-139189294D01*
X163886322Y-139133481D01*
X163765665Y-139094277D01*
X163765664Y-139094277D01*
X163638798Y-139094277D01*
X163638796Y-139094277D01*
X163518141Y-139133481D01*
X163518139Y-139133482D01*
X163441325Y-139189289D01*
X163441323Y-139189291D01*
X162123959Y-140506656D01*
X162123956Y-140506659D01*
X162068143Y-140583477D01*
X162028939Y-140704134D01*
X160785739Y-140704134D01*
X164588355Y-136880743D01*
X164593076Y-136876243D01*
X164851427Y-136642808D01*
X164859679Y-136635977D01*
X165023953Y-136511527D01*
X165135930Y-136426695D01*
X165144695Y-136420632D01*
X165438024Y-136235959D01*
X165447299Y-136230665D01*
X165755453Y-136072021D01*
X165765163Y-136067542D01*
X166085843Y-135936105D01*
X166095902Y-135932482D01*
X166426744Y-135829220D01*
X166437074Y-135826479D01*
X166775602Y-135752166D01*
X166786132Y-135750328D01*
X167129804Y-135705522D01*
X167140455Y-135704599D01*
X167488542Y-135689554D01*
X167493838Y-135689439D01*
X199958550Y-135680087D01*
X199958679Y-135680087D01*
X199958871Y-135680139D01*
X200021939Y-135680072D01*
X200021984Y-135680072D01*
X200021992Y-135680074D01*
G37*
%TD.AperFunction*%
%TD*%
M02*
