%TF.GenerationSoftware,KiCad,Pcbnew,10.0.2*%
%TF.CreationDate,2026-05-29T20:59:33+03:00*%
%TF.ProjectId,kicad_selka_rev2,6b696361-645f-4736-956c-6b615f726576,rev?*%
%TF.SameCoordinates,Original*%
%TF.FileFunction,Legend,Bot*%
%TF.FilePolarity,Positive*%
%FSLAX46Y46*%
G04 Gerber Fmt 4.6, Leading zero omitted, Abs format (unit mm)*
G04 Created by KiCad (PCBNEW 10.0.2) date 2026-05-29 20:59:33*
%MOMM*%
%LPD*%
G01*
G04 APERTURE LIST*
%ADD10C,1.000000*%
%ADD11C,0.200000*%
%ADD12C,0.150000*%
%ADD13C,0.120000*%
G04 APERTURE END LIST*
D10*
X168761152Y-173817246D02*
X166992030Y-171716428D01*
X169738352Y-171132409D02*
X164826127Y-170009617D01*
X164826127Y-170009617D02*
X164174660Y-171799507D01*
X164174660Y-171799507D02*
X164245709Y-172300446D01*
X164245709Y-172300446D02*
X164398191Y-172577649D01*
X164398191Y-172577649D02*
X164784588Y-172908318D01*
X164784588Y-172908318D02*
X165486335Y-173068717D01*
X165486335Y-173068717D02*
X166035599Y-172951913D01*
X166035599Y-172951913D02*
X166350948Y-172781643D01*
X166350948Y-172781643D02*
X166747730Y-172387637D01*
X166747730Y-172387637D02*
X167399197Y-170597746D01*
X167783952Y-176502082D02*
X167712903Y-176001143D01*
X167712903Y-176001143D02*
X167560421Y-175723940D01*
X167560421Y-175723940D02*
X167174023Y-175393271D01*
X167174023Y-175393271D02*
X165770530Y-175072473D01*
X165770530Y-175072473D02*
X165221266Y-175189277D01*
X165221266Y-175189277D02*
X164905917Y-175359547D01*
X164905917Y-175359547D02*
X164509134Y-175753553D01*
X164509134Y-175753553D02*
X164264834Y-176424762D01*
X164264834Y-176424762D02*
X164335883Y-176925701D01*
X164335883Y-176925701D02*
X164488365Y-177202904D01*
X164488365Y-177202904D02*
X164874763Y-177533573D01*
X164874763Y-177533573D02*
X166278256Y-177854371D01*
X166278256Y-177854371D02*
X166827520Y-177737567D01*
X166827520Y-177737567D02*
X167142869Y-177567297D01*
X167142869Y-177567297D02*
X167539652Y-177173291D01*
X167539652Y-177173291D02*
X167783952Y-176502082D01*
X163034593Y-174931816D02*
X163187075Y-175209019D01*
X163187075Y-175209019D02*
X163502424Y-175038749D01*
X163502424Y-175038749D02*
X163349942Y-174761546D01*
X163349942Y-174761546D02*
X163034593Y-174931816D01*
X163034593Y-174931816D02*
X163502424Y-175038749D01*
X162383126Y-176721707D02*
X162535608Y-176998909D01*
X162535608Y-176998909D02*
X162850957Y-176828639D01*
X162850957Y-176828639D02*
X162698475Y-176551437D01*
X162698475Y-176551437D02*
X162383126Y-176721707D01*
X162383126Y-176721707D02*
X162850957Y-176828639D01*
X166481018Y-180081863D02*
X161568792Y-178959071D01*
X165748117Y-182095491D02*
X163175047Y-181507361D01*
X163175047Y-181507361D02*
X162788649Y-181176692D01*
X162788649Y-181176692D02*
X162717600Y-180675753D01*
X162717600Y-180675753D02*
X162961900Y-180004544D01*
X162961900Y-180004544D02*
X163358683Y-179610538D01*
X163358683Y-179610538D02*
X163674031Y-179440268D01*
X162653649Y-190597472D02*
X160884528Y-188496654D01*
X163630849Y-187912636D02*
X158718624Y-186789843D01*
X158718624Y-186789843D02*
X158067157Y-188579734D01*
X158067157Y-188579734D02*
X158138206Y-189080673D01*
X158138206Y-189080673D02*
X158290688Y-189357875D01*
X158290688Y-189357875D02*
X158677085Y-189688544D01*
X158677085Y-189688544D02*
X159378832Y-189848943D01*
X159378832Y-189848943D02*
X159928096Y-189732140D01*
X159928096Y-189732140D02*
X160243445Y-189561870D01*
X160243445Y-189561870D02*
X160640227Y-189167863D01*
X160640227Y-189167863D02*
X161291694Y-187377973D01*
X161676449Y-193282308D02*
X161605400Y-192781369D01*
X161605400Y-192781369D02*
X161452918Y-192504166D01*
X161452918Y-192504166D02*
X161066520Y-192173497D01*
X161066520Y-192173497D02*
X159663027Y-191852699D01*
X159663027Y-191852699D02*
X159113763Y-191969503D01*
X159113763Y-191969503D02*
X158798414Y-192139773D01*
X158798414Y-192139773D02*
X158401632Y-192533779D01*
X158401632Y-192533779D02*
X158157331Y-193204989D01*
X158157331Y-193204989D02*
X158228380Y-193705928D01*
X158228380Y-193705928D02*
X158380862Y-193983130D01*
X158380862Y-193983130D02*
X158767260Y-194313799D01*
X158767260Y-194313799D02*
X160170753Y-194634597D01*
X160170753Y-194634597D02*
X160720017Y-194517793D01*
X160720017Y-194517793D02*
X161035366Y-194347523D01*
X161035366Y-194347523D02*
X161432149Y-193953517D01*
X161432149Y-193953517D02*
X161676449Y-193282308D01*
X156927090Y-191712043D02*
X157079572Y-191989245D01*
X157079572Y-191989245D02*
X157394921Y-191818975D01*
X157394921Y-191818975D02*
X157242439Y-191541773D01*
X157242439Y-191541773D02*
X156927090Y-191712043D01*
X156927090Y-191712043D02*
X157394921Y-191818975D01*
X156275623Y-193501933D02*
X156428105Y-193779136D01*
X156428105Y-193779136D02*
X156743454Y-193608866D01*
X156743454Y-193608866D02*
X156590972Y-193331663D01*
X156590972Y-193331663D02*
X156275623Y-193501933D01*
X156275623Y-193501933D02*
X156743454Y-193608866D01*
X160373515Y-196862090D02*
X155461289Y-195739297D01*
X159640614Y-198875717D02*
X157067544Y-198287587D01*
X157067544Y-198287587D02*
X156681146Y-197956918D01*
X156681146Y-197956918D02*
X156610097Y-197455979D01*
X156610097Y-197455979D02*
X156854397Y-196784770D01*
X156854397Y-196784770D02*
X157251180Y-196390764D01*
X157251180Y-196390764D02*
X157566529Y-196220494D01*
D11*
X167860331Y-145315910D02*
X167792987Y-145450597D01*
X167792987Y-145450597D02*
X167624628Y-145618956D01*
X167624628Y-145618956D02*
X167523613Y-145652628D01*
X167523613Y-145652628D02*
X167456270Y-145652628D01*
X167456270Y-145652628D02*
X167355254Y-145618956D01*
X167355254Y-145618956D02*
X167287911Y-145551612D01*
X167287911Y-145551612D02*
X167254239Y-145450597D01*
X167254239Y-145450597D02*
X167254239Y-145383254D01*
X167254239Y-145383254D02*
X167287911Y-145282238D01*
X167287911Y-145282238D02*
X167388926Y-145113880D01*
X167388926Y-145113880D02*
X167422598Y-145012864D01*
X167422598Y-145012864D02*
X167422598Y-144945521D01*
X167422598Y-144945521D02*
X167388926Y-144844506D01*
X167388926Y-144844506D02*
X167321583Y-144777162D01*
X167321583Y-144777162D02*
X167220567Y-144743490D01*
X167220567Y-144743490D02*
X167153224Y-144743490D01*
X167153224Y-144743490D02*
X167052209Y-144777162D01*
X167052209Y-144777162D02*
X166883850Y-144945521D01*
X166883850Y-144945521D02*
X166816506Y-145080208D01*
X166850178Y-146393406D02*
X167186896Y-146056689D01*
X167186896Y-146056689D02*
X166479789Y-145349582D01*
X166446117Y-146393406D02*
X166109399Y-146730124D01*
X166715491Y-146528093D02*
X165772682Y-146056689D01*
X165772682Y-146056689D02*
X166244086Y-146999498D01*
X165402293Y-146427078D02*
X165873697Y-147369887D01*
X165873697Y-147369887D02*
X164930888Y-146898483D01*
X165031903Y-147470903D02*
X164796201Y-147706605D01*
X165065575Y-148178009D02*
X165402293Y-147841292D01*
X165402293Y-147841292D02*
X164695186Y-147134185D01*
X164695186Y-147134185D02*
X164358468Y-147470903D01*
D12*
X164454039Y-165226570D02*
X163977848Y-164893237D01*
X164454039Y-164655142D02*
X163454039Y-164655142D01*
X163454039Y-164655142D02*
X163454039Y-165036094D01*
X163454039Y-165036094D02*
X163501658Y-165131332D01*
X163501658Y-165131332D02*
X163549277Y-165178951D01*
X163549277Y-165178951D02*
X163644515Y-165226570D01*
X163644515Y-165226570D02*
X163787372Y-165226570D01*
X163787372Y-165226570D02*
X163882610Y-165178951D01*
X163882610Y-165178951D02*
X163930229Y-165131332D01*
X163930229Y-165131332D02*
X163977848Y-165036094D01*
X163977848Y-165036094D02*
X163977848Y-164655142D01*
X164454039Y-166178951D02*
X164454039Y-165607523D01*
X164454039Y-165893237D02*
X163454039Y-165893237D01*
X163454039Y-165893237D02*
X163596896Y-165797999D01*
X163596896Y-165797999D02*
X163692134Y-165702761D01*
X163692134Y-165702761D02*
X163739753Y-165607523D01*
X163787372Y-167036094D02*
X164454039Y-167036094D01*
X163406420Y-166797999D02*
X164120705Y-166559904D01*
X164120705Y-166559904D02*
X164120705Y-167178951D01*
X172233362Y-165245144D02*
X171757171Y-164911811D01*
X172233362Y-164673716D02*
X171233362Y-164673716D01*
X171233362Y-164673716D02*
X171233362Y-165054668D01*
X171233362Y-165054668D02*
X171280981Y-165149906D01*
X171280981Y-165149906D02*
X171328600Y-165197525D01*
X171328600Y-165197525D02*
X171423838Y-165245144D01*
X171423838Y-165245144D02*
X171566695Y-165245144D01*
X171566695Y-165245144D02*
X171661933Y-165197525D01*
X171661933Y-165197525D02*
X171709552Y-165149906D01*
X171709552Y-165149906D02*
X171757171Y-165054668D01*
X171757171Y-165054668D02*
X171757171Y-164673716D01*
X172233362Y-166197525D02*
X172233362Y-165626097D01*
X172233362Y-165911811D02*
X171233362Y-165911811D01*
X171233362Y-165911811D02*
X171376219Y-165816573D01*
X171376219Y-165816573D02*
X171471457Y-165721335D01*
X171471457Y-165721335D02*
X171519076Y-165626097D01*
X171328600Y-166578478D02*
X171280981Y-166626097D01*
X171280981Y-166626097D02*
X171233362Y-166721335D01*
X171233362Y-166721335D02*
X171233362Y-166959430D01*
X171233362Y-166959430D02*
X171280981Y-167054668D01*
X171280981Y-167054668D02*
X171328600Y-167102287D01*
X171328600Y-167102287D02*
X171423838Y-167149906D01*
X171423838Y-167149906D02*
X171519076Y-167149906D01*
X171519076Y-167149906D02*
X171661933Y-167102287D01*
X171661933Y-167102287D02*
X172233362Y-166530859D01*
X172233362Y-166530859D02*
X172233362Y-167149906D01*
X182327508Y-153279657D02*
X182899927Y-153178642D01*
X182731569Y-153683718D02*
X183438675Y-152976611D01*
X183438675Y-152976611D02*
X183169301Y-152707237D01*
X183169301Y-152707237D02*
X183068286Y-152673565D01*
X183068286Y-152673565D02*
X183000943Y-152673565D01*
X183000943Y-152673565D02*
X182899927Y-152707237D01*
X182899927Y-152707237D02*
X182798912Y-152808252D01*
X182798912Y-152808252D02*
X182765240Y-152909268D01*
X182765240Y-152909268D02*
X182765240Y-152976611D01*
X182765240Y-152976611D02*
X182798912Y-153077626D01*
X182798912Y-153077626D02*
X183068286Y-153347000D01*
X181990790Y-152942939D02*
X181856103Y-152808252D01*
X181856103Y-152808252D02*
X181822431Y-152707237D01*
X181822431Y-152707237D02*
X181822431Y-152639894D01*
X181822431Y-152639894D02*
X181856103Y-152471535D01*
X181856103Y-152471535D02*
X181957118Y-152303176D01*
X181957118Y-152303176D02*
X182226492Y-152033802D01*
X182226492Y-152033802D02*
X182327508Y-152000130D01*
X182327508Y-152000130D02*
X182394851Y-152000130D01*
X182394851Y-152000130D02*
X182495866Y-152033802D01*
X182495866Y-152033802D02*
X182630553Y-152168489D01*
X182630553Y-152168489D02*
X182664225Y-152269504D01*
X182664225Y-152269504D02*
X182664225Y-152336848D01*
X182664225Y-152336848D02*
X182630553Y-152437863D01*
X182630553Y-152437863D02*
X182462195Y-152606222D01*
X182462195Y-152606222D02*
X182361179Y-152639894D01*
X182361179Y-152639894D02*
X182293836Y-152639894D01*
X182293836Y-152639894D02*
X182192821Y-152606222D01*
X182192821Y-152606222D02*
X182058134Y-152471535D01*
X182058134Y-152471535D02*
X182024462Y-152370520D01*
X182024462Y-152370520D02*
X182024462Y-152303176D01*
X182024462Y-152303176D02*
X182058134Y-152202161D01*
X185084481Y-150535818D02*
X185656900Y-150434803D01*
X185488542Y-150939879D02*
X186195648Y-150232772D01*
X186195648Y-150232772D02*
X185926274Y-149963398D01*
X185926274Y-149963398D02*
X185825259Y-149929726D01*
X185825259Y-149929726D02*
X185757916Y-149929726D01*
X185757916Y-149929726D02*
X185656900Y-149963398D01*
X185656900Y-149963398D02*
X185555885Y-150064413D01*
X185555885Y-150064413D02*
X185522213Y-150165429D01*
X185522213Y-150165429D02*
X185522213Y-150232772D01*
X185522213Y-150232772D02*
X185555885Y-150333787D01*
X185555885Y-150333787D02*
X185825259Y-150603161D01*
X185084481Y-149727696D02*
X185185496Y-149761368D01*
X185185496Y-149761368D02*
X185252839Y-149761368D01*
X185252839Y-149761368D02*
X185353855Y-149727696D01*
X185353855Y-149727696D02*
X185387526Y-149694024D01*
X185387526Y-149694024D02*
X185421198Y-149593009D01*
X185421198Y-149593009D02*
X185421198Y-149525665D01*
X185421198Y-149525665D02*
X185387526Y-149424650D01*
X185387526Y-149424650D02*
X185252839Y-149289963D01*
X185252839Y-149289963D02*
X185151824Y-149256291D01*
X185151824Y-149256291D02*
X185084481Y-149256291D01*
X185084481Y-149256291D02*
X184983465Y-149289963D01*
X184983465Y-149289963D02*
X184949794Y-149323635D01*
X184949794Y-149323635D02*
X184916122Y-149424650D01*
X184916122Y-149424650D02*
X184916122Y-149491994D01*
X184916122Y-149491994D02*
X184949794Y-149593009D01*
X184949794Y-149593009D02*
X185084481Y-149727696D01*
X185084481Y-149727696D02*
X185118152Y-149828711D01*
X185118152Y-149828711D02*
X185118152Y-149896055D01*
X185118152Y-149896055D02*
X185084481Y-149997070D01*
X185084481Y-149997070D02*
X184949794Y-150131757D01*
X184949794Y-150131757D02*
X184848778Y-150165429D01*
X184848778Y-150165429D02*
X184781435Y-150165429D01*
X184781435Y-150165429D02*
X184680420Y-150131757D01*
X184680420Y-150131757D02*
X184545733Y-149997070D01*
X184545733Y-149997070D02*
X184512061Y-149896055D01*
X184512061Y-149896055D02*
X184512061Y-149828711D01*
X184512061Y-149828711D02*
X184545733Y-149727696D01*
X184545733Y-149727696D02*
X184680420Y-149593009D01*
X184680420Y-149593009D02*
X184781435Y-149559337D01*
X184781435Y-149559337D02*
X184848778Y-149559337D01*
X184848778Y-149559337D02*
X184949794Y-149593009D01*
X175682553Y-141979417D02*
X175177477Y-142484493D01*
X175177477Y-142484493D02*
X175110133Y-142619180D01*
X175110133Y-142619180D02*
X175110133Y-142753867D01*
X175110133Y-142753867D02*
X175177477Y-142888554D01*
X175177477Y-142888554D02*
X175244820Y-142955898D01*
X174807087Y-141575356D02*
X174335683Y-142046760D01*
X175244820Y-141474340D02*
X174908103Y-142147775D01*
X174908103Y-142147775D02*
X174470370Y-141710043D01*
X168343701Y-165235858D02*
X167867510Y-164902525D01*
X168343701Y-164664430D02*
X167343701Y-164664430D01*
X167343701Y-164664430D02*
X167343701Y-165045382D01*
X167343701Y-165045382D02*
X167391320Y-165140620D01*
X167391320Y-165140620D02*
X167438939Y-165188239D01*
X167438939Y-165188239D02*
X167534177Y-165235858D01*
X167534177Y-165235858D02*
X167677034Y-165235858D01*
X167677034Y-165235858D02*
X167772272Y-165188239D01*
X167772272Y-165188239D02*
X167819891Y-165140620D01*
X167819891Y-165140620D02*
X167867510Y-165045382D01*
X167867510Y-165045382D02*
X167867510Y-164664430D01*
X168343701Y-166188239D02*
X168343701Y-165616811D01*
X168343701Y-165902525D02*
X167343701Y-165902525D01*
X167343701Y-165902525D02*
X167486558Y-165807287D01*
X167486558Y-165807287D02*
X167581796Y-165712049D01*
X167581796Y-165712049D02*
X167629415Y-165616811D01*
X167343701Y-166521573D02*
X167343701Y-167140620D01*
X167343701Y-167140620D02*
X167724653Y-166807287D01*
X167724653Y-166807287D02*
X167724653Y-166950144D01*
X167724653Y-166950144D02*
X167772272Y-167045382D01*
X167772272Y-167045382D02*
X167819891Y-167093001D01*
X167819891Y-167093001D02*
X167915129Y-167140620D01*
X167915129Y-167140620D02*
X168153224Y-167140620D01*
X168153224Y-167140620D02*
X168248462Y-167093001D01*
X168248462Y-167093001D02*
X168296082Y-167045382D01*
X168296082Y-167045382D02*
X168343701Y-166950144D01*
X168343701Y-166950144D02*
X168343701Y-166664430D01*
X168343701Y-166664430D02*
X168296082Y-166569192D01*
X168296082Y-166569192D02*
X168248462Y-166521573D01*
X177082372Y-158993842D02*
X177654791Y-158892827D01*
X177486433Y-159397903D02*
X178193539Y-158690796D01*
X178193539Y-158690796D02*
X177924165Y-158421422D01*
X177924165Y-158421422D02*
X177823150Y-158387750D01*
X177823150Y-158387750D02*
X177755807Y-158387750D01*
X177755807Y-158387750D02*
X177654791Y-158421422D01*
X177654791Y-158421422D02*
X177553776Y-158522437D01*
X177553776Y-158522437D02*
X177520104Y-158623453D01*
X177520104Y-158623453D02*
X177520104Y-158690796D01*
X177520104Y-158690796D02*
X177553776Y-158791811D01*
X177553776Y-158791811D02*
X177823150Y-159061185D01*
X176408937Y-158320407D02*
X176812998Y-158724468D01*
X176610967Y-158522437D02*
X177318074Y-157815331D01*
X177318074Y-157815331D02*
X177284402Y-157983689D01*
X177284402Y-157983689D02*
X177284402Y-158118376D01*
X177284402Y-158118376D02*
X177318074Y-158219392D01*
X175735501Y-157646972D02*
X176139562Y-158051033D01*
X175937532Y-157849002D02*
X176644639Y-157141895D01*
X176644639Y-157141895D02*
X176610967Y-157310254D01*
X176610967Y-157310254D02*
X176610967Y-157444941D01*
X176610967Y-157444941D02*
X176644639Y-157545956D01*
X179870226Y-156410375D02*
X180442645Y-156309360D01*
X180274287Y-156814436D02*
X180981393Y-156107329D01*
X180981393Y-156107329D02*
X180712019Y-155837955D01*
X180712019Y-155837955D02*
X180611004Y-155804283D01*
X180611004Y-155804283D02*
X180543661Y-155804283D01*
X180543661Y-155804283D02*
X180442645Y-155837955D01*
X180442645Y-155837955D02*
X180341630Y-155938970D01*
X180341630Y-155938970D02*
X180307958Y-156039986D01*
X180307958Y-156039986D02*
X180307958Y-156107329D01*
X180307958Y-156107329D02*
X180341630Y-156208344D01*
X180341630Y-156208344D02*
X180611004Y-156477718D01*
X179196791Y-155736940D02*
X179600852Y-156141001D01*
X179398821Y-155938970D02*
X180105928Y-155231864D01*
X180105928Y-155231864D02*
X180072256Y-155400222D01*
X180072256Y-155400222D02*
X180072256Y-155534909D01*
X180072256Y-155534909D02*
X180105928Y-155635925D01*
X179466164Y-154592100D02*
X179398821Y-154524757D01*
X179398821Y-154524757D02*
X179297806Y-154491085D01*
X179297806Y-154491085D02*
X179230462Y-154491085D01*
X179230462Y-154491085D02*
X179129447Y-154524757D01*
X179129447Y-154524757D02*
X178961088Y-154625772D01*
X178961088Y-154625772D02*
X178792729Y-154794131D01*
X178792729Y-154794131D02*
X178691714Y-154962489D01*
X178691714Y-154962489D02*
X178658042Y-155063505D01*
X178658042Y-155063505D02*
X178658042Y-155130848D01*
X178658042Y-155130848D02*
X178691714Y-155231863D01*
X178691714Y-155231863D02*
X178759058Y-155299207D01*
X178759058Y-155299207D02*
X178860073Y-155332879D01*
X178860073Y-155332879D02*
X178927416Y-155332879D01*
X178927416Y-155332879D02*
X179028432Y-155299207D01*
X179028432Y-155299207D02*
X179196790Y-155198192D01*
X179196790Y-155198192D02*
X179365149Y-155029833D01*
X179365149Y-155029833D02*
X179466164Y-154861474D01*
X179466164Y-154861474D02*
X179499836Y-154760459D01*
X179499836Y-154760459D02*
X179499836Y-154693115D01*
X179499836Y-154693115D02*
X179466164Y-154592100D01*
X156026516Y-213586988D02*
X156026516Y-212586988D01*
X156026516Y-212586988D02*
X155788421Y-212586988D01*
X155788421Y-212586988D02*
X155645564Y-212634607D01*
X155645564Y-212634607D02*
X155550326Y-212729845D01*
X155550326Y-212729845D02*
X155502707Y-212825083D01*
X155502707Y-212825083D02*
X155455088Y-213015559D01*
X155455088Y-213015559D02*
X155455088Y-213158416D01*
X155455088Y-213158416D02*
X155502707Y-213348892D01*
X155502707Y-213348892D02*
X155550326Y-213444130D01*
X155550326Y-213444130D02*
X155645564Y-213539369D01*
X155645564Y-213539369D02*
X155788421Y-213586988D01*
X155788421Y-213586988D02*
X156026516Y-213586988D01*
X155074135Y-212682226D02*
X155026516Y-212634607D01*
X155026516Y-212634607D02*
X154931278Y-212586988D01*
X154931278Y-212586988D02*
X154693183Y-212586988D01*
X154693183Y-212586988D02*
X154597945Y-212634607D01*
X154597945Y-212634607D02*
X154550326Y-212682226D01*
X154550326Y-212682226D02*
X154502707Y-212777464D01*
X154502707Y-212777464D02*
X154502707Y-212872702D01*
X154502707Y-212872702D02*
X154550326Y-213015559D01*
X154550326Y-213015559D02*
X155121754Y-213586988D01*
X155121754Y-213586988D02*
X154502707Y-213586988D01*
X153931278Y-213015559D02*
X154026516Y-212967940D01*
X154026516Y-212967940D02*
X154074135Y-212920321D01*
X154074135Y-212920321D02*
X154121754Y-212825083D01*
X154121754Y-212825083D02*
X154121754Y-212777464D01*
X154121754Y-212777464D02*
X154074135Y-212682226D01*
X154074135Y-212682226D02*
X154026516Y-212634607D01*
X154026516Y-212634607D02*
X153931278Y-212586988D01*
X153931278Y-212586988D02*
X153740802Y-212586988D01*
X153740802Y-212586988D02*
X153645564Y-212634607D01*
X153645564Y-212634607D02*
X153597945Y-212682226D01*
X153597945Y-212682226D02*
X153550326Y-212777464D01*
X153550326Y-212777464D02*
X153550326Y-212825083D01*
X153550326Y-212825083D02*
X153597945Y-212920321D01*
X153597945Y-212920321D02*
X153645564Y-212967940D01*
X153645564Y-212967940D02*
X153740802Y-213015559D01*
X153740802Y-213015559D02*
X153931278Y-213015559D01*
X153931278Y-213015559D02*
X154026516Y-213063178D01*
X154026516Y-213063178D02*
X154074135Y-213110797D01*
X154074135Y-213110797D02*
X154121754Y-213206035D01*
X154121754Y-213206035D02*
X154121754Y-213396511D01*
X154121754Y-213396511D02*
X154074135Y-213491749D01*
X154074135Y-213491749D02*
X154026516Y-213539369D01*
X154026516Y-213539369D02*
X153931278Y-213586988D01*
X153931278Y-213586988D02*
X153740802Y-213586988D01*
X153740802Y-213586988D02*
X153645564Y-213539369D01*
X153645564Y-213539369D02*
X153597945Y-213491749D01*
X153597945Y-213491749D02*
X153550326Y-213396511D01*
X153550326Y-213396511D02*
X153550326Y-213206035D01*
X153550326Y-213206035D02*
X153597945Y-213110797D01*
X153597945Y-213110797D02*
X153645564Y-213063178D01*
X153645564Y-213063178D02*
X153740802Y-213015559D01*
X148118465Y-207769144D02*
X147411358Y-207062038D01*
X147411358Y-207062038D02*
X147242999Y-207230396D01*
X147242999Y-207230396D02*
X147175656Y-207365083D01*
X147175656Y-207365083D02*
X147175656Y-207499770D01*
X147175656Y-207499770D02*
X147209328Y-207600786D01*
X147209328Y-207600786D02*
X147310343Y-207769144D01*
X147310343Y-207769144D02*
X147411358Y-207870160D01*
X147411358Y-207870160D02*
X147579717Y-207971175D01*
X147579717Y-207971175D02*
X147680732Y-208004847D01*
X147680732Y-208004847D02*
X147815419Y-208004847D01*
X147815419Y-208004847D02*
X147950106Y-207937503D01*
X147950106Y-207937503D02*
X148118465Y-207769144D01*
X146805267Y-207802816D02*
X146737923Y-207802816D01*
X146737923Y-207802816D02*
X146636908Y-207836488D01*
X146636908Y-207836488D02*
X146468549Y-208004847D01*
X146468549Y-208004847D02*
X146434877Y-208105862D01*
X146434877Y-208105862D02*
X146434877Y-208173205D01*
X146434877Y-208173205D02*
X146468549Y-208274221D01*
X146468549Y-208274221D02*
X146535893Y-208341564D01*
X146535893Y-208341564D02*
X146670580Y-208408908D01*
X146670580Y-208408908D02*
X147478702Y-208408908D01*
X147478702Y-208408908D02*
X147040969Y-208846640D01*
X146098160Y-208375236D02*
X145660427Y-208812969D01*
X145660427Y-208812969D02*
X146165503Y-208846641D01*
X146165503Y-208846641D02*
X146064488Y-208947656D01*
X146064488Y-208947656D02*
X146030816Y-209048671D01*
X146030816Y-209048671D02*
X146030816Y-209116015D01*
X146030816Y-209116015D02*
X146064488Y-209217030D01*
X146064488Y-209217030D02*
X146232847Y-209385389D01*
X146232847Y-209385389D02*
X146333862Y-209419060D01*
X146333862Y-209419060D02*
X146401205Y-209419060D01*
X146401205Y-209419060D02*
X146502221Y-209385389D01*
X146502221Y-209385389D02*
X146704251Y-209183358D01*
X146704251Y-209183358D02*
X146737923Y-209082343D01*
X146737923Y-209082343D02*
X146737923Y-209014999D01*
X174822516Y-182090988D02*
X174822516Y-181090988D01*
X174822516Y-181090988D02*
X174584421Y-181090988D01*
X174584421Y-181090988D02*
X174441564Y-181138607D01*
X174441564Y-181138607D02*
X174346326Y-181233845D01*
X174346326Y-181233845D02*
X174298707Y-181329083D01*
X174298707Y-181329083D02*
X174251088Y-181519559D01*
X174251088Y-181519559D02*
X174251088Y-181662416D01*
X174251088Y-181662416D02*
X174298707Y-181852892D01*
X174298707Y-181852892D02*
X174346326Y-181948130D01*
X174346326Y-181948130D02*
X174441564Y-182043369D01*
X174441564Y-182043369D02*
X174584421Y-182090988D01*
X174584421Y-182090988D02*
X174822516Y-182090988D01*
X173917754Y-181090988D02*
X173298707Y-181090988D01*
X173298707Y-181090988D02*
X173632040Y-181471940D01*
X173632040Y-181471940D02*
X173489183Y-181471940D01*
X173489183Y-181471940D02*
X173393945Y-181519559D01*
X173393945Y-181519559D02*
X173346326Y-181567178D01*
X173346326Y-181567178D02*
X173298707Y-181662416D01*
X173298707Y-181662416D02*
X173298707Y-181900511D01*
X173298707Y-181900511D02*
X173346326Y-181995749D01*
X173346326Y-181995749D02*
X173393945Y-182043369D01*
X173393945Y-182043369D02*
X173489183Y-182090988D01*
X173489183Y-182090988D02*
X173774897Y-182090988D01*
X173774897Y-182090988D02*
X173870135Y-182043369D01*
X173870135Y-182043369D02*
X173917754Y-181995749D01*
X172965373Y-181090988D02*
X172346326Y-181090988D01*
X172346326Y-181090988D02*
X172679659Y-181471940D01*
X172679659Y-181471940D02*
X172536802Y-181471940D01*
X172536802Y-181471940D02*
X172441564Y-181519559D01*
X172441564Y-181519559D02*
X172393945Y-181567178D01*
X172393945Y-181567178D02*
X172346326Y-181662416D01*
X172346326Y-181662416D02*
X172346326Y-181900511D01*
X172346326Y-181900511D02*
X172393945Y-181995749D01*
X172393945Y-181995749D02*
X172441564Y-182043369D01*
X172441564Y-182043369D02*
X172536802Y-182090988D01*
X172536802Y-182090988D02*
X172822516Y-182090988D01*
X172822516Y-182090988D02*
X172917754Y-182043369D01*
X172917754Y-182043369D02*
X172965373Y-181995749D01*
X186379516Y-163167988D02*
X186379516Y-162167988D01*
X186379516Y-162167988D02*
X186141421Y-162167988D01*
X186141421Y-162167988D02*
X185998564Y-162215607D01*
X185998564Y-162215607D02*
X185903326Y-162310845D01*
X185903326Y-162310845D02*
X185855707Y-162406083D01*
X185855707Y-162406083D02*
X185808088Y-162596559D01*
X185808088Y-162596559D02*
X185808088Y-162739416D01*
X185808088Y-162739416D02*
X185855707Y-162929892D01*
X185855707Y-162929892D02*
X185903326Y-163025130D01*
X185903326Y-163025130D02*
X185998564Y-163120369D01*
X185998564Y-163120369D02*
X186141421Y-163167988D01*
X186141421Y-163167988D02*
X186379516Y-163167988D01*
X185474754Y-162167988D02*
X184855707Y-162167988D01*
X184855707Y-162167988D02*
X185189040Y-162548940D01*
X185189040Y-162548940D02*
X185046183Y-162548940D01*
X185046183Y-162548940D02*
X184950945Y-162596559D01*
X184950945Y-162596559D02*
X184903326Y-162644178D01*
X184903326Y-162644178D02*
X184855707Y-162739416D01*
X184855707Y-162739416D02*
X184855707Y-162977511D01*
X184855707Y-162977511D02*
X184903326Y-163072749D01*
X184903326Y-163072749D02*
X184950945Y-163120369D01*
X184950945Y-163120369D02*
X185046183Y-163167988D01*
X185046183Y-163167988D02*
X185331897Y-163167988D01*
X185331897Y-163167988D02*
X185427135Y-163120369D01*
X185427135Y-163120369D02*
X185474754Y-163072749D01*
X183998564Y-162167988D02*
X184189040Y-162167988D01*
X184189040Y-162167988D02*
X184284278Y-162215607D01*
X184284278Y-162215607D02*
X184331897Y-162263226D01*
X184331897Y-162263226D02*
X184427135Y-162406083D01*
X184427135Y-162406083D02*
X184474754Y-162596559D01*
X184474754Y-162596559D02*
X184474754Y-162977511D01*
X184474754Y-162977511D02*
X184427135Y-163072749D01*
X184427135Y-163072749D02*
X184379516Y-163120369D01*
X184379516Y-163120369D02*
X184284278Y-163167988D01*
X184284278Y-163167988D02*
X184093802Y-163167988D01*
X184093802Y-163167988D02*
X183998564Y-163120369D01*
X183998564Y-163120369D02*
X183950945Y-163072749D01*
X183950945Y-163072749D02*
X183903326Y-162977511D01*
X183903326Y-162977511D02*
X183903326Y-162739416D01*
X183903326Y-162739416D02*
X183950945Y-162644178D01*
X183950945Y-162644178D02*
X183998564Y-162596559D01*
X183998564Y-162596559D02*
X184093802Y-162548940D01*
X184093802Y-162548940D02*
X184284278Y-162548940D01*
X184284278Y-162548940D02*
X184379516Y-162596559D01*
X184379516Y-162596559D02*
X184427135Y-162644178D01*
X184427135Y-162644178D02*
X184474754Y-162739416D01*
X144181466Y-229486144D02*
X143474359Y-228779038D01*
X143474359Y-228779038D02*
X143306000Y-228947396D01*
X143306000Y-228947396D02*
X143238657Y-229082083D01*
X143238657Y-229082083D02*
X143238657Y-229216770D01*
X143238657Y-229216770D02*
X143272329Y-229317786D01*
X143272329Y-229317786D02*
X143373344Y-229486144D01*
X143373344Y-229486144D02*
X143474359Y-229587160D01*
X143474359Y-229587160D02*
X143642718Y-229688175D01*
X143642718Y-229688175D02*
X143743733Y-229721847D01*
X143743733Y-229721847D02*
X143878420Y-229721847D01*
X143878420Y-229721847D02*
X144013107Y-229654503D01*
X144013107Y-229654503D02*
X144181466Y-229486144D01*
X142868268Y-229519816D02*
X142800924Y-229519816D01*
X142800924Y-229519816D02*
X142699909Y-229553488D01*
X142699909Y-229553488D02*
X142531550Y-229721847D01*
X142531550Y-229721847D02*
X142497878Y-229822862D01*
X142497878Y-229822862D02*
X142497878Y-229890205D01*
X142497878Y-229890205D02*
X142531550Y-229991221D01*
X142531550Y-229991221D02*
X142598894Y-230058564D01*
X142598894Y-230058564D02*
X142733581Y-230125908D01*
X142733581Y-230125908D02*
X143541703Y-230125908D01*
X143541703Y-230125908D02*
X143103970Y-230563640D01*
X141790771Y-230462625D02*
X141925458Y-230327938D01*
X141925458Y-230327938D02*
X142026474Y-230294267D01*
X142026474Y-230294267D02*
X142093817Y-230294267D01*
X142093817Y-230294267D02*
X142262176Y-230327938D01*
X142262176Y-230327938D02*
X142430535Y-230428954D01*
X142430535Y-230428954D02*
X142699909Y-230698328D01*
X142699909Y-230698328D02*
X142733580Y-230799343D01*
X142733580Y-230799343D02*
X142733580Y-230866686D01*
X142733580Y-230866686D02*
X142699909Y-230967702D01*
X142699909Y-230967702D02*
X142565222Y-231102389D01*
X142565222Y-231102389D02*
X142464206Y-231136060D01*
X142464206Y-231136060D02*
X142396863Y-231136060D01*
X142396863Y-231136060D02*
X142295848Y-231102389D01*
X142295848Y-231102389D02*
X142127489Y-230934030D01*
X142127489Y-230934030D02*
X142093817Y-230833015D01*
X142093817Y-230833015D02*
X142093817Y-230765671D01*
X142093817Y-230765671D02*
X142127489Y-230664656D01*
X142127489Y-230664656D02*
X142262176Y-230529969D01*
X142262176Y-230529969D02*
X142363191Y-230496297D01*
X142363191Y-230496297D02*
X142430535Y-230496297D01*
X142430535Y-230496297D02*
X142531550Y-230529969D01*
X154976466Y-164970144D02*
X154269359Y-164263038D01*
X154269359Y-164263038D02*
X154101000Y-164431396D01*
X154101000Y-164431396D02*
X154033657Y-164566083D01*
X154033657Y-164566083D02*
X154033657Y-164700770D01*
X154033657Y-164700770D02*
X154067329Y-164801786D01*
X154067329Y-164801786D02*
X154168344Y-164970144D01*
X154168344Y-164970144D02*
X154269359Y-165071160D01*
X154269359Y-165071160D02*
X154437718Y-165172175D01*
X154437718Y-165172175D02*
X154538733Y-165205847D01*
X154538733Y-165205847D02*
X154673420Y-165205847D01*
X154673420Y-165205847D02*
X154808107Y-165138503D01*
X154808107Y-165138503D02*
X154976466Y-164970144D01*
X153898970Y-166047640D02*
X154303031Y-165643579D01*
X154101000Y-165845610D02*
X153393894Y-165138503D01*
X153393894Y-165138503D02*
X153562252Y-165172175D01*
X153562252Y-165172175D02*
X153696939Y-165172175D01*
X153696939Y-165172175D02*
X153797955Y-165138503D01*
X152956161Y-165576236D02*
X152484756Y-166047641D01*
X152484756Y-166047641D02*
X153494909Y-166451702D01*
X146721466Y-215135144D02*
X146014359Y-214428038D01*
X146014359Y-214428038D02*
X145846000Y-214596396D01*
X145846000Y-214596396D02*
X145778657Y-214731083D01*
X145778657Y-214731083D02*
X145778657Y-214865770D01*
X145778657Y-214865770D02*
X145812329Y-214966786D01*
X145812329Y-214966786D02*
X145913344Y-215135144D01*
X145913344Y-215135144D02*
X146014359Y-215236160D01*
X146014359Y-215236160D02*
X146182718Y-215337175D01*
X146182718Y-215337175D02*
X146283733Y-215370847D01*
X146283733Y-215370847D02*
X146418420Y-215370847D01*
X146418420Y-215370847D02*
X146553107Y-215303503D01*
X146553107Y-215303503D02*
X146721466Y-215135144D01*
X145408268Y-215168816D02*
X145340924Y-215168816D01*
X145340924Y-215168816D02*
X145239909Y-215202488D01*
X145239909Y-215202488D02*
X145071550Y-215370847D01*
X145071550Y-215370847D02*
X145037878Y-215471862D01*
X145037878Y-215471862D02*
X145037878Y-215539205D01*
X145037878Y-215539205D02*
X145071550Y-215640221D01*
X145071550Y-215640221D02*
X145138894Y-215707564D01*
X145138894Y-215707564D02*
X145273581Y-215774908D01*
X145273581Y-215774908D02*
X146081703Y-215774908D01*
X146081703Y-215774908D02*
X145643970Y-216212640D01*
X144566474Y-216347328D02*
X145037878Y-216818732D01*
X144465458Y-215909595D02*
X145138893Y-216246312D01*
X145138893Y-216246312D02*
X144701161Y-216684045D01*
X159709516Y-207236988D02*
X159709516Y-206236988D01*
X159709516Y-206236988D02*
X159471421Y-206236988D01*
X159471421Y-206236988D02*
X159328564Y-206284607D01*
X159328564Y-206284607D02*
X159233326Y-206379845D01*
X159233326Y-206379845D02*
X159185707Y-206475083D01*
X159185707Y-206475083D02*
X159138088Y-206665559D01*
X159138088Y-206665559D02*
X159138088Y-206808416D01*
X159138088Y-206808416D02*
X159185707Y-206998892D01*
X159185707Y-206998892D02*
X159233326Y-207094130D01*
X159233326Y-207094130D02*
X159328564Y-207189369D01*
X159328564Y-207189369D02*
X159471421Y-207236988D01*
X159471421Y-207236988D02*
X159709516Y-207236988D01*
X158757135Y-206332226D02*
X158709516Y-206284607D01*
X158709516Y-206284607D02*
X158614278Y-206236988D01*
X158614278Y-206236988D02*
X158376183Y-206236988D01*
X158376183Y-206236988D02*
X158280945Y-206284607D01*
X158280945Y-206284607D02*
X158233326Y-206332226D01*
X158233326Y-206332226D02*
X158185707Y-206427464D01*
X158185707Y-206427464D02*
X158185707Y-206522702D01*
X158185707Y-206522702D02*
X158233326Y-206665559D01*
X158233326Y-206665559D02*
X158804754Y-207236988D01*
X158804754Y-207236988D02*
X158185707Y-207236988D01*
X157709516Y-207236988D02*
X157519040Y-207236988D01*
X157519040Y-207236988D02*
X157423802Y-207189369D01*
X157423802Y-207189369D02*
X157376183Y-207141749D01*
X157376183Y-207141749D02*
X157280945Y-206998892D01*
X157280945Y-206998892D02*
X157233326Y-206808416D01*
X157233326Y-206808416D02*
X157233326Y-206427464D01*
X157233326Y-206427464D02*
X157280945Y-206332226D01*
X157280945Y-206332226D02*
X157328564Y-206284607D01*
X157328564Y-206284607D02*
X157423802Y-206236988D01*
X157423802Y-206236988D02*
X157614278Y-206236988D01*
X157614278Y-206236988D02*
X157709516Y-206284607D01*
X157709516Y-206284607D02*
X157757135Y-206332226D01*
X157757135Y-206332226D02*
X157804754Y-206427464D01*
X157804754Y-206427464D02*
X157804754Y-206665559D01*
X157804754Y-206665559D02*
X157757135Y-206760797D01*
X157757135Y-206760797D02*
X157709516Y-206808416D01*
X157709516Y-206808416D02*
X157614278Y-206856035D01*
X157614278Y-206856035D02*
X157423802Y-206856035D01*
X157423802Y-206856035D02*
X157328564Y-206808416D01*
X157328564Y-206808416D02*
X157280945Y-206760797D01*
X157280945Y-206760797D02*
X157233326Y-206665559D01*
X167473266Y-140992544D02*
X166766159Y-140285438D01*
X166766159Y-140285438D02*
X166597800Y-140453796D01*
X166597800Y-140453796D02*
X166530457Y-140588483D01*
X166530457Y-140588483D02*
X166530457Y-140723170D01*
X166530457Y-140723170D02*
X166564129Y-140824186D01*
X166564129Y-140824186D02*
X166665144Y-140992544D01*
X166665144Y-140992544D02*
X166766159Y-141093560D01*
X166766159Y-141093560D02*
X166934518Y-141194575D01*
X166934518Y-141194575D02*
X167035533Y-141228247D01*
X167035533Y-141228247D02*
X167170220Y-141228247D01*
X167170220Y-141228247D02*
X167304907Y-141160903D01*
X167304907Y-141160903D02*
X167473266Y-140992544D01*
X165991709Y-141531292D02*
X166463113Y-142002697D01*
X165890694Y-141093560D02*
X166564129Y-141430277D01*
X166564129Y-141430277D02*
X166126396Y-141868010D01*
X165048900Y-142002697D02*
X165385617Y-141665979D01*
X165385617Y-141665979D02*
X165756006Y-141969025D01*
X165756006Y-141969025D02*
X165688663Y-141969025D01*
X165688663Y-141969025D02*
X165587648Y-142002697D01*
X165587648Y-142002697D02*
X165419289Y-142171056D01*
X165419289Y-142171056D02*
X165385617Y-142272071D01*
X165385617Y-142272071D02*
X165385617Y-142339415D01*
X165385617Y-142339415D02*
X165419289Y-142440430D01*
X165419289Y-142440430D02*
X165587648Y-142608789D01*
X165587648Y-142608789D02*
X165688663Y-142642460D01*
X165688663Y-142642460D02*
X165756006Y-142642460D01*
X165756006Y-142642460D02*
X165857022Y-142608789D01*
X165857022Y-142608789D02*
X166025380Y-142440430D01*
X166025380Y-142440430D02*
X166059052Y-142339415D01*
X166059052Y-142339415D02*
X166059052Y-142272071D01*
X157262466Y-150492144D02*
X156555359Y-149785038D01*
X156555359Y-149785038D02*
X156387000Y-149953396D01*
X156387000Y-149953396D02*
X156319657Y-150088083D01*
X156319657Y-150088083D02*
X156319657Y-150222770D01*
X156319657Y-150222770D02*
X156353329Y-150323786D01*
X156353329Y-150323786D02*
X156454344Y-150492144D01*
X156454344Y-150492144D02*
X156555359Y-150593160D01*
X156555359Y-150593160D02*
X156723718Y-150694175D01*
X156723718Y-150694175D02*
X156824733Y-150727847D01*
X156824733Y-150727847D02*
X156959420Y-150727847D01*
X156959420Y-150727847D02*
X157094107Y-150660503D01*
X157094107Y-150660503D02*
X157262466Y-150492144D01*
X156184970Y-151569640D02*
X156589031Y-151165579D01*
X156387000Y-151367610D02*
X155679894Y-150660503D01*
X155679894Y-150660503D02*
X155848252Y-150694175D01*
X155848252Y-150694175D02*
X155982939Y-150694175D01*
X155982939Y-150694175D02*
X156083955Y-150660503D01*
X154838100Y-151502297D02*
X155174817Y-151165579D01*
X155174817Y-151165579D02*
X155545206Y-151468625D01*
X155545206Y-151468625D02*
X155477863Y-151468625D01*
X155477863Y-151468625D02*
X155376848Y-151502297D01*
X155376848Y-151502297D02*
X155208489Y-151670656D01*
X155208489Y-151670656D02*
X155174817Y-151771671D01*
X155174817Y-151771671D02*
X155174817Y-151839015D01*
X155174817Y-151839015D02*
X155208489Y-151940030D01*
X155208489Y-151940030D02*
X155376848Y-152108389D01*
X155376848Y-152108389D02*
X155477863Y-152142060D01*
X155477863Y-152142060D02*
X155545206Y-152142060D01*
X155545206Y-152142060D02*
X155646222Y-152108389D01*
X155646222Y-152108389D02*
X155814580Y-151940030D01*
X155814580Y-151940030D02*
X155848252Y-151839015D01*
X155848252Y-151839015D02*
X155848252Y-151771671D01*
X152817466Y-179194144D02*
X152110359Y-178487038D01*
X152110359Y-178487038D02*
X151942000Y-178655396D01*
X151942000Y-178655396D02*
X151874657Y-178790083D01*
X151874657Y-178790083D02*
X151874657Y-178924770D01*
X151874657Y-178924770D02*
X151908329Y-179025786D01*
X151908329Y-179025786D02*
X152009344Y-179194144D01*
X152009344Y-179194144D02*
X152110359Y-179295160D01*
X152110359Y-179295160D02*
X152278718Y-179396175D01*
X152278718Y-179396175D02*
X152379733Y-179429847D01*
X152379733Y-179429847D02*
X152514420Y-179429847D01*
X152514420Y-179429847D02*
X152649107Y-179362503D01*
X152649107Y-179362503D02*
X152817466Y-179194144D01*
X151739970Y-180271640D02*
X152144031Y-179867579D01*
X151942000Y-180069610D02*
X151234894Y-179362503D01*
X151234894Y-179362503D02*
X151403252Y-179396175D01*
X151403252Y-179396175D02*
X151537939Y-179396175D01*
X151537939Y-179396175D02*
X151638955Y-179362503D01*
X151403252Y-180608358D02*
X151268565Y-180743045D01*
X151268565Y-180743045D02*
X151167550Y-180776717D01*
X151167550Y-180776717D02*
X151100206Y-180776717D01*
X151100206Y-180776717D02*
X150931848Y-180743045D01*
X150931848Y-180743045D02*
X150763489Y-180642030D01*
X150763489Y-180642030D02*
X150494115Y-180372656D01*
X150494115Y-180372656D02*
X150460443Y-180271641D01*
X150460443Y-180271641D02*
X150460443Y-180204297D01*
X150460443Y-180204297D02*
X150494115Y-180103282D01*
X150494115Y-180103282D02*
X150628802Y-179968595D01*
X150628802Y-179968595D02*
X150729817Y-179934923D01*
X150729817Y-179934923D02*
X150797161Y-179934923D01*
X150797161Y-179934923D02*
X150898176Y-179968595D01*
X150898176Y-179968595D02*
X151066535Y-180136954D01*
X151066535Y-180136954D02*
X151100206Y-180237969D01*
X151100206Y-180237969D02*
X151100206Y-180305312D01*
X151100206Y-180305312D02*
X151066535Y-180406328D01*
X151066535Y-180406328D02*
X150931848Y-180541015D01*
X150931848Y-180541015D02*
X150830832Y-180574686D01*
X150830832Y-180574686D02*
X150763489Y-180574686D01*
X150763489Y-180574686D02*
X150662474Y-180541015D01*
X184821466Y-137665144D02*
X184114359Y-136958038D01*
X184114359Y-136958038D02*
X183946000Y-137126396D01*
X183946000Y-137126396D02*
X183878657Y-137261083D01*
X183878657Y-137261083D02*
X183878657Y-137395770D01*
X183878657Y-137395770D02*
X183912329Y-137496786D01*
X183912329Y-137496786D02*
X184013344Y-137665144D01*
X184013344Y-137665144D02*
X184114359Y-137766160D01*
X184114359Y-137766160D02*
X184282718Y-137867175D01*
X184282718Y-137867175D02*
X184383733Y-137900847D01*
X184383733Y-137900847D02*
X184518420Y-137900847D01*
X184518420Y-137900847D02*
X184653107Y-137833503D01*
X184653107Y-137833503D02*
X184821466Y-137665144D01*
X183339909Y-138203892D02*
X183811313Y-138675297D01*
X183238894Y-137766160D02*
X183912329Y-138102877D01*
X183912329Y-138102877D02*
X183474596Y-138540610D01*
X182834832Y-138372251D02*
X182767489Y-138372251D01*
X182767489Y-138372251D02*
X182666474Y-138405923D01*
X182666474Y-138405923D02*
X182498115Y-138574282D01*
X182498115Y-138574282D02*
X182464443Y-138675297D01*
X182464443Y-138675297D02*
X182464443Y-138742641D01*
X182464443Y-138742641D02*
X182498115Y-138843656D01*
X182498115Y-138843656D02*
X182565458Y-138910999D01*
X182565458Y-138910999D02*
X182700145Y-138978343D01*
X182700145Y-138978343D02*
X183508267Y-138978343D01*
X183508267Y-138978343D02*
X183070535Y-139416076D01*
X182315516Y-169263988D02*
X182315516Y-168263988D01*
X182315516Y-168263988D02*
X182077421Y-168263988D01*
X182077421Y-168263988D02*
X181934564Y-168311607D01*
X181934564Y-168311607D02*
X181839326Y-168406845D01*
X181839326Y-168406845D02*
X181791707Y-168502083D01*
X181791707Y-168502083D02*
X181744088Y-168692559D01*
X181744088Y-168692559D02*
X181744088Y-168835416D01*
X181744088Y-168835416D02*
X181791707Y-169025892D01*
X181791707Y-169025892D02*
X181839326Y-169121130D01*
X181839326Y-169121130D02*
X181934564Y-169216369D01*
X181934564Y-169216369D02*
X182077421Y-169263988D01*
X182077421Y-169263988D02*
X182315516Y-169263988D01*
X181410754Y-168263988D02*
X180791707Y-168263988D01*
X180791707Y-168263988D02*
X181125040Y-168644940D01*
X181125040Y-168644940D02*
X180982183Y-168644940D01*
X180982183Y-168644940D02*
X180886945Y-168692559D01*
X180886945Y-168692559D02*
X180839326Y-168740178D01*
X180839326Y-168740178D02*
X180791707Y-168835416D01*
X180791707Y-168835416D02*
X180791707Y-169073511D01*
X180791707Y-169073511D02*
X180839326Y-169168749D01*
X180839326Y-169168749D02*
X180886945Y-169216369D01*
X180886945Y-169216369D02*
X180982183Y-169263988D01*
X180982183Y-169263988D02*
X181267897Y-169263988D01*
X181267897Y-169263988D02*
X181363135Y-169216369D01*
X181363135Y-169216369D02*
X181410754Y-169168749D01*
X179886945Y-168263988D02*
X180363135Y-168263988D01*
X180363135Y-168263988D02*
X180410754Y-168740178D01*
X180410754Y-168740178D02*
X180363135Y-168692559D01*
X180363135Y-168692559D02*
X180267897Y-168644940D01*
X180267897Y-168644940D02*
X180029802Y-168644940D01*
X180029802Y-168644940D02*
X179934564Y-168692559D01*
X179934564Y-168692559D02*
X179886945Y-168740178D01*
X179886945Y-168740178D02*
X179839326Y-168835416D01*
X179839326Y-168835416D02*
X179839326Y-169073511D01*
X179839326Y-169073511D02*
X179886945Y-169168749D01*
X179886945Y-169168749D02*
X179934564Y-169216369D01*
X179934564Y-169216369D02*
X180029802Y-169263988D01*
X180029802Y-169263988D02*
X180267897Y-169263988D01*
X180267897Y-169263988D02*
X180363135Y-169216369D01*
X180363135Y-169216369D02*
X180410754Y-169168749D01*
X163519516Y-200886988D02*
X163519516Y-199886988D01*
X163519516Y-199886988D02*
X163281421Y-199886988D01*
X163281421Y-199886988D02*
X163138564Y-199934607D01*
X163138564Y-199934607D02*
X163043326Y-200029845D01*
X163043326Y-200029845D02*
X162995707Y-200125083D01*
X162995707Y-200125083D02*
X162948088Y-200315559D01*
X162948088Y-200315559D02*
X162948088Y-200458416D01*
X162948088Y-200458416D02*
X162995707Y-200648892D01*
X162995707Y-200648892D02*
X163043326Y-200744130D01*
X163043326Y-200744130D02*
X163138564Y-200839369D01*
X163138564Y-200839369D02*
X163281421Y-200886988D01*
X163281421Y-200886988D02*
X163519516Y-200886988D01*
X162614754Y-199886988D02*
X161995707Y-199886988D01*
X161995707Y-199886988D02*
X162329040Y-200267940D01*
X162329040Y-200267940D02*
X162186183Y-200267940D01*
X162186183Y-200267940D02*
X162090945Y-200315559D01*
X162090945Y-200315559D02*
X162043326Y-200363178D01*
X162043326Y-200363178D02*
X161995707Y-200458416D01*
X161995707Y-200458416D02*
X161995707Y-200696511D01*
X161995707Y-200696511D02*
X162043326Y-200791749D01*
X162043326Y-200791749D02*
X162090945Y-200839369D01*
X162090945Y-200839369D02*
X162186183Y-200886988D01*
X162186183Y-200886988D02*
X162471897Y-200886988D01*
X162471897Y-200886988D02*
X162567135Y-200839369D01*
X162567135Y-200839369D02*
X162614754Y-200791749D01*
X161376659Y-199886988D02*
X161281421Y-199886988D01*
X161281421Y-199886988D02*
X161186183Y-199934607D01*
X161186183Y-199934607D02*
X161138564Y-199982226D01*
X161138564Y-199982226D02*
X161090945Y-200077464D01*
X161090945Y-200077464D02*
X161043326Y-200267940D01*
X161043326Y-200267940D02*
X161043326Y-200506035D01*
X161043326Y-200506035D02*
X161090945Y-200696511D01*
X161090945Y-200696511D02*
X161138564Y-200791749D01*
X161138564Y-200791749D02*
X161186183Y-200839369D01*
X161186183Y-200839369D02*
X161281421Y-200886988D01*
X161281421Y-200886988D02*
X161376659Y-200886988D01*
X161376659Y-200886988D02*
X161471897Y-200839369D01*
X161471897Y-200839369D02*
X161519516Y-200791749D01*
X161519516Y-200791749D02*
X161567135Y-200696511D01*
X161567135Y-200696511D02*
X161614754Y-200506035D01*
X161614754Y-200506035D02*
X161614754Y-200267940D01*
X161614754Y-200267940D02*
X161567135Y-200077464D01*
X161567135Y-200077464D02*
X161519516Y-199982226D01*
X161519516Y-199982226D02*
X161471897Y-199934607D01*
X161471897Y-199934607D02*
X161376659Y-199886988D01*
X156119466Y-157604144D02*
X155412359Y-156897038D01*
X155412359Y-156897038D02*
X155244000Y-157065396D01*
X155244000Y-157065396D02*
X155176657Y-157200083D01*
X155176657Y-157200083D02*
X155176657Y-157334770D01*
X155176657Y-157334770D02*
X155210329Y-157435786D01*
X155210329Y-157435786D02*
X155311344Y-157604144D01*
X155311344Y-157604144D02*
X155412359Y-157705160D01*
X155412359Y-157705160D02*
X155580718Y-157806175D01*
X155580718Y-157806175D02*
X155681733Y-157839847D01*
X155681733Y-157839847D02*
X155816420Y-157839847D01*
X155816420Y-157839847D02*
X155951107Y-157772503D01*
X155951107Y-157772503D02*
X156119466Y-157604144D01*
X155041970Y-158681640D02*
X155446031Y-158277579D01*
X155244000Y-158479610D02*
X154536894Y-157772503D01*
X154536894Y-157772503D02*
X154705252Y-157806175D01*
X154705252Y-157806175D02*
X154839939Y-157806175D01*
X154839939Y-157806175D02*
X154940955Y-157772503D01*
X153728771Y-158580625D02*
X153863458Y-158445938D01*
X153863458Y-158445938D02*
X153964474Y-158412267D01*
X153964474Y-158412267D02*
X154031817Y-158412267D01*
X154031817Y-158412267D02*
X154200176Y-158445938D01*
X154200176Y-158445938D02*
X154368535Y-158546954D01*
X154368535Y-158546954D02*
X154637909Y-158816328D01*
X154637909Y-158816328D02*
X154671580Y-158917343D01*
X154671580Y-158917343D02*
X154671580Y-158984686D01*
X154671580Y-158984686D02*
X154637909Y-159085702D01*
X154637909Y-159085702D02*
X154503222Y-159220389D01*
X154503222Y-159220389D02*
X154402206Y-159254060D01*
X154402206Y-159254060D02*
X154334863Y-159254060D01*
X154334863Y-159254060D02*
X154233848Y-159220389D01*
X154233848Y-159220389D02*
X154065489Y-159052030D01*
X154065489Y-159052030D02*
X154031817Y-158951015D01*
X154031817Y-158951015D02*
X154031817Y-158883671D01*
X154031817Y-158883671D02*
X154065489Y-158782656D01*
X154065489Y-158782656D02*
X154200176Y-158647969D01*
X154200176Y-158647969D02*
X154301191Y-158614297D01*
X154301191Y-158614297D02*
X154368535Y-158614297D01*
X154368535Y-158614297D02*
X154469550Y-158647969D01*
X171012516Y-188313988D02*
X171012516Y-187313988D01*
X171012516Y-187313988D02*
X170774421Y-187313988D01*
X170774421Y-187313988D02*
X170631564Y-187361607D01*
X170631564Y-187361607D02*
X170536326Y-187456845D01*
X170536326Y-187456845D02*
X170488707Y-187552083D01*
X170488707Y-187552083D02*
X170441088Y-187742559D01*
X170441088Y-187742559D02*
X170441088Y-187885416D01*
X170441088Y-187885416D02*
X170488707Y-188075892D01*
X170488707Y-188075892D02*
X170536326Y-188171130D01*
X170536326Y-188171130D02*
X170631564Y-188266369D01*
X170631564Y-188266369D02*
X170774421Y-188313988D01*
X170774421Y-188313988D02*
X171012516Y-188313988D01*
X170107754Y-187313988D02*
X169488707Y-187313988D01*
X169488707Y-187313988D02*
X169822040Y-187694940D01*
X169822040Y-187694940D02*
X169679183Y-187694940D01*
X169679183Y-187694940D02*
X169583945Y-187742559D01*
X169583945Y-187742559D02*
X169536326Y-187790178D01*
X169536326Y-187790178D02*
X169488707Y-187885416D01*
X169488707Y-187885416D02*
X169488707Y-188123511D01*
X169488707Y-188123511D02*
X169536326Y-188218749D01*
X169536326Y-188218749D02*
X169583945Y-188266369D01*
X169583945Y-188266369D02*
X169679183Y-188313988D01*
X169679183Y-188313988D02*
X169964897Y-188313988D01*
X169964897Y-188313988D02*
X170060135Y-188266369D01*
X170060135Y-188266369D02*
X170107754Y-188218749D01*
X169107754Y-187409226D02*
X169060135Y-187361607D01*
X169060135Y-187361607D02*
X168964897Y-187313988D01*
X168964897Y-187313988D02*
X168726802Y-187313988D01*
X168726802Y-187313988D02*
X168631564Y-187361607D01*
X168631564Y-187361607D02*
X168583945Y-187409226D01*
X168583945Y-187409226D02*
X168536326Y-187504464D01*
X168536326Y-187504464D02*
X168536326Y-187599702D01*
X168536326Y-187599702D02*
X168583945Y-187742559D01*
X168583945Y-187742559D02*
X169155373Y-188313988D01*
X169155373Y-188313988D02*
X168536326Y-188313988D01*
X170978466Y-137665144D02*
X170271359Y-136958038D01*
X170271359Y-136958038D02*
X170103000Y-137126396D01*
X170103000Y-137126396D02*
X170035657Y-137261083D01*
X170035657Y-137261083D02*
X170035657Y-137395770D01*
X170035657Y-137395770D02*
X170069329Y-137496786D01*
X170069329Y-137496786D02*
X170170344Y-137665144D01*
X170170344Y-137665144D02*
X170271359Y-137766160D01*
X170271359Y-137766160D02*
X170439718Y-137867175D01*
X170439718Y-137867175D02*
X170540733Y-137900847D01*
X170540733Y-137900847D02*
X170675420Y-137900847D01*
X170675420Y-137900847D02*
X170810107Y-137833503D01*
X170810107Y-137833503D02*
X170978466Y-137665144D01*
X169496909Y-138203892D02*
X169968313Y-138675297D01*
X169395894Y-137766160D02*
X170069329Y-138102877D01*
X170069329Y-138102877D02*
X169631596Y-138540610D01*
X168823474Y-138877328D02*
X169294878Y-139348732D01*
X168722458Y-138439595D02*
X169395893Y-138776312D01*
X169395893Y-138776312D02*
X168958161Y-139214045D01*
X149134466Y-200784144D02*
X148427359Y-200077038D01*
X148427359Y-200077038D02*
X148259000Y-200245396D01*
X148259000Y-200245396D02*
X148191657Y-200380083D01*
X148191657Y-200380083D02*
X148191657Y-200514770D01*
X148191657Y-200514770D02*
X148225329Y-200615786D01*
X148225329Y-200615786D02*
X148326344Y-200784144D01*
X148326344Y-200784144D02*
X148427359Y-200885160D01*
X148427359Y-200885160D02*
X148595718Y-200986175D01*
X148595718Y-200986175D02*
X148696733Y-201019847D01*
X148696733Y-201019847D02*
X148831420Y-201019847D01*
X148831420Y-201019847D02*
X148966107Y-200952503D01*
X148966107Y-200952503D02*
X149134466Y-200784144D01*
X147821268Y-200817816D02*
X147753924Y-200817816D01*
X147753924Y-200817816D02*
X147652909Y-200851488D01*
X147652909Y-200851488D02*
X147484550Y-201019847D01*
X147484550Y-201019847D02*
X147450878Y-201120862D01*
X147450878Y-201120862D02*
X147450878Y-201188205D01*
X147450878Y-201188205D02*
X147484550Y-201289221D01*
X147484550Y-201289221D02*
X147551894Y-201356564D01*
X147551894Y-201356564D02*
X147686581Y-201423908D01*
X147686581Y-201423908D02*
X148494703Y-201423908D01*
X148494703Y-201423908D02*
X148056970Y-201861640D01*
X147147832Y-201491251D02*
X147080489Y-201491251D01*
X147080489Y-201491251D02*
X146979474Y-201524923D01*
X146979474Y-201524923D02*
X146811115Y-201693282D01*
X146811115Y-201693282D02*
X146777443Y-201794297D01*
X146777443Y-201794297D02*
X146777443Y-201861641D01*
X146777443Y-201861641D02*
X146811115Y-201962656D01*
X146811115Y-201962656D02*
X146878458Y-202029999D01*
X146878458Y-202029999D02*
X147013145Y-202097343D01*
X147013145Y-202097343D02*
X147821267Y-202097343D01*
X147821267Y-202097343D02*
X147383535Y-202535076D01*
X189808516Y-156690988D02*
X189808516Y-155690988D01*
X189808516Y-155690988D02*
X189570421Y-155690988D01*
X189570421Y-155690988D02*
X189427564Y-155738607D01*
X189427564Y-155738607D02*
X189332326Y-155833845D01*
X189332326Y-155833845D02*
X189284707Y-155929083D01*
X189284707Y-155929083D02*
X189237088Y-156119559D01*
X189237088Y-156119559D02*
X189237088Y-156262416D01*
X189237088Y-156262416D02*
X189284707Y-156452892D01*
X189284707Y-156452892D02*
X189332326Y-156548130D01*
X189332326Y-156548130D02*
X189427564Y-156643369D01*
X189427564Y-156643369D02*
X189570421Y-156690988D01*
X189570421Y-156690988D02*
X189808516Y-156690988D01*
X188903754Y-155690988D02*
X188284707Y-155690988D01*
X188284707Y-155690988D02*
X188618040Y-156071940D01*
X188618040Y-156071940D02*
X188475183Y-156071940D01*
X188475183Y-156071940D02*
X188379945Y-156119559D01*
X188379945Y-156119559D02*
X188332326Y-156167178D01*
X188332326Y-156167178D02*
X188284707Y-156262416D01*
X188284707Y-156262416D02*
X188284707Y-156500511D01*
X188284707Y-156500511D02*
X188332326Y-156595749D01*
X188332326Y-156595749D02*
X188379945Y-156643369D01*
X188379945Y-156643369D02*
X188475183Y-156690988D01*
X188475183Y-156690988D02*
X188760897Y-156690988D01*
X188760897Y-156690988D02*
X188856135Y-156643369D01*
X188856135Y-156643369D02*
X188903754Y-156595749D01*
X187951373Y-155690988D02*
X187284707Y-155690988D01*
X187284707Y-155690988D02*
X187713278Y-156690988D01*
X151420467Y-186306144D02*
X150713360Y-185599038D01*
X150713360Y-185599038D02*
X150545001Y-185767396D01*
X150545001Y-185767396D02*
X150477658Y-185902083D01*
X150477658Y-185902083D02*
X150477658Y-186036770D01*
X150477658Y-186036770D02*
X150511330Y-186137786D01*
X150511330Y-186137786D02*
X150612345Y-186306144D01*
X150612345Y-186306144D02*
X150713360Y-186407160D01*
X150713360Y-186407160D02*
X150881719Y-186508175D01*
X150881719Y-186508175D02*
X150982734Y-186541847D01*
X150982734Y-186541847D02*
X151117421Y-186541847D01*
X151117421Y-186541847D02*
X151252108Y-186474503D01*
X151252108Y-186474503D02*
X151420467Y-186306144D01*
X150107269Y-186339816D02*
X150039925Y-186339816D01*
X150039925Y-186339816D02*
X149938910Y-186373488D01*
X149938910Y-186373488D02*
X149770551Y-186541847D01*
X149770551Y-186541847D02*
X149736879Y-186642862D01*
X149736879Y-186642862D02*
X149736879Y-186710205D01*
X149736879Y-186710205D02*
X149770551Y-186811221D01*
X149770551Y-186811221D02*
X149837895Y-186878564D01*
X149837895Y-186878564D02*
X149972582Y-186945908D01*
X149972582Y-186945908D02*
X150780704Y-186945908D01*
X150780704Y-186945908D02*
X150342971Y-187383640D01*
X149198131Y-187114267D02*
X149130788Y-187181610D01*
X149130788Y-187181610D02*
X149097116Y-187282625D01*
X149097116Y-187282625D02*
X149097116Y-187349969D01*
X149097116Y-187349969D02*
X149130788Y-187450984D01*
X149130788Y-187450984D02*
X149231803Y-187619343D01*
X149231803Y-187619343D02*
X149400162Y-187787702D01*
X149400162Y-187787702D02*
X149568520Y-187888717D01*
X149568520Y-187888717D02*
X149669536Y-187922389D01*
X149669536Y-187922389D02*
X149736879Y-187922389D01*
X149736879Y-187922389D02*
X149837894Y-187888717D01*
X149837894Y-187888717D02*
X149905238Y-187821373D01*
X149905238Y-187821373D02*
X149938910Y-187720358D01*
X149938910Y-187720358D02*
X149938910Y-187653015D01*
X149938910Y-187653015D02*
X149905238Y-187551999D01*
X149905238Y-187551999D02*
X149804223Y-187383641D01*
X149804223Y-187383641D02*
X149635864Y-187215282D01*
X149635864Y-187215282D02*
X149467505Y-187114267D01*
X149467505Y-187114267D02*
X149366490Y-187080595D01*
X149366490Y-187080595D02*
X149299146Y-187080595D01*
X149299146Y-187080595D02*
X149198131Y-187114267D01*
X193745516Y-150594988D02*
X193745516Y-149594988D01*
X193745516Y-149594988D02*
X193507421Y-149594988D01*
X193507421Y-149594988D02*
X193364564Y-149642607D01*
X193364564Y-149642607D02*
X193269326Y-149737845D01*
X193269326Y-149737845D02*
X193221707Y-149833083D01*
X193221707Y-149833083D02*
X193174088Y-150023559D01*
X193174088Y-150023559D02*
X193174088Y-150166416D01*
X193174088Y-150166416D02*
X193221707Y-150356892D01*
X193221707Y-150356892D02*
X193269326Y-150452130D01*
X193269326Y-150452130D02*
X193364564Y-150547369D01*
X193364564Y-150547369D02*
X193507421Y-150594988D01*
X193507421Y-150594988D02*
X193745516Y-150594988D01*
X192840754Y-149594988D02*
X192221707Y-149594988D01*
X192221707Y-149594988D02*
X192555040Y-149975940D01*
X192555040Y-149975940D02*
X192412183Y-149975940D01*
X192412183Y-149975940D02*
X192316945Y-150023559D01*
X192316945Y-150023559D02*
X192269326Y-150071178D01*
X192269326Y-150071178D02*
X192221707Y-150166416D01*
X192221707Y-150166416D02*
X192221707Y-150404511D01*
X192221707Y-150404511D02*
X192269326Y-150499749D01*
X192269326Y-150499749D02*
X192316945Y-150547369D01*
X192316945Y-150547369D02*
X192412183Y-150594988D01*
X192412183Y-150594988D02*
X192697897Y-150594988D01*
X192697897Y-150594988D02*
X192793135Y-150547369D01*
X192793135Y-150547369D02*
X192840754Y-150499749D01*
X191650278Y-150023559D02*
X191745516Y-149975940D01*
X191745516Y-149975940D02*
X191793135Y-149928321D01*
X191793135Y-149928321D02*
X191840754Y-149833083D01*
X191840754Y-149833083D02*
X191840754Y-149785464D01*
X191840754Y-149785464D02*
X191793135Y-149690226D01*
X191793135Y-149690226D02*
X191745516Y-149642607D01*
X191745516Y-149642607D02*
X191650278Y-149594988D01*
X191650278Y-149594988D02*
X191459802Y-149594988D01*
X191459802Y-149594988D02*
X191364564Y-149642607D01*
X191364564Y-149642607D02*
X191316945Y-149690226D01*
X191316945Y-149690226D02*
X191269326Y-149785464D01*
X191269326Y-149785464D02*
X191269326Y-149833083D01*
X191269326Y-149833083D02*
X191316945Y-149928321D01*
X191316945Y-149928321D02*
X191364564Y-149975940D01*
X191364564Y-149975940D02*
X191459802Y-150023559D01*
X191459802Y-150023559D02*
X191650278Y-150023559D01*
X191650278Y-150023559D02*
X191745516Y-150071178D01*
X191745516Y-150071178D02*
X191793135Y-150118797D01*
X191793135Y-150118797D02*
X191840754Y-150214035D01*
X191840754Y-150214035D02*
X191840754Y-150404511D01*
X191840754Y-150404511D02*
X191793135Y-150499749D01*
X191793135Y-150499749D02*
X191745516Y-150547369D01*
X191745516Y-150547369D02*
X191650278Y-150594988D01*
X191650278Y-150594988D02*
X191459802Y-150594988D01*
X191459802Y-150594988D02*
X191364564Y-150547369D01*
X191364564Y-150547369D02*
X191316945Y-150499749D01*
X191316945Y-150499749D02*
X191269326Y-150404511D01*
X191269326Y-150404511D02*
X191269326Y-150214035D01*
X191269326Y-150214035D02*
X191316945Y-150118797D01*
X191316945Y-150118797D02*
X191364564Y-150071178D01*
X191364564Y-150071178D02*
X191459802Y-150023559D01*
X199172466Y-137665144D02*
X198465359Y-136958038D01*
X198465359Y-136958038D02*
X198297000Y-137126396D01*
X198297000Y-137126396D02*
X198229657Y-137261083D01*
X198229657Y-137261083D02*
X198229657Y-137395770D01*
X198229657Y-137395770D02*
X198263329Y-137496786D01*
X198263329Y-137496786D02*
X198364344Y-137665144D01*
X198364344Y-137665144D02*
X198465359Y-137766160D01*
X198465359Y-137766160D02*
X198633718Y-137867175D01*
X198633718Y-137867175D02*
X198734733Y-137900847D01*
X198734733Y-137900847D02*
X198869420Y-137900847D01*
X198869420Y-137900847D02*
X199004107Y-137833503D01*
X199004107Y-137833503D02*
X199172466Y-137665144D01*
X197690909Y-138203892D02*
X198162313Y-138675297D01*
X197589894Y-137766160D02*
X198263329Y-138102877D01*
X198263329Y-138102877D02*
X197825596Y-138540610D01*
X196950130Y-138473267D02*
X196882787Y-138540610D01*
X196882787Y-138540610D02*
X196849115Y-138641625D01*
X196849115Y-138641625D02*
X196849115Y-138708969D01*
X196849115Y-138708969D02*
X196882787Y-138809984D01*
X196882787Y-138809984D02*
X196983802Y-138978343D01*
X196983802Y-138978343D02*
X197152161Y-139146702D01*
X197152161Y-139146702D02*
X197320519Y-139247717D01*
X197320519Y-139247717D02*
X197421535Y-139281389D01*
X197421535Y-139281389D02*
X197488878Y-139281389D01*
X197488878Y-139281389D02*
X197589893Y-139247717D01*
X197589893Y-139247717D02*
X197657237Y-139180373D01*
X197657237Y-139180373D02*
X197690909Y-139079358D01*
X197690909Y-139079358D02*
X197690909Y-139012015D01*
X197690909Y-139012015D02*
X197657237Y-138910999D01*
X197657237Y-138910999D02*
X197556222Y-138742641D01*
X197556222Y-138742641D02*
X197387863Y-138574282D01*
X197387863Y-138574282D02*
X197219504Y-138473267D01*
X197219504Y-138473267D02*
X197118489Y-138439595D01*
X197118489Y-138439595D02*
X197051145Y-138439595D01*
X197051145Y-138439595D02*
X196950130Y-138473267D01*
X197428516Y-144244988D02*
X197428516Y-143244988D01*
X197428516Y-143244988D02*
X197190421Y-143244988D01*
X197190421Y-143244988D02*
X197047564Y-143292607D01*
X197047564Y-143292607D02*
X196952326Y-143387845D01*
X196952326Y-143387845D02*
X196904707Y-143483083D01*
X196904707Y-143483083D02*
X196857088Y-143673559D01*
X196857088Y-143673559D02*
X196857088Y-143816416D01*
X196857088Y-143816416D02*
X196904707Y-144006892D01*
X196904707Y-144006892D02*
X196952326Y-144102130D01*
X196952326Y-144102130D02*
X197047564Y-144197369D01*
X197047564Y-144197369D02*
X197190421Y-144244988D01*
X197190421Y-144244988D02*
X197428516Y-144244988D01*
X196523754Y-143244988D02*
X195904707Y-143244988D01*
X195904707Y-143244988D02*
X196238040Y-143625940D01*
X196238040Y-143625940D02*
X196095183Y-143625940D01*
X196095183Y-143625940D02*
X195999945Y-143673559D01*
X195999945Y-143673559D02*
X195952326Y-143721178D01*
X195952326Y-143721178D02*
X195904707Y-143816416D01*
X195904707Y-143816416D02*
X195904707Y-144054511D01*
X195904707Y-144054511D02*
X195952326Y-144149749D01*
X195952326Y-144149749D02*
X195999945Y-144197369D01*
X195999945Y-144197369D02*
X196095183Y-144244988D01*
X196095183Y-144244988D02*
X196380897Y-144244988D01*
X196380897Y-144244988D02*
X196476135Y-144197369D01*
X196476135Y-144197369D02*
X196523754Y-144149749D01*
X195428516Y-144244988D02*
X195238040Y-144244988D01*
X195238040Y-144244988D02*
X195142802Y-144197369D01*
X195142802Y-144197369D02*
X195095183Y-144149749D01*
X195095183Y-144149749D02*
X194999945Y-144006892D01*
X194999945Y-144006892D02*
X194952326Y-143816416D01*
X194952326Y-143816416D02*
X194952326Y-143435464D01*
X194952326Y-143435464D02*
X194999945Y-143340226D01*
X194999945Y-143340226D02*
X195047564Y-143292607D01*
X195047564Y-143292607D02*
X195142802Y-143244988D01*
X195142802Y-143244988D02*
X195333278Y-143244988D01*
X195333278Y-143244988D02*
X195428516Y-143292607D01*
X195428516Y-143292607D02*
X195476135Y-143340226D01*
X195476135Y-143340226D02*
X195523754Y-143435464D01*
X195523754Y-143435464D02*
X195523754Y-143673559D01*
X195523754Y-143673559D02*
X195476135Y-143768797D01*
X195476135Y-143768797D02*
X195428516Y-143816416D01*
X195428516Y-143816416D02*
X195333278Y-143864035D01*
X195333278Y-143864035D02*
X195142802Y-143864035D01*
X195142802Y-143864035D02*
X195047564Y-143816416D01*
X195047564Y-143816416D02*
X194999945Y-143768797D01*
X194999945Y-143768797D02*
X194952326Y-143673559D01*
X161986866Y-146631344D02*
X161279759Y-145924238D01*
X161279759Y-145924238D02*
X161111400Y-146092596D01*
X161111400Y-146092596D02*
X161044057Y-146227283D01*
X161044057Y-146227283D02*
X161044057Y-146361970D01*
X161044057Y-146361970D02*
X161077729Y-146462986D01*
X161077729Y-146462986D02*
X161178744Y-146631344D01*
X161178744Y-146631344D02*
X161279759Y-146732360D01*
X161279759Y-146732360D02*
X161448118Y-146833375D01*
X161448118Y-146833375D02*
X161549133Y-146867047D01*
X161549133Y-146867047D02*
X161683820Y-146867047D01*
X161683820Y-146867047D02*
X161818507Y-146799703D01*
X161818507Y-146799703D02*
X161986866Y-146631344D01*
X160909370Y-147708840D02*
X161313431Y-147304779D01*
X161111400Y-147506810D02*
X160404294Y-146799703D01*
X160404294Y-146799703D02*
X160572652Y-146833375D01*
X160572652Y-146833375D02*
X160707339Y-146833375D01*
X160707339Y-146833375D02*
X160808355Y-146799703D01*
X159831874Y-147843528D02*
X160303278Y-148314932D01*
X159730858Y-147405795D02*
X160404293Y-147742512D01*
X160404293Y-147742512D02*
X159966561Y-148180245D01*
X152216516Y-219936988D02*
X152216516Y-218936988D01*
X152216516Y-218936988D02*
X151978421Y-218936988D01*
X151978421Y-218936988D02*
X151835564Y-218984607D01*
X151835564Y-218984607D02*
X151740326Y-219079845D01*
X151740326Y-219079845D02*
X151692707Y-219175083D01*
X151692707Y-219175083D02*
X151645088Y-219365559D01*
X151645088Y-219365559D02*
X151645088Y-219508416D01*
X151645088Y-219508416D02*
X151692707Y-219698892D01*
X151692707Y-219698892D02*
X151740326Y-219794130D01*
X151740326Y-219794130D02*
X151835564Y-219889369D01*
X151835564Y-219889369D02*
X151978421Y-219936988D01*
X151978421Y-219936988D02*
X152216516Y-219936988D01*
X151264135Y-219032226D02*
X151216516Y-218984607D01*
X151216516Y-218984607D02*
X151121278Y-218936988D01*
X151121278Y-218936988D02*
X150883183Y-218936988D01*
X150883183Y-218936988D02*
X150787945Y-218984607D01*
X150787945Y-218984607D02*
X150740326Y-219032226D01*
X150740326Y-219032226D02*
X150692707Y-219127464D01*
X150692707Y-219127464D02*
X150692707Y-219222702D01*
X150692707Y-219222702D02*
X150740326Y-219365559D01*
X150740326Y-219365559D02*
X151311754Y-219936988D01*
X151311754Y-219936988D02*
X150692707Y-219936988D01*
X150359373Y-218936988D02*
X149692707Y-218936988D01*
X149692707Y-218936988D02*
X150121278Y-219936988D01*
X178759516Y-175740988D02*
X178759516Y-174740988D01*
X178759516Y-174740988D02*
X178521421Y-174740988D01*
X178521421Y-174740988D02*
X178378564Y-174788607D01*
X178378564Y-174788607D02*
X178283326Y-174883845D01*
X178283326Y-174883845D02*
X178235707Y-174979083D01*
X178235707Y-174979083D02*
X178188088Y-175169559D01*
X178188088Y-175169559D02*
X178188088Y-175312416D01*
X178188088Y-175312416D02*
X178235707Y-175502892D01*
X178235707Y-175502892D02*
X178283326Y-175598130D01*
X178283326Y-175598130D02*
X178378564Y-175693369D01*
X178378564Y-175693369D02*
X178521421Y-175740988D01*
X178521421Y-175740988D02*
X178759516Y-175740988D01*
X177854754Y-174740988D02*
X177235707Y-174740988D01*
X177235707Y-174740988D02*
X177569040Y-175121940D01*
X177569040Y-175121940D02*
X177426183Y-175121940D01*
X177426183Y-175121940D02*
X177330945Y-175169559D01*
X177330945Y-175169559D02*
X177283326Y-175217178D01*
X177283326Y-175217178D02*
X177235707Y-175312416D01*
X177235707Y-175312416D02*
X177235707Y-175550511D01*
X177235707Y-175550511D02*
X177283326Y-175645749D01*
X177283326Y-175645749D02*
X177330945Y-175693369D01*
X177330945Y-175693369D02*
X177426183Y-175740988D01*
X177426183Y-175740988D02*
X177711897Y-175740988D01*
X177711897Y-175740988D02*
X177807135Y-175693369D01*
X177807135Y-175693369D02*
X177854754Y-175645749D01*
X176378564Y-175074321D02*
X176378564Y-175740988D01*
X176616659Y-174693369D02*
X176854754Y-175407654D01*
X176854754Y-175407654D02*
X176235707Y-175407654D01*
X191933466Y-137538144D02*
X191226359Y-136831038D01*
X191226359Y-136831038D02*
X191058000Y-136999396D01*
X191058000Y-136999396D02*
X190990657Y-137134083D01*
X190990657Y-137134083D02*
X190990657Y-137268770D01*
X190990657Y-137268770D02*
X191024329Y-137369786D01*
X191024329Y-137369786D02*
X191125344Y-137538144D01*
X191125344Y-137538144D02*
X191226359Y-137639160D01*
X191226359Y-137639160D02*
X191394718Y-137740175D01*
X191394718Y-137740175D02*
X191495733Y-137773847D01*
X191495733Y-137773847D02*
X191630420Y-137773847D01*
X191630420Y-137773847D02*
X191765107Y-137706503D01*
X191765107Y-137706503D02*
X191933466Y-137538144D01*
X190451909Y-138076892D02*
X190923313Y-138548297D01*
X190350894Y-137639160D02*
X191024329Y-137975877D01*
X191024329Y-137975877D02*
X190586596Y-138413610D01*
X190182535Y-139289076D02*
X190586596Y-138885015D01*
X190384565Y-139087045D02*
X189677458Y-138379938D01*
X189677458Y-138379938D02*
X189845817Y-138413610D01*
X189845817Y-138413610D02*
X189980504Y-138413610D01*
X189980504Y-138413610D02*
X190081519Y-138379938D01*
X177836466Y-137665144D02*
X177129359Y-136958038D01*
X177129359Y-136958038D02*
X176961000Y-137126396D01*
X176961000Y-137126396D02*
X176893657Y-137261083D01*
X176893657Y-137261083D02*
X176893657Y-137395770D01*
X176893657Y-137395770D02*
X176927329Y-137496786D01*
X176927329Y-137496786D02*
X177028344Y-137665144D01*
X177028344Y-137665144D02*
X177129359Y-137766160D01*
X177129359Y-137766160D02*
X177297718Y-137867175D01*
X177297718Y-137867175D02*
X177398733Y-137900847D01*
X177398733Y-137900847D02*
X177533420Y-137900847D01*
X177533420Y-137900847D02*
X177668107Y-137833503D01*
X177668107Y-137833503D02*
X177836466Y-137665144D01*
X176354909Y-138203892D02*
X176826313Y-138675297D01*
X176253894Y-137766160D02*
X176927329Y-138102877D01*
X176927329Y-138102877D02*
X176489596Y-138540610D01*
X175816161Y-138271236D02*
X175378428Y-138708969D01*
X175378428Y-138708969D02*
X175883504Y-138742641D01*
X175883504Y-138742641D02*
X175782489Y-138843656D01*
X175782489Y-138843656D02*
X175748817Y-138944671D01*
X175748817Y-138944671D02*
X175748817Y-139012015D01*
X175748817Y-139012015D02*
X175782489Y-139113030D01*
X175782489Y-139113030D02*
X175950848Y-139281389D01*
X175950848Y-139281389D02*
X176051863Y-139315060D01*
X176051863Y-139315060D02*
X176119206Y-139315060D01*
X176119206Y-139315060D02*
X176220222Y-139281389D01*
X176220222Y-139281389D02*
X176422252Y-139079358D01*
X176422252Y-139079358D02*
X176455924Y-138978343D01*
X176455924Y-138978343D02*
X176455924Y-138910999D01*
X150404466Y-193545144D02*
X149697359Y-192838038D01*
X149697359Y-192838038D02*
X149529000Y-193006396D01*
X149529000Y-193006396D02*
X149461657Y-193141083D01*
X149461657Y-193141083D02*
X149461657Y-193275770D01*
X149461657Y-193275770D02*
X149495329Y-193376786D01*
X149495329Y-193376786D02*
X149596344Y-193545144D01*
X149596344Y-193545144D02*
X149697359Y-193646160D01*
X149697359Y-193646160D02*
X149865718Y-193747175D01*
X149865718Y-193747175D02*
X149966733Y-193780847D01*
X149966733Y-193780847D02*
X150101420Y-193780847D01*
X150101420Y-193780847D02*
X150236107Y-193713503D01*
X150236107Y-193713503D02*
X150404466Y-193545144D01*
X149091268Y-193578816D02*
X149023924Y-193578816D01*
X149023924Y-193578816D02*
X148922909Y-193612488D01*
X148922909Y-193612488D02*
X148754550Y-193780847D01*
X148754550Y-193780847D02*
X148720878Y-193881862D01*
X148720878Y-193881862D02*
X148720878Y-193949205D01*
X148720878Y-193949205D02*
X148754550Y-194050221D01*
X148754550Y-194050221D02*
X148821894Y-194117564D01*
X148821894Y-194117564D02*
X148956581Y-194184908D01*
X148956581Y-194184908D02*
X149764703Y-194184908D01*
X149764703Y-194184908D02*
X149326970Y-194622640D01*
X148653535Y-195296076D02*
X149057596Y-194892015D01*
X148855565Y-195094045D02*
X148148458Y-194386938D01*
X148148458Y-194386938D02*
X148316817Y-194420610D01*
X148316817Y-194420610D02*
X148451504Y-194420610D01*
X148451504Y-194420610D02*
X148552519Y-194386938D01*
X153833466Y-172082144D02*
X153126359Y-171375038D01*
X153126359Y-171375038D02*
X152958000Y-171543396D01*
X152958000Y-171543396D02*
X152890657Y-171678083D01*
X152890657Y-171678083D02*
X152890657Y-171812770D01*
X152890657Y-171812770D02*
X152924329Y-171913786D01*
X152924329Y-171913786D02*
X153025344Y-172082144D01*
X153025344Y-172082144D02*
X153126359Y-172183160D01*
X153126359Y-172183160D02*
X153294718Y-172284175D01*
X153294718Y-172284175D02*
X153395733Y-172317847D01*
X153395733Y-172317847D02*
X153530420Y-172317847D01*
X153530420Y-172317847D02*
X153665107Y-172250503D01*
X153665107Y-172250503D02*
X153833466Y-172082144D01*
X152755970Y-173159640D02*
X153160031Y-172755579D01*
X152958000Y-172957610D02*
X152250894Y-172250503D01*
X152250894Y-172250503D02*
X152419252Y-172284175D01*
X152419252Y-172284175D02*
X152553939Y-172284175D01*
X152553939Y-172284175D02*
X152654955Y-172250503D01*
X151947848Y-173159641D02*
X151981519Y-173058625D01*
X151981519Y-173058625D02*
X151981519Y-172991282D01*
X151981519Y-172991282D02*
X151947848Y-172890267D01*
X151947848Y-172890267D02*
X151914176Y-172856595D01*
X151914176Y-172856595D02*
X151813161Y-172822923D01*
X151813161Y-172822923D02*
X151745817Y-172822923D01*
X151745817Y-172822923D02*
X151644802Y-172856595D01*
X151644802Y-172856595D02*
X151510115Y-172991282D01*
X151510115Y-172991282D02*
X151476443Y-173092297D01*
X151476443Y-173092297D02*
X151476443Y-173159641D01*
X151476443Y-173159641D02*
X151510115Y-173260656D01*
X151510115Y-173260656D02*
X151543787Y-173294328D01*
X151543787Y-173294328D02*
X151644802Y-173327999D01*
X151644802Y-173327999D02*
X151712145Y-173327999D01*
X151712145Y-173327999D02*
X151813161Y-173294328D01*
X151813161Y-173294328D02*
X151947848Y-173159641D01*
X151947848Y-173159641D02*
X152048863Y-173125969D01*
X152048863Y-173125969D02*
X152116206Y-173125969D01*
X152116206Y-173125969D02*
X152217222Y-173159641D01*
X152217222Y-173159641D02*
X152351909Y-173294328D01*
X152351909Y-173294328D02*
X152385580Y-173395343D01*
X152385580Y-173395343D02*
X152385580Y-173462686D01*
X152385580Y-173462686D02*
X152351909Y-173563702D01*
X152351909Y-173563702D02*
X152217222Y-173698389D01*
X152217222Y-173698389D02*
X152116206Y-173732060D01*
X152116206Y-173732060D02*
X152048863Y-173732060D01*
X152048863Y-173732060D02*
X151947848Y-173698389D01*
X151947848Y-173698389D02*
X151813161Y-173563702D01*
X151813161Y-173563702D02*
X151779489Y-173462686D01*
X151779489Y-173462686D02*
X151779489Y-173395343D01*
X151779489Y-173395343D02*
X151813161Y-173294328D01*
X145705466Y-222501144D02*
X144998359Y-221794038D01*
X144998359Y-221794038D02*
X144830000Y-221962396D01*
X144830000Y-221962396D02*
X144762657Y-222097083D01*
X144762657Y-222097083D02*
X144762657Y-222231770D01*
X144762657Y-222231770D02*
X144796329Y-222332786D01*
X144796329Y-222332786D02*
X144897344Y-222501144D01*
X144897344Y-222501144D02*
X144998359Y-222602160D01*
X144998359Y-222602160D02*
X145166718Y-222703175D01*
X145166718Y-222703175D02*
X145267733Y-222736847D01*
X145267733Y-222736847D02*
X145402420Y-222736847D01*
X145402420Y-222736847D02*
X145537107Y-222669503D01*
X145537107Y-222669503D02*
X145705466Y-222501144D01*
X144392268Y-222534816D02*
X144324924Y-222534816D01*
X144324924Y-222534816D02*
X144223909Y-222568488D01*
X144223909Y-222568488D02*
X144055550Y-222736847D01*
X144055550Y-222736847D02*
X144021878Y-222837862D01*
X144021878Y-222837862D02*
X144021878Y-222905205D01*
X144021878Y-222905205D02*
X144055550Y-223006221D01*
X144055550Y-223006221D02*
X144122894Y-223073564D01*
X144122894Y-223073564D02*
X144257581Y-223140908D01*
X144257581Y-223140908D02*
X145065703Y-223140908D01*
X145065703Y-223140908D02*
X144627970Y-223578640D01*
X143281100Y-223511297D02*
X143617817Y-223174579D01*
X143617817Y-223174579D02*
X143988206Y-223477625D01*
X143988206Y-223477625D02*
X143920863Y-223477625D01*
X143920863Y-223477625D02*
X143819848Y-223511297D01*
X143819848Y-223511297D02*
X143651489Y-223679656D01*
X143651489Y-223679656D02*
X143617817Y-223780671D01*
X143617817Y-223780671D02*
X143617817Y-223848015D01*
X143617817Y-223848015D02*
X143651489Y-223949030D01*
X143651489Y-223949030D02*
X143819848Y-224117389D01*
X143819848Y-224117389D02*
X143920863Y-224151060D01*
X143920863Y-224151060D02*
X143988206Y-224151060D01*
X143988206Y-224151060D02*
X144089222Y-224117389D01*
X144089222Y-224117389D02*
X144257580Y-223949030D01*
X144257580Y-223949030D02*
X144291252Y-223848015D01*
X144291252Y-223848015D02*
X144291252Y-223780671D01*
X167202516Y-194663988D02*
X167202516Y-193663988D01*
X167202516Y-193663988D02*
X166964421Y-193663988D01*
X166964421Y-193663988D02*
X166821564Y-193711607D01*
X166821564Y-193711607D02*
X166726326Y-193806845D01*
X166726326Y-193806845D02*
X166678707Y-193902083D01*
X166678707Y-193902083D02*
X166631088Y-194092559D01*
X166631088Y-194092559D02*
X166631088Y-194235416D01*
X166631088Y-194235416D02*
X166678707Y-194425892D01*
X166678707Y-194425892D02*
X166726326Y-194521130D01*
X166726326Y-194521130D02*
X166821564Y-194616369D01*
X166821564Y-194616369D02*
X166964421Y-194663988D01*
X166964421Y-194663988D02*
X167202516Y-194663988D01*
X166297754Y-193663988D02*
X165678707Y-193663988D01*
X165678707Y-193663988D02*
X166012040Y-194044940D01*
X166012040Y-194044940D02*
X165869183Y-194044940D01*
X165869183Y-194044940D02*
X165773945Y-194092559D01*
X165773945Y-194092559D02*
X165726326Y-194140178D01*
X165726326Y-194140178D02*
X165678707Y-194235416D01*
X165678707Y-194235416D02*
X165678707Y-194473511D01*
X165678707Y-194473511D02*
X165726326Y-194568749D01*
X165726326Y-194568749D02*
X165773945Y-194616369D01*
X165773945Y-194616369D02*
X165869183Y-194663988D01*
X165869183Y-194663988D02*
X166154897Y-194663988D01*
X166154897Y-194663988D02*
X166250135Y-194616369D01*
X166250135Y-194616369D02*
X166297754Y-194568749D01*
X164726326Y-194663988D02*
X165297754Y-194663988D01*
X165012040Y-194663988D02*
X165012040Y-193663988D01*
X165012040Y-193663988D02*
X165107278Y-193806845D01*
X165107278Y-193806845D02*
X165202516Y-193902083D01*
X165202516Y-193902083D02*
X165297754Y-193949702D01*
%TO.C,R14*%
D13*
X162644220Y-160722008D02*
X162644220Y-162169482D01*
X165354220Y-160722008D02*
X165354220Y-162169482D01*
%TO.C,R12*%
X170423543Y-160740582D02*
X170423543Y-162188056D01*
X173133543Y-160740582D02*
X173133543Y-162188056D01*
%TO.C,R9*%
X177933358Y-150158555D02*
X178956877Y-151182074D01*
X179849617Y-148242296D02*
X180873136Y-149265815D01*
%TO.C,R8*%
X180690331Y-147414716D02*
X181713850Y-148438235D01*
X182606590Y-145498457D02*
X183630109Y-146521976D01*
%TO.C,J4*%
X163669860Y-155090483D02*
X162100083Y-153520706D01*
X172077360Y-143543429D02*
X162100083Y-153520706D01*
X173647137Y-145113206D02*
X163669860Y-155090483D01*
X173647137Y-145113206D02*
X172077360Y-143543429D01*
X174354244Y-144406100D02*
X175139132Y-143621211D01*
X175139132Y-143621211D02*
X174354244Y-142836322D01*
%TO.C,R13*%
X166533882Y-160731296D02*
X166533882Y-162178770D01*
X169243882Y-160731296D02*
X169243882Y-162178770D01*
%TO.C,R11*%
X172351504Y-155536022D02*
X173375023Y-156559541D01*
X174267763Y-153619763D02*
X175291282Y-154643282D01*
%TO.C,R10*%
X175139358Y-152952555D02*
X176162877Y-153976074D01*
X177055617Y-151036296D02*
X178079136Y-152059815D01*
%TD*%
M02*
