%TF.GenerationSoftware,KiCad,Pcbnew,10.0.2*%
%TF.CreationDate,2026-05-29T20:59:33+03:00*%
%TF.ProjectId,kicad_selka_rev2,6b696361-645f-4736-956c-6b615f726576,rev?*%
%TF.SameCoordinates,Original*%
%TF.FileFunction,Soldermask,Bot*%
%TF.FilePolarity,Negative*%
%FSLAX46Y46*%
G04 Gerber Fmt 4.6, Leading zero omitted, Abs format (unit mm)*
G04 Created by KiCad (PCBNEW 10.0.2) date 2026-05-29 20:59:33*
%MOMM*%
%LPD*%
G01*
G04 APERTURE LIST*
G04 Aperture macros list*
%AMRoundRect*
0 Rectangle with rounded corners*
0 $1 Rounding radius*
0 $2 $3 $4 $5 $6 $7 $8 $9 X,Y pos of 4 corners*
0 Add a 4 corners polygon primitive as box body*
4,1,4,$2,$3,$4,$5,$6,$7,$8,$9,$2,$3,0*
0 Add four circle primitives for the rounded corners*
1,1,$1+$1,$2,$3*
1,1,$1+$1,$4,$5*
1,1,$1+$1,$6,$7*
1,1,$1+$1,$8,$9*
0 Add four rect primitives between the rounded corners*
20,1,$1+$1,$2,$3,$4,$5,0*
20,1,$1+$1,$4,$5,$6,$7,0*
20,1,$1+$1,$6,$7,$8,$9,0*
20,1,$1+$1,$8,$9,$2,$3,0*%
%AMHorizOval*
0 Thick line with rounded ends*
0 $1 width*
0 $2 $3 position (X,Y) of the first rounded end (center of the circle)*
0 $4 $5 position (X,Y) of the second rounded end (center of the circle)*
0 Add line between two ends*
20,1,$1,$2,$3,$4,$5,0*
0 Add two circle primitives to create the rounded ends*
1,1,$1,$2,$3*
1,1,$1,$4,$5*%
%AMRotRect*
0 Rectangle, with rotation*
0 The origin of the aperture is its center*
0 $1 length*
0 $2 width*
0 $3 Rotation angle, in degrees counterclockwise*
0 Add horizontal line*
21,1,$1,$2,0,0,$3*%
G04 Aperture macros list end*
%ADD10RoundRect,0.250000X-1.075000X0.400000X-1.075000X-0.400000X1.075000X-0.400000X1.075000X0.400000X0*%
%ADD11RoundRect,0.250000X-1.042983X-0.477297X-0.477297X-1.042983X1.042983X0.477297X0.477297X1.042983X0*%
%ADD12RotRect,2.000000X1.350000X135.000000*%
%ADD13HorizOval,1.350000X-0.229810X0.229810X0.229810X-0.229810X0*%
%ADD14R,1.800000X1.800000*%
%ADD15C,1.800000*%
%ADD16RotRect,1.800000X1.800000X225.000000*%
%ADD17RotRect,1.800000X1.800000X45.000000*%
G04 APERTURE END LIST*
D10*
%TO.C,R14*%
X163999220Y-159895744D03*
X163999220Y-162995746D03*
%TD*%
%TO.C,R12*%
X171778543Y-159914318D03*
X171778543Y-163014320D03*
%TD*%
D11*
%TO.C,R9*%
X178307231Y-148616169D03*
X180499263Y-150808201D03*
%TD*%
%TO.C,R8*%
X181064204Y-145872330D03*
X183256236Y-148064362D03*
%TD*%
D12*
%TO.C,J4*%
X173569355Y-143621211D03*
D13*
X172155141Y-145035425D03*
X170740928Y-146449638D03*
X169326714Y-147863852D03*
X167912501Y-149278065D03*
X166498287Y-150692279D03*
X165084074Y-152106492D03*
X163669860Y-153520706D03*
%TD*%
D10*
%TO.C,R13*%
X167888882Y-159905032D03*
X167888882Y-163005034D03*
%TD*%
D11*
%TO.C,R11*%
X172725377Y-153993636D03*
X174917409Y-156185668D03*
%TD*%
%TO.C,R10*%
X175513231Y-151410169D03*
X177705263Y-153602201D03*
%TD*%
D14*
%TO.C,D28*%
X153343431Y-215813169D03*
D15*
X155883431Y-215813169D03*
%TD*%
D16*
%TO.C,D23*%
X149333392Y-209519608D03*
D15*
X147537341Y-211315659D03*
%TD*%
D14*
%TO.C,D33*%
X172243431Y-184163169D03*
D15*
X174783431Y-184163169D03*
%TD*%
D14*
%TO.C,D36*%
X183583431Y-165173169D03*
D15*
X186123431Y-165173169D03*
%TD*%
D16*
%TO.C,D26*%
X145655392Y-231102808D03*
D15*
X143859341Y-232898859D03*
%TD*%
D16*
%TO.C,D17*%
X156533392Y-166199608D03*
D15*
X154737341Y-167995659D03*
%TD*%
D16*
%TO.C,D24*%
X148133392Y-216739608D03*
D15*
X146337341Y-218535659D03*
%TD*%
D14*
%TO.C,D29*%
X157123431Y-209483169D03*
D15*
X159663431Y-209483169D03*
%TD*%
D17*
%TO.C,D45*%
X163702231Y-140767569D03*
D15*
X165498282Y-138971518D03*
%TD*%
D16*
%TO.C,D15*%
X158933392Y-151759608D03*
D15*
X157137341Y-153555659D03*
%TD*%
D16*
%TO.C,D19*%
X154133392Y-180639608D03*
D15*
X152337341Y-182435659D03*
%TD*%
D17*
%TO.C,D42*%
X184936231Y-140767569D03*
D15*
X186732282Y-138971518D03*
%TD*%
D14*
%TO.C,D35*%
X179803431Y-171503169D03*
D15*
X182343431Y-171503169D03*
%TD*%
D14*
%TO.C,D30*%
X160903431Y-203153169D03*
D15*
X163443431Y-203153169D03*
%TD*%
D16*
%TO.C,D16*%
X157733392Y-158979608D03*
D15*
X155937341Y-160775659D03*
%TD*%
D14*
%TO.C,D32*%
X168463431Y-190493169D03*
D15*
X171003431Y-190493169D03*
%TD*%
D17*
%TO.C,D44*%
X170780231Y-140767569D03*
D15*
X172576282Y-138971518D03*
%TD*%
D16*
%TO.C,D22*%
X150533392Y-202299608D03*
D15*
X148737341Y-204095659D03*
%TD*%
D14*
%TO.C,D37*%
X187363431Y-158843169D03*
D15*
X189903431Y-158843169D03*
%TD*%
D16*
%TO.C,D20*%
X152933392Y-187859608D03*
D15*
X151137341Y-189655659D03*
%TD*%
D14*
%TO.C,D38*%
X191143431Y-152513169D03*
D15*
X193683431Y-152513169D03*
%TD*%
D17*
%TO.C,D40*%
X199092231Y-140767569D03*
D15*
X200888282Y-138971518D03*
%TD*%
D14*
%TO.C,D39*%
X194923431Y-146183169D03*
D15*
X197463431Y-146183169D03*
%TD*%
D16*
%TO.C,D14*%
X160133392Y-144539608D03*
D15*
X158337341Y-146335659D03*
%TD*%
D14*
%TO.C,D27*%
X149563431Y-222143169D03*
D15*
X152103431Y-222143169D03*
%TD*%
D14*
%TO.C,D34*%
X176023431Y-177833169D03*
D15*
X178563431Y-177833169D03*
%TD*%
D17*
%TO.C,D41*%
X192014231Y-140767569D03*
D15*
X193810282Y-138971518D03*
%TD*%
D17*
%TO.C,D43*%
X177858231Y-140767569D03*
D15*
X179654282Y-138971518D03*
%TD*%
D16*
%TO.C,D21*%
X151733392Y-195079608D03*
D15*
X149937341Y-196875659D03*
%TD*%
D16*
%TO.C,D18*%
X155333392Y-173419608D03*
D15*
X153537341Y-175215659D03*
%TD*%
D16*
%TO.C,D25*%
X146933392Y-223959608D03*
D15*
X145137341Y-225755659D03*
%TD*%
D14*
%TO.C,D31*%
X164683431Y-196823169D03*
D15*
X167223431Y-196823169D03*
%TD*%
M02*
