%TF.GenerationSoftware,KiCad,Pcbnew,10.0.2*%
%TF.CreationDate,2026-05-29T20:59:33+03:00*%
%TF.ProjectId,kicad_selka_rev2,6b696361-645f-4736-956c-6b615f726576,rev?*%
%TF.SameCoordinates,Original*%
%TF.FileFunction,Copper,L1,Top*%
%TF.FilePolarity,Positive*%
%FSLAX46Y46*%
G04 Gerber Fmt 4.6, Leading zero omitted, Abs format (unit mm)*
G04 Created by KiCad (PCBNEW 10.0.2) date 2026-05-29 20:59:33*
%MOMM*%
%LPD*%
G01*
G04 APERTURE LIST*
G04 Aperture macros list*
%AMHorizOval*
0 Thick line with rounded ends*
0 $1 width*
0 $2 $3 position (X,Y) of the first rounded end (center of the circle)*
0 $4 $5 position (X,Y) of the second rounded end (center of the circle)*
0 Add line between two ends*
20,1,$1,$2,$3,$4,$5,0*
0 Add two circle primitives to create the rounded ends*
1,1,$1,$2,$3*
1,1,$1,$4,$5*%
%AMRotRect*
0 Rectangle, with rotation*
0 The origin of the aperture is its center*
0 $1 length*
0 $2 width*
0 $3 Rotation angle, in degrees counterclockwise*
0 Add horizontal line*
21,1,$1,$2,0,0,$3*%
G04 Aperture macros list end*
%TA.AperFunction,ComponentPad*%
%ADD10RotRect,2.000000X1.350000X135.000000*%
%TD*%
%TA.AperFunction,ComponentPad*%
%ADD11HorizOval,1.350000X-0.229810X0.229810X0.229810X-0.229810X0*%
%TD*%
%TA.AperFunction,ComponentPad*%
%ADD12R,1.800000X1.800000*%
%TD*%
%TA.AperFunction,ComponentPad*%
%ADD13C,1.800000*%
%TD*%
%TA.AperFunction,ComponentPad*%
%ADD14RotRect,1.800000X1.800000X225.000000*%
%TD*%
%TA.AperFunction,ComponentPad*%
%ADD15RotRect,1.800000X1.800000X45.000000*%
%TD*%
%TA.AperFunction,ViaPad*%
%ADD16C,0.600000*%
%TD*%
%TA.AperFunction,Conductor*%
%ADD17C,0.400000*%
%TD*%
G04 APERTURE END LIST*
D10*
%TO.P,J4,1,Pin_1_1*%
%TO.N,/CB0*%
X173569355Y-143621211D03*
D11*
%TO.P,J4,2,Pin_2_2*%
%TO.N,/CB1*%
X172155141Y-145035425D03*
%TO.P,J4,3,Pin_3_3*%
%TO.N,/CB2*%
X170740928Y-146449638D03*
%TO.P,J4,4,Pin_4_4*%
%TO.N,/CB3*%
X169326714Y-147863852D03*
%TO.P,J4,5,Pin_5_5*%
%TO.N,/CB4*%
X167912501Y-149278065D03*
%TO.P,J4,6,Pin_6_6*%
%TO.N,/CB5*%
X166498287Y-150692279D03*
%TO.P,J4,7,Pin_7_7*%
%TO.N,/CB6*%
X165084074Y-152106492D03*
%TO.P,J4,8,Pin_8_8*%
%TO.N,GND2*%
X163669860Y-153520706D03*
%TD*%
D12*
%TO.P,D28,1,K_1*%
%TO.N,Net-(D16-K)*%
X153343431Y-215813169D03*
D13*
%TO.P,D28,2,A_2*%
%TO.N,Net-(D24-K)*%
X155883431Y-215813169D03*
%TD*%
D14*
%TO.P,D23,1,K_1*%
%TO.N,Net-(D14-A)*%
X149333392Y-209519608D03*
D13*
%TO.P,D23,2,A_2*%
%TO.N,Net-(D22-K)*%
X147537341Y-211315659D03*
%TD*%
D12*
%TO.P,D33,1,K_1*%
%TO.N,Net-(D24-K)*%
X172243431Y-184163169D03*
D13*
%TO.P,D33,2,A_2*%
%TO.N,Net-(D20-K)*%
X174783431Y-184163169D03*
%TD*%
D12*
%TO.P,D36,1,K_1*%
%TO.N,Net-(D14-K)*%
X183583431Y-165173169D03*
D13*
%TO.P,D36,2,A_2*%
%TO.N,Net-(D22-K)*%
X186123431Y-165173169D03*
%TD*%
D14*
%TO.P,D26,1,K_1*%
%TO.N,Net-(D14-K)*%
X145655392Y-231102808D03*
D13*
%TO.P,D26,2,A_2*%
%TO.N,Net-(D24-K)*%
X143859341Y-232898859D03*
%TD*%
D14*
%TO.P,D17,1,K_1*%
%TO.N,Net-(D14-A)*%
X156533392Y-166199608D03*
D13*
%TO.P,D17,2,A_2*%
%TO.N,Net-(D16-K)*%
X154737341Y-167995659D03*
%TD*%
D14*
%TO.P,D24,1,K_1*%
%TO.N,Net-(D24-K)*%
X148133392Y-216739608D03*
D13*
%TO.P,D24,2,A_2*%
%TO.N,Net-(D14-A)*%
X146337341Y-218535659D03*
%TD*%
D12*
%TO.P,D29,1,K_1*%
%TO.N,Net-(D24-K)*%
X157123431Y-209483169D03*
D13*
%TO.P,D29,2,A_2*%
%TO.N,Net-(D16-K)*%
X159663431Y-209483169D03*
%TD*%
D15*
%TO.P,D45,1,K_1*%
%TO.N,Net-(D20-K)*%
X163702231Y-140767569D03*
D13*
%TO.P,D45,2,A_2*%
%TO.N,Net-(D14-K)*%
X165498282Y-138971518D03*
%TD*%
D14*
%TO.P,D15,1,K_1*%
%TO.N,Net-(D14-A)*%
X158933392Y-151759608D03*
D13*
%TO.P,D15,2,A_2*%
%TO.N,Net-(D14-K)*%
X157137341Y-153555659D03*
%TD*%
D14*
%TO.P,D19,1,K_1*%
%TO.N,Net-(D14-A)*%
X154133392Y-180639608D03*
D13*
%TO.P,D19,2,A_2*%
%TO.N,Net-(D18-K)*%
X152337341Y-182435659D03*
%TD*%
D15*
%TO.P,D42,1,K_1*%
%TO.N,Net-(D20-K)*%
X184936231Y-140767569D03*
D13*
%TO.P,D42,2,A_2*%
%TO.N,Net-(D22-K)*%
X186732282Y-138971518D03*
%TD*%
D12*
%TO.P,D35,1,K_1*%
%TO.N,Net-(D24-K)*%
X179803431Y-171503169D03*
D13*
%TO.P,D35,2,A_2*%
%TO.N,Net-(D22-K)*%
X182343431Y-171503169D03*
%TD*%
D12*
%TO.P,D30,1,K_1*%
%TO.N,Net-(D18-K)*%
X160903431Y-203153169D03*
D13*
%TO.P,D30,2,A_2*%
%TO.N,Net-(D24-K)*%
X163443431Y-203153169D03*
%TD*%
D14*
%TO.P,D16,1,K_1*%
%TO.N,Net-(D16-K)*%
X157733392Y-158979608D03*
D13*
%TO.P,D16,2,A_2*%
%TO.N,Net-(D14-A)*%
X155937341Y-160775659D03*
%TD*%
D12*
%TO.P,D32,1,K_1*%
%TO.N,Net-(D20-K)*%
X168463431Y-190493169D03*
D13*
%TO.P,D32,2,A_2*%
%TO.N,Net-(D24-K)*%
X171003431Y-190493169D03*
%TD*%
D15*
%TO.P,D44,1,K_1*%
%TO.N,Net-(D14-K)*%
X170780231Y-140767569D03*
D13*
%TO.P,D44,2,A_2*%
%TO.N,Net-(D20-K)*%
X172576282Y-138971518D03*
%TD*%
D14*
%TO.P,D22,1,K_1*%
%TO.N,Net-(D22-K)*%
X150533392Y-202299608D03*
D13*
%TO.P,D22,2,A_2*%
%TO.N,Net-(D14-A)*%
X148737341Y-204095659D03*
%TD*%
D12*
%TO.P,D37,1,K_1*%
%TO.N,Net-(D22-K)*%
X187363431Y-158843169D03*
D13*
%TO.P,D37,2,A_2*%
%TO.N,Net-(D14-K)*%
X189903431Y-158843169D03*
%TD*%
D14*
%TO.P,D20,1,K_1*%
%TO.N,Net-(D20-K)*%
X152933392Y-187859608D03*
D13*
%TO.P,D20,2,A_2*%
%TO.N,Net-(D14-A)*%
X151137341Y-189655659D03*
%TD*%
D12*
%TO.P,D38,1,K_1*%
%TO.N,Net-(D16-K)*%
X191143431Y-152513169D03*
D13*
%TO.P,D38,2,A_2*%
%TO.N,Net-(D22-K)*%
X193683431Y-152513169D03*
%TD*%
D15*
%TO.P,D40,1,K_1*%
%TO.N,Net-(D18-K)*%
X199092231Y-140767569D03*
D13*
%TO.P,D40,2,A_2*%
%TO.N,Net-(D22-K)*%
X200888282Y-138971518D03*
%TD*%
D12*
%TO.P,D39,1,K_1*%
%TO.N,Net-(D22-K)*%
X194923431Y-146183169D03*
D13*
%TO.P,D39,2,A_2*%
%TO.N,Net-(D16-K)*%
X197463431Y-146183169D03*
%TD*%
D14*
%TO.P,D14,1,K_1*%
%TO.N,Net-(D14-K)*%
X160133392Y-144539608D03*
D13*
%TO.P,D14,2,A_2*%
%TO.N,Net-(D14-A)*%
X158337341Y-146335659D03*
%TD*%
D12*
%TO.P,D27,1,K_1*%
%TO.N,Net-(D24-K)*%
X149563431Y-222143169D03*
D13*
%TO.P,D27,2,A_2*%
%TO.N,Net-(D14-K)*%
X152103431Y-222143169D03*
%TD*%
D12*
%TO.P,D34,1,K_1*%
%TO.N,Net-(D22-K)*%
X176023431Y-177833169D03*
D13*
%TO.P,D34,2,A_2*%
%TO.N,Net-(D24-K)*%
X178563431Y-177833169D03*
%TD*%
D15*
%TO.P,D41,1,K_1*%
%TO.N,Net-(D22-K)*%
X192014231Y-140767569D03*
D13*
%TO.P,D41,2,A_2*%
%TO.N,Net-(D18-K)*%
X193810282Y-138971518D03*
%TD*%
D15*
%TO.P,D43,1,K_1*%
%TO.N,Net-(D22-K)*%
X177858231Y-140767569D03*
D13*
%TO.P,D43,2,A_2*%
%TO.N,Net-(D20-K)*%
X179654282Y-138971518D03*
%TD*%
D14*
%TO.P,D21,1,K_1*%
%TO.N,Net-(D14-A)*%
X151733392Y-195079608D03*
D13*
%TO.P,D21,2,A_2*%
%TO.N,Net-(D20-K)*%
X149937341Y-196875659D03*
%TD*%
D14*
%TO.P,D18,1,K_1*%
%TO.N,Net-(D18-K)*%
X155333392Y-173419608D03*
D13*
%TO.P,D18,2,A_2*%
%TO.N,Net-(D14-A)*%
X153537341Y-175215659D03*
%TD*%
D14*
%TO.P,D25,1,K_1*%
%TO.N,Net-(D14-A)*%
X146933392Y-223959608D03*
D13*
%TO.P,D25,2,A_2*%
%TO.N,Net-(D24-K)*%
X145137341Y-225755659D03*
%TD*%
D12*
%TO.P,D31,1,K_1*%
%TO.N,Net-(D24-K)*%
X164683431Y-196823169D03*
D13*
%TO.P,D31,2,A_2*%
%TO.N,Net-(D18-K)*%
X167223431Y-196823169D03*
%TD*%
D16*
%TO.N,GND2*%
X156023620Y-148797146D03*
X189246820Y-144225146D03*
X146574820Y-206023346D03*
X196587420Y-150295746D03*
X149292620Y-229594546D03*
X181626820Y-175619546D03*
X160621020Y-161471746D03*
X165878820Y-168913946D03*
X166488420Y-200917946D03*
X182134820Y-137113146D03*
X151477020Y-177651546D03*
%TO.N,Net-(D16-K)*%
X166623231Y-171095169D03*
X181195020Y-155601169D03*
%TO.N,Net-(D14-K)*%
X162686231Y-169167946D03*
X182752231Y-153061169D03*
%TO.N,Net-(D20-K)*%
X157065020Y-180928146D03*
X174768820Y-161039946D03*
X184466731Y-159982669D03*
%TO.N,Net-(D18-K)*%
X176927820Y-173419608D03*
X186181231Y-156109169D03*
X178883620Y-158268169D03*
%TO.N,Net-(D24-K)*%
X169282420Y-170285546D03*
%TO.N,Net-(D22-K)*%
X160062220Y-177829346D03*
X170171420Y-177833169D03*
%TD*%
%TO.N,Net-(D24-K)*%
D17*
X149563431Y-222143169D02*
X149563431Y-221555969D01*
X147573231Y-226467169D02*
X149563431Y-224476969D01*
X155883431Y-217013969D02*
X155883431Y-215813169D01*
X145137341Y-225755659D02*
X142959341Y-227933659D01*
X169307820Y-170260146D02*
X178560408Y-170260146D01*
X176529231Y-180874169D02*
X178563431Y-178839969D01*
X145137341Y-225755659D02*
X145848851Y-226467169D01*
X142959341Y-231998859D02*
X143859341Y-232898859D01*
X149563431Y-224476969D02*
X149563431Y-222143169D01*
%TO.N,Net-(D16-K)*%
X191143431Y-152513169D02*
X191143431Y-151019969D01*
X181195020Y-155601169D02*
X183514231Y-155601169D01*
X170501620Y-155601169D02*
X167123181Y-158979608D01*
X192912231Y-149251169D02*
X195452231Y-149251169D01*
X157733392Y-158979608D02*
X157733392Y-161824008D01*
X157836851Y-171095169D02*
X154737341Y-167995659D01*
X166623231Y-171095169D02*
X157836851Y-171095169D01*
X186475231Y-152513169D02*
X191143431Y-152513169D01*
X191143431Y-151019969D02*
X192912231Y-149251169D01*
X167123181Y-158979608D02*
X157733392Y-158979608D01*
X195452231Y-149251169D02*
X197463431Y-147239969D01*
X157733392Y-161824008D02*
X154660600Y-164896800D01*
X159663431Y-210755961D02*
X159663431Y-209483169D01*
X153343431Y-214473969D02*
X154558231Y-213259169D01*
X154660600Y-164896800D02*
X154660600Y-167918918D01*
X183514231Y-155601169D02*
X186435231Y-152680169D01*
X153343431Y-215813169D02*
X153343431Y-214473969D01*
X197463431Y-147239969D02*
X197463431Y-146183169D01*
X186435231Y-152553169D02*
X186475231Y-152513169D01*
X181195020Y-155601169D02*
X170501620Y-155601169D01*
X186435231Y-152680169D02*
X186435231Y-152553169D01*
X154660600Y-167918918D02*
X154737341Y-167995659D01*
X154558231Y-213259169D02*
X157160223Y-213259169D01*
X157160223Y-213259169D02*
X159663431Y-210755961D01*
%TO.N,Net-(D14-K)*%
X160133392Y-144539608D02*
X160133392Y-147486008D01*
X162686231Y-169167946D02*
X162703820Y-169167946D01*
X188340231Y-161697169D02*
X189903431Y-160133969D01*
X183583431Y-165173169D02*
X183583431Y-163405969D01*
X162825792Y-144539608D02*
X160133392Y-144539608D01*
X189903431Y-160133969D02*
X189903431Y-158843169D01*
X160133392Y-147486008D02*
X157060600Y-150558800D01*
X160075028Y-156493346D02*
X166116674Y-156493346D01*
X168984180Y-138971518D02*
X170780231Y-140767569D01*
X183583431Y-163405969D02*
X185292231Y-161697169D01*
X168977620Y-153632400D02*
X182181000Y-153632400D01*
X157060600Y-153478918D02*
X157137341Y-153555659D01*
X157137341Y-153555659D02*
X160075028Y-156493346D01*
X182181000Y-153632400D02*
X182752231Y-153061169D01*
X162703820Y-169167946D02*
X166698597Y-165173169D01*
X157060600Y-150558800D02*
X157060600Y-153478918D01*
X165988231Y-141377169D02*
X162825792Y-144539608D01*
X166698597Y-165173169D02*
X183583431Y-165173169D01*
X165988231Y-139461467D02*
X165988231Y-141377169D01*
X165498282Y-138971518D02*
X165988231Y-139461467D01*
X185292231Y-161697169D02*
X188340231Y-161697169D01*
X165498282Y-138971518D02*
X168984180Y-138971518D01*
X166116674Y-156493346D02*
X168977620Y-153632400D01*
%TO.N,Net-(D20-K)*%
X149732231Y-196670549D02*
X149937341Y-196875659D01*
X183140180Y-138971518D02*
X184936231Y-140767569D01*
X174768820Y-161039946D02*
X174900454Y-161039946D01*
X157065020Y-180928146D02*
X157115820Y-180877346D01*
X183768231Y-160681169D02*
X184466731Y-159982669D01*
X172441933Y-138837169D02*
X172576282Y-138971518D01*
X168463431Y-189193969D02*
X170560231Y-187097169D01*
X175259231Y-160681169D02*
X183768231Y-160681169D01*
X152933392Y-187859608D02*
X152933392Y-190500008D01*
X170560231Y-187097169D02*
X173100231Y-187097169D01*
X174900454Y-161039946D02*
X175259231Y-160681169D01*
X168463431Y-190493169D02*
X168463431Y-189193969D01*
X174783431Y-185413969D02*
X174783431Y-184163169D01*
X179654282Y-138971518D02*
X183140180Y-138971518D01*
X152933392Y-190500008D02*
X149732231Y-193701169D01*
X158847608Y-180877346D02*
X168463431Y-190493169D01*
X157115820Y-180877346D02*
X158847608Y-180877346D01*
X149732231Y-193701169D02*
X149732231Y-196670549D01*
X173100231Y-187097169D02*
X174783431Y-185413969D01*
%TO.N,Net-(D14-A)*%
X146337341Y-218535659D02*
X146337341Y-223363557D01*
X146337341Y-223363557D02*
X146933392Y-223959608D01*
%TO.N,Net-(D18-K)*%
X178883620Y-158268169D02*
X183895231Y-158268169D01*
X165734231Y-199543169D02*
X167223431Y-198053969D01*
X160903431Y-203153169D02*
X160903431Y-201833969D01*
X151764231Y-181862549D02*
X151764231Y-179731169D01*
X152337341Y-182435659D02*
X151764231Y-181862549D01*
X153808121Y-182435659D02*
X152337341Y-182435659D01*
X155333392Y-176162008D02*
X151764231Y-179731169D01*
X199092231Y-140767569D02*
X195706231Y-140767569D01*
X186054231Y-156109169D02*
X186181231Y-156109169D01*
X155333392Y-173419608D02*
X155333392Y-176162008D01*
X195606333Y-140767569D02*
X193810282Y-138971518D01*
X160903431Y-201833969D02*
X163194231Y-199543169D01*
X167223431Y-198053969D02*
X167223431Y-196823169D01*
X176927820Y-173419608D02*
X155333392Y-173419608D01*
X167223431Y-196823169D02*
X167223431Y-195850969D01*
X167223431Y-195850969D02*
X153808121Y-182435659D01*
X163194231Y-199543169D02*
X165734231Y-199543169D01*
X195706231Y-140767569D02*
X195606333Y-140767569D01*
X183895231Y-158268169D02*
X186054231Y-156109169D01*
%TO.N,Net-(D24-K)*%
X152526231Y-218593169D02*
X154304231Y-218593169D01*
X149563431Y-221555969D02*
X152526231Y-218593169D01*
X174370231Y-180874169D02*
X176529231Y-180874169D01*
X178560408Y-170260146D02*
X179803431Y-171503169D01*
X179803431Y-176593169D02*
X178563431Y-177833169D01*
X154304231Y-218593169D02*
X155883431Y-217013969D01*
X169282420Y-170285546D02*
X169307820Y-170260146D01*
X142959341Y-227933659D02*
X142959341Y-231998859D01*
%TO.N,Net-(D22-K)*%
X147192231Y-210970549D02*
X147192231Y-208941169D01*
X150533392Y-205600008D02*
X147192231Y-208941169D01*
X150533392Y-202299608D02*
X150533392Y-205600008D01*
X170171420Y-177833169D02*
X176023431Y-177833169D01*
X186123431Y-165173169D02*
X186123431Y-167723169D01*
X160066043Y-177833169D02*
X170171420Y-177833169D01*
X186123431Y-167723169D02*
X182343431Y-171503169D01*
X147537341Y-211315659D02*
X147192231Y-210970549D01*
X160062220Y-177829346D02*
X160066043Y-177833169D01*
%TO.N,Net-(D24-K)*%
X172243431Y-183000969D02*
X174370231Y-180874169D01*
X145848851Y-226467169D02*
X147573231Y-226467169D01*
X178563431Y-178839969D02*
X178563431Y-177833169D01*
X172243431Y-184163169D02*
X172243431Y-183000969D01*
X179803431Y-171503169D02*
X179803431Y-176593169D01*
%TD*%
%TA.AperFunction,Conductor*%
%TO.N,GND2*%
G36*
X200021992Y-135680074D02*
G01*
X200027628Y-135680198D01*
X200405592Y-135697339D01*
X200417032Y-135698391D01*
X200788936Y-135750073D01*
X200800205Y-135752175D01*
X201165730Y-135838086D01*
X201176777Y-135841230D01*
X201459666Y-135936110D01*
X201532750Y-135960622D01*
X201543471Y-135964780D01*
X201775838Y-136067538D01*
X201886853Y-136116631D01*
X201897141Y-136121763D01*
X202224990Y-136304775D01*
X202234744Y-136310830D01*
X202544235Y-136523424D01*
X202553385Y-136530355D01*
X202841855Y-136770706D01*
X202850333Y-136778463D01*
X203115280Y-137044483D01*
X203123008Y-137052997D01*
X203362184Y-137342424D01*
X203369090Y-137351618D01*
X203580427Y-137661955D01*
X203586451Y-137671749D01*
X203768127Y-138000315D01*
X203773218Y-138010624D01*
X203923685Y-138354623D01*
X203927800Y-138365360D01*
X204027610Y-138666984D01*
X204045752Y-138721806D01*
X204048854Y-138732878D01*
X204133281Y-139098714D01*
X204135345Y-139110026D01*
X204185524Y-139482130D01*
X204186530Y-139493584D01*
X204202025Y-139868707D01*
X204201967Y-139880206D01*
X204182646Y-140255181D01*
X204181522Y-140266624D01*
X204127555Y-140638171D01*
X204125377Y-140649461D01*
X204037221Y-141014429D01*
X204034006Y-141025469D01*
X203912424Y-141380698D01*
X203908200Y-141391393D01*
X203754237Y-141733830D01*
X203749041Y-141744086D01*
X203562594Y-142073310D01*
X203562159Y-142074072D01*
X203560937Y-142076193D01*
X203526089Y-142131571D01*
X203522644Y-142142708D01*
X203515735Y-142154711D01*
X203515318Y-142155108D01*
X203514740Y-142156408D01*
X148578290Y-234173692D01*
X148575215Y-234178176D01*
X148540698Y-234236642D01*
X148537659Y-234241526D01*
X148318900Y-234575627D01*
X148312156Y-234584953D01*
X148065154Y-234895084D01*
X148057574Y-234903744D01*
X147782889Y-235189632D01*
X147774539Y-235197552D01*
X147474522Y-235456751D01*
X147465473Y-235463862D01*
X147142733Y-235694119D01*
X147133073Y-235700355D01*
X147014131Y-235769543D01*
X146790361Y-235899706D01*
X146780156Y-235905024D01*
X146420448Y-236071739D01*
X146409792Y-236076089D01*
X146036171Y-236208737D01*
X146025159Y-236212080D01*
X145640856Y-236309517D01*
X145629581Y-236311825D01*
X145237888Y-236373213D01*
X145226447Y-236374465D01*
X144830758Y-236399274D01*
X144819252Y-236399460D01*
X144422975Y-236387479D01*
X144411499Y-236386598D01*
X144018033Y-236337926D01*
X144006689Y-236335985D01*
X143619418Y-236251041D01*
X143608304Y-236248056D01*
X143230597Y-236127581D01*
X143219806Y-236123579D01*
X142854877Y-235968596D01*
X142844504Y-235963610D01*
X142725972Y-235899706D01*
X142495527Y-235775467D01*
X142485664Y-235769543D01*
X142377381Y-235697464D01*
X142155622Y-235549849D01*
X142146350Y-235543036D01*
X142120369Y-235522020D01*
X141838110Y-235293698D01*
X141829508Y-235286053D01*
X141545704Y-235009205D01*
X141537848Y-235000795D01*
X141447909Y-234895084D01*
X141280939Y-234698833D01*
X141273898Y-234689734D01*
X141197176Y-234580453D01*
X141046088Y-234365249D01*
X141039924Y-234355541D01*
X140974754Y-234241526D01*
X140843166Y-234011313D01*
X140837935Y-234001085D01*
X140673949Y-233640120D01*
X140669682Y-233629436D01*
X140589512Y-233398082D01*
X140539860Y-233254799D01*
X140536610Y-233243790D01*
X140442086Y-232858747D01*
X140439867Y-232847475D01*
X140381443Y-232455296D01*
X140380281Y-232443874D01*
X140360118Y-232077913D01*
X142358839Y-232077913D01*
X142388246Y-232187662D01*
X142399764Y-232230644D01*
X142404140Y-232238223D01*
X142404143Y-232238235D01*
X142404147Y-232238234D01*
X142440267Y-232300797D01*
X142478820Y-232367573D01*
X142478822Y-232367576D01*
X142565262Y-232454016D01*
X142598747Y-232515339D01*
X142595514Y-232580008D01*
X142590864Y-232594319D01*
X142590864Y-232594321D01*
X142558841Y-232796507D01*
X142558841Y-233001210D01*
X142590863Y-233203393D01*
X142654122Y-233398082D01*
X142747056Y-233580472D01*
X142867369Y-233746072D01*
X143012127Y-233890830D01*
X143114985Y-233965559D01*
X143177731Y-234011146D01*
X143293948Y-234070362D01*
X143360117Y-234104077D01*
X143360119Y-234104077D01*
X143360122Y-234104079D01*
X143464478Y-234137986D01*
X143554806Y-234167336D01*
X143623247Y-234178176D01*
X143756989Y-234199359D01*
X143756990Y-234199359D01*
X143961692Y-234199359D01*
X143961693Y-234199359D01*
X144163875Y-234167336D01*
X144358560Y-234104079D01*
X144540951Y-234011146D01*
X144633931Y-233943591D01*
X144706554Y-233890830D01*
X144706556Y-233890827D01*
X144706560Y-233890825D01*
X144851307Y-233746078D01*
X144851309Y-233746074D01*
X144851312Y-233746072D01*
X144932100Y-233634875D01*
X144971628Y-233580469D01*
X145064561Y-233398078D01*
X145127818Y-233203393D01*
X145159841Y-233001211D01*
X145159841Y-232796507D01*
X145153661Y-232757491D01*
X145162615Y-232688202D01*
X145207610Y-232634750D01*
X145274361Y-232614109D01*
X145341675Y-232632833D01*
X145363815Y-232650415D01*
X145394482Y-232681082D01*
X145471300Y-232736895D01*
X145471301Y-232736895D01*
X145471302Y-232736896D01*
X145591959Y-232776100D01*
X145591960Y-232776100D01*
X145718824Y-232776100D01*
X145718825Y-232776100D01*
X145839482Y-232736896D01*
X145916301Y-232681084D01*
X147233666Y-231363717D01*
X147289480Y-231286898D01*
X147328684Y-231166241D01*
X147328684Y-231039375D01*
X147289480Y-230918718D01*
X147267155Y-230887990D01*
X147233671Y-230841902D01*
X147233669Y-230841900D01*
X145916304Y-229524536D01*
X145916301Y-229524533D01*
X145839483Y-229468720D01*
X145718826Y-229429516D01*
X145718825Y-229429516D01*
X145591959Y-229429516D01*
X145591957Y-229429516D01*
X145471302Y-229468720D01*
X145471300Y-229468721D01*
X145394486Y-229524528D01*
X145394484Y-229524530D01*
X144077120Y-230841895D01*
X144077117Y-230841898D01*
X144021304Y-230918716D01*
X143982100Y-231039373D01*
X143982100Y-231039375D01*
X143982100Y-231166241D01*
X144021304Y-231286898D01*
X144021305Y-231286899D01*
X144077110Y-231363710D01*
X144077113Y-231363713D01*
X144077116Y-231363717D01*
X144107784Y-231394385D01*
X144141268Y-231455704D01*
X144136284Y-231525396D01*
X144094414Y-231581330D01*
X144028950Y-231605748D01*
X144000707Y-231604538D01*
X143987878Y-231602506D01*
X143961693Y-231598359D01*
X143756989Y-231598359D01*
X143756982Y-231598359D01*
X143703238Y-231606871D01*
X143633945Y-231597916D01*
X143580493Y-231552920D01*
X143559854Y-231486168D01*
X143559841Y-231484398D01*
X143559841Y-228233755D01*
X143579526Y-228166716D01*
X143596155Y-228146078D01*
X144692499Y-227049734D01*
X144753820Y-227016251D01*
X144818492Y-227019484D01*
X144832807Y-227024136D01*
X144832812Y-227024136D01*
X144832813Y-227024137D01*
X144881085Y-227031782D01*
X145034989Y-227056159D01*
X145034990Y-227056159D01*
X145239692Y-227056159D01*
X145239693Y-227056159D01*
X145441875Y-227024136D01*
X145498580Y-227005710D01*
X145568418Y-227003715D01*
X145598896Y-227016255D01*
X145617066Y-227026746D01*
X145769794Y-227067669D01*
X147486562Y-227067669D01*
X147486578Y-227067670D01*
X147494174Y-227067670D01*
X147652285Y-227067670D01*
X147652288Y-227067670D01*
X147805016Y-227026746D01*
X147855135Y-226997808D01*
X147941947Y-226947689D01*
X148053751Y-226835885D01*
X148053751Y-226835883D01*
X148063959Y-226825676D01*
X148063961Y-226825673D01*
X149932144Y-224957490D01*
X149932147Y-224957489D01*
X150043951Y-224845685D01*
X150094070Y-224758873D01*
X150123008Y-224708754D01*
X150163932Y-224556026D01*
X150163932Y-224397912D01*
X150163932Y-224390317D01*
X150163931Y-224390299D01*
X150163931Y-223567668D01*
X150183616Y-223500629D01*
X150236420Y-223454874D01*
X150287931Y-223443668D01*
X150494948Y-223443668D01*
X150494949Y-223443668D01*
X150588735Y-223428815D01*
X150701773Y-223371219D01*
X150791481Y-223281511D01*
X150849077Y-223168473D01*
X150849077Y-223168471D01*
X150849078Y-223168470D01*
X150863930Y-223074694D01*
X150863931Y-223074688D01*
X150863930Y-223031318D01*
X150883613Y-222964282D01*
X150936416Y-222918526D01*
X151005574Y-222908581D01*
X151069131Y-222937604D01*
X151088248Y-222958434D01*
X151111459Y-222990381D01*
X151111463Y-222990386D01*
X151256217Y-223135140D01*
X151411180Y-223247725D01*
X151421821Y-223255456D01*
X151538038Y-223314672D01*
X151604207Y-223348387D01*
X151604209Y-223348387D01*
X151604212Y-223348389D01*
X151674476Y-223371219D01*
X151798896Y-223411646D01*
X151899988Y-223427657D01*
X152001079Y-223443669D01*
X152001080Y-223443669D01*
X152205782Y-223443669D01*
X152205783Y-223443669D01*
X152407965Y-223411646D01*
X152602650Y-223348389D01*
X152785041Y-223255456D01*
X152904768Y-223168470D01*
X152950644Y-223135140D01*
X152950646Y-223135137D01*
X152950650Y-223135135D01*
X153095397Y-222990388D01*
X153095399Y-222990384D01*
X153095402Y-222990382D01*
X153154833Y-222908581D01*
X153215718Y-222824779D01*
X153308651Y-222642388D01*
X153371908Y-222447703D01*
X153403931Y-222245521D01*
X153403931Y-222040817D01*
X153371908Y-221838635D01*
X153308651Y-221643950D01*
X153308649Y-221643947D01*
X153308649Y-221643945D01*
X153274934Y-221577776D01*
X153215718Y-221461559D01*
X153155495Y-221378668D01*
X153095402Y-221295955D01*
X152950644Y-221151197D01*
X152785044Y-221030884D01*
X152785043Y-221030883D01*
X152785041Y-221030882D01*
X152728084Y-221001860D01*
X152602654Y-220937950D01*
X152407965Y-220874691D01*
X152233426Y-220847047D01*
X152205783Y-220842669D01*
X152001079Y-220842669D01*
X151976760Y-220846520D01*
X151798896Y-220874691D01*
X151604207Y-220937950D01*
X151421817Y-221030884D01*
X151256217Y-221151197D01*
X151111463Y-221295951D01*
X151111459Y-221295956D01*
X151088248Y-221327904D01*
X151066463Y-221344702D01*
X151046932Y-221364082D01*
X151039188Y-221365735D01*
X151032918Y-221370570D01*
X151005510Y-221372924D01*
X150978602Y-221378668D01*
X150971192Y-221375871D01*
X150963305Y-221376549D01*
X150938977Y-221363712D01*
X150913233Y-221353996D01*
X150908511Y-221347637D01*
X150901510Y-221343943D01*
X150887983Y-221319990D01*
X150871580Y-221297899D01*
X150869766Y-221287732D01*
X150867153Y-221283105D01*
X150864212Y-221263383D01*
X150863930Y-221259211D01*
X150863930Y-221211651D01*
X150858320Y-221176229D01*
X150857946Y-221170695D01*
X150864352Y-221141789D01*
X150868145Y-221112437D01*
X150872157Y-221106568D01*
X150873064Y-221102480D01*
X150878940Y-221096649D01*
X150893980Y-221074653D01*
X152738647Y-219229988D01*
X152799970Y-219196503D01*
X152826328Y-219193669D01*
X154217562Y-219193669D01*
X154217578Y-219193670D01*
X154225174Y-219193670D01*
X154383285Y-219193670D01*
X154383288Y-219193670D01*
X154536016Y-219152746D01*
X154586135Y-219123808D01*
X154672947Y-219073689D01*
X154784751Y-218961885D01*
X154784751Y-218961883D01*
X154794959Y-218951676D01*
X154794961Y-218951673D01*
X156241937Y-217504697D01*
X156241942Y-217504693D01*
X156252145Y-217494489D01*
X156252147Y-217494489D01*
X156363951Y-217382685D01*
X156430636Y-217267182D01*
X156443008Y-217245754D01*
X156483931Y-217093026D01*
X156483931Y-217042770D01*
X156503616Y-216975731D01*
X156551637Y-216932285D01*
X156565041Y-216925456D01*
X156730650Y-216805135D01*
X156875397Y-216660388D01*
X156875399Y-216660384D01*
X156875402Y-216660382D01*
X156951590Y-216555516D01*
X156995718Y-216494779D01*
X157088651Y-216312388D01*
X157151908Y-216117703D01*
X157183931Y-215915521D01*
X157183931Y-215710817D01*
X157151908Y-215508635D01*
X157088651Y-215313950D01*
X157088649Y-215313947D01*
X157088649Y-215313945D01*
X157054934Y-215247776D01*
X156995718Y-215131559D01*
X156987987Y-215120918D01*
X156875402Y-214965955D01*
X156730644Y-214821197D01*
X156565044Y-214700884D01*
X156565043Y-214700883D01*
X156565041Y-214700882D01*
X156508084Y-214671860D01*
X156382654Y-214607950D01*
X156187965Y-214544691D01*
X156013426Y-214517047D01*
X155985783Y-214512669D01*
X155781079Y-214512669D01*
X155756760Y-214516520D01*
X155578896Y-214544691D01*
X155384207Y-214607950D01*
X155201817Y-214700884D01*
X155036217Y-214821197D01*
X154891463Y-214965951D01*
X154891459Y-214965956D01*
X154868248Y-214997904D01*
X154812918Y-215040570D01*
X154743305Y-215046549D01*
X154681510Y-215013943D01*
X154647153Y-214953105D01*
X154643930Y-214925019D01*
X154643930Y-214881651D01*
X154643929Y-214881644D01*
X154629077Y-214787865D01*
X154571481Y-214674827D01*
X154571477Y-214674823D01*
X154571476Y-214674821D01*
X154481778Y-214585123D01*
X154481775Y-214585121D01*
X154481773Y-214585119D01*
X154368735Y-214527523D01*
X154368733Y-214527522D01*
X154368687Y-214527499D01*
X154317891Y-214479524D01*
X154301096Y-214411703D01*
X154323634Y-214345568D01*
X154337294Y-214329341D01*
X154770648Y-213895988D01*
X154831971Y-213862503D01*
X154858329Y-213859669D01*
X157073554Y-213859669D01*
X157073570Y-213859670D01*
X157081166Y-213859670D01*
X157239277Y-213859670D01*
X157239280Y-213859670D01*
X157392008Y-213818746D01*
X157442127Y-213789808D01*
X157528939Y-213739689D01*
X157640743Y-213627885D01*
X157640743Y-213627883D01*
X157650951Y-213617676D01*
X157650952Y-213617673D01*
X160143951Y-211124677D01*
X160223008Y-210987745D01*
X160263932Y-210835018D01*
X160263932Y-210712769D01*
X160283617Y-210645730D01*
X160331639Y-210602284D01*
X160345041Y-210595456D01*
X160510650Y-210475135D01*
X160655397Y-210330388D01*
X160655399Y-210330384D01*
X160655402Y-210330382D01*
X160714833Y-210248581D01*
X160775718Y-210164779D01*
X160868651Y-209982388D01*
X160931908Y-209787703D01*
X160963931Y-209585521D01*
X160963931Y-209380817D01*
X160931908Y-209178635D01*
X160868651Y-208983950D01*
X160868649Y-208983947D01*
X160868649Y-208983945D01*
X160806571Y-208862112D01*
X160775718Y-208801559D01*
X160767987Y-208790918D01*
X160655402Y-208635955D01*
X160510644Y-208491197D01*
X160345044Y-208370884D01*
X160345043Y-208370883D01*
X160345041Y-208370882D01*
X160288084Y-208341860D01*
X160162654Y-208277950D01*
X159967965Y-208214691D01*
X159793426Y-208187047D01*
X159765783Y-208182669D01*
X159561079Y-208182669D01*
X159536760Y-208186520D01*
X159358896Y-208214691D01*
X159164207Y-208277950D01*
X158981817Y-208370884D01*
X158816217Y-208491197D01*
X158671463Y-208635951D01*
X158671459Y-208635956D01*
X158648248Y-208667904D01*
X158592918Y-208710570D01*
X158523305Y-208716549D01*
X158461510Y-208683943D01*
X158427153Y-208623105D01*
X158423930Y-208595019D01*
X158423930Y-208551651D01*
X158423929Y-208551644D01*
X158409077Y-208457865D01*
X158351481Y-208344827D01*
X158351477Y-208344823D01*
X158351476Y-208344821D01*
X158261778Y-208255123D01*
X158261775Y-208255121D01*
X158261773Y-208255119D01*
X158182429Y-208214691D01*
X158148732Y-208197521D01*
X158054955Y-208182669D01*
X156191913Y-208182669D01*
X156110950Y-208195492D01*
X156098127Y-208197523D01*
X155985089Y-208255119D01*
X155985088Y-208255120D01*
X155985083Y-208255123D01*
X155895385Y-208344821D01*
X155895382Y-208344826D01*
X155837783Y-208457867D01*
X155822931Y-208551644D01*
X155822931Y-210414686D01*
X155824103Y-210422084D01*
X155837785Y-210508473D01*
X155895381Y-210621511D01*
X155895383Y-210621513D01*
X155895385Y-210621516D01*
X155985083Y-210711214D01*
X155985085Y-210711215D01*
X155985089Y-210711219D01*
X156098125Y-210768814D01*
X156098129Y-210768816D01*
X156191906Y-210783668D01*
X156191912Y-210783669D01*
X158054949Y-210783668D01*
X158148735Y-210768815D01*
X158261773Y-210711219D01*
X158351481Y-210621511D01*
X158409077Y-210508473D01*
X158409077Y-210508471D01*
X158409078Y-210508470D01*
X158423930Y-210414694D01*
X158423931Y-210414688D01*
X158423930Y-210371318D01*
X158443613Y-210304282D01*
X158496416Y-210258526D01*
X158565574Y-210248581D01*
X158629131Y-210277604D01*
X158648248Y-210298434D01*
X158671459Y-210330381D01*
X158671463Y-210330386D01*
X158816213Y-210475136D01*
X158816218Y-210475140D01*
X158860237Y-210507122D01*
X158902903Y-210562452D01*
X158908882Y-210632065D01*
X158876276Y-210693860D01*
X158875033Y-210695121D01*
X156947807Y-212622350D01*
X156886484Y-212655835D01*
X156860126Y-212658669D01*
X154644901Y-212658669D01*
X154644885Y-212658668D01*
X154637289Y-212658668D01*
X154479174Y-212658668D01*
X154402810Y-212679130D01*
X154326445Y-212699592D01*
X154326440Y-212699595D01*
X154189521Y-212778644D01*
X154189513Y-212778650D01*
X152862912Y-214105251D01*
X152862910Y-214105254D01*
X152812792Y-214192063D01*
X152812790Y-214192065D01*
X152783856Y-214242178D01*
X152783855Y-214242179D01*
X152742929Y-214394914D01*
X152741869Y-214402972D01*
X152738846Y-214402574D01*
X152723245Y-214455708D01*
X152670441Y-214501463D01*
X152618931Y-214512669D01*
X152411913Y-214512669D01*
X152330950Y-214525492D01*
X152318127Y-214527523D01*
X152205089Y-214585119D01*
X152205088Y-214585120D01*
X152205083Y-214585123D01*
X152115385Y-214674821D01*
X152115382Y-214674826D01*
X152057783Y-214787867D01*
X152042931Y-214881644D01*
X152042931Y-216744686D01*
X152052174Y-216803042D01*
X152057785Y-216838473D01*
X152115381Y-216951511D01*
X152115383Y-216951513D01*
X152115385Y-216951516D01*
X152205083Y-217041214D01*
X152205085Y-217041215D01*
X152205089Y-217041219D01*
X152318125Y-217098814D01*
X152318129Y-217098816D01*
X152411906Y-217113668D01*
X152411912Y-217113669D01*
X154274949Y-217113668D01*
X154368735Y-217098815D01*
X154481773Y-217041219D01*
X154571481Y-216951511D01*
X154629077Y-216838473D01*
X154629077Y-216838471D01*
X154629078Y-216838470D01*
X154643930Y-216744694D01*
X154643931Y-216744688D01*
X154643930Y-216701318D01*
X154663613Y-216634282D01*
X154716416Y-216588526D01*
X154785574Y-216578581D01*
X154849131Y-216607604D01*
X154868248Y-216628434D01*
X154891459Y-216660381D01*
X154891463Y-216660386D01*
X155036215Y-216805138D01*
X155038540Y-216806827D01*
X155039210Y-216807696D01*
X155039925Y-216808307D01*
X155039796Y-216808456D01*
X155081206Y-216862156D01*
X155087187Y-216931769D01*
X155054582Y-216993565D01*
X155053337Y-216994827D01*
X154091815Y-217956350D01*
X154030492Y-217989835D01*
X154004134Y-217992669D01*
X152612900Y-217992669D01*
X152612884Y-217992668D01*
X152605288Y-217992668D01*
X152447174Y-217992668D01*
X152332628Y-218023361D01*
X152294445Y-218033592D01*
X152257126Y-218055139D01*
X152257125Y-218055139D01*
X152157518Y-218112646D01*
X152157513Y-218112650D01*
X152045709Y-218224455D01*
X149463813Y-220806350D01*
X149402490Y-220839835D01*
X149376132Y-220842669D01*
X148631913Y-220842669D01*
X148550950Y-220855492D01*
X148538127Y-220857523D01*
X148425089Y-220915119D01*
X148425088Y-220915120D01*
X148425083Y-220915123D01*
X148335385Y-221004821D01*
X148335382Y-221004826D01*
X148277783Y-221117867D01*
X148262931Y-221211644D01*
X148262931Y-223074687D01*
X148273854Y-223143653D01*
X148264898Y-223212946D01*
X148219901Y-223266398D01*
X148153149Y-223287036D01*
X148085835Y-223268310D01*
X148063699Y-223250730D01*
X147194304Y-222381336D01*
X147194301Y-222381333D01*
X147117483Y-222325520D01*
X147023522Y-222294990D01*
X146965847Y-222255552D01*
X146938649Y-222191193D01*
X146937841Y-222177059D01*
X146937841Y-219765260D01*
X146957526Y-219698221D01*
X147005547Y-219654775D01*
X147018951Y-219647946D01*
X147184560Y-219527625D01*
X147329307Y-219382878D01*
X147329309Y-219382874D01*
X147329312Y-219382872D01*
X147382073Y-219310249D01*
X147449628Y-219217269D01*
X147542561Y-219034878D01*
X147605818Y-218840193D01*
X147637841Y-218638011D01*
X147637841Y-218433307D01*
X147631661Y-218394291D01*
X147640615Y-218325002D01*
X147685610Y-218271550D01*
X147752361Y-218250909D01*
X147819675Y-218269633D01*
X147841815Y-218287215D01*
X147872482Y-218317882D01*
X147949300Y-218373695D01*
X147949301Y-218373695D01*
X147949302Y-218373696D01*
X148069959Y-218412900D01*
X148069960Y-218412900D01*
X148196824Y-218412900D01*
X148196825Y-218412900D01*
X148317482Y-218373696D01*
X148394301Y-218317884D01*
X149711666Y-217000517D01*
X149767480Y-216923698D01*
X149806684Y-216803041D01*
X149806684Y-216676175D01*
X149767480Y-216555518D01*
X149723351Y-216494779D01*
X149711671Y-216478702D01*
X149711669Y-216478700D01*
X148394304Y-215161336D01*
X148394301Y-215161333D01*
X148317483Y-215105520D01*
X148196826Y-215066316D01*
X148196825Y-215066316D01*
X148069959Y-215066316D01*
X148069957Y-215066316D01*
X147949302Y-215105520D01*
X147949300Y-215105521D01*
X147872486Y-215161328D01*
X147872484Y-215161330D01*
X146555120Y-216478695D01*
X146555117Y-216478698D01*
X146499304Y-216555516D01*
X146460100Y-216676173D01*
X146460100Y-216803042D01*
X146479308Y-216862156D01*
X146499304Y-216923698D01*
X146500582Y-216925457D01*
X146555110Y-217000510D01*
X146555113Y-217000513D01*
X146555116Y-217000517D01*
X146585784Y-217031185D01*
X146619268Y-217092504D01*
X146614284Y-217162196D01*
X146572414Y-217218130D01*
X146506950Y-217242548D01*
X146478707Y-217241338D01*
X146465878Y-217239306D01*
X146439693Y-217235159D01*
X146234989Y-217235159D01*
X146210670Y-217239010D01*
X146032806Y-217267181D01*
X145838117Y-217330440D01*
X145655727Y-217423374D01*
X145490127Y-217543687D01*
X145345369Y-217688445D01*
X145225056Y-217854045D01*
X145132122Y-218036435D01*
X145068863Y-218231124D01*
X145036841Y-218433307D01*
X145036841Y-218638010D01*
X145068863Y-218840193D01*
X145132122Y-219034882D01*
X145225056Y-219217272D01*
X145345369Y-219382872D01*
X145345375Y-219382878D01*
X145490122Y-219527625D01*
X145655731Y-219647946D01*
X145669134Y-219654775D01*
X145719930Y-219702747D01*
X145736841Y-219765260D01*
X145736841Y-223265613D01*
X145717156Y-223332652D01*
X145700522Y-223353294D01*
X145355115Y-223698701D01*
X145299304Y-223775516D01*
X145260100Y-223896173D01*
X145260100Y-223896175D01*
X145260100Y-224023041D01*
X145299304Y-224143698D01*
X145299305Y-224143699D01*
X145355110Y-224220510D01*
X145355113Y-224220513D01*
X145355116Y-224220517D01*
X145385784Y-224251185D01*
X145419268Y-224312504D01*
X145414284Y-224382196D01*
X145372414Y-224438130D01*
X145306950Y-224462548D01*
X145278707Y-224461338D01*
X145265878Y-224459306D01*
X145239693Y-224455159D01*
X145034989Y-224455159D01*
X145010670Y-224459010D01*
X144832806Y-224487181D01*
X144638117Y-224550440D01*
X144455727Y-224643374D01*
X144290127Y-224763687D01*
X144145369Y-224908445D01*
X144025056Y-225074045D01*
X143932122Y-225256435D01*
X143868863Y-225451124D01*
X143843020Y-225614296D01*
X143836841Y-225653307D01*
X143836841Y-225858011D01*
X143838212Y-225866669D01*
X143868863Y-226060193D01*
X143873514Y-226074507D01*
X143875506Y-226144349D01*
X143843262Y-226200501D01*
X142590627Y-227453137D01*
X142478822Y-227564941D01*
X142478820Y-227564944D01*
X142428702Y-227651753D01*
X142428700Y-227651755D01*
X142399766Y-227701868D01*
X142399765Y-227701869D01*
X142399764Y-227701874D01*
X142358840Y-227854602D01*
X142358840Y-228012716D01*
X142358840Y-228012718D01*
X142358841Y-228022717D01*
X142358841Y-231912189D01*
X142358840Y-231912207D01*
X142358840Y-232077913D01*
X142358839Y-232077913D01*
X140360118Y-232077913D01*
X140358469Y-232047983D01*
X140358371Y-232036508D01*
X140373356Y-231640307D01*
X140374324Y-231628844D01*
X140426727Y-231230044D01*
X140438334Y-231165182D01*
X140436163Y-231139625D01*
X140437404Y-231127881D01*
X140438158Y-231126050D01*
X140438365Y-231120764D01*
X143716553Y-211213307D01*
X146236841Y-211213307D01*
X146236841Y-211418010D01*
X146268863Y-211620193D01*
X146332122Y-211814882D01*
X146425056Y-211997272D01*
X146545369Y-212162872D01*
X146690127Y-212307630D01*
X146845090Y-212420215D01*
X146855731Y-212427946D01*
X146971948Y-212487162D01*
X147038117Y-212520877D01*
X147038119Y-212520877D01*
X147038122Y-212520879D01*
X147142478Y-212554786D01*
X147232806Y-212584136D01*
X147333898Y-212600147D01*
X147434989Y-212616159D01*
X147434990Y-212616159D01*
X147639692Y-212616159D01*
X147639693Y-212616159D01*
X147841875Y-212584136D01*
X148036560Y-212520879D01*
X148218951Y-212427946D01*
X148311931Y-212360391D01*
X148384554Y-212307630D01*
X148384556Y-212307627D01*
X148384560Y-212307625D01*
X148529307Y-212162878D01*
X148529309Y-212162874D01*
X148529312Y-212162872D01*
X148582073Y-212090249D01*
X148649628Y-211997269D01*
X148742561Y-211814878D01*
X148805818Y-211620193D01*
X148837841Y-211418011D01*
X148837841Y-211213307D01*
X148831661Y-211174291D01*
X148840615Y-211105002D01*
X148885610Y-211051550D01*
X148952361Y-211030909D01*
X149019675Y-211049633D01*
X149041815Y-211067215D01*
X149072482Y-211097882D01*
X149149300Y-211153695D01*
X149149301Y-211153695D01*
X149149302Y-211153696D01*
X149269959Y-211192900D01*
X149269960Y-211192900D01*
X149396824Y-211192900D01*
X149396825Y-211192900D01*
X149517482Y-211153696D01*
X149594301Y-211097884D01*
X150911666Y-209780517D01*
X150967480Y-209703698D01*
X151006684Y-209583041D01*
X151006684Y-209456175D01*
X150967480Y-209335518D01*
X150945155Y-209304790D01*
X150911671Y-209258702D01*
X150911669Y-209258700D01*
X149594304Y-207941336D01*
X149594301Y-207941333D01*
X149517483Y-207885520D01*
X149392649Y-207844959D01*
X149334974Y-207805521D01*
X149307776Y-207741162D01*
X149319691Y-207672316D01*
X149343285Y-207639348D01*
X150902105Y-206080529D01*
X150902108Y-206080528D01*
X151013912Y-205968724D01*
X151064031Y-205881912D01*
X151092969Y-205831793D01*
X151133892Y-205679066D01*
X151133892Y-205520951D01*
X151133892Y-203589654D01*
X151153577Y-203522615D01*
X151170211Y-203501973D01*
X152111663Y-202560520D01*
X152111666Y-202560517D01*
X152167479Y-202483699D01*
X152167478Y-202483699D01*
X152167480Y-202483698D01*
X152206684Y-202363041D01*
X152206684Y-202236175D01*
X152167480Y-202115518D01*
X152145155Y-202084790D01*
X152111671Y-202038702D01*
X152111669Y-202038700D01*
X150794304Y-200721336D01*
X150794301Y-200721333D01*
X150717483Y-200665520D01*
X150596826Y-200626316D01*
X150596825Y-200626316D01*
X150469959Y-200626316D01*
X150469957Y-200626316D01*
X150349302Y-200665520D01*
X150349300Y-200665521D01*
X150272486Y-200721328D01*
X150272484Y-200721330D01*
X148955120Y-202038695D01*
X148955117Y-202038698D01*
X148899304Y-202115516D01*
X148860100Y-202236173D01*
X148860100Y-202363042D01*
X148867738Y-202386549D01*
X148899304Y-202483698D01*
X148899305Y-202483699D01*
X148955110Y-202560510D01*
X148955113Y-202560513D01*
X148955116Y-202560517D01*
X148985784Y-202591185D01*
X149019268Y-202652504D01*
X149014284Y-202722196D01*
X148972414Y-202778130D01*
X148906950Y-202802548D01*
X148878707Y-202801338D01*
X148865878Y-202799306D01*
X148839693Y-202795159D01*
X148634989Y-202795159D01*
X148610670Y-202799010D01*
X148432806Y-202827181D01*
X148238117Y-202890440D01*
X148055727Y-202983374D01*
X147890127Y-203103687D01*
X147745369Y-203248445D01*
X147625056Y-203414045D01*
X147532122Y-203596435D01*
X147468863Y-203791124D01*
X147436841Y-203993307D01*
X147436841Y-204198010D01*
X147468863Y-204400193D01*
X147532122Y-204594882D01*
X147625056Y-204777272D01*
X147745369Y-204942872D01*
X147890127Y-205087630D01*
X148045090Y-205200215D01*
X148055731Y-205207946D01*
X148171948Y-205267162D01*
X148238117Y-205300877D01*
X148238119Y-205300877D01*
X148238122Y-205300879D01*
X148342478Y-205334786D01*
X148432806Y-205364136D01*
X148533898Y-205380147D01*
X148634989Y-205396159D01*
X148634990Y-205396159D01*
X148839692Y-205396159D01*
X148839693Y-205396159D01*
X149041875Y-205364136D01*
X149236560Y-205300879D01*
X149418951Y-205207946D01*
X149511931Y-205140391D01*
X149584554Y-205087630D01*
X149584556Y-205087627D01*
X149584560Y-205087625D01*
X149721211Y-204950974D01*
X149782534Y-204917489D01*
X149852226Y-204922473D01*
X149908159Y-204964345D01*
X149932576Y-205029809D01*
X149932892Y-205038655D01*
X149932892Y-205299910D01*
X149913207Y-205366949D01*
X149896573Y-205387591D01*
X146711712Y-208572451D01*
X146711710Y-208572454D01*
X146686651Y-208615858D01*
X146675049Y-208635955D01*
X146661592Y-208659263D01*
X146661590Y-208659265D01*
X146632656Y-208709378D01*
X146632655Y-208709379D01*
X146632654Y-208709384D01*
X146591730Y-208862112D01*
X146591730Y-208862114D01*
X146591730Y-209030215D01*
X146591731Y-209030228D01*
X146591731Y-210370722D01*
X146572046Y-210437761D01*
X146555412Y-210458403D01*
X146545373Y-210468441D01*
X146545369Y-210468445D01*
X146425056Y-210634045D01*
X146332122Y-210816435D01*
X146268863Y-211011124D01*
X146236841Y-211213307D01*
X143716553Y-211213307D01*
X144154851Y-208551651D01*
X146094407Y-196773307D01*
X148636841Y-196773307D01*
X148636841Y-196978010D01*
X148668863Y-197180193D01*
X148732122Y-197374882D01*
X148796032Y-197500312D01*
X148798310Y-197504782D01*
X148825056Y-197557272D01*
X148945369Y-197722872D01*
X149090127Y-197867630D01*
X149192882Y-197942284D01*
X149255731Y-197987946D01*
X149371948Y-198047162D01*
X149438117Y-198080877D01*
X149438119Y-198080877D01*
X149438122Y-198080879D01*
X149524097Y-198108814D01*
X149632806Y-198144136D01*
X149733898Y-198160147D01*
X149834989Y-198176159D01*
X149834990Y-198176159D01*
X150039692Y-198176159D01*
X150039693Y-198176159D01*
X150241875Y-198144136D01*
X150436560Y-198080879D01*
X150618951Y-197987946D01*
X150719644Y-197914789D01*
X150784554Y-197867630D01*
X150784556Y-197867627D01*
X150784560Y-197867625D01*
X150929307Y-197722878D01*
X150929309Y-197722874D01*
X150929312Y-197722872D01*
X151019653Y-197598526D01*
X151049628Y-197557269D01*
X151142561Y-197374878D01*
X151205818Y-197180193D01*
X151237841Y-196978011D01*
X151237841Y-196773307D01*
X151231661Y-196734291D01*
X151240615Y-196665002D01*
X151285610Y-196611550D01*
X151352361Y-196590909D01*
X151419675Y-196609633D01*
X151441815Y-196627215D01*
X151472482Y-196657882D01*
X151549300Y-196713695D01*
X151549301Y-196713695D01*
X151549302Y-196713696D01*
X151669959Y-196752900D01*
X151669960Y-196752900D01*
X151796824Y-196752900D01*
X151796825Y-196752900D01*
X151917482Y-196713696D01*
X151994301Y-196657884D01*
X153311666Y-195340517D01*
X153367480Y-195263698D01*
X153406684Y-195143041D01*
X153406684Y-195016175D01*
X153367480Y-194895518D01*
X153345155Y-194864790D01*
X153311671Y-194818702D01*
X153311669Y-194818700D01*
X151994304Y-193501336D01*
X151994301Y-193501333D01*
X151917483Y-193445520D01*
X151796826Y-193406316D01*
X151796825Y-193406316D01*
X151669959Y-193406316D01*
X151669957Y-193406316D01*
X151549302Y-193445520D01*
X151549300Y-193445521D01*
X151472486Y-193501328D01*
X151472484Y-193501330D01*
X150544412Y-194429403D01*
X150483089Y-194462888D01*
X150413397Y-194457904D01*
X150357464Y-194416032D01*
X150333047Y-194350568D01*
X150332731Y-194341722D01*
X150332731Y-194001265D01*
X150352416Y-193934226D01*
X150369045Y-193913589D01*
X153291898Y-190990735D01*
X153291903Y-190990732D01*
X153302106Y-190980528D01*
X153302108Y-190980528D01*
X153413912Y-190868724D01*
X153472096Y-190767946D01*
X153487506Y-190741255D01*
X153487508Y-190741251D01*
X153492969Y-190731793D01*
X153533892Y-190579066D01*
X153533892Y-190420951D01*
X153533892Y-189149654D01*
X153553577Y-189082615D01*
X153570211Y-189061973D01*
X154511663Y-188120520D01*
X154511666Y-188120517D01*
X154567479Y-188043699D01*
X154567478Y-188043699D01*
X154567480Y-188043698D01*
X154606684Y-187923041D01*
X154606684Y-187796175D01*
X154567480Y-187675518D01*
X154532817Y-187627808D01*
X154511671Y-187598702D01*
X154511669Y-187598700D01*
X153194304Y-186281336D01*
X153194301Y-186281333D01*
X153117483Y-186225520D01*
X152996826Y-186186316D01*
X152996825Y-186186316D01*
X152869959Y-186186316D01*
X152869957Y-186186316D01*
X152749302Y-186225520D01*
X152749300Y-186225521D01*
X152672486Y-186281328D01*
X152672484Y-186281330D01*
X151355120Y-187598695D01*
X151355117Y-187598698D01*
X151299304Y-187675516D01*
X151260100Y-187796173D01*
X151260100Y-187796175D01*
X151260100Y-187923041D01*
X151299304Y-188043698D01*
X151299305Y-188043699D01*
X151355110Y-188120510D01*
X151355113Y-188120513D01*
X151355116Y-188120517D01*
X151385784Y-188151185D01*
X151419268Y-188212504D01*
X151414284Y-188282196D01*
X151372414Y-188338130D01*
X151306950Y-188362548D01*
X151278707Y-188361338D01*
X151265878Y-188359306D01*
X151239693Y-188355159D01*
X151034989Y-188355159D01*
X151010670Y-188359010D01*
X150832806Y-188387181D01*
X150638117Y-188450440D01*
X150455727Y-188543374D01*
X150290127Y-188663687D01*
X150145369Y-188808445D01*
X150025056Y-188974045D01*
X149932122Y-189156435D01*
X149868863Y-189351124D01*
X149836841Y-189553307D01*
X149836841Y-189758010D01*
X149868863Y-189960193D01*
X149932122Y-190154882D01*
X149981237Y-190251273D01*
X150022215Y-190331698D01*
X150025056Y-190337272D01*
X150145369Y-190502872D01*
X150290127Y-190647630D01*
X150445090Y-190760215D01*
X150455731Y-190767946D01*
X150571948Y-190827162D01*
X150638117Y-190860877D01*
X150638119Y-190860877D01*
X150638122Y-190860879D01*
X150662270Y-190868725D01*
X150832806Y-190924136D01*
X150933898Y-190940147D01*
X151034989Y-190956159D01*
X151034990Y-190956159D01*
X151239691Y-190956159D01*
X151239693Y-190956159D01*
X151324149Y-190942782D01*
X151393441Y-190951736D01*
X151446893Y-190996732D01*
X151467533Y-191063484D01*
X151448808Y-191130797D01*
X151431227Y-191152936D01*
X149363517Y-193220647D01*
X149251712Y-193332451D01*
X149251710Y-193332454D01*
X149209068Y-193406314D01*
X149209067Y-193406315D01*
X149172654Y-193469383D01*
X149172654Y-193469384D01*
X149131730Y-193622112D01*
X149131730Y-193622114D01*
X149131730Y-193790215D01*
X149131731Y-193790228D01*
X149131731Y-195790991D01*
X149112046Y-195858030D01*
X149093080Y-195879761D01*
X149093567Y-195880248D01*
X148945373Y-196028441D01*
X148945369Y-196028445D01*
X148825056Y-196194045D01*
X148732122Y-196376435D01*
X148668863Y-196571124D01*
X148636841Y-196773307D01*
X146094407Y-196773307D01*
X148472261Y-182333307D01*
X151036841Y-182333307D01*
X151036841Y-182538010D01*
X151068863Y-182740193D01*
X151132122Y-182934882D01*
X151177949Y-183024821D01*
X151206834Y-183081511D01*
X151225056Y-183117272D01*
X151345369Y-183282872D01*
X151490127Y-183427630D01*
X151645090Y-183540215D01*
X151655731Y-183547946D01*
X151771948Y-183607162D01*
X151838117Y-183640877D01*
X151838119Y-183640877D01*
X151838122Y-183640879D01*
X151942478Y-183674786D01*
X152032806Y-183704136D01*
X152133898Y-183720147D01*
X152234989Y-183736159D01*
X152234990Y-183736159D01*
X152439692Y-183736159D01*
X152439693Y-183736159D01*
X152641875Y-183704136D01*
X152836560Y-183640879D01*
X153018951Y-183547946D01*
X153111931Y-183480391D01*
X153184554Y-183427630D01*
X153184556Y-183427627D01*
X153184560Y-183427625D01*
X153329307Y-183282878D01*
X153444610Y-183124175D01*
X153499938Y-183081511D01*
X153569551Y-183075532D01*
X153631347Y-183108137D01*
X153632608Y-183109381D01*
X165872841Y-195349614D01*
X165906326Y-195410937D01*
X165901342Y-195480629D01*
X165859470Y-195536562D01*
X165794006Y-195560979D01*
X165728865Y-195547780D01*
X165708732Y-195537521D01*
X165614955Y-195522669D01*
X163751913Y-195522669D01*
X163670950Y-195535492D01*
X163658127Y-195537523D01*
X163545089Y-195595119D01*
X163545088Y-195595120D01*
X163545083Y-195595123D01*
X163455385Y-195684821D01*
X163455382Y-195684826D01*
X163397783Y-195797867D01*
X163382931Y-195891644D01*
X163382931Y-197754686D01*
X163392505Y-197815135D01*
X163397785Y-197848473D01*
X163455381Y-197961511D01*
X163455383Y-197961513D01*
X163455385Y-197961516D01*
X163545083Y-198051214D01*
X163545085Y-198051215D01*
X163545089Y-198051219D01*
X163658125Y-198108814D01*
X163658129Y-198108816D01*
X163751906Y-198123668D01*
X163751912Y-198123669D01*
X165614949Y-198123668D01*
X165708735Y-198108815D01*
X165821773Y-198051219D01*
X165911481Y-197961511D01*
X165969077Y-197848473D01*
X165969077Y-197848471D01*
X165969078Y-197848470D01*
X165983930Y-197754694D01*
X165983931Y-197754688D01*
X165983930Y-197711318D01*
X166003613Y-197644282D01*
X166056416Y-197598526D01*
X166125574Y-197588581D01*
X166189131Y-197617604D01*
X166208248Y-197638434D01*
X166231459Y-197670381D01*
X166231463Y-197670386D01*
X166376213Y-197815136D01*
X166395917Y-197829452D01*
X166438582Y-197884782D01*
X166444561Y-197954396D01*
X166411955Y-198016191D01*
X166410712Y-198017451D01*
X165521815Y-198906350D01*
X165460492Y-198939835D01*
X165434134Y-198942669D01*
X163115171Y-198942669D01*
X163074250Y-198953633D01*
X163074250Y-198953634D01*
X163036982Y-198963620D01*
X162962445Y-198983592D01*
X162962440Y-198983595D01*
X162825521Y-199062644D01*
X162825513Y-199062650D01*
X160422912Y-201465251D01*
X160422910Y-201465254D01*
X160376348Y-201545904D01*
X160376346Y-201545906D01*
X160343856Y-201602178D01*
X160301362Y-201760764D01*
X160264996Y-201820424D01*
X160202149Y-201850952D01*
X160181588Y-201852669D01*
X159971913Y-201852669D01*
X159890950Y-201865492D01*
X159878127Y-201867523D01*
X159765089Y-201925119D01*
X159765088Y-201925120D01*
X159765083Y-201925123D01*
X159675385Y-202014821D01*
X159675382Y-202014826D01*
X159617783Y-202127867D01*
X159602931Y-202221644D01*
X159602931Y-204084686D01*
X159612505Y-204145135D01*
X159617785Y-204178473D01*
X159675381Y-204291511D01*
X159675383Y-204291513D01*
X159675385Y-204291516D01*
X159765083Y-204381214D01*
X159765085Y-204381215D01*
X159765089Y-204381219D01*
X159878125Y-204438814D01*
X159878129Y-204438816D01*
X159971906Y-204453668D01*
X159971912Y-204453669D01*
X161834949Y-204453668D01*
X161928735Y-204438815D01*
X162041773Y-204381219D01*
X162131481Y-204291511D01*
X162189077Y-204178473D01*
X162189077Y-204178471D01*
X162189078Y-204178470D01*
X162203930Y-204084694D01*
X162203931Y-204084688D01*
X162203930Y-204041318D01*
X162223613Y-203974282D01*
X162276416Y-203928526D01*
X162345574Y-203918581D01*
X162409131Y-203947604D01*
X162428248Y-203968434D01*
X162451459Y-204000381D01*
X162451463Y-204000386D01*
X162596217Y-204145140D01*
X162751180Y-204257725D01*
X162761821Y-204265456D01*
X162878038Y-204324672D01*
X162944207Y-204358387D01*
X162944209Y-204358387D01*
X162944212Y-204358389D01*
X163014476Y-204381219D01*
X163138896Y-204421646D01*
X163239988Y-204437657D01*
X163341079Y-204453669D01*
X163341080Y-204453669D01*
X163545782Y-204453669D01*
X163545783Y-204453669D01*
X163747965Y-204421646D01*
X163942650Y-204358389D01*
X164125041Y-204265456D01*
X164244768Y-204178470D01*
X164290644Y-204145140D01*
X164290646Y-204145137D01*
X164290650Y-204145135D01*
X164435397Y-204000388D01*
X164435399Y-204000384D01*
X164435402Y-204000382D01*
X164494833Y-203918581D01*
X164555718Y-203834779D01*
X164648651Y-203652388D01*
X164711908Y-203457703D01*
X164743931Y-203255521D01*
X164743931Y-203050817D01*
X164711908Y-202848635D01*
X164704937Y-202827182D01*
X164648649Y-202653945D01*
X164601041Y-202560510D01*
X164555718Y-202471559D01*
X164547987Y-202460918D01*
X164435402Y-202305955D01*
X164290644Y-202161197D01*
X164125044Y-202040884D01*
X164125043Y-202040883D01*
X164125041Y-202040882D01*
X164068084Y-202011860D01*
X163942654Y-201947950D01*
X163747965Y-201884691D01*
X163573426Y-201857047D01*
X163545783Y-201852669D01*
X163341079Y-201852669D01*
X163316760Y-201856520D01*
X163138896Y-201884691D01*
X162944207Y-201947950D01*
X162761817Y-202040884D01*
X162596217Y-202161197D01*
X162451463Y-202305951D01*
X162451459Y-202305956D01*
X162428248Y-202337904D01*
X162372918Y-202380570D01*
X162303305Y-202386549D01*
X162241510Y-202353943D01*
X162207153Y-202293105D01*
X162203930Y-202265019D01*
X162203930Y-202221651D01*
X162203929Y-202221644D01*
X162189077Y-202127865D01*
X162131481Y-202014827D01*
X162131477Y-202014823D01*
X162131476Y-202014821D01*
X162041778Y-201925123D01*
X162041774Y-201925120D01*
X162041773Y-201925119D01*
X162039349Y-201923884D01*
X161941935Y-201874248D01*
X161891140Y-201826274D01*
X161874345Y-201758452D01*
X161896883Y-201692318D01*
X161910544Y-201676089D01*
X163406647Y-200179988D01*
X163467970Y-200146503D01*
X163494328Y-200143669D01*
X165647562Y-200143669D01*
X165647578Y-200143670D01*
X165655174Y-200143670D01*
X165813285Y-200143670D01*
X165813288Y-200143670D01*
X165966016Y-200102746D01*
X166016135Y-200073808D01*
X166102947Y-200023689D01*
X166214751Y-199911885D01*
X166214751Y-199911883D01*
X166224959Y-199901676D01*
X166224961Y-199901673D01*
X167592144Y-198534490D01*
X167592147Y-198534489D01*
X167703951Y-198422685D01*
X167754070Y-198335873D01*
X167783008Y-198285754D01*
X167823932Y-198133026D01*
X167823932Y-198052770D01*
X167843617Y-197985731D01*
X167891640Y-197942284D01*
X167905043Y-197935455D01*
X168070644Y-197815140D01*
X168070646Y-197815137D01*
X168070650Y-197815135D01*
X168215397Y-197670388D01*
X168215399Y-197670384D01*
X168215402Y-197670382D01*
X168297582Y-197557269D01*
X168335718Y-197504779D01*
X168428651Y-197322388D01*
X168491908Y-197127703D01*
X168523931Y-196925521D01*
X168523931Y-196720817D01*
X168491908Y-196518635D01*
X168428651Y-196323950D01*
X168428649Y-196323947D01*
X168428649Y-196323945D01*
X168362463Y-196194049D01*
X168335718Y-196141559D01*
X168253537Y-196028445D01*
X168215402Y-195975955D01*
X168070644Y-195831197D01*
X167905042Y-195710882D01*
X167839264Y-195677366D01*
X167788469Y-195629392D01*
X167785826Y-195624066D01*
X167703955Y-195482259D01*
X167703952Y-195482255D01*
X167703951Y-195482253D01*
X167592147Y-195370449D01*
X167592146Y-195370448D01*
X167587816Y-195366118D01*
X167587805Y-195366108D01*
X154504621Y-182282924D01*
X154471136Y-182221601D01*
X154476120Y-182151909D01*
X154504621Y-182107562D01*
X155615042Y-180997141D01*
X156364519Y-180997141D01*
X156391438Y-181132468D01*
X156391441Y-181132478D01*
X156444241Y-181259950D01*
X156444248Y-181259963D01*
X156520905Y-181374687D01*
X156520908Y-181374691D01*
X156618474Y-181472257D01*
X156618478Y-181472260D01*
X156733202Y-181548917D01*
X156733215Y-181548924D01*
X156860687Y-181601724D01*
X156860692Y-181601726D01*
X156860696Y-181601726D01*
X156860697Y-181601727D01*
X156996024Y-181628646D01*
X156996027Y-181628646D01*
X157134015Y-181628646D01*
X157225061Y-181610535D01*
X157269348Y-181601726D01*
X157396831Y-181548921D01*
X157471926Y-181498743D01*
X157538603Y-181477866D01*
X157540817Y-181477846D01*
X158547511Y-181477846D01*
X158614550Y-181497531D01*
X158635192Y-181514165D01*
X167126612Y-190005585D01*
X167160097Y-190066908D01*
X167162931Y-190093266D01*
X167162931Y-191424686D01*
X167172505Y-191485135D01*
X167177785Y-191518473D01*
X167235381Y-191631511D01*
X167235383Y-191631513D01*
X167235385Y-191631516D01*
X167325083Y-191721214D01*
X167325085Y-191721215D01*
X167325089Y-191721219D01*
X167438125Y-191778814D01*
X167438129Y-191778816D01*
X167531906Y-191793668D01*
X167531912Y-191793669D01*
X169394949Y-191793668D01*
X169488735Y-191778815D01*
X169601773Y-191721219D01*
X169691481Y-191631511D01*
X169749077Y-191518473D01*
X169749077Y-191518471D01*
X169749078Y-191518470D01*
X169763930Y-191424694D01*
X169763931Y-191424688D01*
X169763930Y-191381318D01*
X169783613Y-191314282D01*
X169836416Y-191268526D01*
X169905574Y-191258581D01*
X169969131Y-191287604D01*
X169988248Y-191308434D01*
X170011459Y-191340381D01*
X170011463Y-191340386D01*
X170156217Y-191485140D01*
X170311180Y-191597725D01*
X170321821Y-191605456D01*
X170438038Y-191664672D01*
X170504207Y-191698387D01*
X170504209Y-191698387D01*
X170504212Y-191698389D01*
X170574476Y-191721219D01*
X170698896Y-191761646D01*
X170799988Y-191777657D01*
X170901079Y-191793669D01*
X170901080Y-191793669D01*
X171105782Y-191793669D01*
X171105783Y-191793669D01*
X171307965Y-191761646D01*
X171502650Y-191698389D01*
X171685041Y-191605456D01*
X171804768Y-191518470D01*
X171850644Y-191485140D01*
X171850646Y-191485137D01*
X171850650Y-191485135D01*
X171995397Y-191340388D01*
X171995399Y-191340384D01*
X171995402Y-191340382D01*
X172054833Y-191258581D01*
X172115718Y-191174779D01*
X172208651Y-190992388D01*
X172271908Y-190797703D01*
X172303931Y-190595521D01*
X172303931Y-190390817D01*
X172271908Y-190188635D01*
X172267105Y-190173854D01*
X172208649Y-189993945D01*
X172174934Y-189927776D01*
X172115718Y-189811559D01*
X172107987Y-189800918D01*
X171995402Y-189645955D01*
X171850644Y-189501197D01*
X171685044Y-189380884D01*
X171685043Y-189380883D01*
X171685041Y-189380882D01*
X171626638Y-189351124D01*
X171502654Y-189287950D01*
X171307965Y-189224691D01*
X171133426Y-189197047D01*
X171105783Y-189192669D01*
X170901079Y-189192669D01*
X170876760Y-189196520D01*
X170698896Y-189224691D01*
X170504207Y-189287950D01*
X170321817Y-189380884D01*
X170156217Y-189501197D01*
X170011463Y-189645951D01*
X170011459Y-189645956D01*
X169988248Y-189677904D01*
X169932918Y-189720570D01*
X169863305Y-189726549D01*
X169801510Y-189693943D01*
X169767153Y-189633105D01*
X169763930Y-189605019D01*
X169763930Y-189561651D01*
X169749077Y-189467865D01*
X169691481Y-189354827D01*
X169691477Y-189354823D01*
X169691476Y-189354821D01*
X169601778Y-189265123D01*
X169601774Y-189265120D01*
X169601773Y-189265119D01*
X169598592Y-189263498D01*
X169515184Y-189220999D01*
X169464389Y-189173025D01*
X169447594Y-189105204D01*
X169470132Y-189039069D01*
X169483793Y-189022841D01*
X170772647Y-187733988D01*
X170833970Y-187700503D01*
X170860328Y-187697669D01*
X173013562Y-187697669D01*
X173013578Y-187697670D01*
X173021174Y-187697670D01*
X173179285Y-187697670D01*
X173179288Y-187697670D01*
X173332016Y-187656746D01*
X173382135Y-187627808D01*
X173468947Y-187577689D01*
X173580751Y-187465885D01*
X173580751Y-187465883D01*
X173590959Y-187455676D01*
X173590961Y-187455673D01*
X175152144Y-185894490D01*
X175152147Y-185894489D01*
X175263951Y-185782685D01*
X175314070Y-185695873D01*
X175343008Y-185645754D01*
X175383931Y-185493027D01*
X175383931Y-185392770D01*
X175403616Y-185325731D01*
X175451637Y-185282285D01*
X175465041Y-185275456D01*
X175630650Y-185155135D01*
X175775397Y-185010388D01*
X175775399Y-185010384D01*
X175775402Y-185010382D01*
X175834833Y-184928581D01*
X175895718Y-184844779D01*
X175988651Y-184662388D01*
X176051908Y-184467703D01*
X176083931Y-184265521D01*
X176083931Y-184060817D01*
X176051908Y-183858635D01*
X175988651Y-183663950D01*
X175988649Y-183663947D01*
X175988649Y-183663945D01*
X175929542Y-183547943D01*
X175895718Y-183481559D01*
X175856533Y-183427625D01*
X175775402Y-183315955D01*
X175630644Y-183171197D01*
X175465044Y-183050884D01*
X175465043Y-183050883D01*
X175465041Y-183050882D01*
X175408084Y-183021860D01*
X175282654Y-182957950D01*
X175087965Y-182894691D01*
X174913426Y-182867047D01*
X174885783Y-182862669D01*
X174681079Y-182862669D01*
X174656760Y-182866520D01*
X174478896Y-182894691D01*
X174284207Y-182957950D01*
X174101817Y-183050884D01*
X173936217Y-183171197D01*
X173791463Y-183315951D01*
X173791459Y-183315956D01*
X173768248Y-183347904D01*
X173712918Y-183390570D01*
X173643305Y-183396549D01*
X173581510Y-183363943D01*
X173547153Y-183303105D01*
X173543930Y-183275019D01*
X173543930Y-183231651D01*
X173543929Y-183231644D01*
X173529077Y-183137865D01*
X173471481Y-183024827D01*
X173471477Y-183024823D01*
X173471476Y-183024821D01*
X173381778Y-182935123D01*
X173381774Y-182935120D01*
X173381773Y-182935119D01*
X173381771Y-182935118D01*
X173373881Y-182929386D01*
X173375401Y-182927292D01*
X173335136Y-182889252D01*
X173318352Y-182821428D01*
X173340899Y-182755297D01*
X173354550Y-182739083D01*
X174582647Y-181510988D01*
X174643970Y-181477503D01*
X174670328Y-181474669D01*
X176442562Y-181474669D01*
X176442578Y-181474670D01*
X176450174Y-181474670D01*
X176608285Y-181474670D01*
X176608288Y-181474670D01*
X176761016Y-181433746D01*
X176831051Y-181393311D01*
X176897947Y-181354689D01*
X177009751Y-181242885D01*
X177009751Y-181242883D01*
X177019955Y-181232680D01*
X177019959Y-181232675D01*
X178921937Y-179330697D01*
X178921942Y-179330693D01*
X178932145Y-179320489D01*
X178932147Y-179320489D01*
X179043951Y-179208685D01*
X179095837Y-179118815D01*
X179123008Y-179071754D01*
X179131359Y-179040584D01*
X179135796Y-179030969D01*
X179152087Y-179012313D01*
X179164977Y-178991165D01*
X179179038Y-178981451D01*
X179181754Y-178978342D01*
X179184827Y-178977452D01*
X179192090Y-178972435D01*
X179245041Y-178945456D01*
X179410650Y-178825135D01*
X179555397Y-178680388D01*
X179555399Y-178680384D01*
X179555402Y-178680382D01*
X179614833Y-178598581D01*
X179675718Y-178514779D01*
X179768651Y-178332388D01*
X179831908Y-178137703D01*
X179863931Y-177935521D01*
X179863931Y-177730817D01*
X179831908Y-177528635D01*
X179827256Y-177514320D01*
X179825263Y-177444481D01*
X179857506Y-177388327D01*
X180172144Y-177073690D01*
X180172147Y-177073689D01*
X180283951Y-176961885D01*
X180334070Y-176875073D01*
X180363008Y-176824954D01*
X180403932Y-176672226D01*
X180403932Y-176514112D01*
X180403932Y-176506517D01*
X180403931Y-176506499D01*
X180403931Y-172927668D01*
X180423616Y-172860629D01*
X180476420Y-172814874D01*
X180527931Y-172803668D01*
X180734948Y-172803668D01*
X180734949Y-172803668D01*
X180828735Y-172788815D01*
X180941773Y-172731219D01*
X181031481Y-172641511D01*
X181089077Y-172528473D01*
X181089077Y-172528471D01*
X181089078Y-172528470D01*
X181103930Y-172434694D01*
X181103931Y-172434688D01*
X181103930Y-172391318D01*
X181123613Y-172324282D01*
X181176416Y-172278526D01*
X181245574Y-172268581D01*
X181309131Y-172297604D01*
X181328248Y-172318434D01*
X181351459Y-172350381D01*
X181351463Y-172350386D01*
X181496217Y-172495140D01*
X181651180Y-172607725D01*
X181661821Y-172615456D01*
X181778038Y-172674672D01*
X181844207Y-172708387D01*
X181844209Y-172708387D01*
X181844212Y-172708389D01*
X181914476Y-172731219D01*
X182038896Y-172771646D01*
X182109250Y-172782789D01*
X182241079Y-172803669D01*
X182241080Y-172803669D01*
X182445782Y-172803669D01*
X182445783Y-172803669D01*
X182647965Y-172771646D01*
X182842650Y-172708389D01*
X183025041Y-172615456D01*
X183144768Y-172528470D01*
X183190644Y-172495140D01*
X183190646Y-172495137D01*
X183190650Y-172495135D01*
X183335397Y-172350388D01*
X183335399Y-172350384D01*
X183335402Y-172350382D01*
X183394833Y-172268581D01*
X183455718Y-172184779D01*
X183548651Y-172002388D01*
X183611908Y-171807703D01*
X183643931Y-171605521D01*
X183643931Y-171400817D01*
X183611908Y-171198635D01*
X183607256Y-171184320D01*
X183605263Y-171114481D01*
X183637506Y-171058327D01*
X186492144Y-168203690D01*
X186492147Y-168203689D01*
X186603951Y-168091885D01*
X186654070Y-168005073D01*
X186683008Y-167954954D01*
X186723931Y-167802227D01*
X186723931Y-167644112D01*
X186723931Y-166402770D01*
X186743616Y-166335731D01*
X186791637Y-166292285D01*
X186805041Y-166285456D01*
X186970650Y-166165135D01*
X187115397Y-166020388D01*
X187115399Y-166020384D01*
X187115402Y-166020382D01*
X187174833Y-165938581D01*
X187235718Y-165854779D01*
X187328651Y-165672388D01*
X187391908Y-165477703D01*
X187423931Y-165275521D01*
X187423931Y-165070817D01*
X187391908Y-164868635D01*
X187328651Y-164673950D01*
X187328649Y-164673947D01*
X187328649Y-164673945D01*
X187294934Y-164607776D01*
X187235718Y-164491559D01*
X187204557Y-164448669D01*
X187115402Y-164325955D01*
X186970644Y-164181197D01*
X186805044Y-164060884D01*
X186805043Y-164060883D01*
X186805041Y-164060882D01*
X186748084Y-164031860D01*
X186622654Y-163967950D01*
X186427965Y-163904691D01*
X186253426Y-163877047D01*
X186225783Y-163872669D01*
X186021079Y-163872669D01*
X185996760Y-163876520D01*
X185818896Y-163904691D01*
X185624207Y-163967950D01*
X185441817Y-164060884D01*
X185276217Y-164181197D01*
X185131463Y-164325951D01*
X185131459Y-164325956D01*
X185108248Y-164357904D01*
X185052918Y-164400570D01*
X184983305Y-164406549D01*
X184921510Y-164373943D01*
X184887153Y-164313105D01*
X184883930Y-164285019D01*
X184883930Y-164241651D01*
X184883929Y-164241644D01*
X184869077Y-164147865D01*
X184811481Y-164034827D01*
X184811477Y-164034823D01*
X184811476Y-164034821D01*
X184721778Y-163945123D01*
X184721775Y-163945121D01*
X184721773Y-163945119D01*
X184642429Y-163904691D01*
X184608732Y-163887521D01*
X184514955Y-163872669D01*
X184514950Y-163872669D01*
X184307931Y-163872669D01*
X184299245Y-163870118D01*
X184290284Y-163871407D01*
X184266243Y-163860428D01*
X184240892Y-163852984D01*
X184234964Y-163846143D01*
X184226728Y-163842382D01*
X184212438Y-163820147D01*
X184195137Y-163800180D01*
X184192849Y-163789665D01*
X184188954Y-163783604D01*
X184183931Y-163748669D01*
X184183931Y-163706066D01*
X184203616Y-163639027D01*
X184220250Y-163618385D01*
X185504647Y-162333988D01*
X185565970Y-162300503D01*
X185592328Y-162297669D01*
X188253562Y-162297669D01*
X188253578Y-162297670D01*
X188261174Y-162297670D01*
X188419285Y-162297670D01*
X188419288Y-162297670D01*
X188572016Y-162256746D01*
X188622135Y-162227808D01*
X188708947Y-162177689D01*
X188820751Y-162065885D01*
X188820751Y-162065883D01*
X188830959Y-162055676D01*
X188830960Y-162055673D01*
X190383951Y-160502685D01*
X190463008Y-160365753D01*
X190503932Y-160213026D01*
X190503932Y-160072769D01*
X190523617Y-160005730D01*
X190571639Y-159962284D01*
X190585041Y-159955456D01*
X190750650Y-159835135D01*
X190895397Y-159690388D01*
X190895399Y-159690384D01*
X190895402Y-159690382D01*
X190973460Y-159582942D01*
X191015718Y-159524779D01*
X191108651Y-159342388D01*
X191171908Y-159147703D01*
X191203931Y-158945521D01*
X191203931Y-158740817D01*
X191171908Y-158538635D01*
X191150418Y-158472497D01*
X191142558Y-158448306D01*
X191108651Y-158343950D01*
X191108649Y-158343947D01*
X191108649Y-158343945D01*
X191074934Y-158277776D01*
X191015718Y-158161559D01*
X190974919Y-158105403D01*
X190895402Y-157995955D01*
X190750644Y-157851197D01*
X190585044Y-157730884D01*
X190585043Y-157730883D01*
X190585041Y-157730882D01*
X190528084Y-157701860D01*
X190402654Y-157637950D01*
X190207965Y-157574691D01*
X190033426Y-157547047D01*
X190005783Y-157542669D01*
X189801079Y-157542669D01*
X189776760Y-157546520D01*
X189598896Y-157574691D01*
X189404207Y-157637950D01*
X189221817Y-157730884D01*
X189056217Y-157851197D01*
X188911463Y-157995951D01*
X188911459Y-157995956D01*
X188888248Y-158027904D01*
X188832918Y-158070570D01*
X188763305Y-158076549D01*
X188701510Y-158043943D01*
X188667153Y-157983105D01*
X188663930Y-157955019D01*
X188663930Y-157911651D01*
X188663929Y-157911644D01*
X188649077Y-157817865D01*
X188591481Y-157704827D01*
X188591477Y-157704823D01*
X188591476Y-157704821D01*
X188501778Y-157615123D01*
X188501775Y-157615121D01*
X188501773Y-157615119D01*
X188408648Y-157567669D01*
X188388732Y-157557521D01*
X188294955Y-157542669D01*
X186431913Y-157542669D01*
X186350950Y-157555492D01*
X186338127Y-157557523D01*
X186225089Y-157615119D01*
X186225088Y-157615120D01*
X186225083Y-157615123D01*
X186135385Y-157704821D01*
X186135382Y-157704826D01*
X186135381Y-157704827D01*
X186125584Y-157724055D01*
X186077783Y-157817867D01*
X186062931Y-157911644D01*
X186062931Y-159774686D01*
X186069179Y-159814133D01*
X186077785Y-159868473D01*
X186135381Y-159981511D01*
X186135383Y-159981513D01*
X186135385Y-159981516D01*
X186225083Y-160071214D01*
X186225085Y-160071215D01*
X186225089Y-160071219D01*
X186338125Y-160128814D01*
X186338129Y-160128816D01*
X186431906Y-160143668D01*
X186431912Y-160143669D01*
X188294949Y-160143668D01*
X188388735Y-160128815D01*
X188501773Y-160071219D01*
X188591481Y-159981511D01*
X188649077Y-159868473D01*
X188649077Y-159868471D01*
X188649078Y-159868470D01*
X188663930Y-159774694D01*
X188663931Y-159774688D01*
X188663930Y-159731318D01*
X188683613Y-159664282D01*
X188736416Y-159618526D01*
X188805574Y-159608581D01*
X188869131Y-159637604D01*
X188888248Y-159658434D01*
X188911459Y-159690381D01*
X188911463Y-159690386D01*
X188911465Y-159690388D01*
X189056212Y-159835135D01*
X189102098Y-159868473D01*
X189110668Y-159874699D01*
X189153334Y-159930029D01*
X189159313Y-159999642D01*
X189126708Y-160061438D01*
X189125464Y-160062699D01*
X188127815Y-161060350D01*
X188066492Y-161093835D01*
X188040134Y-161096669D01*
X185213174Y-161096669D01*
X185060444Y-161137592D01*
X185018711Y-161161688D01*
X185018710Y-161161688D01*
X184923518Y-161216646D01*
X184923513Y-161216650D01*
X183102912Y-163037251D01*
X183102910Y-163037254D01*
X183052792Y-163124063D01*
X183052790Y-163124065D01*
X183023856Y-163174178D01*
X183023855Y-163174179D01*
X183023854Y-163174184D01*
X182982930Y-163326912D01*
X182982930Y-163326914D01*
X182982930Y-163495015D01*
X182982931Y-163495028D01*
X182982931Y-163748669D01*
X182963246Y-163815708D01*
X182910442Y-163861463D01*
X182858932Y-163872669D01*
X182651913Y-163872669D01*
X182570950Y-163885492D01*
X182558127Y-163887523D01*
X182445089Y-163945119D01*
X182445088Y-163945120D01*
X182445083Y-163945123D01*
X182355385Y-164034821D01*
X182355382Y-164034826D01*
X182297783Y-164147867D01*
X182282931Y-164241644D01*
X182282931Y-164448669D01*
X182263246Y-164515708D01*
X182210442Y-164561463D01*
X182158931Y-164572669D01*
X166785266Y-164572669D01*
X166785250Y-164572668D01*
X166777654Y-164572668D01*
X166619540Y-164572668D01*
X166504994Y-164603361D01*
X166466811Y-164613592D01*
X166456238Y-164619696D01*
X166453407Y-164621332D01*
X166453405Y-164621333D01*
X166453402Y-164621334D01*
X166329887Y-164692644D01*
X166329879Y-164692650D01*
X166218075Y-164804455D01*
X162566249Y-168456280D01*
X162504926Y-168489765D01*
X162502763Y-168490216D01*
X162481903Y-168494365D01*
X162481900Y-168494366D01*
X162354426Y-168547167D01*
X162354413Y-168547174D01*
X162239689Y-168623831D01*
X162239685Y-168623834D01*
X162142119Y-168721400D01*
X162142116Y-168721404D01*
X162065459Y-168836128D01*
X162065452Y-168836141D01*
X162012652Y-168963613D01*
X162012649Y-168963623D01*
X161985731Y-169098950D01*
X161985731Y-169098953D01*
X161985731Y-169236939D01*
X161985731Y-169236941D01*
X161985730Y-169236941D01*
X162012649Y-169372268D01*
X162012652Y-169372278D01*
X162065452Y-169499750D01*
X162065459Y-169499763D01*
X162142116Y-169614487D01*
X162142119Y-169614491D01*
X162239685Y-169712057D01*
X162239689Y-169712060D01*
X162354413Y-169788717D01*
X162354426Y-169788724D01*
X162475814Y-169839004D01*
X162481903Y-169841526D01*
X162481907Y-169841526D01*
X162481908Y-169841527D01*
X162617235Y-169868446D01*
X162617238Y-169868446D01*
X162755226Y-169868446D01*
X162846272Y-169850335D01*
X162890559Y-169841526D01*
X163018042Y-169788721D01*
X163132773Y-169712060D01*
X163230345Y-169614488D01*
X163307006Y-169499757D01*
X163358211Y-169376137D01*
X163385088Y-169335911D01*
X166911013Y-165809988D01*
X166972336Y-165776503D01*
X166998694Y-165773669D01*
X182158932Y-165773669D01*
X182225971Y-165793354D01*
X182271726Y-165846158D01*
X182282932Y-165897669D01*
X182282932Y-166104687D01*
X182297785Y-166198473D01*
X182355381Y-166311511D01*
X182355383Y-166311513D01*
X182355385Y-166311516D01*
X182445083Y-166401214D01*
X182445085Y-166401215D01*
X182445089Y-166401219D01*
X182558125Y-166458814D01*
X182558129Y-166458816D01*
X182651906Y-166473668D01*
X182651912Y-166473669D01*
X184514949Y-166473668D01*
X184608735Y-166458815D01*
X184721773Y-166401219D01*
X184811481Y-166311511D01*
X184869077Y-166198473D01*
X184869077Y-166198471D01*
X184869078Y-166198470D01*
X184883930Y-166104694D01*
X184883931Y-166104688D01*
X184883930Y-166061318D01*
X184903613Y-165994282D01*
X184956416Y-165948526D01*
X185025574Y-165938581D01*
X185089131Y-165967604D01*
X185108248Y-165988434D01*
X185131459Y-166020381D01*
X185131463Y-166020386D01*
X185131465Y-166020388D01*
X185276212Y-166165135D01*
X185441821Y-166285456D01*
X185455224Y-166292285D01*
X185506020Y-166340257D01*
X185522931Y-166402770D01*
X185522931Y-167423071D01*
X185503246Y-167490110D01*
X185486612Y-167510752D01*
X182788273Y-170209090D01*
X182726950Y-170242575D01*
X182662279Y-170239342D01*
X182647965Y-170234691D01*
X182473426Y-170207047D01*
X182445783Y-170202669D01*
X182241079Y-170202669D01*
X182216760Y-170206520D01*
X182038896Y-170234691D01*
X181844207Y-170297950D01*
X181661817Y-170390884D01*
X181496217Y-170511197D01*
X181351463Y-170655951D01*
X181351459Y-170655956D01*
X181328248Y-170687904D01*
X181272918Y-170730570D01*
X181203305Y-170736549D01*
X181141510Y-170703943D01*
X181107153Y-170643105D01*
X181103930Y-170615019D01*
X181103930Y-170571651D01*
X181089077Y-170477865D01*
X181031481Y-170364827D01*
X181031477Y-170364823D01*
X181031476Y-170364821D01*
X180941778Y-170275123D01*
X180941775Y-170275121D01*
X180941773Y-170275119D01*
X180862429Y-170234691D01*
X180828732Y-170217521D01*
X180734955Y-170202669D01*
X180734950Y-170202669D01*
X179403528Y-170202669D01*
X179336489Y-170182984D01*
X179315847Y-170166350D01*
X179047998Y-169898501D01*
X179047996Y-169898498D01*
X178929125Y-169779627D01*
X178929124Y-169779626D01*
X178838878Y-169727523D01*
X178792193Y-169700569D01*
X178639465Y-169659645D01*
X178481351Y-169659645D01*
X178473755Y-169659645D01*
X178473739Y-169659646D01*
X169626523Y-169659646D01*
X169579070Y-169650207D01*
X169486748Y-169611966D01*
X169486742Y-169611964D01*
X169351415Y-169585046D01*
X169351413Y-169585046D01*
X169213427Y-169585046D01*
X169213425Y-169585046D01*
X169078097Y-169611964D01*
X169078087Y-169611967D01*
X168950615Y-169664767D01*
X168950602Y-169664774D01*
X168835878Y-169741431D01*
X168835874Y-169741434D01*
X168738308Y-169839000D01*
X168738305Y-169839004D01*
X168661648Y-169953728D01*
X168661641Y-169953741D01*
X168608841Y-170081213D01*
X168608838Y-170081223D01*
X168581920Y-170216550D01*
X168581920Y-170216553D01*
X168581920Y-170354539D01*
X168581920Y-170354541D01*
X168581919Y-170354541D01*
X168608838Y-170489868D01*
X168608841Y-170489878D01*
X168661641Y-170617350D01*
X168661648Y-170617363D01*
X168738305Y-170732087D01*
X168738308Y-170732091D01*
X168835874Y-170829657D01*
X168835878Y-170829660D01*
X168950602Y-170906317D01*
X168950615Y-170906324D01*
X169078087Y-170959124D01*
X169078092Y-170959126D01*
X169078096Y-170959126D01*
X169078097Y-170959127D01*
X169213424Y-170986046D01*
X169213427Y-170986046D01*
X169351415Y-170986046D01*
X169442461Y-170967935D01*
X169486748Y-170959126D01*
X169614231Y-170906321D01*
X169651312Y-170881543D01*
X169717990Y-170860666D01*
X169720203Y-170860646D01*
X178260311Y-170860646D01*
X178289751Y-170869290D01*
X178319738Y-170875814D01*
X178324753Y-170879568D01*
X178327350Y-170880331D01*
X178347992Y-170896965D01*
X178466612Y-171015585D01*
X178500097Y-171076908D01*
X178502931Y-171103266D01*
X178502931Y-172434686D01*
X178512505Y-172495135D01*
X178517785Y-172528473D01*
X178575381Y-172641511D01*
X178575383Y-172641513D01*
X178575385Y-172641516D01*
X178665083Y-172731214D01*
X178665085Y-172731215D01*
X178665089Y-172731219D01*
X178778125Y-172788814D01*
X178778129Y-172788816D01*
X178871906Y-172803668D01*
X178871912Y-172803669D01*
X179078931Y-172803668D01*
X179145970Y-172823352D01*
X179191725Y-172876156D01*
X179202931Y-172927668D01*
X179202931Y-176293071D01*
X179194286Y-176322511D01*
X179187763Y-176352498D01*
X179184008Y-176357513D01*
X179183246Y-176360110D01*
X179166612Y-176380752D01*
X179008273Y-176539091D01*
X178946950Y-176572576D01*
X178882274Y-176569341D01*
X178867965Y-176564692D01*
X178867959Y-176564691D01*
X178665783Y-176532669D01*
X178461079Y-176532669D01*
X178436760Y-176536520D01*
X178258896Y-176564691D01*
X178064207Y-176627950D01*
X177881817Y-176720884D01*
X177716217Y-176841197D01*
X177571463Y-176985951D01*
X177571459Y-176985956D01*
X177548248Y-177017904D01*
X177492918Y-177060570D01*
X177423305Y-177066549D01*
X177361510Y-177033943D01*
X177327153Y-176973105D01*
X177323930Y-176945019D01*
X177323930Y-176901651D01*
X177323929Y-176901644D01*
X177309077Y-176807865D01*
X177251481Y-176694827D01*
X177251477Y-176694823D01*
X177251476Y-176694821D01*
X177161778Y-176605123D01*
X177161775Y-176605121D01*
X177161773Y-176605119D01*
X177082429Y-176564691D01*
X177048732Y-176547521D01*
X176954955Y-176532669D01*
X175091913Y-176532669D01*
X175010950Y-176545492D01*
X174998127Y-176547523D01*
X174885089Y-176605119D01*
X174885088Y-176605120D01*
X174885083Y-176605123D01*
X174795385Y-176694821D01*
X174795382Y-176694826D01*
X174737783Y-176807867D01*
X174722931Y-176901644D01*
X174722931Y-177108669D01*
X174703246Y-177175708D01*
X174650442Y-177221463D01*
X174598931Y-177232669D01*
X170571190Y-177232669D01*
X170509050Y-177214422D01*
X170508601Y-177215264D01*
X170504560Y-177213104D01*
X170504151Y-177212984D01*
X170503332Y-177212447D01*
X170503229Y-177212392D01*
X170375752Y-177159590D01*
X170375742Y-177159587D01*
X170240415Y-177132669D01*
X170240413Y-177132669D01*
X170102427Y-177132669D01*
X170102425Y-177132669D01*
X169967097Y-177159587D01*
X169967087Y-177159590D01*
X169839610Y-177212392D01*
X169834239Y-177215264D01*
X169833543Y-177213963D01*
X169773858Y-177232649D01*
X169771650Y-177232669D01*
X160467712Y-177232669D01*
X160400673Y-177212984D01*
X160398821Y-177211771D01*
X160394036Y-177208574D01*
X160394024Y-177208567D01*
X160266552Y-177155767D01*
X160266542Y-177155764D01*
X160131215Y-177128846D01*
X160131213Y-177128846D01*
X159993227Y-177128846D01*
X159993225Y-177128846D01*
X159857897Y-177155764D01*
X159857887Y-177155767D01*
X159730415Y-177208567D01*
X159730402Y-177208574D01*
X159615678Y-177285231D01*
X159615674Y-177285234D01*
X159518108Y-177382800D01*
X159518105Y-177382804D01*
X159441448Y-177497528D01*
X159441441Y-177497541D01*
X159388641Y-177625013D01*
X159388638Y-177625023D01*
X159361720Y-177760350D01*
X159361720Y-177760353D01*
X159361720Y-177898339D01*
X159361720Y-177898341D01*
X159361719Y-177898341D01*
X159388638Y-178033668D01*
X159388641Y-178033678D01*
X159441441Y-178161150D01*
X159441448Y-178161163D01*
X159518105Y-178275887D01*
X159518108Y-178275891D01*
X159615674Y-178373457D01*
X159615678Y-178373460D01*
X159730402Y-178450117D01*
X159730415Y-178450124D01*
X159857887Y-178502924D01*
X159857892Y-178502926D01*
X159857896Y-178502926D01*
X159857897Y-178502927D01*
X159993224Y-178529846D01*
X159993227Y-178529846D01*
X160131215Y-178529846D01*
X160222261Y-178511735D01*
X160266548Y-178502926D01*
X160384799Y-178453945D01*
X160394029Y-178450122D01*
X160397410Y-178448315D01*
X160455870Y-178433669D01*
X169771650Y-178433669D01*
X169833789Y-178451915D01*
X169834239Y-178451074D01*
X169838279Y-178453233D01*
X169838689Y-178453354D01*
X169839507Y-178453890D01*
X169839610Y-178453945D01*
X169957862Y-178502926D01*
X169967092Y-178506749D01*
X169967096Y-178506749D01*
X169967097Y-178506750D01*
X170102424Y-178533669D01*
X170102427Y-178533669D01*
X170240415Y-178533669D01*
X170335379Y-178514779D01*
X170375748Y-178506749D01*
X170503231Y-178453944D01*
X170503231Y-178453943D01*
X170508601Y-178451074D01*
X170509296Y-178452374D01*
X170568982Y-178433689D01*
X170571190Y-178433669D01*
X174598932Y-178433669D01*
X174665971Y-178453354D01*
X174711726Y-178506158D01*
X174722932Y-178557669D01*
X174722932Y-178764687D01*
X174737785Y-178858473D01*
X174795381Y-178971511D01*
X174795383Y-178971513D01*
X174795385Y-178971516D01*
X174885083Y-179061214D01*
X174885085Y-179061215D01*
X174885089Y-179061219D01*
X174998125Y-179118814D01*
X174998129Y-179118816D01*
X175091906Y-179133668D01*
X175091912Y-179133669D01*
X176954949Y-179133668D01*
X177048735Y-179118815D01*
X177139410Y-179072613D01*
X177208076Y-179059717D01*
X177272817Y-179085993D01*
X177313075Y-179143099D01*
X177316067Y-179212904D01*
X177283384Y-179270779D01*
X176316815Y-180237350D01*
X176255492Y-180270835D01*
X176229134Y-180273669D01*
X174449288Y-180273669D01*
X174291173Y-180273669D01*
X174279321Y-180276845D01*
X174279317Y-180276846D01*
X174138445Y-180314592D01*
X174138440Y-180314595D01*
X174001521Y-180393644D01*
X174001513Y-180393650D01*
X171762912Y-182632251D01*
X171762908Y-182632256D01*
X171743550Y-182665786D01*
X171743533Y-182665816D01*
X171742594Y-182667444D01*
X171683854Y-182769184D01*
X171679706Y-182784661D01*
X171672898Y-182797339D01*
X171658062Y-182812381D01*
X171647064Y-182830425D01*
X171634017Y-182836762D01*
X171623836Y-182847086D01*
X171603224Y-182851719D01*
X171584216Y-182860953D01*
X171563656Y-182862669D01*
X171311913Y-182862669D01*
X171230950Y-182875492D01*
X171218127Y-182877523D01*
X171105089Y-182935119D01*
X171105088Y-182935120D01*
X171105083Y-182935123D01*
X171015385Y-183024821D01*
X171015382Y-183024826D01*
X170957783Y-183137867D01*
X170942931Y-183231644D01*
X170942931Y-185094686D01*
X170952505Y-185155134D01*
X170957785Y-185188473D01*
X171015381Y-185301511D01*
X171015383Y-185301513D01*
X171015385Y-185301516D01*
X171105083Y-185391214D01*
X171105085Y-185391215D01*
X171105089Y-185391219D01*
X171218125Y-185448814D01*
X171218129Y-185448816D01*
X171311906Y-185463668D01*
X171311912Y-185463669D01*
X173174949Y-185463668D01*
X173268735Y-185448815D01*
X173381773Y-185391219D01*
X173471481Y-185301511D01*
X173529077Y-185188473D01*
X173529077Y-185188471D01*
X173529078Y-185188470D01*
X173543930Y-185094694D01*
X173543931Y-185094688D01*
X173543930Y-185051318D01*
X173563613Y-184984282D01*
X173616416Y-184938526D01*
X173685574Y-184928581D01*
X173749131Y-184957604D01*
X173768248Y-184978434D01*
X173791459Y-185010381D01*
X173791463Y-185010386D01*
X173936213Y-185155136D01*
X173936218Y-185155140D01*
X173967500Y-185177868D01*
X174010166Y-185233198D01*
X174016145Y-185302811D01*
X173983539Y-185364606D01*
X173982296Y-185365867D01*
X172887815Y-186460350D01*
X172826492Y-186493835D01*
X172800134Y-186496669D01*
X170646900Y-186496669D01*
X170646884Y-186496668D01*
X170639288Y-186496668D01*
X170481174Y-186496668D01*
X170373818Y-186525434D01*
X170328441Y-186537593D01*
X170328440Y-186537594D01*
X170278327Y-186566528D01*
X170278326Y-186566529D01*
X170234920Y-186591589D01*
X170191516Y-186616648D01*
X170191513Y-186616650D01*
X167982912Y-188825251D01*
X167982908Y-188825256D01*
X167939935Y-188899689D01*
X167889368Y-188947905D01*
X167820761Y-188961128D01*
X167755896Y-188935160D01*
X167744867Y-188925370D01*
X159335198Y-180515701D01*
X159335196Y-180515698D01*
X159216325Y-180396827D01*
X159216324Y-180396826D01*
X159129512Y-180346706D01*
X159129512Y-180346705D01*
X159129508Y-180346704D01*
X159079393Y-180317769D01*
X158926665Y-180276845D01*
X158768551Y-180276845D01*
X158760955Y-180276845D01*
X158760939Y-180276846D01*
X157347802Y-180276846D01*
X157300350Y-180267407D01*
X157269352Y-180254567D01*
X157269342Y-180254564D01*
X157134015Y-180227646D01*
X157134013Y-180227646D01*
X156996027Y-180227646D01*
X156996025Y-180227646D01*
X156860697Y-180254564D01*
X156860687Y-180254567D01*
X156733215Y-180307367D01*
X156733202Y-180307374D01*
X156618478Y-180384031D01*
X156618474Y-180384034D01*
X156520908Y-180481600D01*
X156520905Y-180481604D01*
X156444248Y-180596328D01*
X156444241Y-180596341D01*
X156391441Y-180723813D01*
X156391438Y-180723823D01*
X156364520Y-180859150D01*
X156364520Y-180859153D01*
X156364520Y-180997139D01*
X156364520Y-180997141D01*
X156364519Y-180997141D01*
X155615042Y-180997141D01*
X155711666Y-180900517D01*
X155767480Y-180823698D01*
X155799932Y-180723823D01*
X155806683Y-180703044D01*
X155806684Y-180703039D01*
X155806684Y-180576176D01*
X155806683Y-180576173D01*
X155767480Y-180455518D01*
X155724838Y-180396826D01*
X155711671Y-180378702D01*
X155711669Y-180378700D01*
X154394304Y-179061336D01*
X154394301Y-179061333D01*
X154317483Y-179005520D01*
X154196826Y-178966316D01*
X154196825Y-178966316D01*
X154069959Y-178966316D01*
X154069957Y-178966316D01*
X153949302Y-179005520D01*
X153949300Y-179005521D01*
X153872486Y-179061328D01*
X153872484Y-179061330D01*
X152576412Y-180357403D01*
X152556975Y-180368015D01*
X152540242Y-180382516D01*
X152526910Y-180384432D01*
X152515089Y-180390888D01*
X152493002Y-180389308D01*
X152471084Y-180392460D01*
X152458832Y-180386864D01*
X152445397Y-180385904D01*
X152427670Y-180372633D01*
X152407528Y-180363435D01*
X152400245Y-180352103D01*
X152389464Y-180344032D01*
X152381726Y-180323286D01*
X152369754Y-180304657D01*
X152366602Y-180282738D01*
X152365047Y-180278568D01*
X152364731Y-180269722D01*
X152364731Y-180031265D01*
X152384416Y-179964226D01*
X152401045Y-179943589D01*
X155702105Y-176642529D01*
X155702108Y-176642528D01*
X155813912Y-176530724D01*
X155864031Y-176443912D01*
X155892969Y-176393793D01*
X155933893Y-176241065D01*
X155933893Y-176082951D01*
X155933893Y-176075356D01*
X155933892Y-176075338D01*
X155933892Y-174709654D01*
X155953577Y-174642615D01*
X155970211Y-174621973D01*
X156535757Y-174056427D01*
X156597080Y-174022942D01*
X156623438Y-174020108D01*
X176528050Y-174020108D01*
X176590189Y-174038354D01*
X176590639Y-174037513D01*
X176594679Y-174039672D01*
X176595089Y-174039793D01*
X176595907Y-174040329D01*
X176596010Y-174040384D01*
X176723487Y-174093186D01*
X176723492Y-174093188D01*
X176723496Y-174093188D01*
X176723497Y-174093189D01*
X176858824Y-174120108D01*
X176858827Y-174120108D01*
X176996815Y-174120108D01*
X177087861Y-174101997D01*
X177132148Y-174093188D01*
X177259631Y-174040383D01*
X177374362Y-173963722D01*
X177471934Y-173866150D01*
X177548595Y-173751419D01*
X177601400Y-173623936D01*
X177628320Y-173488601D01*
X177628320Y-173350615D01*
X177628320Y-173350612D01*
X177601401Y-173215285D01*
X177601400Y-173215284D01*
X177601400Y-173215280D01*
X177601398Y-173215275D01*
X177548598Y-173087803D01*
X177548591Y-173087790D01*
X177471934Y-172973066D01*
X177471931Y-172973062D01*
X177374365Y-172875496D01*
X177374361Y-172875493D01*
X177259637Y-172798836D01*
X177259624Y-172798829D01*
X177132152Y-172746029D01*
X177132142Y-172746026D01*
X176996815Y-172719108D01*
X176996813Y-172719108D01*
X176858827Y-172719108D01*
X176858825Y-172719108D01*
X176723497Y-172746026D01*
X176723487Y-172746029D01*
X176596010Y-172798831D01*
X176590639Y-172801703D01*
X176589943Y-172800402D01*
X176530258Y-172819088D01*
X176528050Y-172819108D01*
X156623438Y-172819108D01*
X156556399Y-172799423D01*
X156535757Y-172782789D01*
X155594301Y-171841333D01*
X155517483Y-171785520D01*
X155396826Y-171746316D01*
X155396825Y-171746316D01*
X155269959Y-171746316D01*
X155269957Y-171746316D01*
X155149302Y-171785520D01*
X155149300Y-171785521D01*
X155072486Y-171841328D01*
X155072484Y-171841330D01*
X153755120Y-173158695D01*
X153755117Y-173158698D01*
X153699304Y-173235516D01*
X153660100Y-173356173D01*
X153660100Y-173483042D01*
X153661907Y-173488603D01*
X153699304Y-173603698D01*
X153699305Y-173603699D01*
X153755110Y-173680510D01*
X153755113Y-173680513D01*
X153755116Y-173680517D01*
X153785784Y-173711185D01*
X153819268Y-173772504D01*
X153814284Y-173842196D01*
X153772414Y-173898130D01*
X153706950Y-173922548D01*
X153678707Y-173921338D01*
X153665878Y-173919306D01*
X153639693Y-173915159D01*
X153434989Y-173915159D01*
X153410670Y-173919010D01*
X153232806Y-173947181D01*
X153038117Y-174010440D01*
X152855727Y-174103374D01*
X152690127Y-174223687D01*
X152545369Y-174368445D01*
X152425056Y-174534045D01*
X152332122Y-174716435D01*
X152268863Y-174911124D01*
X152236841Y-175113307D01*
X152236841Y-175318010D01*
X152268863Y-175520193D01*
X152332122Y-175714882D01*
X152425056Y-175897272D01*
X152545369Y-176062872D01*
X152690127Y-176207630D01*
X152807729Y-176293071D01*
X152855731Y-176327946D01*
X152971948Y-176387162D01*
X153038117Y-176420877D01*
X153038119Y-176420877D01*
X153038122Y-176420879D01*
X153109044Y-176443923D01*
X153232806Y-176484136D01*
X153333898Y-176500147D01*
X153434989Y-176516159D01*
X153434990Y-176516159D01*
X153639692Y-176516159D01*
X153639693Y-176516159D01*
X153841875Y-176484136D01*
X153841877Y-176484135D01*
X153845345Y-176483586D01*
X153914638Y-176492540D01*
X153968090Y-176537536D01*
X153988730Y-176604288D01*
X153970005Y-176671602D01*
X153952424Y-176693740D01*
X151283712Y-179362451D01*
X151283708Y-179362456D01*
X151262297Y-179399544D01*
X151262296Y-179399546D01*
X151204654Y-179499384D01*
X151163730Y-179652112D01*
X151163730Y-179652114D01*
X151163730Y-179820215D01*
X151163731Y-179820228D01*
X151163731Y-181783488D01*
X151163730Y-181783492D01*
X151163730Y-181844631D01*
X151163730Y-181844633D01*
X151150216Y-181900926D01*
X151132119Y-181936443D01*
X151068864Y-182131120D01*
X151068864Y-182131123D01*
X151036841Y-182333307D01*
X148472261Y-182333307D01*
X148476381Y-182308287D01*
X150340829Y-170986046D01*
X150850114Y-167893307D01*
X153436841Y-167893307D01*
X153436841Y-168098010D01*
X153468863Y-168300193D01*
X153532122Y-168494882D01*
X153625056Y-168677272D01*
X153745369Y-168842872D01*
X153890127Y-168987630D01*
X154043349Y-169098950D01*
X154055731Y-169107946D01*
X154171948Y-169167162D01*
X154238117Y-169200877D01*
X154238119Y-169200877D01*
X154238122Y-169200879D01*
X154342478Y-169234786D01*
X154432806Y-169264136D01*
X154533898Y-169280147D01*
X154634989Y-169296159D01*
X154634990Y-169296159D01*
X154839692Y-169296159D01*
X154839693Y-169296159D01*
X155041875Y-169264136D01*
X155056183Y-169259486D01*
X155126023Y-169257490D01*
X155182183Y-169289736D01*
X157351990Y-171459543D01*
X157352000Y-171459554D01*
X157356330Y-171463884D01*
X157356331Y-171463885D01*
X157468135Y-171575689D01*
X157524365Y-171608153D01*
X157605066Y-171654746D01*
X157757794Y-171695669D01*
X166223461Y-171695669D01*
X166285600Y-171713915D01*
X166286050Y-171713074D01*
X166290090Y-171715233D01*
X166290500Y-171715354D01*
X166291318Y-171715890D01*
X166291421Y-171715945D01*
X166418898Y-171768747D01*
X166418903Y-171768749D01*
X166418907Y-171768749D01*
X166418908Y-171768750D01*
X166554235Y-171795669D01*
X166554238Y-171795669D01*
X166692226Y-171795669D01*
X166783272Y-171777558D01*
X166827559Y-171768749D01*
X166955042Y-171715944D01*
X167069773Y-171639283D01*
X167167345Y-171541711D01*
X167244006Y-171426980D01*
X167296811Y-171299497D01*
X167323731Y-171164162D01*
X167323731Y-171026176D01*
X167323731Y-171026173D01*
X167296812Y-170890846D01*
X167296811Y-170890845D01*
X167296811Y-170890841D01*
X167268114Y-170821559D01*
X167244009Y-170763364D01*
X167244002Y-170763351D01*
X167167345Y-170648627D01*
X167167342Y-170648623D01*
X167069776Y-170551057D01*
X167069772Y-170551054D01*
X166955048Y-170474397D01*
X166955035Y-170474390D01*
X166827563Y-170421590D01*
X166827553Y-170421587D01*
X166692226Y-170394669D01*
X166692224Y-170394669D01*
X166554238Y-170394669D01*
X166554236Y-170394669D01*
X166418908Y-170421587D01*
X166418898Y-170421590D01*
X166291421Y-170474392D01*
X166286050Y-170477264D01*
X166285354Y-170475963D01*
X166225669Y-170494649D01*
X166223461Y-170494669D01*
X158136948Y-170494669D01*
X158069909Y-170474984D01*
X158049267Y-170458350D01*
X156031418Y-168440501D01*
X155997933Y-168379178D01*
X156001169Y-168314500D01*
X156005818Y-168300193D01*
X156037841Y-168098011D01*
X156037841Y-167893307D01*
X156031661Y-167854291D01*
X156040615Y-167785002D01*
X156085610Y-167731550D01*
X156152361Y-167710909D01*
X156219675Y-167729633D01*
X156241815Y-167747215D01*
X156272482Y-167777882D01*
X156349300Y-167833695D01*
X156349301Y-167833695D01*
X156349302Y-167833696D01*
X156469959Y-167872900D01*
X156469960Y-167872900D01*
X156596824Y-167872900D01*
X156596825Y-167872900D01*
X156717482Y-167833696D01*
X156794301Y-167777884D01*
X158111666Y-166460517D01*
X158167480Y-166383698D01*
X158206684Y-166263041D01*
X158206684Y-166136175D01*
X158167480Y-166015518D01*
X158118808Y-165948526D01*
X158111671Y-165938702D01*
X158111669Y-165938700D01*
X156794302Y-164621334D01*
X156794301Y-164621333D01*
X156717483Y-164565520D01*
X156596826Y-164526316D01*
X156596825Y-164526316D01*
X156469959Y-164526316D01*
X156469957Y-164526316D01*
X156349302Y-164565520D01*
X156349300Y-164565521D01*
X156272486Y-164621328D01*
X156272484Y-164621330D01*
X155472781Y-165421034D01*
X155453344Y-165431646D01*
X155436611Y-165446147D01*
X155423279Y-165448063D01*
X155411458Y-165454519D01*
X155389371Y-165452939D01*
X155367453Y-165456091D01*
X155355201Y-165450495D01*
X155341766Y-165449535D01*
X155324039Y-165436264D01*
X155303897Y-165427066D01*
X155296614Y-165415734D01*
X155285833Y-165407663D01*
X155278095Y-165386917D01*
X155266123Y-165368288D01*
X155262971Y-165346369D01*
X155261416Y-165342199D01*
X155261100Y-165333353D01*
X155261100Y-165196896D01*
X155280785Y-165129857D01*
X155297414Y-165109220D01*
X158102105Y-162304529D01*
X158102108Y-162304528D01*
X158213912Y-162192724D01*
X158264031Y-162105912D01*
X158292969Y-162055793D01*
X158333892Y-161903065D01*
X158333892Y-161744951D01*
X158333892Y-161108941D01*
X174068319Y-161108941D01*
X174095238Y-161244268D01*
X174095241Y-161244278D01*
X174148041Y-161371750D01*
X174148048Y-161371763D01*
X174224705Y-161486487D01*
X174224708Y-161486491D01*
X174322274Y-161584057D01*
X174322278Y-161584060D01*
X174437002Y-161660717D01*
X174437015Y-161660724D01*
X174564487Y-161713524D01*
X174564492Y-161713526D01*
X174564496Y-161713526D01*
X174564497Y-161713527D01*
X174699824Y-161740446D01*
X174699827Y-161740446D01*
X174837815Y-161740446D01*
X174928861Y-161722335D01*
X174973148Y-161713526D01*
X175100631Y-161660721D01*
X175215362Y-161584060D01*
X175312934Y-161486488D01*
X175325854Y-161467150D01*
X175341275Y-161448360D01*
X175380974Y-161408662D01*
X175380975Y-161408659D01*
X175395922Y-161393711D01*
X175471649Y-161317987D01*
X175532972Y-161284502D01*
X175559329Y-161281669D01*
X183681562Y-161281669D01*
X183681578Y-161281670D01*
X183689174Y-161281670D01*
X183847285Y-161281670D01*
X183847288Y-161281670D01*
X184000016Y-161240746D01*
X184050135Y-161211808D01*
X184136947Y-161161689D01*
X184248751Y-161049885D01*
X184248751Y-161049883D01*
X184258959Y-161039676D01*
X184258961Y-161039673D01*
X184608669Y-160689964D01*
X184665513Y-160658925D01*
X184665237Y-160658015D01*
X184669608Y-160656689D01*
X184669990Y-160656481D01*
X184670965Y-160656277D01*
X184671056Y-160656249D01*
X184671059Y-160656249D01*
X184798542Y-160603444D01*
X184913273Y-160526783D01*
X185010845Y-160429211D01*
X185087506Y-160314480D01*
X185140311Y-160186997D01*
X185158800Y-160094049D01*
X185167231Y-160051664D01*
X185167231Y-159913673D01*
X185140312Y-159778346D01*
X185140311Y-159778345D01*
X185140311Y-159778341D01*
X185138798Y-159774688D01*
X185087509Y-159650864D01*
X185087502Y-159650851D01*
X185010845Y-159536127D01*
X185010842Y-159536123D01*
X184913276Y-159438557D01*
X184913272Y-159438554D01*
X184798548Y-159361897D01*
X184798535Y-159361890D01*
X184671063Y-159309090D01*
X184671053Y-159309087D01*
X184535726Y-159282169D01*
X184535724Y-159282169D01*
X184397738Y-159282169D01*
X184397736Y-159282169D01*
X184262408Y-159309087D01*
X184262398Y-159309090D01*
X184134926Y-159361890D01*
X184134913Y-159361897D01*
X184020189Y-159438554D01*
X184020185Y-159438557D01*
X183922619Y-159536123D01*
X183922616Y-159536127D01*
X183845959Y-159650851D01*
X183845952Y-159650864D01*
X183793151Y-159778338D01*
X183791381Y-159784175D01*
X183789967Y-159783746D01*
X183760983Y-159839154D01*
X183759433Y-159840731D01*
X183555815Y-160044350D01*
X183494492Y-160077835D01*
X183468134Y-160080669D01*
X175180173Y-160080669D01*
X175027446Y-160121592D01*
X175014938Y-160128814D01*
X175014935Y-160128815D01*
X174890521Y-160200644D01*
X174890513Y-160200650D01*
X174788037Y-160303127D01*
X174726714Y-160336612D01*
X174700356Y-160339446D01*
X174699825Y-160339446D01*
X174564497Y-160366364D01*
X174564487Y-160366367D01*
X174437015Y-160419167D01*
X174437002Y-160419174D01*
X174322278Y-160495831D01*
X174322274Y-160495834D01*
X174224708Y-160593400D01*
X174224705Y-160593404D01*
X174148048Y-160708128D01*
X174148041Y-160708141D01*
X174095241Y-160835613D01*
X174095238Y-160835623D01*
X174068320Y-160970950D01*
X174068320Y-160970953D01*
X174068320Y-161108939D01*
X174068320Y-161108941D01*
X174068319Y-161108941D01*
X158333892Y-161108941D01*
X158333892Y-160269654D01*
X158353577Y-160202615D01*
X158370211Y-160181973D01*
X158935757Y-159616427D01*
X158997080Y-159582942D01*
X159023438Y-159580108D01*
X167036512Y-159580108D01*
X167036528Y-159580109D01*
X167044124Y-159580109D01*
X167202235Y-159580109D01*
X167202238Y-159580109D01*
X167354966Y-159539185D01*
X167419112Y-159502150D01*
X167491897Y-159460128D01*
X167603701Y-159348324D01*
X167603701Y-159348322D01*
X167613905Y-159338119D01*
X167613908Y-159338114D01*
X168614859Y-158337164D01*
X178183119Y-158337164D01*
X178210038Y-158472491D01*
X178210041Y-158472501D01*
X178262841Y-158599973D01*
X178262848Y-158599986D01*
X178339505Y-158714710D01*
X178339508Y-158714714D01*
X178437074Y-158812280D01*
X178437078Y-158812283D01*
X178551802Y-158888940D01*
X178551815Y-158888947D01*
X178679287Y-158941747D01*
X178679292Y-158941749D01*
X178679296Y-158941749D01*
X178679297Y-158941750D01*
X178814624Y-158968669D01*
X178814627Y-158968669D01*
X178952615Y-158968669D01*
X179043661Y-158950558D01*
X179087948Y-158941749D01*
X179215431Y-158888944D01*
X179215431Y-158888943D01*
X179220801Y-158886074D01*
X179221496Y-158887374D01*
X179281182Y-158868689D01*
X179283390Y-158868669D01*
X183808562Y-158868669D01*
X183808578Y-158868670D01*
X183816174Y-158868670D01*
X183974285Y-158868670D01*
X183974288Y-158868670D01*
X184127016Y-158827746D01*
X184207717Y-158781153D01*
X184263947Y-158748689D01*
X184375751Y-158636885D01*
X184375751Y-158636883D01*
X184385955Y-158626680D01*
X184385958Y-158626675D01*
X186166647Y-156845988D01*
X186227970Y-156812503D01*
X186244212Y-156810756D01*
X186244164Y-156810266D01*
X186250226Y-156809669D01*
X186341272Y-156791558D01*
X186385559Y-156782749D01*
X186513042Y-156729944D01*
X186627773Y-156653283D01*
X186725345Y-156555711D01*
X186802006Y-156440980D01*
X186854811Y-156313497D01*
X186873164Y-156221233D01*
X186881731Y-156178164D01*
X186881731Y-156040173D01*
X186854812Y-155904846D01*
X186854811Y-155904845D01*
X186854811Y-155904841D01*
X186834799Y-155856527D01*
X186802009Y-155777364D01*
X186802002Y-155777351D01*
X186725345Y-155662627D01*
X186725342Y-155662623D01*
X186627776Y-155565057D01*
X186627772Y-155565054D01*
X186513048Y-155488397D01*
X186513035Y-155488390D01*
X186385563Y-155435590D01*
X186385553Y-155435587D01*
X186250226Y-155408669D01*
X186250224Y-155408669D01*
X186112238Y-155408669D01*
X186112236Y-155408669D01*
X185976908Y-155435587D01*
X185976898Y-155435590D01*
X185849426Y-155488390D01*
X185849413Y-155488397D01*
X185734690Y-155565053D01*
X185637114Y-155662630D01*
X185614863Y-155695930D01*
X185599454Y-155714705D01*
X185599448Y-155714714D01*
X185573713Y-155740451D01*
X185573712Y-155740450D01*
X185573709Y-155740455D01*
X183682815Y-157631350D01*
X183621492Y-157664835D01*
X183595134Y-157667669D01*
X179283390Y-157667669D01*
X179221250Y-157649422D01*
X179220801Y-157650264D01*
X179216760Y-157648104D01*
X179216351Y-157647984D01*
X179215532Y-157647447D01*
X179215429Y-157647392D01*
X179087952Y-157594590D01*
X179087942Y-157594587D01*
X178952615Y-157567669D01*
X178952613Y-157567669D01*
X178814627Y-157567669D01*
X178814625Y-157567669D01*
X178679297Y-157594587D01*
X178679287Y-157594590D01*
X178551815Y-157647390D01*
X178551802Y-157647397D01*
X178437078Y-157724054D01*
X178437074Y-157724057D01*
X178339508Y-157821623D01*
X178339505Y-157821627D01*
X178262848Y-157936351D01*
X178262841Y-157936364D01*
X178210041Y-158063836D01*
X178210038Y-158063846D01*
X178183120Y-158199173D01*
X178183120Y-158199176D01*
X178183120Y-158337162D01*
X178183120Y-158337164D01*
X178183119Y-158337164D01*
X168614859Y-158337164D01*
X170714036Y-156237988D01*
X170775359Y-156204503D01*
X170801717Y-156201669D01*
X180795250Y-156201669D01*
X180857389Y-156219915D01*
X180857839Y-156219074D01*
X180861879Y-156221233D01*
X180862289Y-156221354D01*
X180863107Y-156221890D01*
X180863210Y-156221945D01*
X180990687Y-156274747D01*
X180990692Y-156274749D01*
X180990696Y-156274749D01*
X180990697Y-156274750D01*
X181126024Y-156301669D01*
X181126027Y-156301669D01*
X181264015Y-156301669D01*
X181355061Y-156283558D01*
X181399348Y-156274749D01*
X181526831Y-156221944D01*
X181526831Y-156221943D01*
X181532201Y-156219074D01*
X181532896Y-156220374D01*
X181592582Y-156201689D01*
X181594790Y-156201669D01*
X183427562Y-156201669D01*
X183427578Y-156201670D01*
X183435174Y-156201670D01*
X183593285Y-156201670D01*
X183593288Y-156201670D01*
X183746016Y-156160746D01*
X183826717Y-156114153D01*
X183882947Y-156081689D01*
X183994751Y-155969885D01*
X183994751Y-155969883D01*
X184004955Y-155959680D01*
X184004959Y-155959675D01*
X186803944Y-153160690D01*
X186803947Y-153160689D01*
X186814656Y-153149979D01*
X186849055Y-153131199D01*
X186875971Y-153116503D01*
X186875977Y-153116502D01*
X186875980Y-153116501D01*
X186875985Y-153116501D01*
X186902329Y-153113669D01*
X189718932Y-153113669D01*
X189785971Y-153133354D01*
X189831726Y-153186158D01*
X189842932Y-153237669D01*
X189842932Y-153444687D01*
X189857785Y-153538473D01*
X189915381Y-153651511D01*
X189915383Y-153651513D01*
X189915385Y-153651516D01*
X190005083Y-153741214D01*
X190005085Y-153741215D01*
X190005089Y-153741219D01*
X190118125Y-153798814D01*
X190118129Y-153798816D01*
X190211906Y-153813668D01*
X190211912Y-153813669D01*
X192074949Y-153813668D01*
X192168735Y-153798815D01*
X192281773Y-153741219D01*
X192371481Y-153651511D01*
X192429077Y-153538473D01*
X192429077Y-153538471D01*
X192429078Y-153538470D01*
X192443930Y-153444694D01*
X192443931Y-153444688D01*
X192443930Y-153401318D01*
X192463613Y-153334282D01*
X192516416Y-153288526D01*
X192585574Y-153278581D01*
X192649131Y-153307604D01*
X192668248Y-153328434D01*
X192691459Y-153360381D01*
X192691463Y-153360386D01*
X192836217Y-153505140D01*
X192974051Y-153605280D01*
X193001821Y-153625456D01*
X193065775Y-153658042D01*
X193184207Y-153718387D01*
X193184209Y-153718387D01*
X193184212Y-153718389D01*
X193288568Y-153752296D01*
X193378896Y-153781646D01*
X193479988Y-153797657D01*
X193581079Y-153813669D01*
X193581080Y-153813669D01*
X193785782Y-153813669D01*
X193785783Y-153813669D01*
X193987965Y-153781646D01*
X194182650Y-153718389D01*
X194365041Y-153625456D01*
X194484768Y-153538470D01*
X194530644Y-153505140D01*
X194530646Y-153505137D01*
X194530650Y-153505135D01*
X194675397Y-153360388D01*
X194675399Y-153360384D01*
X194675402Y-153360382D01*
X194744343Y-153265491D01*
X194795718Y-153194779D01*
X194888651Y-153012388D01*
X194951908Y-152817703D01*
X194983931Y-152615521D01*
X194983931Y-152410817D01*
X194951908Y-152208635D01*
X194927882Y-152134692D01*
X194907723Y-152072649D01*
X194888651Y-152013950D01*
X194888649Y-152013947D01*
X194888649Y-152013945D01*
X194842541Y-151923454D01*
X194795718Y-151831559D01*
X194764557Y-151788669D01*
X194675402Y-151665955D01*
X194530644Y-151521197D01*
X194365044Y-151400884D01*
X194365043Y-151400883D01*
X194365041Y-151400882D01*
X194308084Y-151371860D01*
X194182654Y-151307950D01*
X193987965Y-151244691D01*
X193813426Y-151217047D01*
X193785783Y-151212669D01*
X193581079Y-151212669D01*
X193556760Y-151216520D01*
X193378896Y-151244691D01*
X193184207Y-151307950D01*
X193001817Y-151400884D01*
X192836217Y-151521197D01*
X192691463Y-151665951D01*
X192691459Y-151665956D01*
X192668248Y-151697904D01*
X192612918Y-151740570D01*
X192543305Y-151746549D01*
X192481510Y-151713943D01*
X192447153Y-151653105D01*
X192443930Y-151625019D01*
X192443930Y-151581651D01*
X192442958Y-151575516D01*
X192429077Y-151487865D01*
X192371481Y-151374827D01*
X192371477Y-151374823D01*
X192371476Y-151374821D01*
X192281778Y-151285123D01*
X192281775Y-151285121D01*
X192281773Y-151285119D01*
X192168735Y-151227523D01*
X192168734Y-151227522D01*
X192168731Y-151227521D01*
X192077930Y-151213140D01*
X192014795Y-151183211D01*
X191977864Y-151123899D01*
X191978862Y-151054037D01*
X192009645Y-151002988D01*
X193124647Y-149887988D01*
X193185970Y-149854503D01*
X193212328Y-149851669D01*
X195365562Y-149851669D01*
X195365578Y-149851670D01*
X195373174Y-149851670D01*
X195531285Y-149851670D01*
X195531288Y-149851670D01*
X195684016Y-149810746D01*
X195768744Y-149761828D01*
X195820947Y-149731689D01*
X195932751Y-149619885D01*
X195932751Y-149619883D01*
X195942955Y-149609680D01*
X195942959Y-149609675D01*
X197821937Y-147730697D01*
X197821942Y-147730693D01*
X197832145Y-147720489D01*
X197832147Y-147720489D01*
X197943951Y-147608685D01*
X198015549Y-147484673D01*
X198023008Y-147471754D01*
X198045144Y-147389137D01*
X198046391Y-147385436D01*
X198064262Y-147359889D01*
X198080495Y-147333258D01*
X198085135Y-147330052D01*
X198086442Y-147328185D01*
X198089879Y-147326775D01*
X198107606Y-147314529D01*
X198145041Y-147295456D01*
X198310650Y-147175135D01*
X198455397Y-147030388D01*
X198455399Y-147030384D01*
X198455402Y-147030382D01*
X198525861Y-146933402D01*
X198575718Y-146864779D01*
X198668651Y-146682388D01*
X198731908Y-146487703D01*
X198763931Y-146285521D01*
X198763931Y-146080817D01*
X198745726Y-145965876D01*
X198731908Y-145878634D01*
X198668649Y-145683945D01*
X198634934Y-145617776D01*
X198575718Y-145501559D01*
X198566187Y-145488440D01*
X198455402Y-145335955D01*
X198310644Y-145191197D01*
X198145044Y-145070884D01*
X198145043Y-145070883D01*
X198145041Y-145070882D01*
X198074931Y-145035159D01*
X197962654Y-144977950D01*
X197767965Y-144914691D01*
X197593426Y-144887047D01*
X197565783Y-144882669D01*
X197361079Y-144882669D01*
X197336760Y-144886520D01*
X197158896Y-144914691D01*
X196964207Y-144977950D01*
X196781817Y-145070884D01*
X196616217Y-145191197D01*
X196471463Y-145335951D01*
X196471459Y-145335956D01*
X196448248Y-145367904D01*
X196392918Y-145410570D01*
X196323305Y-145416549D01*
X196261510Y-145383943D01*
X196227153Y-145323105D01*
X196223930Y-145295019D01*
X196223930Y-145251651D01*
X196220178Y-145227962D01*
X196209077Y-145157865D01*
X196151481Y-145044827D01*
X196151477Y-145044823D01*
X196151476Y-145044821D01*
X196061778Y-144955123D01*
X196061775Y-144955121D01*
X196061773Y-144955119D01*
X195969933Y-144908324D01*
X195948732Y-144897521D01*
X195854955Y-144882669D01*
X193991913Y-144882669D01*
X193910950Y-144895492D01*
X193898127Y-144897523D01*
X193785089Y-144955119D01*
X193785088Y-144955120D01*
X193785083Y-144955123D01*
X193695385Y-145044821D01*
X193695382Y-145044826D01*
X193637783Y-145157867D01*
X193622931Y-145251644D01*
X193622931Y-147114686D01*
X193632505Y-147175134D01*
X193637785Y-147208473D01*
X193695381Y-147321511D01*
X193695383Y-147321513D01*
X193695385Y-147321516D01*
X193785083Y-147411214D01*
X193785085Y-147411215D01*
X193785089Y-147411219D01*
X193898125Y-147468814D01*
X193898129Y-147468816D01*
X193991906Y-147483668D01*
X193991912Y-147483669D01*
X195854949Y-147483668D01*
X195948735Y-147468815D01*
X196061773Y-147411219D01*
X196151481Y-147321511D01*
X196209077Y-147208473D01*
X196209077Y-147208471D01*
X196209078Y-147208470D01*
X196223930Y-147114694D01*
X196223931Y-147114688D01*
X196223930Y-147071318D01*
X196243613Y-147004282D01*
X196296416Y-146958526D01*
X196365574Y-146948581D01*
X196429131Y-146977604D01*
X196448248Y-146998434D01*
X196471459Y-147030381D01*
X196471463Y-147030386D01*
X196559939Y-147118862D01*
X196593424Y-147180185D01*
X196588440Y-147249877D01*
X196559939Y-147294224D01*
X195239815Y-148614350D01*
X195178492Y-148647835D01*
X195152134Y-148650669D01*
X192998900Y-148650669D01*
X192998884Y-148650668D01*
X192991288Y-148650668D01*
X192833174Y-148650668D01*
X192680446Y-148691592D01*
X192680445Y-148691592D01*
X192680443Y-148691593D01*
X192648275Y-148710166D01*
X192648274Y-148710167D01*
X192615637Y-148729010D01*
X192543516Y-148770648D01*
X192543513Y-148770650D01*
X190662910Y-150651253D01*
X190637319Y-150695579D01*
X190626502Y-150714316D01*
X190583854Y-150788184D01*
X190542930Y-150940912D01*
X190542930Y-150940914D01*
X190542930Y-151088669D01*
X190523245Y-151155708D01*
X190470441Y-151201463D01*
X190418931Y-151212669D01*
X190211913Y-151212669D01*
X190130950Y-151225492D01*
X190118127Y-151227523D01*
X190005089Y-151285119D01*
X190005088Y-151285120D01*
X190005083Y-151285123D01*
X189915385Y-151374821D01*
X189915382Y-151374826D01*
X189857783Y-151487867D01*
X189842931Y-151581644D01*
X189842931Y-151788669D01*
X189823246Y-151855708D01*
X189770442Y-151901463D01*
X189718931Y-151912669D01*
X186561901Y-151912669D01*
X186561885Y-151912668D01*
X186554289Y-151912668D01*
X186396174Y-151912668D01*
X186286890Y-151941951D01*
X186246895Y-151952668D01*
X186246894Y-151952667D01*
X186243448Y-151953591D01*
X186243444Y-151953592D01*
X186106521Y-152032644D01*
X186106513Y-152032650D01*
X186068828Y-152070335D01*
X186068819Y-152070344D01*
X186066515Y-152072649D01*
X185954711Y-152184453D01*
X185940750Y-152208635D01*
X185934245Y-152219902D01*
X185875653Y-152321384D01*
X185875653Y-152321385D01*
X185858949Y-152383722D01*
X185826856Y-152439307D01*
X183301815Y-154964350D01*
X183240492Y-154997835D01*
X183214134Y-155000669D01*
X181594790Y-155000669D01*
X181532650Y-154982422D01*
X181532201Y-154983264D01*
X181528160Y-154981104D01*
X181527751Y-154980984D01*
X181526932Y-154980447D01*
X181526829Y-154980392D01*
X181399352Y-154927590D01*
X181399342Y-154927587D01*
X181264015Y-154900669D01*
X181264013Y-154900669D01*
X181126027Y-154900669D01*
X181126025Y-154900669D01*
X180990697Y-154927587D01*
X180990687Y-154927590D01*
X180863210Y-154980392D01*
X180857839Y-154983264D01*
X180857143Y-154981963D01*
X180797458Y-155000649D01*
X180795250Y-155000669D01*
X170580677Y-155000669D01*
X170422562Y-155000669D01*
X170269835Y-155041592D01*
X170243053Y-155057055D01*
X170187978Y-155088852D01*
X170132905Y-155120648D01*
X170132902Y-155120650D01*
X170021098Y-155232455D01*
X166910765Y-158342789D01*
X166849442Y-158376274D01*
X166823084Y-158379108D01*
X159023438Y-158379108D01*
X158956399Y-158359423D01*
X158935757Y-158342789D01*
X157994301Y-157401333D01*
X157917483Y-157345520D01*
X157796826Y-157306316D01*
X157796825Y-157306316D01*
X157669959Y-157306316D01*
X157669957Y-157306316D01*
X157549302Y-157345520D01*
X157549300Y-157345521D01*
X157472486Y-157401328D01*
X157472484Y-157401330D01*
X156155120Y-158718695D01*
X156155117Y-158718698D01*
X156099304Y-158795516D01*
X156060100Y-158916173D01*
X156060100Y-158916175D01*
X156060100Y-159043041D01*
X156099304Y-159163698D01*
X156099305Y-159163699D01*
X156155110Y-159240510D01*
X156155113Y-159240513D01*
X156155116Y-159240517D01*
X156185784Y-159271185D01*
X156219268Y-159332504D01*
X156214284Y-159402196D01*
X156172414Y-159458130D01*
X156106950Y-159482548D01*
X156078707Y-159481338D01*
X156065878Y-159479306D01*
X156039693Y-159475159D01*
X155834989Y-159475159D01*
X155810670Y-159479010D01*
X155632806Y-159507181D01*
X155438117Y-159570440D01*
X155255727Y-159663374D01*
X155090127Y-159783687D01*
X154945369Y-159928445D01*
X154825056Y-160094045D01*
X154732122Y-160276435D01*
X154668863Y-160471124D01*
X154636841Y-160673307D01*
X154636841Y-160878010D01*
X154668863Y-161080193D01*
X154732122Y-161274882D01*
X154781480Y-161371750D01*
X154800287Y-161408662D01*
X154825056Y-161457272D01*
X154945369Y-161622872D01*
X155090127Y-161767630D01*
X155245090Y-161880215D01*
X155255731Y-161887946D01*
X155371948Y-161947162D01*
X155438117Y-161980877D01*
X155438119Y-161980877D01*
X155438122Y-161980879D01*
X155492545Y-161998562D01*
X155632806Y-162044136D01*
X155706399Y-162055792D01*
X155834989Y-162076159D01*
X155834990Y-162076159D01*
X156039692Y-162076159D01*
X156039693Y-162076159D01*
X156241875Y-162044136D01*
X156375997Y-162000556D01*
X156445836Y-161998562D01*
X156505669Y-162034642D01*
X156536498Y-162097342D01*
X156528534Y-162166757D01*
X156501995Y-162206169D01*
X154180081Y-164528082D01*
X154130712Y-164613592D01*
X154101024Y-164665012D01*
X154101023Y-164665013D01*
X154093618Y-164692649D01*
X154060099Y-164817743D01*
X154060099Y-164817745D01*
X154060099Y-164985846D01*
X154060100Y-164985859D01*
X154060100Y-166817015D01*
X154040415Y-166884054D01*
X154008985Y-166917333D01*
X153890128Y-167003687D01*
X153890123Y-167003691D01*
X153745369Y-167148445D01*
X153625056Y-167314045D01*
X153532122Y-167496435D01*
X153468863Y-167691124D01*
X153436841Y-167893307D01*
X150850114Y-167893307D01*
X152546017Y-157594590D01*
X153227968Y-153453307D01*
X155836841Y-153453307D01*
X155836841Y-153658010D01*
X155868863Y-153860193D01*
X155932122Y-154054882D01*
X155983725Y-154156156D01*
X156022828Y-154232901D01*
X156025056Y-154237272D01*
X156145369Y-154402872D01*
X156290127Y-154547630D01*
X156426568Y-154646758D01*
X156455731Y-154667946D01*
X156571948Y-154727162D01*
X156638117Y-154760877D01*
X156638119Y-154760877D01*
X156638122Y-154760879D01*
X156742478Y-154794786D01*
X156832806Y-154824136D01*
X156929374Y-154839431D01*
X157034989Y-154856159D01*
X157034990Y-154856159D01*
X157239692Y-154856159D01*
X157239693Y-154856159D01*
X157441875Y-154824136D01*
X157456183Y-154819486D01*
X157526023Y-154817490D01*
X157582182Y-154849735D01*
X159706312Y-156973866D01*
X159843243Y-157052923D01*
X159995971Y-157093847D01*
X159995974Y-157093847D01*
X160161682Y-157093847D01*
X160161698Y-157093846D01*
X166030005Y-157093846D01*
X166030021Y-157093847D01*
X166037617Y-157093847D01*
X166195728Y-157093847D01*
X166195731Y-157093847D01*
X166348459Y-157052923D01*
X166398578Y-157023985D01*
X166485390Y-156973866D01*
X166597194Y-156862062D01*
X166597194Y-156862060D01*
X166607402Y-156851853D01*
X166607403Y-156851850D01*
X169190037Y-154269219D01*
X169251360Y-154235734D01*
X169277718Y-154232900D01*
X182094331Y-154232900D01*
X182094347Y-154232901D01*
X182101943Y-154232901D01*
X182260054Y-154232901D01*
X182260057Y-154232901D01*
X182412785Y-154191977D01*
X182474823Y-154156159D01*
X182549716Y-154112920D01*
X182661520Y-154001116D01*
X182661521Y-154001114D01*
X182894170Y-153768464D01*
X182951003Y-153737431D01*
X182950726Y-153736518D01*
X182955114Y-153735186D01*
X182955491Y-153734981D01*
X182956453Y-153734780D01*
X182956548Y-153734751D01*
X182956559Y-153734749D01*
X183084042Y-153681944D01*
X183198773Y-153605283D01*
X183296345Y-153507711D01*
X183373006Y-153392980D01*
X183425811Y-153265497D01*
X183441593Y-153186158D01*
X183452731Y-153130164D01*
X183452731Y-152992173D01*
X183425812Y-152856846D01*
X183425811Y-152856845D01*
X183425811Y-152856841D01*
X183409600Y-152817703D01*
X183373009Y-152729364D01*
X183373002Y-152729351D01*
X183296345Y-152614627D01*
X183296342Y-152614623D01*
X183198776Y-152517057D01*
X183198772Y-152517054D01*
X183084048Y-152440397D01*
X183084035Y-152440390D01*
X182956563Y-152387590D01*
X182956553Y-152387587D01*
X182821226Y-152360669D01*
X182821224Y-152360669D01*
X182683238Y-152360669D01*
X182683236Y-152360669D01*
X182547908Y-152387587D01*
X182547898Y-152387590D01*
X182420426Y-152440390D01*
X182420413Y-152440397D01*
X182305689Y-152517054D01*
X182305685Y-152517057D01*
X182208119Y-152614623D01*
X182208116Y-152614627D01*
X182131459Y-152729351D01*
X182131452Y-152729364D01*
X182078652Y-152856836D01*
X182076884Y-152862667D01*
X182075472Y-152862238D01*
X182070104Y-152872499D01*
X182066086Y-152890973D01*
X182047328Y-152916030D01*
X182046477Y-152917658D01*
X182044935Y-152919228D01*
X181968583Y-152995581D01*
X181907260Y-153029066D01*
X181880901Y-153031900D01*
X169064290Y-153031900D01*
X169064274Y-153031899D01*
X169056678Y-153031899D01*
X168898563Y-153031899D01*
X168822199Y-153052361D01*
X168745834Y-153072823D01*
X168745829Y-153072826D01*
X168608910Y-153151875D01*
X168608902Y-153151881D01*
X165904258Y-155856527D01*
X165842935Y-155890012D01*
X165816577Y-155892846D01*
X160375126Y-155892846D01*
X160308087Y-155873161D01*
X160287445Y-155856527D01*
X159663371Y-155232453D01*
X158431417Y-154000500D01*
X158397933Y-153939178D01*
X158401169Y-153874500D01*
X158405818Y-153860193D01*
X158437841Y-153658011D01*
X158437841Y-153453307D01*
X158431661Y-153414291D01*
X158440615Y-153345002D01*
X158485610Y-153291550D01*
X158552361Y-153270909D01*
X158619675Y-153289633D01*
X158641815Y-153307215D01*
X158672482Y-153337882D01*
X158749300Y-153393695D01*
X158749301Y-153393695D01*
X158749302Y-153393696D01*
X158869959Y-153432900D01*
X158869960Y-153432900D01*
X158996824Y-153432900D01*
X158996825Y-153432900D01*
X159117482Y-153393696D01*
X159194301Y-153337884D01*
X159333764Y-153198421D01*
X162265050Y-153198421D01*
X162265050Y-153383370D01*
X162293983Y-153566043D01*
X162351134Y-153741937D01*
X162435103Y-153906733D01*
X162543805Y-154056350D01*
X162543809Y-154056355D01*
X162662233Y-154174779D01*
X163269860Y-153567152D01*
X163269860Y-153573367D01*
X163297119Y-153675100D01*
X163349780Y-153766312D01*
X163424254Y-153840786D01*
X163515466Y-153893447D01*
X163617199Y-153920706D01*
X163623412Y-153920706D01*
X163015786Y-154528331D01*
X163134212Y-154646758D01*
X163283836Y-154755465D01*
X163448632Y-154839433D01*
X163624522Y-154896582D01*
X163807196Y-154925516D01*
X163992144Y-154925516D01*
X164174817Y-154896582D01*
X164350710Y-154839431D01*
X164515506Y-154755462D01*
X164515513Y-154755458D01*
X164536099Y-154740500D01*
X164536100Y-154740499D01*
X163716306Y-153920706D01*
X163722521Y-153920706D01*
X163824254Y-153893447D01*
X163915466Y-153840786D01*
X163989940Y-153766312D01*
X164042601Y-153675100D01*
X164069860Y-153573367D01*
X164069860Y-153567152D01*
X164889653Y-154386946D01*
X164889654Y-154386945D01*
X164904612Y-154366359D01*
X164904616Y-154366352D01*
X164988585Y-154201556D01*
X165045736Y-154025663D01*
X165074670Y-153842990D01*
X165074670Y-153658042D01*
X165057387Y-153548925D01*
X165066341Y-153479632D01*
X165111337Y-153426180D01*
X165178089Y-153405540D01*
X165199258Y-153407054D01*
X165229235Y-153411802D01*
X165229240Y-153411802D01*
X165398533Y-153411802D01*
X165565731Y-153385320D01*
X165624231Y-153366312D01*
X165726733Y-153333007D01*
X165877569Y-153256153D01*
X166014525Y-153156648D01*
X166134230Y-153036943D01*
X166233735Y-152899987D01*
X166310589Y-152749151D01*
X166362902Y-152588149D01*
X166364617Y-152577323D01*
X166389384Y-152420951D01*
X166389384Y-152251652D01*
X166368270Y-152118346D01*
X166377224Y-152049053D01*
X166422221Y-151995601D01*
X166488972Y-151974961D01*
X166510141Y-151976475D01*
X166643448Y-151997589D01*
X166643453Y-151997589D01*
X166812746Y-151997589D01*
X166979944Y-151971107D01*
X167140946Y-151918794D01*
X167291782Y-151841940D01*
X167428738Y-151742435D01*
X167548443Y-151622730D01*
X167647948Y-151485774D01*
X167724802Y-151334938D01*
X167777115Y-151173936D01*
X167788979Y-151099029D01*
X167803597Y-151006738D01*
X167803597Y-150837440D01*
X167791382Y-150760322D01*
X167782482Y-150704129D01*
X167791436Y-150634838D01*
X167836432Y-150581386D01*
X167903183Y-150560746D01*
X167924347Y-150562259D01*
X167987896Y-150572324D01*
X168057663Y-150583375D01*
X168057667Y-150583375D01*
X168226960Y-150583375D01*
X168394158Y-150556893D01*
X168424239Y-150547119D01*
X168555160Y-150504580D01*
X168705996Y-150427726D01*
X168842952Y-150328221D01*
X168962657Y-150208516D01*
X169062162Y-150071560D01*
X169139016Y-149920724D01*
X169191329Y-149759722D01*
X169213477Y-149619885D01*
X169217811Y-149592524D01*
X169217811Y-149423225D01*
X169196697Y-149289919D01*
X169205651Y-149220626D01*
X169250648Y-149167174D01*
X169317399Y-149146534D01*
X169338568Y-149148048D01*
X169471875Y-149169162D01*
X169471880Y-149169162D01*
X169641173Y-149169162D01*
X169808371Y-149142680D01*
X169838458Y-149132904D01*
X169969373Y-149090367D01*
X170120209Y-149013513D01*
X170257165Y-148914008D01*
X170376870Y-148794303D01*
X170476375Y-148657347D01*
X170553229Y-148506511D01*
X170605542Y-148345509D01*
X170624168Y-148227909D01*
X170632024Y-148178311D01*
X170632024Y-148009013D01*
X170619809Y-147931895D01*
X170610909Y-147875702D01*
X170619863Y-147806411D01*
X170664859Y-147752959D01*
X170731610Y-147732319D01*
X170752774Y-147733832D01*
X170816323Y-147743897D01*
X170886090Y-147754948D01*
X170886094Y-147754948D01*
X171055387Y-147754948D01*
X171222585Y-147728466D01*
X171247132Y-147720490D01*
X171383587Y-147676153D01*
X171534423Y-147599299D01*
X171671379Y-147499794D01*
X171791084Y-147380089D01*
X171890589Y-147243133D01*
X171967443Y-147092297D01*
X172019756Y-146931295D01*
X172021810Y-146918326D01*
X172046238Y-146764097D01*
X172046238Y-146594798D01*
X172025124Y-146461492D01*
X172034078Y-146392199D01*
X172079075Y-146338747D01*
X172145826Y-146318107D01*
X172166995Y-146319621D01*
X172300302Y-146340735D01*
X172300307Y-146340735D01*
X172469600Y-146340735D01*
X172636798Y-146314253D01*
X172666885Y-146304477D01*
X172797800Y-146261940D01*
X172948636Y-146185086D01*
X173085592Y-146085581D01*
X173205297Y-145965876D01*
X173304802Y-145828920D01*
X173381656Y-145678084D01*
X173433969Y-145517082D01*
X173438505Y-145488445D01*
X173460451Y-145349884D01*
X173460451Y-145287341D01*
X173480136Y-145220302D01*
X173532940Y-145174547D01*
X173602098Y-145164603D01*
X173622759Y-145169407D01*
X173689840Y-145191203D01*
X173735728Y-145206113D01*
X173735729Y-145206113D01*
X173735732Y-145206114D01*
X173735735Y-145206114D01*
X173862595Y-145206114D01*
X173862598Y-145206114D01*
X173983254Y-145166911D01*
X174060074Y-145111098D01*
X175059241Y-144111930D01*
X175115055Y-144035110D01*
X175154258Y-143914454D01*
X175154258Y-143787588D01*
X175115055Y-143666931D01*
X175059242Y-143590112D01*
X174335446Y-142866316D01*
X173600454Y-142131324D01*
X173523637Y-142075512D01*
X173523635Y-142075511D01*
X173493470Y-142065710D01*
X173402981Y-142036308D01*
X173402978Y-142036308D01*
X173276112Y-142036308D01*
X173276108Y-142036308D01*
X173155455Y-142075511D01*
X173078639Y-142131321D01*
X173078633Y-142131326D01*
X172079471Y-143130489D01*
X172079468Y-143130492D01*
X172023656Y-143207309D01*
X172023655Y-143207312D01*
X171984452Y-143327964D01*
X171984452Y-143454837D01*
X172003753Y-143514238D01*
X172021156Y-143567799D01*
X172023151Y-143637638D01*
X171987071Y-143697471D01*
X171924370Y-143728299D01*
X171903225Y-143730115D01*
X171840682Y-143730115D01*
X171673483Y-143756596D01*
X171512477Y-143808911D01*
X171361642Y-143885767D01*
X171224696Y-143985263D01*
X171224691Y-143985267D01*
X171104983Y-144104975D01*
X171104979Y-144104980D01*
X171005483Y-144241926D01*
X170928627Y-144392761D01*
X170876312Y-144553767D01*
X170849831Y-144720965D01*
X170849831Y-144890265D01*
X170870944Y-145023571D01*
X170861989Y-145092864D01*
X170816993Y-145146316D01*
X170750241Y-145166955D01*
X170729074Y-145165441D01*
X170595769Y-145144328D01*
X170595762Y-145144328D01*
X170426474Y-145144328D01*
X170426469Y-145144328D01*
X170259270Y-145170809D01*
X170098264Y-145223124D01*
X169947429Y-145299980D01*
X169810483Y-145399476D01*
X169810478Y-145399480D01*
X169690770Y-145519188D01*
X169690766Y-145519193D01*
X169591270Y-145656139D01*
X169514414Y-145806974D01*
X169462099Y-145967980D01*
X169435618Y-146135178D01*
X169435618Y-146304477D01*
X169456732Y-146437785D01*
X169447777Y-146507078D01*
X169402781Y-146560530D01*
X169336030Y-146581170D01*
X169314861Y-146579656D01*
X169181553Y-146558542D01*
X169181548Y-146558542D01*
X169012260Y-146558542D01*
X169012255Y-146558542D01*
X168845056Y-146585023D01*
X168684050Y-146637338D01*
X168533215Y-146714194D01*
X168396269Y-146813690D01*
X168396264Y-146813694D01*
X168276556Y-146933402D01*
X168276552Y-146933407D01*
X168177056Y-147070353D01*
X168100200Y-147221188D01*
X168047885Y-147382194D01*
X168021404Y-147549392D01*
X168021404Y-147718692D01*
X168042517Y-147851998D01*
X168033562Y-147921291D01*
X167988566Y-147974743D01*
X167921814Y-147995382D01*
X167900647Y-147993868D01*
X167767342Y-147972755D01*
X167767335Y-147972755D01*
X167598047Y-147972755D01*
X167598042Y-147972755D01*
X167430843Y-147999236D01*
X167269837Y-148051551D01*
X167119002Y-148128407D01*
X166982056Y-148227903D01*
X166982051Y-148227907D01*
X166862343Y-148347615D01*
X166862339Y-148347620D01*
X166762843Y-148484566D01*
X166685987Y-148635401D01*
X166633672Y-148796407D01*
X166607191Y-148963605D01*
X166607191Y-149132904D01*
X166628305Y-149266212D01*
X166619350Y-149335505D01*
X166574354Y-149388957D01*
X166507603Y-149409597D01*
X166486434Y-149408083D01*
X166353126Y-149386969D01*
X166353121Y-149386969D01*
X166183833Y-149386969D01*
X166183828Y-149386969D01*
X166016629Y-149413450D01*
X165855623Y-149465765D01*
X165704788Y-149542621D01*
X165567842Y-149642117D01*
X165567837Y-149642121D01*
X165448129Y-149761829D01*
X165448125Y-149761834D01*
X165348629Y-149898780D01*
X165271773Y-150049615D01*
X165219458Y-150210621D01*
X165192977Y-150377819D01*
X165192977Y-150547119D01*
X165214090Y-150680425D01*
X165205135Y-150749718D01*
X165160139Y-150803170D01*
X165093387Y-150823809D01*
X165072220Y-150822295D01*
X164938915Y-150801182D01*
X164938908Y-150801182D01*
X164769620Y-150801182D01*
X164769615Y-150801182D01*
X164602416Y-150827663D01*
X164441410Y-150879978D01*
X164290575Y-150956834D01*
X164153629Y-151056330D01*
X164153624Y-151056334D01*
X164033916Y-151176042D01*
X164033912Y-151176047D01*
X163934416Y-151312993D01*
X163857560Y-151463828D01*
X163805245Y-151624834D01*
X163778764Y-151792032D01*
X163778764Y-151961327D01*
X163783512Y-151991309D01*
X163774555Y-152060603D01*
X163729558Y-152114054D01*
X163662806Y-152134692D01*
X163641640Y-152133178D01*
X163532524Y-152115896D01*
X163347576Y-152115896D01*
X163164902Y-152144829D01*
X162989008Y-152201980D01*
X162824211Y-152285949D01*
X162803619Y-152300910D01*
X162803619Y-152300911D01*
X163623414Y-153120706D01*
X163617199Y-153120706D01*
X163515466Y-153147965D01*
X163424254Y-153200626D01*
X163349780Y-153275100D01*
X163297119Y-153366312D01*
X163269860Y-153468045D01*
X163269860Y-153474260D01*
X162450065Y-152654465D01*
X162450064Y-152654465D01*
X162435103Y-152675057D01*
X162351134Y-152839854D01*
X162293983Y-153015748D01*
X162265050Y-153198421D01*
X159333764Y-153198421D01*
X159519797Y-153012388D01*
X160271695Y-152260489D01*
X160511663Y-152020520D01*
X160511666Y-152020517D01*
X160529769Y-151995601D01*
X160567480Y-151943698D01*
X160606684Y-151823041D01*
X160606684Y-151696175D01*
X160567480Y-151575518D01*
X160528014Y-151521197D01*
X160511671Y-151498702D01*
X160511669Y-151498700D01*
X159194304Y-150181336D01*
X159194301Y-150181333D01*
X159117483Y-150125520D01*
X158996826Y-150086316D01*
X158996825Y-150086316D01*
X158869959Y-150086316D01*
X158869957Y-150086316D01*
X158749302Y-150125520D01*
X158749300Y-150125521D01*
X158672486Y-150181328D01*
X158672484Y-150181330D01*
X157872781Y-150981034D01*
X157853344Y-150991646D01*
X157836611Y-151006147D01*
X157823279Y-151008063D01*
X157811458Y-151014519D01*
X157789371Y-151012939D01*
X157767453Y-151016091D01*
X157755201Y-151010495D01*
X157741766Y-151009535D01*
X157724039Y-150996264D01*
X157703897Y-150987066D01*
X157696614Y-150975734D01*
X157685833Y-150967663D01*
X157678095Y-150946917D01*
X157666123Y-150928288D01*
X157662971Y-150906369D01*
X157661416Y-150902199D01*
X157661100Y-150893353D01*
X157661100Y-150858896D01*
X157680785Y-150791857D01*
X157697414Y-150771220D01*
X160491898Y-147976735D01*
X160491903Y-147976732D01*
X160502106Y-147966528D01*
X160502108Y-147966528D01*
X160613912Y-147854724D01*
X160671517Y-147754948D01*
X160692969Y-147717793D01*
X160733892Y-147565065D01*
X160733892Y-147406951D01*
X160733892Y-145829654D01*
X160753577Y-145762615D01*
X160770211Y-145741973D01*
X161335757Y-145176427D01*
X161397080Y-145142942D01*
X161423438Y-145140108D01*
X162739123Y-145140108D01*
X162739139Y-145140109D01*
X162746735Y-145140109D01*
X162904846Y-145140109D01*
X162904849Y-145140109D01*
X163057577Y-145099185D01*
X163129843Y-145057462D01*
X163194508Y-145020128D01*
X163306312Y-144908324D01*
X163306312Y-144908322D01*
X163316516Y-144898119D01*
X163316520Y-144898114D01*
X166356944Y-141857690D01*
X166356947Y-141857689D01*
X166468751Y-141745885D01*
X166518870Y-141659073D01*
X166547808Y-141608954D01*
X166588731Y-141456226D01*
X166588731Y-141298112D01*
X166588731Y-139723474D01*
X166592505Y-139708822D01*
X166591685Y-139696571D01*
X166600963Y-139675992D01*
X166604167Y-139663558D01*
X166607883Y-139656824D01*
X166610569Y-139653128D01*
X166618333Y-139637889D01*
X166619320Y-139636102D01*
X166642730Y-139612901D01*
X166665373Y-139588927D01*
X166667503Y-139588350D01*
X166668948Y-139586919D01*
X166686996Y-139583077D01*
X166727884Y-139572018D01*
X168684083Y-139572018D01*
X168751122Y-139591703D01*
X168771764Y-139608337D01*
X169348340Y-140184914D01*
X169381825Y-140246237D01*
X169376841Y-140315929D01*
X169348342Y-140360274D01*
X169293945Y-140414672D01*
X169201953Y-140506664D01*
X169146143Y-140583477D01*
X169106939Y-140704134D01*
X169106939Y-140704136D01*
X169106939Y-140831002D01*
X169146143Y-140951659D01*
X169146144Y-140951660D01*
X169201951Y-141028474D01*
X169201953Y-141028476D01*
X170519318Y-142345840D01*
X170519321Y-142345843D01*
X170596139Y-142401656D01*
X170596140Y-142401656D01*
X170596141Y-142401657D01*
X170716798Y-142440861D01*
X170716799Y-142440861D01*
X170843663Y-142440861D01*
X170843664Y-142440861D01*
X170964321Y-142401657D01*
X171041140Y-142345845D01*
X172358505Y-141028478D01*
X172414319Y-140951659D01*
X172453523Y-140831002D01*
X172453523Y-140704136D01*
X172453522Y-140704134D01*
X176184939Y-140704134D01*
X176184939Y-140704136D01*
X176184939Y-140831002D01*
X176224143Y-140951659D01*
X176224144Y-140951660D01*
X176279951Y-141028474D01*
X176279953Y-141028476D01*
X177597318Y-142345840D01*
X177597321Y-142345843D01*
X177674139Y-142401656D01*
X177674140Y-142401656D01*
X177674141Y-142401657D01*
X177794798Y-142440861D01*
X177794799Y-142440861D01*
X177921663Y-142440861D01*
X177921664Y-142440861D01*
X178042321Y-142401657D01*
X178119140Y-142345845D01*
X179436505Y-141028478D01*
X179492319Y-140951659D01*
X179531523Y-140831002D01*
X179531523Y-140704136D01*
X179492319Y-140583479D01*
X179466619Y-140548106D01*
X179436512Y-140506666D01*
X179436509Y-140506663D01*
X179436507Y-140506660D01*
X179405837Y-140475990D01*
X179372354Y-140414672D01*
X179377338Y-140344980D01*
X179419208Y-140289046D01*
X179484672Y-140264628D01*
X179512917Y-140265838D01*
X179551930Y-140272018D01*
X179551931Y-140272018D01*
X179756633Y-140272018D01*
X179756634Y-140272018D01*
X179958816Y-140239995D01*
X180153501Y-140176738D01*
X180335892Y-140083805D01*
X180428872Y-140016250D01*
X180501495Y-139963489D01*
X180501497Y-139963486D01*
X180501501Y-139963484D01*
X180646248Y-139818737D01*
X180646250Y-139818733D01*
X180646253Y-139818731D01*
X180766566Y-139653132D01*
X180766567Y-139653131D01*
X180766569Y-139653128D01*
X180773399Y-139639722D01*
X180821373Y-139588927D01*
X180883884Y-139572018D01*
X182840083Y-139572018D01*
X182907122Y-139591703D01*
X182927764Y-139608337D01*
X183504340Y-140184914D01*
X183537825Y-140246237D01*
X183532841Y-140315929D01*
X183504342Y-140360274D01*
X183449945Y-140414672D01*
X183357953Y-140506664D01*
X183302143Y-140583477D01*
X183262939Y-140704134D01*
X183262939Y-140704136D01*
X183262939Y-140831002D01*
X183302143Y-140951659D01*
X183302144Y-140951660D01*
X183357951Y-141028474D01*
X183357953Y-141028476D01*
X184675318Y-142345840D01*
X184675321Y-142345843D01*
X184752139Y-142401656D01*
X184752140Y-142401656D01*
X184752141Y-142401657D01*
X184872798Y-142440861D01*
X184872799Y-142440861D01*
X184999663Y-142440861D01*
X184999664Y-142440861D01*
X185120321Y-142401657D01*
X185197140Y-142345845D01*
X186514505Y-141028478D01*
X186570319Y-140951659D01*
X186609523Y-140831002D01*
X186609523Y-140704136D01*
X186609522Y-140704134D01*
X190340939Y-140704134D01*
X190340939Y-140704136D01*
X190340939Y-140831002D01*
X190380143Y-140951659D01*
X190380144Y-140951660D01*
X190435951Y-141028474D01*
X190435953Y-141028476D01*
X191753318Y-142345840D01*
X191753321Y-142345843D01*
X191830139Y-142401656D01*
X191830140Y-142401656D01*
X191830141Y-142401657D01*
X191950798Y-142440861D01*
X191950799Y-142440861D01*
X192077663Y-142440861D01*
X192077664Y-142440861D01*
X192198321Y-142401657D01*
X192275140Y-142345845D01*
X193592505Y-141028478D01*
X193648319Y-140951659D01*
X193687523Y-140831002D01*
X193687523Y-140704136D01*
X193648319Y-140583479D01*
X193622619Y-140548106D01*
X193592512Y-140506666D01*
X193592509Y-140506663D01*
X193592507Y-140506660D01*
X193561837Y-140475990D01*
X193528354Y-140414672D01*
X193533338Y-140344980D01*
X193575208Y-140289046D01*
X193640672Y-140264628D01*
X193668917Y-140265838D01*
X193707930Y-140272018D01*
X193707931Y-140272018D01*
X193912633Y-140272018D01*
X193912634Y-140272018D01*
X194114816Y-140239995D01*
X194129124Y-140235345D01*
X194198961Y-140233349D01*
X194255123Y-140265595D01*
X195237617Y-141248089D01*
X195237619Y-141248090D01*
X195237623Y-141248093D01*
X195324260Y-141298112D01*
X195374549Y-141327146D01*
X195527276Y-141368070D01*
X195527278Y-141368070D01*
X195692987Y-141368070D01*
X195693003Y-141368069D01*
X197802185Y-141368069D01*
X197869224Y-141387754D01*
X197889866Y-141404388D01*
X198831321Y-142345843D01*
X198908139Y-142401656D01*
X198908140Y-142401656D01*
X198908141Y-142401657D01*
X199028798Y-142440861D01*
X199028799Y-142440861D01*
X199155663Y-142440861D01*
X199155664Y-142440861D01*
X199276321Y-142401657D01*
X199353140Y-142345845D01*
X200670505Y-141028478D01*
X200726319Y-140951659D01*
X200765523Y-140831002D01*
X200765523Y-140704136D01*
X200726319Y-140583479D01*
X200700619Y-140548106D01*
X200670512Y-140506666D01*
X200670509Y-140506663D01*
X200670507Y-140506660D01*
X200639837Y-140475990D01*
X200606354Y-140414672D01*
X200611338Y-140344980D01*
X200653208Y-140289046D01*
X200718672Y-140264628D01*
X200746917Y-140265838D01*
X200785930Y-140272018D01*
X200785931Y-140272018D01*
X200990633Y-140272018D01*
X200990634Y-140272018D01*
X201192816Y-140239995D01*
X201387501Y-140176738D01*
X201569892Y-140083805D01*
X201662872Y-140016250D01*
X201735495Y-139963489D01*
X201735497Y-139963486D01*
X201735501Y-139963484D01*
X201880248Y-139818737D01*
X201880250Y-139818733D01*
X201880253Y-139818731D01*
X201983957Y-139675992D01*
X202000569Y-139653128D01*
X202093502Y-139470737D01*
X202156759Y-139276052D01*
X202188782Y-139073870D01*
X202188782Y-138869166D01*
X202156759Y-138666984D01*
X202093502Y-138472299D01*
X202093500Y-138472296D01*
X202093500Y-138472294D01*
X202059785Y-138406125D01*
X202000569Y-138289908D01*
X201992838Y-138279267D01*
X201880253Y-138124304D01*
X201735495Y-137979546D01*
X201569895Y-137859233D01*
X201569894Y-137859232D01*
X201569892Y-137859231D01*
X201512935Y-137830209D01*
X201387505Y-137766299D01*
X201192816Y-137703040D01*
X201018277Y-137675396D01*
X200990634Y-137671018D01*
X200785930Y-137671018D01*
X200761611Y-137674869D01*
X200583747Y-137703040D01*
X200389058Y-137766299D01*
X200206668Y-137859233D01*
X200041068Y-137979546D01*
X199896310Y-138124304D01*
X199775997Y-138289904D01*
X199683063Y-138472294D01*
X199619804Y-138666983D01*
X199587782Y-138869166D01*
X199587782Y-139073869D01*
X199593961Y-139112882D01*
X199585006Y-139182176D01*
X199540010Y-139235628D01*
X199473259Y-139256267D01*
X199405945Y-139237542D01*
X199383807Y-139219961D01*
X199353140Y-139189294D01*
X199276322Y-139133481D01*
X199155665Y-139094277D01*
X199155664Y-139094277D01*
X199028798Y-139094277D01*
X199028796Y-139094277D01*
X198908141Y-139133481D01*
X198908139Y-139133482D01*
X198831325Y-139189289D01*
X198831323Y-139189291D01*
X197889866Y-140130750D01*
X197828543Y-140164235D01*
X197802185Y-140167069D01*
X195906431Y-140167069D01*
X195839392Y-140147384D01*
X195818750Y-140130750D01*
X195104359Y-139416359D01*
X195070874Y-139355036D01*
X195074109Y-139290360D01*
X195078759Y-139276052D01*
X195110782Y-139073870D01*
X195110782Y-138869166D01*
X195078759Y-138666984D01*
X195015502Y-138472299D01*
X195015500Y-138472296D01*
X195015500Y-138472294D01*
X194981785Y-138406125D01*
X194922569Y-138289908D01*
X194914838Y-138279267D01*
X194802253Y-138124304D01*
X194657495Y-137979546D01*
X194491895Y-137859233D01*
X194491894Y-137859232D01*
X194491892Y-137859231D01*
X194434935Y-137830209D01*
X194309505Y-137766299D01*
X194114816Y-137703040D01*
X193940277Y-137675396D01*
X193912634Y-137671018D01*
X193707930Y-137671018D01*
X193683611Y-137674869D01*
X193505747Y-137703040D01*
X193311058Y-137766299D01*
X193128668Y-137859233D01*
X192963068Y-137979546D01*
X192818310Y-138124304D01*
X192697997Y-138289904D01*
X192605063Y-138472294D01*
X192541804Y-138666983D01*
X192509782Y-138869166D01*
X192509782Y-139073869D01*
X192515961Y-139112882D01*
X192507006Y-139182176D01*
X192462010Y-139235628D01*
X192395259Y-139256267D01*
X192327945Y-139237542D01*
X192305807Y-139219961D01*
X192275140Y-139189294D01*
X192198322Y-139133481D01*
X192077665Y-139094277D01*
X192077664Y-139094277D01*
X191950798Y-139094277D01*
X191950796Y-139094277D01*
X191830141Y-139133481D01*
X191830139Y-139133482D01*
X191753325Y-139189289D01*
X191753323Y-139189291D01*
X190435959Y-140506656D01*
X190435956Y-140506659D01*
X190380143Y-140583477D01*
X190340939Y-140704134D01*
X186609522Y-140704134D01*
X186570319Y-140583479D01*
X186544619Y-140548106D01*
X186514512Y-140506666D01*
X186514509Y-140506663D01*
X186514507Y-140506660D01*
X186483837Y-140475990D01*
X186450354Y-140414672D01*
X186455338Y-140344980D01*
X186497208Y-140289046D01*
X186562672Y-140264628D01*
X186590917Y-140265838D01*
X186629930Y-140272018D01*
X186629931Y-140272018D01*
X186834633Y-140272018D01*
X186834634Y-140272018D01*
X187036816Y-140239995D01*
X187231501Y-140176738D01*
X187413892Y-140083805D01*
X187506872Y-140016250D01*
X187579495Y-139963489D01*
X187579497Y-139963486D01*
X187579501Y-139963484D01*
X187724248Y-139818737D01*
X187724250Y-139818733D01*
X187724253Y-139818731D01*
X187827957Y-139675992D01*
X187844569Y-139653128D01*
X187937502Y-139470737D01*
X188000759Y-139276052D01*
X188032782Y-139073870D01*
X188032782Y-138869166D01*
X188000759Y-138666984D01*
X187937502Y-138472299D01*
X187937500Y-138472296D01*
X187937500Y-138472294D01*
X187903785Y-138406125D01*
X187844569Y-138289908D01*
X187836838Y-138279267D01*
X187724253Y-138124304D01*
X187579495Y-137979546D01*
X187413895Y-137859233D01*
X187413894Y-137859232D01*
X187413892Y-137859231D01*
X187356935Y-137830209D01*
X187231505Y-137766299D01*
X187036816Y-137703040D01*
X186862277Y-137675396D01*
X186834634Y-137671018D01*
X186629930Y-137671018D01*
X186605611Y-137674869D01*
X186427747Y-137703040D01*
X186233058Y-137766299D01*
X186050668Y-137859233D01*
X185885068Y-137979546D01*
X185740310Y-138124304D01*
X185619997Y-138289904D01*
X185527063Y-138472294D01*
X185463804Y-138666983D01*
X185431782Y-138869166D01*
X185431782Y-139073869D01*
X185437961Y-139112882D01*
X185429006Y-139182176D01*
X185384010Y-139235628D01*
X185317259Y-139256267D01*
X185249945Y-139237542D01*
X185227807Y-139219961D01*
X185197140Y-139189294D01*
X185120322Y-139133481D01*
X184999665Y-139094277D01*
X184999664Y-139094277D01*
X184872798Y-139094277D01*
X184872796Y-139094277D01*
X184752141Y-139133481D01*
X184752139Y-139133482D01*
X184675328Y-139189287D01*
X184675322Y-139189293D01*
X184528935Y-139335678D01*
X184467614Y-139369162D01*
X184397922Y-139364178D01*
X184353575Y-139335677D01*
X183627770Y-138609873D01*
X183627768Y-138609870D01*
X183508897Y-138490999D01*
X183508896Y-138490998D01*
X183402128Y-138429356D01*
X183402127Y-138429355D01*
X183371963Y-138411940D01*
X183316061Y-138396961D01*
X183219237Y-138371017D01*
X183061123Y-138371017D01*
X183053527Y-138371017D01*
X183053511Y-138371018D01*
X180883884Y-138371018D01*
X180816845Y-138351333D01*
X180773399Y-138303313D01*
X180766566Y-138289903D01*
X180646253Y-138124304D01*
X180501495Y-137979546D01*
X180335895Y-137859233D01*
X180335894Y-137859232D01*
X180335892Y-137859231D01*
X180278935Y-137830209D01*
X180153505Y-137766299D01*
X179958816Y-137703040D01*
X179784277Y-137675396D01*
X179756634Y-137671018D01*
X179551930Y-137671018D01*
X179527611Y-137674869D01*
X179349747Y-137703040D01*
X179155058Y-137766299D01*
X178972668Y-137859233D01*
X178807068Y-137979546D01*
X178662310Y-138124304D01*
X178541997Y-138289904D01*
X178449063Y-138472294D01*
X178385804Y-138666983D01*
X178353782Y-138869166D01*
X178353782Y-139073869D01*
X178359961Y-139112882D01*
X178351006Y-139182176D01*
X178306010Y-139235628D01*
X178239259Y-139256267D01*
X178171945Y-139237542D01*
X178149807Y-139219961D01*
X178119140Y-139189294D01*
X178042322Y-139133481D01*
X177921665Y-139094277D01*
X177921664Y-139094277D01*
X177794798Y-139094277D01*
X177794796Y-139094277D01*
X177674141Y-139133481D01*
X177674139Y-139133482D01*
X177597325Y-139189289D01*
X177597323Y-139189291D01*
X176279959Y-140506656D01*
X176279956Y-140506659D01*
X176224143Y-140583477D01*
X176184939Y-140704134D01*
X172453522Y-140704134D01*
X172414319Y-140583479D01*
X172388619Y-140548106D01*
X172358512Y-140506666D01*
X172358509Y-140506663D01*
X172358507Y-140506660D01*
X172327837Y-140475990D01*
X172294354Y-140414672D01*
X172299338Y-140344980D01*
X172341208Y-140289046D01*
X172406672Y-140264628D01*
X172434917Y-140265838D01*
X172473930Y-140272018D01*
X172473931Y-140272018D01*
X172678633Y-140272018D01*
X172678634Y-140272018D01*
X172880816Y-140239995D01*
X173075501Y-140176738D01*
X173257892Y-140083805D01*
X173350872Y-140016250D01*
X173423495Y-139963489D01*
X173423497Y-139963486D01*
X173423501Y-139963484D01*
X173568248Y-139818737D01*
X173568250Y-139818733D01*
X173568253Y-139818731D01*
X173671957Y-139675992D01*
X173688569Y-139653128D01*
X173781502Y-139470737D01*
X173844759Y-139276052D01*
X173876782Y-139073870D01*
X173876782Y-138869166D01*
X173844759Y-138666984D01*
X173781502Y-138472299D01*
X173781500Y-138472296D01*
X173781500Y-138472294D01*
X173747785Y-138406125D01*
X173688569Y-138289908D01*
X173680838Y-138279267D01*
X173568253Y-138124304D01*
X173423495Y-137979546D01*
X173257895Y-137859233D01*
X173257894Y-137859232D01*
X173257892Y-137859231D01*
X173200935Y-137830209D01*
X173075505Y-137766299D01*
X172880816Y-137703040D01*
X172706277Y-137675396D01*
X172678634Y-137671018D01*
X172473930Y-137671018D01*
X172449611Y-137674869D01*
X172271747Y-137703040D01*
X172077058Y-137766299D01*
X171894668Y-137859233D01*
X171729068Y-137979546D01*
X171584310Y-138124304D01*
X171463997Y-138289904D01*
X171371063Y-138472294D01*
X171307804Y-138666983D01*
X171275782Y-138869166D01*
X171275782Y-139073869D01*
X171281961Y-139112882D01*
X171273006Y-139182176D01*
X171228010Y-139235628D01*
X171161259Y-139256267D01*
X171093945Y-139237542D01*
X171071807Y-139219961D01*
X171041140Y-139189294D01*
X170964322Y-139133481D01*
X170843665Y-139094277D01*
X170843664Y-139094277D01*
X170716798Y-139094277D01*
X170716796Y-139094277D01*
X170596141Y-139133481D01*
X170596139Y-139133482D01*
X170519328Y-139189287D01*
X170519322Y-139189293D01*
X170372935Y-139335678D01*
X170311614Y-139369162D01*
X170241922Y-139364178D01*
X170197575Y-139335677D01*
X169471770Y-138609873D01*
X169471768Y-138609870D01*
X169352897Y-138490999D01*
X169352896Y-138490998D01*
X169246128Y-138429356D01*
X169246127Y-138429355D01*
X169215963Y-138411940D01*
X169160061Y-138396961D01*
X169063237Y-138371017D01*
X168905123Y-138371017D01*
X168897527Y-138371017D01*
X168897511Y-138371018D01*
X166727884Y-138371018D01*
X166660845Y-138351333D01*
X166617399Y-138303313D01*
X166610566Y-138289903D01*
X166490253Y-138124304D01*
X166345495Y-137979546D01*
X166179895Y-137859233D01*
X166179894Y-137859232D01*
X166179892Y-137859231D01*
X166122935Y-137830209D01*
X165997505Y-137766299D01*
X165802816Y-137703040D01*
X165628277Y-137675396D01*
X165600634Y-137671018D01*
X165395930Y-137671018D01*
X165371611Y-137674869D01*
X165193747Y-137703040D01*
X164999058Y-137766299D01*
X164816668Y-137859233D01*
X164651068Y-137979546D01*
X164506310Y-138124304D01*
X164385997Y-138289904D01*
X164293063Y-138472294D01*
X164229804Y-138666983D01*
X164197782Y-138869166D01*
X164197782Y-139073869D01*
X164203961Y-139112882D01*
X164195006Y-139182176D01*
X164150010Y-139235628D01*
X164083259Y-139256267D01*
X164015945Y-139237542D01*
X163993807Y-139219961D01*
X163963140Y-139189294D01*
X163886322Y-139133481D01*
X163765665Y-139094277D01*
X163765664Y-139094277D01*
X163638798Y-139094277D01*
X163638796Y-139094277D01*
X163518141Y-139133481D01*
X163518139Y-139133482D01*
X163441325Y-139189289D01*
X163441323Y-139189291D01*
X162123959Y-140506656D01*
X162123956Y-140506659D01*
X162068143Y-140583477D01*
X162028939Y-140704134D01*
X162028939Y-140704136D01*
X162028939Y-140831002D01*
X162068143Y-140951659D01*
X162068144Y-140951660D01*
X162123951Y-141028474D01*
X162123953Y-141028476D01*
X163441318Y-142345840D01*
X163441321Y-142345843D01*
X163518139Y-142401656D01*
X163518140Y-142401656D01*
X163518141Y-142401657D01*
X163638798Y-142440861D01*
X163638799Y-142440861D01*
X163775423Y-142440861D01*
X163775423Y-142444727D01*
X163825856Y-142451210D01*
X163879339Y-142496170D01*
X163900025Y-142562907D01*
X163881346Y-142630234D01*
X163863720Y-142652444D01*
X162613376Y-143902789D01*
X162552053Y-143936274D01*
X162525695Y-143939108D01*
X161423438Y-143939108D01*
X161356399Y-143919423D01*
X161335757Y-143902789D01*
X160394301Y-142961333D01*
X160317483Y-142905520D01*
X160196826Y-142866316D01*
X160196825Y-142866316D01*
X160069959Y-142866316D01*
X160069957Y-142866316D01*
X159949302Y-142905520D01*
X159949300Y-142905521D01*
X159872486Y-142961328D01*
X159872484Y-142961330D01*
X158555120Y-144278695D01*
X158555117Y-144278698D01*
X158499304Y-144355516D01*
X158460100Y-144476173D01*
X158460100Y-144476175D01*
X158460100Y-144603041D01*
X158499304Y-144723698D01*
X158499305Y-144723699D01*
X158555110Y-144800510D01*
X158555113Y-144800513D01*
X158555116Y-144800517D01*
X158585784Y-144831185D01*
X158619268Y-144892504D01*
X158614284Y-144962196D01*
X158572414Y-145018130D01*
X158506950Y-145042548D01*
X158478707Y-145041338D01*
X158465878Y-145039306D01*
X158439693Y-145035159D01*
X158234989Y-145035159D01*
X158210670Y-145039010D01*
X158032806Y-145067181D01*
X157838117Y-145130440D01*
X157655727Y-145223374D01*
X157490127Y-145343687D01*
X157345369Y-145488445D01*
X157225056Y-145654045D01*
X157132122Y-145836435D01*
X157068863Y-146031124D01*
X157036841Y-146233307D01*
X157036841Y-146438010D01*
X157068863Y-146640193D01*
X157132122Y-146834882D01*
X157225056Y-147017272D01*
X157345369Y-147182872D01*
X157490127Y-147327630D01*
X157605173Y-147411214D01*
X157655731Y-147447946D01*
X157761249Y-147501710D01*
X157838117Y-147540877D01*
X157838119Y-147540877D01*
X157838122Y-147540879D01*
X157912553Y-147565063D01*
X158032806Y-147604136D01*
X158133898Y-147620147D01*
X158234989Y-147636159D01*
X158234990Y-147636159D01*
X158439692Y-147636159D01*
X158439693Y-147636159D01*
X158641875Y-147604136D01*
X158836560Y-147540879D01*
X158836565Y-147540876D01*
X158836569Y-147540875D01*
X158939692Y-147488331D01*
X159008361Y-147475434D01*
X159073101Y-147501710D01*
X159113359Y-147558816D01*
X159116351Y-147628622D01*
X159083668Y-147686496D01*
X156580081Y-150190082D01*
X156580079Y-150190085D01*
X156529961Y-150276894D01*
X156529959Y-150276896D01*
X156501025Y-150327009D01*
X156501024Y-150327010D01*
X156501023Y-150327015D01*
X156460099Y-150479743D01*
X156460099Y-150479745D01*
X156460099Y-150647846D01*
X156460100Y-150647859D01*
X156460100Y-152377015D01*
X156440415Y-152444054D01*
X156408985Y-152477333D01*
X156290128Y-152563687D01*
X156290123Y-152563691D01*
X156145369Y-152708445D01*
X156025056Y-152874045D01*
X155932122Y-153056435D01*
X155868863Y-153251124D01*
X155836841Y-153453307D01*
X153227968Y-153453307D01*
X153232088Y-153428287D01*
X153483512Y-151901463D01*
X154005924Y-148729010D01*
X154007646Y-148725026D01*
X154016618Y-148664062D01*
X154017570Y-148658277D01*
X154018073Y-148655436D01*
X154080396Y-148326563D01*
X154082704Y-148316638D01*
X154120921Y-148178311D01*
X154171674Y-147994611D01*
X154174789Y-147984910D01*
X154289931Y-147671268D01*
X154293818Y-147661890D01*
X154434360Y-147358749D01*
X154439008Y-147349716D01*
X154603976Y-147059172D01*
X154609369Y-147050525D01*
X154689267Y-146933407D01*
X154797658Y-146774522D01*
X154803719Y-146766379D01*
X155007617Y-146514729D01*
X155016010Y-146505385D01*
X164588355Y-136880743D01*
X164593076Y-136876243D01*
X164851427Y-136642808D01*
X164859679Y-136635977D01*
X165023953Y-136511527D01*
X165135930Y-136426695D01*
X165144695Y-136420632D01*
X165438024Y-136235959D01*
X165447299Y-136230665D01*
X165755453Y-136072021D01*
X165765163Y-136067542D01*
X166085843Y-135936105D01*
X166095902Y-135932482D01*
X166426744Y-135829220D01*
X166437074Y-135826479D01*
X166775602Y-135752166D01*
X166786132Y-135750328D01*
X167129804Y-135705522D01*
X167140455Y-135704599D01*
X167488542Y-135689554D01*
X167493838Y-135689439D01*
X199958550Y-135680087D01*
X199958679Y-135680087D01*
X199958871Y-135680139D01*
X200021939Y-135680072D01*
X200021984Y-135680072D01*
X200021992Y-135680074D01*
G37*
%TD.AperFunction*%
%TD*%
M02*
