M48
; DRILL file KiCad 10.0.2 date 2026-05-29T20:59:30
; FORMAT={-:-/ absolute / metric / decimal}
; #@! TF.CreationDate,2026-05-29T20:59:30+03:00
; #@! TF.GenerationSoftware,Kicad,Pcbnew,10.0.2
; #@! TF.FileFunction,Plated,1,2,PTH
FMAT,2
METRIC
; #@! TA.AperFunction,Plated,PTH,ViaDrill
T1C0.300
; #@! TA.AperFunction,Plated,PTH,ComponentDrill
T2C0.800
; #@! TA.AperFunction,Plated,PTH,ComponentDrill
T3C0.900
%
G90
G05
T1
X146.575Y-206.023
X149.293Y-229.595
X151.477Y-177.652
X156.024Y-148.797
X157.065Y-180.928
X160.062Y-177.829
X160.621Y-161.472
X162.686Y-169.168
X165.879Y-168.914
X166.488Y-200.918
X166.623Y-171.095
X169.282Y-170.286
X170.171Y-177.833
X174.769Y-161.04
X176.928Y-173.42
X178.884Y-158.268
X181.195Y-155.601
X181.627Y-175.62
X182.135Y-137.113
X182.752Y-153.061
X184.467Y-159.983
X186.181Y-156.109
X189.247Y-144.225
X196.587Y-150.296
T2
X163.67Y-153.521
X165.084Y-152.106
X166.498Y-150.692
X167.913Y-149.278
X169.327Y-147.864
X170.741Y-146.45
X172.155Y-145.035
X173.569Y-143.621
T3
X143.859Y-232.899
X145.137Y-225.756
X145.655Y-231.103
X146.337Y-218.536
X146.933Y-223.96
X147.537Y-211.316
X148.133Y-216.74
X148.737Y-204.096
X149.333Y-209.52
X149.563Y-222.143
X149.937Y-196.876
X150.533Y-202.3
X151.137Y-189.656
X151.733Y-195.08
X152.103Y-222.143
X152.337Y-182.436
X152.933Y-187.86
X153.343Y-215.813
X153.537Y-175.216
X154.133Y-180.64
X154.737Y-167.996
X155.333Y-173.42
X155.883Y-215.813
X155.937Y-160.776
X156.533Y-166.2
X157.123Y-209.483
X157.137Y-153.556
X157.733Y-158.98
X158.337Y-146.336
X158.933Y-151.76
X159.663Y-209.483
X160.133Y-144.54
X160.903Y-203.153
X163.443Y-203.153
X163.702Y-140.768
X164.683Y-196.823
X165.498Y-138.972
X167.223Y-196.823
X168.463Y-190.493
X170.78Y-140.768
X171.003Y-190.493
X172.243Y-184.163
X172.576Y-138.972
X174.783Y-184.163
X176.023Y-177.833
X177.858Y-140.768
X178.563Y-177.833
X179.654Y-138.972
X179.803Y-171.503
X182.343Y-171.503
X183.583Y-165.173
X184.936Y-140.768
X186.123Y-165.173
X186.732Y-138.972
X187.363Y-158.843
X189.903Y-158.843
X191.143Y-152.513
X192.014Y-140.768
X193.683Y-152.513
X193.81Y-138.972
X194.923Y-146.183
X197.463Y-146.183
X199.092Y-140.768
X200.888Y-138.972
M30
