%TF.GenerationSoftware,KiCad,Pcbnew,10.0.2*%
%TF.CreationDate,2026-05-29T20:59:33+03:00*%
%TF.ProjectId,kicad_selka_rev2,6b696361-645f-4736-956c-6b615f726576,rev?*%
%TF.SameCoordinates,Original*%
%TF.FileFunction,Legend,Top*%
%TF.FilePolarity,Positive*%
%FSLAX46Y46*%
G04 Gerber Fmt 4.6, Leading zero omitted, Abs format (unit mm)*
G04 Created by KiCad (PCBNEW 10.0.2) date 2026-05-29 20:59:33*
%MOMM*%
%LPD*%
G01*
G04 APERTURE LIST*
%ADD10C,0.120000*%
G04 APERTURE END LIST*
%TO.C,D28*%
D10*
X152053431Y-214268169D02*
X152053431Y-217358169D01*
X152053431Y-214268339D02*
G75*
G02*
X157603431Y-215813169I2560000J-1544830D01*
G01*
X157603431Y-215813169D02*
G75*
G02*
X152053430Y-217358000I-2990000J-2D01*
G01*
X157113432Y-215813169D02*
G75*
G02*
X152113432Y-215813169I-2500000J0D01*
G01*
X152113432Y-215813169D02*
G75*
G02*
X157113432Y-215813169I2500000J0D01*
G01*
%TO.C,D23*%
X151338040Y-209699920D02*
X149153080Y-207514960D01*
X146321117Y-212531883D02*
G75*
G02*
X149153200Y-207515079I2114248J2114251D01*
G01*
X151337920Y-209699800D02*
G75*
G02*
X146321116Y-212531884I-2902554J-717834D01*
G01*
X150935366Y-210417634D02*
G75*
G02*
X145935366Y-210417634I-2500000J0D01*
G01*
X145935366Y-210417634D02*
G75*
G02*
X150935366Y-210417634I2500000J0D01*
G01*
%TO.C,D33*%
X170953431Y-182618169D02*
X170953431Y-185708169D01*
X170953431Y-182618339D02*
G75*
G02*
X176503431Y-184163169I2560000J-1544830D01*
G01*
X176503431Y-184163169D02*
G75*
G02*
X170953430Y-185708000I-2990000J-2D01*
G01*
X176013432Y-184163169D02*
G75*
G02*
X171013432Y-184163169I-2500000J0D01*
G01*
X171013432Y-184163169D02*
G75*
G02*
X176013432Y-184163169I2500000J0D01*
G01*
%TO.C,D36*%
X182293431Y-163628169D02*
X182293431Y-166718169D01*
X182293431Y-163628339D02*
G75*
G02*
X187843431Y-165173169I2560000J-1544830D01*
G01*
X187843431Y-165173169D02*
G75*
G02*
X182293430Y-166718000I-2990000J-2D01*
G01*
X187353432Y-165173169D02*
G75*
G02*
X182353432Y-165173169I-2500000J0D01*
G01*
X182353432Y-165173169D02*
G75*
G02*
X187353432Y-165173169I2500000J0D01*
G01*
%TO.C,D26*%
X147660040Y-231283120D02*
X145475080Y-229098160D01*
X142643117Y-234115083D02*
G75*
G02*
X145475200Y-229098279I2114248J2114251D01*
G01*
X147659920Y-231283000D02*
G75*
G02*
X142643116Y-234115084I-2902554J-717834D01*
G01*
X147257366Y-232000834D02*
G75*
G02*
X142257366Y-232000834I-2500000J0D01*
G01*
X142257366Y-232000834D02*
G75*
G02*
X147257366Y-232000834I2500000J0D01*
G01*
%TO.C,D17*%
X158538040Y-166379920D02*
X156353080Y-164194960D01*
X153521117Y-169211883D02*
G75*
G02*
X156353200Y-164195079I2114248J2114251D01*
G01*
X158537920Y-166379800D02*
G75*
G02*
X153521116Y-169211884I-2902554J-717834D01*
G01*
X158135366Y-167097634D02*
G75*
G02*
X153135366Y-167097634I-2500000J0D01*
G01*
X153135366Y-167097634D02*
G75*
G02*
X158135366Y-167097634I2500000J0D01*
G01*
%TO.C,D24*%
X150138040Y-216919920D02*
X147953080Y-214734960D01*
X145121117Y-219751883D02*
G75*
G02*
X147953200Y-214735079I2114248J2114251D01*
G01*
X150137920Y-216919800D02*
G75*
G02*
X145121116Y-219751884I-2902554J-717834D01*
G01*
X149735366Y-217637634D02*
G75*
G02*
X144735366Y-217637634I-2500000J0D01*
G01*
X144735366Y-217637634D02*
G75*
G02*
X149735366Y-217637634I2500000J0D01*
G01*
%TO.C,D29*%
X155833431Y-207938169D02*
X155833431Y-211028169D01*
X155833431Y-207938339D02*
G75*
G02*
X161383431Y-209483169I2560000J-1544830D01*
G01*
X161383431Y-209483169D02*
G75*
G02*
X155833430Y-211028000I-2990000J-2D01*
G01*
X160893432Y-209483169D02*
G75*
G02*
X155893432Y-209483169I-2500000J0D01*
G01*
X155893432Y-209483169D02*
G75*
G02*
X160893432Y-209483169I2500000J0D01*
G01*
%TO.C,D45*%
X161697583Y-140587257D02*
X163882543Y-142772217D01*
X161697703Y-140587377D02*
G75*
G02*
X166714507Y-137755293I2902554J717834D01*
G01*
X166714506Y-137755294D02*
G75*
G02*
X163882423Y-142772098I-2114248J-2114251D01*
G01*
X167100257Y-139869543D02*
G75*
G02*
X162100257Y-139869543I-2500000J0D01*
G01*
X162100257Y-139869543D02*
G75*
G02*
X167100257Y-139869543I2500000J0D01*
G01*
%TO.C,D15*%
X160938040Y-151939920D02*
X158753080Y-149754960D01*
X155921117Y-154771883D02*
G75*
G02*
X158753200Y-149755079I2114248J2114251D01*
G01*
X160937920Y-151939800D02*
G75*
G02*
X155921116Y-154771884I-2902554J-717834D01*
G01*
X160535366Y-152657634D02*
G75*
G02*
X155535366Y-152657634I-2500000J0D01*
G01*
X155535366Y-152657634D02*
G75*
G02*
X160535366Y-152657634I2500000J0D01*
G01*
%TO.C,D19*%
X156138040Y-180819920D02*
X153953080Y-178634960D01*
X151121117Y-183651883D02*
G75*
G02*
X153953200Y-178635079I2114248J2114251D01*
G01*
X156137920Y-180819800D02*
G75*
G02*
X151121116Y-183651884I-2902554J-717834D01*
G01*
X155735366Y-181537634D02*
G75*
G02*
X150735366Y-181537634I-2500000J0D01*
G01*
X150735366Y-181537634D02*
G75*
G02*
X155735366Y-181537634I2500000J0D01*
G01*
%TO.C,D42*%
X182931583Y-140587257D02*
X185116543Y-142772217D01*
X182931703Y-140587377D02*
G75*
G02*
X187948507Y-137755293I2902554J717834D01*
G01*
X187948506Y-137755294D02*
G75*
G02*
X185116423Y-142772098I-2114248J-2114251D01*
G01*
X188334257Y-139869543D02*
G75*
G02*
X183334257Y-139869543I-2500000J0D01*
G01*
X183334257Y-139869543D02*
G75*
G02*
X188334257Y-139869543I2500000J0D01*
G01*
%TO.C,D35*%
X178513431Y-169958169D02*
X178513431Y-173048169D01*
X178513431Y-169958339D02*
G75*
G02*
X184063431Y-171503169I2560000J-1544830D01*
G01*
X184063431Y-171503169D02*
G75*
G02*
X178513430Y-173048000I-2990000J-2D01*
G01*
X183573432Y-171503169D02*
G75*
G02*
X178573432Y-171503169I-2500000J0D01*
G01*
X178573432Y-171503169D02*
G75*
G02*
X183573432Y-171503169I2500000J0D01*
G01*
%TO.C,D30*%
X159613431Y-201608169D02*
X159613431Y-204698169D01*
X159613431Y-201608339D02*
G75*
G02*
X165163431Y-203153169I2560000J-1544830D01*
G01*
X165163431Y-203153169D02*
G75*
G02*
X159613430Y-204698000I-2990000J-2D01*
G01*
X164673432Y-203153169D02*
G75*
G02*
X159673432Y-203153169I-2500000J0D01*
G01*
X159673432Y-203153169D02*
G75*
G02*
X164673432Y-203153169I2500000J0D01*
G01*
%TO.C,D16*%
X159738040Y-159159920D02*
X157553080Y-156974960D01*
X154721117Y-161991883D02*
G75*
G02*
X157553200Y-156975079I2114248J2114251D01*
G01*
X159737920Y-159159800D02*
G75*
G02*
X154721116Y-161991884I-2902554J-717834D01*
G01*
X159335366Y-159877634D02*
G75*
G02*
X154335366Y-159877634I-2500000J0D01*
G01*
X154335366Y-159877634D02*
G75*
G02*
X159335366Y-159877634I2500000J0D01*
G01*
%TO.C,D32*%
X167173431Y-188948169D02*
X167173431Y-192038169D01*
X167173431Y-188948339D02*
G75*
G02*
X172723431Y-190493169I2560000J-1544830D01*
G01*
X172723431Y-190493169D02*
G75*
G02*
X167173430Y-192038000I-2990000J-2D01*
G01*
X172233432Y-190493169D02*
G75*
G02*
X167233432Y-190493169I-2500000J0D01*
G01*
X167233432Y-190493169D02*
G75*
G02*
X172233432Y-190493169I2500000J0D01*
G01*
%TO.C,D44*%
X168775583Y-140587257D02*
X170960543Y-142772217D01*
X168775703Y-140587377D02*
G75*
G02*
X173792507Y-137755293I2902554J717834D01*
G01*
X173792506Y-137755294D02*
G75*
G02*
X170960423Y-142772098I-2114248J-2114251D01*
G01*
X174178257Y-139869543D02*
G75*
G02*
X169178257Y-139869543I-2500000J0D01*
G01*
X169178257Y-139869543D02*
G75*
G02*
X174178257Y-139869543I2500000J0D01*
G01*
%TO.C,D22*%
X152538040Y-202479920D02*
X150353080Y-200294960D01*
X147521117Y-205311883D02*
G75*
G02*
X150353200Y-200295079I2114248J2114251D01*
G01*
X152537920Y-202479800D02*
G75*
G02*
X147521116Y-205311884I-2902554J-717834D01*
G01*
X152135366Y-203197634D02*
G75*
G02*
X147135366Y-203197634I-2500000J0D01*
G01*
X147135366Y-203197634D02*
G75*
G02*
X152135366Y-203197634I2500000J0D01*
G01*
%TO.C,D37*%
X186073431Y-157298169D02*
X186073431Y-160388169D01*
X186073431Y-157298339D02*
G75*
G02*
X191623431Y-158843169I2560000J-1544830D01*
G01*
X191623431Y-158843169D02*
G75*
G02*
X186073430Y-160388000I-2990000J-2D01*
G01*
X191133432Y-158843169D02*
G75*
G02*
X186133432Y-158843169I-2500000J0D01*
G01*
X186133432Y-158843169D02*
G75*
G02*
X191133432Y-158843169I2500000J0D01*
G01*
%TO.C,D20*%
X154938040Y-188039920D02*
X152753080Y-185854960D01*
X149921117Y-190871883D02*
G75*
G02*
X152753200Y-185855079I2114248J2114251D01*
G01*
X154937920Y-188039800D02*
G75*
G02*
X149921116Y-190871884I-2902554J-717834D01*
G01*
X154535366Y-188757634D02*
G75*
G02*
X149535366Y-188757634I-2500000J0D01*
G01*
X149535366Y-188757634D02*
G75*
G02*
X154535366Y-188757634I2500000J0D01*
G01*
%TO.C,D38*%
X189853431Y-150968169D02*
X189853431Y-154058169D01*
X189853431Y-150968339D02*
G75*
G02*
X195403431Y-152513169I2560000J-1544830D01*
G01*
X195403431Y-152513169D02*
G75*
G02*
X189853430Y-154058000I-2990000J-2D01*
G01*
X194913432Y-152513169D02*
G75*
G02*
X189913432Y-152513169I-2500000J0D01*
G01*
X189913432Y-152513169D02*
G75*
G02*
X194913432Y-152513169I2500000J0D01*
G01*
%TO.C,D40*%
X197087583Y-140587257D02*
X199272543Y-142772217D01*
X197087703Y-140587377D02*
G75*
G02*
X202104507Y-137755293I2902554J717834D01*
G01*
X202104506Y-137755294D02*
G75*
G02*
X199272423Y-142772098I-2114248J-2114251D01*
G01*
X202490257Y-139869543D02*
G75*
G02*
X197490257Y-139869543I-2500000J0D01*
G01*
X197490257Y-139869543D02*
G75*
G02*
X202490257Y-139869543I2500000J0D01*
G01*
%TO.C,D39*%
X193633431Y-144638169D02*
X193633431Y-147728169D01*
X193633431Y-144638339D02*
G75*
G02*
X199183431Y-146183169I2560000J-1544830D01*
G01*
X199183431Y-146183169D02*
G75*
G02*
X193633430Y-147728000I-2990000J-2D01*
G01*
X198693432Y-146183169D02*
G75*
G02*
X193693432Y-146183169I-2500000J0D01*
G01*
X193693432Y-146183169D02*
G75*
G02*
X198693432Y-146183169I2500000J0D01*
G01*
%TO.C,D14*%
X162138040Y-144719920D02*
X159953080Y-142534960D01*
X157121117Y-147551883D02*
G75*
G02*
X159953200Y-142535079I2114248J2114251D01*
G01*
X162137920Y-144719800D02*
G75*
G02*
X157121116Y-147551884I-2902554J-717834D01*
G01*
X161735366Y-145437634D02*
G75*
G02*
X156735366Y-145437634I-2500000J0D01*
G01*
X156735366Y-145437634D02*
G75*
G02*
X161735366Y-145437634I2500000J0D01*
G01*
%TO.C,D27*%
X148273431Y-220598169D02*
X148273431Y-223688169D01*
X148273431Y-220598339D02*
G75*
G02*
X153823431Y-222143169I2560000J-1544830D01*
G01*
X153823431Y-222143169D02*
G75*
G02*
X148273430Y-223688000I-2990000J-2D01*
G01*
X153333432Y-222143169D02*
G75*
G02*
X148333432Y-222143169I-2500000J0D01*
G01*
X148333432Y-222143169D02*
G75*
G02*
X153333432Y-222143169I2500000J0D01*
G01*
%TO.C,D34*%
X174733431Y-176288169D02*
X174733431Y-179378169D01*
X174733431Y-176288339D02*
G75*
G02*
X180283431Y-177833169I2560000J-1544830D01*
G01*
X180283431Y-177833169D02*
G75*
G02*
X174733430Y-179378000I-2990000J-2D01*
G01*
X179793432Y-177833169D02*
G75*
G02*
X174793432Y-177833169I-2500000J0D01*
G01*
X174793432Y-177833169D02*
G75*
G02*
X179793432Y-177833169I2500000J0D01*
G01*
%TO.C,D41*%
X190009583Y-140587257D02*
X192194543Y-142772217D01*
X190009703Y-140587377D02*
G75*
G02*
X195026507Y-137755293I2902554J717834D01*
G01*
X195026506Y-137755294D02*
G75*
G02*
X192194423Y-142772098I-2114248J-2114251D01*
G01*
X195412257Y-139869543D02*
G75*
G02*
X190412257Y-139869543I-2500000J0D01*
G01*
X190412257Y-139869543D02*
G75*
G02*
X195412257Y-139869543I2500000J0D01*
G01*
%TO.C,D43*%
X175853583Y-140587257D02*
X178038543Y-142772217D01*
X175853703Y-140587377D02*
G75*
G02*
X180870507Y-137755293I2902554J717834D01*
G01*
X180870506Y-137755294D02*
G75*
G02*
X178038423Y-142772098I-2114248J-2114251D01*
G01*
X181256257Y-139869543D02*
G75*
G02*
X176256257Y-139869543I-2500000J0D01*
G01*
X176256257Y-139869543D02*
G75*
G02*
X181256257Y-139869543I2500000J0D01*
G01*
%TO.C,D21*%
X153738040Y-195259920D02*
X151553080Y-193074960D01*
X148721117Y-198091883D02*
G75*
G02*
X151553200Y-193075079I2114248J2114251D01*
G01*
X153737920Y-195259800D02*
G75*
G02*
X148721116Y-198091884I-2902554J-717834D01*
G01*
X153335366Y-195977634D02*
G75*
G02*
X148335366Y-195977634I-2500000J0D01*
G01*
X148335366Y-195977634D02*
G75*
G02*
X153335366Y-195977634I2500000J0D01*
G01*
%TO.C,D18*%
X157338040Y-173599920D02*
X155153080Y-171414960D01*
X152321117Y-176431883D02*
G75*
G02*
X155153200Y-171415079I2114248J2114251D01*
G01*
X157337920Y-173599800D02*
G75*
G02*
X152321116Y-176431884I-2902554J-717834D01*
G01*
X156935366Y-174317634D02*
G75*
G02*
X151935366Y-174317634I-2500000J0D01*
G01*
X151935366Y-174317634D02*
G75*
G02*
X156935366Y-174317634I2500000J0D01*
G01*
%TO.C,D25*%
X148938040Y-224139920D02*
X146753080Y-221954960D01*
X143921117Y-226971883D02*
G75*
G02*
X146753200Y-221955079I2114248J2114251D01*
G01*
X148937920Y-224139800D02*
G75*
G02*
X143921116Y-226971884I-2902554J-717834D01*
G01*
X148535366Y-224857634D02*
G75*
G02*
X143535366Y-224857634I-2500000J0D01*
G01*
X143535366Y-224857634D02*
G75*
G02*
X148535366Y-224857634I2500000J0D01*
G01*
%TO.C,D31*%
X163393431Y-195278169D02*
X163393431Y-198368169D01*
X163393431Y-195278339D02*
G75*
G02*
X168943431Y-196823169I2560000J-1544830D01*
G01*
X168943431Y-196823169D02*
G75*
G02*
X163393430Y-198368000I-2990000J-2D01*
G01*
X168453432Y-196823169D02*
G75*
G02*
X163453432Y-196823169I-2500000J0D01*
G01*
X163453432Y-196823169D02*
G75*
G02*
X168453432Y-196823169I2500000J0D01*
G01*
%TD*%
M02*
