M48
; DRILL file {KiCad 9.0.5} date 2025-11-03T11:52:28+0200
; FORMAT={-:-/ absolute / metric / decimal}
; #@! TF.CreationDate,2025-11-03T11:52:28+02:00
; #@! TF.GenerationSoftware,Kicad,Pcbnew,9.0.5
; #@! TF.FileFunction,Plated,1,2,PTH
FMAT,2
METRIC
; #@! TA.AperFunction,Plated,PTH,ViaDrill
T1C0.300
; #@! TA.AperFunction,Plated,PTH,ComponentDrill
T2C0.800
; #@! TA.AperFunction,Plated,PTH,ComponentDrill
T3C0.900
%
G90
G05
T1
X60.5Y-131.0
X66.5Y-133.5
X70.0Y-116.0
X73.0Y-112.0
X76.0Y-133.5
X78.0Y-142.0
X80.5Y-109.0
X83.0Y-102.5
X83.0Y-113.5
X83.0Y-116.0
X84.0Y-108.0
X84.5Y-134.5
X84.5Y-136.5
X84.954Y-132.5
X87.0Y-100.0
X87.0Y-102.5
X87.5Y-94.0
X88.0Y-134.0
X90.5Y-103.5
X91.0Y-90.0
X92.5Y-102.5
X92.5Y-103.5
X92.5Y-116.0
X93.5Y-90.5
X93.5Y-113.5
X96.5Y-77.5
X96.5Y-140.5
X97.0Y-95.5
X98.5Y-120.0
X99.5Y-131.5
X99.5Y-133.5
X100.0Y-76.0
X101.5Y-131.5
X101.5Y-133.5
X102.0Y-92.5
X102.0Y-97.5
X103.0Y-91.5
X103.0Y-99.5
X103.5Y-76.0
X103.5Y-106.5
X104.0Y-67.0
X104.0Y-94.0
X104.0Y-100.5
X104.5Y-71.0
X105.5Y-85.0
X105.5Y-92.0
X106.0Y-96.0
X106.0Y-100.0
X107.0Y-100.0
X107.0Y-101.5
X107.95Y-133.0
X108.326Y-99.326
X108.5Y-78.0
X108.5Y-131.5
X108.5Y-137.0
X109.0Y-74.5
X110.5Y-62.0
X110.5Y-76.0
X110.5Y-119.0
X110.5Y-134.5
X110.5Y-136.5
X111.0Y-86.5
X111.0Y-94.0
X112.0Y-81.5
X112.0Y-86.5
X112.5Y-74.0
X113.0Y-87.5
X113.0Y-251.0
X114.0Y-99.5
X114.0Y-239.5
X114.5Y-86.5
X115.0Y-57.0
X115.0Y-89.5
X115.5Y-84.0
X115.5Y-228.5
X116.0Y-75.5
X116.0Y-88.534
X116.0Y-90.5
X116.0Y-138.0
X116.225Y-217.625
X117.0Y-90.5
X117.5Y-56.0
X117.5Y-106.5
X118.0Y-215.0
X118.0Y-236.5
X118.5Y-60.5
X119.5Y-93.0
X119.5Y-94.5
X119.5Y-146.0
X119.5Y-153.0
X120.0Y-89.0
X120.0Y-196.0
X120.5Y-82.5
X121.0Y-88.0
X121.5Y-66.5
X121.5Y-93.0
X121.5Y-99.5
X122.0Y-94.5
X122.0Y-181.5
X122.5Y-151.0
X123.0Y-76.5
X123.0Y-85.5
X123.0Y-195.0
X123.0Y-217.0
X123.5Y-169.0
X124.0Y-149.0
X124.5Y-60.5
X124.5Y-76.5
X124.5Y-85.0
X124.5Y-91.0
X125.5Y-160.5
X126.0Y-84.0
X126.0Y-88.5
X126.0Y-90.0
X126.0Y-151.0
X126.0Y-216.0
X126.0Y-219.0
X126.0Y-224.0
X126.5Y-182.5
X127.0Y-85.0
X127.0Y-200.0
X127.0Y-235.5
X127.5Y-115.0
X129.5Y-124.0
X130.0Y-136.0
X130.5Y-62.0
X130.5Y-153.0
X131.0Y-151.0
X131.5Y-55.0
X132.0Y-66.5
X132.0Y-88.0
X132.057Y-136.084
X132.5Y-224.0
X132.735Y-102.735
X133.399Y-84.164
X133.5Y-213.5
X133.5Y-220.5
X134.0Y-140.5
X134.0Y-158.5
X134.693Y-54.193
X135.5Y-187.0
X136.0Y-149.0
X136.0Y-213.5
X136.0Y-215.5
X137.0Y-184.0
X138.5Y-56.0
X138.5Y-171.0
X138.5Y-213.5
X139.5Y-59.0
X140.5Y-146.5
X140.5Y-150.5
X141.0Y-26.5
X142.0Y-189.5
X142.5Y-28.0
X142.5Y-33.5
X143.0Y-202.5
X144.0Y-152.5
X144.5Y-173.5
X146.0Y-203.0
X147.5Y-148.0
X147.5Y-171.0
X149.0Y-23.0
X149.0Y-24.5
X149.5Y-188.5
X151.0Y-153.5
X152.5Y-168.5
X154.0Y-152.5
X154.0Y-175.5
X156.0Y-190.0
X157.5Y-178.0
X158.0Y-194.0
X160.0Y-147.0
X162.0Y-181.5
X162.5Y-155.5
X165.5Y-172.5
X168.5Y-166.5
X169.0Y-147.0
X170.5Y-156.0
X171.5Y-172.5
X173.5Y-169.0
X177.0Y-168.0
X177.5Y-153.5
X185.5Y-158.5
X187.0Y-155.5
X197.0Y-146.5
T2
X115.0Y-103.0
X117.0Y-103.0
T3
X53.46Y-138.5
X56.0Y-138.5
X59.46Y-127.5
X61.42Y-138.5
X62.0Y-127.5
X63.96Y-138.5
X64.96Y-121.0
X67.5Y-121.0
X69.685Y-138.5
X70.46Y-114.0
X72.225Y-138.5
X73.0Y-114.0
X76.96Y-106.0
X79.185Y-140.0
X79.5Y-106.0
X81.725Y-140.0
X84.185Y-97.5
X86.725Y-97.5
X89.185Y-140.0
X91.725Y-140.0
X91.96Y-88.0
X94.5Y-88.0
X98.685Y-78.5
X99.185Y-140.0
X101.225Y-78.5
X101.725Y-140.0
X105.235Y-69.0
X107.225Y-140.0
X107.775Y-69.0
X109.765Y-140.0
X111.96Y-60.0
X112.96Y-253.0
X114.0Y-242.5
X114.5Y-60.0
X114.96Y-140.0
X115.225Y-232.0
X115.5Y-253.0
X116.225Y-221.0
X116.54Y-242.5
X117.5Y-140.0
X117.725Y-212.0
X117.765Y-232.0
X118.765Y-221.0
X119.225Y-200.5
X119.96Y-50.0
X120.265Y-212.0
X120.46Y-246.5
X120.725Y-188.5
X121.765Y-200.5
X122.225Y-177.5
X122.46Y-140.5
X122.5Y-50.0
X123.0Y-246.5
X123.265Y-188.5
X123.46Y-166.5
X124.765Y-177.5
X125.0Y-140.5
X125.225Y-157.0
X126.0Y-166.5
X126.225Y-148.5
X126.96Y-238.5
X127.765Y-157.0
X128.225Y-131.5
X128.765Y-148.5
X129.225Y-120.0
X129.5Y-238.5
X130.765Y-131.5
X131.765Y-120.0
X132.46Y-230.5
X132.735Y-106.5
X133.96Y-143.0
X134.735Y-96.5
X135.0Y-230.5
X135.275Y-106.5
X135.725Y-31.5
X136.235Y-87.0
X136.5Y-143.0
X137.275Y-96.5
X138.235Y-76.0
X138.265Y-31.5
X138.775Y-87.0
X140.225Y-221.0
X140.235Y-65.0
X140.775Y-76.0
X141.96Y-143.0
X142.225Y-24.0
X142.235Y-54.5
X142.765Y-221.0
X142.775Y-65.0
X144.5Y-143.0
X144.765Y-24.0
X144.775Y-54.5
X145.235Y-44.5
X146.725Y-212.5
X147.775Y-44.5
X148.235Y-32.5
X149.265Y-212.5
X150.5Y-21.0
X150.775Y-32.5
X150.96Y-143.0
X152.725Y-204.0
X153.04Y-21.0
X153.5Y-143.0
X155.265Y-204.0
X158.725Y-197.5
X159.96Y-143.0
X161.265Y-197.5
X162.5Y-143.0
X164.225Y-190.0
X166.765Y-190.0
X168.96Y-143.0
X170.225Y-183.5
X171.5Y-143.0
X172.765Y-183.5
X175.5Y-175.5
X177.46Y-143.0
X178.04Y-175.5
X180.0Y-143.0
X180.775Y-168.0
X183.315Y-168.0
X186.775Y-161.0
X187.0Y-142.5
X189.315Y-161.0
X189.54Y-142.5
X192.5Y-154.5
X195.04Y-154.5
X201.725Y-142.5
X204.265Y-142.5
M30
