M48
; DRILL file {KiCad 9.0.7} date 2026-02-10T16:13:06+0200
; FORMAT={-:-/ absolute / metric / decimal}
; #@! TF.CreationDate,2026-02-10T16:13:06+02:00
; #@! TF.GenerationSoftware,Kicad,Pcbnew,9.0.7
; #@! TF.FileFunction,Plated,1,2,PTH
FMAT,2
METRIC
; #@! TA.AperFunction,Plated,PTH,ViaDrill
T1C0.800
; #@! TA.AperFunction,Plated,PTH,ComponentDrill
T2C0.800
; #@! TA.AperFunction,Plated,PTH,ComponentDrill
T3C1.200
%
G90
G05
T1
X94.488Y-130.556
X96.575Y-139.192
X98.15Y-139.874
X98.225Y-136.666
X99.687Y-137.534
X101.077Y-135.593
X105.156Y-133.604
X105.156Y-137.16
X107.696Y-119.888
X109.22Y-123.952
X109.33Y-120.407
X111.252Y-145.796
X111.338Y-139.613
X111.76Y-134.62
X112.093Y-124.01
X112.268Y-119.888
X112.379Y-127.95
X112.757Y-131.768
X113.295Y-125.212
X114.3Y-133.096
X114.808Y-102.616
X114.808Y-105.156
X117.541Y-116.017
X118.872Y-138.684
X119.38Y-121.92
X119.38Y-134.62
X119.888Y-118.364
X119.888Y-130.556
X120.909Y-101.605
X121.226Y-99.123
X121.412Y-148.336
X121.412Y-156.972
X121.812Y-134.651
X121.92Y-117.856
X122.428Y-113.284
X123.444Y-135.128
X123.952Y-97.536
X124.46Y-93.472
X124.46Y-95.504
X125.476Y-157.48
X125.65Y-124.648
X125.984Y-91.948
X126.185Y-89.653
X126.492Y-118.364
X126.492Y-128.524
X126.666Y-187.198
X126.827Y-88.079
X127.955Y-86.807
X128.016Y-185.42
X128.524Y-107.696
X129.54Y-183.896
X131.064Y-182.372
X131.572Y-162.052
X132.588Y-180.848
X132.842Y-155.471
X134.112Y-173.341
X134.112Y-179.324
X134.301Y-148.59
X138.176Y-155.956
X140.208Y-154.94
X141.635Y-146.909
X142.299Y-148.474
X143.002Y-169.164
X143.764Y-149.86
X144.78Y-153.59
X146.812Y-151.892
X146.812Y-163.576
X148.844Y-161.544
X150.724Y-163.039
X152.4Y-162.56
X152.4Y-166.116
T2
X104.648Y-126.492
X104.648Y-128.492
T3
X82.296Y-143.0
X84.836Y-143.0
X85.867Y-137.312
X88.407Y-137.312
X88.722Y-142.977
X89.682Y-132.055
X91.262Y-142.977
X92.222Y-132.055
X93.467Y-126.695
X95.225Y-143.0
X96.007Y-126.695
X97.226Y-121.26
X97.765Y-143.0
X99.766Y-121.26
X101.011Y-115.875
X101.725Y-143.0
X103.551Y-115.875
X104.265Y-143.0
X104.694Y-110.439
X107.234Y-110.439
X108.225Y-143.0
X108.631Y-105.131
X110.765Y-143.0
X111.171Y-105.131
X112.288Y-99.644
X114.376Y-219.119
X114.725Y-143.0
X114.828Y-99.644
X115.225Y-212.621
X116.098Y-94.209
X116.225Y-206.121
X116.916Y-219.119
X117.265Y-143.0
X117.46Y-199.621
X117.765Y-212.621
X118.46Y-193.121
X118.638Y-94.209
X118.765Y-206.121
X119.46Y-186.621
X119.908Y-88.798
X120.0Y-199.621
X120.725Y-180.121
X121.0Y-193.121
X121.157Y-143.025
X121.564Y-213.131
X121.725Y-173.621
X122.0Y-186.621
X122.448Y-88.798
X122.725Y-167.121
X123.265Y-180.121
X123.642Y-83.414
X123.697Y-143.025
X123.96Y-160.621
X124.104Y-213.131
X124.265Y-173.621
X124.612Y-207.162
X124.96Y-154.121
X125.265Y-167.121
X125.73Y-147.621
X126.182Y-83.414
X126.5Y-160.621
X127.0Y-138.5
X127.152Y-207.162
X127.477Y-78.029
X127.5Y-154.121
X127.725Y-131.75
X128.27Y-147.621
X128.473Y-201.905
X128.725Y-125.25
X129.54Y-138.5
X129.99Y-118.75
X130.017Y-78.029
X130.265Y-131.75
X130.765Y-112.25
X131.013Y-201.905
X131.265Y-125.25
X131.313Y-72.441
X131.46Y-143.0
X131.99Y-105.75
X132.029Y-196.494
X132.53Y-118.75
X132.99Y-99.25
X133.305Y-112.25
X133.853Y-72.441
X133.99Y-92.75
X134.0Y-143.0
X134.53Y-105.75
X134.569Y-196.494
X135.265Y-86.25
X135.53Y-99.25
X135.687Y-191.338
X136.53Y-92.75
X136.765Y-79.75
X137.49Y-73.25
X137.725Y-143.0
X137.805Y-86.25
X137.968Y-66.5
X138.227Y-191.338
X139.167Y-185.928
X139.305Y-79.75
X140.03Y-73.25
X140.265Y-143.0
X140.508Y-66.5
X141.707Y-185.928
X143.002Y-180.619
X144.225Y-143.0
X145.542Y-180.619
X146.736Y-174.93
X146.765Y-143.0
X149.276Y-174.93
X150.724Y-169.621
X150.725Y-143.0
X153.264Y-169.621
X153.265Y-143.0
X154.432Y-164.389
X156.972Y-164.389
X157.225Y-143.0
X158.445Y-159.156
X159.765Y-143.0
X160.985Y-159.156
X162.611Y-153.924
X163.725Y-143.0
X165.151Y-153.924
X166.265Y-143.0
X166.649Y-148.539
X169.189Y-148.539
X170.18Y-143.0
X172.72Y-143.0
M30
