M48
; DRILL file {KiCad 9.0.7} date 2026-02-20T01:23:30+0200
; FORMAT={-:-/ absolute / metric / decimal}
; #@! TF.CreationDate,2026-02-20T01:23:30+02:00
; #@! TF.GenerationSoftware,Kicad,Pcbnew,9.0.7
; #@! TF.FileFunction,Plated,1,2,PTH
FMAT,2
METRIC
; #@! TA.AperFunction,Plated,PTH,ViaDrill
T1C0.800
; #@! TA.AperFunction,Plated,PTH,ComponentDrill
T2C0.800
; #@! TA.AperFunction,Plated,PTH,ComponentDrill
T3C0.900
%
G90
G05
T1
X95.504Y-133.477
X97.17Y-136.379
X97.875Y-133.686
X98.171Y-138.811
X101.439Y-130.397
X102.21Y-139.294
X102.235Y-137.541
X104.14Y-130.556
X105.664Y-121.731
X109.517Y-125.9
X109.586Y-114.92
X110.41Y-108.392
X110.889Y-124.896
X112.321Y-129.745
X113.077Y-115.247
X113.137Y-108.815
X113.284Y-128.177
X114.627Y-123.177
X115.57Y-125.476
X115.712Y-133.513
X116.078Y-120.396
X116.459Y-109.093
X116.713Y-103.759
X117.475Y-115.57
X117.729Y-131.711
X117.732Y-124.059
X117.856Y-232.029
X118.11Y-107.315
X119.516Y-102.244
X119.768Y-96.527
X120.189Y-138.833
X120.505Y-202.913
X120.972Y-129.095
X122.428Y-119.38
X122.809Y-195.707
X123.198Y-100.33
X123.378Y-116.28
X123.444Y-89.662
X123.655Y-97.874
X123.698Y-188.722
X124.038Y-117.846
X124.141Y-121.487
X124.206Y-113.284
X124.728Y-207.667
X124.794Y-91.694
X124.904Y-105.6
X125.28Y-180.735
X125.28Y-182.435
X125.861Y-110.613
X126.174Y-193.738
X127.254Y-105.918
X127.366Y-83.947
X127.762Y-140.335
X128.016Y-110.236
X128.016Y-189.357
X128.37Y-104.544
X128.397Y-107.696
X128.609Y-166.992
X129.413Y-133.223
X129.513Y-160.2
X129.514Y-103.194
X130.175Y-177.038
X130.226Y-152.171
X130.683Y-179.832
X130.81Y-113.284
X131.191Y-182.88
X131.699Y-200.406
X131.953Y-202.438
X132.082Y-165.704
X132.14Y-178.956
X132.334Y-111.252
X132.381Y-96.266
X132.802Y-167.244
X132.944Y-147.777
X133.345Y-84.383
X133.492Y-104.028
X134.112Y-193.675
X134.277Y-186.398
X134.286Y-89.662
X134.715Y-195.802
X134.965Y-97.449
X134.971Y-179.762
X135.636Y-159.309
X136.321Y-178.412
X137.033Y-90.17
X137.16Y-83.058
X137.668Y-189.357
X138.532Y-162.509
X139.929Y-160.968
X140.36Y-55.27
X141.351Y-183.134
X142.701Y-177.85
X142.701Y-181.068
X143.637Y-146.812
X145.176Y-166.359
X145.288Y-161.747
X145.491Y-164.135
X146.304Y-147.273
X146.99Y-170.703
X148.27Y-151.958
X150.694Y-151.486
X151.181Y-161.798
X153.394Y-152.857
T2
X104.546Y-136.855
X105.961Y-138.269
X109.982Y-138.303
X112.522Y-135.763
X113.741Y-139.649
X115.57Y-137.363
X118.491Y-137.795
X120.523Y-135.763
X122.834Y-127.762
X123.063Y-133.223
X123.088Y-137.566
X124.816Y-125.781
X124.866Y-135.23
X126.111Y-129.794
X127.152Y-126.949
X132.588Y-151.689
X132.74Y-155.296
X133.807Y-158.293
X135.636Y-150.825
X135.941Y-147.422
X136.5Y-155.042
X138.481Y-153.06
X138.684Y-149.454
X139.141Y-156.312
X140.462Y-151.13
X140.665Y-147.523
X141.478Y-154.026
X144.882Y-152.197
T3
X88.549Y-143.884
X90.345Y-142.088
X91.974Y-136.672
X94.514Y-136.672
X95.627Y-143.884
X95.754Y-130.342
X97.423Y-142.088
X98.294Y-130.342
X99.534Y-124.012
X102.074Y-124.012
X102.705Y-143.884
X103.314Y-117.682
X104.501Y-142.088
X105.854Y-117.682
X107.094Y-111.352
X109.634Y-111.352
X109.783Y-143.884
X110.874Y-105.022
X111.579Y-142.088
X112.999Y-236.048
X113.414Y-105.022
X114.277Y-228.904
X114.654Y-98.692
X114.795Y-234.252
X115.477Y-221.684
X116.073Y-227.108
X116.677Y-214.464
X116.861Y-143.884
X117.194Y-98.692
X117.273Y-219.888
X117.877Y-207.244
X118.434Y-92.362
X118.473Y-212.668
X118.657Y-142.088
X118.703Y-225.292
X119.077Y-200.024
X119.673Y-205.448
X120.277Y-192.804
X120.873Y-198.228
X120.974Y-92.362
X121.243Y-225.292
X121.477Y-185.584
X122.073Y-191.008
X122.214Y-86.032
X122.483Y-218.962
X122.677Y-178.364
X123.273Y-183.788
X123.877Y-171.144
X123.939Y-143.884
X124.473Y-176.568
X124.754Y-86.032
X125.023Y-218.962
X125.077Y-163.924
X125.673Y-169.348
X125.735Y-142.088
X125.994Y-79.702
X126.263Y-212.632
X126.277Y-156.704
X126.873Y-162.128
X127.477Y-149.484
X128.073Y-154.908
X128.534Y-79.702
X128.803Y-212.632
X129.273Y-147.688
X129.304Y-138.316
X129.774Y-73.372
X130.043Y-206.302
X130.504Y-131.096
X131.1Y-136.52
X131.704Y-123.876
X132.3Y-129.3
X132.314Y-73.372
X132.583Y-206.302
X132.842Y-143.916
X132.904Y-116.656
X133.5Y-122.08
X133.554Y-67.042
X133.823Y-199.972
X134.104Y-109.436
X134.638Y-142.12
X134.7Y-114.86
X135.304Y-102.216
X135.9Y-107.64
X136.094Y-67.042
X136.363Y-199.972
X136.504Y-94.996
X137.1Y-100.42
X137.334Y-60.712
X137.603Y-193.642
X137.704Y-87.776
X138.3Y-93.2
X138.904Y-80.556
X139.5Y-85.98
X139.874Y-60.712
X139.92Y-143.916
X140.104Y-73.336
X140.143Y-193.642
X140.7Y-78.76
X141.304Y-66.116
X141.383Y-187.312
X141.716Y-142.12
X141.9Y-71.54
X142.504Y-58.896
X143.1Y-64.32
X143.782Y-51.752
X143.923Y-187.312
X144.3Y-57.1
X145.163Y-180.982
X145.578Y-49.956
X146.998Y-143.916
X147.703Y-180.982
X148.794Y-142.12
X148.943Y-174.652
X151.483Y-174.652
X152.723Y-168.322
X154.076Y-143.916
X155.263Y-168.322
X155.872Y-142.12
X156.503Y-161.992
X159.043Y-161.992
X160.283Y-155.662
X161.154Y-143.916
X162.823Y-155.662
X162.95Y-142.12
X164.063Y-149.332
X166.603Y-149.332
X168.232Y-143.916
X170.028Y-142.12
M30
