%TF.GenerationSoftware,KiCad,Pcbnew,9.0.7*%
%TF.CreationDate,2026-02-20T01:23:32+02:00*%
%TF.ProjectId,kicad_selka_mk1,6b696361-645f-4736-956c-6b615f6d6b31,rev?*%
%TF.SameCoordinates,Original*%
%TF.FileFunction,Soldermask,Top*%
%TF.FilePolarity,Negative*%
%FSLAX46Y46*%
G04 Gerber Fmt 4.6, Leading zero omitted, Abs format (unit mm)*
G04 Created by KiCad (PCBNEW 9.0.7) date 2026-02-20 01:23:32*
%MOMM*%
%LPD*%
G01*
G04 APERTURE LIST*
G04 Aperture macros list*
%AMRotRect*
0 Rectangle, with rotation*
0 The origin of the aperture is its center*
0 $1 length*
0 $2 width*
0 $3 Rotation angle, in degrees counterclockwise*
0 Add horizontal line*
21,1,$1,$2,0,0,$3*%
G04 Aperture macros list end*
%ADD10R,1.800000X1.800000*%
%ADD11C,1.800000*%
%ADD12RotRect,1.800000X1.800000X225.000000*%
%ADD13RotRect,1.800000X1.800000X45.000000*%
%ADD14C,1.400000*%
%ADD15RotRect,1.350000X1.350000X225.000000*%
%ADD16C,1.350000*%
G04 APERTURE END LIST*
D10*
%TO.C,D31*%
X133823200Y-199972000D03*
D11*
X136363200Y-199972000D03*
%TD*%
D12*
%TO.C,D18*%
X124473161Y-176568439D03*
D11*
X122677110Y-178364490D03*
%TD*%
D12*
%TO.C,D25*%
X116073161Y-227108439D03*
D11*
X114277110Y-228904490D03*
%TD*%
D12*
%TO.C,D46*%
X125735000Y-142087600D03*
D11*
X123938949Y-143883651D03*
%TD*%
D10*
%TO.C,D62*%
X132313800Y-73372000D03*
D11*
X129773800Y-73372000D03*
%TD*%
D10*
%TO.C,D60*%
X124753800Y-86032000D03*
D11*
X122213800Y-86032000D03*
%TD*%
D13*
%TO.C,D10*%
X132903839Y-116655561D03*
D11*
X134699890Y-114859510D03*
%TD*%
D12*
%TO.C,D21*%
X120873161Y-198228439D03*
D11*
X119077110Y-200024490D03*
%TD*%
D13*
%TO.C,D43*%
X146998000Y-143916400D03*
D11*
X148794051Y-142120349D03*
%TD*%
D13*
%TO.C,D41*%
X161154000Y-143916400D03*
D11*
X162950051Y-142120349D03*
%TD*%
D10*
%TO.C,D34*%
X145163200Y-180982000D03*
D11*
X147703200Y-180982000D03*
%TD*%
D10*
%TO.C,D27*%
X118703200Y-225292000D03*
D11*
X121243200Y-225292000D03*
%TD*%
D13*
%TO.C,D11*%
X131703839Y-123875561D03*
D11*
X133499890Y-122079510D03*
%TD*%
D12*
%TO.C,D14*%
X129273161Y-147688439D03*
D11*
X127477110Y-149484490D03*
%TD*%
D10*
%TO.C,D58*%
X117193800Y-98692000D03*
D11*
X114653800Y-98692000D03*
%TD*%
D10*
%TO.C,D39*%
X164063200Y-149332000D03*
D11*
X166603200Y-149332000D03*
%TD*%
D10*
%TO.C,D56*%
X109633800Y-111352000D03*
D11*
X107093800Y-111352000D03*
%TD*%
D10*
%TO.C,D57*%
X113413800Y-105022000D03*
D11*
X110873800Y-105022000D03*
%TD*%
D12*
%TO.C,D47*%
X118657000Y-142087600D03*
D11*
X116860949Y-143883651D03*
%TD*%
D13*
%TO.C,D1*%
X143781839Y-51752361D03*
D11*
X145577890Y-49956310D03*
%TD*%
D13*
%TO.C,D40*%
X168232000Y-143916400D03*
D11*
X170028051Y-142120349D03*
%TD*%
D10*
%TO.C,D38*%
X160283200Y-155662000D03*
D11*
X162823200Y-155662000D03*
%TD*%
D10*
%TO.C,D54*%
X102073800Y-124012000D03*
D11*
X99533800Y-124012000D03*
%TD*%
D12*
%TO.C,D20*%
X122073161Y-191008439D03*
D11*
X120277110Y-192804490D03*
%TD*%
D10*
%TO.C,D63*%
X136093800Y-67042000D03*
D11*
X133553800Y-67042000D03*
%TD*%
D13*
%TO.C,D2*%
X142503839Y-58895561D03*
D11*
X144299890Y-57099510D03*
%TD*%
D12*
%TO.C,D22*%
X119673161Y-205448439D03*
D11*
X117877110Y-207244490D03*
%TD*%
D12*
%TO.C,D49*%
X104501000Y-142087600D03*
D11*
X102704949Y-143883651D03*
%TD*%
D13*
%TO.C,D44*%
X139920000Y-143916400D03*
D11*
X141716051Y-142120349D03*
%TD*%
D10*
%TO.C,D32*%
X137603200Y-193642000D03*
D11*
X140143200Y-193642000D03*
%TD*%
D12*
%TO.C,D48*%
X111579000Y-142087600D03*
D11*
X109782949Y-143883651D03*
%TD*%
D12*
%TO.C,D16*%
X126873161Y-162128439D03*
D11*
X125077110Y-163924490D03*
%TD*%
D12*
%TO.C,D51*%
X90345000Y-142087600D03*
D11*
X88548949Y-143883651D03*
%TD*%
D10*
%TO.C,D30*%
X130043200Y-206302000D03*
D11*
X132583200Y-206302000D03*
%TD*%
D13*
%TO.C,D8*%
X135303839Y-102215561D03*
D11*
X137099890Y-100419510D03*
%TD*%
D10*
%TO.C,D53*%
X98293800Y-130342000D03*
D11*
X95753800Y-130342000D03*
%TD*%
D10*
%TO.C,D35*%
X148943200Y-174652000D03*
D11*
X151483200Y-174652000D03*
%TD*%
D13*
%TO.C,D42*%
X154076000Y-143916400D03*
D11*
X155872051Y-142120349D03*
%TD*%
D13*
%TO.C,D3*%
X141303839Y-66115561D03*
D11*
X143099890Y-64319510D03*
%TD*%
D12*
%TO.C,D19*%
X123273161Y-183788439D03*
D11*
X121477110Y-185584490D03*
%TD*%
D12*
%TO.C,D15*%
X128073161Y-154908439D03*
D11*
X126277110Y-156704490D03*
%TD*%
D13*
%TO.C,D45*%
X132842000Y-143916400D03*
D11*
X134638051Y-142120349D03*
%TD*%
D13*
%TO.C,D9*%
X134103839Y-109435561D03*
D11*
X135899890Y-107639510D03*
%TD*%
D10*
%TO.C,D59*%
X120973800Y-92362000D03*
D11*
X118433800Y-92362000D03*
%TD*%
D12*
%TO.C,D50*%
X97423000Y-142087600D03*
D11*
X95626949Y-143883651D03*
%TD*%
D10*
%TO.C,D29*%
X126263200Y-212632000D03*
D11*
X128803200Y-212632000D03*
%TD*%
D12*
%TO.C,D24*%
X117273161Y-219888439D03*
D11*
X115477110Y-221684490D03*
%TD*%
D10*
%TO.C,D55*%
X105853800Y-117682000D03*
D11*
X103313800Y-117682000D03*
%TD*%
D12*
%TO.C,D17*%
X125673161Y-169348439D03*
D11*
X123877110Y-171144490D03*
%TD*%
D13*
%TO.C,D6*%
X137703839Y-87775561D03*
D11*
X139499890Y-85979510D03*
%TD*%
D13*
%TO.C,D5*%
X138903839Y-80555561D03*
D11*
X140699890Y-78759510D03*
%TD*%
D10*
%TO.C,D64*%
X139873800Y-60712000D03*
D11*
X137333800Y-60712000D03*
%TD*%
D10*
%TO.C,D52*%
X94513800Y-136672000D03*
D11*
X91973800Y-136672000D03*
%TD*%
D10*
%TO.C,D37*%
X156503200Y-161992000D03*
D11*
X159043200Y-161992000D03*
%TD*%
D12*
%TO.C,D26*%
X114795161Y-234251639D03*
D11*
X112999110Y-236047690D03*
%TD*%
D13*
%TO.C,D4*%
X140103839Y-73335561D03*
D11*
X141899890Y-71539510D03*
%TD*%
D10*
%TO.C,D61*%
X128533800Y-79702000D03*
D11*
X125993800Y-79702000D03*
%TD*%
D10*
%TO.C,D36*%
X152723200Y-168322000D03*
D11*
X155263200Y-168322000D03*
%TD*%
D10*
%TO.C,D33*%
X141383200Y-187312000D03*
D11*
X143923200Y-187312000D03*
%TD*%
D13*
%TO.C,D13*%
X129303839Y-138315561D03*
D11*
X131099890Y-136519510D03*
%TD*%
D13*
%TO.C,D7*%
X136503839Y-94995561D03*
D11*
X138299890Y-93199510D03*
%TD*%
D13*
%TO.C,D12*%
X130503839Y-131095561D03*
D11*
X132299890Y-129299510D03*
%TD*%
D12*
%TO.C,D23*%
X118473161Y-212668439D03*
D11*
X116677110Y-214464490D03*
%TD*%
D10*
%TO.C,D28*%
X122483200Y-218962000D03*
D11*
X125023200Y-218962000D03*
%TD*%
D14*
%TO.C,J23*%
X127152400Y-126949200D03*
%TD*%
%TO.C,J17*%
X112522000Y-135763000D03*
%TD*%
%TO.C,J13*%
X115570000Y-137363200D03*
%TD*%
%TO.C,J21*%
X124815600Y-125780800D03*
%TD*%
%TO.C,J12*%
X140665200Y-147523200D03*
%TD*%
%TO.C,J14*%
X138684000Y-149453600D03*
%TD*%
%TO.C,J24*%
X136499600Y-155041600D03*
%TD*%
%TO.C,J8*%
X144881600Y-152196800D03*
%TD*%
D15*
%TO.C,J27*%
X104546400Y-136855200D03*
D16*
X105960614Y-138269414D03*
%TD*%
D14*
%TO.C,J4*%
X139141200Y-156311600D03*
%TD*%
%TO.C,J10*%
X135940800Y-147421600D03*
%TD*%
%TO.C,J2*%
X132740400Y-155295600D03*
%TD*%
%TO.C,J26*%
X133807200Y-158292800D03*
%TD*%
%TO.C,J18*%
X132588000Y-151688800D03*
%TD*%
%TO.C,J9*%
X118491000Y-137795000D03*
%TD*%
%TO.C,J11*%
X113741200Y-139649200D03*
%TD*%
%TO.C,J1*%
X123063000Y-133223000D03*
%TD*%
%TO.C,J7*%
X124866400Y-135229600D03*
%TD*%
%TO.C,J22*%
X138480800Y-153060400D03*
%TD*%
%TO.C,J25*%
X122834400Y-127762000D03*
%TD*%
%TO.C,J3*%
X120523000Y-135763000D03*
%TD*%
%TO.C,J5*%
X123088400Y-137566400D03*
%TD*%
%TO.C,J15*%
X109982000Y-138303000D03*
%TD*%
%TO.C,J16*%
X135636000Y-150825200D03*
%TD*%
%TO.C,J19*%
X126111000Y-129794000D03*
%TD*%
%TO.C,J6*%
X141478000Y-154025600D03*
%TD*%
%TO.C,J20*%
X140462000Y-151130000D03*
%TD*%
M02*
