M48
; DRILL file {KiCad 9.0.7} date 2026-02-21T03:41:21+0200
; FORMAT={-:-/ absolute / metric / decimal}
; #@! TF.CreationDate,2026-02-21T03:41:21+02:00
; #@! TF.GenerationSoftware,Kicad,Pcbnew,9.0.7
; #@! TF.FileFunction,Plated,1,2,PTH
FMAT,2
METRIC
; #@! TA.AperFunction,Plated,PTH,ViaDrill
T1C0.300
; #@! TA.AperFunction,Plated,PTH,ComponentDrill
T2C0.800
; #@! TA.AperFunction,Plated,PTH,ComponentDrill
T3C0.900
%
G90
G05
T1
X89.097Y-114.357
X90.16Y-116.85
X91.332Y-109.952
X92.513Y-117.807
X93.495Y-108.077
X97.65Y-106.123
X99.371Y-99.265
X100.133Y-117.807
X101.192Y-103.625
X102.564Y-102.718
X103.071Y-106.378
X103.996Y-107.303
X106.715Y-101.206
X106.807Y-111.125
X107.051Y-103.261
X107.226Y-98.122
X107.881Y-83.208
X108.255Y-100.946
X109.741Y-81.547
X111.015Y-86.266
X111.622Y-81.216
X113.834Y-117.729
X114.423Y-77.597
X115.294Y-94.742
X115.367Y-75.286
X115.944Y-83.961
X116.019Y-69.494
X116.195Y-88.922
X116.241Y-96.598
X116.821Y-72.721
X117.151Y-86.692
X117.259Y-84.003
X118.079Y-101.981
X118.079Y-89.151
X118.878Y-84.276
X119.392Y-86.101
X120.081Y-88.077
X120.245Y-104.292
X121.566Y-82.948
X124.481Y-70.718
X125.541Y-61.076
X127.341Y-63.931
X128.241Y-61.976
T2
X94.528Y-114.614
X95.942Y-116.029
X108.966Y-110.49
X109.728Y-113.538
X111.125Y-108.331
X111.633Y-115.443
X111.887Y-111.379
X113.284Y-106.172
X113.792Y-113.284
X114.046Y-109.22
X115.697Y-115.316
X115.951Y-111.125
X116.205Y-107.061
X117.856Y-113.157
X118.11Y-108.966
T3
X80.224Y-121.609
X82.02Y-119.813
X83.649Y-114.398
X86.189Y-114.398
X87.302Y-121.609
X87.429Y-108.068
X89.098Y-119.813
X89.969Y-108.068
X91.209Y-101.738
X93.749Y-101.738
X94.38Y-121.609
X94.989Y-95.408
X96.176Y-119.813
X97.529Y-95.408
X98.769Y-89.078
X101.309Y-89.078
X101.458Y-121.609
X102.549Y-82.748
X103.254Y-119.813
X105.089Y-82.748
X106.329Y-76.418
X108.536Y-121.609
X108.869Y-76.418
X110.109Y-70.088
X110.332Y-119.813
X112.649Y-70.088
X113.889Y-63.758
X115.614Y-121.609
X116.429Y-63.758
X117.41Y-119.813
X117.669Y-57.428
X120.209Y-57.428
X120.979Y-116.041
X121.449Y-51.098
X122.179Y-108.821
X122.775Y-114.245
X123.379Y-101.601
X123.975Y-107.025
X123.989Y-51.098
X124.579Y-94.381
X125.175Y-99.805
X125.229Y-44.768
X125.779Y-87.161
X126.375Y-92.585
X126.979Y-79.941
X127.575Y-85.365
X127.769Y-44.768
X128.179Y-72.721
X128.775Y-78.145
X129.009Y-38.438
X129.379Y-65.501
X129.975Y-70.925
X130.579Y-58.281
X131.175Y-63.705
X131.549Y-38.438
X131.779Y-51.061
X132.375Y-56.485
X132.979Y-43.841
X133.575Y-49.265
X134.179Y-36.621
X134.775Y-42.045
X135.457Y-29.478
X135.975Y-34.825
X137.253Y-27.682
M30
