%TF.GenerationSoftware,KiCad,Pcbnew,9.0.7*%
%TF.CreationDate,2026-02-21T03:41:23+02:00*%
%TF.ProjectId,kicad_selka_mk2,6b696361-645f-4736-956c-6b615f6d6b32,rev?*%
%TF.SameCoordinates,Original*%
%TF.FileFunction,Soldermask,Top*%
%TF.FilePolarity,Negative*%
%FSLAX46Y46*%
G04 Gerber Fmt 4.6, Leading zero omitted, Abs format (unit mm)*
G04 Created by KiCad (PCBNEW 9.0.7) date 2026-02-21 03:41:23*
%MOMM*%
%LPD*%
G01*
G04 APERTURE LIST*
G04 Aperture macros list*
%AMRotRect*
0 Rectangle, with rotation*
0 The origin of the aperture is its center*
0 $1 length*
0 $2 width*
0 $3 Rotation angle, in degrees counterclockwise*
0 Add horizontal line*
21,1,$1,$2,0,0,$3*%
G04 Aperture macros list end*
%ADD10RotRect,1.800000X1.800000X45.000000*%
%ADD11C,1.800000*%
%ADD12R,1.800000X1.800000*%
%ADD13C,1.400000*%
%ADD14RotRect,1.800000X1.800000X225.000000*%
%ADD15C,1.350000*%
%ADD16RotRect,1.350000X1.350000X225.000000*%
G04 APERTURE END LIST*
D10*
%TO.C,D8*%
X126978631Y-79941210D03*
D11*
X128774682Y-78145159D03*
%TD*%
D10*
%TO.C,D7*%
X128178631Y-72721210D03*
D11*
X129974682Y-70925159D03*
%TD*%
D10*
%TO.C,D6*%
X129378631Y-65501210D03*
D11*
X131174682Y-63705159D03*
%TD*%
D10*
%TO.C,D5*%
X130578631Y-58281210D03*
D11*
X132374682Y-56485159D03*
%TD*%
D10*
%TO.C,D4*%
X131778631Y-51061210D03*
D11*
X133574682Y-49265159D03*
%TD*%
D10*
%TO.C,D3*%
X132978631Y-43841210D03*
D11*
X134774682Y-42045159D03*
%TD*%
D10*
%TO.C,D2*%
X134178631Y-36621210D03*
D11*
X135974682Y-34825159D03*
%TD*%
D10*
%TO.C,D1*%
X135456631Y-29478010D03*
D11*
X137252682Y-27681959D03*
%TD*%
D12*
%TO.C,D64*%
X131548592Y-38437649D03*
D11*
X129008592Y-38437649D03*
%TD*%
D12*
%TO.C,D63*%
X127768592Y-44767649D03*
D11*
X125228592Y-44767649D03*
%TD*%
D12*
%TO.C,D62*%
X123988592Y-51097649D03*
D11*
X121448592Y-51097649D03*
%TD*%
D12*
%TO.C,D61*%
X120208592Y-57427649D03*
D11*
X117668592Y-57427649D03*
%TD*%
D12*
%TO.C,D60*%
X116428592Y-63757649D03*
D11*
X113888592Y-63757649D03*
%TD*%
D12*
%TO.C,D59*%
X112648592Y-70087649D03*
D11*
X110108592Y-70087649D03*
%TD*%
D12*
%TO.C,D58*%
X108868592Y-76417649D03*
D11*
X106328592Y-76417649D03*
%TD*%
D12*
%TO.C,D57*%
X105088592Y-82747649D03*
D11*
X102548592Y-82747649D03*
%TD*%
D10*
%TO.C,D13*%
X120978631Y-116041210D03*
D11*
X122774682Y-114245159D03*
%TD*%
%TO.C,D54*%
X91208592Y-101737649D03*
D12*
X93748592Y-101737649D03*
%TD*%
D11*
%TO.C,D56*%
X98768592Y-89077649D03*
D12*
X101308592Y-89077649D03*
%TD*%
D13*
%TO.C,J21*%
X118110000Y-108966000D03*
%TD*%
%TO.C,J23*%
X114046000Y-109220000D03*
%TD*%
D11*
%TO.C,D52*%
X83648592Y-114397649D03*
D12*
X86188592Y-114397649D03*
%TD*%
D13*
%TO.C,J19*%
X115697000Y-115316000D03*
%TD*%
D11*
%TO.C,D48*%
X101457741Y-121609300D03*
D14*
X103253792Y-119813249D03*
%TD*%
D13*
%TO.C,J15*%
X113792000Y-113284000D03*
%TD*%
%TO.C,J11*%
X111633000Y-115443000D03*
%TD*%
D11*
%TO.C,D53*%
X87428592Y-108067649D03*
D12*
X89968592Y-108067649D03*
%TD*%
D13*
%TO.C,J13*%
X115951000Y-111125000D03*
%TD*%
%TO.C,J3*%
X108966000Y-110490000D03*
%TD*%
D11*
%TO.C,D12*%
X123974682Y-107025159D03*
D10*
X122178631Y-108821210D03*
%TD*%
D13*
%TO.C,J1*%
X116205000Y-107061000D03*
%TD*%
%TO.C,J7*%
X113284000Y-106172000D03*
%TD*%
D11*
%TO.C,D50*%
X87301741Y-121609300D03*
D14*
X89097792Y-119813249D03*
%TD*%
D11*
%TO.C,D51*%
X80223741Y-121609300D03*
D14*
X82019792Y-119813249D03*
%TD*%
D11*
%TO.C,D47*%
X108535741Y-121609300D03*
D14*
X110331792Y-119813249D03*
%TD*%
D13*
%TO.C,J9*%
X109728000Y-113538000D03*
%TD*%
%TO.C,J5*%
X111125000Y-108331000D03*
%TD*%
D15*
%TO.C,J27*%
X95941792Y-116028649D03*
D16*
X94527578Y-114614435D03*
%TD*%
D11*
%TO.C,D10*%
X126374682Y-92585159D03*
D10*
X124578631Y-94381210D03*
%TD*%
D11*
%TO.C,D9*%
X127574682Y-85365159D03*
D10*
X125778631Y-87161210D03*
%TD*%
D13*
%TO.C,J25*%
X111887000Y-111379000D03*
%TD*%
%TO.C,J17*%
X117856000Y-113157000D03*
%TD*%
D11*
%TO.C,D46*%
X115613741Y-121609300D03*
D14*
X117409792Y-119813249D03*
%TD*%
D11*
%TO.C,D55*%
X94988592Y-95407649D03*
D12*
X97528592Y-95407649D03*
%TD*%
D11*
%TO.C,D49*%
X94379741Y-121609300D03*
D14*
X96175792Y-119813249D03*
%TD*%
D11*
%TO.C,D11*%
X125174682Y-99805159D03*
D10*
X123378631Y-101601210D03*
%TD*%
M02*
