%TF.GenerationSoftware,KiCad,Pcbnew,9.0.7*%
%TF.CreationDate,2026-02-21T03:41:23+02:00*%
%TF.ProjectId,kicad_selka_mk2,6b696361-645f-4736-956c-6b615f6d6b32,rev?*%
%TF.SameCoordinates,Original*%
%TF.FileFunction,Copper,L1,Top*%
%TF.FilePolarity,Positive*%
%FSLAX46Y46*%
G04 Gerber Fmt 4.6, Leading zero omitted, Abs format (unit mm)*
G04 Created by KiCad (PCBNEW 9.0.7) date 2026-02-21 03:41:23*
%MOMM*%
%LPD*%
G01*
G04 APERTURE LIST*
G04 Aperture macros list*
%AMRotRect*
0 Rectangle, with rotation*
0 The origin of the aperture is its center*
0 $1 length*
0 $2 width*
0 $3 Rotation angle, in degrees counterclockwise*
0 Add horizontal line*
21,1,$1,$2,0,0,$3*%
G04 Aperture macros list end*
%TA.AperFunction,ComponentPad*%
%ADD10RotRect,1.800000X1.800000X45.000000*%
%TD*%
%TA.AperFunction,ComponentPad*%
%ADD11C,1.800000*%
%TD*%
%TA.AperFunction,ComponentPad*%
%ADD12R,1.800000X1.800000*%
%TD*%
%TA.AperFunction,ComponentPad*%
%ADD13C,1.400000*%
%TD*%
%TA.AperFunction,ComponentPad*%
%ADD14RotRect,1.800000X1.800000X225.000000*%
%TD*%
%TA.AperFunction,ComponentPad*%
%ADD15C,1.350000*%
%TD*%
%TA.AperFunction,ComponentPad*%
%ADD16RotRect,1.350000X1.350000X225.000000*%
%TD*%
%TA.AperFunction,ViaPad*%
%ADD17C,0.600000*%
%TD*%
%TA.AperFunction,Conductor*%
%ADD18C,0.400000*%
%TD*%
G04 APERTURE END LIST*
D10*
%TO.P,D8,1,K*%
%TO.N,Net-(D48-K)*%
X126978631Y-79941210D03*
D11*
%TO.P,D8,2,A*%
%TO.N,Net-(D1-A)*%
X128774682Y-78145159D03*
%TD*%
D10*
%TO.P,D7,1,K*%
%TO.N,Net-(D47-K)*%
X128178631Y-72721210D03*
D11*
%TO.P,D7,2,A*%
%TO.N,Net-(D1-A)*%
X129974682Y-70925159D03*
%TD*%
D10*
%TO.P,D6,1,K*%
%TO.N,Net-(D46-K)*%
X129378631Y-65501210D03*
D11*
%TO.P,D6,2,A*%
%TO.N,Net-(D1-A)*%
X131174682Y-63705159D03*
%TD*%
D10*
%TO.P,D5,1,K*%
%TO.N,Net-(D13-K)*%
X130578631Y-58281210D03*
D11*
%TO.P,D5,2,A*%
%TO.N,Net-(D1-A)*%
X132374682Y-56485159D03*
%TD*%
D10*
%TO.P,D4,1,K*%
%TO.N,Net-(D12-K)*%
X131778631Y-51061210D03*
D11*
%TO.P,D4,2,A*%
%TO.N,Net-(D1-A)*%
X133574682Y-49265159D03*
%TD*%
D10*
%TO.P,D3,1,K*%
%TO.N,Net-(D11-K)*%
X132978631Y-43841210D03*
D11*
%TO.P,D3,2,A*%
%TO.N,Net-(D1-A)*%
X134774682Y-42045159D03*
%TD*%
D10*
%TO.P,D2,1,K*%
%TO.N,Net-(D10-K)*%
X134178631Y-36621210D03*
D11*
%TO.P,D2,2,A*%
%TO.N,Net-(D1-A)*%
X135974682Y-34825159D03*
%TD*%
D10*
%TO.P,D1,1,K*%
%TO.N,Net-(D1-K)*%
X135456631Y-29478010D03*
D11*
%TO.P,D1,2,A*%
%TO.N,Net-(D1-A)*%
X137252682Y-27681959D03*
%TD*%
D12*
%TO.P,D64,1,K*%
%TO.N,Net-(D48-K)*%
X131548592Y-38437649D03*
D11*
%TO.P,D64,2,A*%
%TO.N,Net-(D57-A)*%
X129008592Y-38437649D03*
%TD*%
D12*
%TO.P,D63,1,K*%
%TO.N,Net-(D47-K)*%
X127768592Y-44767649D03*
D11*
%TO.P,D63,2,A*%
%TO.N,Net-(D57-A)*%
X125228592Y-44767649D03*
%TD*%
D12*
%TO.P,D62,1,K*%
%TO.N,Net-(D46-K)*%
X123988592Y-51097649D03*
D11*
%TO.P,D62,2,A*%
%TO.N,Net-(D57-A)*%
X121448592Y-51097649D03*
%TD*%
D12*
%TO.P,D61,1,K*%
%TO.N,Net-(D13-K)*%
X120208592Y-57427649D03*
D11*
%TO.P,D61,2,A*%
%TO.N,Net-(D57-A)*%
X117668592Y-57427649D03*
%TD*%
D12*
%TO.P,D60,1,K*%
%TO.N,Net-(D12-K)*%
X116428592Y-63757649D03*
D11*
%TO.P,D60,2,A*%
%TO.N,Net-(D57-A)*%
X113888592Y-63757649D03*
%TD*%
D12*
%TO.P,D59,1,K*%
%TO.N,Net-(D11-K)*%
X112648592Y-70087649D03*
D11*
%TO.P,D59,2,A*%
%TO.N,Net-(D57-A)*%
X110108592Y-70087649D03*
%TD*%
D12*
%TO.P,D58,1,K*%
%TO.N,Net-(D10-K)*%
X108868592Y-76417649D03*
D11*
%TO.P,D58,2,A*%
%TO.N,Net-(D57-A)*%
X106328592Y-76417649D03*
%TD*%
D12*
%TO.P,D57,1,K*%
%TO.N,Net-(D1-K)*%
X105088592Y-82747649D03*
D11*
%TO.P,D57,2,A*%
%TO.N,Net-(D57-A)*%
X102548592Y-82747649D03*
%TD*%
D10*
%TO.P,D13,1,K*%
%TO.N,Net-(D13-K)*%
X120978631Y-116041210D03*
D11*
%TO.P,D13,2,A*%
%TO.N,Net-(D10-A)*%
X122774682Y-114245159D03*
%TD*%
%TO.P,D54,2,A*%
%TO.N,Net-(D49-A)*%
X91208592Y-101737649D03*
D12*
%TO.P,D54,1,K*%
%TO.N,Net-(D46-K)*%
X93748592Y-101737649D03*
%TD*%
D11*
%TO.P,D56,2,A*%
%TO.N,Net-(D49-A)*%
X98768592Y-89077649D03*
D12*
%TO.P,D56,1,K*%
%TO.N,Net-(D48-K)*%
X101308592Y-89077649D03*
%TD*%
D13*
%TO.P,J21,1,Pin_1*%
%TO.N,Net-(D46-K)*%
X118110000Y-108966000D03*
%TD*%
%TO.P,J23,1,Pin_1*%
%TO.N,Net-(D47-K)*%
X114046000Y-109220000D03*
%TD*%
D11*
%TO.P,D52,2,A*%
%TO.N,Net-(D49-A)*%
X83648592Y-114397649D03*
D12*
%TO.P,D52,1,K*%
%TO.N,Net-(D12-K)*%
X86188592Y-114397649D03*
%TD*%
D13*
%TO.P,J19,1,Pin_1*%
%TO.N,Net-(D13-K)*%
X115697000Y-115316000D03*
%TD*%
D11*
%TO.P,D48,2,A*%
%TO.N,Net-(D46-A)*%
X101457741Y-121609300D03*
D14*
%TO.P,D48,1,K*%
%TO.N,Net-(D48-K)*%
X103253792Y-119813249D03*
%TD*%
D13*
%TO.P,J15,1,Pin_1*%
%TO.N,Net-(D11-K)*%
X113792000Y-113284000D03*
%TD*%
%TO.P,J11,1,Pin_1*%
%TO.N,Net-(D1-K)*%
X111633000Y-115443000D03*
%TD*%
D11*
%TO.P,D53,2,A*%
%TO.N,Net-(D49-A)*%
X87428592Y-108067649D03*
D12*
%TO.P,D53,1,K*%
%TO.N,Net-(D13-K)*%
X89968592Y-108067649D03*
%TD*%
D13*
%TO.P,J13,1,Pin_1*%
%TO.N,Net-(D10-K)*%
X115951000Y-111125000D03*
%TD*%
%TO.P,J3,1,Pin_1*%
%TO.N,Net-(J3-Pin_1)*%
X108966000Y-110490000D03*
%TD*%
D11*
%TO.P,D12,2,A*%
%TO.N,Net-(D10-A)*%
X123974682Y-107025159D03*
D10*
%TO.P,D12,1,K*%
%TO.N,Net-(D12-K)*%
X122178631Y-108821210D03*
%TD*%
D13*
%TO.P,J1,1,Pin_1*%
%TO.N,Net-(D10-A)*%
X116205000Y-107061000D03*
%TD*%
%TO.P,J7,1,Pin_1*%
%TO.N,Net-(J7-Pin_1)*%
X113284000Y-106172000D03*
%TD*%
D11*
%TO.P,D50,2,A*%
%TO.N,Net-(D49-A)*%
X87301741Y-121609300D03*
D14*
%TO.P,D50,1,K*%
%TO.N,Net-(D10-K)*%
X89097792Y-119813249D03*
%TD*%
D11*
%TO.P,D51,2,A*%
%TO.N,Net-(D49-A)*%
X80223741Y-121609300D03*
D14*
%TO.P,D51,1,K*%
%TO.N,Net-(D11-K)*%
X82019792Y-119813249D03*
%TD*%
D11*
%TO.P,D47,2,A*%
%TO.N,Net-(D46-A)*%
X108535741Y-121609300D03*
D14*
%TO.P,D47,1,K*%
%TO.N,Net-(D47-K)*%
X110331792Y-119813249D03*
%TD*%
D13*
%TO.P,J9,1,Pin_1*%
%TO.N,Net-(D46-A)*%
X109728000Y-113538000D03*
%TD*%
%TO.P,J5,1,Pin_1*%
%TO.N,Net-(J5-Pin_1)*%
X111125000Y-108331000D03*
%TD*%
D15*
%TO.P,J27,2,Pin_2*%
%TO.N,GND*%
X95941792Y-116028649D03*
D16*
%TO.P,J27,1,Pin_1*%
%TO.N,+5V*%
X94527578Y-114614435D03*
%TD*%
D11*
%TO.P,D10,2,A*%
%TO.N,Net-(D10-A)*%
X126374682Y-92585159D03*
D10*
%TO.P,D10,1,K*%
%TO.N,Net-(D10-K)*%
X124578631Y-94381210D03*
%TD*%
D11*
%TO.P,D9,2,A*%
%TO.N,Net-(D10-A)*%
X127574682Y-85365159D03*
D10*
%TO.P,D9,1,K*%
%TO.N,Net-(D1-K)*%
X125778631Y-87161210D03*
%TD*%
D13*
%TO.P,J25,1,Pin_1*%
%TO.N,Net-(D48-K)*%
X111887000Y-111379000D03*
%TD*%
%TO.P,J17,1,Pin_1*%
%TO.N,Net-(D12-K)*%
X117856000Y-113157000D03*
%TD*%
D11*
%TO.P,D46,2,A*%
%TO.N,Net-(D46-A)*%
X115613741Y-121609300D03*
D14*
%TO.P,D46,1,K*%
%TO.N,Net-(D46-K)*%
X117409792Y-119813249D03*
%TD*%
D11*
%TO.P,D55,2,A*%
%TO.N,Net-(D49-A)*%
X94988592Y-95407649D03*
D12*
%TO.P,D55,1,K*%
%TO.N,Net-(D47-K)*%
X97528592Y-95407649D03*
%TD*%
D11*
%TO.P,D49,2,A*%
%TO.N,Net-(D49-A)*%
X94379741Y-121609300D03*
D14*
%TO.P,D49,1,K*%
%TO.N,Net-(D1-K)*%
X96175792Y-119813249D03*
%TD*%
D11*
%TO.P,D11,2,A*%
%TO.N,Net-(D10-A)*%
X125174682Y-99805159D03*
D10*
%TO.P,D11,1,K*%
%TO.N,Net-(D11-K)*%
X123378631Y-101601210D03*
%TD*%
D17*
%TO.N,Net-(D46-K)*%
X118079224Y-89150942D03*
%TO.N,Net-(D10-K)*%
X114422592Y-77597000D03*
%TO.N,Net-(D48-K)*%
X115366800Y-75285600D03*
%TO.N,Net-(D10-K)*%
X117259407Y-84003471D03*
%TO.N,Net-(D47-K)*%
X120080823Y-88076823D03*
%TO.N,Net-(D11-K)*%
X113834000Y-117729000D03*
%TO.N,Net-(D1-K)*%
X111015230Y-86266183D03*
X125541200Y-61076000D03*
X90159571Y-116850429D03*
X107880792Y-83207649D03*
X93495019Y-108077000D03*
%TO.N,Net-(U1-PA1)*%
X103996470Y-107303491D03*
%TO.N,Net-(D12-K)*%
X91331697Y-109952186D03*
%TO.N,Net-(D48-K)*%
X106807000Y-111125000D03*
%TO.N,Net-(D47-K)*%
X115944292Y-83961149D03*
%TO.N,Net-(D46-K)*%
X116018792Y-69494400D03*
%TO.N,Net-(D13-K)*%
X118878370Y-84276102D03*
%TO.N,+5V*%
X107050571Y-103261428D03*
%TO.N,Net-(D46-K)*%
X117151481Y-86692339D03*
%TO.N,+5V*%
X102563680Y-102717600D03*
%TO.N,Net-(U1-PA0)*%
X103071470Y-106378491D03*
%TO.N,Net-(D11-K)*%
X116194753Y-88921861D03*
%TO.N,Net-(U1-PA0)*%
X115294406Y-94742000D03*
%TO.N,Net-(D13-K)*%
X128241200Y-61976000D03*
%TO.N,Net-(D11-K)*%
X100132792Y-117806649D03*
X124480792Y-70718208D03*
%TO.N,Net-(D48-K)*%
X119392366Y-86101075D03*
%TO.N,Net-(D12-K)*%
X109740700Y-81546700D03*
%TO.N,Net-(D13-K)*%
X106714618Y-101206184D03*
%TO.N,Net-(D46-K)*%
X118078792Y-101981000D03*
%TO.N,Net-(D11-K)*%
X101191569Y-103625426D03*
%TO.N,Net-(D10-K)*%
X120245215Y-104292400D03*
%TO.N,Net-(D12-K)*%
X99370792Y-99264649D03*
%TO.N,Net-(D10-K)*%
X97650292Y-106122649D03*
%TO.N,Net-(D12-K)*%
X111621593Y-81215542D03*
%TO.N,Net-(D47-K)*%
X116820792Y-72721210D03*
%TO.N,Net-(D11-K)*%
X92512792Y-117806649D03*
X89097166Y-114356834D03*
%TO.N,Net-(D46-K)*%
X108254827Y-100946429D03*
%TO.N,Net-(D12-K)*%
X127341200Y-63930984D03*
%TO.N,Net-(U1-PA1)*%
X116240792Y-96597649D03*
%TO.N,Net-(D1-K)*%
X121565841Y-82948420D03*
%TO.N,Net-(D47-K)*%
X107226099Y-98121649D03*
%TD*%
D18*
%TO.N,+5V*%
X102563680Y-102717600D02*
X106506743Y-102717600D01*
X106506743Y-102717600D02*
X107050571Y-103261428D01*
%TO.N,Net-(D13-K)*%
X108953099Y-93617927D02*
X118294924Y-84276102D01*
X106714618Y-101206184D02*
X106714618Y-101178491D01*
X106714618Y-101178491D02*
X108953099Y-98940010D01*
X108953099Y-98940010D02*
X108953099Y-93617927D01*
X118294924Y-84276102D02*
X118878370Y-84276102D01*
%TO.N,Net-(D1-K)*%
X107880792Y-83207649D02*
X107880792Y-84787649D01*
X96079220Y-103318220D02*
X93495019Y-105902421D01*
X93495019Y-105902421D02*
X93495019Y-108077000D01*
X107880792Y-84787649D02*
X107890792Y-84797649D01*
X107890792Y-84797649D02*
X107890792Y-85797449D01*
X96079220Y-101246659D02*
X96079220Y-103318220D01*
X107890792Y-85797449D02*
X103815792Y-89872449D01*
X103815792Y-89872449D02*
X103815792Y-93510087D01*
X103815792Y-93510087D02*
X96079220Y-101246659D01*
%TO.N,Net-(D48-K)*%
X113499175Y-80302825D02*
X109512825Y-80302825D01*
X115366800Y-75285600D02*
X115415588Y-75285600D01*
X115415588Y-75285600D02*
X117079978Y-73621210D01*
X117079978Y-73621210D02*
X122770210Y-73621210D01*
X126978631Y-77829631D02*
X126978631Y-79941210D01*
X115323592Y-78478408D02*
X113499175Y-80302825D01*
X115323592Y-75597992D02*
X115323592Y-78478408D01*
X115366800Y-75285600D02*
X115366800Y-75554784D01*
X115366800Y-75554784D02*
X115323592Y-75597992D01*
X122770210Y-73621210D02*
X126978631Y-77829631D01*
%TO.N,Net-(D10-K)*%
X120245215Y-104292400D02*
X120245215Y-102393226D01*
X120245215Y-102393226D02*
X124578631Y-98059810D01*
X124578631Y-98059810D02*
X124578631Y-94381210D01*
%TO.N,Net-(D1-K)*%
X121565841Y-82948420D02*
X121191523Y-82574102D01*
X121191523Y-82574102D02*
X114707310Y-82574102D01*
X114707310Y-82574102D02*
X111015230Y-86266183D01*
X121565841Y-82948420D02*
X125778631Y-87161210D01*
%TO.N,Net-(D46-K)*%
X118079224Y-89150942D02*
X118177792Y-89249510D01*
X118177792Y-89249510D02*
X118177792Y-101882000D01*
X118177792Y-101882000D02*
X118078792Y-101981000D01*
%TO.N,Net-(D10-K)*%
X114422592Y-77597000D02*
X114046000Y-77597000D01*
X114046000Y-77597000D02*
X112866649Y-76417649D01*
X112866649Y-76417649D02*
X108868592Y-76417649D01*
%TO.N,Net-(D47-K)*%
X116820792Y-72721210D02*
X128178631Y-72721210D01*
%TO.N,Net-(D48-K)*%
X102318792Y-89077649D02*
X101308592Y-89077649D01*
X106878792Y-84517649D02*
X102318792Y-89077649D01*
X106878792Y-82936857D02*
X106878792Y-84517649D01*
X109512825Y-80302825D02*
X106878792Y-82936857D01*
%TO.N,Net-(D11-K)*%
X124480792Y-70718208D02*
X124206000Y-70993000D01*
X124206000Y-70993000D02*
X113553943Y-70993000D01*
X113553943Y-70993000D02*
X112648592Y-70087649D01*
%TO.N,Net-(D10-K)*%
X117259407Y-84003471D02*
X117887776Y-83375102D01*
X117887776Y-83375102D02*
X119250162Y-83375102D01*
X119250162Y-83375102D02*
X124578631Y-88703572D01*
X124578631Y-88703572D02*
X124578631Y-94381210D01*
X108152099Y-93110780D02*
X108152099Y-98505211D01*
X108152099Y-98505211D02*
X106159660Y-100497649D01*
X106159660Y-100497649D02*
X101947792Y-100497649D01*
X117259407Y-84003471D02*
X108152099Y-93110780D01*
X101947792Y-100497649D02*
X97650292Y-104795149D01*
X97650292Y-104795149D02*
X97650292Y-106122649D01*
%TO.N,Net-(D12-K)*%
X109740700Y-81546700D02*
X108780792Y-82506608D01*
X108780792Y-82506608D02*
X108780792Y-86217010D01*
X108780792Y-86217010D02*
X104768292Y-90229511D01*
X104768292Y-90229511D02*
X104768292Y-93867149D01*
X104768292Y-93867149D02*
X99370792Y-99264649D01*
X111621593Y-81215542D02*
X110071858Y-81215542D01*
X110071858Y-81215542D02*
X109740700Y-81546700D01*
%TO.N,Net-(D47-K)*%
X120080823Y-88076823D02*
X118978792Y-89178854D01*
X118978792Y-89178854D02*
X118978792Y-102447316D01*
X118978792Y-102447316D02*
X114046000Y-107380108D01*
X114046000Y-107380108D02*
X114046000Y-109220000D01*
%TO.N,Net-(D12-K)*%
X99370792Y-99264649D02*
X96958906Y-101676535D01*
X96958906Y-101676535D02*
X96958906Y-104070906D01*
X96958906Y-104070906D02*
X94477022Y-106552790D01*
X94477022Y-106552790D02*
X94477022Y-108369204D01*
X94477022Y-108369204D02*
X92894040Y-109952186D01*
X92894040Y-109952186D02*
X91331697Y-109952186D01*
%TO.N,Net-(D48-K)*%
X106807000Y-111125000D02*
X107823000Y-112141000D01*
X106807000Y-109608442D02*
X117165792Y-99249649D01*
X106807000Y-111125000D02*
X106807000Y-109608442D01*
X107823000Y-112141000D02*
X111125000Y-112141000D01*
X117165792Y-99249649D02*
X117165792Y-88327649D01*
X111125000Y-112141000D02*
X111887000Y-111379000D01*
X117165792Y-88327649D02*
X119392366Y-86101075D01*
%TO.N,Net-(D10-A)*%
X116205000Y-107061000D02*
X117639351Y-105626649D01*
X117639351Y-105626649D02*
X122576172Y-105626649D01*
X122576172Y-105626649D02*
X123974682Y-107025159D01*
%TO.N,Net-(U1-PA0)*%
X115294406Y-94742000D02*
X115294406Y-98424263D01*
X115294406Y-98424263D02*
X107340179Y-106378491D01*
X107340179Y-106378491D02*
X103071470Y-106378491D01*
%TO.N,Net-(D46-K)*%
X109754099Y-99447157D02*
X108254827Y-100946429D01*
%TO.N,Net-(D13-K)*%
X100111144Y-114864000D02*
X97608623Y-112361480D01*
%TO.N,Net-(D46-K)*%
X109754099Y-94089721D02*
X109754099Y-99447157D01*
X125460192Y-69419649D02*
X129378631Y-65501210D01*
X119975792Y-114408541D02*
X119975792Y-110852649D01*
%TO.N,Net-(D13-K)*%
X128241200Y-61976000D02*
X130578631Y-59638569D01*
%TO.N,Net-(D1-K)*%
X96175792Y-119813249D02*
X99209392Y-116779649D01*
X90159571Y-116850429D02*
X93122392Y-119813249D01*
X125526800Y-61061600D02*
X125526800Y-55455642D01*
X125526800Y-55455642D02*
X129215792Y-51766649D01*
X99209392Y-116779649D02*
X110296351Y-116779649D01*
X129215792Y-47448649D02*
X129419592Y-47244849D01*
X96175792Y-119813249D02*
X99198392Y-116790649D01*
X129419592Y-43334449D02*
X127357592Y-41272449D01*
X129215792Y-51766649D02*
X129215792Y-47448649D01*
X127357592Y-41272449D02*
X127357592Y-37577049D01*
X129419592Y-47244849D02*
X129419592Y-43334449D01*
X110296351Y-116779649D02*
X111633000Y-115443000D01*
%TO.N,Net-(U1-PA1)*%
X107724741Y-107303491D02*
X116240792Y-98787440D01*
X116240792Y-98787440D02*
X116240792Y-96597649D01*
X103996470Y-107303491D02*
X107724741Y-107303491D01*
%TO.N,Net-(D1-K)*%
X93122392Y-119813249D02*
X96175792Y-119813249D01*
X125541200Y-61076000D02*
X125526800Y-61061600D01*
%TO.N,Net-(D47-K)*%
X107226099Y-98121649D02*
X107226099Y-92679342D01*
%TO.N,Net-(D46-K)*%
X119975792Y-110852649D02*
X118110000Y-108986857D01*
X117409792Y-119813249D02*
X117409792Y-116974541D01*
%TO.N,Net-(D11-K)*%
X92512792Y-117772459D02*
X92512792Y-117806649D01*
X108358779Y-104142379D02*
X114322832Y-98178327D01*
X108354021Y-104142379D02*
X108358779Y-104142379D01*
X92165982Y-117425649D02*
X92165982Y-117459839D01*
X92165982Y-117459839D02*
X92512792Y-117806649D01*
X101191569Y-103625426D02*
X101191569Y-103655369D01*
X114322832Y-90653774D02*
X116054745Y-88921861D01*
%TO.N,Net-(D13-K)*%
X112182248Y-114117000D02*
X111024248Y-114117000D01*
X111024248Y-114117000D02*
X110277248Y-114864000D01*
X89968592Y-110198280D02*
X89968592Y-108067649D01*
X115697000Y-115316000D02*
X113381248Y-115316000D01*
X110277248Y-114864000D02*
X100111144Y-114864000D01*
X113381248Y-115316000D02*
X112182248Y-114117000D01*
X118878370Y-84276102D02*
X118294925Y-84276102D01*
X92131792Y-112361480D02*
X89968592Y-110198280D01*
X128241200Y-61976000D02*
X122047000Y-61976000D01*
%TO.N,Net-(D11-K)*%
X116054745Y-88921861D02*
X116194753Y-88921861D01*
%TO.N,Net-(D46-K)*%
X117409792Y-116974541D02*
X119975792Y-114408541D01*
%TO.N,Net-(D11-K)*%
X89097166Y-114356834D02*
X92512792Y-117772459D01*
%TO.N,Net-(D12-K)*%
X127167865Y-63757649D02*
X116428592Y-63757649D01*
%TO.N,Net-(D1-K)*%
X127357592Y-37577049D02*
X135456631Y-29478010D01*
%TO.N,Net-(D47-K)*%
X107226099Y-92679342D02*
X115944292Y-83961149D01*
%TO.N,Net-(D46-K)*%
X116018792Y-69494400D02*
X116093543Y-69419649D01*
%TO.N,Net-(D12-K)*%
X127341200Y-63930984D02*
X127167865Y-63757649D01*
%TO.N,Net-(D46-K)*%
X117151481Y-86692339D02*
X109754099Y-94089721D01*
%TO.N,Net-(D11-K)*%
X107018909Y-105477491D02*
X108354021Y-104142379D01*
X103013691Y-105477491D02*
X107018909Y-105477491D01*
X101191569Y-103655369D02*
X103013691Y-105477491D01*
%TO.N,Net-(D13-K)*%
X97608623Y-112361480D02*
X92131792Y-112361480D01*
%TO.N,Net-(D11-K)*%
X89097166Y-114356834D02*
X92165982Y-117425649D01*
X114322832Y-98178327D02*
X114322832Y-90653774D01*
%TO.N,Net-(D46-K)*%
X116093543Y-69419649D02*
X125460192Y-69419649D01*
%TO.N,Net-(D13-K)*%
X130578631Y-59638569D02*
X130578631Y-58281210D01*
X122047000Y-61976000D02*
X120208592Y-60137592D01*
X120208592Y-60137592D02*
X120208592Y-57427649D01*
%TO.N,Net-(D11-K)*%
X113834000Y-117729000D02*
X100210441Y-117729000D01*
X100210441Y-117729000D02*
X100132792Y-117806649D01*
%TD*%
%TA.AperFunction,NonConductor*%
G36*
X136684065Y-24167912D02*
G01*
X136695504Y-24168790D01*
X137088989Y-24217463D01*
X137100331Y-24219404D01*
X137487604Y-24304348D01*
X137498717Y-24307332D01*
X137876431Y-24427810D01*
X137887213Y-24431808D01*
X138252156Y-24586798D01*
X138262511Y-24591775D01*
X138611499Y-24779924D01*
X138621362Y-24785848D01*
X138734684Y-24861282D01*
X138951398Y-25005539D01*
X138960672Y-25012354D01*
X139268915Y-25261695D01*
X139277517Y-25269340D01*
X139561320Y-25546189D01*
X139569176Y-25554599D01*
X139826084Y-25856561D01*
X139833127Y-25865663D01*
X139909859Y-25974959D01*
X140060934Y-26190146D01*
X140067103Y-26199863D01*
X140263848Y-26544076D01*
X140269089Y-26554321D01*
X140433071Y-26915281D01*
X140437340Y-26925969D01*
X140567150Y-27300580D01*
X140570410Y-27311618D01*
X140664930Y-27696658D01*
X140667152Y-27707950D01*
X140725569Y-28100096D01*
X140726734Y-28111545D01*
X140748541Y-28507406D01*
X140748640Y-28518915D01*
X140733651Y-28915095D01*
X140732683Y-28926563D01*
X140680808Y-29321324D01*
X140680803Y-29321368D01*
X140680278Y-29325366D01*
X140680297Y-29325369D01*
X140668689Y-29390231D01*
X140670857Y-29415773D01*
X140669622Y-29427503D01*
X140668864Y-29429341D01*
X140668656Y-29434659D01*
X127103059Y-111814506D01*
X127099984Y-111828256D01*
X127099371Y-111830409D01*
X127090545Y-111890385D01*
X127090220Y-111892473D01*
X127089464Y-111897065D01*
X127088944Y-111900005D01*
X127026637Y-112228861D01*
X127024327Y-112238797D01*
X126935366Y-112560817D01*
X126932247Y-112570530D01*
X126817120Y-112884144D01*
X126813214Y-112893567D01*
X126672701Y-113196654D01*
X126668033Y-113205725D01*
X126503066Y-113496264D01*
X126497669Y-113504919D01*
X126309403Y-113780883D01*
X126303314Y-113789065D01*
X126284148Y-113812719D01*
X126099551Y-114040538D01*
X126091128Y-114049915D01*
X116518691Y-123674650D01*
X116513917Y-123679200D01*
X116348495Y-123828669D01*
X116255606Y-123912600D01*
X116247352Y-123919434D01*
X115971104Y-124128711D01*
X115962291Y-124134807D01*
X115669012Y-124319446D01*
X115659713Y-124324754D01*
X115351589Y-124483381D01*
X115341859Y-124487870D01*
X115021182Y-124619305D01*
X115011100Y-124622936D01*
X114680293Y-124726186D01*
X114669935Y-124728934D01*
X114331434Y-124803240D01*
X114320877Y-124805083D01*
X113977233Y-124849884D01*
X113966557Y-124850809D01*
X113618260Y-124865861D01*
X113612942Y-124865977D01*
X81156627Y-124875327D01*
X81156622Y-124875327D01*
X81148336Y-124875328D01*
X81148149Y-124875279D01*
X81087482Y-124875343D01*
X81085167Y-124875344D01*
X81085136Y-124875345D01*
X81085134Y-124875344D01*
X81085036Y-124875345D01*
X81085027Y-124875342D01*
X81079388Y-124875218D01*
X80701435Y-124858080D01*
X80689985Y-124857027D01*
X80318105Y-124805350D01*
X80306801Y-124803241D01*
X79941302Y-124717338D01*
X79930243Y-124714191D01*
X79574277Y-124594803D01*
X79563556Y-124590645D01*
X79220177Y-124438795D01*
X79209888Y-124433662D01*
X78882050Y-124250658D01*
X78872281Y-124244594D01*
X78712456Y-124134807D01*
X78562804Y-124032008D01*
X78553642Y-124025068D01*
X78453449Y-123941588D01*
X78265184Y-123784726D01*
X78256705Y-123776968D01*
X78157126Y-123676986D01*
X77991748Y-123510938D01*
X77984032Y-123502437D01*
X77744862Y-123213014D01*
X77737956Y-123203821D01*
X77526617Y-122893479D01*
X77520593Y-122883685D01*
X77482349Y-122814518D01*
X77338918Y-122555115D01*
X77333829Y-122544811D01*
X77295210Y-122456519D01*
X77183363Y-122200809D01*
X77179251Y-122190076D01*
X77152265Y-122108523D01*
X77061302Y-121833632D01*
X77058202Y-121822568D01*
X76990677Y-121529959D01*
X76985367Y-121506951D01*
X76985366Y-121506948D01*
X78923241Y-121506948D01*
X78923241Y-121711651D01*
X78955263Y-121913834D01*
X79018522Y-122108523D01*
X79111456Y-122290913D01*
X79231769Y-122456513D01*
X79376527Y-122601271D01*
X79531490Y-122713856D01*
X79542131Y-122721587D01*
X79658348Y-122780803D01*
X79724517Y-122814518D01*
X79724519Y-122814518D01*
X79724522Y-122814520D01*
X79828878Y-122848427D01*
X79919206Y-122877777D01*
X79988341Y-122888727D01*
X80121389Y-122909800D01*
X80121390Y-122909800D01*
X80326092Y-122909800D01*
X80326093Y-122909800D01*
X80528275Y-122877777D01*
X80722960Y-122814520D01*
X80905351Y-122721587D01*
X80998331Y-122654032D01*
X81070954Y-122601271D01*
X81070956Y-122601268D01*
X81070960Y-122601266D01*
X81215707Y-122456519D01*
X81215709Y-122456515D01*
X81215712Y-122456513D01*
X81268473Y-122383890D01*
X81336028Y-122290910D01*
X81428961Y-122108519D01*
X81492218Y-121913834D01*
X81524241Y-121711652D01*
X81524241Y-121506948D01*
X86001241Y-121506948D01*
X86001241Y-121711651D01*
X86033263Y-121913834D01*
X86096522Y-122108523D01*
X86189456Y-122290913D01*
X86309769Y-122456513D01*
X86454527Y-122601271D01*
X86609490Y-122713856D01*
X86620131Y-122721587D01*
X86736348Y-122780803D01*
X86802517Y-122814518D01*
X86802519Y-122814518D01*
X86802522Y-122814520D01*
X86906878Y-122848427D01*
X86997206Y-122877777D01*
X87066341Y-122888727D01*
X87199389Y-122909800D01*
X87199390Y-122909800D01*
X87404092Y-122909800D01*
X87404093Y-122909800D01*
X87606275Y-122877777D01*
X87800960Y-122814520D01*
X87983351Y-122721587D01*
X88076331Y-122654032D01*
X88148954Y-122601271D01*
X88148956Y-122601268D01*
X88148960Y-122601266D01*
X88293707Y-122456519D01*
X88293709Y-122456515D01*
X88293712Y-122456513D01*
X88346473Y-122383890D01*
X88414028Y-122290910D01*
X88506961Y-122108519D01*
X88570218Y-121913834D01*
X88602241Y-121711652D01*
X88602241Y-121506948D01*
X88596061Y-121467932D01*
X88605015Y-121398643D01*
X88650010Y-121345191D01*
X88716761Y-121324550D01*
X88784075Y-121343274D01*
X88806215Y-121360856D01*
X88836882Y-121391523D01*
X88913700Y-121447336D01*
X88913701Y-121447336D01*
X88913702Y-121447337D01*
X89034359Y-121486541D01*
X89034360Y-121486541D01*
X89161224Y-121486541D01*
X89161225Y-121486541D01*
X89281882Y-121447337D01*
X89358701Y-121391525D01*
X90676066Y-120074158D01*
X90731880Y-119997339D01*
X90771084Y-119876682D01*
X90771084Y-119749816D01*
X90731880Y-119629159D01*
X90709555Y-119598431D01*
X90676071Y-119552343D01*
X90676069Y-119552341D01*
X89358704Y-118234977D01*
X89358701Y-118234974D01*
X89281883Y-118179161D01*
X89161226Y-118139957D01*
X89161225Y-118139957D01*
X89034359Y-118139957D01*
X89034357Y-118139957D01*
X88913702Y-118179161D01*
X88913700Y-118179162D01*
X88836886Y-118234969D01*
X88836884Y-118234971D01*
X87519520Y-119552336D01*
X87519517Y-119552339D01*
X87463704Y-119629157D01*
X87424500Y-119749814D01*
X87424500Y-119749816D01*
X87424500Y-119876682D01*
X87463704Y-119997339D01*
X87463705Y-119997340D01*
X87519510Y-120074151D01*
X87519513Y-120074154D01*
X87519516Y-120074158D01*
X87550184Y-120104826D01*
X87583668Y-120166145D01*
X87578684Y-120235837D01*
X87536814Y-120291771D01*
X87471350Y-120316189D01*
X87443107Y-120314979D01*
X87430278Y-120312947D01*
X87404093Y-120308800D01*
X87199389Y-120308800D01*
X87175070Y-120312651D01*
X86997206Y-120340822D01*
X86802517Y-120404081D01*
X86620127Y-120497015D01*
X86454527Y-120617328D01*
X86309769Y-120762086D01*
X86189456Y-120927686D01*
X86096522Y-121110076D01*
X86033263Y-121304765D01*
X86001241Y-121506948D01*
X81524241Y-121506948D01*
X81518061Y-121467932D01*
X81527015Y-121398643D01*
X81572010Y-121345191D01*
X81638761Y-121324550D01*
X81706075Y-121343274D01*
X81728215Y-121360856D01*
X81758882Y-121391523D01*
X81835700Y-121447336D01*
X81835701Y-121447336D01*
X81835702Y-121447337D01*
X81956359Y-121486541D01*
X81956360Y-121486541D01*
X82083224Y-121486541D01*
X82083225Y-121486541D01*
X82203882Y-121447337D01*
X82266614Y-121401760D01*
X82266617Y-121401758D01*
X82273429Y-121396807D01*
X82280701Y-121391525D01*
X83598066Y-120074158D01*
X83653880Y-119997339D01*
X83693084Y-119876682D01*
X83693084Y-119749816D01*
X83653880Y-119629159D01*
X83631555Y-119598431D01*
X83598071Y-119552343D01*
X83598069Y-119552341D01*
X82280704Y-118234977D01*
X82280701Y-118234974D01*
X82203883Y-118179161D01*
X82083226Y-118139957D01*
X82083225Y-118139957D01*
X81956359Y-118139957D01*
X81956357Y-118139957D01*
X81835702Y-118179161D01*
X81835700Y-118179162D01*
X81758886Y-118234969D01*
X81758884Y-118234971D01*
X80441520Y-119552336D01*
X80441517Y-119552339D01*
X80385704Y-119629157D01*
X80346500Y-119749814D01*
X80346500Y-119749816D01*
X80346500Y-119876682D01*
X80385704Y-119997339D01*
X80385705Y-119997340D01*
X80441510Y-120074151D01*
X80441513Y-120074154D01*
X80441516Y-120074158D01*
X80472184Y-120104826D01*
X80505668Y-120166145D01*
X80500684Y-120235837D01*
X80458814Y-120291771D01*
X80393350Y-120316189D01*
X80365107Y-120314979D01*
X80352278Y-120312947D01*
X80326093Y-120308800D01*
X80121389Y-120308800D01*
X80097070Y-120312651D01*
X79919206Y-120340822D01*
X79724517Y-120404081D01*
X79542127Y-120497015D01*
X79376527Y-120617328D01*
X79231769Y-120762086D01*
X79111456Y-120927686D01*
X79018522Y-121110076D01*
X78955263Y-121304765D01*
X78923241Y-121506948D01*
X76985366Y-121506948D01*
X76973774Y-121456712D01*
X76971712Y-121445405D01*
X76965826Y-121401758D01*
X76921537Y-121073309D01*
X76920532Y-121061860D01*
X76905040Y-120686721D01*
X76905097Y-120675257D01*
X76924425Y-120300249D01*
X76925544Y-120288847D01*
X76979521Y-119917267D01*
X76981700Y-119905982D01*
X77010407Y-119787141D01*
X77069861Y-119541010D01*
X77073064Y-119530011D01*
X77194664Y-119174744D01*
X77198876Y-119164080D01*
X77352856Y-118821617D01*
X77358034Y-118811396D01*
X77545513Y-118480363D01*
X77545787Y-118479885D01*
X77547015Y-118477746D01*
X77580930Y-118423855D01*
X77584361Y-118412757D01*
X77591237Y-118400792D01*
X77591672Y-118400374D01*
X77592277Y-118399015D01*
X80042292Y-114295297D01*
X82348092Y-114295297D01*
X82348092Y-114500000D01*
X82380114Y-114702183D01*
X82443373Y-114896872D01*
X82507283Y-115022302D01*
X82525625Y-115058299D01*
X82536307Y-115079262D01*
X82656620Y-115244862D01*
X82801378Y-115389620D01*
X82933808Y-115485834D01*
X82966982Y-115509936D01*
X83061083Y-115557883D01*
X83149368Y-115602867D01*
X83149370Y-115602867D01*
X83149373Y-115602869D01*
X83219637Y-115625699D01*
X83344057Y-115666126D01*
X83445149Y-115682137D01*
X83546240Y-115698149D01*
X83546241Y-115698149D01*
X83750943Y-115698149D01*
X83750944Y-115698149D01*
X83953126Y-115666126D01*
X84147811Y-115602869D01*
X84330202Y-115509936D01*
X84449066Y-115423577D01*
X84495805Y-115389620D01*
X84495807Y-115389617D01*
X84495811Y-115389615D01*
X84640558Y-115244868D01*
X84663772Y-115212915D01*
X84719100Y-115170248D01*
X84788713Y-115164267D01*
X84850510Y-115196871D01*
X84884869Y-115257709D01*
X84888092Y-115285795D01*
X84888092Y-115329165D01*
X84897666Y-115389615D01*
X84902946Y-115422953D01*
X84960542Y-115535991D01*
X84960544Y-115535993D01*
X84960546Y-115535996D01*
X85050244Y-115625694D01*
X85050246Y-115625695D01*
X85050250Y-115625699D01*
X85154156Y-115678642D01*
X85163290Y-115683296D01*
X85257067Y-115698148D01*
X85257073Y-115698149D01*
X87120110Y-115698148D01*
X87213896Y-115683295D01*
X87326934Y-115625699D01*
X87416642Y-115535991D01*
X87474238Y-115422953D01*
X87474238Y-115422951D01*
X87474239Y-115422950D01*
X87489091Y-115329173D01*
X87489092Y-115329168D01*
X87489091Y-113466131D01*
X87474238Y-113372345D01*
X87416642Y-113259307D01*
X87416638Y-113259303D01*
X87416637Y-113259301D01*
X87326939Y-113169603D01*
X87326936Y-113169601D01*
X87326934Y-113169599D01*
X87247590Y-113129171D01*
X87213893Y-113112001D01*
X87120116Y-113097149D01*
X85257074Y-113097149D01*
X85176111Y-113109972D01*
X85163288Y-113112003D01*
X85050250Y-113169599D01*
X85050249Y-113169600D01*
X85050244Y-113169603D01*
X84960546Y-113259301D01*
X84960543Y-113259306D01*
X84960542Y-113259307D01*
X84947266Y-113285362D01*
X84902944Y-113372347D01*
X84888092Y-113466124D01*
X84888092Y-113509498D01*
X84868407Y-113576537D01*
X84815603Y-113622292D01*
X84746445Y-113632236D01*
X84682889Y-113603211D01*
X84663774Y-113582383D01*
X84640563Y-113550435D01*
X84495805Y-113405677D01*
X84330205Y-113285364D01*
X84330204Y-113285363D01*
X84330202Y-113285362D01*
X84267055Y-113253187D01*
X84147815Y-113192430D01*
X83953126Y-113129171D01*
X83778587Y-113101527D01*
X83750944Y-113097149D01*
X83546240Y-113097149D01*
X83521921Y-113101000D01*
X83344057Y-113129171D01*
X83149368Y-113192430D01*
X82966978Y-113285364D01*
X82801378Y-113405677D01*
X82656620Y-113550435D01*
X82536307Y-113716035D01*
X82443373Y-113898425D01*
X82380114Y-114093114D01*
X82348092Y-114295297D01*
X80042292Y-114295297D01*
X83821449Y-107965297D01*
X86128092Y-107965297D01*
X86128092Y-108170001D01*
X86132470Y-108197644D01*
X86160114Y-108372183D01*
X86223373Y-108566872D01*
X86262271Y-108643212D01*
X86310527Y-108737920D01*
X86316307Y-108749262D01*
X86436620Y-108914862D01*
X86581378Y-109059620D01*
X86733872Y-109170411D01*
X86746982Y-109179936D01*
X86832868Y-109223697D01*
X86929368Y-109272867D01*
X86929370Y-109272867D01*
X86929373Y-109272869D01*
X86999637Y-109295699D01*
X87124057Y-109336126D01*
X87217153Y-109350871D01*
X87326240Y-109368149D01*
X87326241Y-109368149D01*
X87530943Y-109368149D01*
X87530944Y-109368149D01*
X87733126Y-109336126D01*
X87927811Y-109272869D01*
X88110202Y-109179936D01*
X88244837Y-109082119D01*
X88275805Y-109059620D01*
X88275807Y-109059617D01*
X88275811Y-109059615D01*
X88420558Y-108914868D01*
X88443772Y-108882915D01*
X88499100Y-108840248D01*
X88568713Y-108834267D01*
X88630510Y-108866871D01*
X88664869Y-108927709D01*
X88668092Y-108955795D01*
X88668092Y-108999165D01*
X88676557Y-109052610D01*
X88682946Y-109092953D01*
X88740542Y-109205991D01*
X88740544Y-109205993D01*
X88740546Y-109205996D01*
X88830244Y-109295694D01*
X88830246Y-109295695D01*
X88830250Y-109295699D01*
X88934568Y-109348852D01*
X88943290Y-109353296D01*
X89037067Y-109368148D01*
X89037073Y-109368149D01*
X89244092Y-109368148D01*
X89311131Y-109387832D01*
X89356886Y-109440636D01*
X89368092Y-109492148D01*
X89368092Y-110111610D01*
X89368091Y-110111628D01*
X89368091Y-110277334D01*
X89368090Y-110277334D01*
X89409016Y-110430069D01*
X89409017Y-110430070D01*
X89429282Y-110465169D01*
X89429283Y-110465170D01*
X89488069Y-110566992D01*
X89488073Y-110566997D01*
X89606941Y-110685865D01*
X89606946Y-110685869D01*
X91763076Y-112842000D01*
X91763078Y-112842001D01*
X91763082Y-112842004D01*
X91862327Y-112899302D01*
X91900008Y-112921057D01*
X92052735Y-112961981D01*
X92052737Y-112961981D01*
X92218446Y-112961981D01*
X92218462Y-112961980D01*
X97308526Y-112961980D01*
X97375565Y-112981665D01*
X97396207Y-112998299D01*
X99626283Y-115228374D01*
X99626293Y-115228385D01*
X99630623Y-115232715D01*
X99630624Y-115232716D01*
X99742428Y-115344520D01*
X99742430Y-115344521D01*
X99742434Y-115344524D01*
X99843045Y-115402611D01*
X99879360Y-115423577D01*
X99979387Y-115450379D01*
X100032086Y-115464500D01*
X100032087Y-115464500D01*
X110198187Y-115464500D01*
X110198191Y-115464501D01*
X110356305Y-115464501D01*
X110395143Y-115454094D01*
X110408299Y-115453435D01*
X110429975Y-115458637D01*
X110452259Y-115459167D01*
X110463288Y-115466632D01*
X110476239Y-115469740D01*
X110491660Y-115485834D01*
X110510122Y-115498329D01*
X110515890Y-115511120D01*
X110524579Y-115520188D01*
X110528092Y-115538179D01*
X110536977Y-115557881D01*
X110545129Y-115609349D01*
X110536173Y-115678642D01*
X110510336Y-115716427D01*
X110083935Y-116142830D01*
X110022612Y-116176315D01*
X109996254Y-116179149D01*
X99130334Y-116179149D01*
X98977606Y-116220072D01*
X98961013Y-116229653D01*
X98961010Y-116229654D01*
X98840682Y-116299124D01*
X98840674Y-116299130D01*
X98728870Y-116410935D01*
X96758446Y-118381358D01*
X96697123Y-118414843D01*
X96627431Y-118409859D01*
X96583085Y-118381359D01*
X96436701Y-118234975D01*
X96436700Y-118234974D01*
X96436698Y-118234972D01*
X96359883Y-118179161D01*
X96239226Y-118139957D01*
X96239225Y-118139957D01*
X96112359Y-118139957D01*
X96112357Y-118139957D01*
X95991702Y-118179161D01*
X95991700Y-118179162D01*
X95914886Y-118234969D01*
X95914884Y-118234971D01*
X94973427Y-119176430D01*
X94912104Y-119209915D01*
X94885746Y-119212749D01*
X93422489Y-119212749D01*
X93355450Y-119193064D01*
X93334808Y-119176430D01*
X92792826Y-118634449D01*
X92759341Y-118573126D01*
X92764325Y-118503435D01*
X92806196Y-118447501D01*
X92833058Y-118432205D01*
X92844603Y-118427424D01*
X92959334Y-118350763D01*
X93056906Y-118253191D01*
X93133567Y-118138460D01*
X93186372Y-118010977D01*
X93201817Y-117933332D01*
X93213292Y-117875644D01*
X93213292Y-117737653D01*
X93186373Y-117602326D01*
X93186372Y-117602325D01*
X93186372Y-117602321D01*
X93178855Y-117584173D01*
X93133570Y-117474844D01*
X93133563Y-117474831D01*
X93056906Y-117360107D01*
X93056903Y-117360103D01*
X92959337Y-117262537D01*
X92959333Y-117262534D01*
X92844606Y-117185875D01*
X92749326Y-117146409D01*
X92709098Y-117119529D01*
X92646504Y-117056935D01*
X92052440Y-116462871D01*
X90140567Y-114551000D01*
X93172484Y-114551000D01*
X93172484Y-114677869D01*
X93176307Y-114689634D01*
X93211688Y-114798525D01*
X93215215Y-114803379D01*
X93267496Y-114875340D01*
X93267498Y-114875342D01*
X94266669Y-115874511D01*
X94266671Y-115874513D01*
X94343486Y-115930324D01*
X94343487Y-115930324D01*
X94343488Y-115930325D01*
X94464145Y-115969529D01*
X94464146Y-115969529D01*
X94591010Y-115969529D01*
X94591011Y-115969529D01*
X94703977Y-115932823D01*
X94773814Y-115930828D01*
X94833647Y-115966908D01*
X94864476Y-116029609D01*
X94866292Y-116050755D01*
X94866292Y-116113298D01*
X94892773Y-116280496D01*
X94945088Y-116441502D01*
X94984385Y-116518624D01*
X95008352Y-116565663D01*
X95021944Y-116592337D01*
X95121440Y-116729283D01*
X95121444Y-116729288D01*
X95241152Y-116848996D01*
X95241157Y-116849000D01*
X95343419Y-116923297D01*
X95378107Y-116948499D01*
X95453381Y-116986853D01*
X95528938Y-117025352D01*
X95528940Y-117025352D01*
X95528943Y-117025354D01*
X95615242Y-117053394D01*
X95689944Y-117077667D01*
X95857143Y-117104149D01*
X95857148Y-117104149D01*
X96026441Y-117104149D01*
X96193639Y-117077667D01*
X96354641Y-117025354D01*
X96505477Y-116948499D01*
X96642433Y-116848995D01*
X96762138Y-116729290D01*
X96861642Y-116592334D01*
X96938497Y-116441498D01*
X96990810Y-116280496D01*
X96998862Y-116229657D01*
X97017292Y-116113298D01*
X97017292Y-115943999D01*
X96990810Y-115776801D01*
X96960428Y-115683296D01*
X96938497Y-115615800D01*
X96938495Y-115615797D01*
X96938495Y-115615795D01*
X96898947Y-115538179D01*
X96861642Y-115464964D01*
X96816340Y-115402611D01*
X96762143Y-115328014D01*
X96762139Y-115328009D01*
X96642431Y-115208301D01*
X96642426Y-115208297D01*
X96505480Y-115108801D01*
X96505479Y-115108800D01*
X96505477Y-115108799D01*
X96447502Y-115079259D01*
X96354645Y-115031945D01*
X96193639Y-114979630D01*
X96026441Y-114953149D01*
X96026436Y-114953149D01*
X95963899Y-114953149D01*
X95896860Y-114933464D01*
X95851105Y-114880660D01*
X95841161Y-114811502D01*
X95845968Y-114790830D01*
X95852027Y-114772183D01*
X95882672Y-114677868D01*
X95882672Y-114551002D01*
X95843468Y-114430345D01*
X95807027Y-114380188D01*
X95787659Y-114353529D01*
X95787657Y-114353527D01*
X94788486Y-113354358D01*
X94788484Y-113354356D01*
X94711669Y-113298545D01*
X94591012Y-113259341D01*
X94591011Y-113259341D01*
X94464145Y-113259341D01*
X94464143Y-113259341D01*
X94343488Y-113298545D01*
X94343486Y-113298546D01*
X94266672Y-113354353D01*
X94266670Y-113354355D01*
X93267501Y-114353526D01*
X93267499Y-114353528D01*
X93211688Y-114430343D01*
X93172484Y-114551000D01*
X90140567Y-114551000D01*
X89804462Y-114214895D01*
X89773429Y-114158061D01*
X89772515Y-114158339D01*
X89771183Y-114153948D01*
X89770978Y-114153573D01*
X89770778Y-114152613D01*
X89770747Y-114152511D01*
X89770746Y-114152506D01*
X89728252Y-114049915D01*
X89717944Y-114025029D01*
X89717937Y-114025016D01*
X89641280Y-113910292D01*
X89641277Y-113910288D01*
X89543711Y-113812722D01*
X89543707Y-113812719D01*
X89428983Y-113736062D01*
X89428970Y-113736055D01*
X89301498Y-113683255D01*
X89301488Y-113683252D01*
X89166161Y-113656334D01*
X89166159Y-113656334D01*
X89028173Y-113656334D01*
X89028171Y-113656334D01*
X88892843Y-113683252D01*
X88892833Y-113683255D01*
X88765361Y-113736055D01*
X88765348Y-113736062D01*
X88650624Y-113812719D01*
X88650620Y-113812722D01*
X88553054Y-113910288D01*
X88553051Y-113910292D01*
X88476394Y-114025016D01*
X88476387Y-114025029D01*
X88423587Y-114152501D01*
X88423584Y-114152511D01*
X88396666Y-114287838D01*
X88396666Y-114287841D01*
X88396666Y-114425827D01*
X88396666Y-114425829D01*
X88396665Y-114425829D01*
X88423584Y-114561156D01*
X88423587Y-114561166D01*
X88476387Y-114688638D01*
X88476394Y-114688651D01*
X88553051Y-114803375D01*
X88553054Y-114803379D01*
X88650620Y-114900945D01*
X88650624Y-114900948D01*
X88765348Y-114977605D01*
X88765361Y-114977612D01*
X88841844Y-115009292D01*
X88892838Y-115030414D01*
X88892845Y-115030415D01*
X88898671Y-115032183D01*
X88898241Y-115033599D01*
X88953640Y-115062571D01*
X88955228Y-115064131D01*
X89903711Y-116012614D01*
X89937196Y-116073937D01*
X89932212Y-116143629D01*
X89890340Y-116199562D01*
X89863485Y-116214855D01*
X89827765Y-116229651D01*
X89827753Y-116229657D01*
X89713029Y-116306314D01*
X89713025Y-116306317D01*
X89615459Y-116403883D01*
X89615456Y-116403887D01*
X89538799Y-116518611D01*
X89538792Y-116518624D01*
X89485992Y-116646096D01*
X89485989Y-116646106D01*
X89459071Y-116781433D01*
X89459071Y-116781436D01*
X89459071Y-116919422D01*
X89459071Y-116919424D01*
X89459070Y-116919424D01*
X89485989Y-117054751D01*
X89485992Y-117054761D01*
X89538792Y-117182233D01*
X89538799Y-117182246D01*
X89615456Y-117296970D01*
X89615459Y-117296974D01*
X89713025Y-117394540D01*
X89713029Y-117394543D01*
X89827753Y-117471200D01*
X89827766Y-117471207D01*
X89904249Y-117502887D01*
X89955243Y-117524009D01*
X89955250Y-117524010D01*
X89961076Y-117525778D01*
X89960646Y-117527194D01*
X90016045Y-117556166D01*
X90017633Y-117557726D01*
X92637531Y-120177623D01*
X92637541Y-120177634D01*
X92641871Y-120181964D01*
X92641872Y-120181965D01*
X92753676Y-120293769D01*
X92835177Y-120340823D01*
X92890607Y-120372826D01*
X93043335Y-120413750D01*
X93043338Y-120413750D01*
X93209046Y-120413750D01*
X93209062Y-120413749D01*
X93436745Y-120413749D01*
X93503784Y-120433434D01*
X93549539Y-120486238D01*
X93559483Y-120555396D01*
X93530458Y-120618952D01*
X93524426Y-120625430D01*
X93387773Y-120762082D01*
X93387769Y-120762086D01*
X93267456Y-120927686D01*
X93174522Y-121110076D01*
X93111263Y-121304765D01*
X93079241Y-121506948D01*
X93079241Y-121711651D01*
X93111263Y-121913834D01*
X93174522Y-122108523D01*
X93267456Y-122290913D01*
X93387769Y-122456513D01*
X93532527Y-122601271D01*
X93687490Y-122713856D01*
X93698131Y-122721587D01*
X93814348Y-122780803D01*
X93880517Y-122814518D01*
X93880519Y-122814518D01*
X93880522Y-122814520D01*
X93984878Y-122848427D01*
X94075206Y-122877777D01*
X94144341Y-122888727D01*
X94277389Y-122909800D01*
X94277390Y-122909800D01*
X94482092Y-122909800D01*
X94482093Y-122909800D01*
X94684275Y-122877777D01*
X94878960Y-122814520D01*
X95061351Y-122721587D01*
X95154331Y-122654032D01*
X95226954Y-122601271D01*
X95226956Y-122601268D01*
X95226960Y-122601266D01*
X95371707Y-122456519D01*
X95371709Y-122456515D01*
X95371712Y-122456513D01*
X95424473Y-122383890D01*
X95492028Y-122290910D01*
X95584961Y-122108519D01*
X95648218Y-121913834D01*
X95680241Y-121711652D01*
X95680241Y-121506948D01*
X95674061Y-121467932D01*
X95683015Y-121398643D01*
X95728010Y-121345191D01*
X95794761Y-121324550D01*
X95862075Y-121343274D01*
X95884215Y-121360856D01*
X95914882Y-121391523D01*
X95991700Y-121447336D01*
X95991701Y-121447336D01*
X95991702Y-121447337D01*
X96112359Y-121486541D01*
X96112360Y-121486541D01*
X96239224Y-121486541D01*
X96239225Y-121486541D01*
X96359882Y-121447337D01*
X96436701Y-121391525D01*
X97754066Y-120074158D01*
X97809880Y-119997339D01*
X97849084Y-119876682D01*
X97849084Y-119749816D01*
X97809880Y-119629159D01*
X97787555Y-119598431D01*
X97754071Y-119552343D01*
X97607682Y-119405954D01*
X97574197Y-119344631D01*
X97579181Y-119274939D01*
X97607680Y-119230594D01*
X99225604Y-117612671D01*
X99286923Y-117579189D01*
X99356615Y-117584173D01*
X99412548Y-117626045D01*
X99436965Y-117691509D01*
X99434900Y-117724540D01*
X99432292Y-117737654D01*
X99432292Y-117737656D01*
X99432292Y-117875642D01*
X99432292Y-117875644D01*
X99432291Y-117875644D01*
X99459210Y-118010971D01*
X99459213Y-118010981D01*
X99512013Y-118138453D01*
X99512020Y-118138466D01*
X99588677Y-118253190D01*
X99588680Y-118253194D01*
X99686246Y-118350760D01*
X99686250Y-118350763D01*
X99800974Y-118427420D01*
X99800987Y-118427427D01*
X99928459Y-118480227D01*
X99928464Y-118480229D01*
X99928468Y-118480229D01*
X99928469Y-118480230D01*
X100063796Y-118507149D01*
X100063799Y-118507149D01*
X100201787Y-118507149D01*
X100292833Y-118489038D01*
X100337120Y-118480229D01*
X100464603Y-118427424D01*
X100507129Y-118399009D01*
X100579881Y-118350398D01*
X100646558Y-118329520D01*
X100648772Y-118329500D01*
X102598994Y-118329500D01*
X102666033Y-118349185D01*
X102711788Y-118401989D01*
X102721732Y-118471147D01*
X102692707Y-118534703D01*
X102686675Y-118541181D01*
X101675517Y-119552339D01*
X101619704Y-119629157D01*
X101580500Y-119749814D01*
X101580500Y-119749816D01*
X101580500Y-119876682D01*
X101619704Y-119997339D01*
X101619705Y-119997340D01*
X101675510Y-120074151D01*
X101675513Y-120074154D01*
X101675516Y-120074158D01*
X101706184Y-120104826D01*
X101739668Y-120166145D01*
X101734684Y-120235837D01*
X101692814Y-120291771D01*
X101627350Y-120316189D01*
X101599107Y-120314979D01*
X101586278Y-120312947D01*
X101560093Y-120308800D01*
X101355389Y-120308800D01*
X101331070Y-120312651D01*
X101153206Y-120340822D01*
X100958517Y-120404081D01*
X100776127Y-120497015D01*
X100610527Y-120617328D01*
X100465769Y-120762086D01*
X100345456Y-120927686D01*
X100252522Y-121110076D01*
X100189263Y-121304765D01*
X100157241Y-121506948D01*
X100157241Y-121711651D01*
X100189263Y-121913834D01*
X100252522Y-122108523D01*
X100345456Y-122290913D01*
X100465769Y-122456513D01*
X100610527Y-122601271D01*
X100765490Y-122713856D01*
X100776131Y-122721587D01*
X100892348Y-122780803D01*
X100958517Y-122814518D01*
X100958519Y-122814518D01*
X100958522Y-122814520D01*
X101062878Y-122848427D01*
X101153206Y-122877777D01*
X101222341Y-122888727D01*
X101355389Y-122909800D01*
X101355390Y-122909800D01*
X101560092Y-122909800D01*
X101560093Y-122909800D01*
X101762275Y-122877777D01*
X101956960Y-122814520D01*
X102139351Y-122721587D01*
X102232331Y-122654032D01*
X102304954Y-122601271D01*
X102304956Y-122601268D01*
X102304960Y-122601266D01*
X102449707Y-122456519D01*
X102449709Y-122456515D01*
X102449712Y-122456513D01*
X102502473Y-122383890D01*
X102570028Y-122290910D01*
X102662961Y-122108519D01*
X102726218Y-121913834D01*
X102758241Y-121711652D01*
X102758241Y-121506948D01*
X102752061Y-121467932D01*
X102761015Y-121398643D01*
X102806010Y-121345191D01*
X102872761Y-121324550D01*
X102940075Y-121343274D01*
X102962215Y-121360856D01*
X102992882Y-121391523D01*
X103069700Y-121447336D01*
X103069701Y-121447336D01*
X103069702Y-121447337D01*
X103190359Y-121486541D01*
X103190360Y-121486541D01*
X103317224Y-121486541D01*
X103317225Y-121486541D01*
X103437882Y-121447337D01*
X103514701Y-121391525D01*
X104832066Y-120074158D01*
X104887880Y-119997339D01*
X104927084Y-119876682D01*
X104927084Y-119749816D01*
X104887880Y-119629159D01*
X104865555Y-119598431D01*
X104832071Y-119552343D01*
X104832069Y-119552341D01*
X104598002Y-119318274D01*
X103820906Y-118541180D01*
X103787422Y-118479858D01*
X103792406Y-118410167D01*
X103834277Y-118354233D01*
X103899742Y-118329816D01*
X103908588Y-118329500D01*
X109676994Y-118329500D01*
X109744033Y-118349185D01*
X109789788Y-118401989D01*
X109799732Y-118471147D01*
X109770707Y-118534703D01*
X109764675Y-118541181D01*
X108753517Y-119552339D01*
X108697704Y-119629157D01*
X108658500Y-119749814D01*
X108658500Y-119749816D01*
X108658500Y-119876682D01*
X108697704Y-119997339D01*
X108697705Y-119997340D01*
X108753510Y-120074151D01*
X108753513Y-120074154D01*
X108753516Y-120074158D01*
X108784184Y-120104826D01*
X108817668Y-120166145D01*
X108812684Y-120235837D01*
X108770814Y-120291771D01*
X108705350Y-120316189D01*
X108677107Y-120314979D01*
X108664278Y-120312947D01*
X108638093Y-120308800D01*
X108433389Y-120308800D01*
X108409070Y-120312651D01*
X108231206Y-120340822D01*
X108036517Y-120404081D01*
X107854127Y-120497015D01*
X107688527Y-120617328D01*
X107543769Y-120762086D01*
X107423456Y-120927686D01*
X107330522Y-121110076D01*
X107267263Y-121304765D01*
X107235241Y-121506948D01*
X107235241Y-121711651D01*
X107267263Y-121913834D01*
X107330522Y-122108523D01*
X107423456Y-122290913D01*
X107543769Y-122456513D01*
X107688527Y-122601271D01*
X107843490Y-122713856D01*
X107854131Y-122721587D01*
X107970348Y-122780803D01*
X108036517Y-122814518D01*
X108036519Y-122814518D01*
X108036522Y-122814520D01*
X108140878Y-122848427D01*
X108231206Y-122877777D01*
X108300341Y-122888727D01*
X108433389Y-122909800D01*
X108433390Y-122909800D01*
X108638092Y-122909800D01*
X108638093Y-122909800D01*
X108840275Y-122877777D01*
X109034960Y-122814520D01*
X109217351Y-122721587D01*
X109310331Y-122654032D01*
X109382954Y-122601271D01*
X109382956Y-122601268D01*
X109382960Y-122601266D01*
X109527707Y-122456519D01*
X109527709Y-122456515D01*
X109527712Y-122456513D01*
X109580473Y-122383890D01*
X109648028Y-122290910D01*
X109740961Y-122108519D01*
X109804218Y-121913834D01*
X109836241Y-121711652D01*
X109836241Y-121506948D01*
X114313241Y-121506948D01*
X114313241Y-121711651D01*
X114345263Y-121913834D01*
X114408522Y-122108523D01*
X114501456Y-122290913D01*
X114621769Y-122456513D01*
X114766527Y-122601271D01*
X114921490Y-122713856D01*
X114932131Y-122721587D01*
X115048348Y-122780803D01*
X115114517Y-122814518D01*
X115114519Y-122814518D01*
X115114522Y-122814520D01*
X115218878Y-122848427D01*
X115309206Y-122877777D01*
X115378341Y-122888727D01*
X115511389Y-122909800D01*
X115511390Y-122909800D01*
X115716092Y-122909800D01*
X115716093Y-122909800D01*
X115918275Y-122877777D01*
X116112960Y-122814520D01*
X116295351Y-122721587D01*
X116388331Y-122654032D01*
X116460954Y-122601271D01*
X116460956Y-122601268D01*
X116460960Y-122601266D01*
X116605707Y-122456519D01*
X116605709Y-122456515D01*
X116605712Y-122456513D01*
X116658473Y-122383890D01*
X116726028Y-122290910D01*
X116818961Y-122108519D01*
X116882218Y-121913834D01*
X116914241Y-121711652D01*
X116914241Y-121506948D01*
X116908061Y-121467932D01*
X116917015Y-121398643D01*
X116962010Y-121345191D01*
X117028761Y-121324550D01*
X117096075Y-121343274D01*
X117118215Y-121360856D01*
X117148882Y-121391523D01*
X117225700Y-121447336D01*
X117225701Y-121447336D01*
X117225702Y-121447337D01*
X117346359Y-121486541D01*
X117346360Y-121486541D01*
X117473224Y-121486541D01*
X117473225Y-121486541D01*
X117593882Y-121447337D01*
X117670701Y-121391525D01*
X118988066Y-120074158D01*
X119043880Y-119997339D01*
X119083084Y-119876682D01*
X119083084Y-119749816D01*
X119043880Y-119629159D01*
X119021555Y-119598431D01*
X118988071Y-119552343D01*
X118046611Y-118610883D01*
X118013126Y-118549560D01*
X118010292Y-118523202D01*
X118010292Y-117274637D01*
X118029977Y-117207598D01*
X118046606Y-117186961D01*
X119118994Y-116114572D01*
X119180315Y-116081089D01*
X119250007Y-116086073D01*
X119305940Y-116127945D01*
X119324603Y-116163935D01*
X119341149Y-116214855D01*
X119344543Y-116225300D01*
X119347709Y-116229657D01*
X119400351Y-116302115D01*
X119400353Y-116302117D01*
X120717718Y-117619481D01*
X120717721Y-117619484D01*
X120794539Y-117675297D01*
X120794540Y-117675297D01*
X120794541Y-117675298D01*
X120915198Y-117714502D01*
X120915199Y-117714502D01*
X121042063Y-117714502D01*
X121042064Y-117714502D01*
X121162721Y-117675298D01*
X121239540Y-117619486D01*
X122556905Y-116302119D01*
X122612719Y-116225300D01*
X122651923Y-116104643D01*
X122651923Y-115977777D01*
X122612719Y-115857120D01*
X122568691Y-115796520D01*
X122556912Y-115780307D01*
X122556909Y-115780304D01*
X122556907Y-115780301D01*
X122526237Y-115749631D01*
X122492754Y-115688313D01*
X122497738Y-115618621D01*
X122539608Y-115562687D01*
X122605072Y-115538269D01*
X122633317Y-115539479D01*
X122672330Y-115545659D01*
X122672331Y-115545659D01*
X122877033Y-115545659D01*
X122877034Y-115545659D01*
X123079216Y-115513636D01*
X123273901Y-115450379D01*
X123456292Y-115357446D01*
X123554912Y-115285795D01*
X123621895Y-115237130D01*
X123621897Y-115237127D01*
X123621901Y-115237125D01*
X123766648Y-115092378D01*
X123766650Y-115092374D01*
X123766653Y-115092372D01*
X123846263Y-114982796D01*
X123886969Y-114926769D01*
X123979902Y-114744378D01*
X124043159Y-114549693D01*
X124075182Y-114347511D01*
X124075182Y-114142807D01*
X124058984Y-114040538D01*
X124043159Y-113940624D01*
X123992627Y-113785104D01*
X123979902Y-113745940D01*
X123979900Y-113745937D01*
X123979900Y-113745935D01*
X123922025Y-113632350D01*
X123886969Y-113563549D01*
X123860383Y-113526956D01*
X123766653Y-113397945D01*
X123621895Y-113253187D01*
X123456295Y-113132874D01*
X123456294Y-113132873D01*
X123456292Y-113132872D01*
X123386182Y-113097149D01*
X123273905Y-113039940D01*
X123079216Y-112976681D01*
X122903337Y-112948825D01*
X122877034Y-112944659D01*
X122672330Y-112944659D01*
X122648011Y-112948510D01*
X122470147Y-112976681D01*
X122275458Y-113039940D01*
X122093068Y-113132874D01*
X121927468Y-113253187D01*
X121782710Y-113397945D01*
X121662397Y-113563545D01*
X121569463Y-113745935D01*
X121506204Y-113940624D01*
X121474182Y-114142807D01*
X121474182Y-114347511D01*
X121477383Y-114367718D01*
X121480361Y-114386523D01*
X121471406Y-114455817D01*
X121426410Y-114509269D01*
X121359659Y-114529908D01*
X121292345Y-114511183D01*
X121270207Y-114493602D01*
X121239540Y-114462935D01*
X121162722Y-114407122D01*
X121042065Y-114367918D01*
X121042064Y-114367918D01*
X120915198Y-114367918D01*
X120915196Y-114367918D01*
X120794541Y-114407122D01*
X120794539Y-114407123D01*
X120773176Y-114422644D01*
X120761445Y-114426829D01*
X120752053Y-114435004D01*
X120729160Y-114438347D01*
X120707369Y-114446122D01*
X120695240Y-114443301D01*
X120682917Y-114445101D01*
X120661849Y-114435535D01*
X120639315Y-114430295D01*
X120630636Y-114421364D01*
X120619297Y-114416216D01*
X120606745Y-114396779D01*
X120590622Y-114380188D01*
X120587231Y-114366562D01*
X120581393Y-114357521D01*
X120578194Y-114335446D01*
X120577051Y-114335574D01*
X120577050Y-114335565D01*
X120576343Y-114322800D01*
X120576293Y-114322598D01*
X120576292Y-114322145D01*
X120576293Y-114322141D01*
X120576293Y-114321889D01*
X120576292Y-114321871D01*
X120576292Y-110773594D01*
X120576292Y-110773592D01*
X120535369Y-110620865D01*
X120504266Y-110566992D01*
X120456316Y-110483939D01*
X120456313Y-110483935D01*
X120456312Y-110483933D01*
X120344508Y-110372129D01*
X120344507Y-110372128D01*
X120340177Y-110367798D01*
X120340166Y-110367788D01*
X119229810Y-109257432D01*
X119196325Y-109196109D01*
X119195018Y-109150358D01*
X119210500Y-109052611D01*
X119210500Y-108879389D01*
X119183402Y-108708299D01*
X119129873Y-108543555D01*
X119051232Y-108389212D01*
X118949414Y-108249072D01*
X118826928Y-108126586D01*
X118686788Y-108024768D01*
X118532445Y-107946127D01*
X118367701Y-107892598D01*
X118367699Y-107892597D01*
X118367698Y-107892597D01*
X118236271Y-107871781D01*
X118196611Y-107865500D01*
X118023389Y-107865500D01*
X117983728Y-107871781D01*
X117852302Y-107892597D01*
X117687552Y-107946128D01*
X117533211Y-108024768D01*
X117466415Y-108073299D01*
X117393072Y-108126586D01*
X117393070Y-108126588D01*
X117393069Y-108126588D01*
X117270588Y-108249069D01*
X117270588Y-108249070D01*
X117270586Y-108249072D01*
X117249713Y-108277801D01*
X117168768Y-108389211D01*
X117090128Y-108543552D01*
X117036597Y-108708302D01*
X117009500Y-108879389D01*
X117009500Y-109052610D01*
X117034864Y-109212757D01*
X117036598Y-109223701D01*
X117090127Y-109388445D01*
X117168768Y-109542788D01*
X117270586Y-109682928D01*
X117393072Y-109805414D01*
X117533212Y-109907232D01*
X117687555Y-109985873D01*
X117852299Y-110039402D01*
X118023389Y-110066500D01*
X118023390Y-110066500D01*
X118196610Y-110066500D01*
X118196611Y-110066500D01*
X118258343Y-110056722D01*
X118327636Y-110065676D01*
X118365422Y-110091514D01*
X119338973Y-111065065D01*
X119372458Y-111126388D01*
X119375292Y-111152746D01*
X119375292Y-114108443D01*
X119355607Y-114175482D01*
X119338973Y-114196124D01*
X116929273Y-116605823D01*
X116929271Y-116605825D01*
X116912927Y-116634134D01*
X116906019Y-116646101D01*
X116850215Y-116742756D01*
X116809291Y-116895484D01*
X116809291Y-116895486D01*
X116809291Y-117063587D01*
X116809292Y-117063600D01*
X116809292Y-118523202D01*
X116789607Y-118590241D01*
X116772973Y-118610883D01*
X115831517Y-119552340D01*
X115831515Y-119552342D01*
X115775704Y-119629157D01*
X115736500Y-119749814D01*
X115736500Y-119749816D01*
X115736500Y-119876682D01*
X115775704Y-119997339D01*
X115775705Y-119997340D01*
X115831510Y-120074151D01*
X115831513Y-120074154D01*
X115831516Y-120074158D01*
X115862184Y-120104826D01*
X115895668Y-120166145D01*
X115890684Y-120235837D01*
X115848814Y-120291771D01*
X115783350Y-120316189D01*
X115755107Y-120314979D01*
X115742278Y-120312947D01*
X115716093Y-120308800D01*
X115511389Y-120308800D01*
X115487070Y-120312651D01*
X115309206Y-120340822D01*
X115114517Y-120404081D01*
X114932127Y-120497015D01*
X114766527Y-120617328D01*
X114621769Y-120762086D01*
X114501456Y-120927686D01*
X114408522Y-121110076D01*
X114345263Y-121304765D01*
X114313241Y-121506948D01*
X109836241Y-121506948D01*
X109830061Y-121467932D01*
X109839015Y-121398643D01*
X109884010Y-121345191D01*
X109950761Y-121324550D01*
X110018075Y-121343274D01*
X110040215Y-121360856D01*
X110070882Y-121391523D01*
X110147700Y-121447336D01*
X110147701Y-121447336D01*
X110147702Y-121447337D01*
X110268359Y-121486541D01*
X110268360Y-121486541D01*
X110395224Y-121486541D01*
X110395225Y-121486541D01*
X110515882Y-121447337D01*
X110578614Y-121401760D01*
X110578617Y-121401758D01*
X110585429Y-121396807D01*
X110592701Y-121391525D01*
X111910066Y-120074158D01*
X111965880Y-119997339D01*
X112005084Y-119876682D01*
X112005084Y-119749816D01*
X111965880Y-119629159D01*
X111943555Y-119598431D01*
X111910071Y-119552343D01*
X111910069Y-119552341D01*
X111676002Y-119318274D01*
X110898906Y-118541180D01*
X110865422Y-118479858D01*
X110870406Y-118410167D01*
X110912277Y-118354233D01*
X110977742Y-118329816D01*
X110986588Y-118329500D01*
X113434230Y-118329500D01*
X113496369Y-118347746D01*
X113496819Y-118346905D01*
X113500859Y-118349064D01*
X113501269Y-118349185D01*
X113502087Y-118349721D01*
X113502190Y-118349776D01*
X113578437Y-118381358D01*
X113629672Y-118402580D01*
X113629676Y-118402580D01*
X113629677Y-118402581D01*
X113765004Y-118429500D01*
X113765007Y-118429500D01*
X113902995Y-118429500D01*
X114001734Y-118409859D01*
X114038328Y-118402580D01*
X114136924Y-118361740D01*
X114165804Y-118349778D01*
X114165804Y-118349777D01*
X114165811Y-118349775D01*
X114280542Y-118273114D01*
X114378114Y-118175542D01*
X114454775Y-118060811D01*
X114507580Y-117933328D01*
X114534500Y-117797993D01*
X114534500Y-117660007D01*
X114534500Y-117660004D01*
X114507581Y-117524677D01*
X114507580Y-117524676D01*
X114507580Y-117524672D01*
X114485433Y-117471204D01*
X114454778Y-117397195D01*
X114454771Y-117397182D01*
X114378114Y-117282458D01*
X114378111Y-117282454D01*
X114280545Y-117184888D01*
X114280541Y-117184885D01*
X114165817Y-117108228D01*
X114165804Y-117108221D01*
X114038332Y-117055421D01*
X114038322Y-117055418D01*
X113902995Y-117028500D01*
X113902993Y-117028500D01*
X113765007Y-117028500D01*
X113765005Y-117028500D01*
X113629677Y-117055418D01*
X113629667Y-117055421D01*
X113502190Y-117108223D01*
X113496819Y-117111095D01*
X113496123Y-117109794D01*
X113436438Y-117128480D01*
X113434230Y-117128500D01*
X111096097Y-117128500D01*
X111029058Y-117108815D01*
X110983303Y-117056011D01*
X110973359Y-116986853D01*
X111002384Y-116923297D01*
X111008416Y-116916819D01*
X111359571Y-116565663D01*
X111420894Y-116532178D01*
X111466650Y-116530871D01*
X111546384Y-116543500D01*
X111546389Y-116543500D01*
X111719610Y-116543500D01*
X111719611Y-116543500D01*
X111890701Y-116516402D01*
X112055445Y-116462873D01*
X112209788Y-116384232D01*
X112349928Y-116282414D01*
X112472414Y-116159928D01*
X112574232Y-116019788D01*
X112652873Y-115865445D01*
X112695449Y-115734410D01*
X112734886Y-115676736D01*
X112799244Y-115649538D01*
X112868091Y-115661453D01*
X112901060Y-115685048D01*
X113012532Y-115796520D01*
X113099343Y-115846639D01*
X113099345Y-115846641D01*
X113131918Y-115865447D01*
X113149463Y-115875577D01*
X113302191Y-115916500D01*
X113460305Y-115916500D01*
X114709815Y-115916500D01*
X114776854Y-115936185D01*
X114810131Y-115967612D01*
X114857586Y-116032928D01*
X114980072Y-116155414D01*
X115120212Y-116257232D01*
X115274555Y-116335873D01*
X115439299Y-116389402D01*
X115610389Y-116416500D01*
X115610390Y-116416500D01*
X115783610Y-116416500D01*
X115783611Y-116416500D01*
X115954701Y-116389402D01*
X116119445Y-116335873D01*
X116273788Y-116257232D01*
X116413928Y-116155414D01*
X116536414Y-116032928D01*
X116638232Y-115892788D01*
X116716873Y-115738445D01*
X116770402Y-115573701D01*
X116797500Y-115402611D01*
X116797500Y-115229389D01*
X116770402Y-115058299D01*
X116716873Y-114893555D01*
X116638232Y-114739212D01*
X116536414Y-114599072D01*
X116413928Y-114476586D01*
X116273788Y-114374768D01*
X116119445Y-114296127D01*
X115954701Y-114242598D01*
X115954699Y-114242597D01*
X115954698Y-114242597D01*
X115823271Y-114221781D01*
X115783611Y-114215500D01*
X115610389Y-114215500D01*
X115570728Y-114221781D01*
X115439302Y-114242597D01*
X115439299Y-114242598D01*
X115277110Y-114295297D01*
X115274552Y-114296128D01*
X115120211Y-114374768D01*
X115049933Y-114425829D01*
X114980072Y-114476586D01*
X114980070Y-114476588D01*
X114980069Y-114476588D01*
X114857588Y-114599069D01*
X114857588Y-114599070D01*
X114857586Y-114599072D01*
X114819085Y-114652064D01*
X114810133Y-114664386D01*
X114754803Y-114707051D01*
X114709815Y-114715500D01*
X113681345Y-114715500D01*
X113614306Y-114695815D01*
X113593664Y-114679181D01*
X113492355Y-114577872D01*
X113458870Y-114516549D01*
X113463854Y-114446857D01*
X113505726Y-114390924D01*
X113571190Y-114366507D01*
X113599430Y-114367717D01*
X113705389Y-114384500D01*
X113705390Y-114384500D01*
X113878610Y-114384500D01*
X113878611Y-114384500D01*
X114049701Y-114357402D01*
X114214445Y-114303873D01*
X114368788Y-114225232D01*
X114508928Y-114123414D01*
X114631414Y-114000928D01*
X114733232Y-113860788D01*
X114811873Y-113706445D01*
X114865402Y-113541701D01*
X114892500Y-113370611D01*
X114892500Y-113197389D01*
X114888099Y-113169600D01*
X114874686Y-113084915D01*
X114872385Y-113070389D01*
X116755500Y-113070389D01*
X116755500Y-113243610D01*
X116781169Y-113405683D01*
X116782598Y-113414701D01*
X116830962Y-113563550D01*
X116836128Y-113579447D01*
X116857958Y-113622292D01*
X116914768Y-113733788D01*
X117016586Y-113873928D01*
X117139072Y-113996414D01*
X117279212Y-114098232D01*
X117433555Y-114176873D01*
X117598299Y-114230402D01*
X117769389Y-114257500D01*
X117769390Y-114257500D01*
X117942610Y-114257500D01*
X117942611Y-114257500D01*
X118113701Y-114230402D01*
X118278445Y-114176873D01*
X118432788Y-114098232D01*
X118572928Y-113996414D01*
X118695414Y-113873928D01*
X118797232Y-113733788D01*
X118875873Y-113579445D01*
X118929402Y-113414701D01*
X118956500Y-113243611D01*
X118956500Y-113070389D01*
X118929402Y-112899299D01*
X118875873Y-112734555D01*
X118797232Y-112580212D01*
X118695414Y-112440072D01*
X118572928Y-112317586D01*
X118432788Y-112215768D01*
X118278445Y-112137127D01*
X118113701Y-112083598D01*
X118113699Y-112083597D01*
X118113698Y-112083597D01*
X117982271Y-112062781D01*
X117942611Y-112056500D01*
X117769389Y-112056500D01*
X117729728Y-112062781D01*
X117598302Y-112083597D01*
X117433552Y-112137128D01*
X117279211Y-112215768D01*
X117247515Y-112238797D01*
X117139072Y-112317586D01*
X117139070Y-112317588D01*
X117139069Y-112317588D01*
X117016588Y-112440069D01*
X117016588Y-112440070D01*
X117016586Y-112440072D01*
X116987940Y-112479500D01*
X116914768Y-112580211D01*
X116836128Y-112734552D01*
X116782597Y-112899302D01*
X116755500Y-113070389D01*
X114872385Y-113070389D01*
X114865402Y-113026299D01*
X114811873Y-112861555D01*
X114733232Y-112707212D01*
X114631414Y-112567072D01*
X114508928Y-112444586D01*
X114368788Y-112342768D01*
X114214445Y-112264127D01*
X114049701Y-112210598D01*
X114049699Y-112210597D01*
X114049698Y-112210597D01*
X113918271Y-112189781D01*
X113878611Y-112183500D01*
X113705389Y-112183500D01*
X113665728Y-112189781D01*
X113534302Y-112210597D01*
X113369552Y-112264128D01*
X113215211Y-112342768D01*
X113137993Y-112398871D01*
X113075072Y-112444586D01*
X113075070Y-112444588D01*
X113075069Y-112444588D01*
X112952588Y-112567069D01*
X112952588Y-112567070D01*
X112952586Y-112567072D01*
X112913027Y-112621520D01*
X112850768Y-112707211D01*
X112772128Y-112861552D01*
X112718597Y-113026302D01*
X112691500Y-113197389D01*
X112691500Y-113370611D01*
X112691499Y-113370611D01*
X112711323Y-113495773D01*
X112709298Y-113511440D01*
X112712289Y-113526956D01*
X112704911Y-113545383D01*
X112702368Y-113565066D01*
X112692193Y-113577152D01*
X112686321Y-113591821D01*
X112670154Y-113603333D01*
X112657372Y-113618518D01*
X112642276Y-113623185D01*
X112629407Y-113632350D01*
X112609580Y-113633294D01*
X112590620Y-113639157D01*
X112574516Y-113634965D01*
X112559617Y-113635675D01*
X112526851Y-113622558D01*
X112473612Y-113591821D01*
X112424643Y-113563549D01*
X112414033Y-113557423D01*
X112261305Y-113516499D01*
X112103191Y-113516499D01*
X112095595Y-113516499D01*
X112095579Y-113516500D01*
X111110917Y-113516500D01*
X111103309Y-113516499D01*
X111103306Y-113516499D01*
X110945191Y-113516499D01*
X110945190Y-113516499D01*
X110944717Y-113516499D01*
X110877678Y-113496814D01*
X110831923Y-113444010D01*
X110831922Y-113444003D01*
X110822245Y-113411897D01*
X110820035Y-113397945D01*
X110801402Y-113280299D01*
X110747873Y-113115555D01*
X110669232Y-112961212D01*
X110669230Y-112961209D01*
X110669229Y-112961207D01*
X110652648Y-112938385D01*
X110629168Y-112872579D01*
X110644994Y-112804525D01*
X110695099Y-112755830D01*
X110752966Y-112741500D01*
X111038331Y-112741500D01*
X111038347Y-112741501D01*
X111045943Y-112741501D01*
X111204054Y-112741501D01*
X111204057Y-112741501D01*
X111356785Y-112700577D01*
X111423236Y-112662211D01*
X111493716Y-112621520D01*
X111605520Y-112509716D01*
X111605521Y-112509713D01*
X111613572Y-112501661D01*
X111674895Y-112468177D01*
X111720647Y-112466870D01*
X111800389Y-112479500D01*
X111800391Y-112479500D01*
X111973610Y-112479500D01*
X111973611Y-112479500D01*
X112144701Y-112452402D01*
X112309445Y-112398873D01*
X112463788Y-112320232D01*
X112603928Y-112218414D01*
X112726414Y-112095928D01*
X112828232Y-111955788D01*
X112906873Y-111801445D01*
X112960402Y-111636701D01*
X112987500Y-111465611D01*
X112987500Y-111292389D01*
X112960402Y-111121299D01*
X112933463Y-111038389D01*
X114850500Y-111038389D01*
X114850500Y-111211610D01*
X114874792Y-111364989D01*
X114877598Y-111382701D01*
X114931127Y-111547445D01*
X115009768Y-111701788D01*
X115111586Y-111841928D01*
X115234072Y-111964414D01*
X115374212Y-112066232D01*
X115528555Y-112144873D01*
X115693299Y-112198402D01*
X115864389Y-112225500D01*
X115864390Y-112225500D01*
X116037610Y-112225500D01*
X116037611Y-112225500D01*
X116208701Y-112198402D01*
X116373445Y-112144873D01*
X116527788Y-112066232D01*
X116667928Y-111964414D01*
X116790414Y-111841928D01*
X116892232Y-111701788D01*
X116970873Y-111547445D01*
X117024402Y-111382701D01*
X117051500Y-111211611D01*
X117051500Y-111038389D01*
X117024402Y-110867299D01*
X116970873Y-110702555D01*
X116892232Y-110548212D01*
X116790414Y-110408072D01*
X116667928Y-110285586D01*
X116527788Y-110183768D01*
X116373445Y-110105127D01*
X116208701Y-110051598D01*
X116208699Y-110051597D01*
X116208698Y-110051597D01*
X116077271Y-110030781D01*
X116037611Y-110024500D01*
X115864389Y-110024500D01*
X115824728Y-110030781D01*
X115693302Y-110051597D01*
X115528552Y-110105128D01*
X115374211Y-110183768D01*
X115307415Y-110232299D01*
X115234072Y-110285586D01*
X115234070Y-110285588D01*
X115234069Y-110285588D01*
X115111588Y-110408069D01*
X115111588Y-110408070D01*
X115111586Y-110408072D01*
X115090011Y-110437768D01*
X115009768Y-110548211D01*
X114931128Y-110702552D01*
X114877597Y-110867302D01*
X114850500Y-111038389D01*
X112933463Y-111038389D01*
X112906873Y-110956555D01*
X112828232Y-110802212D01*
X112726414Y-110662072D01*
X112603928Y-110539586D01*
X112463788Y-110437768D01*
X112309445Y-110359127D01*
X112144701Y-110305598D01*
X112144699Y-110305597D01*
X112144698Y-110305597D01*
X112013271Y-110284781D01*
X111973611Y-110278500D01*
X111800389Y-110278500D01*
X111760728Y-110284781D01*
X111629302Y-110305597D01*
X111464552Y-110359128D01*
X111310211Y-110437768D01*
X111246669Y-110483935D01*
X111170072Y-110539586D01*
X111170070Y-110539588D01*
X111170069Y-110539588D01*
X111047588Y-110662069D01*
X111047588Y-110662070D01*
X111047586Y-110662072D01*
X111018173Y-110702555D01*
X110945768Y-110802211D01*
X110867128Y-110956552D01*
X110813597Y-111121302D01*
X110786500Y-111292389D01*
X110786500Y-111416500D01*
X110766815Y-111483539D01*
X110714011Y-111529294D01*
X110662500Y-111540500D01*
X109771204Y-111540500D01*
X109704165Y-111520815D01*
X109658410Y-111468011D01*
X109648466Y-111398853D01*
X109677491Y-111335297D01*
X109683523Y-111328819D01*
X109719953Y-111292389D01*
X109805414Y-111206928D01*
X109907232Y-111066788D01*
X109985873Y-110912445D01*
X110039402Y-110747701D01*
X110066500Y-110576611D01*
X110066500Y-110403389D01*
X110039402Y-110232299D01*
X109985873Y-110067555D01*
X109907232Y-109913212D01*
X109805414Y-109773072D01*
X109682928Y-109650586D01*
X109542788Y-109548768D01*
X109388445Y-109470127D01*
X109223701Y-109416598D01*
X109223699Y-109416597D01*
X109223698Y-109416597D01*
X109092271Y-109395781D01*
X109052611Y-109389500D01*
X108879389Y-109389500D01*
X108839728Y-109395781D01*
X108708302Y-109416597D01*
X108543552Y-109470128D01*
X108389211Y-109548768D01*
X108309256Y-109606859D01*
X108249072Y-109650586D01*
X108249070Y-109650588D01*
X108249069Y-109650588D01*
X108126588Y-109773069D01*
X108126588Y-109773070D01*
X108126586Y-109773072D01*
X108103088Y-109805414D01*
X108024768Y-109913211D01*
X107946128Y-110067552D01*
X107892597Y-110232302D01*
X107865500Y-110403389D01*
X107865500Y-110576610D01*
X107889388Y-110727438D01*
X107892598Y-110747701D01*
X107946127Y-110912445D01*
X108024768Y-111066788D01*
X108126586Y-111206928D01*
X108126588Y-111206930D01*
X108248477Y-111328819D01*
X108259089Y-111348255D01*
X108273590Y-111364989D01*
X108275506Y-111378320D01*
X108281962Y-111390142D01*
X108280382Y-111412228D01*
X108283534Y-111434147D01*
X108277938Y-111446398D01*
X108276978Y-111459834D01*
X108263707Y-111477560D01*
X108254509Y-111497703D01*
X108243177Y-111504985D01*
X108235106Y-111515767D01*
X108214360Y-111523504D01*
X108195731Y-111535477D01*
X108173812Y-111538628D01*
X108169642Y-111540184D01*
X108160796Y-111540500D01*
X108123097Y-111540500D01*
X108056058Y-111520815D01*
X108035416Y-111504181D01*
X107514297Y-110983062D01*
X107483263Y-110926227D01*
X107482349Y-110926505D01*
X107481017Y-110922114D01*
X107480812Y-110921739D01*
X107480612Y-110920779D01*
X107480581Y-110920677D01*
X107480580Y-110920672D01*
X107446352Y-110838038D01*
X107427776Y-110793190D01*
X107424905Y-110787819D01*
X107426205Y-110787123D01*
X107407520Y-110727438D01*
X107407500Y-110725230D01*
X107407500Y-109908537D01*
X107427185Y-109841498D01*
X107443814Y-109820861D01*
X109020286Y-108244389D01*
X110024500Y-108244389D01*
X110024500Y-108417611D01*
X110032530Y-108468313D01*
X110048140Y-108566872D01*
X110051598Y-108588701D01*
X110100080Y-108737913D01*
X110105128Y-108753447D01*
X110149355Y-108840248D01*
X110183768Y-108907788D01*
X110285586Y-109047928D01*
X110408072Y-109170414D01*
X110548212Y-109272232D01*
X110702555Y-109350873D01*
X110867299Y-109404402D01*
X111038389Y-109431500D01*
X111038390Y-109431500D01*
X111211610Y-109431500D01*
X111211611Y-109431500D01*
X111382701Y-109404402D01*
X111547445Y-109350873D01*
X111701788Y-109272232D01*
X111841928Y-109170414D01*
X111964414Y-109047928D01*
X112066232Y-108907788D01*
X112144873Y-108753445D01*
X112198402Y-108588701D01*
X112225500Y-108417611D01*
X112225500Y-108244389D01*
X112198402Y-108073299D01*
X112144873Y-107908555D01*
X112066232Y-107754212D01*
X111964414Y-107614072D01*
X111841928Y-107491586D01*
X111701788Y-107389768D01*
X111634537Y-107355502D01*
X111547447Y-107311128D01*
X111547446Y-107311127D01*
X111547445Y-107311127D01*
X111382701Y-107257598D01*
X111382699Y-107257597D01*
X111382698Y-107257597D01*
X111236834Y-107234495D01*
X111211611Y-107230500D01*
X111038389Y-107230500D01*
X111013166Y-107234495D01*
X110867302Y-107257597D01*
X110818044Y-107273602D01*
X110729919Y-107302236D01*
X110702552Y-107311128D01*
X110548211Y-107389768D01*
X110468256Y-107447859D01*
X110408072Y-107491586D01*
X110408070Y-107491588D01*
X110408069Y-107491588D01*
X110285588Y-107614069D01*
X110285588Y-107614070D01*
X110285586Y-107614072D01*
X110242094Y-107673933D01*
X110183768Y-107754211D01*
X110105128Y-107908552D01*
X110051597Y-108073302D01*
X110026719Y-108230377D01*
X110024500Y-108244389D01*
X109020286Y-108244389D01*
X117365611Y-99899063D01*
X117426934Y-99865579D01*
X117496626Y-99870563D01*
X117552559Y-99912435D01*
X117576976Y-99977899D01*
X117577292Y-99986745D01*
X117577292Y-101440481D01*
X117557607Y-101507520D01*
X117540973Y-101528162D01*
X117534680Y-101534454D01*
X117534677Y-101534458D01*
X117458020Y-101649182D01*
X117458013Y-101649195D01*
X117405213Y-101776667D01*
X117405210Y-101776677D01*
X117378292Y-101912004D01*
X117378292Y-101912007D01*
X117378292Y-102049993D01*
X117378292Y-102049995D01*
X117378291Y-102049995D01*
X117405210Y-102185322D01*
X117405213Y-102185332D01*
X117458013Y-102312804D01*
X117458020Y-102312817D01*
X117534677Y-102427541D01*
X117534680Y-102427545D01*
X117632246Y-102525111D01*
X117632250Y-102525114D01*
X117746974Y-102601771D01*
X117748179Y-102602415D01*
X117748692Y-102602919D01*
X117752046Y-102605160D01*
X117751621Y-102605795D01*
X117798026Y-102651375D01*
X117813491Y-102719512D01*
X117789663Y-102785193D01*
X117777413Y-102799458D01*
X114571211Y-106005661D01*
X114509888Y-106039146D01*
X114440196Y-106034162D01*
X114384263Y-105992290D01*
X114361057Y-105937379D01*
X114357402Y-105914299D01*
X114303873Y-105749555D01*
X114225232Y-105595212D01*
X114123414Y-105455072D01*
X114000928Y-105332586D01*
X113860788Y-105230768D01*
X113706445Y-105152127D01*
X113541701Y-105098598D01*
X113541699Y-105098597D01*
X113541698Y-105098597D01*
X113410271Y-105077781D01*
X113370611Y-105071500D01*
X113197389Y-105071500D01*
X113157728Y-105077781D01*
X113026302Y-105098597D01*
X112861552Y-105152128D01*
X112707211Y-105230768D01*
X112660094Y-105265001D01*
X112567072Y-105332586D01*
X112567070Y-105332588D01*
X112567069Y-105332588D01*
X112444588Y-105455069D01*
X112444588Y-105455070D01*
X112444586Y-105455072D01*
X112400859Y-105515256D01*
X112342768Y-105595211D01*
X112264128Y-105749552D01*
X112264127Y-105749554D01*
X112264127Y-105749555D01*
X112252684Y-105784772D01*
X112210597Y-105914302D01*
X112190824Y-106039146D01*
X112183500Y-106085389D01*
X112183500Y-106258611D01*
X112210598Y-106429701D01*
X112264127Y-106594445D01*
X112342768Y-106748788D01*
X112444586Y-106888928D01*
X112567072Y-107011414D01*
X112707212Y-107113232D01*
X112861555Y-107191873D01*
X113026299Y-107245402D01*
X113197389Y-107272500D01*
X113197390Y-107272500D01*
X113321499Y-107272500D01*
X113330184Y-107275050D01*
X113339144Y-107273762D01*
X113363183Y-107284739D01*
X113388538Y-107292185D01*
X113394465Y-107299025D01*
X113402700Y-107302786D01*
X113416989Y-107325019D01*
X113434293Y-107344989D01*
X113436580Y-107355502D01*
X113440476Y-107361564D01*
X113445498Y-107396494D01*
X113445499Y-107396498D01*
X113445499Y-107459165D01*
X113445499Y-107459167D01*
X113445500Y-107469161D01*
X113445500Y-108232814D01*
X113425815Y-108299853D01*
X113394387Y-108333131D01*
X113329072Y-108380585D01*
X113206588Y-108503069D01*
X113206588Y-108503070D01*
X113206586Y-108503072D01*
X113177173Y-108543555D01*
X113104768Y-108643211D01*
X113026128Y-108797552D01*
X112972597Y-108962302D01*
X112957184Y-109059620D01*
X112945500Y-109133389D01*
X112945500Y-109306611D01*
X112950175Y-109336126D01*
X112971398Y-109470128D01*
X112972598Y-109477701D01*
X113026127Y-109642445D01*
X113104768Y-109796788D01*
X113206586Y-109936928D01*
X113329072Y-110059414D01*
X113469212Y-110161232D01*
X113623555Y-110239873D01*
X113788299Y-110293402D01*
X113959389Y-110320500D01*
X113959390Y-110320500D01*
X114132610Y-110320500D01*
X114132611Y-110320500D01*
X114303701Y-110293402D01*
X114468445Y-110239873D01*
X114622788Y-110161232D01*
X114762928Y-110059414D01*
X114885414Y-109936928D01*
X114987232Y-109796788D01*
X115065873Y-109642445D01*
X115119402Y-109477701D01*
X115146500Y-109306611D01*
X115146500Y-109133389D01*
X115119402Y-108962299D01*
X115065873Y-108797555D01*
X114987232Y-108643212D01*
X114885414Y-108503072D01*
X114762928Y-108380586D01*
X114751362Y-108372183D01*
X114697613Y-108333131D01*
X114654948Y-108277801D01*
X114646500Y-108232814D01*
X114646500Y-107680204D01*
X114666185Y-107613165D01*
X114682815Y-107592527D01*
X114945611Y-107329730D01*
X115006932Y-107296247D01*
X115076623Y-107301231D01*
X115132557Y-107343102D01*
X115151221Y-107379094D01*
X115185128Y-107483449D01*
X115251222Y-107613165D01*
X115263768Y-107637788D01*
X115365586Y-107777928D01*
X115488072Y-107900414D01*
X115628212Y-108002232D01*
X115782555Y-108080873D01*
X115947299Y-108134402D01*
X116118389Y-108161500D01*
X116118390Y-108161500D01*
X116291610Y-108161500D01*
X116291611Y-108161500D01*
X116462701Y-108134402D01*
X116627445Y-108080873D01*
X116781788Y-108002232D01*
X116921928Y-107900414D01*
X117044414Y-107777928D01*
X117146232Y-107637788D01*
X117224873Y-107483445D01*
X117278402Y-107318701D01*
X117305500Y-107147611D01*
X117305500Y-106974389D01*
X117292870Y-106894649D01*
X117301824Y-106825358D01*
X117327659Y-106787575D01*
X117851768Y-106263468D01*
X117913091Y-106229983D01*
X117939449Y-106227149D01*
X122276075Y-106227149D01*
X122343114Y-106246834D01*
X122363756Y-106263468D01*
X122680604Y-106580316D01*
X122714089Y-106641639D01*
X122710855Y-106706314D01*
X122706204Y-106720627D01*
X122688525Y-106832248D01*
X122674182Y-106922807D01*
X122674182Y-107127511D01*
X122677366Y-107147611D01*
X122680361Y-107166523D01*
X122671406Y-107235817D01*
X122626410Y-107289269D01*
X122559659Y-107309908D01*
X122492345Y-107291183D01*
X122470207Y-107273602D01*
X122439540Y-107242935D01*
X122362722Y-107187122D01*
X122242065Y-107147918D01*
X122242064Y-107147918D01*
X122115198Y-107147918D01*
X122115196Y-107147918D01*
X121994541Y-107187122D01*
X121994539Y-107187123D01*
X121917725Y-107242930D01*
X121917723Y-107242932D01*
X120600359Y-108560297D01*
X120600356Y-108560300D01*
X120544543Y-108637118D01*
X120505339Y-108757775D01*
X120505339Y-108757777D01*
X120505339Y-108884643D01*
X120544543Y-109005300D01*
X120544544Y-109005301D01*
X120600351Y-109082115D01*
X120600353Y-109082117D01*
X121917718Y-110399481D01*
X121917721Y-110399484D01*
X121994539Y-110455297D01*
X121994540Y-110455297D01*
X121994541Y-110455298D01*
X122115198Y-110494502D01*
X122115199Y-110494502D01*
X122242063Y-110494502D01*
X122242064Y-110494502D01*
X122362721Y-110455298D01*
X122439540Y-110399486D01*
X123756905Y-109082119D01*
X123812719Y-109005300D01*
X123851923Y-108884643D01*
X123851923Y-108757777D01*
X123812719Y-108637120D01*
X123777538Y-108588697D01*
X123756912Y-108560307D01*
X123756909Y-108560304D01*
X123756907Y-108560301D01*
X123726237Y-108529631D01*
X123692754Y-108468313D01*
X123697738Y-108398621D01*
X123739608Y-108342687D01*
X123805072Y-108318269D01*
X123833317Y-108319479D01*
X123872330Y-108325659D01*
X123872331Y-108325659D01*
X124077033Y-108325659D01*
X124077034Y-108325659D01*
X124279216Y-108293636D01*
X124473901Y-108230379D01*
X124656292Y-108137446D01*
X124782656Y-108045638D01*
X124821895Y-108017130D01*
X124821897Y-108017127D01*
X124821901Y-108017125D01*
X124966648Y-107872378D01*
X124966650Y-107872374D01*
X124966653Y-107872372D01*
X125035268Y-107777930D01*
X125086969Y-107706769D01*
X125179902Y-107524378D01*
X125243159Y-107329693D01*
X125275182Y-107127511D01*
X125275182Y-106922807D01*
X125259696Y-106825032D01*
X125243159Y-106720624D01*
X125202161Y-106594447D01*
X125179902Y-106525940D01*
X125179900Y-106525937D01*
X125179900Y-106525935D01*
X125139927Y-106447484D01*
X125086969Y-106343549D01*
X125074929Y-106326977D01*
X124966653Y-106177945D01*
X124821895Y-106033187D01*
X124656295Y-105912874D01*
X124656294Y-105912873D01*
X124656292Y-105912872D01*
X124565143Y-105866429D01*
X124473905Y-105819940D01*
X124279216Y-105756681D01*
X124104677Y-105729037D01*
X124077034Y-105724659D01*
X123872330Y-105724659D01*
X123834281Y-105730685D01*
X123670150Y-105756681D01*
X123661399Y-105759524D01*
X123655836Y-105761332D01*
X123585995Y-105763326D01*
X123529839Y-105731081D01*
X123063762Y-105265004D01*
X123063760Y-105265001D01*
X122944889Y-105146130D01*
X122944884Y-105146126D01*
X122815626Y-105071500D01*
X122807957Y-105067072D01*
X122655229Y-105026148D01*
X122497115Y-105026148D01*
X122489519Y-105026148D01*
X122489503Y-105026149D01*
X120801485Y-105026149D01*
X120734446Y-105006464D01*
X120688691Y-104953660D01*
X120678747Y-104884502D01*
X120707772Y-104820946D01*
X120713804Y-104814468D01*
X120789326Y-104738945D01*
X120789329Y-104738942D01*
X120865990Y-104624211D01*
X120918795Y-104496728D01*
X120945715Y-104361393D01*
X120945715Y-104223407D01*
X120945715Y-104223404D01*
X120918796Y-104088077D01*
X120918795Y-104088076D01*
X120918795Y-104088072D01*
X120897557Y-104036798D01*
X120865991Y-103960590D01*
X120863120Y-103955219D01*
X120864420Y-103954523D01*
X120845735Y-103894838D01*
X120845715Y-103892630D01*
X120845715Y-102693323D01*
X120865400Y-102626284D01*
X120882034Y-102605642D01*
X121250808Y-102236868D01*
X121625277Y-101862398D01*
X121686598Y-101828915D01*
X121756289Y-101833899D01*
X121800634Y-101862398D01*
X122175105Y-102236868D01*
X123117721Y-103179484D01*
X123194539Y-103235297D01*
X123194540Y-103235297D01*
X123194541Y-103235298D01*
X123315198Y-103274502D01*
X123315199Y-103274502D01*
X123442063Y-103274502D01*
X123442064Y-103274502D01*
X123562721Y-103235298D01*
X123639540Y-103179486D01*
X124956905Y-101862119D01*
X125012719Y-101785300D01*
X125051923Y-101664643D01*
X125051923Y-101537777D01*
X125012719Y-101417120D01*
X124983602Y-101377044D01*
X124956912Y-101340307D01*
X124956909Y-101340304D01*
X124956907Y-101340301D01*
X124926237Y-101309631D01*
X124892754Y-101248313D01*
X124897738Y-101178621D01*
X124939608Y-101122687D01*
X125005072Y-101098269D01*
X125033317Y-101099479D01*
X125072330Y-101105659D01*
X125072331Y-101105659D01*
X125277033Y-101105659D01*
X125277034Y-101105659D01*
X125479216Y-101073636D01*
X125673901Y-101010379D01*
X125856292Y-100917446D01*
X125949815Y-100849498D01*
X126021895Y-100797130D01*
X126021897Y-100797127D01*
X126021901Y-100797125D01*
X126166648Y-100652378D01*
X126166650Y-100652374D01*
X126166653Y-100652372D01*
X126219414Y-100579749D01*
X126286969Y-100486769D01*
X126379902Y-100304378D01*
X126443159Y-100109693D01*
X126475182Y-99907511D01*
X126475182Y-99702807D01*
X126447212Y-99526214D01*
X126443159Y-99500624D01*
X126379900Y-99305935D01*
X126346185Y-99239766D01*
X126286969Y-99123549D01*
X126279238Y-99112908D01*
X126166653Y-98957945D01*
X126021895Y-98813187D01*
X125856295Y-98692874D01*
X125856294Y-98692873D01*
X125856292Y-98692872D01*
X125799335Y-98663850D01*
X125673905Y-98599940D01*
X125479216Y-98536681D01*
X125304677Y-98509037D01*
X125277034Y-98504659D01*
X125229969Y-98504659D01*
X125162930Y-98484974D01*
X125117175Y-98432170D01*
X125107231Y-98363012D01*
X125122582Y-98318659D01*
X125138208Y-98291594D01*
X125179132Y-98138867D01*
X125179132Y-97980752D01*
X125179132Y-97973157D01*
X125179131Y-97973139D01*
X125179131Y-95671256D01*
X125198816Y-95604217D01*
X125215450Y-95583575D01*
X126156902Y-94642122D01*
X126156905Y-94642119D01*
X126164045Y-94632292D01*
X126212719Y-94565300D01*
X126251923Y-94444643D01*
X126251923Y-94317777D01*
X126212719Y-94197120D01*
X126187019Y-94161747D01*
X126156912Y-94120307D01*
X126156908Y-94120303D01*
X126156907Y-94120301D01*
X126126237Y-94089631D01*
X126092754Y-94028313D01*
X126097738Y-93958621D01*
X126139608Y-93902687D01*
X126205072Y-93878269D01*
X126233317Y-93879479D01*
X126272330Y-93885659D01*
X126272331Y-93885659D01*
X126477033Y-93885659D01*
X126477034Y-93885659D01*
X126679216Y-93853636D01*
X126873901Y-93790379D01*
X127056292Y-93697446D01*
X127149272Y-93629891D01*
X127221895Y-93577130D01*
X127221897Y-93577127D01*
X127221901Y-93577125D01*
X127366648Y-93432378D01*
X127366650Y-93432374D01*
X127366653Y-93432372D01*
X127479515Y-93277028D01*
X127486969Y-93266769D01*
X127579902Y-93084378D01*
X127643159Y-92889693D01*
X127675182Y-92687511D01*
X127675182Y-92482807D01*
X127643159Y-92280625D01*
X127579902Y-92085940D01*
X127579900Y-92085937D01*
X127579900Y-92085935D01*
X127546185Y-92019766D01*
X127486969Y-91903549D01*
X127479238Y-91892908D01*
X127366653Y-91737945D01*
X127221895Y-91593187D01*
X127056295Y-91472874D01*
X127056294Y-91472873D01*
X127056292Y-91472872D01*
X126999335Y-91443850D01*
X126873905Y-91379940D01*
X126679216Y-91316681D01*
X126504677Y-91289037D01*
X126477034Y-91284659D01*
X126272330Y-91284659D01*
X126248011Y-91288510D01*
X126070147Y-91316681D01*
X125875458Y-91379940D01*
X125693068Y-91472874D01*
X125527468Y-91593187D01*
X125527464Y-91593191D01*
X125390812Y-91729844D01*
X125329489Y-91763329D01*
X125259797Y-91758345D01*
X125203864Y-91716473D01*
X125179447Y-91651009D01*
X125179131Y-91642163D01*
X125179131Y-88792631D01*
X125179131Y-88782632D01*
X125179132Y-88782630D01*
X125179132Y-88700256D01*
X125198817Y-88633216D01*
X125251622Y-88587462D01*
X125310836Y-88578948D01*
X125320779Y-88577519D01*
X125320780Y-88577519D01*
X125349805Y-88590774D01*
X125384335Y-88606544D01*
X125390813Y-88612576D01*
X125517721Y-88739484D01*
X125594539Y-88795297D01*
X125594540Y-88795297D01*
X125594541Y-88795298D01*
X125715198Y-88834502D01*
X125715199Y-88834502D01*
X125842063Y-88834502D01*
X125842064Y-88834502D01*
X125962721Y-88795298D01*
X126039540Y-88739486D01*
X127356905Y-87422119D01*
X127412719Y-87345300D01*
X127451923Y-87224643D01*
X127451923Y-87097777D01*
X127412719Y-86977120D01*
X127385576Y-86939761D01*
X127356912Y-86900307D01*
X127356909Y-86900304D01*
X127356907Y-86900301D01*
X127326237Y-86869631D01*
X127292754Y-86808313D01*
X127297738Y-86738621D01*
X127339608Y-86682687D01*
X127405072Y-86658269D01*
X127433317Y-86659479D01*
X127472330Y-86665659D01*
X127472331Y-86665659D01*
X127677033Y-86665659D01*
X127677034Y-86665659D01*
X127879216Y-86633636D01*
X128073901Y-86570379D01*
X128256292Y-86477446D01*
X128351713Y-86408119D01*
X128421895Y-86357130D01*
X128421897Y-86357127D01*
X128421901Y-86357125D01*
X128566648Y-86212378D01*
X128566650Y-86212374D01*
X128566653Y-86212372D01*
X128647136Y-86101595D01*
X128686969Y-86046769D01*
X128779902Y-85864378D01*
X128843159Y-85669693D01*
X128875182Y-85467511D01*
X128875182Y-85262807D01*
X128843159Y-85060625D01*
X128779902Y-84865940D01*
X128779900Y-84865937D01*
X128779900Y-84865935D01*
X128746185Y-84799766D01*
X128686969Y-84683549D01*
X128632017Y-84607913D01*
X128566653Y-84517945D01*
X128421895Y-84373187D01*
X128256295Y-84252874D01*
X128256294Y-84252873D01*
X128256292Y-84252872D01*
X128186971Y-84217551D01*
X128073905Y-84159940D01*
X127879216Y-84096681D01*
X127704677Y-84069037D01*
X127677034Y-84064659D01*
X127472330Y-84064659D01*
X127448011Y-84068510D01*
X127270147Y-84096681D01*
X127075458Y-84159940D01*
X126893068Y-84252874D01*
X126727468Y-84373187D01*
X126582710Y-84517945D01*
X126462397Y-84683545D01*
X126369463Y-84865935D01*
X126306204Y-85060624D01*
X126274182Y-85262807D01*
X126274182Y-85467510D01*
X126280361Y-85506523D01*
X126271406Y-85575817D01*
X126226410Y-85629269D01*
X126159659Y-85649908D01*
X126092345Y-85631183D01*
X126070207Y-85613602D01*
X126039540Y-85582935D01*
X125962722Y-85527122D01*
X125842065Y-85487918D01*
X125842064Y-85487918D01*
X125715198Y-85487918D01*
X125715196Y-85487918D01*
X125594541Y-85527122D01*
X125594539Y-85527123D01*
X125517728Y-85582928D01*
X125517722Y-85582934D01*
X125371335Y-85729319D01*
X125310014Y-85762803D01*
X125240322Y-85757819D01*
X125195975Y-85729318D01*
X122273138Y-82806482D01*
X122242104Y-82749647D01*
X122241190Y-82749925D01*
X122239858Y-82745534D01*
X122239653Y-82745159D01*
X122239453Y-82744199D01*
X122239422Y-82744099D01*
X122239421Y-82744092D01*
X122198499Y-82645297D01*
X122186619Y-82616615D01*
X122186612Y-82616602D01*
X122109955Y-82501878D01*
X122109952Y-82501874D01*
X122012386Y-82404308D01*
X122012382Y-82404305D01*
X121897658Y-82327648D01*
X121897645Y-82327641D01*
X121770171Y-82274840D01*
X121764335Y-82273070D01*
X121764763Y-82271656D01*
X121754509Y-82266292D01*
X121736033Y-82262273D01*
X121710995Y-82243529D01*
X121709356Y-82242672D01*
X121707779Y-82241122D01*
X121560240Y-82093583D01*
X121560239Y-82093582D01*
X121443335Y-82026088D01*
X121423308Y-82014525D01*
X121270580Y-81973601D01*
X121112466Y-81973601D01*
X121104870Y-81973601D01*
X121104854Y-81973602D01*
X114628250Y-81973602D01*
X114587329Y-81984566D01*
X114587329Y-81984567D01*
X114554958Y-81993241D01*
X114475524Y-82014525D01*
X114475519Y-82014528D01*
X114338600Y-82093577D01*
X114338592Y-82093583D01*
X110873291Y-85558885D01*
X110816458Y-85589918D01*
X110816736Y-85590833D01*
X110812340Y-85592166D01*
X110811968Y-85592370D01*
X110811017Y-85592568D01*
X110810899Y-85592603D01*
X110683425Y-85645404D01*
X110683412Y-85645411D01*
X110568688Y-85722068D01*
X110568684Y-85722071D01*
X110471118Y-85819637D01*
X110471115Y-85819641D01*
X110394458Y-85934365D01*
X110394451Y-85934378D01*
X110341651Y-86061850D01*
X110341648Y-86061860D01*
X110314730Y-86197187D01*
X110314730Y-86197190D01*
X110314730Y-86335176D01*
X110314730Y-86335178D01*
X110314729Y-86335178D01*
X110341648Y-86470505D01*
X110341651Y-86470515D01*
X110394451Y-86597987D01*
X110394458Y-86598000D01*
X110471115Y-86712724D01*
X110471118Y-86712728D01*
X110568684Y-86810294D01*
X110568688Y-86810297D01*
X110683412Y-86886954D01*
X110683425Y-86886961D01*
X110810897Y-86939761D01*
X110810902Y-86939763D01*
X110810906Y-86939763D01*
X110810907Y-86939764D01*
X110946234Y-86966683D01*
X110946237Y-86966683D01*
X111084225Y-86966683D01*
X111175271Y-86948572D01*
X111219558Y-86939763D01*
X111347041Y-86886958D01*
X111461772Y-86810297D01*
X111559344Y-86712725D01*
X111636005Y-86597994D01*
X111688810Y-86470511D01*
X111688810Y-86470508D01*
X111690576Y-86464689D01*
X111691990Y-86465117D01*
X111720964Y-86409710D01*
X111722471Y-86408175D01*
X114919726Y-83210921D01*
X114981049Y-83177436D01*
X115007407Y-83174602D01*
X115451803Y-83174602D01*
X115518842Y-83194287D01*
X115564597Y-83247091D01*
X115574541Y-83316249D01*
X115545516Y-83379805D01*
X115520694Y-83401704D01*
X115497750Y-83417034D01*
X115497746Y-83417037D01*
X115400180Y-83514603D01*
X115400177Y-83514607D01*
X115323520Y-83629331D01*
X115323513Y-83629344D01*
X115270713Y-83756816D01*
X115268945Y-83762647D01*
X115267533Y-83762218D01*
X115238538Y-83817638D01*
X115236995Y-83819208D01*
X106859800Y-92196404D01*
X106859791Y-92196413D01*
X106857385Y-92198820D01*
X106857383Y-92198822D01*
X106745579Y-92310626D01*
X106730308Y-92337077D01*
X106666522Y-92447557D01*
X106625598Y-92600285D01*
X106625598Y-92600287D01*
X106625598Y-92768388D01*
X106625599Y-92768401D01*
X106625599Y-97721879D01*
X106607352Y-97784018D01*
X106608194Y-97784468D01*
X106606034Y-97788508D01*
X106605914Y-97788918D01*
X106605377Y-97789736D01*
X106605322Y-97789839D01*
X106552520Y-97917316D01*
X106552517Y-97917326D01*
X106525599Y-98052653D01*
X106525599Y-98052656D01*
X106525599Y-98190642D01*
X106525599Y-98190644D01*
X106525598Y-98190644D01*
X106552517Y-98325971D01*
X106552520Y-98325981D01*
X106605320Y-98453453D01*
X106605327Y-98453466D01*
X106681984Y-98568190D01*
X106681987Y-98568194D01*
X106779556Y-98665763D01*
X106871381Y-98727118D01*
X106916186Y-98780730D01*
X106924893Y-98850055D01*
X106894739Y-98913082D01*
X106890171Y-98917901D01*
X105947244Y-99860830D01*
X105885921Y-99894315D01*
X105859563Y-99897149D01*
X102034462Y-99897149D01*
X102034446Y-99897148D01*
X102026850Y-99897148D01*
X101868735Y-99897148D01*
X101716007Y-99938072D01*
X101716005Y-99938072D01*
X101716005Y-99938073D01*
X101683602Y-99956781D01*
X101647025Y-99977899D01*
X101579073Y-100017131D01*
X97771087Y-103825118D01*
X97709764Y-103858603D01*
X97640072Y-103853619D01*
X97584139Y-103811747D01*
X97559722Y-103746283D01*
X97559406Y-103737437D01*
X97559406Y-101976631D01*
X97579091Y-101909592D01*
X97595720Y-101888955D01*
X99512730Y-99971944D01*
X99569574Y-99940905D01*
X99569298Y-99939995D01*
X99573669Y-99938669D01*
X99574051Y-99938461D01*
X99575026Y-99938257D01*
X99575117Y-99938229D01*
X99575120Y-99938229D01*
X99702603Y-99885424D01*
X99817334Y-99808763D01*
X99914906Y-99711191D01*
X99991567Y-99596460D01*
X100044372Y-99468977D01*
X100044372Y-99468974D01*
X100046138Y-99463155D01*
X100047552Y-99463583D01*
X100076526Y-99408176D01*
X100078032Y-99406642D01*
X105248812Y-94235865D01*
X105327869Y-94098933D01*
X105368793Y-93946206D01*
X105368793Y-93788091D01*
X105368793Y-93780496D01*
X105368792Y-93780478D01*
X105368792Y-90529608D01*
X105388477Y-90462569D01*
X105405111Y-90441927D01*
X107323674Y-88523364D01*
X109261312Y-86585726D01*
X109340369Y-86448794D01*
X109381293Y-86296067D01*
X109381293Y-86137952D01*
X109381293Y-86130357D01*
X109381292Y-86130339D01*
X109381292Y-82806704D01*
X109400977Y-82739665D01*
X109417607Y-82719027D01*
X109882638Y-82253995D01*
X109939482Y-82222956D01*
X109939206Y-82222046D01*
X109943577Y-82220720D01*
X109943959Y-82220512D01*
X109944934Y-82220308D01*
X109945025Y-82220280D01*
X109945028Y-82220280D01*
X110072511Y-82167475D01*
X110187242Y-82090814D01*
X110284814Y-81993242D01*
X110346826Y-81900435D01*
X110364860Y-81873446D01*
X110366650Y-81874642D01*
X110408804Y-81831738D01*
X110469189Y-81816042D01*
X111221823Y-81816042D01*
X111283962Y-81834288D01*
X111284412Y-81833447D01*
X111288452Y-81835606D01*
X111288862Y-81835727D01*
X111289680Y-81836263D01*
X111289783Y-81836318D01*
X111417260Y-81889120D01*
X111417265Y-81889122D01*
X111417269Y-81889122D01*
X111417270Y-81889123D01*
X111552597Y-81916042D01*
X111552600Y-81916042D01*
X111690588Y-81916042D01*
X111781634Y-81897931D01*
X111825921Y-81889122D01*
X111953404Y-81836317D01*
X112068135Y-81759656D01*
X112165707Y-81662084D01*
X112242368Y-81547353D01*
X112295173Y-81419870D01*
X112322093Y-81284535D01*
X112322093Y-81146549D01*
X112322093Y-81146546D01*
X112303190Y-81051517D01*
X112309417Y-80981925D01*
X112352280Y-80926748D01*
X112418169Y-80903503D01*
X112424807Y-80903325D01*
X113412506Y-80903325D01*
X113412522Y-80903326D01*
X113420118Y-80903326D01*
X113578229Y-80903326D01*
X113578232Y-80903326D01*
X113730960Y-80862402D01*
X113781079Y-80833464D01*
X113867891Y-80783345D01*
X113979695Y-80671541D01*
X113979695Y-80671539D01*
X113989903Y-80661332D01*
X113989905Y-80661329D01*
X115692305Y-78958929D01*
X115692308Y-78958928D01*
X115804112Y-78847124D01*
X115854231Y-78760312D01*
X115883169Y-78710193D01*
X115924092Y-78557466D01*
X115924092Y-78399351D01*
X115924092Y-75811421D01*
X115928317Y-75779330D01*
X115941748Y-75729199D01*
X115955776Y-75676843D01*
X115972449Y-75640047D01*
X115987575Y-75617411D01*
X116016717Y-75547052D01*
X116043594Y-75506827D01*
X117292394Y-74258029D01*
X117353717Y-74224544D01*
X117380075Y-74221710D01*
X122470113Y-74221710D01*
X122537152Y-74241395D01*
X122557794Y-74258029D01*
X126341812Y-78042047D01*
X126375297Y-78103370D01*
X126378131Y-78129728D01*
X126378131Y-78651163D01*
X126358446Y-78718202D01*
X126341812Y-78738844D01*
X125400356Y-79680301D01*
X125400354Y-79680303D01*
X125344543Y-79757118D01*
X125305339Y-79877775D01*
X125305339Y-79877777D01*
X125305339Y-80004643D01*
X125344543Y-80125300D01*
X125344544Y-80125301D01*
X125400351Y-80202115D01*
X125400353Y-80202117D01*
X126717718Y-81519481D01*
X126717721Y-81519484D01*
X126794539Y-81575297D01*
X126794540Y-81575297D01*
X126794541Y-81575298D01*
X126915198Y-81614502D01*
X126915199Y-81614502D01*
X127042063Y-81614502D01*
X127042064Y-81614502D01*
X127162721Y-81575298D01*
X127239383Y-81519600D01*
X127239536Y-81519489D01*
X127239536Y-81519488D01*
X127239540Y-81519486D01*
X128556905Y-80202119D01*
X128612719Y-80125300D01*
X128651923Y-80004643D01*
X128651923Y-79877777D01*
X128612719Y-79757120D01*
X128580874Y-79713289D01*
X128556912Y-79680307D01*
X128556908Y-79680303D01*
X128556907Y-79680301D01*
X128526237Y-79649631D01*
X128492754Y-79588313D01*
X128497738Y-79518621D01*
X128539608Y-79462687D01*
X128605072Y-79438269D01*
X128633317Y-79439479D01*
X128672330Y-79445659D01*
X128672331Y-79445659D01*
X128877033Y-79445659D01*
X128877034Y-79445659D01*
X129079216Y-79413636D01*
X129273901Y-79350379D01*
X129456292Y-79257446D01*
X129549272Y-79189891D01*
X129621895Y-79137130D01*
X129621897Y-79137127D01*
X129621901Y-79137125D01*
X129766648Y-78992378D01*
X129766650Y-78992374D01*
X129766653Y-78992372D01*
X129872180Y-78847124D01*
X129886969Y-78826769D01*
X129979902Y-78644378D01*
X130043159Y-78449693D01*
X130075182Y-78247511D01*
X130075182Y-78042807D01*
X130043159Y-77840625D01*
X129979902Y-77645940D01*
X129979900Y-77645937D01*
X129979900Y-77645935D01*
X129934073Y-77555996D01*
X129886969Y-77463549D01*
X129847784Y-77409615D01*
X129766653Y-77297945D01*
X129621895Y-77153187D01*
X129456295Y-77032874D01*
X129456294Y-77032873D01*
X129456292Y-77032872D01*
X129399335Y-77003850D01*
X129273905Y-76939940D01*
X129079216Y-76876681D01*
X128904677Y-76849037D01*
X128877034Y-76844659D01*
X128672330Y-76844659D01*
X128648011Y-76848510D01*
X128470147Y-76876681D01*
X128275458Y-76939940D01*
X128093068Y-77032874D01*
X127927468Y-77153187D01*
X127782714Y-77297941D01*
X127782710Y-77297946D01*
X127662135Y-77463905D01*
X127646826Y-77475709D01*
X127635075Y-77491067D01*
X127619724Y-77496608D01*
X127606805Y-77506571D01*
X127587543Y-77508225D01*
X127569356Y-77514791D01*
X127553447Y-77511153D01*
X127537192Y-77512550D01*
X127520091Y-77503527D01*
X127501244Y-77499218D01*
X127484556Y-77484777D01*
X127475397Y-77479945D01*
X127473214Y-77477770D01*
X127462656Y-77466987D01*
X127459151Y-77460915D01*
X127347347Y-77349111D01*
X127347344Y-77349109D01*
X123531626Y-73533391D01*
X123498141Y-73472068D01*
X123503125Y-73402376D01*
X123544997Y-73346443D01*
X123610461Y-73322026D01*
X123619307Y-73321710D01*
X126888585Y-73321710D01*
X126955624Y-73341395D01*
X126976266Y-73358029D01*
X127917721Y-74299484D01*
X127994539Y-74355297D01*
X127994540Y-74355297D01*
X127994541Y-74355298D01*
X128115198Y-74394502D01*
X128115199Y-74394502D01*
X128242063Y-74394502D01*
X128242064Y-74394502D01*
X128362721Y-74355298D01*
X128439540Y-74299486D01*
X129756905Y-72982119D01*
X129812719Y-72905300D01*
X129851923Y-72784643D01*
X129851923Y-72657777D01*
X129812719Y-72537120D01*
X129787019Y-72501747D01*
X129756912Y-72460307D01*
X129756909Y-72460304D01*
X129756907Y-72460301D01*
X129726237Y-72429631D01*
X129692754Y-72368313D01*
X129697738Y-72298621D01*
X129739608Y-72242687D01*
X129805072Y-72218269D01*
X129833317Y-72219479D01*
X129872330Y-72225659D01*
X129872331Y-72225659D01*
X130077033Y-72225659D01*
X130077034Y-72225659D01*
X130279216Y-72193636D01*
X130473901Y-72130379D01*
X130656292Y-72037446D01*
X130749272Y-71969891D01*
X130821895Y-71917130D01*
X130821897Y-71917127D01*
X130821901Y-71917125D01*
X130966648Y-71772378D01*
X130966650Y-71772374D01*
X130966653Y-71772372D01*
X131019414Y-71699749D01*
X131086969Y-71606769D01*
X131179902Y-71424378D01*
X131243159Y-71229693D01*
X131275182Y-71027511D01*
X131275182Y-70822807D01*
X131269543Y-70787203D01*
X131243159Y-70620624D01*
X131179900Y-70425935D01*
X131101293Y-70271662D01*
X131086969Y-70243549D01*
X131078455Y-70231830D01*
X130966653Y-70077945D01*
X130821895Y-69933187D01*
X130656295Y-69812874D01*
X130656294Y-69812873D01*
X130656292Y-69812872D01*
X130588166Y-69778160D01*
X130473905Y-69719940D01*
X130279216Y-69656681D01*
X130104677Y-69629037D01*
X130077034Y-69624659D01*
X129872330Y-69624659D01*
X129848011Y-69628510D01*
X129670147Y-69656681D01*
X129475458Y-69719940D01*
X129293068Y-69812874D01*
X129127468Y-69933187D01*
X128982710Y-70077945D01*
X128862397Y-70243545D01*
X128769463Y-70425935D01*
X128706204Y-70620624D01*
X128674182Y-70822807D01*
X128674182Y-71027510D01*
X128680361Y-71066523D01*
X128671406Y-71135817D01*
X128626410Y-71189269D01*
X128559659Y-71209908D01*
X128492345Y-71191183D01*
X128470207Y-71173602D01*
X128439540Y-71142935D01*
X128362722Y-71087122D01*
X128242065Y-71047918D01*
X128242064Y-71047918D01*
X128115198Y-71047918D01*
X128115196Y-71047918D01*
X127994541Y-71087122D01*
X127994539Y-71087123D01*
X127917725Y-71142930D01*
X127917723Y-71142932D01*
X126976266Y-72084391D01*
X126914943Y-72117876D01*
X126888585Y-72120710D01*
X117220562Y-72120710D01*
X117158422Y-72102463D01*
X117157973Y-72103305D01*
X117153932Y-72101145D01*
X117153523Y-72101025D01*
X117152704Y-72100488D01*
X117152601Y-72100433D01*
X117025124Y-72047631D01*
X117025114Y-72047628D01*
X116889787Y-72020710D01*
X116889785Y-72020710D01*
X116751799Y-72020710D01*
X116751797Y-72020710D01*
X116616469Y-72047628D01*
X116616459Y-72047631D01*
X116488987Y-72100431D01*
X116488974Y-72100438D01*
X116374250Y-72177095D01*
X116374246Y-72177098D01*
X116276680Y-72274664D01*
X116276677Y-72274668D01*
X116200020Y-72389392D01*
X116200013Y-72389405D01*
X116147213Y-72516877D01*
X116147210Y-72516887D01*
X116120292Y-72652214D01*
X116120292Y-72652217D01*
X116120292Y-72790203D01*
X116120292Y-72790205D01*
X116120291Y-72790205D01*
X116147210Y-72925532D01*
X116147213Y-72925542D01*
X116200013Y-73053014D01*
X116200020Y-73053027D01*
X116276677Y-73167751D01*
X116276680Y-73167755D01*
X116374247Y-73265322D01*
X116375925Y-73266443D01*
X116376606Y-73267257D01*
X116378958Y-73269188D01*
X116378592Y-73269633D01*
X116420733Y-73320053D01*
X116429444Y-73389377D01*
X116399293Y-73452406D01*
X116394721Y-73457230D01*
X115285763Y-74566188D01*
X115224440Y-74599673D01*
X115222274Y-74600124D01*
X115162477Y-74612018D01*
X115162467Y-74612021D01*
X115034995Y-74664821D01*
X115034982Y-74664828D01*
X114920258Y-74741485D01*
X114920254Y-74741488D01*
X114822688Y-74839054D01*
X114822685Y-74839058D01*
X114746028Y-74953782D01*
X114746021Y-74953795D01*
X114693221Y-75081267D01*
X114693218Y-75081277D01*
X114666300Y-75216604D01*
X114666300Y-75216607D01*
X114666300Y-75354593D01*
X114666300Y-75354595D01*
X114666299Y-75354595D01*
X114693218Y-75489922D01*
X114693220Y-75489928D01*
X114709610Y-75529498D01*
X114713652Y-75539255D01*
X114715278Y-75547431D01*
X114718068Y-75551772D01*
X114723090Y-75586704D01*
X114723091Y-75586707D01*
X114723091Y-75677049D01*
X114723091Y-75677051D01*
X114723092Y-75687045D01*
X114723092Y-76791455D01*
X114703407Y-76858494D01*
X114650603Y-76904249D01*
X114581445Y-76914193D01*
X114574901Y-76913072D01*
X114491588Y-76896500D01*
X114491585Y-76896500D01*
X114353599Y-76896500D01*
X114286096Y-76909927D01*
X114216505Y-76903699D01*
X114174225Y-76875990D01*
X113354239Y-76056004D01*
X113354237Y-76056001D01*
X113235366Y-75937130D01*
X113235365Y-75937129D01*
X113128597Y-75875487D01*
X113128596Y-75875486D01*
X113098432Y-75858071D01*
X113042530Y-75843092D01*
X112945706Y-75817148D01*
X112787592Y-75817148D01*
X112779996Y-75817148D01*
X112779980Y-75817149D01*
X110293091Y-75817149D01*
X110226052Y-75797464D01*
X110180297Y-75744660D01*
X110169091Y-75693149D01*
X110169091Y-75486131D01*
X110169090Y-75486124D01*
X110154238Y-75392345D01*
X110096642Y-75279307D01*
X110096638Y-75279303D01*
X110096637Y-75279301D01*
X110006939Y-75189603D01*
X110006936Y-75189601D01*
X110006934Y-75189599D01*
X109927590Y-75149171D01*
X109893893Y-75132001D01*
X109800116Y-75117149D01*
X107937074Y-75117149D01*
X107856111Y-75129972D01*
X107843288Y-75132003D01*
X107730250Y-75189599D01*
X107730249Y-75189600D01*
X107730244Y-75189603D01*
X107640546Y-75279301D01*
X107640543Y-75279306D01*
X107582944Y-75392347D01*
X107568092Y-75486124D01*
X107568092Y-75529498D01*
X107548407Y-75596537D01*
X107495603Y-75642292D01*
X107426445Y-75652236D01*
X107362889Y-75623211D01*
X107343774Y-75602383D01*
X107320563Y-75570435D01*
X107175805Y-75425677D01*
X107010205Y-75305364D01*
X107010204Y-75305363D01*
X107010202Y-75305362D01*
X106953245Y-75276340D01*
X106827815Y-75212430D01*
X106633126Y-75149171D01*
X106458587Y-75121527D01*
X106430944Y-75117149D01*
X106226240Y-75117149D01*
X106201921Y-75121000D01*
X106024057Y-75149171D01*
X105829368Y-75212430D01*
X105646978Y-75305364D01*
X105481378Y-75425677D01*
X105336620Y-75570435D01*
X105216307Y-75736035D01*
X105123373Y-75918425D01*
X105060114Y-76113114D01*
X105028092Y-76315297D01*
X105028092Y-76520000D01*
X105060114Y-76722183D01*
X105123373Y-76916872D01*
X105147007Y-76963255D01*
X105204000Y-77075110D01*
X105216307Y-77099262D01*
X105336620Y-77264862D01*
X105481378Y-77409620D01*
X105636341Y-77522205D01*
X105646982Y-77529936D01*
X105763199Y-77589152D01*
X105829368Y-77622867D01*
X105829370Y-77622867D01*
X105829373Y-77622869D01*
X105933729Y-77656776D01*
X106024057Y-77686126D01*
X106125149Y-77702137D01*
X106226240Y-77718149D01*
X106226241Y-77718149D01*
X106430943Y-77718149D01*
X106430944Y-77718149D01*
X106633126Y-77686126D01*
X106827811Y-77622869D01*
X107010202Y-77529936D01*
X107129929Y-77442950D01*
X107175805Y-77409620D01*
X107175807Y-77409617D01*
X107175811Y-77409615D01*
X107320558Y-77264868D01*
X107343772Y-77232915D01*
X107399100Y-77190248D01*
X107468713Y-77184267D01*
X107530510Y-77216871D01*
X107564869Y-77277709D01*
X107568092Y-77305795D01*
X107568092Y-77349165D01*
X107577666Y-77409615D01*
X107582946Y-77442953D01*
X107640542Y-77555991D01*
X107640544Y-77555993D01*
X107640546Y-77555996D01*
X107730244Y-77645694D01*
X107730246Y-77645695D01*
X107730250Y-77645699D01*
X107843286Y-77703294D01*
X107843290Y-77703296D01*
X107937067Y-77718148D01*
X107937073Y-77718149D01*
X109800110Y-77718148D01*
X109893896Y-77703295D01*
X110006934Y-77645699D01*
X110096642Y-77555991D01*
X110154238Y-77442953D01*
X110154238Y-77442951D01*
X110154239Y-77442950D01*
X110169092Y-77349173D01*
X110169092Y-77142149D01*
X110188777Y-77075110D01*
X110241581Y-77029355D01*
X110293092Y-77018149D01*
X112566552Y-77018149D01*
X112633591Y-77037834D01*
X112654233Y-77054468D01*
X113561139Y-77961374D01*
X113561149Y-77961385D01*
X113565479Y-77965715D01*
X113565480Y-77965716D01*
X113677284Y-78077520D01*
X113733514Y-78109984D01*
X113814215Y-78156577D01*
X113966943Y-78197500D01*
X114022822Y-78197500D01*
X114084961Y-78215746D01*
X114085411Y-78214905D01*
X114089451Y-78217064D01*
X114089861Y-78217185D01*
X114090679Y-78217721D01*
X114090782Y-78217776D01*
X114162570Y-78247511D01*
X114218264Y-78270580D01*
X114218268Y-78270580D01*
X114218269Y-78270581D01*
X114353596Y-78297500D01*
X114355902Y-78297500D01*
X114357065Y-78297841D01*
X114359659Y-78298097D01*
X114359610Y-78298588D01*
X114422941Y-78317185D01*
X114468696Y-78369989D01*
X114478640Y-78439147D01*
X114449615Y-78502703D01*
X114443583Y-78509181D01*
X113286759Y-79666006D01*
X113225436Y-79699491D01*
X113199078Y-79702325D01*
X109433765Y-79702325D01*
X109392844Y-79713289D01*
X109392844Y-79713290D01*
X109355576Y-79723276D01*
X109281039Y-79743248D01*
X109281034Y-79743251D01*
X109144115Y-79822300D01*
X109144107Y-79822306D01*
X109032303Y-79934111D01*
X106600772Y-82365641D01*
X106539449Y-82399126D01*
X106469757Y-82394142D01*
X106413824Y-82352270D01*
X106389407Y-82286806D01*
X106389091Y-82277960D01*
X106389091Y-81816131D01*
X106389077Y-81816042D01*
X106374238Y-81722345D01*
X106316642Y-81609307D01*
X106316638Y-81609303D01*
X106316637Y-81609301D01*
X106226939Y-81519603D01*
X106226936Y-81519601D01*
X106226934Y-81519599D01*
X106147590Y-81479171D01*
X106113893Y-81462001D01*
X106020116Y-81447149D01*
X104157074Y-81447149D01*
X104076111Y-81459972D01*
X104063288Y-81462003D01*
X103950250Y-81519599D01*
X103950249Y-81519600D01*
X103950244Y-81519603D01*
X103860546Y-81609301D01*
X103860543Y-81609306D01*
X103802944Y-81722347D01*
X103788092Y-81816124D01*
X103788092Y-81859498D01*
X103768407Y-81926537D01*
X103715603Y-81972292D01*
X103646445Y-81982236D01*
X103582889Y-81953211D01*
X103563774Y-81932383D01*
X103540563Y-81900435D01*
X103395805Y-81755677D01*
X103230205Y-81635364D01*
X103230204Y-81635363D01*
X103230202Y-81635362D01*
X103173245Y-81606340D01*
X103047815Y-81542430D01*
X102853126Y-81479171D01*
X102678587Y-81451527D01*
X102650944Y-81447149D01*
X102446240Y-81447149D01*
X102421921Y-81451000D01*
X102244057Y-81479171D01*
X102049368Y-81542430D01*
X101866978Y-81635364D01*
X101701378Y-81755677D01*
X101556620Y-81900435D01*
X101436307Y-82066035D01*
X101343373Y-82248425D01*
X101280114Y-82443114D01*
X101248092Y-82645297D01*
X101248092Y-82850000D01*
X101280114Y-83052183D01*
X101343373Y-83246872D01*
X101436307Y-83429262D01*
X101556620Y-83594862D01*
X101701378Y-83739620D01*
X101808763Y-83817638D01*
X101866982Y-83859936D01*
X101983199Y-83919152D01*
X102049368Y-83952867D01*
X102049370Y-83952867D01*
X102049373Y-83952869D01*
X102119637Y-83975699D01*
X102244057Y-84016126D01*
X102317839Y-84027812D01*
X102446240Y-84048149D01*
X102446241Y-84048149D01*
X102650943Y-84048149D01*
X102650944Y-84048149D01*
X102853126Y-84016126D01*
X103047811Y-83952869D01*
X103230202Y-83859936D01*
X103364110Y-83762647D01*
X103395805Y-83739620D01*
X103395807Y-83739617D01*
X103395811Y-83739615D01*
X103540558Y-83594868D01*
X103563772Y-83562915D01*
X103619100Y-83520248D01*
X103688713Y-83514267D01*
X103750510Y-83546871D01*
X103784869Y-83607709D01*
X103788092Y-83635795D01*
X103788092Y-83679165D01*
X103797616Y-83739300D01*
X103802946Y-83772953D01*
X103860542Y-83885991D01*
X103860544Y-83885993D01*
X103860546Y-83885996D01*
X103950244Y-83975694D01*
X103950246Y-83975695D01*
X103950250Y-83975699D01*
X104052527Y-84027812D01*
X104063290Y-84033296D01*
X104157067Y-84048148D01*
X104157073Y-84048149D01*
X106020110Y-84048148D01*
X106113896Y-84033295D01*
X106113903Y-84033291D01*
X106115965Y-84032622D01*
X106118623Y-84032545D01*
X106123535Y-84031768D01*
X106123635Y-84032402D01*
X106144087Y-84031816D01*
X106171939Y-84027812D01*
X106178547Y-84030829D01*
X106185806Y-84030622D01*
X106209896Y-84045146D01*
X106235495Y-84056837D01*
X106239422Y-84062948D01*
X106245642Y-84066698D01*
X106258057Y-84091944D01*
X106273269Y-84115615D01*
X106274744Y-84125879D01*
X106276474Y-84129396D01*
X106278292Y-84150550D01*
X106278292Y-84217551D01*
X106258607Y-84284590D01*
X106241973Y-84305232D01*
X102659951Y-87887253D01*
X102598628Y-87920738D01*
X102528936Y-87915754D01*
X102484589Y-87887253D01*
X102446939Y-87849603D01*
X102446936Y-87849601D01*
X102446934Y-87849599D01*
X102367590Y-87809171D01*
X102333893Y-87792001D01*
X102240116Y-87777149D01*
X100377074Y-87777149D01*
X100296111Y-87789972D01*
X100283288Y-87792003D01*
X100170250Y-87849599D01*
X100170249Y-87849600D01*
X100170244Y-87849603D01*
X100080546Y-87939301D01*
X100080543Y-87939306D01*
X100022944Y-88052347D01*
X100008092Y-88146124D01*
X100008092Y-88189498D01*
X99988407Y-88256537D01*
X99935603Y-88302292D01*
X99866445Y-88312236D01*
X99802889Y-88283211D01*
X99783774Y-88262383D01*
X99760563Y-88230435D01*
X99615805Y-88085677D01*
X99450205Y-87965364D01*
X99450204Y-87965363D01*
X99450202Y-87965362D01*
X99390386Y-87934884D01*
X99267815Y-87872430D01*
X99073126Y-87809171D01*
X98898587Y-87781527D01*
X98870944Y-87777149D01*
X98666240Y-87777149D01*
X98641921Y-87781000D01*
X98464057Y-87809171D01*
X98269368Y-87872430D01*
X98086978Y-87965364D01*
X97921378Y-88085677D01*
X97776620Y-88230435D01*
X97656307Y-88396035D01*
X97563373Y-88578425D01*
X97500114Y-88773114D01*
X97468092Y-88975297D01*
X97468092Y-89180000D01*
X97500114Y-89382183D01*
X97563373Y-89576872D01*
X97605057Y-89658680D01*
X97632313Y-89712173D01*
X97656307Y-89759262D01*
X97776620Y-89924862D01*
X97921378Y-90069620D01*
X98076341Y-90182205D01*
X98086982Y-90189936D01*
X98203199Y-90249152D01*
X98269368Y-90282867D01*
X98269370Y-90282867D01*
X98269373Y-90282869D01*
X98339637Y-90305699D01*
X98464057Y-90346126D01*
X98565149Y-90362137D01*
X98666240Y-90378149D01*
X98666241Y-90378149D01*
X98870943Y-90378149D01*
X98870944Y-90378149D01*
X99073126Y-90346126D01*
X99267811Y-90282869D01*
X99450202Y-90189936D01*
X99569929Y-90102950D01*
X99615805Y-90069620D01*
X99615807Y-90069617D01*
X99615811Y-90069615D01*
X99760558Y-89924868D01*
X99783772Y-89892915D01*
X99839100Y-89850248D01*
X99908713Y-89844267D01*
X99970510Y-89876871D01*
X100004869Y-89937709D01*
X100008092Y-89965795D01*
X100008092Y-90009165D01*
X100017666Y-90069615D01*
X100022946Y-90102953D01*
X100080542Y-90215991D01*
X100080544Y-90215993D01*
X100080546Y-90215996D01*
X100170244Y-90305694D01*
X100170246Y-90305695D01*
X100170250Y-90305699D01*
X100283286Y-90363294D01*
X100283290Y-90363296D01*
X100377067Y-90378148D01*
X100377073Y-90378149D01*
X102240110Y-90378148D01*
X102333896Y-90363295D01*
X102446934Y-90305699D01*
X102536642Y-90215991D01*
X102594238Y-90102953D01*
X102594238Y-90102951D01*
X102594239Y-90102950D01*
X102609091Y-90009173D01*
X102609092Y-90009168D01*
X102609091Y-89675033D01*
X102628775Y-89607995D01*
X102649070Y-89583839D01*
X102659181Y-89574522D01*
X102687508Y-89558169D01*
X102799312Y-89446365D01*
X102799313Y-89446362D01*
X107078611Y-85167064D01*
X107139934Y-85133579D01*
X107209626Y-85138563D01*
X107265559Y-85180435D01*
X107289976Y-85245899D01*
X107290292Y-85254745D01*
X107290292Y-85497351D01*
X107270607Y-85564390D01*
X107253973Y-85585032D01*
X103335273Y-89503731D01*
X103335271Y-89503733D01*
X103327752Y-89516758D01*
X103303844Y-89558169D01*
X103281149Y-89597477D01*
X103256215Y-89640663D01*
X103247005Y-89675034D01*
X103215291Y-89793392D01*
X103215291Y-89793394D01*
X103215291Y-89961495D01*
X103215292Y-89961508D01*
X103215292Y-93209989D01*
X103195607Y-93277028D01*
X103178973Y-93297670D01*
X95598701Y-100877941D01*
X95598699Y-100877944D01*
X95576418Y-100916537D01*
X95550002Y-100962292D01*
X95548581Y-100964753D01*
X95548579Y-100964755D01*
X95519645Y-101014868D01*
X95519644Y-101014869D01*
X95519643Y-101014874D01*
X95478719Y-101167602D01*
X95478719Y-101167604D01*
X95478719Y-101335705D01*
X95478720Y-101335718D01*
X95478720Y-103018122D01*
X95459035Y-103085161D01*
X95442401Y-103105803D01*
X93014500Y-105533703D01*
X93014499Y-105533705D01*
X92978989Y-105595212D01*
X92970645Y-105609664D01*
X92970643Y-105609666D01*
X92935444Y-105670630D01*
X92935442Y-105670633D01*
X92914296Y-105749552D01*
X92894518Y-105823364D01*
X92894518Y-105823366D01*
X92894518Y-105991467D01*
X92894519Y-105991480D01*
X92894519Y-107677230D01*
X92876272Y-107739369D01*
X92877114Y-107739819D01*
X92874954Y-107743859D01*
X92874834Y-107744269D01*
X92874297Y-107745087D01*
X92874242Y-107745190D01*
X92821440Y-107872667D01*
X92821437Y-107872677D01*
X92794519Y-108008004D01*
X92794519Y-108008007D01*
X92794519Y-108145993D01*
X92794519Y-108145995D01*
X92794518Y-108145995D01*
X92821437Y-108281322D01*
X92821440Y-108281332D01*
X92874240Y-108408804D01*
X92874247Y-108408817D01*
X92950904Y-108523541D01*
X92950907Y-108523545D01*
X93048473Y-108621111D01*
X93048477Y-108621114D01*
X93119107Y-108668308D01*
X93163912Y-108721920D01*
X93172619Y-108791245D01*
X93142464Y-108854273D01*
X93137898Y-108859091D01*
X93041195Y-108955795D01*
X92681622Y-109315368D01*
X92620301Y-109348852D01*
X92593943Y-109351686D01*
X91731467Y-109351686D01*
X91669327Y-109333439D01*
X91668878Y-109334281D01*
X91664837Y-109332121D01*
X91664428Y-109332001D01*
X91663609Y-109331464D01*
X91663506Y-109331409D01*
X91536029Y-109278607D01*
X91536019Y-109278604D01*
X91400692Y-109251686D01*
X91400690Y-109251686D01*
X91373334Y-109251686D01*
X91306295Y-109232001D01*
X91260540Y-109179197D01*
X91250596Y-109110039D01*
X91253531Y-109097418D01*
X91261369Y-109047928D01*
X91269092Y-108999168D01*
X91269091Y-107136131D01*
X91254238Y-107042345D01*
X91196642Y-106929307D01*
X91196638Y-106929303D01*
X91196637Y-106929301D01*
X91106939Y-106839603D01*
X91106936Y-106839601D01*
X91106934Y-106839599D01*
X91004826Y-106787572D01*
X90993893Y-106782001D01*
X90900116Y-106767149D01*
X89037074Y-106767149D01*
X88956111Y-106779972D01*
X88943288Y-106782003D01*
X88830250Y-106839599D01*
X88830249Y-106839600D01*
X88830244Y-106839603D01*
X88740546Y-106929301D01*
X88740543Y-106929306D01*
X88682944Y-107042347D01*
X88668092Y-107136124D01*
X88668092Y-107179498D01*
X88648407Y-107246537D01*
X88595603Y-107292292D01*
X88526445Y-107302236D01*
X88462889Y-107273211D01*
X88443774Y-107252383D01*
X88420563Y-107220435D01*
X88275805Y-107075677D01*
X88110205Y-106955364D01*
X88110204Y-106955363D01*
X88110202Y-106955362D01*
X88045907Y-106922602D01*
X87927815Y-106862430D01*
X87733126Y-106799171D01*
X87558587Y-106771527D01*
X87530944Y-106767149D01*
X87326240Y-106767149D01*
X87301921Y-106771000D01*
X87124057Y-106799171D01*
X86929368Y-106862430D01*
X86746978Y-106955364D01*
X86581378Y-107075677D01*
X86436620Y-107220435D01*
X86316307Y-107386035D01*
X86223373Y-107568425D01*
X86160114Y-107763114D01*
X86134590Y-107924269D01*
X86128092Y-107965297D01*
X83821449Y-107965297D01*
X87600606Y-101635297D01*
X89908092Y-101635297D01*
X89908092Y-101840000D01*
X89940114Y-102042183D01*
X90003373Y-102236872D01*
X90096307Y-102419262D01*
X90216620Y-102584862D01*
X90361378Y-102729620D01*
X90516341Y-102842205D01*
X90526982Y-102849936D01*
X90643199Y-102909152D01*
X90709368Y-102942867D01*
X90709370Y-102942867D01*
X90709373Y-102942869D01*
X90779637Y-102965699D01*
X90904057Y-103006126D01*
X91005149Y-103022137D01*
X91106240Y-103038149D01*
X91106241Y-103038149D01*
X91310943Y-103038149D01*
X91310944Y-103038149D01*
X91513126Y-103006126D01*
X91707811Y-102942869D01*
X91890202Y-102849936D01*
X92009929Y-102762950D01*
X92055805Y-102729620D01*
X92055807Y-102729617D01*
X92055811Y-102729615D01*
X92200558Y-102584868D01*
X92223772Y-102552915D01*
X92279100Y-102510248D01*
X92348713Y-102504267D01*
X92410510Y-102536871D01*
X92444869Y-102597709D01*
X92448092Y-102625795D01*
X92448092Y-102669165D01*
X92455718Y-102717313D01*
X92462946Y-102762953D01*
X92520542Y-102875991D01*
X92520544Y-102875993D01*
X92520546Y-102875996D01*
X92610244Y-102965694D01*
X92610246Y-102965695D01*
X92610250Y-102965699D01*
X92723286Y-103023294D01*
X92723290Y-103023296D01*
X92817067Y-103038148D01*
X92817073Y-103038149D01*
X94680110Y-103038148D01*
X94773896Y-103023295D01*
X94886934Y-102965699D01*
X94976642Y-102875991D01*
X95034238Y-102762953D01*
X95034238Y-102762951D01*
X95034239Y-102762950D01*
X95049091Y-102669173D01*
X95049092Y-102669168D01*
X95049091Y-100806131D01*
X95034238Y-100712345D01*
X94976642Y-100599307D01*
X94976638Y-100599303D01*
X94976637Y-100599301D01*
X94886939Y-100509603D01*
X94886936Y-100509601D01*
X94886934Y-100509599D01*
X94807590Y-100469171D01*
X94773893Y-100452001D01*
X94680116Y-100437149D01*
X92817074Y-100437149D01*
X92736111Y-100449972D01*
X92723288Y-100452003D01*
X92610250Y-100509599D01*
X92610249Y-100509600D01*
X92610244Y-100509603D01*
X92520546Y-100599301D01*
X92520543Y-100599306D01*
X92462944Y-100712347D01*
X92448092Y-100806124D01*
X92448092Y-100849498D01*
X92428407Y-100916537D01*
X92375603Y-100962292D01*
X92306445Y-100972236D01*
X92242889Y-100943211D01*
X92223774Y-100922383D01*
X92200563Y-100890435D01*
X92055805Y-100745677D01*
X91890205Y-100625364D01*
X91890204Y-100625363D01*
X91890202Y-100625362D01*
X91833245Y-100596340D01*
X91707815Y-100532430D01*
X91513126Y-100469171D01*
X91338587Y-100441527D01*
X91310944Y-100437149D01*
X91106240Y-100437149D01*
X91081921Y-100441000D01*
X90904057Y-100469171D01*
X90709368Y-100532430D01*
X90526978Y-100625364D01*
X90361378Y-100745677D01*
X90216620Y-100890435D01*
X90096307Y-101056035D01*
X90003373Y-101238425D01*
X89940114Y-101433114D01*
X89908092Y-101635297D01*
X87600606Y-101635297D01*
X88632135Y-99907510D01*
X91379763Y-95305297D01*
X93688092Y-95305297D01*
X93688092Y-95510000D01*
X93720114Y-95712183D01*
X93783373Y-95906872D01*
X93876307Y-96089262D01*
X93996620Y-96254862D01*
X94141378Y-96399620D01*
X94296341Y-96512205D01*
X94306982Y-96519936D01*
X94423199Y-96579152D01*
X94489368Y-96612867D01*
X94489370Y-96612867D01*
X94489373Y-96612869D01*
X94559637Y-96635699D01*
X94684057Y-96676126D01*
X94785149Y-96692137D01*
X94886240Y-96708149D01*
X94886241Y-96708149D01*
X95090943Y-96708149D01*
X95090944Y-96708149D01*
X95293126Y-96676126D01*
X95487811Y-96612869D01*
X95670202Y-96519936D01*
X95789929Y-96432950D01*
X95835805Y-96399620D01*
X95835807Y-96399617D01*
X95835811Y-96399615D01*
X95980558Y-96254868D01*
X96003772Y-96222915D01*
X96059100Y-96180248D01*
X96128713Y-96174267D01*
X96190510Y-96206871D01*
X96224869Y-96267709D01*
X96228092Y-96295795D01*
X96228092Y-96339165D01*
X96237666Y-96399615D01*
X96242946Y-96432953D01*
X96300542Y-96545991D01*
X96300544Y-96545993D01*
X96300546Y-96545996D01*
X96390244Y-96635694D01*
X96390246Y-96635695D01*
X96390250Y-96635699D01*
X96503286Y-96693294D01*
X96503290Y-96693296D01*
X96597067Y-96708148D01*
X96597073Y-96708149D01*
X98460110Y-96708148D01*
X98553896Y-96693295D01*
X98666934Y-96635699D01*
X98756642Y-96545991D01*
X98814238Y-96432953D01*
X98814238Y-96432951D01*
X98814239Y-96432950D01*
X98829091Y-96339173D01*
X98829092Y-96339168D01*
X98829091Y-94476131D01*
X98814238Y-94382345D01*
X98756642Y-94269307D01*
X98756638Y-94269303D01*
X98756637Y-94269301D01*
X98666939Y-94179603D01*
X98666936Y-94179601D01*
X98666934Y-94179599D01*
X98587590Y-94139171D01*
X98553893Y-94122001D01*
X98460116Y-94107149D01*
X96597074Y-94107149D01*
X96516111Y-94119972D01*
X96503288Y-94122003D01*
X96390250Y-94179599D01*
X96390249Y-94179600D01*
X96390244Y-94179603D01*
X96300546Y-94269301D01*
X96300543Y-94269306D01*
X96300542Y-94269307D01*
X96287217Y-94295458D01*
X96242944Y-94382347D01*
X96228092Y-94476124D01*
X96228092Y-94519498D01*
X96208407Y-94586537D01*
X96155603Y-94632292D01*
X96086445Y-94642236D01*
X96022889Y-94613211D01*
X96003774Y-94592383D01*
X95980563Y-94560435D01*
X95835805Y-94415677D01*
X95670205Y-94295364D01*
X95670204Y-94295363D01*
X95670202Y-94295362D01*
X95613245Y-94266340D01*
X95487815Y-94202430D01*
X95293126Y-94139171D01*
X95118587Y-94111527D01*
X95090944Y-94107149D01*
X94886240Y-94107149D01*
X94861921Y-94111000D01*
X94684057Y-94139171D01*
X94489368Y-94202430D01*
X94306978Y-94295364D01*
X94141378Y-94415677D01*
X93996620Y-94560435D01*
X93876307Y-94726035D01*
X93783373Y-94908425D01*
X93720114Y-95103114D01*
X93688092Y-95305297D01*
X91379763Y-95305297D01*
X91420621Y-95236861D01*
X106496389Y-69985297D01*
X108808092Y-69985297D01*
X108808092Y-70190001D01*
X108808868Y-70194900D01*
X108840114Y-70392183D01*
X108903373Y-70586872D01*
X108996307Y-70769262D01*
X109116620Y-70934862D01*
X109261378Y-71079620D01*
X109378552Y-71164750D01*
X109426982Y-71199936D01*
X109543199Y-71259152D01*
X109609368Y-71292867D01*
X109609370Y-71292867D01*
X109609373Y-71292869D01*
X109679637Y-71315699D01*
X109804057Y-71356126D01*
X109905149Y-71372137D01*
X110006240Y-71388149D01*
X110006241Y-71388149D01*
X110210943Y-71388149D01*
X110210944Y-71388149D01*
X110413126Y-71356126D01*
X110607811Y-71292869D01*
X110790202Y-71199936D01*
X110909928Y-71112951D01*
X110955805Y-71079620D01*
X110955807Y-71079617D01*
X110955811Y-71079615D01*
X111100558Y-70934868D01*
X111123772Y-70902915D01*
X111179100Y-70860248D01*
X111248713Y-70854267D01*
X111310510Y-70886871D01*
X111344869Y-70947709D01*
X111348092Y-70975795D01*
X111348092Y-71019165D01*
X111349414Y-71027510D01*
X111362946Y-71112953D01*
X111420542Y-71225991D01*
X111420544Y-71225993D01*
X111420546Y-71225996D01*
X111510244Y-71315694D01*
X111510246Y-71315695D01*
X111510250Y-71315699D01*
X111623288Y-71373295D01*
X111623290Y-71373296D01*
X111717067Y-71388148D01*
X111717073Y-71388149D01*
X113048493Y-71388148D01*
X113115532Y-71407833D01*
X113136174Y-71424467D01*
X113185227Y-71473520D01*
X113185229Y-71473521D01*
X113185233Y-71473524D01*
X113272036Y-71523639D01*
X113322159Y-71552577D01*
X113474886Y-71593501D01*
X113474888Y-71593501D01*
X113640597Y-71593501D01*
X113640613Y-71593500D01*
X124119331Y-71593500D01*
X124119347Y-71593501D01*
X124126943Y-71593501D01*
X124285054Y-71593501D01*
X124285057Y-71593501D01*
X124437785Y-71552577D01*
X124487904Y-71523639D01*
X124574716Y-71473520D01*
X124629414Y-71418821D01*
X124637027Y-71413232D01*
X124661348Y-71404417D01*
X124679564Y-71394470D01*
X124679287Y-71393557D01*
X124683675Y-71392225D01*
X124684052Y-71392020D01*
X124685013Y-71391819D01*
X124685109Y-71391790D01*
X124685120Y-71391788D01*
X124812603Y-71338983D01*
X124927334Y-71262322D01*
X125024906Y-71164750D01*
X125101567Y-71050019D01*
X125110891Y-71027510D01*
X125149264Y-70934868D01*
X125154372Y-70922536D01*
X125167952Y-70854267D01*
X125181292Y-70787203D01*
X125181292Y-70649212D01*
X125154373Y-70513885D01*
X125154372Y-70513884D01*
X125154372Y-70513880D01*
X125140903Y-70481362D01*
X125101570Y-70386403D01*
X125101563Y-70386390D01*
X125024906Y-70271666D01*
X125024903Y-70271662D01*
X124985071Y-70231830D01*
X124951586Y-70170507D01*
X124956570Y-70100815D01*
X124998442Y-70044882D01*
X125063906Y-70020465D01*
X125072752Y-70020149D01*
X125373523Y-70020149D01*
X125373539Y-70020150D01*
X125381135Y-70020150D01*
X125539246Y-70020150D01*
X125539249Y-70020150D01*
X125691977Y-69979226D01*
X125758286Y-69940942D01*
X125828908Y-69900169D01*
X125940712Y-69788365D01*
X125940712Y-69788363D01*
X125950916Y-69778160D01*
X125950919Y-69778155D01*
X128795977Y-66933098D01*
X128857298Y-66899615D01*
X128926990Y-66904599D01*
X128971337Y-66933100D01*
X129117721Y-67079484D01*
X129194539Y-67135297D01*
X129194540Y-67135297D01*
X129194541Y-67135298D01*
X129315198Y-67174502D01*
X129315199Y-67174502D01*
X129442063Y-67174502D01*
X129442064Y-67174502D01*
X129562721Y-67135298D01*
X129639540Y-67079486D01*
X130956905Y-65762119D01*
X131012719Y-65685300D01*
X131051923Y-65564643D01*
X131051923Y-65437777D01*
X131012719Y-65317120D01*
X130987019Y-65281747D01*
X130956912Y-65240307D01*
X130956909Y-65240304D01*
X130956907Y-65240301D01*
X130926237Y-65209631D01*
X130892754Y-65148313D01*
X130897738Y-65078621D01*
X130939608Y-65022687D01*
X131005072Y-64998269D01*
X131033317Y-64999479D01*
X131072330Y-65005659D01*
X131072331Y-65005659D01*
X131277033Y-65005659D01*
X131277034Y-65005659D01*
X131479216Y-64973636D01*
X131673901Y-64910379D01*
X131856292Y-64817446D01*
X131949654Y-64749615D01*
X132021895Y-64697130D01*
X132021897Y-64697127D01*
X132021901Y-64697125D01*
X132166648Y-64552378D01*
X132166650Y-64552374D01*
X132166653Y-64552372D01*
X132281375Y-64394468D01*
X132286969Y-64386769D01*
X132379902Y-64204378D01*
X132443159Y-64009693D01*
X132475182Y-63807511D01*
X132475182Y-63602807D01*
X132443159Y-63400625D01*
X132438690Y-63386872D01*
X132396955Y-63258425D01*
X132379902Y-63205940D01*
X132379900Y-63205937D01*
X132379900Y-63205935D01*
X132345012Y-63137464D01*
X132286969Y-63023549D01*
X132264219Y-62992236D01*
X132166653Y-62857945D01*
X132021895Y-62713187D01*
X131856295Y-62592874D01*
X131856294Y-62592873D01*
X131856292Y-62592872D01*
X131799335Y-62563850D01*
X131673905Y-62499940D01*
X131479216Y-62436681D01*
X131304677Y-62409037D01*
X131277034Y-62404659D01*
X131072330Y-62404659D01*
X131048011Y-62408510D01*
X130870147Y-62436681D01*
X130675458Y-62499940D01*
X130493068Y-62592874D01*
X130327468Y-62713187D01*
X130182710Y-62857945D01*
X130062397Y-63023545D01*
X129969463Y-63205935D01*
X129906204Y-63400624D01*
X129874182Y-63602807D01*
X129874182Y-63807510D01*
X129880361Y-63846523D01*
X129871406Y-63915817D01*
X129826410Y-63969269D01*
X129759659Y-63989908D01*
X129692345Y-63971183D01*
X129670207Y-63953602D01*
X129639540Y-63922935D01*
X129562722Y-63867122D01*
X129442065Y-63827918D01*
X129442064Y-63827918D01*
X129315198Y-63827918D01*
X129315196Y-63827918D01*
X129194541Y-63867122D01*
X129194539Y-63867123D01*
X129117725Y-63922930D01*
X129117723Y-63922932D01*
X127800359Y-65240297D01*
X127800356Y-65240300D01*
X127744543Y-65317118D01*
X127705339Y-65437775D01*
X127705339Y-65437777D01*
X127705339Y-65564643D01*
X127744543Y-65685300D01*
X127744544Y-65685301D01*
X127800351Y-65762115D01*
X127946739Y-65908503D01*
X127980224Y-65969826D01*
X127975240Y-66039518D01*
X127946739Y-66083865D01*
X125247776Y-68782830D01*
X125186453Y-68816315D01*
X125160095Y-68819149D01*
X116226930Y-68819149D01*
X116202739Y-68816766D01*
X116165137Y-68809286D01*
X116087787Y-68793900D01*
X116087785Y-68793900D01*
X115949799Y-68793900D01*
X115949797Y-68793900D01*
X115814469Y-68820818D01*
X115814459Y-68820821D01*
X115686987Y-68873621D01*
X115686974Y-68873628D01*
X115572250Y-68950285D01*
X115572246Y-68950288D01*
X115474680Y-69047854D01*
X115474677Y-69047858D01*
X115398020Y-69162582D01*
X115398013Y-69162595D01*
X115345213Y-69290067D01*
X115345210Y-69290077D01*
X115318292Y-69425404D01*
X115318292Y-69425407D01*
X115318292Y-69563393D01*
X115318292Y-69563395D01*
X115318291Y-69563395D01*
X115345210Y-69698722D01*
X115345213Y-69698732D01*
X115398013Y-69826204D01*
X115398020Y-69826217D01*
X115474676Y-69940940D01*
X115474680Y-69940945D01*
X115572246Y-70038511D01*
X115572250Y-70038514D01*
X115686974Y-70115171D01*
X115686987Y-70115178D01*
X115780565Y-70153939D01*
X115834969Y-70197780D01*
X115857034Y-70264074D01*
X115839755Y-70331773D01*
X115788618Y-70379384D01*
X115733113Y-70392500D01*
X114073092Y-70392500D01*
X114006053Y-70372815D01*
X113960298Y-70320011D01*
X113949092Y-70268500D01*
X113949091Y-69156131D01*
X113949090Y-69156124D01*
X113934238Y-69062345D01*
X113876642Y-68949307D01*
X113876638Y-68949303D01*
X113876637Y-68949301D01*
X113786939Y-68859603D01*
X113786936Y-68859601D01*
X113786934Y-68859599D01*
X113701985Y-68816315D01*
X113673893Y-68802001D01*
X113580116Y-68787149D01*
X111717074Y-68787149D01*
X111636111Y-68799972D01*
X111623288Y-68802003D01*
X111510250Y-68859599D01*
X111510249Y-68859600D01*
X111510244Y-68859603D01*
X111420546Y-68949301D01*
X111420543Y-68949306D01*
X111420542Y-68949307D01*
X111407266Y-68975362D01*
X111362944Y-69062347D01*
X111348092Y-69156124D01*
X111348092Y-69199498D01*
X111328407Y-69266537D01*
X111275603Y-69312292D01*
X111206445Y-69322236D01*
X111142889Y-69293211D01*
X111123774Y-69272383D01*
X111100563Y-69240435D01*
X110955805Y-69095677D01*
X110790205Y-68975364D01*
X110790204Y-68975363D01*
X110790202Y-68975362D01*
X110733245Y-68946340D01*
X110607815Y-68882430D01*
X110413126Y-68819171D01*
X110238587Y-68791527D01*
X110210944Y-68787149D01*
X110006240Y-68787149D01*
X109981921Y-68791000D01*
X109804057Y-68819171D01*
X109609368Y-68882430D01*
X109426978Y-68975364D01*
X109261378Y-69095677D01*
X109116620Y-69240435D01*
X108996307Y-69406035D01*
X108903373Y-69588425D01*
X108840114Y-69783114D01*
X108809054Y-69979225D01*
X108808092Y-69985297D01*
X106496389Y-69985297D01*
X106537247Y-69916861D01*
X109211363Y-65437778D01*
X110275545Y-63655297D01*
X112588092Y-63655297D01*
X112588092Y-63860000D01*
X112620114Y-64062183D01*
X112683373Y-64256872D01*
X112734977Y-64358149D01*
X112764000Y-64415110D01*
X112776307Y-64439262D01*
X112896620Y-64604862D01*
X113041378Y-64749620D01*
X113193330Y-64860017D01*
X113206982Y-64869936D01*
X113286352Y-64910377D01*
X113389368Y-64962867D01*
X113389370Y-64962867D01*
X113389373Y-64962869D01*
X113459637Y-64985699D01*
X113584057Y-65026126D01*
X113685149Y-65042137D01*
X113786240Y-65058149D01*
X113786241Y-65058149D01*
X113990943Y-65058149D01*
X113990944Y-65058149D01*
X114193126Y-65026126D01*
X114387811Y-64962869D01*
X114570202Y-64869936D01*
X114689929Y-64782950D01*
X114735805Y-64749620D01*
X114735807Y-64749617D01*
X114735811Y-64749615D01*
X114880558Y-64604868D01*
X114903772Y-64572915D01*
X114959100Y-64530248D01*
X115028713Y-64524267D01*
X115090510Y-64556871D01*
X115124869Y-64617709D01*
X115128092Y-64645795D01*
X115128092Y-64689165D01*
X115129353Y-64697125D01*
X115142946Y-64782953D01*
X115200542Y-64895991D01*
X115200544Y-64895993D01*
X115200546Y-64895996D01*
X115290244Y-64985694D01*
X115290246Y-64985695D01*
X115290250Y-64985699D01*
X115403286Y-65043294D01*
X115403290Y-65043296D01*
X115497067Y-65058148D01*
X115497073Y-65058149D01*
X117360110Y-65058148D01*
X117453896Y-65043295D01*
X117566934Y-64985699D01*
X117656642Y-64895991D01*
X117714238Y-64782953D01*
X117714238Y-64782951D01*
X117714239Y-64782950D01*
X117729092Y-64689173D01*
X117729092Y-64482149D01*
X117748777Y-64415110D01*
X117801581Y-64369355D01*
X117853092Y-64358149D01*
X126726346Y-64358149D01*
X126793385Y-64377834D01*
X126814027Y-64394468D01*
X126894654Y-64475095D01*
X126894658Y-64475098D01*
X127009382Y-64551755D01*
X127009395Y-64551762D01*
X127136867Y-64604562D01*
X127136872Y-64604564D01*
X127136876Y-64604564D01*
X127136877Y-64604565D01*
X127272204Y-64631484D01*
X127272207Y-64631484D01*
X127410195Y-64631484D01*
X127501241Y-64613373D01*
X127545528Y-64604564D01*
X127644124Y-64563724D01*
X127673004Y-64551762D01*
X127673004Y-64551761D01*
X127673011Y-64551759D01*
X127787742Y-64475098D01*
X127885314Y-64377526D01*
X127961975Y-64262795D01*
X128014780Y-64135312D01*
X128029326Y-64062183D01*
X128041700Y-63999979D01*
X128041700Y-63861988D01*
X128014781Y-63726661D01*
X128014780Y-63726660D01*
X128014780Y-63726656D01*
X128014778Y-63726651D01*
X127961978Y-63599179D01*
X127961971Y-63599166D01*
X127885314Y-63484442D01*
X127885311Y-63484438D01*
X127787745Y-63386872D01*
X127787741Y-63386869D01*
X127673017Y-63310212D01*
X127673004Y-63310205D01*
X127545530Y-63257404D01*
X127545523Y-63257402D01*
X127499831Y-63248313D01*
X127496642Y-63247112D01*
X127494793Y-63247201D01*
X127462027Y-63234085D01*
X127429816Y-63215489D01*
X127429815Y-63215488D01*
X127399648Y-63198071D01*
X127343746Y-63183092D01*
X127246922Y-63157148D01*
X127088808Y-63157148D01*
X127081212Y-63157148D01*
X127081196Y-63157149D01*
X117853091Y-63157149D01*
X117786052Y-63137464D01*
X117740297Y-63084660D01*
X117729091Y-63033149D01*
X117729091Y-62826131D01*
X117729090Y-62826124D01*
X117714238Y-62732345D01*
X117656642Y-62619307D01*
X117656638Y-62619303D01*
X117656637Y-62619301D01*
X117566939Y-62529603D01*
X117566936Y-62529601D01*
X117566934Y-62529599D01*
X117487590Y-62489171D01*
X117453893Y-62472001D01*
X117360116Y-62457149D01*
X115497074Y-62457149D01*
X115416111Y-62469972D01*
X115403288Y-62472003D01*
X115290250Y-62529599D01*
X115290249Y-62529600D01*
X115290244Y-62529603D01*
X115200546Y-62619301D01*
X115200543Y-62619306D01*
X115142944Y-62732347D01*
X115128092Y-62826124D01*
X115128092Y-62869498D01*
X115108407Y-62936537D01*
X115055603Y-62982292D01*
X114986445Y-62992236D01*
X114922889Y-62963211D01*
X114903774Y-62942383D01*
X114880563Y-62910435D01*
X114735805Y-62765677D01*
X114570205Y-62645364D01*
X114570204Y-62645363D01*
X114570202Y-62645362D01*
X114474845Y-62596775D01*
X114387815Y-62552430D01*
X114193126Y-62489171D01*
X114018587Y-62461527D01*
X113990944Y-62457149D01*
X113786240Y-62457149D01*
X113761921Y-62461000D01*
X113584057Y-62489171D01*
X113389368Y-62552430D01*
X113206978Y-62645364D01*
X113041378Y-62765677D01*
X112896620Y-62910435D01*
X112776307Y-63076035D01*
X112683373Y-63258425D01*
X112620114Y-63453114D01*
X112588092Y-63655297D01*
X110275545Y-63655297D01*
X112835649Y-59367182D01*
X114054702Y-57325297D01*
X116368092Y-57325297D01*
X116368092Y-57530000D01*
X116400114Y-57732183D01*
X116463373Y-57926872D01*
X116556307Y-58109262D01*
X116676620Y-58274862D01*
X116821378Y-58419620D01*
X116976341Y-58532205D01*
X116986982Y-58539936D01*
X117103199Y-58599152D01*
X117169368Y-58632867D01*
X117169370Y-58632867D01*
X117169373Y-58632869D01*
X117239637Y-58655699D01*
X117364057Y-58696126D01*
X117465149Y-58712137D01*
X117566240Y-58728149D01*
X117566241Y-58728149D01*
X117770943Y-58728149D01*
X117770944Y-58728149D01*
X117973126Y-58696126D01*
X118167811Y-58632869D01*
X118350202Y-58539936D01*
X118452929Y-58465301D01*
X118515805Y-58419620D01*
X118515807Y-58419617D01*
X118515811Y-58419615D01*
X118660558Y-58274868D01*
X118683772Y-58242915D01*
X118739100Y-58200248D01*
X118808713Y-58194267D01*
X118870510Y-58226871D01*
X118904869Y-58287709D01*
X118908092Y-58315795D01*
X118908092Y-58359165D01*
X118917666Y-58419615D01*
X118922946Y-58452953D01*
X118980542Y-58565991D01*
X118980544Y-58565993D01*
X118980546Y-58565996D01*
X119070244Y-58655694D01*
X119070246Y-58655695D01*
X119070250Y-58655699D01*
X119183286Y-58713294D01*
X119183290Y-58713296D01*
X119277067Y-58728148D01*
X119277073Y-58728149D01*
X119484092Y-58728148D01*
X119551131Y-58747832D01*
X119596886Y-58800636D01*
X119608092Y-58852148D01*
X119608092Y-60050922D01*
X119608091Y-60050940D01*
X119608091Y-60216646D01*
X119608090Y-60216646D01*
X119608091Y-60216649D01*
X119649015Y-60369377D01*
X119668093Y-60402420D01*
X119708079Y-60471678D01*
X119728071Y-60506307D01*
X119846941Y-60625177D01*
X119846946Y-60625181D01*
X121678284Y-62456520D01*
X121678286Y-62456521D01*
X121678290Y-62456524D01*
X121815209Y-62535573D01*
X121815216Y-62535577D01*
X121967943Y-62576501D01*
X121967945Y-62576501D01*
X122133654Y-62576501D01*
X122133670Y-62576500D01*
X127841430Y-62576500D01*
X127903569Y-62594746D01*
X127904019Y-62593905D01*
X127908059Y-62596064D01*
X127908469Y-62596185D01*
X127909287Y-62596721D01*
X127909390Y-62596776D01*
X128036867Y-62649578D01*
X128036872Y-62649580D01*
X128036876Y-62649580D01*
X128036877Y-62649581D01*
X128172204Y-62676500D01*
X128172207Y-62676500D01*
X128310195Y-62676500D01*
X128401241Y-62658389D01*
X128445528Y-62649580D01*
X128573011Y-62596775D01*
X128687742Y-62520114D01*
X128785314Y-62422542D01*
X128861975Y-62307811D01*
X128914780Y-62180328D01*
X128914780Y-62180325D01*
X128916546Y-62174506D01*
X128917960Y-62174934D01*
X128946934Y-62119527D01*
X128948439Y-62117994D01*
X131059151Y-60007285D01*
X131138208Y-59870353D01*
X131179132Y-59717626D01*
X131179132Y-59571255D01*
X131198817Y-59504216D01*
X131215451Y-59483574D01*
X132156902Y-58542122D01*
X132156905Y-58542119D01*
X132212718Y-58465301D01*
X132212717Y-58465301D01*
X132212719Y-58465300D01*
X132251923Y-58344643D01*
X132251923Y-58217777D01*
X132212719Y-58097120D01*
X132187019Y-58061747D01*
X132156912Y-58020307D01*
X132156909Y-58020304D01*
X132156907Y-58020301D01*
X132126237Y-57989631D01*
X132092754Y-57928313D01*
X132097738Y-57858621D01*
X132139608Y-57802687D01*
X132205072Y-57778269D01*
X132233317Y-57779479D01*
X132272330Y-57785659D01*
X132272331Y-57785659D01*
X132477033Y-57785659D01*
X132477034Y-57785659D01*
X132679216Y-57753636D01*
X132873901Y-57690379D01*
X133056292Y-57597446D01*
X133149272Y-57529891D01*
X133221895Y-57477130D01*
X133221897Y-57477127D01*
X133221901Y-57477125D01*
X133366648Y-57332378D01*
X133366650Y-57332374D01*
X133366653Y-57332372D01*
X133421514Y-57256861D01*
X133486969Y-57166769D01*
X133579902Y-56984378D01*
X133643159Y-56789693D01*
X133675182Y-56587511D01*
X133675182Y-56382807D01*
X133646165Y-56199603D01*
X133643159Y-56180624D01*
X133579900Y-55985935D01*
X133546185Y-55919766D01*
X133486969Y-55803549D01*
X133452232Y-55755737D01*
X133366653Y-55637945D01*
X133221895Y-55493187D01*
X133056295Y-55372874D01*
X133056294Y-55372873D01*
X133056292Y-55372872D01*
X132999335Y-55343850D01*
X132873905Y-55279940D01*
X132679216Y-55216681D01*
X132504677Y-55189037D01*
X132477034Y-55184659D01*
X132272330Y-55184659D01*
X132248011Y-55188510D01*
X132070147Y-55216681D01*
X131875458Y-55279940D01*
X131693068Y-55372874D01*
X131527468Y-55493187D01*
X131382710Y-55637945D01*
X131262397Y-55803545D01*
X131169463Y-55985935D01*
X131106204Y-56180624D01*
X131088992Y-56289301D01*
X131074182Y-56382807D01*
X131074182Y-56587511D01*
X131077414Y-56607918D01*
X131080361Y-56626523D01*
X131071406Y-56695817D01*
X131026410Y-56749269D01*
X130959659Y-56769908D01*
X130892345Y-56751183D01*
X130870207Y-56733602D01*
X130839540Y-56702935D01*
X130762722Y-56647122D01*
X130642065Y-56607918D01*
X130642064Y-56607918D01*
X130515198Y-56607918D01*
X130515196Y-56607918D01*
X130394541Y-56647122D01*
X130394539Y-56647123D01*
X130317725Y-56702930D01*
X130317723Y-56702932D01*
X129000359Y-58020297D01*
X129000356Y-58020300D01*
X128944543Y-58097118D01*
X128905339Y-58217775D01*
X128905339Y-58344644D01*
X128910058Y-58359167D01*
X128944543Y-58465300D01*
X128944544Y-58465301D01*
X129000351Y-58542115D01*
X129825418Y-59367182D01*
X129858903Y-59428505D01*
X129853919Y-59498197D01*
X129825418Y-59542544D01*
X128099261Y-61268702D01*
X128059033Y-61295582D01*
X128047747Y-61300256D01*
X128036872Y-61302420D01*
X127909389Y-61355225D01*
X127900166Y-61361387D01*
X127888883Y-61366061D01*
X127865794Y-61368543D01*
X127843638Y-61375480D01*
X127841430Y-61375500D01*
X126346944Y-61375500D01*
X126279905Y-61355815D01*
X126234150Y-61303011D01*
X126224206Y-61233853D01*
X126225327Y-61227309D01*
X126241699Y-61144997D01*
X126241700Y-61144995D01*
X126241700Y-61007004D01*
X126214781Y-60871677D01*
X126214780Y-60871676D01*
X126214780Y-60871672D01*
X126214778Y-60871667D01*
X126161977Y-60744192D01*
X126148197Y-60723569D01*
X126127320Y-60656892D01*
X126127300Y-60654679D01*
X126127300Y-55755737D01*
X126146985Y-55688698D01*
X126163614Y-55668061D01*
X129584505Y-52247170D01*
X129584508Y-52247169D01*
X129696312Y-52135365D01*
X129746431Y-52048553D01*
X129775369Y-51998434D01*
X129816292Y-51845706D01*
X129816292Y-51687592D01*
X129816292Y-50997775D01*
X130105339Y-50997775D01*
X130105339Y-50997777D01*
X130105339Y-51124643D01*
X130144543Y-51245300D01*
X130144544Y-51245301D01*
X130200351Y-51322115D01*
X130200353Y-51322117D01*
X131517718Y-52639481D01*
X131517721Y-52639484D01*
X131594539Y-52695297D01*
X131594540Y-52695297D01*
X131594541Y-52695298D01*
X131715198Y-52734502D01*
X131715199Y-52734502D01*
X131842063Y-52734502D01*
X131842064Y-52734502D01*
X131962721Y-52695298D01*
X132039540Y-52639486D01*
X133356905Y-51322119D01*
X133412719Y-51245300D01*
X133451923Y-51124643D01*
X133451923Y-50997777D01*
X133412719Y-50877120D01*
X133387019Y-50841747D01*
X133356912Y-50800307D01*
X133356909Y-50800304D01*
X133356907Y-50800301D01*
X133326237Y-50769631D01*
X133292754Y-50708313D01*
X133297738Y-50638621D01*
X133339608Y-50582687D01*
X133405072Y-50558269D01*
X133433317Y-50559479D01*
X133472330Y-50565659D01*
X133472331Y-50565659D01*
X133677033Y-50565659D01*
X133677034Y-50565659D01*
X133879216Y-50533636D01*
X134073901Y-50470379D01*
X134256292Y-50377446D01*
X134358469Y-50303211D01*
X134421895Y-50257130D01*
X134421897Y-50257127D01*
X134421901Y-50257125D01*
X134566648Y-50112378D01*
X134566650Y-50112374D01*
X134566653Y-50112372D01*
X134658928Y-49985364D01*
X134686969Y-49946769D01*
X134779902Y-49764378D01*
X134843159Y-49569693D01*
X134875182Y-49367511D01*
X134875182Y-49162807D01*
X134843159Y-48960625D01*
X134779902Y-48765940D01*
X134779900Y-48765937D01*
X134779900Y-48765935D01*
X134746185Y-48699766D01*
X134686969Y-48583549D01*
X134679238Y-48572908D01*
X134566653Y-48417945D01*
X134421895Y-48273187D01*
X134256295Y-48152874D01*
X134256294Y-48152873D01*
X134256292Y-48152872D01*
X134199335Y-48123850D01*
X134073905Y-48059940D01*
X133879216Y-47996681D01*
X133704677Y-47969037D01*
X133677034Y-47964659D01*
X133472330Y-47964659D01*
X133448011Y-47968510D01*
X133270147Y-47996681D01*
X133075458Y-48059940D01*
X132893068Y-48152874D01*
X132727468Y-48273187D01*
X132582710Y-48417945D01*
X132462397Y-48583545D01*
X132369463Y-48765935D01*
X132306204Y-48960624D01*
X132274182Y-49162807D01*
X132274182Y-49367510D01*
X132280361Y-49406523D01*
X132271406Y-49475817D01*
X132226410Y-49529269D01*
X132159659Y-49549908D01*
X132092345Y-49531183D01*
X132070207Y-49513602D01*
X132039540Y-49482935D01*
X131962722Y-49427122D01*
X131842065Y-49387918D01*
X131842064Y-49387918D01*
X131715198Y-49387918D01*
X131715196Y-49387918D01*
X131594541Y-49427122D01*
X131594539Y-49427123D01*
X131517725Y-49482930D01*
X131517723Y-49482932D01*
X130200359Y-50800297D01*
X130200356Y-50800300D01*
X130144543Y-50877118D01*
X130105339Y-50997775D01*
X129816292Y-50997775D01*
X129816292Y-47748747D01*
X129835977Y-47681708D01*
X129852612Y-47661065D01*
X129900109Y-47613568D01*
X129900109Y-47613567D01*
X129900112Y-47613565D01*
X129979169Y-47476633D01*
X130020093Y-47323906D01*
X130020093Y-47165791D01*
X130020093Y-47158196D01*
X130020092Y-47158178D01*
X130020092Y-43777775D01*
X131305339Y-43777775D01*
X131305339Y-43904644D01*
X131310470Y-43920435D01*
X131344543Y-44025300D01*
X131344544Y-44025301D01*
X131400351Y-44102115D01*
X131400353Y-44102117D01*
X132717718Y-45419481D01*
X132717721Y-45419484D01*
X132794539Y-45475297D01*
X132794540Y-45475297D01*
X132794541Y-45475298D01*
X132915198Y-45514502D01*
X132915199Y-45514502D01*
X133042063Y-45514502D01*
X133042064Y-45514502D01*
X133162721Y-45475298D01*
X133239540Y-45419486D01*
X134556905Y-44102119D01*
X134612719Y-44025300D01*
X134651923Y-43904643D01*
X134651923Y-43777777D01*
X134612719Y-43657120D01*
X134587019Y-43621747D01*
X134556912Y-43580307D01*
X134556909Y-43580304D01*
X134556907Y-43580301D01*
X134526237Y-43549631D01*
X134492754Y-43488313D01*
X134497738Y-43418621D01*
X134539608Y-43362687D01*
X134605072Y-43338269D01*
X134633317Y-43339479D01*
X134672330Y-43345659D01*
X134672331Y-43345659D01*
X134877033Y-43345659D01*
X134877034Y-43345659D01*
X135079216Y-43313636D01*
X135273901Y-43250379D01*
X135456292Y-43157446D01*
X135549272Y-43089891D01*
X135621895Y-43037130D01*
X135621897Y-43037127D01*
X135621901Y-43037125D01*
X135766648Y-42892378D01*
X135766650Y-42892374D01*
X135766653Y-42892372D01*
X135819414Y-42819749D01*
X135886969Y-42726769D01*
X135979902Y-42544378D01*
X136043159Y-42349693D01*
X136075182Y-42147511D01*
X136075182Y-41942807D01*
X136043159Y-41740625D01*
X135979902Y-41545940D01*
X135979900Y-41545937D01*
X135979900Y-41545935D01*
X135946185Y-41479766D01*
X135886969Y-41363549D01*
X135878217Y-41351503D01*
X135766653Y-41197945D01*
X135621895Y-41053187D01*
X135456295Y-40932874D01*
X135456294Y-40932873D01*
X135456292Y-40932872D01*
X135399335Y-40903850D01*
X135273905Y-40839940D01*
X135079216Y-40776681D01*
X134904677Y-40749037D01*
X134877034Y-40744659D01*
X134672330Y-40744659D01*
X134648011Y-40748510D01*
X134470147Y-40776681D01*
X134275458Y-40839940D01*
X134093068Y-40932874D01*
X133927468Y-41053187D01*
X133782710Y-41197945D01*
X133662397Y-41363545D01*
X133569463Y-41545935D01*
X133506204Y-41740624D01*
X133474182Y-41942807D01*
X133474182Y-42147510D01*
X133480361Y-42186523D01*
X133471406Y-42255817D01*
X133426410Y-42309269D01*
X133359659Y-42329908D01*
X133292345Y-42311183D01*
X133270207Y-42293602D01*
X133239540Y-42262935D01*
X133162722Y-42207122D01*
X133042065Y-42167918D01*
X133042064Y-42167918D01*
X132915198Y-42167918D01*
X132915196Y-42167918D01*
X132794541Y-42207122D01*
X132794539Y-42207123D01*
X132717725Y-42262930D01*
X132717723Y-42262932D01*
X131400359Y-43580297D01*
X131400356Y-43580300D01*
X131344543Y-43657118D01*
X131305339Y-43777775D01*
X130020092Y-43777775D01*
X130020092Y-43255394D01*
X130020092Y-43255392D01*
X129979169Y-43102665D01*
X129941330Y-43037125D01*
X129900116Y-42965739D01*
X129900113Y-42965735D01*
X129900112Y-42965733D01*
X129788308Y-42853929D01*
X129788307Y-42853928D01*
X129783977Y-42849598D01*
X129783966Y-42849588D01*
X127994411Y-41060033D01*
X127960926Y-40998710D01*
X127958092Y-40972352D01*
X127958092Y-39524973D01*
X127977777Y-39457934D01*
X128030581Y-39412179D01*
X128099739Y-39402235D01*
X128156561Y-39427948D01*
X128157431Y-39426752D01*
X128292623Y-39524973D01*
X128326982Y-39549936D01*
X128443199Y-39609152D01*
X128509368Y-39642867D01*
X128509370Y-39642867D01*
X128509373Y-39642869D01*
X128579637Y-39665699D01*
X128704057Y-39706126D01*
X128805149Y-39722137D01*
X128906240Y-39738149D01*
X128906241Y-39738149D01*
X129110943Y-39738149D01*
X129110944Y-39738149D01*
X129313126Y-39706126D01*
X129507811Y-39642869D01*
X129690202Y-39549936D01*
X129816833Y-39457934D01*
X129855805Y-39429620D01*
X129855807Y-39429617D01*
X129855811Y-39429615D01*
X130000558Y-39284868D01*
X130023772Y-39252915D01*
X130079100Y-39210248D01*
X130148713Y-39204267D01*
X130210510Y-39236871D01*
X130244869Y-39297709D01*
X130248092Y-39325795D01*
X130248092Y-39369165D01*
X130253330Y-39402235D01*
X130262946Y-39462953D01*
X130320542Y-39575991D01*
X130320544Y-39575993D01*
X130320546Y-39575996D01*
X130410244Y-39665694D01*
X130410246Y-39665695D01*
X130410250Y-39665699D01*
X130523286Y-39723294D01*
X130523290Y-39723296D01*
X130617067Y-39738148D01*
X130617073Y-39738149D01*
X132480110Y-39738148D01*
X132573896Y-39723295D01*
X132686934Y-39665699D01*
X132776642Y-39575991D01*
X132834238Y-39462953D01*
X132834238Y-39462951D01*
X132834239Y-39462950D01*
X132849091Y-39369173D01*
X132849092Y-39369168D01*
X132849091Y-37506131D01*
X132849091Y-37506130D01*
X132849091Y-37506125D01*
X132838169Y-37437165D01*
X132847124Y-37367872D01*
X132892120Y-37314420D01*
X132958872Y-37293781D01*
X133026185Y-37312506D01*
X133048323Y-37330087D01*
X133917718Y-38199481D01*
X133917721Y-38199484D01*
X133994539Y-38255297D01*
X133994540Y-38255297D01*
X133994541Y-38255298D01*
X134115198Y-38294502D01*
X134115199Y-38294502D01*
X134242063Y-38294502D01*
X134242064Y-38294502D01*
X134362721Y-38255298D01*
X134439540Y-38199486D01*
X135756905Y-36882119D01*
X135812719Y-36805300D01*
X135851923Y-36684643D01*
X135851923Y-36557777D01*
X135812719Y-36437120D01*
X135787019Y-36401747D01*
X135756912Y-36360307D01*
X135756909Y-36360304D01*
X135756907Y-36360301D01*
X135726237Y-36329631D01*
X135692754Y-36268313D01*
X135697738Y-36198621D01*
X135739608Y-36142687D01*
X135805072Y-36118269D01*
X135833317Y-36119479D01*
X135872330Y-36125659D01*
X135872331Y-36125659D01*
X136077033Y-36125659D01*
X136077034Y-36125659D01*
X136279216Y-36093636D01*
X136473901Y-36030379D01*
X136656292Y-35937446D01*
X136749272Y-35869891D01*
X136821895Y-35817130D01*
X136821897Y-35817127D01*
X136821901Y-35817125D01*
X136966648Y-35672378D01*
X136966650Y-35672374D01*
X136966653Y-35672372D01*
X137019414Y-35599749D01*
X137086969Y-35506769D01*
X137179902Y-35324378D01*
X137243159Y-35129693D01*
X137275182Y-34927511D01*
X137275182Y-34722807D01*
X137243159Y-34520625D01*
X137179902Y-34325940D01*
X137179900Y-34325937D01*
X137179900Y-34325935D01*
X137146185Y-34259766D01*
X137086969Y-34143549D01*
X137079238Y-34132908D01*
X136966653Y-33977945D01*
X136821895Y-33833187D01*
X136656295Y-33712874D01*
X136656294Y-33712873D01*
X136656292Y-33712872D01*
X136599335Y-33683850D01*
X136473905Y-33619940D01*
X136279216Y-33556681D01*
X136104677Y-33529037D01*
X136077034Y-33524659D01*
X135872330Y-33524659D01*
X135848011Y-33528510D01*
X135670147Y-33556681D01*
X135475458Y-33619940D01*
X135293068Y-33712874D01*
X135127468Y-33833187D01*
X134982710Y-33977945D01*
X134862397Y-34143545D01*
X134769463Y-34325935D01*
X134706204Y-34520624D01*
X134674182Y-34722807D01*
X134674182Y-34927510D01*
X134680361Y-34966523D01*
X134671406Y-35035817D01*
X134626410Y-35089269D01*
X134559659Y-35109908D01*
X134492345Y-35091183D01*
X134470207Y-35073602D01*
X134439540Y-35042935D01*
X134362722Y-34987122D01*
X134242065Y-34947918D01*
X134242064Y-34947918D01*
X134115198Y-34947918D01*
X134115196Y-34947918D01*
X133994541Y-34987122D01*
X133994539Y-34987123D01*
X133917725Y-35042930D01*
X133917723Y-35042932D01*
X132600359Y-36360297D01*
X132600356Y-36360300D01*
X132544543Y-36437118D01*
X132505339Y-36557775D01*
X132505339Y-36557777D01*
X132505339Y-36684643D01*
X132544543Y-36805300D01*
X132544544Y-36805301D01*
X132600351Y-36882115D01*
X132656152Y-36937916D01*
X132689637Y-36999239D01*
X132684653Y-37068931D01*
X132642781Y-37124864D01*
X132577317Y-37149281D01*
X132549074Y-37148071D01*
X132480111Y-37137149D01*
X130617074Y-37137149D01*
X130540475Y-37149281D01*
X130523288Y-37152003D01*
X130410250Y-37209599D01*
X130410249Y-37209600D01*
X130410244Y-37209603D01*
X130320546Y-37299301D01*
X130320543Y-37299306D01*
X130262944Y-37412347D01*
X130248092Y-37506124D01*
X130248092Y-37549498D01*
X130228407Y-37616537D01*
X130175603Y-37662292D01*
X130106445Y-37672236D01*
X130042889Y-37643211D01*
X130023774Y-37622383D01*
X130000563Y-37590435D01*
X129855805Y-37445677D01*
X129690205Y-37325364D01*
X129690204Y-37325363D01*
X129690202Y-37325362D01*
X129628221Y-37293781D01*
X129507815Y-37232430D01*
X129313126Y-37169171D01*
X129138587Y-37141527D01*
X129110944Y-37137149D01*
X128946088Y-37137149D01*
X128879049Y-37117464D01*
X128833294Y-37064660D01*
X128823350Y-36995502D01*
X128852375Y-36931946D01*
X128858407Y-36925468D01*
X131640330Y-34143545D01*
X134873977Y-30909898D01*
X134935298Y-30876415D01*
X135004990Y-30881399D01*
X135049337Y-30909900D01*
X135195721Y-31056284D01*
X135272539Y-31112097D01*
X135272540Y-31112097D01*
X135272541Y-31112098D01*
X135393198Y-31151302D01*
X135393199Y-31151302D01*
X135520063Y-31151302D01*
X135520064Y-31151302D01*
X135640721Y-31112098D01*
X135717540Y-31056286D01*
X137034905Y-29738919D01*
X137090719Y-29662100D01*
X137129923Y-29541443D01*
X137129923Y-29414577D01*
X137090719Y-29293920D01*
X137065019Y-29258547D01*
X137034912Y-29217107D01*
X137034909Y-29217104D01*
X137034907Y-29217101D01*
X137004237Y-29186431D01*
X136970754Y-29125113D01*
X136975738Y-29055421D01*
X137017608Y-28999487D01*
X137083072Y-28975069D01*
X137111317Y-28976279D01*
X137150330Y-28982459D01*
X137150331Y-28982459D01*
X137355033Y-28982459D01*
X137355034Y-28982459D01*
X137557216Y-28950436D01*
X137751901Y-28887179D01*
X137934292Y-28794246D01*
X138027272Y-28726691D01*
X138099895Y-28673930D01*
X138099897Y-28673927D01*
X138099901Y-28673925D01*
X138244648Y-28529178D01*
X138244650Y-28529174D01*
X138244653Y-28529172D01*
X138361928Y-28367754D01*
X138364969Y-28363569D01*
X138457902Y-28181178D01*
X138521159Y-27986493D01*
X138553182Y-27784311D01*
X138553182Y-27579607D01*
X138521159Y-27377425D01*
X138457902Y-27182740D01*
X138457900Y-27182737D01*
X138457900Y-27182735D01*
X138424185Y-27116566D01*
X138364969Y-27000349D01*
X138357238Y-26989708D01*
X138244653Y-26834745D01*
X138099895Y-26689987D01*
X137934295Y-26569674D01*
X137934294Y-26569673D01*
X137934292Y-26569672D01*
X137877335Y-26540650D01*
X137751905Y-26476740D01*
X137557216Y-26413481D01*
X137382677Y-26385837D01*
X137355034Y-26381459D01*
X137150330Y-26381459D01*
X137126011Y-26385310D01*
X136948147Y-26413481D01*
X136753458Y-26476740D01*
X136571068Y-26569674D01*
X136405468Y-26689987D01*
X136260710Y-26834745D01*
X136140397Y-27000345D01*
X136047463Y-27182735D01*
X135984204Y-27377424D01*
X135952182Y-27579607D01*
X135952182Y-27784310D01*
X135958361Y-27823323D01*
X135949406Y-27892617D01*
X135904410Y-27946069D01*
X135837659Y-27966708D01*
X135770345Y-27947983D01*
X135748207Y-27930402D01*
X135717540Y-27899735D01*
X135640722Y-27843922D01*
X135520065Y-27804718D01*
X135520064Y-27804718D01*
X135393198Y-27804718D01*
X135393196Y-27804718D01*
X135272541Y-27843922D01*
X135272539Y-27843923D01*
X135195725Y-27899730D01*
X135195723Y-27899732D01*
X133878359Y-29217097D01*
X133878356Y-29217100D01*
X133822543Y-29293918D01*
X133783339Y-29414575D01*
X133783339Y-29414577D01*
X133783339Y-29541443D01*
X133822543Y-29662100D01*
X133822544Y-29662101D01*
X133878351Y-29738915D01*
X134024739Y-29885303D01*
X134058224Y-29946626D01*
X134053240Y-30016318D01*
X134024739Y-30060665D01*
X126988878Y-37096527D01*
X126877073Y-37208331D01*
X126877071Y-37208334D01*
X126826953Y-37295143D01*
X126826951Y-37295145D01*
X126798017Y-37345258D01*
X126798016Y-37345259D01*
X126798015Y-37345264D01*
X126757091Y-37497992D01*
X126757091Y-37497994D01*
X126757091Y-37666095D01*
X126757092Y-37666108D01*
X126757092Y-41185779D01*
X126757091Y-41185797D01*
X126757091Y-41351503D01*
X126757090Y-41351503D01*
X126757091Y-41351506D01*
X126798015Y-41504234D01*
X126822094Y-41545940D01*
X126877069Y-41641161D01*
X126877073Y-41641166D01*
X126995941Y-41760034D01*
X126995947Y-41760039D01*
X128491376Y-43255468D01*
X128524861Y-43316791D01*
X128519877Y-43386483D01*
X128478005Y-43442416D01*
X128412541Y-43466833D01*
X128403695Y-43467149D01*
X126837074Y-43467149D01*
X126756111Y-43479972D01*
X126743288Y-43482003D01*
X126630250Y-43539599D01*
X126630249Y-43539600D01*
X126630244Y-43539603D01*
X126540546Y-43629301D01*
X126540543Y-43629306D01*
X126482944Y-43742347D01*
X126468092Y-43836124D01*
X126468092Y-43879498D01*
X126448407Y-43946537D01*
X126395603Y-43992292D01*
X126326445Y-44002236D01*
X126262889Y-43973211D01*
X126243774Y-43952383D01*
X126220563Y-43920435D01*
X126075805Y-43775677D01*
X125910205Y-43655364D01*
X125910204Y-43655363D01*
X125910202Y-43655362D01*
X125853245Y-43626340D01*
X125727815Y-43562430D01*
X125533126Y-43499171D01*
X125358587Y-43471527D01*
X125330944Y-43467149D01*
X125126240Y-43467149D01*
X125101921Y-43471000D01*
X124924057Y-43499171D01*
X124729368Y-43562430D01*
X124546978Y-43655364D01*
X124381378Y-43775677D01*
X124236620Y-43920435D01*
X124116307Y-44086035D01*
X124023373Y-44268425D01*
X123960114Y-44463114D01*
X123928092Y-44665297D01*
X123928092Y-44870000D01*
X123960114Y-45072183D01*
X124023373Y-45266872D01*
X124087283Y-45392302D01*
X124101136Y-45419489D01*
X124116307Y-45449262D01*
X124236620Y-45614862D01*
X124381378Y-45759620D01*
X124536341Y-45872205D01*
X124546982Y-45879936D01*
X124663199Y-45939152D01*
X124729368Y-45972867D01*
X124729370Y-45972867D01*
X124729373Y-45972869D01*
X124799637Y-45995699D01*
X124924057Y-46036126D01*
X125025149Y-46052137D01*
X125126240Y-46068149D01*
X125126241Y-46068149D01*
X125330943Y-46068149D01*
X125330944Y-46068149D01*
X125533126Y-46036126D01*
X125727811Y-45972869D01*
X125910202Y-45879936D01*
X126029928Y-45792951D01*
X126075805Y-45759620D01*
X126075807Y-45759617D01*
X126075811Y-45759615D01*
X126220558Y-45614868D01*
X126243772Y-45582915D01*
X126299100Y-45540248D01*
X126368713Y-45534267D01*
X126430510Y-45566871D01*
X126464869Y-45627709D01*
X126468092Y-45655795D01*
X126468092Y-45699165D01*
X126477666Y-45759615D01*
X126482946Y-45792953D01*
X126540542Y-45905991D01*
X126540544Y-45905993D01*
X126540546Y-45905996D01*
X126630244Y-45995694D01*
X126630246Y-45995695D01*
X126630250Y-45995699D01*
X126743288Y-46053295D01*
X126743290Y-46053296D01*
X126837067Y-46068148D01*
X126837073Y-46068149D01*
X128695092Y-46068148D01*
X128762131Y-46087833D01*
X128807886Y-46140636D01*
X128819092Y-46192148D01*
X128819092Y-46944751D01*
X128799407Y-47011790D01*
X128795042Y-47018140D01*
X128789452Y-47025752D01*
X128735272Y-47079933D01*
X128685702Y-47165791D01*
X128656215Y-47216864D01*
X128615291Y-47369592D01*
X128615291Y-47369594D01*
X128615291Y-47537695D01*
X128615292Y-47537708D01*
X128615292Y-51466552D01*
X128595607Y-51533591D01*
X128578973Y-51554233D01*
X125046281Y-55086924D01*
X125046279Y-55086927D01*
X124996161Y-55173736D01*
X124996159Y-55173738D01*
X124967225Y-55223851D01*
X124967224Y-55223852D01*
X124967223Y-55223857D01*
X124926299Y-55376585D01*
X124926299Y-55376587D01*
X124926299Y-55544688D01*
X124926300Y-55544701D01*
X124926300Y-60705340D01*
X124916861Y-60752792D01*
X124867621Y-60871667D01*
X124867618Y-60871677D01*
X124840700Y-61007004D01*
X124840700Y-61144997D01*
X124857073Y-61227309D01*
X124850846Y-61296900D01*
X124807983Y-61352078D01*
X124742093Y-61375322D01*
X124735456Y-61375500D01*
X122347098Y-61375500D01*
X122280059Y-61355815D01*
X122259417Y-61339181D01*
X120845411Y-59925175D01*
X120811926Y-59863852D01*
X120809092Y-59837494D01*
X120809092Y-58852148D01*
X120828777Y-58785109D01*
X120881581Y-58739354D01*
X120933092Y-58728148D01*
X121140109Y-58728148D01*
X121140110Y-58728148D01*
X121233896Y-58713295D01*
X121346934Y-58655699D01*
X121436642Y-58565991D01*
X121494238Y-58452953D01*
X121494238Y-58452951D01*
X121494239Y-58452950D01*
X121509091Y-58359173D01*
X121509092Y-58359168D01*
X121509091Y-56496131D01*
X121494238Y-56402345D01*
X121436642Y-56289307D01*
X121436638Y-56289303D01*
X121436637Y-56289301D01*
X121346939Y-56199603D01*
X121346936Y-56199601D01*
X121346934Y-56199599D01*
X121267590Y-56159171D01*
X121233893Y-56142001D01*
X121140116Y-56127149D01*
X119277074Y-56127149D01*
X119196111Y-56139972D01*
X119183288Y-56142003D01*
X119070250Y-56199599D01*
X119070249Y-56199600D01*
X119070244Y-56199603D01*
X118980546Y-56289301D01*
X118980543Y-56289306D01*
X118922944Y-56402347D01*
X118908092Y-56496124D01*
X118908092Y-56539498D01*
X118888407Y-56606537D01*
X118835603Y-56652292D01*
X118766445Y-56662236D01*
X118702889Y-56633211D01*
X118683774Y-56612383D01*
X118660563Y-56580435D01*
X118515805Y-56435677D01*
X118350205Y-56315364D01*
X118350204Y-56315363D01*
X118350202Y-56315362D01*
X118293245Y-56286340D01*
X118167815Y-56222430D01*
X117973126Y-56159171D01*
X117798587Y-56131527D01*
X117770944Y-56127149D01*
X117566240Y-56127149D01*
X117541921Y-56131000D01*
X117364057Y-56159171D01*
X117169368Y-56222430D01*
X116986978Y-56315364D01*
X116821378Y-56435677D01*
X116676620Y-56580435D01*
X116556307Y-56746035D01*
X116463373Y-56928425D01*
X116400114Y-57123114D01*
X116368092Y-57325297D01*
X114054702Y-57325297D01*
X114095560Y-57256861D01*
X116852239Y-52639487D01*
X117833858Y-50995297D01*
X120148092Y-50995297D01*
X120148092Y-51200000D01*
X120180114Y-51402183D01*
X120243373Y-51596872D01*
X120336307Y-51779262D01*
X120456620Y-51944862D01*
X120601378Y-52089620D01*
X120756341Y-52202205D01*
X120766982Y-52209936D01*
X120860098Y-52257381D01*
X120949368Y-52302867D01*
X120949370Y-52302867D01*
X120949373Y-52302869D01*
X121019637Y-52325699D01*
X121144057Y-52366126D01*
X121245149Y-52382137D01*
X121346240Y-52398149D01*
X121346241Y-52398149D01*
X121550943Y-52398149D01*
X121550944Y-52398149D01*
X121753126Y-52366126D01*
X121947811Y-52302869D01*
X122130202Y-52209936D01*
X122249929Y-52122950D01*
X122295805Y-52089620D01*
X122295807Y-52089617D01*
X122295811Y-52089615D01*
X122440558Y-51944868D01*
X122463772Y-51912915D01*
X122519100Y-51870248D01*
X122588713Y-51864267D01*
X122650510Y-51896871D01*
X122684869Y-51957709D01*
X122688092Y-51985795D01*
X122688092Y-52029165D01*
X122697666Y-52089615D01*
X122702946Y-52122953D01*
X122760542Y-52235991D01*
X122760544Y-52235993D01*
X122760546Y-52235996D01*
X122850244Y-52325694D01*
X122850246Y-52325695D01*
X122850250Y-52325699D01*
X122963286Y-52383294D01*
X122963290Y-52383296D01*
X123057067Y-52398148D01*
X123057073Y-52398149D01*
X124920110Y-52398148D01*
X125013896Y-52383295D01*
X125126934Y-52325699D01*
X125216642Y-52235991D01*
X125274238Y-52122953D01*
X125274238Y-52122951D01*
X125274239Y-52122950D01*
X125289091Y-52029173D01*
X125289092Y-52029168D01*
X125289091Y-50166131D01*
X125274238Y-50072345D01*
X125216642Y-49959307D01*
X125216638Y-49959303D01*
X125216637Y-49959301D01*
X125126939Y-49869603D01*
X125126936Y-49869601D01*
X125126934Y-49869599D01*
X125047590Y-49829171D01*
X125013893Y-49812001D01*
X124920116Y-49797149D01*
X123057074Y-49797149D01*
X122976111Y-49809972D01*
X122963288Y-49812003D01*
X122850250Y-49869599D01*
X122850249Y-49869600D01*
X122850244Y-49869603D01*
X122760546Y-49959301D01*
X122760543Y-49959306D01*
X122702944Y-50072347D01*
X122688092Y-50166124D01*
X122688092Y-50209498D01*
X122668407Y-50276537D01*
X122615603Y-50322292D01*
X122546445Y-50332236D01*
X122482889Y-50303211D01*
X122463774Y-50282383D01*
X122440563Y-50250435D01*
X122295805Y-50105677D01*
X122130205Y-49985364D01*
X122130204Y-49985363D01*
X122130202Y-49985362D01*
X122054459Y-49946769D01*
X121947815Y-49892430D01*
X121753126Y-49829171D01*
X121578587Y-49801527D01*
X121550944Y-49797149D01*
X121346240Y-49797149D01*
X121321921Y-49801000D01*
X121144057Y-49829171D01*
X120949368Y-49892430D01*
X120766978Y-49985364D01*
X120601378Y-50105677D01*
X120456620Y-50250435D01*
X120336307Y-50416035D01*
X120243373Y-50598425D01*
X120180114Y-50793114D01*
X120148092Y-50995297D01*
X117833858Y-50995297D01*
X132533397Y-26373909D01*
X132534294Y-26373031D01*
X132566632Y-26318251D01*
X132566669Y-26318216D01*
X132569337Y-26313928D01*
X132788134Y-25979768D01*
X132794863Y-25970462D01*
X133041878Y-25660310D01*
X133049435Y-25651677D01*
X133324140Y-25365763D01*
X133332470Y-25357862D01*
X133632501Y-25098647D01*
X133641527Y-25091554D01*
X133964287Y-24861282D01*
X133973945Y-24855045D01*
X134316662Y-24655689D01*
X134326856Y-24650377D01*
X134686588Y-24483649D01*
X134697208Y-24479313D01*
X135070864Y-24346651D01*
X135081847Y-24343317D01*
X135466194Y-24245868D01*
X135477429Y-24243570D01*
X135869142Y-24182176D01*
X135880541Y-24180928D01*
X136276266Y-24156115D01*
X136287764Y-24155930D01*
X136684065Y-24167912D01*
G37*
%TD.AperFunction*%
%TA.AperFunction,NonConductor*%
G36*
X123903555Y-70024472D02*
G01*
X123918888Y-70023847D01*
X123936396Y-70034115D01*
X123955871Y-70039834D01*
X123965919Y-70051430D01*
X123979157Y-70059194D01*
X123988335Y-70077299D01*
X124001626Y-70092638D01*
X124003809Y-70107825D01*
X124010749Y-70121514D01*
X124008681Y-70141706D01*
X124011570Y-70161796D01*
X124005195Y-70175755D01*
X124003632Y-70191020D01*
X123985777Y-70221464D01*
X123981432Y-70226911D01*
X123936678Y-70271666D01*
X123889861Y-70341731D01*
X123886605Y-70345815D01*
X123862110Y-70363006D01*
X123839150Y-70382196D01*
X123833815Y-70382865D01*
X123829416Y-70385954D01*
X123789660Y-70392500D01*
X116304471Y-70392500D01*
X116237432Y-70372815D01*
X116191677Y-70320011D01*
X116181733Y-70250853D01*
X116210758Y-70187297D01*
X116257019Y-70153939D01*
X116350596Y-70115178D01*
X116350596Y-70115177D01*
X116350603Y-70115175D01*
X116384332Y-70092638D01*
X116461544Y-70041047D01*
X116528222Y-70020169D01*
X116530435Y-70020149D01*
X123888832Y-70020149D01*
X123903555Y-70024472D01*
G37*
%TD.AperFunction*%
%TA.AperFunction,NonConductor*%
G36*
X116897296Y-83194287D02*
G01*
X116943051Y-83247091D01*
X116952995Y-83316249D01*
X116923970Y-83379805D01*
X116899148Y-83401704D01*
X116812865Y-83459356D01*
X116812861Y-83459359D01*
X116715291Y-83556929D01*
X116711879Y-83561087D01*
X116654131Y-83600418D01*
X116584286Y-83602284D01*
X116524520Y-83566093D01*
X116512929Y-83551308D01*
X116488403Y-83514603D01*
X116390837Y-83417037D01*
X116390833Y-83417034D01*
X116367890Y-83401704D01*
X116323085Y-83348092D01*
X116314378Y-83278767D01*
X116344532Y-83215740D01*
X116403975Y-83179020D01*
X116436781Y-83174602D01*
X116830257Y-83174602D01*
X116897296Y-83194287D01*
G37*
%TD.AperFunction*%
%TA.AperFunction,NonConductor*%
G36*
X120885498Y-83194287D02*
G01*
X120931253Y-83247091D01*
X120933020Y-83251150D01*
X120945062Y-83280225D01*
X120945069Y-83280237D01*
X121021726Y-83394961D01*
X121021729Y-83394965D01*
X121119295Y-83492531D01*
X121119299Y-83492534D01*
X121234023Y-83569191D01*
X121234036Y-83569198D01*
X121295993Y-83594861D01*
X121361513Y-83622000D01*
X121361520Y-83622001D01*
X121367346Y-83623769D01*
X121366916Y-83625185D01*
X121422315Y-83654157D01*
X121423903Y-83655717D01*
X124346740Y-86578555D01*
X124380225Y-86639878D01*
X124375241Y-86709570D01*
X124346742Y-86753915D01*
X124300763Y-86799895D01*
X124200353Y-86900305D01*
X124144543Y-86977118D01*
X124105337Y-87097780D01*
X124104678Y-87101946D01*
X124102472Y-87106597D01*
X124102323Y-87107059D01*
X124102263Y-87107039D01*
X124074749Y-87165081D01*
X124015437Y-87202012D01*
X123945575Y-87201014D01*
X123894524Y-87170229D01*
X120110578Y-83386283D01*
X120077093Y-83324960D01*
X120082077Y-83255268D01*
X120123949Y-83199335D01*
X120189413Y-83174918D01*
X120198259Y-83174602D01*
X120818459Y-83174602D01*
X120885498Y-83194287D01*
G37*
%TD.AperFunction*%
%TA.AperFunction,NonConductor*%
G36*
X116475179Y-89596091D02*
G01*
X116488418Y-89597477D01*
X116505822Y-89611420D01*
X116525765Y-89621397D01*
X116532559Y-89632841D01*
X116542946Y-89641163D01*
X116550048Y-89662300D01*
X116561433Y-89681477D01*
X116564387Y-89704974D01*
X116565200Y-89707394D01*
X116564860Y-89708740D01*
X116565292Y-89712173D01*
X116565292Y-95796878D01*
X116545607Y-95863917D01*
X116492803Y-95909672D01*
X116423645Y-95919616D01*
X116417101Y-95918495D01*
X116309788Y-95897149D01*
X116309785Y-95897149D01*
X116171799Y-95897149D01*
X116171796Y-95897149D01*
X116043097Y-95922749D01*
X115973506Y-95916522D01*
X115918328Y-95873659D01*
X115895084Y-95807769D01*
X115894906Y-95801132D01*
X115894906Y-95141769D01*
X115913152Y-95079627D01*
X115912312Y-95079178D01*
X115914470Y-95075140D01*
X115914591Y-95074730D01*
X115915127Y-95073910D01*
X115915177Y-95073816D01*
X115915181Y-95073811D01*
X115967986Y-94946328D01*
X115994906Y-94810993D01*
X115994906Y-94673007D01*
X115994906Y-94673004D01*
X115967987Y-94537677D01*
X115967986Y-94537676D01*
X115967986Y-94537672D01*
X115929453Y-94444644D01*
X115915184Y-94410195D01*
X115915177Y-94410182D01*
X115838520Y-94295458D01*
X115838517Y-94295454D01*
X115740951Y-94197888D01*
X115740947Y-94197885D01*
X115626223Y-94121228D01*
X115626210Y-94121221D01*
X115498738Y-94068421D01*
X115498728Y-94068418D01*
X115363401Y-94041500D01*
X115363399Y-94041500D01*
X115225413Y-94041500D01*
X115225411Y-94041500D01*
X115090083Y-94068418D01*
X115084251Y-94070188D01*
X115083494Y-94067695D01*
X115025260Y-94073929D01*
X114962795Y-94042625D01*
X114927170Y-93982520D01*
X114923332Y-93951909D01*
X114923332Y-90953871D01*
X114943017Y-90886832D01*
X114959651Y-90866190D01*
X116167161Y-89658680D01*
X116228484Y-89625195D01*
X116232478Y-89624394D01*
X116243565Y-89622361D01*
X116263746Y-89622361D01*
X116399081Y-89595441D01*
X116405993Y-89592577D01*
X116418928Y-89590206D01*
X116441109Y-89592526D01*
X116463278Y-89590138D01*
X116475179Y-89596091D01*
G37*
%TD.AperFunction*%
%TA.AperFunction,NonConductor*%
G36*
X119655076Y-84629502D02*
G01*
X119659895Y-84634070D01*
X123941812Y-88915987D01*
X123975297Y-88977310D01*
X123978131Y-89003668D01*
X123978131Y-93091163D01*
X123958446Y-93158202D01*
X123941812Y-93178844D01*
X123000356Y-94120301D01*
X123000354Y-94120303D01*
X122944543Y-94197118D01*
X122905339Y-94317775D01*
X122905339Y-94317777D01*
X122905339Y-94444643D01*
X122944543Y-94565300D01*
X122944544Y-94565301D01*
X123000351Y-94642115D01*
X123000353Y-94642117D01*
X123941812Y-95583574D01*
X123975297Y-95644897D01*
X123978131Y-95671255D01*
X123978131Y-97759712D01*
X123958446Y-97826751D01*
X123941812Y-97847393D01*
X119790973Y-101998232D01*
X119729650Y-102031717D01*
X119659958Y-102026733D01*
X119604025Y-101984861D01*
X119579608Y-101919397D01*
X119579292Y-101910551D01*
X119579292Y-89478950D01*
X119598977Y-89411911D01*
X119615607Y-89391273D01*
X120222761Y-88784118D01*
X120279605Y-88753079D01*
X120279329Y-88752169D01*
X120283700Y-88750843D01*
X120284082Y-88750635D01*
X120285057Y-88750431D01*
X120285148Y-88750403D01*
X120285151Y-88750403D01*
X120412634Y-88697598D01*
X120527365Y-88620937D01*
X120624937Y-88523365D01*
X120701598Y-88408634D01*
X120754403Y-88281151D01*
X120781323Y-88145816D01*
X120781323Y-88007830D01*
X120781323Y-88007827D01*
X120754404Y-87872500D01*
X120754403Y-87872499D01*
X120754403Y-87872495D01*
X120728174Y-87809172D01*
X120701601Y-87745018D01*
X120701594Y-87745005D01*
X120624937Y-87630281D01*
X120624934Y-87630277D01*
X120527368Y-87532711D01*
X120527364Y-87532708D01*
X120412640Y-87456051D01*
X120412627Y-87456044D01*
X120285155Y-87403244D01*
X120285145Y-87403241D01*
X120149818Y-87376323D01*
X120149816Y-87376323D01*
X120011830Y-87376323D01*
X120011828Y-87376323D01*
X119876500Y-87403241D01*
X119876490Y-87403244D01*
X119749018Y-87456044D01*
X119749005Y-87456051D01*
X119634281Y-87532708D01*
X119634277Y-87532711D01*
X119536711Y-87630277D01*
X119536708Y-87630281D01*
X119460051Y-87745005D01*
X119460044Y-87745018D01*
X119407243Y-87872492D01*
X119405473Y-87878329D01*
X119404059Y-87877900D01*
X119375071Y-87933311D01*
X119373525Y-87934884D01*
X118701355Y-88607054D01*
X118640032Y-88640539D01*
X118570340Y-88635555D01*
X118530883Y-88610196D01*
X118530476Y-88610693D01*
X118526217Y-88607198D01*
X118525993Y-88607054D01*
X118525769Y-88606830D01*
X118525765Y-88606827D01*
X118411041Y-88530170D01*
X118411028Y-88530163D01*
X118283556Y-88477363D01*
X118283546Y-88477360D01*
X118162232Y-88453229D01*
X118100321Y-88420844D01*
X118065747Y-88360128D01*
X118069487Y-88290359D01*
X118098741Y-88243933D01*
X119534304Y-86808370D01*
X119591148Y-86777331D01*
X119590872Y-86776421D01*
X119595243Y-86775095D01*
X119595625Y-86774887D01*
X119596600Y-86774683D01*
X119596691Y-86774655D01*
X119596694Y-86774655D01*
X119724177Y-86721850D01*
X119838908Y-86645189D01*
X119936480Y-86547617D01*
X120013141Y-86432886D01*
X120065946Y-86305403D01*
X120074755Y-86261116D01*
X120092866Y-86170070D01*
X120092866Y-86032079D01*
X120065947Y-85896752D01*
X120065946Y-85896751D01*
X120065946Y-85896747D01*
X120052540Y-85864382D01*
X120013144Y-85769270D01*
X120013137Y-85769257D01*
X119936480Y-85654533D01*
X119936477Y-85654529D01*
X119838911Y-85556963D01*
X119838907Y-85556960D01*
X119724183Y-85480303D01*
X119724170Y-85480296D01*
X119596698Y-85427496D01*
X119596688Y-85427493D01*
X119461361Y-85400575D01*
X119461359Y-85400575D01*
X119323373Y-85400575D01*
X119323371Y-85400575D01*
X119188043Y-85427493D01*
X119188033Y-85427496D01*
X119060561Y-85480296D01*
X119060548Y-85480303D01*
X118945824Y-85556960D01*
X118945820Y-85556963D01*
X118848254Y-85654529D01*
X118848251Y-85654533D01*
X118771594Y-85769257D01*
X118771587Y-85769270D01*
X118718786Y-85896744D01*
X118717016Y-85902581D01*
X118715602Y-85902152D01*
X118686614Y-85957563D01*
X118685068Y-85959136D01*
X118044039Y-86600165D01*
X117982716Y-86633650D01*
X117913024Y-86628666D01*
X117857091Y-86586794D01*
X117834741Y-86536677D01*
X117825061Y-86488011D01*
X117815401Y-86464689D01*
X117772259Y-86360534D01*
X117772252Y-86360521D01*
X117695595Y-86245797D01*
X117695592Y-86245793D01*
X117598026Y-86148227D01*
X117598022Y-86148224D01*
X117528238Y-86101595D01*
X117483433Y-86047982D01*
X117474726Y-85978657D01*
X117504881Y-85915630D01*
X117509429Y-85910831D01*
X118471586Y-84948674D01*
X118532907Y-84915191D01*
X118602599Y-84920175D01*
X118606717Y-84921796D01*
X118671613Y-84948676D01*
X118674042Y-84949682D01*
X118674046Y-84949682D01*
X118674047Y-84949683D01*
X118809374Y-84976602D01*
X118809377Y-84976602D01*
X118947365Y-84976602D01*
X119054027Y-84955385D01*
X119082698Y-84949682D01*
X119210181Y-84896877D01*
X119324912Y-84820216D01*
X119422484Y-84722644D01*
X119469112Y-84652859D01*
X119522723Y-84608055D01*
X119592048Y-84599348D01*
X119655076Y-84629502D01*
G37*
%TD.AperFunction*%
%TA.AperFunction,NonConductor*%
G36*
X119564049Y-102813809D02*
G01*
X119619982Y-102855681D01*
X119644399Y-102921145D01*
X119644715Y-102929991D01*
X119644715Y-103892630D01*
X119626468Y-103954769D01*
X119627310Y-103955219D01*
X119625150Y-103959259D01*
X119625030Y-103959669D01*
X119624493Y-103960487D01*
X119624438Y-103960590D01*
X119571636Y-104088067D01*
X119571633Y-104088077D01*
X119544715Y-104223404D01*
X119544715Y-104223407D01*
X119544715Y-104361393D01*
X119544715Y-104361395D01*
X119544714Y-104361395D01*
X119571633Y-104496722D01*
X119571636Y-104496732D01*
X119624436Y-104624204D01*
X119624443Y-104624217D01*
X119701100Y-104738941D01*
X119701103Y-104738945D01*
X119776626Y-104814468D01*
X119810111Y-104875791D01*
X119805127Y-104945483D01*
X119763255Y-105001416D01*
X119697791Y-105025833D01*
X119688945Y-105026149D01*
X117718413Y-105026149D01*
X117718409Y-105026148D01*
X117560294Y-105026148D01*
X117558370Y-105026663D01*
X117548388Y-105026694D01*
X117522146Y-105019076D01*
X117495147Y-105014863D01*
X117489080Y-105009477D01*
X117481289Y-105007216D01*
X117463329Y-104986617D01*
X117442896Y-104968478D01*
X117440704Y-104960667D01*
X117435372Y-104954552D01*
X117431400Y-104927515D01*
X117424017Y-104901207D01*
X117426395Y-104893450D01*
X117425217Y-104885425D01*
X117436490Y-104860536D01*
X117444504Y-104834409D01*
X117453095Y-104823877D01*
X117454046Y-104821780D01*
X117455657Y-104820737D01*
X117460322Y-104815019D01*
X119337298Y-102938044D01*
X119337303Y-102938040D01*
X119347506Y-102927836D01*
X119347508Y-102927836D01*
X119433034Y-102842310D01*
X119494357Y-102808825D01*
X119564049Y-102813809D01*
G37*
%TD.AperFunction*%
%TA.AperFunction,NonConductor*%
G36*
X113641666Y-91153903D02*
G01*
X113697599Y-91195775D01*
X113722016Y-91261239D01*
X113722332Y-91270085D01*
X113722332Y-97878228D01*
X113702647Y-97945267D01*
X113686013Y-97965909D01*
X108008106Y-103643815D01*
X107991490Y-103656567D01*
X107991754Y-103656911D01*
X107985301Y-103661862D01*
X107909727Y-103737437D01*
X107873501Y-103773663D01*
X107873499Y-103773665D01*
X107829109Y-103818055D01*
X107791199Y-103855965D01*
X107791196Y-103855966D01*
X107645107Y-104002056D01*
X106806493Y-104840672D01*
X106745170Y-104874157D01*
X106718812Y-104876991D01*
X103313789Y-104876991D01*
X103246750Y-104857306D01*
X103226108Y-104840672D01*
X101906301Y-103520866D01*
X101872816Y-103459543D01*
X101872380Y-103457451D01*
X101865149Y-103421098D01*
X101812344Y-103293615D01*
X101735683Y-103178884D01*
X101731129Y-103174330D01*
X101731128Y-103174328D01*
X101638114Y-103081314D01*
X101638110Y-103081311D01*
X101523386Y-103004654D01*
X101523373Y-103004647D01*
X101395901Y-102951847D01*
X101395891Y-102951844D01*
X101260564Y-102924926D01*
X101260562Y-102924926D01*
X101122576Y-102924926D01*
X101122574Y-102924926D01*
X100987246Y-102951844D01*
X100987236Y-102951847D01*
X100859764Y-103004647D01*
X100859751Y-103004654D01*
X100745027Y-103081311D01*
X100745023Y-103081314D01*
X100647457Y-103178880D01*
X100647454Y-103178884D01*
X100570797Y-103293608D01*
X100570790Y-103293621D01*
X100517990Y-103421093D01*
X100517987Y-103421103D01*
X100491069Y-103556430D01*
X100491069Y-103556433D01*
X100491069Y-103694419D01*
X100491069Y-103694421D01*
X100491068Y-103694421D01*
X100517987Y-103829748D01*
X100517990Y-103829758D01*
X100570790Y-103957230D01*
X100570797Y-103957243D01*
X100647454Y-104071967D01*
X100647457Y-104071971D01*
X100745023Y-104169537D01*
X100745027Y-104169540D01*
X100859754Y-104246199D01*
X100859756Y-104246199D01*
X100859758Y-104246201D01*
X100962284Y-104288668D01*
X101002513Y-104315548D01*
X102492070Y-105805106D01*
X102525555Y-105866429D01*
X102520571Y-105936121D01*
X102507491Y-105961678D01*
X102450698Y-106046673D01*
X102450691Y-106046686D01*
X102397891Y-106174158D01*
X102397888Y-106174168D01*
X102370970Y-106309495D01*
X102370970Y-106309498D01*
X102370970Y-106447484D01*
X102370970Y-106447486D01*
X102370969Y-106447486D01*
X102397888Y-106582813D01*
X102397891Y-106582823D01*
X102450691Y-106710295D01*
X102450698Y-106710308D01*
X102527355Y-106825032D01*
X102527358Y-106825036D01*
X102624924Y-106922602D01*
X102624928Y-106922605D01*
X102739652Y-106999262D01*
X102739665Y-106999269D01*
X102843666Y-107042347D01*
X102867142Y-107052071D01*
X102867146Y-107052071D01*
X102867147Y-107052072D01*
X103002474Y-107078991D01*
X103002477Y-107078991D01*
X103140461Y-107078991D01*
X103140463Y-107078991D01*
X103152567Y-107076583D01*
X103222156Y-107082809D01*
X103277335Y-107125670D01*
X103300582Y-107191559D01*
X103298378Y-107222388D01*
X103295970Y-107234495D01*
X103295970Y-107234498D01*
X103295970Y-107372484D01*
X103295970Y-107372486D01*
X103295969Y-107372486D01*
X103322888Y-107507813D01*
X103322891Y-107507823D01*
X103375691Y-107635295D01*
X103375698Y-107635308D01*
X103452355Y-107750032D01*
X103452358Y-107750036D01*
X103549924Y-107847602D01*
X103549928Y-107847605D01*
X103664652Y-107924262D01*
X103664665Y-107924269D01*
X103763717Y-107965297D01*
X103792142Y-107977071D01*
X103792146Y-107977071D01*
X103792147Y-107977072D01*
X103927474Y-108003991D01*
X103927477Y-108003991D01*
X104065465Y-108003991D01*
X104156511Y-107985880D01*
X104200798Y-107977071D01*
X104328281Y-107924266D01*
X104328281Y-107924265D01*
X104333651Y-107921396D01*
X104334346Y-107922696D01*
X104394032Y-107904011D01*
X104396240Y-107903991D01*
X107362854Y-107903991D01*
X107429893Y-107923676D01*
X107475648Y-107976480D01*
X107485592Y-108045638D01*
X107456567Y-108109194D01*
X107450537Y-108115669D01*
X106929088Y-108637118D01*
X106438286Y-109127920D01*
X106326481Y-109239724D01*
X106326479Y-109239727D01*
X106276361Y-109326536D01*
X106276359Y-109326538D01*
X106247425Y-109376651D01*
X106247424Y-109376652D01*
X106239005Y-109408072D01*
X106206499Y-109529385D01*
X106206499Y-109529387D01*
X106206499Y-109697488D01*
X106206500Y-109697501D01*
X106206500Y-110725230D01*
X106188253Y-110787369D01*
X106189095Y-110787819D01*
X106186935Y-110791859D01*
X106186815Y-110792269D01*
X106186278Y-110793087D01*
X106186223Y-110793190D01*
X106133421Y-110920667D01*
X106133418Y-110920677D01*
X106106500Y-111056004D01*
X106106500Y-111056007D01*
X106106500Y-111193993D01*
X106106500Y-111193995D01*
X106106499Y-111193995D01*
X106133418Y-111329322D01*
X106133421Y-111329332D01*
X106186221Y-111456804D01*
X106186228Y-111456817D01*
X106262885Y-111571541D01*
X106262888Y-111571545D01*
X106360454Y-111669111D01*
X106360458Y-111669114D01*
X106475182Y-111745771D01*
X106475195Y-111745778D01*
X106511897Y-111760980D01*
X106602672Y-111798580D01*
X106602679Y-111798581D01*
X106608505Y-111800349D01*
X106608075Y-111801765D01*
X106663474Y-111830737D01*
X106665062Y-111832297D01*
X107338139Y-112505374D01*
X107338149Y-112505385D01*
X107342479Y-112509715D01*
X107342480Y-112509716D01*
X107454284Y-112621520D01*
X107454286Y-112621521D01*
X107454287Y-112621522D01*
X107524761Y-112662209D01*
X107524763Y-112662211D01*
X107524764Y-112662211D01*
X107591215Y-112700577D01*
X107743943Y-112741501D01*
X107743946Y-112741501D01*
X107909653Y-112741501D01*
X107909669Y-112741500D01*
X108703034Y-112741500D01*
X108770073Y-112761185D01*
X108815828Y-112813989D01*
X108825772Y-112883147D01*
X108803352Y-112938385D01*
X108786770Y-112961207D01*
X108708128Y-113115552D01*
X108654597Y-113280302D01*
X108627500Y-113451389D01*
X108627500Y-113624610D01*
X108652919Y-113785104D01*
X108654598Y-113795701D01*
X108708127Y-113960445D01*
X108728754Y-114000929D01*
X108770676Y-114083205D01*
X108783572Y-114151875D01*
X108757296Y-114216615D01*
X108700189Y-114256872D01*
X108660191Y-114263500D01*
X100411241Y-114263500D01*
X100344202Y-114243815D01*
X100323560Y-114227181D01*
X98096213Y-111999835D01*
X98096211Y-111999832D01*
X97977340Y-111880961D01*
X97977332Y-111880955D01*
X97881280Y-111825500D01*
X97881278Y-111825499D01*
X97840413Y-111801905D01*
X97840412Y-111801904D01*
X97827886Y-111798547D01*
X97687680Y-111760979D01*
X97529566Y-111760979D01*
X97521970Y-111760979D01*
X97521954Y-111760980D01*
X92431890Y-111760980D01*
X92364851Y-111741295D01*
X92344209Y-111724661D01*
X91911937Y-111292389D01*
X91457584Y-110838037D01*
X91424100Y-110776715D01*
X91429084Y-110707024D01*
X91470956Y-110651090D01*
X91499646Y-110635054D01*
X91510074Y-110630927D01*
X91536025Y-110625766D01*
X91663508Y-110572961D01*
X91673560Y-110566244D01*
X91685847Y-110561383D01*
X91708015Y-110559356D01*
X91729259Y-110552706D01*
X91731467Y-110552686D01*
X92807371Y-110552686D01*
X92807387Y-110552687D01*
X92814983Y-110552687D01*
X92973094Y-110552687D01*
X92973097Y-110552687D01*
X93125825Y-110511763D01*
X93206526Y-110465170D01*
X93262756Y-110432706D01*
X93374560Y-110320902D01*
X93374560Y-110320900D01*
X93384764Y-110310697D01*
X93384767Y-110310692D01*
X94957542Y-108737920D01*
X95036599Y-108600988D01*
X95077523Y-108448261D01*
X95077523Y-108290146D01*
X95077523Y-108282551D01*
X95077522Y-108282533D01*
X95077522Y-106852887D01*
X95097207Y-106785848D01*
X95113841Y-106765206D01*
X96838111Y-105040936D01*
X96899434Y-105007451D01*
X96969126Y-105012435D01*
X97025059Y-105054307D01*
X97049476Y-105119771D01*
X97049792Y-105128617D01*
X97049792Y-105722879D01*
X97031545Y-105785018D01*
X97032387Y-105785468D01*
X97030227Y-105789508D01*
X97030107Y-105789918D01*
X97029570Y-105790736D01*
X97029515Y-105790839D01*
X96976713Y-105918316D01*
X96976710Y-105918326D01*
X96949792Y-106053653D01*
X96949792Y-106053656D01*
X96949792Y-106191642D01*
X96949792Y-106191644D01*
X96949791Y-106191644D01*
X96976710Y-106326971D01*
X96976713Y-106326981D01*
X97029513Y-106454453D01*
X97029520Y-106454466D01*
X97106177Y-106569190D01*
X97106180Y-106569194D01*
X97203746Y-106666760D01*
X97203750Y-106666763D01*
X97318474Y-106743420D01*
X97318487Y-106743427D01*
X97411614Y-106782001D01*
X97445964Y-106796229D01*
X97445968Y-106796229D01*
X97445969Y-106796230D01*
X97581296Y-106823149D01*
X97581299Y-106823149D01*
X97719287Y-106823149D01*
X97827995Y-106801525D01*
X97854620Y-106796229D01*
X97982103Y-106743424D01*
X98096834Y-106666763D01*
X98194406Y-106569191D01*
X98271067Y-106454460D01*
X98323872Y-106326977D01*
X98339814Y-106246834D01*
X98350792Y-106191644D01*
X98350792Y-106053653D01*
X98323873Y-105918326D01*
X98323872Y-105918325D01*
X98323872Y-105918321D01*
X98302378Y-105866429D01*
X98271068Y-105790839D01*
X98268197Y-105785468D01*
X98269497Y-105784772D01*
X98250812Y-105725087D01*
X98250792Y-105722879D01*
X98250792Y-105095246D01*
X98270477Y-105028207D01*
X98287111Y-105007565D01*
X102160209Y-101134468D01*
X102221532Y-101100983D01*
X102247890Y-101098149D01*
X105890118Y-101098149D01*
X105957157Y-101117834D01*
X106002912Y-101170638D01*
X106014118Y-101222149D01*
X106014118Y-101275177D01*
X106014118Y-101275179D01*
X106014117Y-101275179D01*
X106041036Y-101410506D01*
X106041039Y-101410516D01*
X106093839Y-101537988D01*
X106093846Y-101538001D01*
X106170503Y-101652725D01*
X106170506Y-101652729D01*
X106268072Y-101750295D01*
X106268076Y-101750298D01*
X106382800Y-101826955D01*
X106382813Y-101826962D01*
X106507330Y-101878538D01*
X106516102Y-101885607D01*
X106526915Y-101888782D01*
X106542822Y-101907139D01*
X106561734Y-101922379D01*
X106565292Y-101933069D01*
X106572671Y-101941585D01*
X106576128Y-101965625D01*
X106583799Y-101988673D01*
X106581012Y-101999591D01*
X106582616Y-102010743D01*
X106572527Y-102032836D01*
X106566520Y-102056372D01*
X106558273Y-102064050D01*
X106553593Y-102074299D01*
X106533161Y-102087430D01*
X106515383Y-102103983D01*
X106502768Y-102106964D01*
X106494816Y-102112075D01*
X106459885Y-102117097D01*
X106459881Y-102117099D01*
X106427686Y-102117099D01*
X106427682Y-102117099D01*
X106420077Y-102117100D01*
X106420076Y-102117099D01*
X106420074Y-102117100D01*
X102963450Y-102117100D01*
X102901310Y-102098853D01*
X102900861Y-102099695D01*
X102896820Y-102097535D01*
X102896411Y-102097415D01*
X102895592Y-102096878D01*
X102895489Y-102096823D01*
X102768012Y-102044021D01*
X102768002Y-102044018D01*
X102632675Y-102017100D01*
X102632673Y-102017100D01*
X102494687Y-102017100D01*
X102494685Y-102017100D01*
X102359357Y-102044018D01*
X102359347Y-102044021D01*
X102231875Y-102096821D01*
X102231862Y-102096828D01*
X102117138Y-102173485D01*
X102117136Y-102173487D01*
X102019568Y-102271054D01*
X102019565Y-102271058D01*
X101942908Y-102385782D01*
X101942901Y-102385795D01*
X101890101Y-102513267D01*
X101890098Y-102513277D01*
X101863180Y-102648604D01*
X101863180Y-102648607D01*
X101863180Y-102786593D01*
X101863180Y-102786595D01*
X101863179Y-102786595D01*
X101890098Y-102921922D01*
X101890101Y-102921932D01*
X101937973Y-103037506D01*
X101937975Y-103037509D01*
X101942905Y-103049411D01*
X102019566Y-103164142D01*
X102024117Y-103168693D01*
X102024119Y-103168696D01*
X102117134Y-103261711D01*
X102117138Y-103261714D01*
X102231862Y-103338371D01*
X102231875Y-103338378D01*
X102359347Y-103391178D01*
X102359352Y-103391180D01*
X102359356Y-103391180D01*
X102359357Y-103391181D01*
X102494684Y-103418100D01*
X102494687Y-103418100D01*
X102632675Y-103418100D01*
X102723721Y-103399989D01*
X102768008Y-103391180D01*
X102895491Y-103338375D01*
X102895491Y-103338374D01*
X102900861Y-103335505D01*
X102901556Y-103336805D01*
X102961242Y-103318120D01*
X102963450Y-103318100D01*
X106206646Y-103318100D01*
X106236086Y-103326744D01*
X106266073Y-103333268D01*
X106271088Y-103337022D01*
X106273685Y-103337785D01*
X106294327Y-103354419D01*
X106343272Y-103403364D01*
X106374306Y-103460199D01*
X106375221Y-103459922D01*
X106376553Y-103464314D01*
X106376757Y-103464687D01*
X106376955Y-103465637D01*
X106376991Y-103465758D01*
X106429792Y-103593232D01*
X106429799Y-103593245D01*
X106506456Y-103707969D01*
X106506459Y-103707973D01*
X106604025Y-103805539D01*
X106604029Y-103805542D01*
X106718753Y-103882199D01*
X106718766Y-103882206D01*
X106834744Y-103930245D01*
X106846243Y-103935008D01*
X106846247Y-103935008D01*
X106846248Y-103935009D01*
X106981575Y-103961928D01*
X106981578Y-103961928D01*
X107119566Y-103961928D01*
X107210612Y-103943817D01*
X107254899Y-103935008D01*
X107382382Y-103882203D01*
X107497113Y-103805542D01*
X107594685Y-103707970D01*
X107671346Y-103593239D01*
X107724151Y-103465756D01*
X107738986Y-103391178D01*
X107751071Y-103330423D01*
X107751071Y-103192432D01*
X107724152Y-103057105D01*
X107724151Y-103057104D01*
X107724151Y-103057100D01*
X107702426Y-103004651D01*
X107671349Y-102929623D01*
X107671342Y-102929610D01*
X107594685Y-102814886D01*
X107594682Y-102814882D01*
X107497116Y-102717316D01*
X107497112Y-102717313D01*
X107382388Y-102640656D01*
X107382375Y-102640649D01*
X107254901Y-102587848D01*
X107249065Y-102586078D01*
X107249492Y-102584667D01*
X107194073Y-102555668D01*
X107192507Y-102554129D01*
X106994333Y-102355955D01*
X106994331Y-102355952D01*
X106875460Y-102237081D01*
X106875459Y-102237080D01*
X106765310Y-102173486D01*
X106738528Y-102158023D01*
X106702300Y-102148315D01*
X106694662Y-102145130D01*
X106673687Y-102128143D01*
X106650638Y-102114094D01*
X106646940Y-102106482D01*
X106640365Y-102101157D01*
X106631903Y-102075527D01*
X106620109Y-102051247D01*
X106621113Y-102042844D01*
X106618461Y-102034810D01*
X106625199Y-102008673D01*
X106628404Y-101981871D01*
X106633791Y-101975345D01*
X106635904Y-101967152D01*
X106655702Y-101948807D01*
X106672889Y-101927993D01*
X106680949Y-101925416D01*
X106687156Y-101919666D01*
X106713728Y-101914938D01*
X106739441Y-101906719D01*
X106742392Y-101906684D01*
X106783613Y-101906684D01*
X106889571Y-101885607D01*
X106918946Y-101879764D01*
X107046429Y-101826959D01*
X107161160Y-101750298D01*
X107258732Y-101652726D01*
X107335393Y-101537995D01*
X107388198Y-101410512D01*
X107394855Y-101377041D01*
X107403619Y-101360284D01*
X107407640Y-101341805D01*
X107426377Y-101316774D01*
X107427237Y-101315132D01*
X107428733Y-101313609D01*
X107459141Y-101283201D01*
X107520462Y-101249718D01*
X107590154Y-101254702D01*
X107646087Y-101296574D01*
X107649922Y-101301992D01*
X107710715Y-101392974D01*
X107808281Y-101490540D01*
X107808285Y-101490543D01*
X107923009Y-101567200D01*
X107923022Y-101567207D01*
X108050494Y-101620007D01*
X108050499Y-101620009D01*
X108050503Y-101620009D01*
X108050504Y-101620010D01*
X108185831Y-101646929D01*
X108185834Y-101646929D01*
X108323822Y-101646929D01*
X108414868Y-101628818D01*
X108459155Y-101620009D01*
X108586638Y-101567204D01*
X108701369Y-101490543D01*
X108798941Y-101392971D01*
X108875602Y-101278240D01*
X108928407Y-101150757D01*
X108928407Y-101150754D01*
X108930173Y-101144935D01*
X108931587Y-101145363D01*
X108960561Y-101089956D01*
X108962065Y-101088424D01*
X110234619Y-99815873D01*
X110313676Y-99678942D01*
X110354600Y-99526214D01*
X110354600Y-99368099D01*
X110354600Y-99360504D01*
X110354599Y-99360486D01*
X110354599Y-94389818D01*
X110374284Y-94322779D01*
X110390918Y-94302137D01*
X113510651Y-91182404D01*
X113571974Y-91148919D01*
X113641666Y-91153903D01*
G37*
%TD.AperFunction*%
M02*
