M48
; DRILL file {KiCad 9.0.7} date 2026-02-26T19:17:07+0200
; FORMAT={-:-/ absolute / metric / decimal}
; #@! TF.CreationDate,2026-02-26T19:17:07+02:00
; #@! TF.GenerationSoftware,Kicad,Pcbnew,9.0.7
; #@! TF.FileFunction,Plated,1,2,PTH
FMAT,2
METRIC
; #@! TA.AperFunction,Plated,PTH,ViaDrill
T1C0.300
; #@! TA.AperFunction,Plated,PTH,ComponentDrill
T2C0.800
; #@! TA.AperFunction,Plated,PTH,ComponentDrill
T3C0.900
%
G90
G05
T1
X98.546Y-123.806
X99.608Y-126.299
X100.78Y-119.401
X101.962Y-127.255
X102.944Y-117.526
X107.099Y-115.571
X108.82Y-108.713
X109.582Y-127.255
X109.728Y-102.946
X110.64Y-113.074
X112.012Y-112.166
X112.52Y-115.827
X113.284Y-122.022
X113.445Y-116.752
X115.468Y-101.244
X116.027Y-89.256
X116.163Y-110.655
X116.499Y-112.71
X116.675Y-107.57
X117.33Y-92.656
X117.704Y-110.395
X118.11Y-111.938
X119.189Y-90.995
X120.548Y-108.712
X120.681Y-127.178
X120.907Y-94.18
X121.07Y-90.664
X122.504Y-106.401
X123.861Y-86.157
X123.913Y-195.58
X124.041Y-173.902
X124.333Y-100.355
X124.743Y-104.191
X125.393Y-93.41
X125.468Y-77.826
X125.644Y-98.371
X125.69Y-106.046
X125.969Y-207.449
X126.27Y-82.17
X126.6Y-96.141
X126.639Y-86.061
X127.337Y-92.824
X127.528Y-111.43
X127.528Y-98.6
X127.576Y-189.16
X128.476Y-181.837
X128.551Y-97.638
X128.626Y-166.751
X128.833Y-94.23
X128.841Y-95.55
X129.667Y-88.951
X129.694Y-113.741
X130.277Y-119.685
X130.835Y-102.845
X130.861Y-96.317
X131.015Y-92.397
X131.202Y-152.283
X131.329Y-200.787
X131.699Y-75.768
X132.588Y-160.706
X132.664Y-181.762
X133.452Y-113.335
X133.93Y-80.167
X134.99Y-70.525
X135.052Y-194.086
X135.255Y-165.238
X135.433Y-65.278
X135.742Y-166.138
X135.839Y-157.937
X135.945Y-184.06
X135.992Y-99.39
X136.019Y-167.134
X136.754Y-84.328
X136.79Y-73.38
X136.87Y-186.69
X136.895Y-181.178
X136.955Y-160.628
X137.69Y-71.425
X138.228Y-161.901
X139.573Y-160.655
X139.617Y-50.648
X140.462Y-56.032
X141.351Y-183.134
X142.138Y-63.195
X143.79Y-172.492
X144.12Y-162.712
X144.475Y-41.91
X145.009Y-145.288
X145.271Y-164.315
X145.415Y-166.497
X145.655Y-165.238
X145.706Y-151.878
X147.362Y-151.495
X147.371Y-171.044
X149.377Y-158.217
X150.494Y-160.4
X152.944Y-153.308
T2
X103.976Y-124.063
X105.391Y-125.477
X118.415Y-119.939
X119.177Y-122.987
X120.574Y-117.78
X121.082Y-124.892
X121.336Y-120.828
X122.733Y-115.621
X123.038Y-126.898
X123.241Y-122.733
X123.495Y-118.669
X125.146Y-124.765
X125.4Y-120.574
X125.654Y-116.51
X127.305Y-122.606
X127.559Y-118.415
X132.842Y-150.724
X133.604Y-153.797
X134.976Y-148.615
X135.509Y-155.702
X135.763Y-151.638
X137.109Y-146.507
X137.668Y-153.543
X137.922Y-149.479
X138.43Y-156.591
X139.827Y-151.384
X140.03Y-147.345
X140.716Y-154.305
X141.961Y-149.276
X143.129Y-152.019
T3
X89.673Y-131.058
X91.469Y-129.262
X93.097Y-123.846
X95.637Y-123.846
X96.751Y-131.058
X96.877Y-117.516
X98.547Y-129.262
X99.417Y-117.516
X100.657Y-111.186
X103.197Y-111.186
X103.829Y-131.058
X104.437Y-104.856
X105.625Y-129.262
X106.977Y-104.856
X108.217Y-98.526
X110.757Y-98.526
X110.907Y-131.058
X111.997Y-92.196
X112.703Y-129.262
X112.999Y-236.048
X114.277Y-228.904
X114.537Y-92.196
X114.795Y-234.252
X115.477Y-221.684
X115.777Y-85.866
X116.073Y-227.108
X116.677Y-214.464
X117.273Y-219.888
X117.877Y-207.244
X117.985Y-131.058
X118.317Y-85.866
X118.473Y-212.668
X118.703Y-225.292
X119.077Y-200.024
X119.557Y-79.536
X119.673Y-205.448
X119.781Y-129.262
X120.277Y-192.804
X120.873Y-198.228
X121.243Y-225.292
X121.477Y-185.584
X122.073Y-191.008
X122.097Y-79.536
X122.483Y-218.962
X122.677Y-178.364
X123.273Y-183.788
X123.337Y-73.206
X123.877Y-171.144
X124.473Y-176.568
X125.023Y-218.962
X125.063Y-131.058
X125.077Y-163.924
X125.673Y-169.348
X125.877Y-73.206
X126.263Y-212.632
X126.277Y-156.704
X126.859Y-129.262
X126.873Y-162.128
X127.117Y-66.876
X127.477Y-149.484
X128.073Y-154.908
X128.803Y-212.632
X129.273Y-147.688
X129.657Y-66.876
X130.043Y-206.302
X130.427Y-125.49
X130.897Y-60.546
X131.627Y-118.27
X132.223Y-123.694
X132.583Y-206.302
X132.827Y-111.05
X132.842Y-143.916
X133.423Y-116.474
X133.437Y-60.546
X133.823Y-199.972
X134.027Y-103.83
X134.623Y-109.254
X134.638Y-142.12
X134.677Y-54.216
X135.227Y-96.61
X135.823Y-102.034
X136.363Y-199.972
X136.427Y-89.39
X137.023Y-94.814
X137.217Y-54.216
X137.603Y-193.642
X137.627Y-82.17
X138.223Y-87.594
X138.457Y-47.886
X138.827Y-74.95
X139.423Y-80.374
X139.92Y-143.916
X140.027Y-67.73
X140.143Y-193.642
X140.623Y-73.154
X140.997Y-47.886
X141.227Y-60.51
X141.383Y-187.312
X141.716Y-142.12
X141.823Y-65.934
X142.427Y-53.29
X143.023Y-58.714
X143.627Y-46.07
X143.923Y-187.312
X144.223Y-51.494
X144.905Y-38.927
X145.163Y-180.982
X145.423Y-44.274
X146.701Y-37.131
X146.998Y-143.916
X147.703Y-180.982
X148.794Y-142.12
X148.943Y-174.652
X151.483Y-174.652
X152.723Y-168.322
X154.076Y-143.916
X155.263Y-168.322
X155.872Y-142.12
X156.503Y-161.992
X159.043Y-161.992
X160.283Y-155.662
X161.154Y-143.916
X162.823Y-155.662
X162.95Y-142.12
X164.063Y-149.332
X166.603Y-149.332
X168.232Y-143.916
X170.028Y-142.12
M30
