%TF.GenerationSoftware,KiCad,Pcbnew,10.0.2*%
%TF.CreationDate,2026-06-25T10:36:07+03:00*%
%TF.ProjectId,kicad_selka_rev2,6b696361-645f-4736-956c-6b615f726576,2*%
%TF.SameCoordinates,Original*%
%TF.FileFunction,Soldermask,Bot*%
%TF.FilePolarity,Negative*%
%FSLAX46Y46*%
G04 Gerber Fmt 4.6, Leading zero omitted, Abs format (unit mm)*
G04 Created by KiCad (PCBNEW 10.0.2) date 2026-06-25 10:36:07*
%MOMM*%
%LPD*%
G01*
G04 APERTURE LIST*
G04 Aperture macros list*
%AMRoundRect*
0 Rectangle with rounded corners*
0 $1 Rounding radius*
0 $2 $3 $4 $5 $6 $7 $8 $9 X,Y pos of 4 corners*
0 Add a 4 corners polygon primitive as box body*
4,1,4,$2,$3,$4,$5,$6,$7,$8,$9,$2,$3,0*
0 Add four circle primitives for the rounded corners*
1,1,$1+$1,$2,$3*
1,1,$1+$1,$4,$5*
1,1,$1+$1,$6,$7*
1,1,$1+$1,$8,$9*
0 Add four rect primitives between the rounded corners*
20,1,$1+$1,$2,$3,$4,$5,0*
20,1,$1+$1,$4,$5,$6,$7,0*
20,1,$1+$1,$6,$7,$8,$9,0*
20,1,$1+$1,$8,$9,$2,$3,0*%
%AMHorizOval*
0 Thick line with rounded ends*
0 $1 width*
0 $2 $3 position (X,Y) of the first rounded end (center of the circle)*
0 $4 $5 position (X,Y) of the second rounded end (center of the circle)*
0 Add line between two ends*
20,1,$1,$2,$3,$4,$5,0*
0 Add two circle primitives to create the rounded ends*
1,1,$1,$2,$3*
1,1,$1,$4,$5*%
G04 Aperture macros list end*
%ADD10C,1.800000*%
%ADD11RoundRect,0.250000X-0.919239X0.000000X0.000000X-0.919239X0.919239X0.000000X0.000000X0.919239X0*%
%ADD12RoundRect,0.250000X-0.625000X0.400000X-0.625000X-0.400000X0.625000X-0.400000X0.625000X0.400000X0*%
%ADD13RoundRect,0.250000X0.000000X0.919239X-0.919239X0.000000X0.000000X-0.919239X0.919239X0.000000X0*%
%ADD14RoundRect,0.250000X0.650000X0.650000X-0.650000X0.650000X-0.650000X-0.650000X0.650000X-0.650000X0*%
%ADD15RoundRect,0.250000X0.919239X0.000000X0.000000X0.919239X-0.919239X0.000000X0.000000X-0.919239X0*%
%ADD16RoundRect,0.250000X0.000000X-0.919239X0.919239X0.000000X0.000000X0.919239X-0.919239X0.000000X0*%
%ADD17RoundRect,0.250000X-0.724784X-0.159099X-0.159099X-0.724784X0.724784X0.159099X0.159099X0.724784X0*%
%ADD18RoundRect,0.250000X0.650000X-0.650000X0.650000X0.650000X-0.650000X0.650000X-0.650000X-0.650000X0*%
%ADD19HorizOval,1.500000X-0.176777X0.176777X0.176777X-0.176777X0*%
%ADD20RoundRect,0.250000X0.883883X-0.176777X-0.176777X0.883883X-0.883883X0.176777X0.176777X-0.883883X0*%
%ADD21RoundRect,0.250000X-0.650000X-0.650000X0.650000X-0.650000X0.650000X0.650000X-0.650000X0.650000X0*%
%ADD22RoundRect,0.250000X-0.650000X0.650000X-0.650000X-0.650000X0.650000X-0.650000X0.650000X0.650000X0*%
%ADD23RoundRect,0.250000X-0.400000X-0.625000X0.400000X-0.625000X0.400000X0.625000X-0.400000X0.625000X0*%
G04 APERTURE END LIST*
D10*
%TO.C,D28*%
X79151890Y-197788078D03*
D11*
X77355839Y-195992027D03*
%TD*%
D12*
%TO.C,R14*%
X87169338Y-144713300D03*
X87169338Y-141613300D03*
%TD*%
D10*
%TO.C,D14*%
X81968121Y-127426901D03*
D13*
X83764172Y-125630850D03*
%TD*%
D10*
%TO.C,D18*%
X76797611Y-155412411D03*
D14*
X79337611Y-155412411D03*
%TD*%
D10*
%TO.C,D29*%
X81125749Y-189689098D03*
D15*
X82921800Y-191485149D03*
%TD*%
D10*
%TO.C,D22*%
X71997611Y-184292411D03*
D14*
X74537611Y-184292411D03*
%TD*%
D10*
%TO.C,D40*%
X124519062Y-120062760D03*
D16*
X122723011Y-121858811D03*
%TD*%
D17*
%TO.C,R10*%
X102442016Y-137029604D03*
X100249984Y-134837572D03*
%TD*%
D10*
%TO.C,D32*%
X94271890Y-172468078D03*
D11*
X92475839Y-170672027D03*
%TD*%
D10*
%TO.C,D20*%
X74397611Y-169852411D03*
D14*
X76937611Y-169852411D03*
%TD*%
D10*
%TO.C,D44*%
X95318000Y-119707988D03*
D18*
X95318000Y-122247988D03*
%TD*%
D10*
%TO.C,D24*%
X69597611Y-198732411D03*
D14*
X72137611Y-198732411D03*
%TD*%
D19*
%TO.C,J4*%
X87422707Y-134489882D03*
X88836921Y-133075668D03*
X90251134Y-131661455D03*
X91665348Y-130247241D03*
X93079561Y-128833028D03*
X94493775Y-127418814D03*
X95907988Y-126004601D03*
D20*
X97322202Y-124590387D03*
%TD*%
D10*
%TO.C,D17*%
X80527611Y-148192411D03*
D21*
X77987611Y-148192411D03*
%TD*%
D10*
%TO.C,D43*%
X102379200Y-122237988D03*
D22*
X102379200Y-119697988D03*
%TD*%
D10*
%TO.C,D30*%
X86711890Y-185128078D03*
D11*
X84915839Y-183332027D03*
%TD*%
D10*
%TO.C,D31*%
X88685749Y-177029098D03*
D15*
X90481800Y-178825149D03*
%TD*%
D10*
%TO.C,D41*%
X116535200Y-122237988D03*
D22*
X116535200Y-119697988D03*
%TD*%
D10*
%TO.C,D19*%
X78127611Y-162632411D03*
D21*
X75587611Y-162632411D03*
%TD*%
D10*
%TO.C,D38*%
X116951890Y-134488078D03*
D11*
X115155839Y-132692027D03*
%TD*%
D10*
%TO.C,D33*%
X96245749Y-164369098D03*
D15*
X98041800Y-166165149D03*
%TD*%
D10*
%TO.C,D45*%
X87345110Y-121867478D03*
D13*
X89141161Y-120071427D03*
%TD*%
D10*
%TO.C,D42*%
X109474000Y-119707988D03*
D18*
X109474000Y-122247988D03*
%TD*%
D23*
%TO.C,R9*%
X105055000Y-130980588D03*
X101955000Y-130980588D03*
%TD*%
D10*
%TO.C,D37*%
X111365749Y-139049098D03*
D15*
X113161800Y-140845149D03*
%TD*%
D10*
%TO.C,D16*%
X79197611Y-140972411D03*
D14*
X81737611Y-140972411D03*
%TD*%
D10*
%TO.C,D21*%
X75727611Y-177072411D03*
D21*
X73187611Y-177072411D03*
%TD*%
D10*
%TO.C,D23*%
X73327611Y-191512411D03*
D21*
X70787611Y-191512411D03*
%TD*%
D17*
%TO.C,R12*%
X97108016Y-142363604D03*
X94915984Y-140171572D03*
%TD*%
D23*
%TO.C,R8*%
X105055000Y-127170588D03*
X101955000Y-127170588D03*
%TD*%
D10*
%TO.C,D26*%
X67119611Y-213095611D03*
D14*
X69659611Y-213095611D03*
%TD*%
D10*
%TO.C,D35*%
X103805749Y-151709098D03*
D15*
X105601800Y-153505149D03*
%TD*%
D17*
%TO.C,R11*%
X99775016Y-139696604D03*
X97582984Y-137504572D03*
%TD*%
D10*
%TO.C,D27*%
X73565749Y-202349098D03*
D15*
X75361800Y-204145149D03*
%TD*%
D10*
%TO.C,D15*%
X82927611Y-133752411D03*
D21*
X80387611Y-133752411D03*
%TD*%
D10*
%TO.C,D36*%
X109391890Y-147148078D03*
D11*
X107595839Y-145352027D03*
%TD*%
D10*
%TO.C,D39*%
X118925749Y-126389098D03*
D15*
X120721800Y-128185149D03*
%TD*%
D10*
%TO.C,D34*%
X101831890Y-159808078D03*
D11*
X100035839Y-158012027D03*
%TD*%
D12*
%TO.C,R13*%
X91059000Y-144722588D03*
X91059000Y-141622588D03*
%TD*%
D10*
%TO.C,D25*%
X70927611Y-205952411D03*
D21*
X68387611Y-205952411D03*
%TD*%
M02*
