M48
; DRILL file KiCad 10.0.2 date 2026-06-25T10:36:09
; FORMAT={-:-/ absolute / metric / decimal}
; #@! TF.CreationDate,2026-06-25T10:36:09+03:00
; #@! TF.GenerationSoftware,Kicad,Pcbnew,10.0.2
; #@! TF.FileFunction,Plated,1,2,PTH
FMAT,2
METRIC
; #@! TA.AperFunction,Plated,PTH,ViaDrill
T1C0.300
; #@! TA.AperFunction,Plated,PTH,ComponentDrill
T2C0.900
; #@! TA.AperFunction,Plated,PTH,ComponentDrill
T3C1.125
%
G90
G05
T1
X66.675Y-208.374
X67.97Y-200.551
X69.018Y-193.98
X70.339Y-186.207
X71.552Y-179.063
X72.847Y-171.697
X72.923Y-210.686
X74.016Y-164.813
X75.26Y-157.295
X76.175Y-150.259
X77.572Y-142.868
X78.791Y-136.137
X78.848Y-200.914
X80.112Y-129.05
X80.179Y-164.289
X82.507Y-160.495
X82.956Y-194.557
X84.76Y-122.726
X85.606Y-138.728
X86.341Y-188.316
X89.256Y-147.313
X89.941Y-152.393
X90.119Y-182.009
X91.745Y-118.001
X92.794Y-151.631
X93.167Y-160.495
X93.904Y-175.735
X97.942Y-169.233
X98.781Y-155.796
X98.933Y-118.052
X100.965Y-142.284
X101.702Y-162.654
X103.308Y-133.807
X103.378Y-138.887
X105.258Y-156.711
X105.766Y-118.204
X107.37Y-141.01
X107.442Y-135.788
X107.467Y-127.196
X108.719Y-151.105
X111.862Y-135.146
X113.03Y-118.154
X113.055Y-143.909
X116.618Y-137.973
X120.244Y-118.077
X120.53Y-131.572
X124.028Y-125.647
T2
X67.12Y-213.096
X68.388Y-205.952
X69.598Y-198.732
X69.66Y-213.096
X70.788Y-191.512
X70.928Y-205.952
X71.998Y-184.292
X72.138Y-198.732
X73.188Y-177.072
X73.328Y-191.512
X73.566Y-202.349
X74.398Y-169.852
X74.538Y-184.292
X75.362Y-204.145
X75.588Y-162.632
X75.728Y-177.072
X76.798Y-155.412
X76.938Y-169.852
X77.356Y-195.992
X77.988Y-148.192
X78.128Y-162.632
X79.152Y-197.788
X79.198Y-140.972
X79.338Y-155.412
X80.388Y-133.752
X80.528Y-148.192
X81.126Y-189.689
X81.738Y-140.972
X81.968Y-127.427
X82.922Y-191.485
X82.928Y-133.752
X83.764Y-125.631
X84.916Y-183.332
X86.712Y-185.128
X87.345Y-121.867
X88.686Y-177.029
X89.141Y-120.071
X90.482Y-178.825
X92.476Y-170.672
X94.272Y-172.468
X95.318Y-119.708
X95.318Y-122.248
X96.246Y-164.369
X98.042Y-166.165
X100.036Y-158.012
X101.832Y-159.808
X102.379Y-119.698
X102.379Y-122.238
X103.806Y-151.709
X105.602Y-153.505
X107.596Y-145.352
X109.392Y-147.148
X109.474Y-119.708
X109.474Y-122.248
X111.366Y-139.049
X113.162Y-140.845
X115.156Y-132.692
X116.535Y-119.698
X116.535Y-122.238
X116.952Y-134.488
X118.926Y-126.389
X120.722Y-128.185
X122.723Y-121.859
X124.519Y-120.063
T3
X87.423Y-134.49
X88.837Y-133.076
X90.251Y-131.661
X91.665Y-130.247
X93.08Y-128.833
X94.494Y-127.419
X95.908Y-126.005
X97.322Y-124.59
M30
