%TF.GenerationSoftware,KiCad,Pcbnew,10.0.2*%
%TF.CreationDate,2026-06-25T10:36:07+03:00*%
%TF.ProjectId,kicad_selka_rev2,6b696361-645f-4736-956c-6b615f726576,2*%
%TF.SameCoordinates,Original*%
%TF.FileFunction,Copper,L2,Bot*%
%TF.FilePolarity,Positive*%
%FSLAX46Y46*%
G04 Gerber Fmt 4.6, Leading zero omitted, Abs format (unit mm)*
G04 Created by KiCad (PCBNEW 10.0.2) date 2026-06-25 10:36:07*
%MOMM*%
%LPD*%
G01*
G04 APERTURE LIST*
G04 Aperture macros list*
%AMRoundRect*
0 Rectangle with rounded corners*
0 $1 Rounding radius*
0 $2 $3 $4 $5 $6 $7 $8 $9 X,Y pos of 4 corners*
0 Add a 4 corners polygon primitive as box body*
4,1,4,$2,$3,$4,$5,$6,$7,$8,$9,$2,$3,0*
0 Add four circle primitives for the rounded corners*
1,1,$1+$1,$2,$3*
1,1,$1+$1,$4,$5*
1,1,$1+$1,$6,$7*
1,1,$1+$1,$8,$9*
0 Add four rect primitives between the rounded corners*
20,1,$1+$1,$2,$3,$4,$5,0*
20,1,$1+$1,$4,$5,$6,$7,0*
20,1,$1+$1,$6,$7,$8,$9,0*
20,1,$1+$1,$8,$9,$2,$3,0*%
%AMHorizOval*
0 Thick line with rounded ends*
0 $1 width*
0 $2 $3 position (X,Y) of the first rounded end (center of the circle)*
0 $4 $5 position (X,Y) of the second rounded end (center of the circle)*
0 Add line between two ends*
20,1,$1,$2,$3,$4,$5,0*
0 Add two circle primitives to create the rounded ends*
1,1,$1,$2,$3*
1,1,$1,$4,$5*%
G04 Aperture macros list end*
%TA.AperFunction,ComponentPad*%
%ADD10C,1.800000*%
%TD*%
%TA.AperFunction,ComponentPad*%
%ADD11RoundRect,0.250000X-0.919239X0.000000X0.000000X-0.919239X0.919239X0.000000X0.000000X0.919239X0*%
%TD*%
%TA.AperFunction,SMDPad,CuDef*%
%ADD12RoundRect,0.250000X-0.625000X0.400000X-0.625000X-0.400000X0.625000X-0.400000X0.625000X0.400000X0*%
%TD*%
%TA.AperFunction,ComponentPad*%
%ADD13RoundRect,0.250000X0.000000X0.919239X-0.919239X0.000000X0.000000X-0.919239X0.919239X0.000000X0*%
%TD*%
%TA.AperFunction,ComponentPad*%
%ADD14RoundRect,0.250000X0.650000X0.650000X-0.650000X0.650000X-0.650000X-0.650000X0.650000X-0.650000X0*%
%TD*%
%TA.AperFunction,ComponentPad*%
%ADD15RoundRect,0.250000X0.919239X0.000000X0.000000X0.919239X-0.919239X0.000000X0.000000X-0.919239X0*%
%TD*%
%TA.AperFunction,ComponentPad*%
%ADD16RoundRect,0.250000X0.000000X-0.919239X0.919239X0.000000X0.000000X0.919239X-0.919239X0.000000X0*%
%TD*%
%TA.AperFunction,SMDPad,CuDef*%
%ADD17RoundRect,0.250000X-0.724784X-0.159099X-0.159099X-0.724784X0.724784X0.159099X0.159099X0.724784X0*%
%TD*%
%TA.AperFunction,ComponentPad*%
%ADD18RoundRect,0.250000X0.650000X-0.650000X0.650000X0.650000X-0.650000X0.650000X-0.650000X-0.650000X0*%
%TD*%
%TA.AperFunction,ComponentPad*%
%ADD19HorizOval,1.500000X-0.176777X0.176777X0.176777X-0.176777X0*%
%TD*%
%TA.AperFunction,ComponentPad*%
%ADD20RoundRect,0.250000X0.883883X-0.176777X-0.176777X0.883883X-0.883883X0.176777X0.176777X-0.883883X0*%
%TD*%
%TA.AperFunction,ComponentPad*%
%ADD21RoundRect,0.250000X-0.650000X-0.650000X0.650000X-0.650000X0.650000X0.650000X-0.650000X0.650000X0*%
%TD*%
%TA.AperFunction,ComponentPad*%
%ADD22RoundRect,0.250000X-0.650000X0.650000X-0.650000X-0.650000X0.650000X-0.650000X0.650000X0.650000X0*%
%TD*%
%TA.AperFunction,SMDPad,CuDef*%
%ADD23RoundRect,0.250000X-0.400000X-0.625000X0.400000X-0.625000X0.400000X0.625000X-0.400000X0.625000X0*%
%TD*%
%TA.AperFunction,ViaPad*%
%ADD24C,0.600000*%
%TD*%
%TA.AperFunction,Conductor*%
%ADD25C,0.400000*%
%TD*%
G04 APERTURE END LIST*
D10*
%TO.P,D28,2,A_2*%
%TO.N,Net-(D24-K)*%
X79151890Y-197788078D03*
D11*
%TO.P,D28,1,K_1*%
%TO.N,Net-(D16-K)*%
X77355839Y-195992027D03*
%TD*%
D12*
%TO.P,R14,2*%
%TO.N,Net-(D14-A)*%
X87169338Y-144713300D03*
%TO.P,R14,1*%
%TO.N,/CB6*%
X87169338Y-141613300D03*
%TD*%
D10*
%TO.P,D14,2,A_2*%
%TO.N,Net-(D14-A)*%
X81968121Y-127426901D03*
D13*
%TO.P,D14,1,K_1*%
%TO.N,Net-(D14-K)*%
X83764172Y-125630850D03*
%TD*%
D10*
%TO.P,D18,2,A_2*%
%TO.N,Net-(D14-A)*%
X76797611Y-155412411D03*
D14*
%TO.P,D18,1,K_1*%
%TO.N,Net-(D18-K)*%
X79337611Y-155412411D03*
%TD*%
D10*
%TO.P,D29,2,A_2*%
%TO.N,Net-(D16-K)*%
X81125749Y-189689098D03*
D15*
%TO.P,D29,1,K_1*%
%TO.N,Net-(D24-K)*%
X82921800Y-191485149D03*
%TD*%
D10*
%TO.P,D22,2,A_2*%
%TO.N,Net-(D14-A)*%
X71997611Y-184292411D03*
D14*
%TO.P,D22,1,K_1*%
%TO.N,Net-(D22-K)*%
X74537611Y-184292411D03*
%TD*%
D10*
%TO.P,D40,2,A_2*%
%TO.N,Net-(D22-K)*%
X124519062Y-120062760D03*
D16*
%TO.P,D40,1,K_1*%
%TO.N,Net-(D18-K)*%
X122723011Y-121858811D03*
%TD*%
D17*
%TO.P,R10,2*%
%TO.N,Net-(D18-K)*%
X102442016Y-137029604D03*
%TO.P,R10,1*%
%TO.N,/CB2*%
X100249984Y-134837572D03*
%TD*%
D10*
%TO.P,D32,2,A_2*%
%TO.N,Net-(D24-K)*%
X94271890Y-172468078D03*
D11*
%TO.P,D32,1,K_1*%
%TO.N,Net-(D20-K)*%
X92475839Y-170672027D03*
%TD*%
D10*
%TO.P,D20,2,A_2*%
%TO.N,Net-(D14-A)*%
X74397611Y-169852411D03*
D14*
%TO.P,D20,1,K_1*%
%TO.N,Net-(D20-K)*%
X76937611Y-169852411D03*
%TD*%
D10*
%TO.P,D44,2,A_2*%
%TO.N,Net-(D20-K)*%
X95318000Y-119707988D03*
D18*
%TO.P,D44,1,K_1*%
%TO.N,Net-(D14-K)*%
X95318000Y-122247988D03*
%TD*%
D10*
%TO.P,D24,2,A_2*%
%TO.N,Net-(D14-A)*%
X69597611Y-198732411D03*
D14*
%TO.P,D24,1,K_1*%
%TO.N,Net-(D24-K)*%
X72137611Y-198732411D03*
%TD*%
D19*
%TO.P,J4,8,Pin_8_8*%
%TO.N,GND2*%
X87422707Y-134489882D03*
%TO.P,J4,7,Pin_7_7*%
%TO.N,/CB6*%
X88836921Y-133075668D03*
%TO.P,J4,6,Pin_6_6*%
%TO.N,/CB5*%
X90251134Y-131661455D03*
%TO.P,J4,5,Pin_5_5*%
%TO.N,/CB4*%
X91665348Y-130247241D03*
%TO.P,J4,4,Pin_4_4*%
%TO.N,/CB3*%
X93079561Y-128833028D03*
%TO.P,J4,3,Pin_3_3*%
%TO.N,/CB2*%
X94493775Y-127418814D03*
%TO.P,J4,2,Pin_2_2*%
%TO.N,/CB1*%
X95907988Y-126004601D03*
D20*
%TO.P,J4,1,Pin_1_1*%
%TO.N,/CB0*%
X97322202Y-124590387D03*
%TD*%
D10*
%TO.P,D17,2,A_2*%
%TO.N,Net-(D16-K)*%
X80527611Y-148192411D03*
D21*
%TO.P,D17,1,K_1*%
%TO.N,Net-(D14-A)*%
X77987611Y-148192411D03*
%TD*%
D10*
%TO.P,D43,2,A_2*%
%TO.N,Net-(D20-K)*%
X102379200Y-122237988D03*
D22*
%TO.P,D43,1,K_1*%
%TO.N,Net-(D22-K)*%
X102379200Y-119697988D03*
%TD*%
D10*
%TO.P,D30,2,A_2*%
%TO.N,Net-(D24-K)*%
X86711890Y-185128078D03*
D11*
%TO.P,D30,1,K_1*%
%TO.N,Net-(D18-K)*%
X84915839Y-183332027D03*
%TD*%
D10*
%TO.P,D31,2,A_2*%
%TO.N,Net-(D18-K)*%
X88685749Y-177029098D03*
D15*
%TO.P,D31,1,K_1*%
%TO.N,Net-(D24-K)*%
X90481800Y-178825149D03*
%TD*%
D10*
%TO.P,D41,2,A_2*%
%TO.N,Net-(D18-K)*%
X116535200Y-122237988D03*
D22*
%TO.P,D41,1,K_1*%
%TO.N,Net-(D22-K)*%
X116535200Y-119697988D03*
%TD*%
D10*
%TO.P,D19,2,A_2*%
%TO.N,Net-(D18-K)*%
X78127611Y-162632411D03*
D21*
%TO.P,D19,1,K_1*%
%TO.N,Net-(D14-A)*%
X75587611Y-162632411D03*
%TD*%
D10*
%TO.P,D38,2,A_2*%
%TO.N,Net-(D22-K)*%
X116951890Y-134488078D03*
D11*
%TO.P,D38,1,K_1*%
%TO.N,Net-(D16-K)*%
X115155839Y-132692027D03*
%TD*%
D10*
%TO.P,D33,2,A_2*%
%TO.N,Net-(D20-K)*%
X96245749Y-164369098D03*
D15*
%TO.P,D33,1,K_1*%
%TO.N,Net-(D24-K)*%
X98041800Y-166165149D03*
%TD*%
D10*
%TO.P,D45,2,A_2*%
%TO.N,Net-(D14-K)*%
X87345110Y-121867478D03*
D13*
%TO.P,D45,1,K_1*%
%TO.N,Net-(D20-K)*%
X89141161Y-120071427D03*
%TD*%
D10*
%TO.P,D42,2,A_2*%
%TO.N,Net-(D22-K)*%
X109474000Y-119707988D03*
D18*
%TO.P,D42,1,K_1*%
%TO.N,Net-(D20-K)*%
X109474000Y-122247988D03*
%TD*%
D23*
%TO.P,R9,2*%
%TO.N,Net-(D16-K)*%
X105055000Y-130980588D03*
%TO.P,R9,1*%
%TO.N,/CB1*%
X101955000Y-130980588D03*
%TD*%
D10*
%TO.P,D37,2,A_2*%
%TO.N,Net-(D14-K)*%
X111365749Y-139049098D03*
D15*
%TO.P,D37,1,K_1*%
%TO.N,Net-(D22-K)*%
X113161800Y-140845149D03*
%TD*%
D10*
%TO.P,D16,2,A_2*%
%TO.N,Net-(D14-A)*%
X79197611Y-140972411D03*
D14*
%TO.P,D16,1,K_1*%
%TO.N,Net-(D16-K)*%
X81737611Y-140972411D03*
%TD*%
D10*
%TO.P,D21,2,A_2*%
%TO.N,Net-(D20-K)*%
X75727611Y-177072411D03*
D21*
%TO.P,D21,1,K_1*%
%TO.N,Net-(D14-A)*%
X73187611Y-177072411D03*
%TD*%
D10*
%TO.P,D23,2,A_2*%
%TO.N,Net-(D22-K)*%
X73327611Y-191512411D03*
D21*
%TO.P,D23,1,K_1*%
%TO.N,Net-(D14-A)*%
X70787611Y-191512411D03*
%TD*%
D17*
%TO.P,R12,2*%
%TO.N,Net-(D22-K)*%
X97108016Y-142363604D03*
%TO.P,R12,1*%
%TO.N,/CB4*%
X94915984Y-140171572D03*
%TD*%
D23*
%TO.P,R8,2*%
%TO.N,Net-(D14-K)*%
X105055000Y-127170588D03*
%TO.P,R8,1*%
%TO.N,/CB0*%
X101955000Y-127170588D03*
%TD*%
D10*
%TO.P,D26,2,A_2*%
%TO.N,Net-(D24-K)*%
X67119611Y-213095611D03*
D14*
%TO.P,D26,1,K_1*%
%TO.N,Net-(D14-K)*%
X69659611Y-213095611D03*
%TD*%
D10*
%TO.P,D35,2,A_2*%
%TO.N,Net-(D22-K)*%
X103805749Y-151709098D03*
D15*
%TO.P,D35,1,K_1*%
%TO.N,Net-(D24-K)*%
X105601800Y-153505149D03*
%TD*%
D17*
%TO.P,R11,2*%
%TO.N,Net-(D20-K)*%
X99775016Y-139696604D03*
%TO.P,R11,1*%
%TO.N,/CB3*%
X97582984Y-137504572D03*
%TD*%
D10*
%TO.P,D27,2,A_2*%
%TO.N,Net-(D14-K)*%
X73565749Y-202349098D03*
D15*
%TO.P,D27,1,K_1*%
%TO.N,Net-(D24-K)*%
X75361800Y-204145149D03*
%TD*%
D10*
%TO.P,D15,2,A_2*%
%TO.N,Net-(D14-K)*%
X82927611Y-133752411D03*
D21*
%TO.P,D15,1,K_1*%
%TO.N,Net-(D14-A)*%
X80387611Y-133752411D03*
%TD*%
D10*
%TO.P,D36,2,A_2*%
%TO.N,Net-(D22-K)*%
X109391890Y-147148078D03*
D11*
%TO.P,D36,1,K_1*%
%TO.N,Net-(D14-K)*%
X107595839Y-145352027D03*
%TD*%
D10*
%TO.P,D39,2,A_2*%
%TO.N,Net-(D16-K)*%
X118925749Y-126389098D03*
D15*
%TO.P,D39,1,K_1*%
%TO.N,Net-(D22-K)*%
X120721800Y-128185149D03*
%TD*%
D10*
%TO.P,D34,2,A_2*%
%TO.N,Net-(D24-K)*%
X101831890Y-159808078D03*
D11*
%TO.P,D34,1,K_1*%
%TO.N,Net-(D22-K)*%
X100035839Y-158012027D03*
%TD*%
D12*
%TO.P,R13,2*%
%TO.N,Net-(D24-K)*%
X91059000Y-144722588D03*
%TO.P,R13,1*%
%TO.N,/CB5*%
X91059000Y-141622588D03*
%TD*%
D10*
%TO.P,D25,2,A_2*%
%TO.N,Net-(D24-K)*%
X70927611Y-205952411D03*
D21*
%TO.P,D25,1,K_1*%
%TO.N,Net-(D14-A)*%
X68387611Y-205952411D03*
%TD*%
D24*
%TO.N,GND2*%
X116617949Y-137972800D03*
X80111600Y-129050188D03*
X67970400Y-200551188D03*
X97942400Y-169232988D03*
%TO.N,Net-(D14-K)*%
X85605811Y-138727588D03*
%TO.N,Net-(D20-K)*%
X100965000Y-142283588D03*
%TO.N,GND2*%
X69018349Y-193979800D03*
%TO.N,Net-(D16-K)*%
X107442000Y-135788400D03*
%TO.N,GND2*%
X76174600Y-150259188D03*
X98933000Y-118051988D03*
%TO.N,Net-(D14-K)*%
X107467400Y-127195988D03*
%TO.N,GND2*%
X93903800Y-175735388D03*
%TO.N,Net-(D16-K)*%
X89941400Y-152392788D03*
%TO.N,GND2*%
X105257600Y-156710788D03*
X91744800Y-118001188D03*
X82956400Y-194556788D03*
X78848149Y-200914000D03*
X72923400Y-210685788D03*
%TO.N,Net-(D18-K)*%
X103378000Y-138887200D03*
X98780600Y-155796388D03*
%TO.N,GND2*%
X86341149Y-188315600D03*
X75260200Y-157294988D03*
%TO.N,Net-(D18-K)*%
X111861600Y-135146188D03*
%TO.N,Net-(D20-K)*%
X107369705Y-141009682D03*
%TO.N,Net-(D24-K)*%
X92794011Y-151630788D03*
%TO.N,GND2*%
X113030000Y-118153588D03*
X71551800Y-179062788D03*
X72847200Y-171696788D03*
X120243600Y-118077388D03*
X108718549Y-151104600D03*
X84759800Y-122725588D03*
X77571600Y-142867788D03*
X124028200Y-125646588D03*
X78790800Y-136136788D03*
X70339149Y-186207400D03*
%TO.N,Net-(D20-K)*%
X80179006Y-164288783D03*
%TO.N,GND2*%
X105765600Y-118204388D03*
%TO.N,Net-(D22-K)*%
X93167200Y-160495388D03*
%TO.N,Net-(D14-K)*%
X103308349Y-133807200D03*
%TO.N,GND2*%
X113055400Y-143909188D03*
X120529549Y-131572000D03*
X90119200Y-182009188D03*
%TO.N,Net-(D14-K)*%
X89255600Y-147312788D03*
%TO.N,GND2*%
X101701600Y-162654388D03*
X66675000Y-208374388D03*
%TO.N,Net-(D22-K)*%
X82507011Y-160495388D03*
%TO.N,GND2*%
X74015600Y-164813388D03*
%TD*%
%TO.N,Net-(D16-K)*%
D25*
X81737611Y-144659138D02*
X81737611Y-140972411D01*
%TO.N,Net-(D20-K)*%
X97972800Y-119707988D02*
X100502800Y-122237988D01*
X97891600Y-153662788D02*
X97891600Y-148252588D01*
%TO.N,Net-(D14-A)*%
X73187611Y-179535177D02*
X71997611Y-180725177D01*
X70787611Y-194508177D02*
X69597611Y-195698177D01*
%TO.N,Net-(D14-K)*%
X105055001Y-127170588D02*
X107442000Y-127170588D01*
X69659611Y-211765177D02*
X72821800Y-208602988D01*
%TO.N,Net-(D18-K)*%
X84915839Y-183332027D02*
X86258400Y-181989466D01*
X86258400Y-181989466D02*
X86258400Y-179456447D01*
%TO.N,Net-(D24-K)*%
X100025200Y-161614768D02*
X101831890Y-159808078D01*
%TO.N,Net-(D16-K)*%
X84861400Y-178757988D02*
X81125749Y-182493639D01*
X116586000Y-131261866D02*
X115155839Y-132692027D01*
%TO.N,Net-(D14-K)*%
X107442000Y-127170588D02*
X107467400Y-127195988D01*
X77266800Y-183152188D02*
X77266800Y-191711988D01*
%TO.N,Net-(D24-K)*%
X79151890Y-197788078D02*
X81229200Y-195710768D01*
%TO.N,Net-(D14-K)*%
X109431011Y-140983836D02*
X111365749Y-139049098D01*
X89255600Y-147338188D02*
X86436200Y-150157588D01*
%TO.N,Net-(D14-A)*%
X81968121Y-129251067D02*
X81968121Y-127426901D01*
X80387611Y-130831577D02*
X81968121Y-129251067D01*
%TO.N,Net-(D20-K)*%
X75727611Y-177072411D02*
X75727611Y-175090177D01*
X76937611Y-173880177D02*
X76937611Y-169852411D01*
%TO.N,Net-(D16-K)*%
X80527611Y-145869138D02*
X81737611Y-144659138D01*
X80527611Y-148192411D02*
X80527611Y-145869138D01*
%TO.N,Net-(D14-K)*%
X82067400Y-178351588D02*
X77266800Y-183152188D01*
X87345110Y-122096078D02*
X83810338Y-125630850D01*
%TO.N,Net-(D20-K)*%
X80179006Y-164288783D02*
X76937611Y-167530177D01*
X100965000Y-142283588D02*
X100965000Y-140886588D01*
%TO.N,Net-(D24-K)*%
X96193161Y-168013788D02*
X98041800Y-166165149D01*
X96164400Y-170575568D02*
X96164400Y-168013788D01*
%TO.N,Net-(D20-K)*%
X96245749Y-155308639D02*
X97891600Y-153662788D01*
X107369705Y-141009682D02*
X109474000Y-138905388D01*
%TO.N,Net-(D14-A)*%
X69597611Y-198732411D02*
X69597611Y-200930577D01*
X69597611Y-200930577D02*
X68387611Y-202140577D01*
%TO.N,Net-(D22-K)*%
X102260400Y-153254447D02*
X103805749Y-151709098D01*
X74537611Y-182172977D02*
X74537611Y-184292411D01*
%TO.N,Net-(D18-K)*%
X79337611Y-159225738D02*
X79337611Y-155412411D01*
%TO.N,Net-(D22-K)*%
X109391890Y-147148078D02*
X111590011Y-144949957D01*
X95072200Y-153357988D02*
X95072200Y-147287388D01*
X106525659Y-148989188D02*
X107550780Y-148989188D01*
X102260400Y-155787466D02*
X102260400Y-153254447D01*
%TO.N,Net-(D14-K)*%
X105367011Y-135865862D02*
X105367011Y-144043999D01*
X82927611Y-131466577D02*
X82927611Y-133752411D01*
%TO.N,Net-(D24-K)*%
X103917949Y-155189000D02*
X105601800Y-153505149D01*
%TO.N,Net-(D18-K)*%
X103378000Y-138887200D02*
X103378000Y-145941188D01*
X103378000Y-137965588D02*
X102442016Y-137029604D01*
%TO.N,Net-(D20-K)*%
X100502800Y-122237988D02*
X102379200Y-122237988D01*
X109474000Y-122247988D02*
X102389200Y-122247988D01*
%TO.N,Net-(D14-A)*%
X77987611Y-151036977D02*
X76797611Y-152226977D01*
X74397611Y-172330777D02*
X73187611Y-173540777D01*
%TO.N,Net-(D24-K)*%
X101831890Y-159808078D02*
X103917949Y-157722019D01*
%TO.N,Net-(D18-K)*%
X78127611Y-160435738D02*
X79337611Y-159225738D01*
X78127611Y-162632411D02*
X78127611Y-160435738D01*
%TO.N,Net-(D22-K)*%
X122105611Y-126801338D02*
X122105611Y-125697388D01*
X73327611Y-191512411D02*
X73327611Y-189123377D01*
%TO.N,Net-(D14-K)*%
X89255600Y-147312788D02*
X89255600Y-147338188D01*
X86436200Y-168496388D02*
X82067400Y-172865188D01*
%TO.N,Net-(D18-K)*%
X86258400Y-179456447D02*
X88685749Y-177029098D01*
X122723011Y-121858811D02*
X116914377Y-121858811D01*
%TO.N,/CB5*%
X91059000Y-141622587D02*
X91059000Y-133139588D01*
X91059000Y-133139588D02*
X91059000Y-132469321D01*
X91059000Y-132469321D02*
X90251134Y-131661455D01*
%TO.N,/CB3*%
X95758000Y-131511467D02*
X93079561Y-128833028D01*
%TO.N,Net-(D22-K)*%
X73327611Y-189123377D02*
X74537611Y-187913377D01*
X124815600Y-122987399D02*
X124815600Y-120359298D01*
%TO.N,Net-(D24-K)*%
X100025200Y-164181749D02*
X100025200Y-161614768D01*
X84658200Y-189748749D02*
X84658200Y-187181768D01*
%TO.N,Net-(D22-K)*%
X116951890Y-134488078D02*
X119049800Y-132390168D01*
X107550780Y-148989188D02*
X109391890Y-147148078D01*
%TO.N,Net-(D14-A)*%
X73187611Y-173540777D02*
X73187611Y-175963988D01*
X82508811Y-151036977D02*
X87169338Y-146376450D01*
%TO.N,/CB3*%
X95758000Y-135679588D02*
X95758000Y-131511467D01*
X95758000Y-135679588D02*
X97582984Y-137504572D01*
%TO.N,/CB2*%
X98298000Y-131223039D02*
X94493775Y-127418814D01*
X98298000Y-131223039D02*
X98298000Y-132885588D01*
%TO.N,Net-(D16-K)*%
X81125749Y-182493639D02*
X81125749Y-189689098D01*
X78689200Y-194658666D02*
X78689200Y-192187592D01*
X89941400Y-152392788D02*
X89941400Y-169771022D01*
%TO.N,Net-(D24-K)*%
X81229200Y-195710768D02*
X81229200Y-193177749D01*
X103917949Y-157722019D02*
X103917949Y-155189000D01*
%TO.N,/CB6*%
X89382600Y-133865480D02*
X89382600Y-134587388D01*
X89382600Y-134587388D02*
X89382600Y-136974988D01*
X88714854Y-133197734D02*
X89382600Y-133865480D01*
X89382600Y-136974988D02*
X87169338Y-139188250D01*
%TO.N,Net-(D14-A)*%
X76797611Y-155412411D02*
X76797611Y-157992777D01*
X71997611Y-186694177D02*
X70787611Y-187904177D01*
%TO.N,Net-(D24-K)*%
X70927611Y-205952411D02*
X70927611Y-202419977D01*
%TO.N,Net-(D14-K)*%
X82927611Y-136176388D02*
X82927611Y-133752411D01*
X84658200Y-129735988D02*
X82927611Y-131466577D01*
%TO.N,Net-(D18-K)*%
X103378000Y-138887200D02*
X103378000Y-137965588D01*
X100558600Y-154018388D02*
X98780600Y-155796388D01*
%TO.N,Net-(D22-K)*%
X114757200Y-136682768D02*
X114757200Y-139210188D01*
X95072200Y-147287388D02*
X97108016Y-145251572D01*
X122105611Y-125697388D02*
X124815600Y-122987399D01*
%TO.N,Net-(D20-K)*%
X92475839Y-170672027D02*
X93827600Y-169320266D01*
X109474000Y-138905388D02*
X109474000Y-122247988D01*
%TO.N,Net-(D24-K)*%
X94271890Y-172468078D02*
X96164400Y-170575568D01*
%TO.N,Net-(D14-A)*%
X77987611Y-151036977D02*
X82508811Y-151036977D01*
X80387611Y-137130777D02*
X79197611Y-138320777D01*
%TO.N,Net-(D24-K)*%
X77063600Y-202443349D02*
X77063600Y-199876368D01*
X88620600Y-180662988D02*
X88643961Y-180662988D01*
%TO.N,Net-(D14-K)*%
X69659611Y-213095611D02*
X69659611Y-211765177D01*
X85605811Y-138727588D02*
X85478811Y-138727588D01*
%TO.N,/CB2*%
X98298000Y-132885588D02*
X100249984Y-134837572D01*
%TO.N,Net-(D22-K)*%
X100035839Y-158012027D02*
X102260400Y-155787466D01*
X119049800Y-129989988D02*
X120721800Y-128317988D01*
%TO.N,Net-(D24-K)*%
X88643961Y-180662988D02*
X90481800Y-178825149D01*
X72137611Y-201209977D02*
X72137611Y-198732411D01*
%TO.N,/CB6*%
X87169338Y-139188250D02*
X87169338Y-141613299D01*
X89382600Y-134587388D02*
X89382600Y-133621347D01*
%TO.N,Net-(D14-A)*%
X75587611Y-159202777D02*
X75587611Y-162632411D01*
X77987611Y-148192411D02*
X77987611Y-151036977D01*
%TO.N,Net-(D24-K)*%
X98041800Y-166165149D02*
X100025200Y-164181749D01*
%TO.N,Net-(D14-A)*%
X73187611Y-175963988D02*
X73187611Y-177072411D01*
X79197611Y-138320777D02*
X79197611Y-140972411D01*
%TO.N,Net-(D16-K)*%
X84861400Y-174851022D02*
X84861400Y-178757988D01*
X78689200Y-192187592D02*
X81156722Y-189720070D01*
%TO.N,Net-(D14-K)*%
X95318000Y-122247988D02*
X87725620Y-122247988D01*
X72821800Y-203421388D02*
X73565749Y-202677439D01*
%TO.N,Net-(D16-K)*%
X77355839Y-195992027D02*
X78689200Y-194658666D01*
X116586000Y-128728847D02*
X116586000Y-131261866D01*
%TO.N,Net-(D14-A)*%
X76797611Y-152226977D02*
X76797611Y-155412411D01*
X78105000Y-144493388D02*
X78105000Y-148075022D01*
%TO.N,Net-(D20-K)*%
X95318000Y-119707988D02*
X97972800Y-119707988D01*
X97891600Y-148252588D02*
X100965000Y-145179188D01*
%TO.N,Net-(D14-A)*%
X75587611Y-162632411D02*
X75587611Y-165400377D01*
%TO.N,Net-(D18-K)*%
X100558600Y-148760588D02*
X100558600Y-154018388D01*
%TO.N,Net-(D14-K)*%
X85478811Y-138727588D02*
X82927611Y-136176388D01*
X107595839Y-145352027D02*
X109431011Y-143516855D01*
X74498200Y-194480588D02*
X74498200Y-201416647D01*
X72821800Y-208602988D02*
X72821800Y-203421388D01*
%TO.N,Net-(D22-K)*%
X111590011Y-142416938D02*
X113161800Y-140845149D01*
X102379200Y-119697988D02*
X109464000Y-119697988D01*
%TO.N,Net-(D16-K)*%
X107442000Y-132293577D02*
X107442000Y-135788400D01*
%TO.N,Net-(D22-K)*%
X93167200Y-160495388D02*
X93167200Y-155262988D01*
X82507011Y-160495388D02*
X82507011Y-167347894D01*
%TO.N,Net-(D14-K)*%
X74498200Y-201416647D02*
X73565749Y-202349098D01*
X109431011Y-143516855D02*
X109431011Y-140983836D01*
%TO.N,Net-(D24-K)*%
X70927611Y-207017377D02*
X67119611Y-210825377D01*
%TO.N,Net-(D14-A)*%
X74397611Y-169852411D02*
X74397611Y-172330777D01*
X69597611Y-195698177D02*
X69597611Y-198732411D01*
%TO.N,Net-(D16-K)*%
X105055000Y-130980588D02*
X106129011Y-130980588D01*
X106129011Y-130980588D02*
X107442000Y-132293577D01*
%TO.N,Net-(D22-K)*%
X119049800Y-132390168D02*
X119049800Y-129989988D01*
X116951890Y-134488078D02*
X114757200Y-136682768D01*
%TO.N,Net-(D24-K)*%
X86711890Y-185128078D02*
X88620600Y-183219368D01*
%TO.N,Net-(D22-K)*%
X82507011Y-167347894D02*
X79552800Y-170302105D01*
X79552800Y-177157788D02*
X74537611Y-182172977D01*
%TO.N,Net-(D14-K)*%
X103308349Y-133807200D02*
X105367011Y-135865862D01*
%TO.N,/CB1*%
X100883975Y-130980588D02*
X101955000Y-130980588D01*
%TO.N,/CB0*%
X101955000Y-127170588D02*
X99902403Y-127170588D01*
X99902403Y-127170588D02*
X97322202Y-124590387D01*
%TO.N,/CB5*%
X91059000Y-133139588D02*
X91059000Y-132713454D01*
%TO.N,Net-(D24-K)*%
X70927611Y-202419977D02*
X72137611Y-201209977D01*
%TO.N,Net-(D18-K)*%
X117606634Y-124198788D02*
X120383034Y-124198788D01*
X120383034Y-124198788D02*
X122723011Y-121858811D01*
%TO.N,Net-(D24-K)*%
X92557600Y-174182368D02*
X94271890Y-172468078D01*
%TO.N,Net-(D20-K)*%
X89141161Y-120071427D02*
X94954561Y-120071427D01*
X96245749Y-164369098D02*
X96245749Y-155308639D01*
%TO.N,Net-(D14-K)*%
X83764172Y-125630850D02*
X84658200Y-126524878D01*
X77266800Y-191711988D02*
X74498200Y-194480588D01*
%TO.N,Net-(D24-K)*%
X75361800Y-204145149D02*
X77063600Y-202443349D01*
%TO.N,Net-(D22-K)*%
X74537611Y-187913377D02*
X74537611Y-184292411D01*
X93167200Y-155262988D02*
X95072200Y-153357988D01*
%TO.N,Net-(D24-K)*%
X90481800Y-178825149D02*
X92557600Y-176749349D01*
%TO.N,Net-(D14-A)*%
X79197611Y-143400777D02*
X78105000Y-144493388D01*
X75587611Y-165400377D02*
X74397611Y-166590377D01*
X76797611Y-157992777D02*
X75587611Y-159202777D01*
X80387611Y-133752411D02*
X80387611Y-130831577D01*
%TO.N,Net-(D24-K)*%
X92667011Y-151630788D02*
X91059000Y-150022777D01*
X84658200Y-187181768D02*
X86711890Y-185128078D01*
%TO.N,Net-(D22-K)*%
X79552800Y-170302105D02*
X79552800Y-177157788D01*
X124154290Y-119697988D02*
X116535200Y-119697988D01*
%TO.N,Net-(D24-K)*%
X70927611Y-205952411D02*
X70927611Y-207017377D01*
X77063600Y-199876368D02*
X79151890Y-197788078D01*
X88620600Y-183219368D02*
X88620600Y-180662988D01*
%TO.N,Net-(D22-K)*%
X116535200Y-119697988D02*
X109484000Y-119697988D01*
X103805749Y-151709098D02*
X106525659Y-148989188D01*
%TO.N,Net-(D24-K)*%
X67119611Y-210825377D02*
X67119611Y-213095611D01*
X91059000Y-150022777D02*
X91059000Y-144722589D01*
%TO.N,Net-(D20-K)*%
X93827600Y-169320266D02*
X93827600Y-166787247D01*
X93827600Y-166787247D02*
X96245749Y-164369098D01*
%TO.N,Net-(D22-K)*%
X97108016Y-145251572D02*
X97108016Y-142363604D01*
X114757200Y-139210188D02*
X113161800Y-140805588D01*
X111590011Y-144949957D02*
X111590011Y-142416938D01*
X120721800Y-128185149D02*
X122105611Y-126801338D01*
%TO.N,Net-(D20-K)*%
X100965000Y-140886588D02*
X99775016Y-139696604D01*
X100965000Y-145179188D02*
X100965000Y-142283588D01*
%TO.N,Net-(D14-A)*%
X74397611Y-166590377D02*
X74397611Y-169852411D01*
X70787611Y-191512411D02*
X70787611Y-194508177D01*
%TO.N,Net-(D20-K)*%
X76937611Y-167530177D02*
X76937611Y-169852411D01*
X75727611Y-175090177D02*
X76937611Y-173880177D01*
%TO.N,Net-(D16-K)*%
X118925749Y-126389098D02*
X116586000Y-128728847D01*
%TO.N,Net-(D18-K)*%
X111861600Y-129943822D02*
X117606634Y-124198788D01*
%TO.N,Net-(D24-K)*%
X81229200Y-193177749D02*
X82921800Y-191485149D01*
%TO.N,/CB4*%
X93256100Y-131837993D02*
X91665348Y-130247241D01*
X93256100Y-131837993D02*
X93256100Y-138511688D01*
X93256100Y-138511688D02*
X94915984Y-140171572D01*
%TO.N,/CB1*%
X95907988Y-126004601D02*
X100883975Y-130980588D01*
%TO.N,Net-(D16-K)*%
X89941400Y-169771022D02*
X84861400Y-174851022D01*
%TO.N,Net-(D18-K)*%
X111861600Y-135146188D02*
X111861600Y-129943822D01*
X103378000Y-145941188D02*
X100558600Y-148760588D01*
%TO.N,Net-(D14-K)*%
X82067400Y-172865188D02*
X82067400Y-178351588D01*
X86436200Y-150157588D02*
X86436200Y-168496388D01*
%TO.N,Net-(D14-A)*%
X79197611Y-140972411D02*
X79197611Y-143400777D01*
X71997611Y-180725177D02*
X71997611Y-184292411D01*
X73187611Y-175963988D02*
X73187611Y-179535177D01*
X80387611Y-133752411D02*
X80387611Y-137130777D01*
%TO.N,Net-(D24-K)*%
X82921800Y-191485149D02*
X84658200Y-189748749D01*
%TO.N,Net-(D14-A)*%
X68387611Y-202140577D02*
X68387611Y-205952411D01*
X70787611Y-187904177D02*
X70787611Y-191512411D01*
%TO.N,Net-(D24-K)*%
X92557600Y-176749349D02*
X92557600Y-174182368D01*
%TO.N,Net-(D14-A)*%
X87169338Y-144713301D02*
X87169338Y-146376450D01*
X71997611Y-184292411D02*
X71997611Y-186694177D01*
%TO.N,Net-(D24-K)*%
X96164400Y-168013788D02*
X96193161Y-168013788D01*
%TO.N,Net-(D14-K)*%
X105367011Y-144043999D02*
X106675039Y-145352027D01*
X84658200Y-126524878D02*
X84658200Y-129735988D01*
%TO.N,Net-(D24-K)*%
X92794011Y-151630788D02*
X92667011Y-151630788D01*
%TD*%
%TA.AperFunction,Conductor*%
%TO.N,GND2*%
G36*
X123658411Y-116771440D02*
G01*
X124036377Y-116788579D01*
X124047812Y-116789631D01*
X124419716Y-116841311D01*
X124430993Y-116843415D01*
X124796521Y-116929325D01*
X124807556Y-116932465D01*
X125163545Y-117051861D01*
X125174257Y-117056016D01*
X125517640Y-117207867D01*
X125527920Y-117212995D01*
X125689548Y-117303218D01*
X125855770Y-117396006D01*
X125865539Y-117402070D01*
X126020277Y-117508361D01*
X126175023Y-117614659D01*
X126184174Y-117621590D01*
X126472644Y-117861940D01*
X126481122Y-117869697D01*
X126746076Y-118135724D01*
X126753803Y-118144238D01*
X126992970Y-118433653D01*
X126999877Y-118442847D01*
X127211219Y-118753191D01*
X127217243Y-118762985D01*
X127398921Y-119091556D01*
X127404012Y-119101866D01*
X127554475Y-119445856D01*
X127558590Y-119456593D01*
X127676544Y-119813046D01*
X127679646Y-119824117D01*
X127731317Y-120048019D01*
X127761973Y-120180857D01*
X127764072Y-120189950D01*
X127766136Y-120201262D01*
X127816315Y-120573368D01*
X127817321Y-120584823D01*
X127832815Y-120959948D01*
X127832757Y-120971446D01*
X127813435Y-121346421D01*
X127812311Y-121357864D01*
X127758343Y-121729412D01*
X127756165Y-121740702D01*
X127668007Y-122105676D01*
X127664791Y-122116717D01*
X127543211Y-122471932D01*
X127538988Y-122482626D01*
X127385017Y-122825078D01*
X127379820Y-122835335D01*
X127193381Y-123164540D01*
X127192947Y-123165301D01*
X127191726Y-123167420D01*
X127156870Y-123222810D01*
X127153424Y-123233952D01*
X127146514Y-123245956D01*
X127146097Y-123246353D01*
X127145519Y-123247653D01*
X72209081Y-215264916D01*
X72206002Y-215269405D01*
X72171477Y-215327885D01*
X72168438Y-215332771D01*
X71949672Y-215666877D01*
X71942927Y-215676202D01*
X71695934Y-215986319D01*
X71688354Y-215994979D01*
X71413668Y-216280865D01*
X71405318Y-216288785D01*
X71105313Y-216547972D01*
X71096265Y-216555084D01*
X70773511Y-216785348D01*
X70763842Y-216791590D01*
X70421132Y-216990938D01*
X70410926Y-216996256D01*
X70051227Y-217162964D01*
X70040572Y-217167314D01*
X69666949Y-217299963D01*
X69655936Y-217303306D01*
X69271638Y-217400739D01*
X69260364Y-217403047D01*
X68868670Y-217464436D01*
X68857229Y-217465688D01*
X68461542Y-217490497D01*
X68450035Y-217490683D01*
X68053758Y-217478700D01*
X68042283Y-217477819D01*
X67648818Y-217429147D01*
X67637474Y-217427206D01*
X67250204Y-217342262D01*
X67239090Y-217339277D01*
X66861385Y-217218802D01*
X66850594Y-217214800D01*
X66738781Y-217167314D01*
X66485659Y-217059815D01*
X66475300Y-217054836D01*
X66126322Y-216866693D01*
X66116457Y-216860768D01*
X65786415Y-216641076D01*
X65777140Y-216634260D01*
X65751165Y-216613249D01*
X65468901Y-216384923D01*
X65460299Y-216377278D01*
X65176495Y-216100431D01*
X65168639Y-216092021D01*
X64911732Y-215790062D01*
X64904689Y-215780960D01*
X64676879Y-215456477D01*
X64670711Y-215446762D01*
X64603552Y-215329268D01*
X64473965Y-215102557D01*
X64468727Y-215092318D01*
X64304733Y-214731337D01*
X64300476Y-214720680D01*
X64170653Y-214346039D01*
X64167397Y-214335011D01*
X64131323Y-214188069D01*
X64072871Y-213949972D01*
X64070651Y-213938686D01*
X64059093Y-213861106D01*
X64012232Y-213546552D01*
X64011067Y-213535107D01*
X63996950Y-213278904D01*
X63989253Y-213139220D01*
X63989155Y-213127746D01*
X63994837Y-212977513D01*
X65619111Y-212977513D01*
X65619111Y-213213708D01*
X65656057Y-213446979D01*
X65729044Y-213671607D01*
X65836268Y-213882044D01*
X65975094Y-214073121D01*
X66142101Y-214240128D01*
X66333178Y-214378954D01*
X66432602Y-214429613D01*
X66543614Y-214486177D01*
X66543616Y-214486177D01*
X66543619Y-214486179D01*
X66664023Y-214525300D01*
X66768242Y-214559164D01*
X67001514Y-214596111D01*
X67001519Y-214596111D01*
X67237708Y-214596111D01*
X67470979Y-214559164D01*
X67503350Y-214548646D01*
X67695603Y-214486179D01*
X67906044Y-214378954D01*
X68097121Y-214240128D01*
X68120677Y-214216571D01*
X68181999Y-214183086D01*
X68251690Y-214188069D01*
X68305006Y-214226564D01*
X68392179Y-214335011D01*
X68404671Y-214350551D01*
X68548858Y-214466453D01*
X68714590Y-214548648D01*
X68894112Y-214593293D01*
X68894113Y-214593293D01*
X68894116Y-214593294D01*
X68935657Y-214596111D01*
X68935659Y-214596111D01*
X70383563Y-214596111D01*
X70383565Y-214596111D01*
X70425106Y-214593294D01*
X70604632Y-214548648D01*
X70770364Y-214466453D01*
X70914551Y-214350551D01*
X71030453Y-214206364D01*
X71112648Y-214040632D01*
X71157294Y-213861106D01*
X71160111Y-213819565D01*
X71160111Y-212371657D01*
X71157294Y-212330116D01*
X71112648Y-212150590D01*
X71030453Y-211984858D01*
X70914551Y-211840671D01*
X70914549Y-211840669D01*
X70914544Y-211840664D01*
X70912314Y-211838872D01*
X70911310Y-211837431D01*
X70909793Y-211835913D01*
X70910064Y-211835641D01*
X70872395Y-211781529D01*
X70869815Y-211711707D01*
X70902318Y-211654546D01*
X73443589Y-209113277D01*
X73531194Y-208982167D01*
X73591538Y-208836485D01*
X73622300Y-208681830D01*
X73622300Y-208524145D01*
X73622300Y-206757425D01*
X73639239Y-206694864D01*
X74103772Y-205899902D01*
X74351214Y-205476450D01*
X74402031Y-205428502D01*
X74470706Y-205415638D01*
X74535435Y-205441945D01*
X74545955Y-205451332D01*
X74812683Y-205718061D01*
X74812693Y-205718070D01*
X74812699Y-205718076D01*
X74828382Y-205731767D01*
X74844061Y-205745455D01*
X74844071Y-205745462D01*
X74949740Y-205809040D01*
X75002578Y-205840832D01*
X75177889Y-205899902D01*
X75325721Y-205915978D01*
X75361798Y-205919902D01*
X75361800Y-205919902D01*
X75361802Y-205919902D01*
X75394655Y-205916328D01*
X75545711Y-205899902D01*
X75721022Y-205840832D01*
X75879535Y-205745458D01*
X75910901Y-205718076D01*
X75910910Y-205718067D01*
X75910917Y-205718061D01*
X76934712Y-204694266D01*
X76934718Y-204694259D01*
X76934727Y-204694250D01*
X76962109Y-204662884D01*
X77057483Y-204504371D01*
X77116553Y-204329060D01*
X77136553Y-204145149D01*
X77116553Y-203961238D01*
X77057483Y-203785927D01*
X77030681Y-203741382D01*
X77012986Y-203673792D01*
X77034642Y-203607363D01*
X77049245Y-203589780D01*
X77685389Y-202953638D01*
X77772994Y-202822528D01*
X77833338Y-202676846D01*
X77864100Y-202522191D01*
X77864100Y-202364506D01*
X77864100Y-200259307D01*
X77883785Y-200192268D01*
X77900415Y-200171630D01*
X78773021Y-199299023D01*
X78834342Y-199265540D01*
X78880093Y-199264233D01*
X79033798Y-199288578D01*
X79033800Y-199288578D01*
X79269987Y-199288578D01*
X79503258Y-199251631D01*
X79727882Y-199178646D01*
X79938323Y-199071421D01*
X80129400Y-198932595D01*
X80296407Y-198765588D01*
X80435233Y-198574511D01*
X80542458Y-198364070D01*
X80615443Y-198139446D01*
X80652390Y-197906175D01*
X80652390Y-197669988D01*
X80652390Y-197669986D01*
X80628045Y-197516283D01*
X80636999Y-197446993D01*
X80662834Y-197409210D01*
X81850989Y-196221057D01*
X81938594Y-196089947D01*
X81998937Y-195944265D01*
X82029700Y-195789610D01*
X82029700Y-195631926D01*
X82029700Y-193560688D01*
X82049385Y-193493649D01*
X82066015Y-193473011D01*
X82366427Y-193172598D01*
X82427748Y-193139115D01*
X82497439Y-193144099D01*
X82518031Y-193154029D01*
X82562578Y-193180832D01*
X82737889Y-193239902D01*
X82885721Y-193255978D01*
X82921798Y-193259902D01*
X82921800Y-193259902D01*
X82921802Y-193259902D01*
X82954655Y-193256328D01*
X83105711Y-193239902D01*
X83281022Y-193180832D01*
X83439535Y-193085458D01*
X83470901Y-193058076D01*
X83470910Y-193058067D01*
X83470917Y-193058061D01*
X84494712Y-192034266D01*
X84494718Y-192034259D01*
X84494727Y-192034250D01*
X84522109Y-192002884D01*
X84617483Y-191844371D01*
X84676553Y-191669060D01*
X84696553Y-191485149D01*
X84676553Y-191301238D01*
X84617483Y-191125927D01*
X84590681Y-191081382D01*
X84572986Y-191013792D01*
X84594642Y-190947363D01*
X84609245Y-190929780D01*
X85279988Y-190259039D01*
X85281036Y-190257471D01*
X85367594Y-190127928D01*
X85414483Y-190014728D01*
X85427937Y-189982247D01*
X85458700Y-189827592D01*
X85458700Y-189669907D01*
X85458700Y-187564707D01*
X85478385Y-187497668D01*
X85495015Y-187477030D01*
X86333021Y-186639023D01*
X86394342Y-186605540D01*
X86440093Y-186604233D01*
X86593798Y-186628578D01*
X86593800Y-186628578D01*
X86829987Y-186628578D01*
X87063258Y-186591631D01*
X87287882Y-186518646D01*
X87498323Y-186411421D01*
X87689400Y-186272595D01*
X87856407Y-186105588D01*
X87995233Y-185914511D01*
X88102458Y-185704070D01*
X88175443Y-185479446D01*
X88182178Y-185436924D01*
X88212390Y-185246175D01*
X88212390Y-185009988D01*
X88212390Y-185009986D01*
X88188045Y-184856283D01*
X88196999Y-184786993D01*
X88222834Y-184749210D01*
X89242389Y-183729657D01*
X89329994Y-183598547D01*
X89390338Y-183452865D01*
X89421100Y-183298210D01*
X89421100Y-183140525D01*
X89421100Y-181069288D01*
X89440785Y-181002249D01*
X89457415Y-180981611D01*
X89926427Y-180512598D01*
X89987748Y-180479115D01*
X90057439Y-180484099D01*
X90078031Y-180494029D01*
X90122578Y-180520832D01*
X90297889Y-180579902D01*
X90445721Y-180595978D01*
X90481798Y-180599902D01*
X90481800Y-180599902D01*
X90481802Y-180599902D01*
X90514655Y-180596328D01*
X90665711Y-180579902D01*
X90841022Y-180520832D01*
X90999535Y-180425458D01*
X91030901Y-180398076D01*
X91030910Y-180398067D01*
X91030917Y-180398061D01*
X92054712Y-179374266D01*
X92054718Y-179374259D01*
X92054727Y-179374250D01*
X92082109Y-179342884D01*
X92177483Y-179184371D01*
X92236553Y-179009060D01*
X92256553Y-178825149D01*
X92236553Y-178641238D01*
X92177483Y-178465927D01*
X92150681Y-178421382D01*
X92132986Y-178353792D01*
X92154642Y-178287363D01*
X92169245Y-178269780D01*
X93179389Y-177259638D01*
X93266994Y-177128528D01*
X93327338Y-176982846D01*
X93358100Y-176828191D01*
X93358100Y-176670506D01*
X93358100Y-174565307D01*
X93377785Y-174498268D01*
X93394415Y-174477630D01*
X93893021Y-173979023D01*
X93954342Y-173945540D01*
X94000093Y-173944233D01*
X94153798Y-173968578D01*
X94153800Y-173968578D01*
X94389987Y-173968578D01*
X94623258Y-173931631D01*
X94847882Y-173858646D01*
X95058323Y-173751421D01*
X95249400Y-173612595D01*
X95416407Y-173445588D01*
X95555233Y-173254511D01*
X95662458Y-173044070D01*
X95735443Y-172819446D01*
X95772390Y-172586175D01*
X95772390Y-172349988D01*
X95772390Y-172349986D01*
X95748045Y-172196282D01*
X95756999Y-172126992D01*
X95782834Y-172089209D01*
X96674686Y-171197358D01*
X96674689Y-171197357D01*
X96786189Y-171085857D01*
X96873794Y-170954747D01*
X96934137Y-170809065D01*
X96945713Y-170750869D01*
X96964900Y-170654411D01*
X96964900Y-170496726D01*
X96964900Y-168425488D01*
X96984585Y-168358449D01*
X97001215Y-168337811D01*
X97486427Y-167852598D01*
X97547748Y-167819115D01*
X97617439Y-167824099D01*
X97638031Y-167834029D01*
X97682578Y-167860832D01*
X97857889Y-167919902D01*
X98005721Y-167935978D01*
X98041798Y-167939902D01*
X98041800Y-167939902D01*
X98041802Y-167939902D01*
X98074655Y-167936328D01*
X98225711Y-167919902D01*
X98401022Y-167860832D01*
X98559535Y-167765458D01*
X98590901Y-167738076D01*
X98590910Y-167738067D01*
X98590917Y-167738061D01*
X99614712Y-166714266D01*
X99614718Y-166714259D01*
X99614727Y-166714250D01*
X99642109Y-166682884D01*
X99737483Y-166524371D01*
X99796553Y-166349060D01*
X99816553Y-166165149D01*
X99796553Y-165981238D01*
X99737483Y-165805927D01*
X99710681Y-165761382D01*
X99692986Y-165693792D01*
X99714642Y-165627363D01*
X99729245Y-165609780D01*
X100646989Y-164692038D01*
X100678901Y-164644278D01*
X100734594Y-164560928D01*
X100794937Y-164415246D01*
X100825700Y-164260591D01*
X100825700Y-161997707D01*
X100845385Y-161930668D01*
X100862015Y-161910030D01*
X101453021Y-161319023D01*
X101514342Y-161285540D01*
X101560093Y-161284233D01*
X101713798Y-161308578D01*
X101713800Y-161308578D01*
X101949987Y-161308578D01*
X102183258Y-161271631D01*
X102407882Y-161198646D01*
X102618323Y-161091421D01*
X102809400Y-160952595D01*
X102976407Y-160785588D01*
X103115233Y-160594511D01*
X103222458Y-160384070D01*
X103295443Y-160159446D01*
X103332390Y-159926175D01*
X103332390Y-159689988D01*
X103332390Y-159689986D01*
X103308045Y-159536283D01*
X103316999Y-159466993D01*
X103342834Y-159429210D01*
X104539738Y-158232308D01*
X104627343Y-158101198D01*
X104687686Y-157955516D01*
X104718449Y-157800861D01*
X104718449Y-157643177D01*
X104718449Y-155571939D01*
X104738134Y-155504900D01*
X104754764Y-155484262D01*
X105046427Y-155192598D01*
X105107748Y-155159115D01*
X105177439Y-155164099D01*
X105198031Y-155174029D01*
X105242578Y-155200832D01*
X105417889Y-155259902D01*
X105565721Y-155275978D01*
X105601798Y-155279902D01*
X105601800Y-155279902D01*
X105601802Y-155279902D01*
X105634655Y-155276328D01*
X105785711Y-155259902D01*
X105961022Y-155200832D01*
X106119535Y-155105458D01*
X106150901Y-155078076D01*
X106150910Y-155078067D01*
X106150917Y-155078061D01*
X107174712Y-154054266D01*
X107174718Y-154054259D01*
X107174727Y-154054250D01*
X107202109Y-154022884D01*
X107297483Y-153864371D01*
X107356553Y-153689060D01*
X107376553Y-153505149D01*
X107356553Y-153321238D01*
X107297483Y-153145927D01*
X107202109Y-152987414D01*
X107174727Y-152956048D01*
X107174721Y-152956042D01*
X107174712Y-152956032D01*
X106150917Y-151932237D01*
X106150906Y-151932227D01*
X106150901Y-151932222D01*
X106139265Y-151922064D01*
X106119538Y-151904842D01*
X106119528Y-151904835D01*
X105961022Y-151809466D01*
X105896697Y-151787791D01*
X105839453Y-151747730D01*
X105812955Y-151683080D01*
X105825616Y-151614367D01*
X105829219Y-151607745D01*
X106855694Y-149851126D01*
X106906512Y-149803177D01*
X106962755Y-149789688D01*
X107629624Y-149789688D01*
X107629625Y-149789687D01*
X107784277Y-149758925D01*
X107929959Y-149698582D01*
X108061069Y-149610977D01*
X109013021Y-148659023D01*
X109074342Y-148625540D01*
X109120093Y-148624233D01*
X109273798Y-148648578D01*
X109273800Y-148648578D01*
X109509987Y-148648578D01*
X109743258Y-148611631D01*
X109967882Y-148538646D01*
X110178323Y-148431421D01*
X110369400Y-148292595D01*
X110536407Y-148125588D01*
X110675233Y-147934511D01*
X110782458Y-147724070D01*
X110855443Y-147499446D01*
X110866931Y-147426916D01*
X110892390Y-147266175D01*
X110892390Y-147029988D01*
X110892390Y-147029986D01*
X110868045Y-146876283D01*
X110876999Y-146806993D01*
X110902834Y-146769210D01*
X112211800Y-145460246D01*
X112299405Y-145329136D01*
X112359749Y-145183454D01*
X112390511Y-145028799D01*
X112390511Y-144871114D01*
X112390511Y-142799877D01*
X112410196Y-142732838D01*
X112426830Y-142712196D01*
X112606427Y-142532598D01*
X112667748Y-142499115D01*
X112737439Y-142504099D01*
X112758031Y-142514029D01*
X112802578Y-142540832D01*
X112977889Y-142599902D01*
X113125721Y-142615978D01*
X113161798Y-142619902D01*
X113161800Y-142619902D01*
X113161802Y-142619902D01*
X113194655Y-142616328D01*
X113345711Y-142599902D01*
X113521022Y-142540832D01*
X113679535Y-142445458D01*
X113710901Y-142418076D01*
X113710910Y-142418067D01*
X113710917Y-142418061D01*
X114734712Y-141394266D01*
X114734718Y-141394259D01*
X114734727Y-141394250D01*
X114762109Y-141362884D01*
X114857483Y-141204371D01*
X114916553Y-141029060D01*
X114935556Y-140854319D01*
X114936553Y-140845151D01*
X114936553Y-140845146D01*
X114931193Y-140795865D01*
X114916553Y-140661238D01*
X114857483Y-140485927D01*
X114815819Y-140416682D01*
X114798124Y-140349093D01*
X114819780Y-140282664D01*
X114834384Y-140265079D01*
X115267486Y-139831978D01*
X115267489Y-139831977D01*
X115378989Y-139720477D01*
X115466594Y-139589367D01*
X115526937Y-139443685D01*
X115552052Y-139317425D01*
X115557700Y-139289031D01*
X115557700Y-139131346D01*
X115557700Y-137065707D01*
X115577385Y-136998668D01*
X115594014Y-136978030D01*
X116573021Y-135999023D01*
X116634342Y-135965540D01*
X116680093Y-135964233D01*
X116833798Y-135988578D01*
X116833800Y-135988578D01*
X117069987Y-135988578D01*
X117303258Y-135951631D01*
X117527882Y-135878646D01*
X117738323Y-135771421D01*
X117929400Y-135632595D01*
X118096407Y-135465588D01*
X118235233Y-135274511D01*
X118342458Y-135064070D01*
X118415443Y-134839446D01*
X118416105Y-134835265D01*
X118452390Y-134606175D01*
X118452390Y-134369988D01*
X118436991Y-134272765D01*
X118428045Y-134216283D01*
X118436999Y-134146993D01*
X118462834Y-134109210D01*
X119671589Y-132900457D01*
X119759194Y-132769347D01*
X119819538Y-132623665D01*
X119850300Y-132469010D01*
X119850300Y-132311325D01*
X119850300Y-130372927D01*
X119869985Y-130305888D01*
X119886615Y-130285250D01*
X120254679Y-129917185D01*
X120316000Y-129883702D01*
X120381948Y-129887358D01*
X120537889Y-129939902D01*
X120599192Y-129946568D01*
X120721798Y-129959902D01*
X120721800Y-129959902D01*
X120721802Y-129959902D01*
X120754655Y-129956328D01*
X120905711Y-129939902D01*
X121081022Y-129880832D01*
X121239535Y-129785458D01*
X121270901Y-129758076D01*
X121270910Y-129758067D01*
X121270917Y-129758061D01*
X122294712Y-128734266D01*
X122294718Y-128734259D01*
X122294727Y-128734250D01*
X122322109Y-128702884D01*
X122417483Y-128544371D01*
X122476553Y-128369060D01*
X122496553Y-128185149D01*
X122476553Y-128001238D01*
X122417483Y-127825927D01*
X122390681Y-127781382D01*
X122372986Y-127713792D01*
X122394642Y-127647363D01*
X122409247Y-127629778D01*
X122615897Y-127423128D01*
X122615900Y-127423127D01*
X122727400Y-127311627D01*
X122815005Y-127180517D01*
X122875348Y-127034835D01*
X122901362Y-126904057D01*
X122906111Y-126880181D01*
X122906111Y-126722496D01*
X122906111Y-126080328D01*
X122925796Y-126013289D01*
X122942430Y-125992647D01*
X125437386Y-123497691D01*
X125437389Y-123497688D01*
X125481455Y-123431738D01*
X125524994Y-123366578D01*
X125585337Y-123220896D01*
X125616100Y-123066241D01*
X125616100Y-121139111D01*
X125635785Y-121072072D01*
X125652419Y-121051430D01*
X125663579Y-121040270D01*
X125802405Y-120849193D01*
X125909630Y-120638752D01*
X125982615Y-120414128D01*
X125990083Y-120366978D01*
X126019562Y-120180857D01*
X126019562Y-119944662D01*
X125982615Y-119711391D01*
X125921185Y-119522330D01*
X125909630Y-119486768D01*
X125909628Y-119486765D01*
X125909628Y-119486763D01*
X125802404Y-119276326D01*
X125663579Y-119085250D01*
X125496572Y-118918243D01*
X125305495Y-118779417D01*
X125095058Y-118672193D01*
X124870430Y-118599206D01*
X124637159Y-118562260D01*
X124637154Y-118562260D01*
X124400970Y-118562260D01*
X124400965Y-118562260D01*
X124167693Y-118599206D01*
X123943065Y-118672193D01*
X123732625Y-118779419D01*
X123602713Y-118873806D01*
X123536907Y-118897286D01*
X123529828Y-118897488D01*
X118121117Y-118897488D01*
X118054078Y-118877803D01*
X118008323Y-118824999D01*
X118000784Y-118803420D01*
X117988237Y-118752967D01*
X117906042Y-118587235D01*
X117834726Y-118498515D01*
X117790140Y-118443047D01*
X117687985Y-118360933D01*
X117645953Y-118327146D01*
X117645951Y-118327145D01*
X117645950Y-118327144D01*
X117480223Y-118244952D01*
X117480221Y-118244951D01*
X117300697Y-118200305D01*
X117300701Y-118200305D01*
X117269539Y-118198192D01*
X117259154Y-118197488D01*
X115811246Y-118197488D01*
X115799377Y-118198292D01*
X115769700Y-118200305D01*
X115590178Y-118244951D01*
X115590176Y-118244952D01*
X115424449Y-118327144D01*
X115280259Y-118443047D01*
X115164356Y-118587237D01*
X115082164Y-118752964D01*
X115082163Y-118752965D01*
X115076906Y-118774102D01*
X115069616Y-118803416D01*
X115034336Y-118863721D01*
X114972050Y-118895380D01*
X114949283Y-118897488D01*
X110803038Y-118897488D01*
X110735999Y-118877803D01*
X110702720Y-118846374D01*
X110693652Y-118833893D01*
X110618517Y-118730478D01*
X110451510Y-118563471D01*
X110260433Y-118424645D01*
X110049996Y-118317421D01*
X109825368Y-118244434D01*
X109592097Y-118207488D01*
X109592092Y-118207488D01*
X109355908Y-118207488D01*
X109355903Y-118207488D01*
X109122631Y-118244434D01*
X108898003Y-118317421D01*
X108687566Y-118424645D01*
X108585920Y-118498496D01*
X108496490Y-118563471D01*
X108496488Y-118563473D01*
X108496487Y-118563473D01*
X108329485Y-118730475D01*
X108329483Y-118730478D01*
X108260810Y-118824999D01*
X108245280Y-118846374D01*
X108189950Y-118889039D01*
X108144962Y-118897488D01*
X103965117Y-118897488D01*
X103898078Y-118877803D01*
X103852323Y-118824999D01*
X103844784Y-118803420D01*
X103832237Y-118752967D01*
X103750042Y-118587235D01*
X103678726Y-118498515D01*
X103634140Y-118443047D01*
X103531985Y-118360933D01*
X103489953Y-118327146D01*
X103489951Y-118327145D01*
X103489950Y-118327144D01*
X103324223Y-118244952D01*
X103324221Y-118244951D01*
X103144697Y-118200305D01*
X103144701Y-118200305D01*
X103113539Y-118198192D01*
X103103154Y-118197488D01*
X101655246Y-118197488D01*
X101643377Y-118198292D01*
X101613700Y-118200305D01*
X101434178Y-118244951D01*
X101434176Y-118244952D01*
X101268449Y-118327144D01*
X101124259Y-118443047D01*
X101008356Y-118587237D01*
X100926164Y-118752964D01*
X100926163Y-118752966D01*
X100881517Y-118932488D01*
X100878700Y-118974036D01*
X100878700Y-120417188D01*
X100859015Y-120484227D01*
X100806211Y-120529982D01*
X100754700Y-120541188D01*
X99989439Y-120541188D01*
X99922400Y-120521503D01*
X99901758Y-120504869D01*
X98483092Y-119086201D01*
X98483088Y-119086198D01*
X98351985Y-118998597D01*
X98351972Y-118998590D01*
X98206301Y-118938252D01*
X98206289Y-118938249D01*
X98051645Y-118907488D01*
X98051642Y-118907488D01*
X96654304Y-118907488D01*
X96587265Y-118887803D01*
X96553986Y-118856374D01*
X96462517Y-118730478D01*
X96295510Y-118563471D01*
X96104433Y-118424645D01*
X95893996Y-118317421D01*
X95669368Y-118244434D01*
X95436097Y-118207488D01*
X95436092Y-118207488D01*
X95199908Y-118207488D01*
X95199903Y-118207488D01*
X94966631Y-118244434D01*
X94742003Y-118317421D01*
X94531566Y-118424645D01*
X94429920Y-118498496D01*
X94340490Y-118563471D01*
X94340488Y-118563473D01*
X94340487Y-118563473D01*
X94173485Y-118730475D01*
X94173485Y-118730476D01*
X94173483Y-118730478D01*
X94137927Y-118779417D01*
X94034657Y-118921554D01*
X93927433Y-119131992D01*
X93910130Y-119185246D01*
X93870692Y-119242921D01*
X93806333Y-119270119D01*
X93792199Y-119270927D01*
X90514051Y-119270927D01*
X90447012Y-119251242D01*
X90426370Y-119234608D01*
X89690277Y-118498514D01*
X89690267Y-118498505D01*
X89690262Y-118498500D01*
X89678626Y-118488342D01*
X89658899Y-118471120D01*
X89658889Y-118471113D01*
X89500385Y-118375745D01*
X89500384Y-118375744D01*
X89500383Y-118375744D01*
X89325072Y-118316674D01*
X89141163Y-118296674D01*
X89141159Y-118296674D01*
X88957249Y-118316674D01*
X88781936Y-118375745D01*
X88623432Y-118471113D01*
X88623422Y-118471120D01*
X88592064Y-118498496D01*
X88592044Y-118498515D01*
X87568249Y-119522310D01*
X87568230Y-119522330D01*
X87540854Y-119553688D01*
X87540847Y-119553698D01*
X87445479Y-119712202D01*
X87386408Y-119887515D01*
X87366408Y-120071424D01*
X87366408Y-120071429D01*
X87383606Y-120229572D01*
X87371285Y-120298347D01*
X87323737Y-120349542D01*
X87260333Y-120366978D01*
X87227013Y-120366978D01*
X86993741Y-120403924D01*
X86769113Y-120476911D01*
X86558676Y-120584135D01*
X86483503Y-120638752D01*
X86367600Y-120722961D01*
X86367598Y-120722963D01*
X86367597Y-120722963D01*
X86200595Y-120889965D01*
X86200595Y-120889966D01*
X86200593Y-120889968D01*
X86149749Y-120959948D01*
X86061767Y-121081044D01*
X85954543Y-121291481D01*
X85881556Y-121516109D01*
X85844610Y-121749380D01*
X85844610Y-121985575D01*
X85881557Y-122218849D01*
X85909257Y-122304103D01*
X85911252Y-122373944D01*
X85879007Y-122430101D01*
X84348368Y-123960740D01*
X84287045Y-123994225D01*
X84217353Y-123989241D01*
X84196758Y-123979309D01*
X84123394Y-123935167D01*
X83948083Y-123876097D01*
X83764174Y-123856097D01*
X83764170Y-123856097D01*
X83580260Y-123876097D01*
X83404947Y-123935168D01*
X83246443Y-124030536D01*
X83246433Y-124030543D01*
X83215075Y-124057919D01*
X83215055Y-124057938D01*
X82191260Y-125081733D01*
X82191241Y-125081753D01*
X82163865Y-125113111D01*
X82163858Y-125113121D01*
X82068490Y-125271625D01*
X82009419Y-125446938D01*
X81989419Y-125630847D01*
X81989419Y-125630852D01*
X82006617Y-125788995D01*
X81994296Y-125857770D01*
X81946748Y-125908965D01*
X81883344Y-125926401D01*
X81850024Y-125926401D01*
X81616752Y-125963347D01*
X81392124Y-126036334D01*
X81181687Y-126143558D01*
X81072671Y-126222763D01*
X80990611Y-126282384D01*
X80990609Y-126282386D01*
X80990608Y-126282386D01*
X80823606Y-126449388D01*
X80823606Y-126449389D01*
X80823604Y-126449391D01*
X80808805Y-126469760D01*
X80684778Y-126640467D01*
X80577554Y-126850904D01*
X80504567Y-127075532D01*
X80467621Y-127308803D01*
X80467621Y-127544998D01*
X80504567Y-127778269D01*
X80577554Y-128002897D01*
X80670417Y-128185149D01*
X80684778Y-128213334D01*
X80823604Y-128404411D01*
X80990611Y-128571418D01*
X81116509Y-128662888D01*
X81119847Y-128667217D01*
X81124824Y-128669490D01*
X81140952Y-128694586D01*
X81159172Y-128718214D01*
X81160425Y-128724887D01*
X81162598Y-128728268D01*
X81167621Y-128763203D01*
X81167621Y-128868127D01*
X81147936Y-128935166D01*
X81131302Y-128955808D01*
X79877322Y-130209788D01*
X79848244Y-130238866D01*
X79765820Y-130321289D01*
X79678220Y-130452391D01*
X79678213Y-130452404D01*
X79617875Y-130598075D01*
X79617872Y-130598087D01*
X79587111Y-130752730D01*
X79587111Y-132166493D01*
X79567426Y-132233532D01*
X79514622Y-132279287D01*
X79493039Y-132286827D01*
X79442594Y-132299372D01*
X79442587Y-132299375D01*
X79276860Y-132381567D01*
X79132670Y-132497470D01*
X79016767Y-132641660D01*
X78934575Y-132807387D01*
X78934574Y-132807389D01*
X78889928Y-132986911D01*
X78887111Y-133028459D01*
X78887111Y-134476362D01*
X78889928Y-134517910D01*
X78934574Y-134697432D01*
X78934575Y-134697434D01*
X79016767Y-134863161D01*
X79132670Y-135007351D01*
X79188691Y-135052382D01*
X79276858Y-135123253D01*
X79442590Y-135205448D01*
X79493037Y-135217993D01*
X79553343Y-135253273D01*
X79585003Y-135315558D01*
X79587111Y-135338327D01*
X79587111Y-136747837D01*
X79567426Y-136814876D01*
X79550792Y-136835518D01*
X78687322Y-137698988D01*
X78648705Y-137737605D01*
X78575820Y-137810489D01*
X78488220Y-137941591D01*
X78488213Y-137941604D01*
X78427875Y-138087275D01*
X78427872Y-138087287D01*
X78397111Y-138241930D01*
X78397111Y-139636106D01*
X78377426Y-139703145D01*
X78345997Y-139736423D01*
X78220107Y-139827889D01*
X78220098Y-139827896D01*
X78053096Y-139994898D01*
X78053096Y-139994899D01*
X78053094Y-139994901D01*
X77993473Y-140076961D01*
X77914268Y-140185977D01*
X77807044Y-140396414D01*
X77734057Y-140621042D01*
X77697111Y-140854313D01*
X77697111Y-141090508D01*
X77734057Y-141323779D01*
X77807044Y-141548407D01*
X77914268Y-141758844D01*
X78053094Y-141949921D01*
X78220101Y-142116928D01*
X78345999Y-142208398D01*
X78388662Y-142263724D01*
X78397111Y-142308713D01*
X78397111Y-143017836D01*
X78377426Y-143084875D01*
X78360792Y-143105517D01*
X77483213Y-143983095D01*
X77483210Y-143983099D01*
X77395609Y-144114202D01*
X77395602Y-144114215D01*
X77335264Y-144259886D01*
X77335261Y-144259898D01*
X77304500Y-144414541D01*
X77304500Y-146577300D01*
X77284815Y-146644339D01*
X77232011Y-146690094D01*
X77210426Y-146697635D01*
X77042589Y-146739374D01*
X77042587Y-146739375D01*
X76876860Y-146821567D01*
X76732670Y-146937470D01*
X76616767Y-147081660D01*
X76534575Y-147247387D01*
X76534574Y-147247389D01*
X76489928Y-147426911D01*
X76487111Y-147468459D01*
X76487111Y-148916362D01*
X76489928Y-148957910D01*
X76534574Y-149137432D01*
X76534575Y-149137434D01*
X76616767Y-149303161D01*
X76732670Y-149447351D01*
X76814784Y-149513356D01*
X76876858Y-149563253D01*
X77042590Y-149645448D01*
X77093037Y-149657993D01*
X77153343Y-149693273D01*
X77185003Y-149755558D01*
X77187111Y-149778327D01*
X77187111Y-150654037D01*
X77167426Y-150721076D01*
X77150792Y-150741718D01*
X76287322Y-151605188D01*
X76231571Y-151660939D01*
X76175820Y-151716689D01*
X76088220Y-151847791D01*
X76088213Y-151847804D01*
X76027875Y-151993475D01*
X76027872Y-151993487D01*
X75997111Y-152148130D01*
X75997111Y-154076106D01*
X75977426Y-154143145D01*
X75945997Y-154176423D01*
X75820107Y-154267889D01*
X75820098Y-154267896D01*
X75653096Y-154434898D01*
X75653096Y-154434899D01*
X75653094Y-154434901D01*
X75593473Y-154516961D01*
X75514268Y-154625977D01*
X75407044Y-154836414D01*
X75334057Y-155061042D01*
X75297111Y-155294313D01*
X75297111Y-155530508D01*
X75334057Y-155763779D01*
X75407044Y-155988407D01*
X75514268Y-156198844D01*
X75653094Y-156389921D01*
X75820101Y-156556928D01*
X75945999Y-156648398D01*
X75988662Y-156703724D01*
X75997111Y-156748713D01*
X75997111Y-157609837D01*
X75977426Y-157676876D01*
X75960792Y-157697518D01*
X75077322Y-158580988D01*
X75021571Y-158636739D01*
X74965820Y-158692489D01*
X74878220Y-158823591D01*
X74878213Y-158823604D01*
X74817875Y-158969275D01*
X74817872Y-158969287D01*
X74787111Y-159123930D01*
X74787111Y-161046493D01*
X74767426Y-161113532D01*
X74714622Y-161159287D01*
X74693039Y-161166827D01*
X74642594Y-161179372D01*
X74642587Y-161179375D01*
X74476860Y-161261567D01*
X74332670Y-161377470D01*
X74216767Y-161521660D01*
X74134575Y-161687387D01*
X74134574Y-161687389D01*
X74089928Y-161866911D01*
X74087111Y-161908459D01*
X74087111Y-163356362D01*
X74089928Y-163397910D01*
X74134574Y-163577432D01*
X74134575Y-163577434D01*
X74216767Y-163743161D01*
X74332670Y-163887351D01*
X74414784Y-163953356D01*
X74476858Y-164003253D01*
X74642590Y-164085448D01*
X74693037Y-164097993D01*
X74753343Y-164133273D01*
X74785003Y-164195558D01*
X74787111Y-164218327D01*
X74787111Y-165017437D01*
X74767426Y-165084476D01*
X74750792Y-165105118D01*
X73887322Y-165968588D01*
X73831571Y-166024339D01*
X73775820Y-166080089D01*
X73688220Y-166211191D01*
X73688213Y-166211204D01*
X73627875Y-166356875D01*
X73627872Y-166356887D01*
X73597111Y-166511530D01*
X73597111Y-168516106D01*
X73577426Y-168583145D01*
X73545997Y-168616423D01*
X73420107Y-168707889D01*
X73420098Y-168707896D01*
X73253096Y-168874898D01*
X73253096Y-168874899D01*
X73253094Y-168874901D01*
X73193473Y-168956961D01*
X73114268Y-169065977D01*
X73007044Y-169276414D01*
X72934057Y-169501042D01*
X72897111Y-169734313D01*
X72897111Y-169970508D01*
X72934057Y-170203779D01*
X73007044Y-170428407D01*
X73080550Y-170572669D01*
X73114268Y-170638844D01*
X73253094Y-170829921D01*
X73420101Y-170996928D01*
X73545999Y-171088398D01*
X73588662Y-171143724D01*
X73597111Y-171188713D01*
X73597111Y-171947837D01*
X73577426Y-172014876D01*
X73560792Y-172035518D01*
X72677322Y-172918988D01*
X72621571Y-172974739D01*
X72565820Y-173030489D01*
X72478220Y-173161591D01*
X72478213Y-173161604D01*
X72417875Y-173307275D01*
X72417872Y-173307287D01*
X72387111Y-173461930D01*
X72387111Y-175486493D01*
X72367426Y-175553532D01*
X72314622Y-175599287D01*
X72293039Y-175606827D01*
X72242594Y-175619372D01*
X72242587Y-175619375D01*
X72076860Y-175701567D01*
X71932670Y-175817470D01*
X71816767Y-175961660D01*
X71734575Y-176127387D01*
X71734574Y-176127389D01*
X71689928Y-176306911D01*
X71687111Y-176348459D01*
X71687111Y-177796362D01*
X71689928Y-177837910D01*
X71734574Y-178017432D01*
X71734575Y-178017434D01*
X71816767Y-178183161D01*
X71932670Y-178327351D01*
X72014784Y-178393356D01*
X72076858Y-178443253D01*
X72242590Y-178525448D01*
X72293037Y-178537993D01*
X72353343Y-178573273D01*
X72385003Y-178635558D01*
X72387111Y-178658327D01*
X72387111Y-179152237D01*
X72367426Y-179219276D01*
X72350792Y-179239918D01*
X71487322Y-180103388D01*
X71431571Y-180159139D01*
X71375820Y-180214889D01*
X71288220Y-180345991D01*
X71288213Y-180346004D01*
X71227875Y-180491675D01*
X71227872Y-180491687D01*
X71197111Y-180646330D01*
X71197111Y-182956106D01*
X71177426Y-183023145D01*
X71145997Y-183056423D01*
X71020107Y-183147889D01*
X71020098Y-183147896D01*
X70853096Y-183314898D01*
X70853096Y-183314899D01*
X70853094Y-183314901D01*
X70793473Y-183396961D01*
X70714268Y-183505977D01*
X70607044Y-183716414D01*
X70534057Y-183941042D01*
X70497111Y-184174313D01*
X70497111Y-184410508D01*
X70534057Y-184643779D01*
X70607044Y-184868407D01*
X70679183Y-185009986D01*
X70714268Y-185078844D01*
X70853094Y-185269921D01*
X71020101Y-185436928D01*
X71145999Y-185528398D01*
X71188662Y-185583724D01*
X71197111Y-185628713D01*
X71197111Y-186311237D01*
X71177426Y-186378276D01*
X71160792Y-186398918D01*
X70277322Y-187282388D01*
X70221571Y-187338139D01*
X70165820Y-187393889D01*
X70078220Y-187524991D01*
X70078213Y-187525004D01*
X70017875Y-187670675D01*
X70017872Y-187670687D01*
X69987111Y-187825330D01*
X69987111Y-189926493D01*
X69967426Y-189993532D01*
X69914622Y-190039287D01*
X69893039Y-190046827D01*
X69842594Y-190059372D01*
X69842587Y-190059375D01*
X69676860Y-190141567D01*
X69532670Y-190257470D01*
X69416767Y-190401660D01*
X69334575Y-190567387D01*
X69334574Y-190567389D01*
X69289928Y-190746911D01*
X69287111Y-190788459D01*
X69287111Y-192236362D01*
X69289928Y-192277910D01*
X69334574Y-192457432D01*
X69334575Y-192457434D01*
X69416767Y-192623161D01*
X69532670Y-192767351D01*
X69614784Y-192833356D01*
X69676858Y-192883253D01*
X69842590Y-192965448D01*
X69893037Y-192977993D01*
X69953343Y-193013273D01*
X69985003Y-193075558D01*
X69987111Y-193098327D01*
X69987111Y-194125237D01*
X69967426Y-194192276D01*
X69950792Y-194212918D01*
X69087322Y-195076388D01*
X69031571Y-195132139D01*
X68975820Y-195187889D01*
X68888220Y-195318991D01*
X68888213Y-195319004D01*
X68827875Y-195464675D01*
X68827872Y-195464687D01*
X68797111Y-195619330D01*
X68797111Y-197396106D01*
X68777426Y-197463145D01*
X68745997Y-197496423D01*
X68620107Y-197587889D01*
X68620098Y-197587896D01*
X68453096Y-197754898D01*
X68453096Y-197754899D01*
X68453094Y-197754901D01*
X68393473Y-197836961D01*
X68314268Y-197945977D01*
X68207044Y-198156414D01*
X68134057Y-198381042D01*
X68097111Y-198614313D01*
X68097111Y-198850508D01*
X68134057Y-199083779D01*
X68207044Y-199308407D01*
X68314268Y-199518844D01*
X68453094Y-199709921D01*
X68620101Y-199876928D01*
X68745999Y-199968398D01*
X68788662Y-200023724D01*
X68797111Y-200068713D01*
X68797111Y-200547637D01*
X68777426Y-200614676D01*
X68760792Y-200635318D01*
X67877322Y-201518788D01*
X67821571Y-201574539D01*
X67765820Y-201630289D01*
X67678220Y-201761391D01*
X67678213Y-201761404D01*
X67617875Y-201907075D01*
X67617872Y-201907087D01*
X67587111Y-202061730D01*
X67587111Y-204366493D01*
X67567426Y-204433532D01*
X67514622Y-204479287D01*
X67493039Y-204486827D01*
X67442594Y-204499372D01*
X67442587Y-204499375D01*
X67276860Y-204581567D01*
X67132670Y-204697470D01*
X67016767Y-204841660D01*
X66934575Y-205007387D01*
X66934574Y-205007389D01*
X66889928Y-205186911D01*
X66887111Y-205228459D01*
X66887111Y-206676362D01*
X66889928Y-206717910D01*
X66934574Y-206897432D01*
X66934575Y-206897434D01*
X67016767Y-207063161D01*
X67132670Y-207207351D01*
X67214784Y-207273356D01*
X67276858Y-207323253D01*
X67442590Y-207405448D01*
X67622112Y-207450093D01*
X67622116Y-207450094D01*
X67646323Y-207451735D01*
X67711876Y-207475911D01*
X67753953Y-207531689D01*
X67759758Y-207598569D01*
X67426205Y-209356285D01*
X67394367Y-209418479D01*
X67392060Y-209420848D01*
X66609322Y-210203588D01*
X66553571Y-210259339D01*
X66497820Y-210315089D01*
X66410220Y-210446191D01*
X66410213Y-210446204D01*
X66349875Y-210591875D01*
X66349872Y-210591887D01*
X66319111Y-210746530D01*
X66319111Y-211759306D01*
X66299426Y-211826345D01*
X66267997Y-211859623D01*
X66142107Y-211951089D01*
X66142098Y-211951096D01*
X65975096Y-212118098D01*
X65975096Y-212118099D01*
X65975094Y-212118101D01*
X65915473Y-212200161D01*
X65836268Y-212309177D01*
X65729044Y-212519614D01*
X65656057Y-212744242D01*
X65619111Y-212977513D01*
X63994837Y-212977513D01*
X64004139Y-212731546D01*
X64005107Y-212720083D01*
X64031448Y-212519614D01*
X64057132Y-212324134D01*
X64058013Y-212318454D01*
X64059673Y-212309178D01*
X64069114Y-212256422D01*
X64067943Y-212242639D01*
X64069145Y-212212007D01*
X77636703Y-129820255D01*
X77638426Y-129816270D01*
X77647400Y-129755295D01*
X77648345Y-129749554D01*
X77648862Y-129746637D01*
X77711176Y-129417807D01*
X77713484Y-129407882D01*
X77802452Y-129085869D01*
X77805570Y-129076158D01*
X77857330Y-128935166D01*
X77920711Y-128762519D01*
X77924605Y-128753125D01*
X78065142Y-128449991D01*
X78069790Y-128440959D01*
X78234767Y-128150400D01*
X78240138Y-128141786D01*
X78428443Y-127865760D01*
X78434506Y-127857614D01*
X78638395Y-127605975D01*
X78646807Y-127596610D01*
X88219132Y-117971986D01*
X88223889Y-117967452D01*
X88482214Y-117734026D01*
X88490446Y-117727209D01*
X88766728Y-117517895D01*
X88775475Y-117511845D01*
X89068804Y-117327166D01*
X89078064Y-117321881D01*
X89386210Y-117163238D01*
X89395939Y-117158751D01*
X89716607Y-117027318D01*
X89726656Y-117023698D01*
X90057503Y-116920437D01*
X90067850Y-116917692D01*
X90406369Y-116843388D01*
X90416894Y-116841550D01*
X90760569Y-116796752D01*
X90771215Y-116795830D01*
X91119323Y-116780795D01*
X91124616Y-116780681D01*
X123581069Y-116771331D01*
X123581946Y-116771389D01*
X123589653Y-116771380D01*
X123589654Y-116771381D01*
X123652667Y-116771314D01*
X123658411Y-116771440D01*
G37*
%TD.AperFunction*%
%TD*%
M02*
