%TF.GenerationSoftware,KiCad,Pcbnew,10.0.2*%
%TF.CreationDate,2026-06-25T10:36:07+03:00*%
%TF.ProjectId,kicad_selka_rev2,6b696361-645f-4736-956c-6b615f726576,2*%
%TF.SameCoordinates,Original*%
%TF.FileFunction,Copper,L1,Top*%
%TF.FilePolarity,Positive*%
%FSLAX46Y46*%
G04 Gerber Fmt 4.6, Leading zero omitted, Abs format (unit mm)*
G04 Created by KiCad (PCBNEW 10.0.2) date 2026-06-25 10:36:07*
%MOMM*%
%LPD*%
G01*
G04 APERTURE LIST*
G04 Aperture macros list*
%AMRoundRect*
0 Rectangle with rounded corners*
0 $1 Rounding radius*
0 $2 $3 $4 $5 $6 $7 $8 $9 X,Y pos of 4 corners*
0 Add a 4 corners polygon primitive as box body*
4,1,4,$2,$3,$4,$5,$6,$7,$8,$9,$2,$3,0*
0 Add four circle primitives for the rounded corners*
1,1,$1+$1,$2,$3*
1,1,$1+$1,$4,$5*
1,1,$1+$1,$6,$7*
1,1,$1+$1,$8,$9*
0 Add four rect primitives between the rounded corners*
20,1,$1+$1,$2,$3,$4,$5,0*
20,1,$1+$1,$4,$5,$6,$7,0*
20,1,$1+$1,$6,$7,$8,$9,0*
20,1,$1+$1,$8,$9,$2,$3,0*%
%AMHorizOval*
0 Thick line with rounded ends*
0 $1 width*
0 $2 $3 position (X,Y) of the first rounded end (center of the circle)*
0 $4 $5 position (X,Y) of the second rounded end (center of the circle)*
0 Add line between two ends*
20,1,$1,$2,$3,$4,$5,0*
0 Add two circle primitives to create the rounded ends*
1,1,$1,$2,$3*
1,1,$1,$4,$5*%
G04 Aperture macros list end*
%TA.AperFunction,ComponentPad*%
%ADD10C,1.800000*%
%TD*%
%TA.AperFunction,ComponentPad*%
%ADD11RoundRect,0.250000X-0.919239X0.000000X0.000000X-0.919239X0.919239X0.000000X0.000000X0.919239X0*%
%TD*%
%TA.AperFunction,ComponentPad*%
%ADD12RoundRect,0.250000X0.000000X0.919239X-0.919239X0.000000X0.000000X-0.919239X0.919239X0.000000X0*%
%TD*%
%TA.AperFunction,ComponentPad*%
%ADD13RoundRect,0.250000X0.650000X0.650000X-0.650000X0.650000X-0.650000X-0.650000X0.650000X-0.650000X0*%
%TD*%
%TA.AperFunction,ComponentPad*%
%ADD14RoundRect,0.250000X0.919239X0.000000X0.000000X0.919239X-0.919239X0.000000X0.000000X-0.919239X0*%
%TD*%
%TA.AperFunction,ComponentPad*%
%ADD15RoundRect,0.250000X0.000000X-0.919239X0.919239X0.000000X0.000000X0.919239X-0.919239X0.000000X0*%
%TD*%
%TA.AperFunction,ComponentPad*%
%ADD16RoundRect,0.250000X0.650000X-0.650000X0.650000X0.650000X-0.650000X0.650000X-0.650000X-0.650000X0*%
%TD*%
%TA.AperFunction,ComponentPad*%
%ADD17HorizOval,1.500000X-0.176777X0.176777X0.176777X-0.176777X0*%
%TD*%
%TA.AperFunction,ComponentPad*%
%ADD18RoundRect,0.250000X0.883883X-0.176777X-0.176777X0.883883X-0.883883X0.176777X0.176777X-0.883883X0*%
%TD*%
%TA.AperFunction,ComponentPad*%
%ADD19RoundRect,0.250000X-0.650000X-0.650000X0.650000X-0.650000X0.650000X0.650000X-0.650000X0.650000X0*%
%TD*%
%TA.AperFunction,ComponentPad*%
%ADD20RoundRect,0.250000X-0.650000X0.650000X-0.650000X-0.650000X0.650000X-0.650000X0.650000X0.650000X0*%
%TD*%
%TA.AperFunction,ViaPad*%
%ADD21C,0.600000*%
%TD*%
%TA.AperFunction,Conductor*%
%ADD22C,0.400000*%
%TD*%
%TA.AperFunction,Conductor*%
%ADD23C,0.800000*%
%TD*%
G04 APERTURE END LIST*
D10*
%TO.P,D28,2,A_2*%
%TO.N,Net-(D24-K)*%
X79151890Y-197788078D03*
D11*
%TO.P,D28,1,K_1*%
%TO.N,Net-(D16-K)*%
X77355839Y-195992027D03*
%TD*%
D10*
%TO.P,D14,2,A_2*%
%TO.N,Net-(D14-A)*%
X81968121Y-127426901D03*
D12*
%TO.P,D14,1,K_1*%
%TO.N,Net-(D14-K)*%
X83764172Y-125630850D03*
%TD*%
D10*
%TO.P,D18,2,A_2*%
%TO.N,Net-(D14-A)*%
X76797611Y-155412411D03*
D13*
%TO.P,D18,1,K_1*%
%TO.N,Net-(D18-K)*%
X79337611Y-155412411D03*
%TD*%
D10*
%TO.P,D29,2,A_2*%
%TO.N,Net-(D16-K)*%
X81125749Y-189689098D03*
D14*
%TO.P,D29,1,K_1*%
%TO.N,Net-(D24-K)*%
X82921800Y-191485149D03*
%TD*%
D10*
%TO.P,D22,2,A_2*%
%TO.N,Net-(D14-A)*%
X71997611Y-184292411D03*
D13*
%TO.P,D22,1,K_1*%
%TO.N,Net-(D22-K)*%
X74537611Y-184292411D03*
%TD*%
D10*
%TO.P,D40,2,A_2*%
%TO.N,Net-(D22-K)*%
X124519062Y-120062760D03*
D15*
%TO.P,D40,1,K_1*%
%TO.N,Net-(D18-K)*%
X122723011Y-121858811D03*
%TD*%
D10*
%TO.P,D32,2,A_2*%
%TO.N,Net-(D24-K)*%
X94271890Y-172468078D03*
D11*
%TO.P,D32,1,K_1*%
%TO.N,Net-(D20-K)*%
X92475839Y-170672027D03*
%TD*%
D10*
%TO.P,D20,2,A_2*%
%TO.N,Net-(D14-A)*%
X74397611Y-169852411D03*
D13*
%TO.P,D20,1,K_1*%
%TO.N,Net-(D20-K)*%
X76937611Y-169852411D03*
%TD*%
D10*
%TO.P,D44,2,A_2*%
%TO.N,Net-(D20-K)*%
X95318000Y-119707988D03*
D16*
%TO.P,D44,1,K_1*%
%TO.N,Net-(D14-K)*%
X95318000Y-122247988D03*
%TD*%
D10*
%TO.P,D24,2,A_2*%
%TO.N,Net-(D14-A)*%
X69597611Y-198732411D03*
D13*
%TO.P,D24,1,K_1*%
%TO.N,Net-(D24-K)*%
X72137611Y-198732411D03*
%TD*%
D17*
%TO.P,J4,8,Pin_8_8*%
%TO.N,GND2*%
X87422707Y-134489882D03*
%TO.P,J4,7,Pin_7_7*%
%TO.N,/CB6*%
X88836921Y-133075668D03*
%TO.P,J4,6,Pin_6_6*%
%TO.N,/CB5*%
X90251134Y-131661455D03*
%TO.P,J4,5,Pin_5_5*%
%TO.N,/CB4*%
X91665348Y-130247241D03*
%TO.P,J4,4,Pin_4_4*%
%TO.N,/CB3*%
X93079561Y-128833028D03*
%TO.P,J4,3,Pin_3_3*%
%TO.N,/CB2*%
X94493775Y-127418814D03*
%TO.P,J4,2,Pin_2_2*%
%TO.N,/CB1*%
X95907988Y-126004601D03*
D18*
%TO.P,J4,1,Pin_1_1*%
%TO.N,/CB0*%
X97322202Y-124590387D03*
%TD*%
D10*
%TO.P,D17,2,A_2*%
%TO.N,Net-(D16-K)*%
X80527611Y-148192411D03*
D19*
%TO.P,D17,1,K_1*%
%TO.N,Net-(D14-A)*%
X77987611Y-148192411D03*
%TD*%
D10*
%TO.P,D43,2,A_2*%
%TO.N,Net-(D20-K)*%
X102379200Y-122237988D03*
D20*
%TO.P,D43,1,K_1*%
%TO.N,Net-(D22-K)*%
X102379200Y-119697988D03*
%TD*%
D10*
%TO.P,D30,2,A_2*%
%TO.N,Net-(D24-K)*%
X86711890Y-185128078D03*
D11*
%TO.P,D30,1,K_1*%
%TO.N,Net-(D18-K)*%
X84915839Y-183332027D03*
%TD*%
D10*
%TO.P,D31,2,A_2*%
%TO.N,Net-(D18-K)*%
X88685749Y-177029098D03*
D14*
%TO.P,D31,1,K_1*%
%TO.N,Net-(D24-K)*%
X90481800Y-178825149D03*
%TD*%
D10*
%TO.P,D41,2,A_2*%
%TO.N,Net-(D18-K)*%
X116535200Y-122237988D03*
D20*
%TO.P,D41,1,K_1*%
%TO.N,Net-(D22-K)*%
X116535200Y-119697988D03*
%TD*%
D10*
%TO.P,D19,2,A_2*%
%TO.N,Net-(D18-K)*%
X78127611Y-162632411D03*
D19*
%TO.P,D19,1,K_1*%
%TO.N,Net-(D14-A)*%
X75587611Y-162632411D03*
%TD*%
D10*
%TO.P,D38,2,A_2*%
%TO.N,Net-(D22-K)*%
X116951890Y-134488078D03*
D11*
%TO.P,D38,1,K_1*%
%TO.N,Net-(D16-K)*%
X115155839Y-132692027D03*
%TD*%
D10*
%TO.P,D33,2,A_2*%
%TO.N,Net-(D20-K)*%
X96245749Y-164369098D03*
D14*
%TO.P,D33,1,K_1*%
%TO.N,Net-(D24-K)*%
X98041800Y-166165149D03*
%TD*%
D10*
%TO.P,D45,2,A_2*%
%TO.N,Net-(D14-K)*%
X87345110Y-121867478D03*
D12*
%TO.P,D45,1,K_1*%
%TO.N,Net-(D20-K)*%
X89141161Y-120071427D03*
%TD*%
D10*
%TO.P,D42,2,A_2*%
%TO.N,Net-(D22-K)*%
X109474000Y-119707988D03*
D16*
%TO.P,D42,1,K_1*%
%TO.N,Net-(D20-K)*%
X109474000Y-122247988D03*
%TD*%
D10*
%TO.P,D37,2,A_2*%
%TO.N,Net-(D14-K)*%
X111365749Y-139049098D03*
D14*
%TO.P,D37,1,K_1*%
%TO.N,Net-(D22-K)*%
X113161800Y-140845149D03*
%TD*%
D10*
%TO.P,D16,2,A_2*%
%TO.N,Net-(D14-A)*%
X79197611Y-140972411D03*
D13*
%TO.P,D16,1,K_1*%
%TO.N,Net-(D16-K)*%
X81737611Y-140972411D03*
%TD*%
D10*
%TO.P,D21,2,A_2*%
%TO.N,Net-(D20-K)*%
X75727611Y-177072411D03*
D19*
%TO.P,D21,1,K_1*%
%TO.N,Net-(D14-A)*%
X73187611Y-177072411D03*
%TD*%
D10*
%TO.P,D23,2,A_2*%
%TO.N,Net-(D22-K)*%
X73327611Y-191512411D03*
D19*
%TO.P,D23,1,K_1*%
%TO.N,Net-(D14-A)*%
X70787611Y-191512411D03*
%TD*%
D10*
%TO.P,D26,2,A_2*%
%TO.N,Net-(D24-K)*%
X67119611Y-213095611D03*
D13*
%TO.P,D26,1,K_1*%
%TO.N,Net-(D14-K)*%
X69659611Y-213095611D03*
%TD*%
D10*
%TO.P,D35,2,A_2*%
%TO.N,Net-(D22-K)*%
X103805749Y-151709098D03*
D14*
%TO.P,D35,1,K_1*%
%TO.N,Net-(D24-K)*%
X105601800Y-153505149D03*
%TD*%
D10*
%TO.P,D27,2,A_2*%
%TO.N,Net-(D14-K)*%
X73565749Y-202349098D03*
D14*
%TO.P,D27,1,K_1*%
%TO.N,Net-(D24-K)*%
X75361800Y-204145149D03*
%TD*%
D10*
%TO.P,D15,2,A_2*%
%TO.N,Net-(D14-K)*%
X82927611Y-133752411D03*
D19*
%TO.P,D15,1,K_1*%
%TO.N,Net-(D14-A)*%
X80387611Y-133752411D03*
%TD*%
D10*
%TO.P,D36,2,A_2*%
%TO.N,Net-(D22-K)*%
X109391890Y-147148078D03*
D11*
%TO.P,D36,1,K_1*%
%TO.N,Net-(D14-K)*%
X107595839Y-145352027D03*
%TD*%
D10*
%TO.P,D39,2,A_2*%
%TO.N,Net-(D16-K)*%
X118925749Y-126389098D03*
D14*
%TO.P,D39,1,K_1*%
%TO.N,Net-(D22-K)*%
X120721800Y-128185149D03*
%TD*%
D10*
%TO.P,D34,2,A_2*%
%TO.N,Net-(D24-K)*%
X101831890Y-159808078D03*
D11*
%TO.P,D34,1,K_1*%
%TO.N,Net-(D22-K)*%
X100035839Y-158012027D03*
%TD*%
D10*
%TO.P,D25,2,A_2*%
%TO.N,Net-(D24-K)*%
X70927611Y-205952411D03*
D19*
%TO.P,D25,1,K_1*%
%TO.N,Net-(D14-A)*%
X68387611Y-205952411D03*
%TD*%
D21*
%TO.N,GND2*%
X116617949Y-137972800D03*
X80111600Y-129050188D03*
X67970400Y-200551188D03*
X97942400Y-169232988D03*
%TO.N,Net-(D14-K)*%
X85605811Y-138727588D03*
%TO.N,Net-(D20-K)*%
X100965000Y-142283588D03*
%TO.N,GND2*%
X69018349Y-193979800D03*
%TO.N,Net-(D16-K)*%
X107442000Y-135788400D03*
%TO.N,GND2*%
X76174600Y-150259188D03*
X98933000Y-118051988D03*
%TO.N,Net-(D14-K)*%
X107467400Y-127195988D03*
%TO.N,GND2*%
X93903800Y-175735388D03*
%TO.N,Net-(D16-K)*%
X89941400Y-152392788D03*
%TO.N,GND2*%
X105257600Y-156710788D03*
X91744800Y-118001188D03*
X82956400Y-194556788D03*
X78848149Y-200914000D03*
X72923400Y-210685788D03*
%TO.N,Net-(D18-K)*%
X103378000Y-138887200D03*
X98780600Y-155796388D03*
%TO.N,GND2*%
X86341149Y-188315600D03*
X75260200Y-157294988D03*
%TO.N,Net-(D18-K)*%
X111861600Y-135146188D03*
%TO.N,Net-(D20-K)*%
X107369705Y-141009682D03*
%TO.N,Net-(D24-K)*%
X92794011Y-151630788D03*
%TO.N,GND2*%
X113030000Y-118153588D03*
X71551800Y-179062788D03*
X72847200Y-171696788D03*
X120243600Y-118077388D03*
X108718549Y-151104600D03*
X84759800Y-122725588D03*
X77571600Y-142867788D03*
X124028200Y-125646588D03*
X78790800Y-136136788D03*
X70339149Y-186207400D03*
%TO.N,Net-(D20-K)*%
X80179006Y-164288783D03*
%TO.N,GND2*%
X105765600Y-118204388D03*
%TO.N,Net-(D22-K)*%
X93167200Y-160495388D03*
%TO.N,Net-(D14-K)*%
X103308349Y-133807200D03*
%TO.N,GND2*%
X113055400Y-143909188D03*
X120529549Y-131572000D03*
X90119200Y-182009188D03*
%TO.N,Net-(D14-K)*%
X89255600Y-147312788D03*
%TO.N,GND2*%
X101701600Y-162654388D03*
X66675000Y-208374388D03*
%TO.N,Net-(D22-K)*%
X82507011Y-160495388D03*
%TO.N,GND2*%
X74015600Y-164813388D03*
%TD*%
%TO.N,Net-(D20-K)*%
D22*
X107369705Y-141009682D02*
X106095799Y-142283588D01*
X92475839Y-170672027D02*
X86562250Y-170672027D01*
%TO.N,GND2*%
D23*
X120580349Y-131521200D02*
X120580349Y-130962400D01*
X120580349Y-130962400D02*
X120218200Y-130600251D01*
X78925611Y-137330588D02*
X78798611Y-137203588D01*
X96477011Y-130193188D02*
X91719999Y-134950200D01*
%TO.N,Net-(D16-K)*%
D22*
X101053568Y-136073619D02*
X96154777Y-140972411D01*
X107499349Y-135788400D02*
X110595722Y-132692027D01*
X96154777Y-140972411D02*
X81737611Y-140972411D01*
X89941400Y-152392788D02*
X84727988Y-152392788D01*
%TO.N,Net-(D18-K)*%
X111785400Y-135146188D02*
X111861600Y-135146188D01*
X108584668Y-138346919D02*
X111785400Y-135146188D01*
%TO.N,Net-(D20-K)*%
X86562250Y-170672027D02*
X80179006Y-164288783D01*
X106095799Y-142283588D02*
X100965000Y-142283588D01*
%TO.N,Net-(D14-K)*%
X97947400Y-122247988D02*
X95318000Y-122247988D01*
X93841361Y-138727588D02*
X85605811Y-138727588D01*
%TO.N,Net-(D22-K)*%
X82507011Y-160495388D02*
X97552478Y-160495388D01*
X97552478Y-160495388D02*
X100035839Y-158012027D01*
%TO.N,Net-(D18-K)*%
X80365600Y-155796388D02*
X80340200Y-155821788D01*
X88685749Y-177029098D02*
X78127611Y-166470960D01*
X80340200Y-155821788D02*
X79930823Y-155412411D01*
X108044387Y-138887200D02*
X108584668Y-138346919D01*
%TO.N,Net-(D16-K)*%
X84727988Y-152392788D02*
X80527611Y-148192411D01*
X101211788Y-135915400D02*
X101053568Y-136073619D01*
%TO.N,Net-(D14-K)*%
X100667412Y-124968000D02*
X97947400Y-122247988D01*
X105635078Y-147312788D02*
X107595839Y-145352027D01*
X89255600Y-147312788D02*
X105635078Y-147312788D01*
X107467400Y-127195988D02*
X105239412Y-124968000D01*
%TO.N,Net-(D18-K)*%
X98780600Y-155796388D02*
X80365600Y-155796388D01*
X78127611Y-166470960D02*
X78127611Y-162632411D01*
%TO.N,Net-(D16-K)*%
X101338787Y-135788400D02*
X101053568Y-136073619D01*
X110595722Y-132692027D02*
X115155839Y-132692027D01*
%TO.N,Net-(D18-K)*%
X103378000Y-138887200D02*
X108044387Y-138887200D01*
%TO.N,Net-(D14-K)*%
X98761749Y-133807200D02*
X93841361Y-138727588D01*
%TO.N,Net-(D16-K)*%
X107442000Y-135788400D02*
X101338787Y-135788400D01*
X107442000Y-135788400D02*
X107499349Y-135788400D01*
%TO.N,GND2*%
D23*
X78798611Y-136144599D02*
X78790800Y-136136788D01*
X87300640Y-134611948D02*
X84582000Y-137330588D01*
X120218200Y-130600251D02*
X120218200Y-130540977D01*
X78798611Y-137203588D02*
X78798611Y-136144599D01*
%TO.N,Net-(D24-K)*%
D22*
X72137834Y-204742188D02*
X70927611Y-205952411D01*
%TO.N,GND2*%
D23*
X119870411Y-130193188D02*
X96477011Y-130193188D01*
X120529549Y-131572000D02*
X120580349Y-131521200D01*
%TO.N,Net-(D24-K)*%
D22*
X74764761Y-204742188D02*
X72137834Y-204742188D01*
%TO.N,GND2*%
D23*
X84582000Y-137330588D02*
X78925611Y-137330588D01*
X91719999Y-134950200D02*
X87638892Y-134950200D01*
X87638892Y-134950200D02*
X87300640Y-134611948D01*
X120218200Y-130540977D02*
X119870411Y-130193188D01*
%TO.N,Net-(D24-K)*%
D22*
X94648211Y-153484988D02*
X92794011Y-151630788D01*
X105581639Y-153484988D02*
X94648211Y-153484988D01*
X75361800Y-204145149D02*
X74764761Y-204742188D01*
X105601800Y-153505149D02*
X105581639Y-153484988D01*
%TO.N,Net-(D14-K)*%
X105239412Y-124968000D02*
X100667412Y-124968000D01*
X103308349Y-133807200D02*
X98761749Y-133807200D01*
%TD*%
%TA.AperFunction,Conductor*%
%TO.N,GND2*%
G36*
X123652776Y-116771316D02*
G01*
X123658411Y-116771440D01*
X124036377Y-116788579D01*
X124047812Y-116789631D01*
X124419716Y-116841311D01*
X124430993Y-116843415D01*
X124796521Y-116929325D01*
X124807556Y-116932465D01*
X125163545Y-117051861D01*
X125174257Y-117056016D01*
X125517640Y-117207867D01*
X125527920Y-117212995D01*
X125689548Y-117303218D01*
X125855770Y-117396006D01*
X125865539Y-117402070D01*
X126020277Y-117508361D01*
X126175023Y-117614659D01*
X126184174Y-117621590D01*
X126472644Y-117861940D01*
X126481122Y-117869697D01*
X126746076Y-118135724D01*
X126753803Y-118144238D01*
X126992970Y-118433653D01*
X126999877Y-118442847D01*
X127211219Y-118753191D01*
X127217243Y-118762985D01*
X127398921Y-119091556D01*
X127404012Y-119101866D01*
X127554475Y-119445856D01*
X127558590Y-119456593D01*
X127676544Y-119813046D01*
X127679646Y-119824117D01*
X127715155Y-119977983D01*
X127761973Y-120180857D01*
X127764072Y-120189950D01*
X127766136Y-120201262D01*
X127816315Y-120573368D01*
X127817321Y-120584823D01*
X127832815Y-120959948D01*
X127832757Y-120971446D01*
X127813435Y-121346421D01*
X127812311Y-121357864D01*
X127758343Y-121729412D01*
X127756165Y-121740702D01*
X127668007Y-122105676D01*
X127664791Y-122116717D01*
X127543211Y-122471932D01*
X127538988Y-122482626D01*
X127385017Y-122825078D01*
X127379820Y-122835335D01*
X127193381Y-123164540D01*
X127192947Y-123165301D01*
X127191726Y-123167420D01*
X127156870Y-123222810D01*
X127153424Y-123233952D01*
X127146514Y-123245956D01*
X127146097Y-123246353D01*
X127145519Y-123247653D01*
X72209081Y-215264916D01*
X72206002Y-215269405D01*
X72171477Y-215327885D01*
X72168438Y-215332771D01*
X71949672Y-215666877D01*
X71942927Y-215676202D01*
X71695934Y-215986319D01*
X71688354Y-215994979D01*
X71413668Y-216280865D01*
X71405318Y-216288785D01*
X71105313Y-216547972D01*
X71096265Y-216555084D01*
X70773511Y-216785348D01*
X70763842Y-216791590D01*
X70421132Y-216990938D01*
X70410926Y-216996256D01*
X70051227Y-217162964D01*
X70040572Y-217167314D01*
X69666949Y-217299963D01*
X69655936Y-217303306D01*
X69271638Y-217400739D01*
X69260364Y-217403047D01*
X68868670Y-217464436D01*
X68857229Y-217465688D01*
X68461542Y-217490497D01*
X68450035Y-217490683D01*
X68053758Y-217478700D01*
X68042283Y-217477819D01*
X67648818Y-217429147D01*
X67637474Y-217427206D01*
X67250204Y-217342262D01*
X67239090Y-217339277D01*
X66861385Y-217218802D01*
X66850594Y-217214800D01*
X66738781Y-217167314D01*
X66485659Y-217059815D01*
X66475300Y-217054836D01*
X66126322Y-216866693D01*
X66116457Y-216860768D01*
X65786415Y-216641076D01*
X65777140Y-216634260D01*
X65751165Y-216613249D01*
X65468901Y-216384923D01*
X65460299Y-216377278D01*
X65176495Y-216100431D01*
X65168639Y-216092021D01*
X64911732Y-215790062D01*
X64904689Y-215780960D01*
X64676879Y-215456477D01*
X64670711Y-215446762D01*
X64603552Y-215329268D01*
X64473965Y-215102557D01*
X64468727Y-215092318D01*
X64304733Y-214731337D01*
X64300476Y-214720680D01*
X64170653Y-214346039D01*
X64167397Y-214335011D01*
X64131323Y-214188069D01*
X64072871Y-213949972D01*
X64070651Y-213938686D01*
X64059093Y-213861106D01*
X64012232Y-213546552D01*
X64011067Y-213535107D01*
X63996950Y-213278904D01*
X63989253Y-213139220D01*
X63989155Y-213127746D01*
X63994837Y-212977513D01*
X65619111Y-212977513D01*
X65619111Y-213213708D01*
X65656057Y-213446979D01*
X65729044Y-213671607D01*
X65836268Y-213882044D01*
X65975094Y-214073121D01*
X66142101Y-214240128D01*
X66333178Y-214378954D01*
X66432602Y-214429613D01*
X66543614Y-214486177D01*
X66543616Y-214486177D01*
X66543619Y-214486179D01*
X66664023Y-214525300D01*
X66768242Y-214559164D01*
X67001514Y-214596111D01*
X67001519Y-214596111D01*
X67237708Y-214596111D01*
X67470979Y-214559164D01*
X67503350Y-214548646D01*
X67695603Y-214486179D01*
X67906044Y-214378954D01*
X68097121Y-214240128D01*
X68120677Y-214216571D01*
X68181999Y-214183086D01*
X68251690Y-214188069D01*
X68305006Y-214226564D01*
X68392179Y-214335011D01*
X68404671Y-214350551D01*
X68548858Y-214466453D01*
X68714590Y-214548648D01*
X68894112Y-214593293D01*
X68894113Y-214593293D01*
X68894116Y-214593294D01*
X68935657Y-214596111D01*
X68935659Y-214596111D01*
X70383563Y-214596111D01*
X70383565Y-214596111D01*
X70425106Y-214593294D01*
X70604632Y-214548648D01*
X70770364Y-214466453D01*
X70914551Y-214350551D01*
X71030453Y-214206364D01*
X71112648Y-214040632D01*
X71157294Y-213861106D01*
X71160111Y-213819565D01*
X71160111Y-212371657D01*
X71157294Y-212330116D01*
X71112648Y-212150590D01*
X71030453Y-211984858D01*
X70980556Y-211922784D01*
X70914551Y-211840670D01*
X70805793Y-211753248D01*
X70765875Y-211695904D01*
X70763295Y-211626082D01*
X70776420Y-211594040D01*
X70789520Y-211571623D01*
X74276607Y-205604126D01*
X74285102Y-205596111D01*
X74289955Y-205585485D01*
X74310051Y-205572569D01*
X74327425Y-205556177D01*
X74340402Y-205553064D01*
X74348733Y-205547711D01*
X74383668Y-205542688D01*
X74585949Y-205542688D01*
X74652988Y-205562373D01*
X74673625Y-205579002D01*
X74812699Y-205718076D01*
X74828382Y-205731767D01*
X74844061Y-205745455D01*
X74844071Y-205745462D01*
X74949740Y-205809040D01*
X75002578Y-205840832D01*
X75177889Y-205899902D01*
X75325721Y-205915978D01*
X75361798Y-205919902D01*
X75361800Y-205919902D01*
X75361802Y-205919902D01*
X75394655Y-205916328D01*
X75545711Y-205899902D01*
X75721022Y-205840832D01*
X75879535Y-205745458D01*
X75910901Y-205718076D01*
X75910910Y-205718067D01*
X75910917Y-205718061D01*
X76934712Y-204694266D01*
X76934718Y-204694259D01*
X76934727Y-204694250D01*
X76962109Y-204662884D01*
X77057483Y-204504371D01*
X77116553Y-204329060D01*
X77136553Y-204145149D01*
X77116553Y-203961238D01*
X77057483Y-203785927D01*
X76962109Y-203627414D01*
X76934727Y-203596048D01*
X76934721Y-203596042D01*
X76934712Y-203596032D01*
X76065263Y-202726584D01*
X76031778Y-202665261D01*
X76036762Y-202595570D01*
X76045883Y-202576342D01*
X78105767Y-199051236D01*
X78156583Y-199003289D01*
X78225259Y-198990425D01*
X78285709Y-199013481D01*
X78365457Y-199071421D01*
X78464881Y-199122080D01*
X78575893Y-199178644D01*
X78575895Y-199178644D01*
X78575898Y-199178646D01*
X78696302Y-199217767D01*
X78800521Y-199251631D01*
X79033793Y-199288578D01*
X79033798Y-199288578D01*
X79269987Y-199288578D01*
X79503258Y-199251631D01*
X79727882Y-199178646D01*
X79938323Y-199071421D01*
X80129400Y-198932595D01*
X80296407Y-198765588D01*
X80435233Y-198574511D01*
X80542458Y-198364070D01*
X80615443Y-198139446D01*
X80652390Y-197906175D01*
X80652390Y-197669980D01*
X80615443Y-197436709D01*
X80549463Y-197233645D01*
X80542458Y-197212086D01*
X80542456Y-197212083D01*
X80542456Y-197212081D01*
X80435232Y-197001644D01*
X80296407Y-196810568D01*
X80129400Y-196643561D01*
X79938323Y-196504735D01*
X79789887Y-196429103D01*
X79739091Y-196381128D01*
X79722296Y-196313307D01*
X79739121Y-196256057D01*
X81808857Y-192714093D01*
X81859674Y-192666145D01*
X81928350Y-192653281D01*
X81993078Y-192679588D01*
X82003598Y-192688975D01*
X82372683Y-193058061D01*
X82372693Y-193058070D01*
X82372699Y-193058076D01*
X82388382Y-193071767D01*
X82404061Y-193085455D01*
X82404071Y-193085462D01*
X82509740Y-193149040D01*
X82562578Y-193180832D01*
X82737889Y-193239902D01*
X82885721Y-193255978D01*
X82921798Y-193259902D01*
X82921800Y-193259902D01*
X82921802Y-193259902D01*
X82954655Y-193256328D01*
X83105711Y-193239902D01*
X83281022Y-193180832D01*
X83439535Y-193085458D01*
X83470901Y-193058076D01*
X83470910Y-193058067D01*
X83470917Y-193058061D01*
X84494712Y-192034266D01*
X84494718Y-192034259D01*
X84494727Y-192034250D01*
X84522109Y-192002884D01*
X84617483Y-191844371D01*
X84676553Y-191669060D01*
X84696553Y-191485149D01*
X84676553Y-191301238D01*
X84617483Y-191125927D01*
X84522109Y-190967414D01*
X84494727Y-190936048D01*
X84494721Y-190936042D01*
X84494712Y-190936032D01*
X83522905Y-189964226D01*
X83489420Y-189902903D01*
X83494404Y-189833212D01*
X83503519Y-189813995D01*
X85551928Y-186308527D01*
X85602744Y-186260580D01*
X85671420Y-186247716D01*
X85731873Y-186270773D01*
X85734377Y-186272592D01*
X85734380Y-186272595D01*
X85925457Y-186411421D01*
X86024881Y-186462080D01*
X86135893Y-186518644D01*
X86135895Y-186518644D01*
X86135898Y-186518646D01*
X86256302Y-186557767D01*
X86360521Y-186591631D01*
X86593793Y-186628578D01*
X86593798Y-186628578D01*
X86829987Y-186628578D01*
X87063258Y-186591631D01*
X87287882Y-186518646D01*
X87498323Y-186411421D01*
X87689400Y-186272595D01*
X87856407Y-186105588D01*
X87995233Y-185914511D01*
X88102458Y-185704070D01*
X88175443Y-185479446D01*
X88182178Y-185436925D01*
X88212390Y-185246175D01*
X88212390Y-185009980D01*
X88175443Y-184776709D01*
X88102456Y-184552081D01*
X87995232Y-184341644D01*
X87856407Y-184150568D01*
X87689400Y-183983561D01*
X87498323Y-183844735D01*
X87287886Y-183737511D01*
X87263919Y-183729724D01*
X87237979Y-183721295D01*
X87180305Y-183681858D01*
X87153107Y-183617499D01*
X87165022Y-183548653D01*
X87169228Y-183540820D01*
X89266499Y-179951735D01*
X89317316Y-179903787D01*
X89385992Y-179890923D01*
X89450720Y-179917230D01*
X89461240Y-179926617D01*
X89932683Y-180398061D01*
X89932693Y-180398070D01*
X89932699Y-180398076D01*
X89948382Y-180411767D01*
X89964061Y-180425455D01*
X89964071Y-180425462D01*
X90069740Y-180489040D01*
X90122578Y-180520832D01*
X90297889Y-180579902D01*
X90445721Y-180595978D01*
X90481798Y-180599902D01*
X90481800Y-180599902D01*
X90481802Y-180599902D01*
X90514655Y-180596328D01*
X90665711Y-180579902D01*
X90841022Y-180520832D01*
X90999535Y-180425458D01*
X91030901Y-180398076D01*
X91030910Y-180398067D01*
X91030917Y-180398061D01*
X92054712Y-179374266D01*
X92054718Y-179374259D01*
X92054727Y-179374250D01*
X92082109Y-179342884D01*
X92177483Y-179184371D01*
X92236553Y-179009060D01*
X92256553Y-178825149D01*
X92236553Y-178641238D01*
X92177483Y-178465927D01*
X92082109Y-178307414D01*
X92054727Y-178276048D01*
X92054721Y-178276042D01*
X92054712Y-178276032D01*
X91030917Y-177252237D01*
X91030906Y-177252227D01*
X91030901Y-177252222D01*
X91022413Y-177244812D01*
X90999543Y-177224846D01*
X90995124Y-177221627D01*
X90996087Y-177220304D01*
X90953859Y-177174380D01*
X90941881Y-177105545D01*
X90958023Y-177057010D01*
X93009026Y-173547102D01*
X93059844Y-173499153D01*
X93128520Y-173486289D01*
X93193248Y-173512596D01*
X93203768Y-173521983D01*
X93294380Y-173612595D01*
X93485457Y-173751421D01*
X93584881Y-173802080D01*
X93695893Y-173858644D01*
X93695895Y-173858644D01*
X93695898Y-173858646D01*
X93816302Y-173897767D01*
X93920521Y-173931631D01*
X94153793Y-173968578D01*
X94153798Y-173968578D01*
X94389987Y-173968578D01*
X94623258Y-173931631D01*
X94847882Y-173858646D01*
X95058323Y-173751421D01*
X95249400Y-173612595D01*
X95416407Y-173445588D01*
X95555233Y-173254511D01*
X95662458Y-173044070D01*
X95735443Y-172819446D01*
X95772390Y-172586175D01*
X95772390Y-172349980D01*
X95735443Y-172116709D01*
X95662456Y-171892081D01*
X95555232Y-171681644D01*
X95416407Y-171490568D01*
X95249400Y-171323561D01*
X95058323Y-171184735D01*
X94847886Y-171077511D01*
X94661689Y-171017011D01*
X94604014Y-170977573D01*
X94576816Y-170913214D01*
X94588731Y-170844368D01*
X94592938Y-170836534D01*
X96724142Y-167189378D01*
X96774959Y-167141430D01*
X96843635Y-167128566D01*
X96908363Y-167154873D01*
X96918883Y-167164260D01*
X97492683Y-167738061D01*
X97492693Y-167738070D01*
X97492699Y-167738076D01*
X97508382Y-167751767D01*
X97524061Y-167765455D01*
X97524071Y-167765462D01*
X97629740Y-167829040D01*
X97682578Y-167860832D01*
X97857889Y-167919902D01*
X98005721Y-167935978D01*
X98041798Y-167939902D01*
X98041800Y-167939902D01*
X98041802Y-167939902D01*
X98074655Y-167936328D01*
X98225711Y-167919902D01*
X98401022Y-167860832D01*
X98559535Y-167765458D01*
X98590901Y-167738076D01*
X98590910Y-167738067D01*
X98590917Y-167738061D01*
X99614712Y-166714266D01*
X99614718Y-166714259D01*
X99614727Y-166714250D01*
X99642109Y-166682884D01*
X99737483Y-166524371D01*
X99796553Y-166349060D01*
X99816553Y-166165149D01*
X99796553Y-165981238D01*
X99737483Y-165805927D01*
X99642109Y-165647414D01*
X99614727Y-165616048D01*
X99614721Y-165616042D01*
X99614712Y-165616032D01*
X98590917Y-164592237D01*
X98590906Y-164592227D01*
X98590901Y-164592222D01*
X98579265Y-164582064D01*
X98559538Y-164564842D01*
X98559528Y-164564835D01*
X98441174Y-164493624D01*
X98393879Y-164442195D01*
X98381896Y-164373361D01*
X98398039Y-164324817D01*
X100468994Y-160780766D01*
X100519810Y-160732819D01*
X100588486Y-160719955D01*
X100653214Y-160746262D01*
X100676370Y-160770444D01*
X100687373Y-160785588D01*
X100854380Y-160952595D01*
X101045457Y-161091421D01*
X101124923Y-161131911D01*
X101255893Y-161198644D01*
X101255895Y-161198644D01*
X101255898Y-161198646D01*
X101376302Y-161237767D01*
X101480521Y-161271631D01*
X101713793Y-161308578D01*
X101713798Y-161308578D01*
X101949987Y-161308578D01*
X102183258Y-161271631D01*
X102407882Y-161198646D01*
X102618323Y-161091421D01*
X102809400Y-160952595D01*
X102976407Y-160785588D01*
X103115233Y-160594511D01*
X103222458Y-160384070D01*
X103295443Y-160159446D01*
X103332390Y-159926175D01*
X103332390Y-159689980D01*
X103295443Y-159456709D01*
X103222456Y-159232081D01*
X103115232Y-159021644D01*
X102976407Y-158830568D01*
X102809400Y-158663561D01*
X102618323Y-158524735D01*
X102407886Y-158417511D01*
X102183258Y-158344524D01*
X102096427Y-158330772D01*
X102033292Y-158300843D01*
X101996361Y-158241531D01*
X101997359Y-158171669D01*
X102008762Y-158145742D01*
X104181784Y-154427020D01*
X104232601Y-154379072D01*
X104301277Y-154366208D01*
X104366005Y-154392515D01*
X104376525Y-154401902D01*
X105052683Y-155078061D01*
X105052693Y-155078070D01*
X105052699Y-155078076D01*
X105068382Y-155091767D01*
X105084061Y-155105455D01*
X105084071Y-155105462D01*
X105189740Y-155169040D01*
X105242578Y-155200832D01*
X105417889Y-155259902D01*
X105565721Y-155275978D01*
X105601798Y-155279902D01*
X105601800Y-155279902D01*
X105601802Y-155279902D01*
X105634655Y-155276328D01*
X105785711Y-155259902D01*
X105961022Y-155200832D01*
X106119535Y-155105458D01*
X106150901Y-155078076D01*
X106150910Y-155078067D01*
X106150917Y-155078061D01*
X107174712Y-154054266D01*
X107174718Y-154054259D01*
X107174727Y-154054250D01*
X107202109Y-154022884D01*
X107297483Y-153864371D01*
X107356553Y-153689060D01*
X107376553Y-153505149D01*
X107356553Y-153321238D01*
X107297483Y-153145927D01*
X107202109Y-152987414D01*
X107174727Y-152956048D01*
X107174721Y-152956042D01*
X107174712Y-152956032D01*
X106150917Y-151932237D01*
X106150906Y-151932227D01*
X106150901Y-151932222D01*
X106139265Y-151922064D01*
X106119538Y-151904842D01*
X106119528Y-151904835D01*
X105961022Y-151809466D01*
X105896697Y-151787791D01*
X105839453Y-151747730D01*
X105812955Y-151683080D01*
X105825616Y-151614367D01*
X105829220Y-151607743D01*
X107939112Y-147997058D01*
X107989929Y-147949110D01*
X108058605Y-147936246D01*
X108123333Y-147962553D01*
X108146490Y-147986735D01*
X108247373Y-148125588D01*
X108414380Y-148292595D01*
X108605457Y-148431421D01*
X108704881Y-148482080D01*
X108815893Y-148538644D01*
X108815895Y-148538644D01*
X108815898Y-148538646D01*
X108936302Y-148577767D01*
X109040521Y-148611631D01*
X109273793Y-148648578D01*
X109273798Y-148648578D01*
X109509987Y-148648578D01*
X109743258Y-148611631D01*
X109967882Y-148538646D01*
X110178323Y-148431421D01*
X110369400Y-148292595D01*
X110536407Y-148125588D01*
X110675233Y-147934511D01*
X110782458Y-147724070D01*
X110855443Y-147499446D01*
X110866931Y-147426916D01*
X110892390Y-147266175D01*
X110892390Y-147029980D01*
X110855443Y-146796709D01*
X110782456Y-146572081D01*
X110675232Y-146361644D01*
X110536407Y-146170568D01*
X110369400Y-146003561D01*
X110178323Y-145864735D01*
X109967886Y-145757511D01*
X109743258Y-145684524D01*
X109507995Y-145647262D01*
X109444860Y-145617333D01*
X109407929Y-145558021D01*
X109408927Y-145488158D01*
X109420329Y-145462233D01*
X111639427Y-141664663D01*
X111690244Y-141616715D01*
X111758920Y-141603851D01*
X111823648Y-141630158D01*
X111834168Y-141639545D01*
X112612683Y-142418061D01*
X112612693Y-142418070D01*
X112612699Y-142418076D01*
X112628382Y-142431767D01*
X112644061Y-142445455D01*
X112644071Y-142445462D01*
X112689692Y-142472911D01*
X112802578Y-142540832D01*
X112977889Y-142599902D01*
X113125721Y-142615978D01*
X113161798Y-142619902D01*
X113161800Y-142619902D01*
X113161802Y-142619902D01*
X113194655Y-142616328D01*
X113345711Y-142599902D01*
X113521022Y-142540832D01*
X113679535Y-142445458D01*
X113710901Y-142418076D01*
X113710910Y-142418067D01*
X113710917Y-142418061D01*
X114734712Y-141394266D01*
X114734718Y-141394259D01*
X114734727Y-141394250D01*
X114762109Y-141362884D01*
X114857483Y-141204371D01*
X114916553Y-141029060D01*
X114935556Y-140854319D01*
X114936553Y-140845151D01*
X114936553Y-140845146D01*
X114931193Y-140795865D01*
X114916553Y-140661238D01*
X114857483Y-140485927D01*
X114762109Y-140327414D01*
X114734727Y-140296048D01*
X114734721Y-140296042D01*
X114734712Y-140296032D01*
X113710917Y-139272237D01*
X113710906Y-139272227D01*
X113710901Y-139272222D01*
X113699265Y-139262064D01*
X113679538Y-139244842D01*
X113679528Y-139244835D01*
X113521024Y-139149467D01*
X113521023Y-139149466D01*
X113521022Y-139149466D01*
X113433366Y-139119931D01*
X113345709Y-139090395D01*
X113339150Y-139088952D01*
X113339421Y-139087717D01*
X113281401Y-139063598D01*
X113241626Y-139006154D01*
X113239222Y-138936326D01*
X113252270Y-138904585D01*
X113419231Y-138618864D01*
X115416603Y-135200734D01*
X115467421Y-135152785D01*
X115536097Y-135139921D01*
X115600825Y-135166228D01*
X115634148Y-135207000D01*
X115668547Y-135274511D01*
X115807373Y-135465588D01*
X115974380Y-135632595D01*
X116165457Y-135771421D01*
X116264881Y-135822080D01*
X116375893Y-135878644D01*
X116375895Y-135878644D01*
X116375898Y-135878646D01*
X116496302Y-135917767D01*
X116600521Y-135951631D01*
X116833793Y-135988578D01*
X116833798Y-135988578D01*
X117069987Y-135988578D01*
X117303258Y-135951631D01*
X117527882Y-135878646D01*
X117738323Y-135771421D01*
X117929400Y-135632595D01*
X118096407Y-135465588D01*
X118235233Y-135274511D01*
X118342458Y-135064070D01*
X118415443Y-134839446D01*
X118416105Y-134835265D01*
X118452390Y-134606175D01*
X118452390Y-134369980D01*
X118415443Y-134136709D01*
X118342456Y-133912081D01*
X118235232Y-133701644D01*
X118096407Y-133510568D01*
X117929400Y-133343561D01*
X117738323Y-133204735D01*
X117527886Y-133097511D01*
X117303258Y-133024524D01*
X117069987Y-132987578D01*
X117069982Y-132987578D01*
X117036667Y-132987578D01*
X117024072Y-132983879D01*
X117010984Y-132984889D01*
X116991194Y-132974225D01*
X116969628Y-132967893D01*
X116961032Y-132957973D01*
X116949475Y-132951746D01*
X116938590Y-132932074D01*
X116923873Y-132915089D01*
X116921237Y-132900710D01*
X116915649Y-132890610D01*
X116914014Y-132861307D01*
X116912936Y-132855421D01*
X116913109Y-132852786D01*
X116930592Y-132692027D01*
X116926306Y-132652617D01*
X116927018Y-132641818D01*
X116935467Y-132618773D01*
X116939796Y-132594609D01*
X116943676Y-132587434D01*
X117677683Y-131331322D01*
X117133303Y-130599835D01*
X117109072Y-130534303D01*
X117124115Y-130466072D01*
X117135640Y-130448735D01*
X117567605Y-129904284D01*
X117597237Y-129877342D01*
X119095461Y-128905063D01*
X119097069Y-128902311D01*
X119147884Y-128854361D01*
X119216559Y-128841494D01*
X119281288Y-128867799D01*
X119291812Y-128877189D01*
X120172683Y-129758061D01*
X120172693Y-129758070D01*
X120172699Y-129758076D01*
X120188382Y-129771767D01*
X120204061Y-129785455D01*
X120204071Y-129785462D01*
X120255275Y-129816270D01*
X120362578Y-129880832D01*
X120537889Y-129939902D01*
X120685721Y-129955978D01*
X120721798Y-129959902D01*
X120721800Y-129959902D01*
X120721802Y-129959902D01*
X120754655Y-129956328D01*
X120905711Y-129939902D01*
X121081022Y-129880832D01*
X121239535Y-129785458D01*
X121270901Y-129758076D01*
X121270910Y-129758067D01*
X121270917Y-129758061D01*
X122294712Y-128734266D01*
X122294718Y-128734259D01*
X122294727Y-128734250D01*
X122322109Y-128702884D01*
X122417483Y-128544371D01*
X122476553Y-128369060D01*
X122496553Y-128185149D01*
X122476553Y-128001238D01*
X122417483Y-127825927D01*
X122385691Y-127773089D01*
X122322113Y-127667420D01*
X122322106Y-127667410D01*
X122294730Y-127636052D01*
X122294727Y-127636048D01*
X122294721Y-127636042D01*
X122294712Y-127636032D01*
X121270917Y-126612237D01*
X121270906Y-126612227D01*
X121270901Y-126612222D01*
X121259265Y-126602064D01*
X121239538Y-126584842D01*
X121239528Y-126584835D01*
X121081024Y-126489467D01*
X121081023Y-126489466D01*
X121081022Y-126489466D01*
X120905711Y-126430396D01*
X120901821Y-126429973D01*
X120753446Y-126413837D01*
X120688927Y-126387020D01*
X120649150Y-126329579D01*
X120646741Y-126259751D01*
X120659789Y-126228005D01*
X122195552Y-123599835D01*
X122246368Y-123551888D01*
X122315044Y-123539024D01*
X122357074Y-123553000D01*
X122357689Y-123551672D01*
X122363784Y-123554492D01*
X122363787Y-123554493D01*
X122363789Y-123554494D01*
X122539100Y-123613564D01*
X122686932Y-123629640D01*
X122723009Y-123633564D01*
X122723011Y-123633564D01*
X122723013Y-123633564D01*
X122755866Y-123629990D01*
X122906922Y-123613564D01*
X123082233Y-123554494D01*
X123240746Y-123459120D01*
X123272112Y-123431738D01*
X123272121Y-123431729D01*
X123272128Y-123431723D01*
X124295923Y-122407928D01*
X124295929Y-122407921D01*
X124295938Y-122407912D01*
X124323320Y-122376546D01*
X124418694Y-122218033D01*
X124477764Y-122042722D01*
X124494190Y-121891666D01*
X124497764Y-121858813D01*
X124497764Y-121858808D01*
X124480566Y-121700666D01*
X124492887Y-121631891D01*
X124540435Y-121580696D01*
X124603839Y-121563260D01*
X124637159Y-121563260D01*
X124870430Y-121526313D01*
X125095054Y-121453328D01*
X125305495Y-121346103D01*
X125496572Y-121207277D01*
X125663579Y-121040270D01*
X125802405Y-120849193D01*
X125909630Y-120638752D01*
X125982615Y-120414128D01*
X125991047Y-120360893D01*
X126019562Y-120180857D01*
X126019562Y-119944662D01*
X125982615Y-119711391D01*
X125921185Y-119522330D01*
X125909630Y-119486768D01*
X125909628Y-119486765D01*
X125909628Y-119486763D01*
X125802404Y-119276326D01*
X125779413Y-119244682D01*
X125663579Y-119085250D01*
X125496572Y-118918243D01*
X125305495Y-118779417D01*
X125095058Y-118672193D01*
X124870430Y-118599206D01*
X124637159Y-118562260D01*
X124637154Y-118562260D01*
X124400970Y-118562260D01*
X124400965Y-118562260D01*
X124167693Y-118599206D01*
X123943065Y-118672193D01*
X123732628Y-118779417D01*
X123657649Y-118833893D01*
X123541552Y-118918243D01*
X123541550Y-118918245D01*
X123541549Y-118918245D01*
X123374547Y-119085247D01*
X123374547Y-119085248D01*
X123374545Y-119085250D01*
X123366305Y-119096592D01*
X123235719Y-119276326D01*
X123128495Y-119486763D01*
X123055508Y-119711391D01*
X123018562Y-119944662D01*
X123018562Y-119977983D01*
X122998877Y-120045022D01*
X122946073Y-120090777D01*
X122881156Y-120101256D01*
X122723013Y-120084058D01*
X122723009Y-120084058D01*
X122539099Y-120104058D01*
X122363786Y-120163129D01*
X122205282Y-120258497D01*
X122205272Y-120258504D01*
X122173914Y-120285880D01*
X122173894Y-120285898D01*
X121954925Y-120504869D01*
X121893602Y-120538354D01*
X121867244Y-120541188D01*
X118159700Y-120541188D01*
X118092661Y-120521503D01*
X118046906Y-120468699D01*
X118035700Y-120417188D01*
X118035700Y-118974036D01*
X118035700Y-118974034D01*
X118032883Y-118932493D01*
X117988237Y-118752967D01*
X117906042Y-118587235D01*
X117834711Y-118498496D01*
X117790140Y-118443047D01*
X117687985Y-118360933D01*
X117645953Y-118327146D01*
X117645951Y-118327145D01*
X117645950Y-118327144D01*
X117480223Y-118244952D01*
X117480221Y-118244951D01*
X117300697Y-118200305D01*
X117300701Y-118200305D01*
X117269539Y-118198192D01*
X117259154Y-118197488D01*
X115811246Y-118197488D01*
X115799377Y-118198292D01*
X115769700Y-118200305D01*
X115590178Y-118244951D01*
X115590176Y-118244952D01*
X115424449Y-118327144D01*
X115280259Y-118443047D01*
X115164356Y-118587237D01*
X115082164Y-118752964D01*
X115082163Y-118752966D01*
X115037517Y-118932488D01*
X115034700Y-118974036D01*
X115034700Y-120417188D01*
X115015015Y-120484227D01*
X114962211Y-120529982D01*
X114910700Y-120541188D01*
X110935864Y-120541188D01*
X110868825Y-120521503D01*
X110823070Y-120468699D01*
X110813126Y-120399541D01*
X110825379Y-120360893D01*
X110864566Y-120283984D01*
X110864566Y-120283983D01*
X110864568Y-120283980D01*
X110937553Y-120059356D01*
X110964770Y-119887515D01*
X110974500Y-119826085D01*
X110974500Y-119589890D01*
X110937553Y-119356619D01*
X110864566Y-119131991D01*
X110762916Y-118932493D01*
X110757343Y-118921555D01*
X110618517Y-118730478D01*
X110451510Y-118563471D01*
X110260433Y-118424645D01*
X110049996Y-118317421D01*
X109825368Y-118244434D01*
X109592097Y-118207488D01*
X109592092Y-118207488D01*
X109355908Y-118207488D01*
X109355903Y-118207488D01*
X109122631Y-118244434D01*
X108898003Y-118317421D01*
X108687566Y-118424645D01*
X108585920Y-118498496D01*
X108496490Y-118563471D01*
X108496488Y-118563473D01*
X108496487Y-118563473D01*
X108329485Y-118730475D01*
X108329485Y-118730476D01*
X108329483Y-118730478D01*
X108293927Y-118779417D01*
X108190657Y-118921554D01*
X108083433Y-119131991D01*
X108010446Y-119356619D01*
X107973500Y-119589890D01*
X107973500Y-119826085D01*
X108010446Y-120059356D01*
X108083433Y-120283984D01*
X108122621Y-120360893D01*
X108135517Y-120429562D01*
X108109241Y-120494303D01*
X108052134Y-120534560D01*
X108012136Y-120541188D01*
X104003700Y-120541188D01*
X103936661Y-120521503D01*
X103890906Y-120468699D01*
X103879700Y-120417188D01*
X103879700Y-118974036D01*
X103879700Y-118974034D01*
X103876883Y-118932493D01*
X103832237Y-118752967D01*
X103750042Y-118587235D01*
X103678711Y-118498496D01*
X103634140Y-118443047D01*
X103531985Y-118360933D01*
X103489953Y-118327146D01*
X103489951Y-118327145D01*
X103489950Y-118327144D01*
X103324223Y-118244952D01*
X103324221Y-118244951D01*
X103144697Y-118200305D01*
X103144701Y-118200305D01*
X103113539Y-118198192D01*
X103103154Y-118197488D01*
X101655246Y-118197488D01*
X101643377Y-118198292D01*
X101613700Y-118200305D01*
X101434178Y-118244951D01*
X101434176Y-118244952D01*
X101268449Y-118327144D01*
X101124259Y-118443047D01*
X101008356Y-118587237D01*
X100926164Y-118752964D01*
X100926163Y-118752966D01*
X100881517Y-118932488D01*
X100878700Y-118974036D01*
X100878700Y-120417188D01*
X100859015Y-120484227D01*
X100806211Y-120529982D01*
X100754700Y-120541188D01*
X96779864Y-120541188D01*
X96712825Y-120521503D01*
X96667070Y-120468699D01*
X96657126Y-120399541D01*
X96669379Y-120360893D01*
X96708566Y-120283984D01*
X96708566Y-120283983D01*
X96708568Y-120283980D01*
X96781553Y-120059356D01*
X96808770Y-119887515D01*
X96818500Y-119826085D01*
X96818500Y-119589890D01*
X96781553Y-119356619D01*
X96708566Y-119131991D01*
X96606916Y-118932493D01*
X96601343Y-118921555D01*
X96462517Y-118730478D01*
X96295510Y-118563471D01*
X96104433Y-118424645D01*
X95893996Y-118317421D01*
X95669368Y-118244434D01*
X95436097Y-118207488D01*
X95436092Y-118207488D01*
X95199908Y-118207488D01*
X95199903Y-118207488D01*
X94966631Y-118244434D01*
X94742003Y-118317421D01*
X94531566Y-118424645D01*
X94429920Y-118498496D01*
X94340490Y-118563471D01*
X94340488Y-118563473D01*
X94340487Y-118563473D01*
X94173485Y-118730475D01*
X94173485Y-118730476D01*
X94173483Y-118730478D01*
X94137927Y-118779417D01*
X94034657Y-118921554D01*
X93927433Y-119131991D01*
X93854446Y-119356619D01*
X93817500Y-119589890D01*
X93817500Y-119826085D01*
X93854446Y-120059356D01*
X93927433Y-120283984D01*
X93966621Y-120360893D01*
X93979517Y-120429562D01*
X93953241Y-120494303D01*
X93896134Y-120534560D01*
X93856136Y-120541188D01*
X90972229Y-120541188D01*
X90905190Y-120521503D01*
X90859435Y-120468699D01*
X90849491Y-120399541D01*
X90854718Y-120377599D01*
X90895914Y-120255338D01*
X90913810Y-120090777D01*
X90915914Y-120071429D01*
X90915914Y-120071424D01*
X90902129Y-119944668D01*
X90895914Y-119887516D01*
X90836844Y-119712205D01*
X90741470Y-119553692D01*
X90714088Y-119522326D01*
X90714082Y-119522320D01*
X90714073Y-119522310D01*
X89690278Y-118498515D01*
X89690267Y-118498505D01*
X89690262Y-118498500D01*
X89678626Y-118488342D01*
X89658899Y-118471120D01*
X89658889Y-118471113D01*
X89500385Y-118375745D01*
X89500384Y-118375744D01*
X89500383Y-118375744D01*
X89325072Y-118316674D01*
X89141163Y-118296674D01*
X89141159Y-118296674D01*
X88957249Y-118316674D01*
X88781936Y-118375745D01*
X88623432Y-118471113D01*
X88623422Y-118471120D01*
X88592064Y-118498496D01*
X88592044Y-118498515D01*
X87568249Y-119522310D01*
X87568230Y-119522330D01*
X87540854Y-119553688D01*
X87540847Y-119553698D01*
X87445479Y-119712202D01*
X87386408Y-119887515D01*
X87366408Y-120071424D01*
X87366408Y-120071429D01*
X87383606Y-120229572D01*
X87371285Y-120298347D01*
X87323737Y-120349542D01*
X87260333Y-120366978D01*
X87227013Y-120366978D01*
X86993741Y-120403924D01*
X86769113Y-120476911D01*
X86558676Y-120584135D01*
X86483503Y-120638752D01*
X86367600Y-120722961D01*
X86367598Y-120722963D01*
X86367597Y-120722963D01*
X86200595Y-120889965D01*
X86200595Y-120889966D01*
X86200593Y-120889968D01*
X86149749Y-120959948D01*
X86061767Y-121081044D01*
X85954543Y-121291481D01*
X85881556Y-121516109D01*
X85844610Y-121749380D01*
X85844610Y-121985575D01*
X85881556Y-122218846D01*
X85954543Y-122443474D01*
X86061767Y-122653911D01*
X86200593Y-122844988D01*
X86200595Y-122844990D01*
X86202343Y-122846738D01*
X86202794Y-122847565D01*
X86203757Y-122848692D01*
X86203520Y-122848894D01*
X86235828Y-122908061D01*
X86230844Y-122977753D01*
X86203955Y-123020458D01*
X84854708Y-124420742D01*
X84794017Y-124455359D01*
X84724245Y-124451669D01*
X84677734Y-124422384D01*
X84313288Y-124057937D01*
X84313278Y-124057928D01*
X84313273Y-124057923D01*
X84301637Y-124047765D01*
X84281910Y-124030543D01*
X84281900Y-124030536D01*
X84123396Y-123935168D01*
X84123395Y-123935167D01*
X84123394Y-123935167D01*
X83948083Y-123876097D01*
X83764174Y-123856097D01*
X83764170Y-123856097D01*
X83580260Y-123876097D01*
X83404947Y-123935168D01*
X83246443Y-124030536D01*
X83246433Y-124030543D01*
X83215075Y-124057919D01*
X83215055Y-124057938D01*
X82191260Y-125081733D01*
X82191241Y-125081753D01*
X82163865Y-125113111D01*
X82163858Y-125113121D01*
X82068490Y-125271625D01*
X82009419Y-125446938D01*
X81989419Y-125630847D01*
X81989419Y-125630852D01*
X82006617Y-125788995D01*
X81994296Y-125857770D01*
X81946748Y-125908965D01*
X81883344Y-125926401D01*
X81850024Y-125926401D01*
X81616752Y-125963347D01*
X81392124Y-126036334D01*
X81181687Y-126143558D01*
X81072671Y-126222763D01*
X80990611Y-126282384D01*
X80990609Y-126282386D01*
X80990608Y-126282386D01*
X80823606Y-126449388D01*
X80823606Y-126449389D01*
X80823604Y-126449391D01*
X80794488Y-126489466D01*
X80684778Y-126640467D01*
X80577554Y-126850904D01*
X80504567Y-127075532D01*
X80467621Y-127308803D01*
X80467621Y-127544998D01*
X80504567Y-127778269D01*
X80577554Y-128002897D01*
X80670417Y-128185149D01*
X80684778Y-128213334D01*
X80823604Y-128404411D01*
X80990611Y-128571418D01*
X81181688Y-128710244D01*
X81274904Y-128757740D01*
X81392124Y-128817467D01*
X81392126Y-128817467D01*
X81392129Y-128817469D01*
X81505671Y-128854361D01*
X81616752Y-128890454D01*
X81850024Y-128927401D01*
X81850029Y-128927401D01*
X82086218Y-128927401D01*
X82319489Y-128890454D01*
X82360314Y-128877189D01*
X82515681Y-128826706D01*
X82585519Y-128824712D01*
X82645352Y-128860792D01*
X82676181Y-128923492D01*
X82675792Y-128967920D01*
X81993970Y-132534659D01*
X81984736Y-132552635D01*
X81980165Y-132572322D01*
X81965439Y-132590206D01*
X81962048Y-132596811D01*
X81958620Y-132600277D01*
X81952813Y-132605923D01*
X81950101Y-132607894D01*
X81925952Y-132632042D01*
X81925307Y-132632670D01*
X81895188Y-132648572D01*
X81865218Y-132664937D01*
X81864317Y-132664872D01*
X81863521Y-132665293D01*
X81829556Y-132662385D01*
X81795526Y-132659951D01*
X81794774Y-132659408D01*
X81793906Y-132659334D01*
X81782536Y-132650571D01*
X81742215Y-132621457D01*
X81642553Y-132497472D01*
X81556579Y-132428364D01*
X81498364Y-132381569D01*
X81498362Y-132381568D01*
X81498361Y-132381567D01*
X81332634Y-132299375D01*
X81332632Y-132299374D01*
X81153108Y-132254728D01*
X81153112Y-132254728D01*
X81121950Y-132252615D01*
X81111565Y-132251911D01*
X79663657Y-132251911D01*
X79651788Y-132252715D01*
X79622111Y-132254728D01*
X79442589Y-132299374D01*
X79442587Y-132299375D01*
X79276860Y-132381567D01*
X79132670Y-132497470D01*
X79016767Y-132641660D01*
X78934575Y-132807387D01*
X78934574Y-132807389D01*
X78889928Y-132986911D01*
X78887111Y-133028459D01*
X78887111Y-134476362D01*
X78889928Y-134517910D01*
X78934574Y-134697432D01*
X78934575Y-134697434D01*
X79016767Y-134863161D01*
X79132670Y-135007351D01*
X79188691Y-135052382D01*
X79276858Y-135123253D01*
X79442590Y-135205448D01*
X79622112Y-135250093D01*
X79622113Y-135250093D01*
X79622116Y-135250094D01*
X79663657Y-135252911D01*
X79663659Y-135252911D01*
X81111563Y-135252911D01*
X81111565Y-135252911D01*
X81153106Y-135250094D01*
X81302830Y-135212859D01*
X81372636Y-135215783D01*
X81429782Y-135255983D01*
X81456123Y-135320697D01*
X81454549Y-135356476D01*
X81327015Y-136023634D01*
X81966276Y-136910562D01*
X81989506Y-136976457D01*
X81986593Y-137010570D01*
X81829876Y-137699512D01*
X81795812Y-137760516D01*
X81792275Y-137763852D01*
X80849679Y-138618863D01*
X80849678Y-138618864D01*
X80678183Y-139522583D01*
X80646345Y-139584778D01*
X80631707Y-139596870D01*
X80632098Y-139597357D01*
X80482670Y-139717471D01*
X80383006Y-139841458D01*
X80325662Y-139881376D01*
X80255840Y-139883956D01*
X80198678Y-139851451D01*
X80175123Y-139827896D01*
X80175121Y-139827894D01*
X79984044Y-139689068D01*
X79773607Y-139581844D01*
X79548979Y-139508857D01*
X79315708Y-139471911D01*
X79315703Y-139471911D01*
X79079519Y-139471911D01*
X79079514Y-139471911D01*
X78846242Y-139508857D01*
X78621614Y-139581844D01*
X78411177Y-139689068D01*
X78302161Y-139768273D01*
X78220101Y-139827894D01*
X78220099Y-139827896D01*
X78220098Y-139827896D01*
X78053096Y-139994898D01*
X78053096Y-139994899D01*
X78053094Y-139994901D01*
X77993473Y-140076961D01*
X77914268Y-140185977D01*
X77807044Y-140396414D01*
X77734057Y-140621042D01*
X77697111Y-140854313D01*
X77697111Y-141090508D01*
X77734057Y-141323779D01*
X77807044Y-141548407D01*
X77848699Y-141630158D01*
X77914268Y-141758844D01*
X78053094Y-141949921D01*
X78220101Y-142116928D01*
X78411178Y-142255754D01*
X78510602Y-142306413D01*
X78621614Y-142362977D01*
X78621616Y-142362977D01*
X78621619Y-142362979D01*
X78742023Y-142402100D01*
X78846242Y-142435964D01*
X79079514Y-142472911D01*
X79079519Y-142472911D01*
X79315708Y-142472911D01*
X79548979Y-142435964D01*
X79604032Y-142418076D01*
X79773603Y-142362979D01*
X79953055Y-142271543D01*
X80021722Y-142258648D01*
X80086462Y-142284924D01*
X80126720Y-142342030D01*
X80131174Y-142405147D01*
X79305832Y-146754434D01*
X79273994Y-146816628D01*
X79213585Y-146851736D01*
X79143785Y-146848612D01*
X79106317Y-146827962D01*
X79098362Y-146821567D01*
X78932634Y-146739375D01*
X78932632Y-146739374D01*
X78753108Y-146694728D01*
X78753112Y-146694728D01*
X78721950Y-146692615D01*
X78711565Y-146691911D01*
X77263657Y-146691911D01*
X77251788Y-146692715D01*
X77222111Y-146694728D01*
X77042589Y-146739374D01*
X77042587Y-146739375D01*
X76876860Y-146821567D01*
X76732670Y-146937470D01*
X76616767Y-147081660D01*
X76534575Y-147247387D01*
X76534574Y-147247389D01*
X76489928Y-147426911D01*
X76487111Y-147468459D01*
X76487111Y-148916362D01*
X76489928Y-148957910D01*
X76534574Y-149137432D01*
X76534575Y-149137434D01*
X76616767Y-149303161D01*
X76732670Y-149447351D01*
X76814784Y-149513356D01*
X76876858Y-149563253D01*
X77042590Y-149645448D01*
X77222112Y-149690093D01*
X77222113Y-149690093D01*
X77222116Y-149690094D01*
X77263657Y-149692911D01*
X77263659Y-149692911D01*
X78598469Y-149692911D01*
X78665508Y-149712596D01*
X78711263Y-149765400D01*
X78721207Y-149834558D01*
X78720295Y-149840029D01*
X77903797Y-154142716D01*
X77871959Y-154204910D01*
X77811550Y-154240018D01*
X77741750Y-154236894D01*
X77709085Y-154219916D01*
X77584044Y-154129068D01*
X77373607Y-154021844D01*
X77148979Y-153948857D01*
X76915708Y-153911911D01*
X76915703Y-153911911D01*
X76679519Y-153911911D01*
X76679514Y-153911911D01*
X76446242Y-153948857D01*
X76221614Y-154021844D01*
X76011177Y-154129068D01*
X75906791Y-154204910D01*
X75820101Y-154267894D01*
X75820099Y-154267896D01*
X75820098Y-154267896D01*
X75653096Y-154434898D01*
X75653096Y-154434899D01*
X75653094Y-154434901D01*
X75593473Y-154516961D01*
X75514268Y-154625977D01*
X75407044Y-154836414D01*
X75334057Y-155061042D01*
X75297111Y-155294313D01*
X75297111Y-155530508D01*
X75334057Y-155763779D01*
X75407044Y-155988407D01*
X75514268Y-156198844D01*
X75653094Y-156389921D01*
X75820101Y-156556928D01*
X76011178Y-156695754D01*
X76110602Y-156746413D01*
X76221614Y-156802977D01*
X76221616Y-156802977D01*
X76221619Y-156802979D01*
X76342023Y-156842100D01*
X76446242Y-156875964D01*
X76679514Y-156912911D01*
X76679519Y-156912911D01*
X76915708Y-156912911D01*
X77082328Y-156886520D01*
X77148979Y-156875964D01*
X77201447Y-156858915D01*
X77271287Y-156856920D01*
X77331120Y-156893000D01*
X77361949Y-156955701D01*
X77361591Y-156999965D01*
X76591326Y-161059014D01*
X76559488Y-161121208D01*
X76499079Y-161156316D01*
X76439575Y-161156231D01*
X76353111Y-161134728D01*
X76353112Y-161134728D01*
X76321950Y-161132615D01*
X76311565Y-161131911D01*
X74863657Y-161131911D01*
X74851788Y-161132715D01*
X74822111Y-161134728D01*
X74642589Y-161179374D01*
X74642587Y-161179375D01*
X74476860Y-161261567D01*
X74332670Y-161377470D01*
X74216767Y-161521660D01*
X74134575Y-161687387D01*
X74134574Y-161687389D01*
X74089928Y-161866911D01*
X74087111Y-161908459D01*
X74087111Y-163356362D01*
X74089928Y-163397910D01*
X74134574Y-163577432D01*
X74134575Y-163577434D01*
X74216767Y-163743161D01*
X74332670Y-163887351D01*
X74414784Y-163953356D01*
X74476858Y-164003253D01*
X74642590Y-164085448D01*
X74822112Y-164130093D01*
X74822113Y-164130093D01*
X74822116Y-164130094D01*
X74863657Y-164132911D01*
X75858266Y-164132911D01*
X75925305Y-164152596D01*
X75971060Y-164205400D01*
X75981004Y-164274558D01*
X75980092Y-164280029D01*
X75198579Y-168398350D01*
X75166741Y-168460544D01*
X75106332Y-168495652D01*
X75036532Y-168492528D01*
X75020458Y-168485717D01*
X74973607Y-168461844D01*
X74748979Y-168388857D01*
X74515708Y-168351911D01*
X74515703Y-168351911D01*
X74279519Y-168351911D01*
X74279514Y-168351911D01*
X74046242Y-168388857D01*
X73821614Y-168461844D01*
X73611177Y-168569068D01*
X73502161Y-168648273D01*
X73420101Y-168707894D01*
X73420099Y-168707896D01*
X73420098Y-168707896D01*
X73253096Y-168874898D01*
X73253096Y-168874899D01*
X73253094Y-168874901D01*
X73193473Y-168956961D01*
X73114268Y-169065977D01*
X73007044Y-169276414D01*
X72934057Y-169501042D01*
X72897111Y-169734313D01*
X72897111Y-169970508D01*
X72934057Y-170203779D01*
X73007044Y-170428407D01*
X73114268Y-170638844D01*
X73253094Y-170829921D01*
X73420101Y-170996928D01*
X73611178Y-171135754D01*
X73707309Y-171184735D01*
X73821614Y-171242977D01*
X73821616Y-171242977D01*
X73821619Y-171242979D01*
X73942023Y-171282100D01*
X74046242Y-171315964D01*
X74279514Y-171352911D01*
X74488164Y-171352911D01*
X74555203Y-171372596D01*
X74600958Y-171425400D01*
X74610902Y-171494558D01*
X74609990Y-171500029D01*
X73856435Y-175471029D01*
X73824597Y-175533223D01*
X73764188Y-175568331D01*
X73734609Y-175571911D01*
X72463657Y-175571911D01*
X72451788Y-175572715D01*
X72422111Y-175574728D01*
X72242589Y-175619374D01*
X72242587Y-175619375D01*
X72076860Y-175701567D01*
X71932670Y-175817470D01*
X71816767Y-175961660D01*
X71734575Y-176127387D01*
X71734574Y-176127389D01*
X71689928Y-176306911D01*
X71687111Y-176348459D01*
X71687111Y-177796362D01*
X71689928Y-177837910D01*
X71734574Y-178017432D01*
X71734575Y-178017434D01*
X71816767Y-178183161D01*
X71932670Y-178327351D01*
X72014784Y-178393356D01*
X72076858Y-178443253D01*
X72242590Y-178525448D01*
X72422112Y-178570093D01*
X72422113Y-178570093D01*
X72422116Y-178570094D01*
X72463657Y-178572911D01*
X73118062Y-178572911D01*
X73185101Y-178592596D01*
X73230856Y-178645400D01*
X73240800Y-178714558D01*
X73239888Y-178720029D01*
X72479357Y-182727785D01*
X72447519Y-182789979D01*
X72387110Y-182825087D01*
X72338133Y-182827140D01*
X72115708Y-182791911D01*
X72115703Y-182791911D01*
X71879519Y-182791911D01*
X71879514Y-182791911D01*
X71646242Y-182828857D01*
X71421614Y-182901844D01*
X71211177Y-183009068D01*
X71102161Y-183088273D01*
X71020101Y-183147894D01*
X71020099Y-183147896D01*
X71020098Y-183147896D01*
X70853096Y-183314898D01*
X70853096Y-183314899D01*
X70853094Y-183314901D01*
X70793473Y-183396961D01*
X70714268Y-183505977D01*
X70607044Y-183716414D01*
X70534057Y-183941042D01*
X70497111Y-184174313D01*
X70497111Y-184410508D01*
X70534057Y-184643779D01*
X70607044Y-184868407D01*
X70679180Y-185009980D01*
X70714268Y-185078844D01*
X70853094Y-185269921D01*
X71020101Y-185436928D01*
X71211178Y-185575754D01*
X71310602Y-185626413D01*
X71421614Y-185682977D01*
X71421616Y-185682977D01*
X71421619Y-185682979D01*
X71486543Y-185704074D01*
X71646242Y-185755964D01*
X71770913Y-185775710D01*
X71834048Y-185805639D01*
X71870979Y-185864951D01*
X71873341Y-185921301D01*
X71116231Y-189911029D01*
X71084393Y-189973223D01*
X71023984Y-190008331D01*
X70994405Y-190011911D01*
X70063657Y-190011911D01*
X70051788Y-190012715D01*
X70022111Y-190014728D01*
X69842589Y-190059374D01*
X69842587Y-190059375D01*
X69676860Y-190141567D01*
X69532670Y-190257470D01*
X69416767Y-190401660D01*
X69334575Y-190567387D01*
X69334574Y-190567389D01*
X69289928Y-190746911D01*
X69287111Y-190788459D01*
X69287111Y-192236362D01*
X69289928Y-192277910D01*
X69334574Y-192457432D01*
X69334575Y-192457434D01*
X69416767Y-192623161D01*
X69532670Y-192767351D01*
X69614784Y-192833356D01*
X69676858Y-192883253D01*
X69842590Y-192965448D01*
X70022112Y-193010093D01*
X70022113Y-193010093D01*
X70022116Y-193010094D01*
X70063657Y-193012911D01*
X70377859Y-193012911D01*
X70444898Y-193032596D01*
X70490653Y-193085400D01*
X70500597Y-193154558D01*
X70499685Y-193160029D01*
X69746128Y-197131029D01*
X69714290Y-197193223D01*
X69653881Y-197228331D01*
X69624302Y-197231911D01*
X69479514Y-197231911D01*
X69246242Y-197268857D01*
X69021614Y-197341844D01*
X68811177Y-197449068D01*
X68702161Y-197528273D01*
X68620101Y-197587894D01*
X68620099Y-197587896D01*
X68620098Y-197587896D01*
X68453096Y-197754898D01*
X68453096Y-197754899D01*
X68453094Y-197754901D01*
X68393473Y-197836961D01*
X68314268Y-197945977D01*
X68207044Y-198156414D01*
X68134057Y-198381042D01*
X68097111Y-198614313D01*
X68097111Y-198850508D01*
X68134057Y-199083779D01*
X68207044Y-199308407D01*
X68314268Y-199518844D01*
X68453094Y-199709921D01*
X68620101Y-199876928D01*
X68811178Y-200015754D01*
X69021619Y-200122979D01*
X69065389Y-200137200D01*
X69123063Y-200176637D01*
X69150262Y-200240996D01*
X69148896Y-200278249D01*
X68376027Y-204351029D01*
X68344189Y-204413223D01*
X68283780Y-204448331D01*
X68254201Y-204451911D01*
X67663657Y-204451911D01*
X67651788Y-204452715D01*
X67622111Y-204454728D01*
X67442589Y-204499374D01*
X67442587Y-204499375D01*
X67276860Y-204581567D01*
X67132670Y-204697470D01*
X67016767Y-204841660D01*
X66934575Y-205007387D01*
X66934574Y-205007389D01*
X66889928Y-205186911D01*
X66887111Y-205228459D01*
X66887111Y-206676362D01*
X66889928Y-206717910D01*
X66934574Y-206897432D01*
X66934575Y-206897434D01*
X67016767Y-207063161D01*
X67132670Y-207207351D01*
X67214784Y-207273356D01*
X67276858Y-207323253D01*
X67442590Y-207405448D01*
X67622112Y-207450093D01*
X67622116Y-207450094D01*
X67646323Y-207451735D01*
X67711876Y-207475911D01*
X67753953Y-207531689D01*
X67759758Y-207598569D01*
X67017614Y-211509429D01*
X66985776Y-211571623D01*
X66925367Y-211606731D01*
X66915186Y-211608784D01*
X66768246Y-211632057D01*
X66768243Y-211632058D01*
X66566145Y-211697724D01*
X66543616Y-211705044D01*
X66333177Y-211812268D01*
X66224161Y-211891473D01*
X66142101Y-211951094D01*
X66142099Y-211951096D01*
X66142098Y-211951096D01*
X65975096Y-212118098D01*
X65975096Y-212118099D01*
X65975094Y-212118101D01*
X65915473Y-212200161D01*
X65836268Y-212309177D01*
X65729044Y-212519614D01*
X65656057Y-212744242D01*
X65619111Y-212977513D01*
X63994837Y-212977513D01*
X64004139Y-212731546D01*
X64005107Y-212720083D01*
X64031448Y-212519614D01*
X64057132Y-212324134D01*
X64058013Y-212318454D01*
X64059673Y-212309178D01*
X64069114Y-212256422D01*
X64067943Y-212242639D01*
X64069145Y-212212007D01*
X77636703Y-129820255D01*
X77638426Y-129816270D01*
X77647400Y-129755295D01*
X77648345Y-129749554D01*
X77648862Y-129746637D01*
X77711176Y-129417807D01*
X77713484Y-129407882D01*
X77802452Y-129085869D01*
X77805570Y-129076158D01*
X77861616Y-128923492D01*
X77920711Y-128762519D01*
X77924605Y-128753125D01*
X78065142Y-128449991D01*
X78069790Y-128440959D01*
X78234767Y-128150400D01*
X78240138Y-128141786D01*
X78428443Y-127865760D01*
X78434506Y-127857614D01*
X78638395Y-127605975D01*
X78646807Y-127596610D01*
X88219132Y-117971986D01*
X88223889Y-117967452D01*
X88482214Y-117734026D01*
X88490446Y-117727209D01*
X88766728Y-117517895D01*
X88775475Y-117511845D01*
X89068804Y-117327166D01*
X89078064Y-117321881D01*
X89386210Y-117163238D01*
X89395939Y-117158751D01*
X89716607Y-117027318D01*
X89726656Y-117023698D01*
X90057503Y-116920437D01*
X90067850Y-116917692D01*
X90406369Y-116843388D01*
X90416894Y-116841550D01*
X90760569Y-116796752D01*
X90771215Y-116795830D01*
X91119323Y-116780795D01*
X91124616Y-116780681D01*
X123589333Y-116771329D01*
X123589462Y-116771329D01*
X123589654Y-116771381D01*
X123652722Y-116771314D01*
X123652768Y-116771314D01*
X123652776Y-116771316D01*
G37*
%TD.AperFunction*%
%TD*%
M02*
