M48
; DRILL file {KiCad 9.0.7} date 2026-02-21T04:12:59+0200
; FORMAT={-:-/ absolute / metric / decimal}
; #@! TF.CreationDate,2026-02-21T04:12:59+02:00
; #@! TF.GenerationSoftware,Kicad,Pcbnew,9.0.7
; #@! TF.FileFunction,Plated,1,2,PTH
FMAT,2
METRIC
; #@! TA.AperFunction,Plated,PTH,ViaDrill
T1C0.300
; #@! TA.AperFunction,Plated,PTH,ComponentDrill
T2C0.800
; #@! TA.AperFunction,Plated,PTH,ComponentDrill
T3C0.900
%
G90
G05
T1
X89.097Y-114.357
X90.16Y-116.85
X91.332Y-109.952
X92.513Y-117.807
X93.495Y-108.077
X97.65Y-106.123
X99.371Y-99.265
X100.133Y-117.807
X101.192Y-103.625
X102.564Y-102.718
X103.071Y-106.378
X103.996Y-107.303
X106.715Y-101.206
X106.807Y-111.125
X107.051Y-103.261
X107.226Y-98.122
X107.881Y-83.208
X108.255Y-100.946
X109.741Y-81.547
X111.015Y-86.266
X111.622Y-81.216
X113.834Y-117.729
X114.423Y-77.597
X115.294Y-94.742
X115.367Y-75.286
X115.944Y-83.961
X116.019Y-69.494
X116.195Y-88.922
X116.241Y-96.598
X116.821Y-72.721
X117.151Y-86.692
X117.259Y-84.003
X118.079Y-101.981
X118.079Y-89.151
X118.878Y-84.276
X119.392Y-86.101
X120.081Y-88.077
X120.245Y-104.292
X121.566Y-82.948
X123.913Y-195.58
X124.481Y-70.718
X125.541Y-61.076
X125.969Y-207.449
X127.341Y-63.931
X127.576Y-189.16
X128.241Y-61.976
X128.476Y-181.837
X131.202Y-152.283
X131.329Y-200.787
X135.052Y-194.086
X135.255Y-165.238
X135.742Y-166.138
X135.945Y-184.06
X136.019Y-167.134
X136.87Y-182.234
X136.87Y-186.69
X136.955Y-160.628
X138.228Y-161.901
X139.573Y-160.655
X141.351Y-183.134
X143.79Y-172.492
X145.271Y-164.315
X145.415Y-166.497
X145.655Y-165.238
X146.729Y-150.684
X147.371Y-171.044
X149.114Y-151.495
X150.494Y-160.4
X152.944Y-153.308
T2
X94.528Y-114.614
X95.942Y-116.029
X108.966Y-110.49
X109.728Y-113.538
X111.125Y-108.331
X111.633Y-115.443
X111.887Y-111.379
X113.284Y-106.172
X113.792Y-113.284
X114.046Y-109.22
X115.697Y-115.316
X115.951Y-111.125
X116.205Y-107.061
X117.856Y-113.157
X118.11Y-108.966
X133.604Y-153.797
X133.858Y-149.606
X135.509Y-155.702
X135.763Y-151.638
X136.017Y-147.447
X137.668Y-153.543
X137.922Y-149.479
X138.43Y-156.591
X139.827Y-151.384
X140.03Y-147.345
X140.716Y-154.305
X141.961Y-149.276
X143.129Y-152.019
T3
X80.224Y-121.609
X82.02Y-119.813
X83.649Y-114.398
X86.189Y-114.398
X87.302Y-121.609
X87.429Y-108.068
X89.098Y-119.813
X89.969Y-108.068
X91.209Y-101.738
X93.749Y-101.738
X94.38Y-121.609
X94.989Y-95.408
X96.176Y-119.813
X97.529Y-95.408
X98.769Y-89.078
X101.309Y-89.078
X101.458Y-121.609
X102.549Y-82.748
X103.254Y-119.813
X105.089Y-82.748
X106.329Y-76.418
X108.536Y-121.609
X108.869Y-76.418
X110.109Y-70.088
X110.332Y-119.813
X112.649Y-70.088
X112.999Y-236.048
X113.889Y-63.758
X114.277Y-228.904
X114.795Y-234.252
X115.477Y-221.684
X115.614Y-121.609
X116.073Y-227.108
X116.429Y-63.758
X116.677Y-214.464
X117.273Y-219.888
X117.41Y-119.813
X117.669Y-57.428
X117.877Y-207.244
X118.473Y-212.668
X118.703Y-225.292
X119.077Y-200.024
X119.673Y-205.448
X120.209Y-57.428
X120.277Y-192.804
X120.873Y-198.228
X120.979Y-116.041
X121.243Y-225.292
X121.449Y-51.098
X121.477Y-185.584
X122.073Y-191.008
X122.179Y-108.821
X122.483Y-218.962
X122.677Y-178.364
X122.775Y-114.245
X123.273Y-183.788
X123.379Y-101.601
X123.877Y-171.144
X123.975Y-107.025
X123.989Y-51.098
X124.473Y-176.568
X124.579Y-94.381
X125.023Y-218.962
X125.077Y-163.924
X125.175Y-99.805
X125.229Y-44.768
X125.673Y-169.348
X125.779Y-87.161
X126.263Y-212.632
X126.277Y-156.704
X126.375Y-92.585
X126.873Y-162.128
X126.979Y-79.941
X127.477Y-149.484
X127.575Y-85.365
X127.769Y-44.768
X128.073Y-154.908
X128.179Y-72.721
X128.775Y-78.145
X128.803Y-212.632
X129.009Y-38.438
X129.273Y-147.688
X129.379Y-65.501
X129.975Y-70.925
X130.043Y-206.302
X130.579Y-58.281
X131.175Y-63.705
X131.549Y-38.438
X131.779Y-51.061
X132.375Y-56.485
X132.583Y-206.302
X132.842Y-143.916
X132.979Y-43.841
X133.575Y-49.265
X133.823Y-199.972
X134.179Y-36.621
X134.638Y-142.12
X134.775Y-42.045
X135.457Y-29.478
X135.975Y-34.825
X136.363Y-199.972
X137.253Y-27.682
X137.603Y-193.642
X139.92Y-143.916
X140.143Y-193.642
X141.383Y-187.312
X141.716Y-142.12
X143.923Y-187.312
X145.163Y-180.982
X146.998Y-143.916
X147.703Y-180.982
X148.794Y-142.12
X148.943Y-174.652
X151.483Y-174.652
X152.723Y-168.322
X154.076Y-143.916
X155.263Y-168.322
X155.872Y-142.12
X156.503Y-161.992
X159.043Y-161.992
X160.283Y-155.662
X161.154Y-143.916
X162.823Y-155.662
X162.95Y-142.12
X164.063Y-149.332
X166.603Y-149.332
X168.232Y-143.916
X170.028Y-142.12
M30
