%TF.GenerationSoftware,KiCad,Pcbnew,9.0.7*%
%TF.CreationDate,2026-02-21T04:13:01+02:00*%
%TF.ProjectId,kicad_selka_mk2,6b696361-645f-4736-956c-6b615f6d6b32,rev?*%
%TF.SameCoordinates,Original*%
%TF.FileFunction,Soldermask,Top*%
%TF.FilePolarity,Negative*%
%FSLAX46Y46*%
G04 Gerber Fmt 4.6, Leading zero omitted, Abs format (unit mm)*
G04 Created by KiCad (PCBNEW 9.0.7) date 2026-02-21 04:13:01*
%MOMM*%
%LPD*%
G01*
G04 APERTURE LIST*
G04 Aperture macros list*
%AMRotRect*
0 Rectangle, with rotation*
0 The origin of the aperture is its center*
0 $1 length*
0 $2 width*
0 $3 Rotation angle, in degrees counterclockwise*
0 Add horizontal line*
21,1,$1,$2,0,0,$3*%
G04 Aperture macros list end*
%ADD10R,1.800000X1.800000*%
%ADD11C,1.800000*%
%ADD12RotRect,1.800000X1.800000X225.000000*%
%ADD13RotRect,1.800000X1.800000X45.000000*%
%ADD14C,1.400000*%
%ADD15RotRect,1.350000X1.350000X225.000000*%
%ADD16C,1.350000*%
G04 APERTURE END LIST*
D10*
%TO.C,D31*%
X133823200Y-199972000D03*
D11*
X136363200Y-199972000D03*
%TD*%
D12*
%TO.C,D18*%
X124473161Y-176568439D03*
D11*
X122677110Y-178364490D03*
%TD*%
D12*
%TO.C,D25*%
X116073161Y-227108439D03*
D11*
X114277110Y-228904490D03*
%TD*%
D12*
%TO.C,D46*%
X117409792Y-119813249D03*
D11*
X115613741Y-121609300D03*
%TD*%
D10*
%TO.C,D62*%
X123988592Y-51097649D03*
D11*
X121448592Y-51097649D03*
%TD*%
D10*
%TO.C,D60*%
X116428592Y-63757649D03*
D11*
X113888592Y-63757649D03*
%TD*%
D13*
%TO.C,D10*%
X124578631Y-94381210D03*
D11*
X126374682Y-92585159D03*
%TD*%
D12*
%TO.C,D21*%
X120873161Y-198228439D03*
D11*
X119077110Y-200024490D03*
%TD*%
D13*
%TO.C,D43*%
X146998000Y-143916400D03*
D11*
X148794051Y-142120349D03*
%TD*%
D13*
%TO.C,D41*%
X161154000Y-143916400D03*
D11*
X162950051Y-142120349D03*
%TD*%
D10*
%TO.C,D34*%
X145163200Y-180982000D03*
D11*
X147703200Y-180982000D03*
%TD*%
D10*
%TO.C,D27*%
X118703200Y-225292000D03*
D11*
X121243200Y-225292000D03*
%TD*%
D13*
%TO.C,D11*%
X123378631Y-101601210D03*
D11*
X125174682Y-99805159D03*
%TD*%
D12*
%TO.C,D14*%
X129273161Y-147688439D03*
D11*
X127477110Y-149484490D03*
%TD*%
D10*
%TO.C,D58*%
X108868592Y-76417649D03*
D11*
X106328592Y-76417649D03*
%TD*%
D10*
%TO.C,D39*%
X164063200Y-149332000D03*
D11*
X166603200Y-149332000D03*
%TD*%
D10*
%TO.C,D56*%
X101308592Y-89077649D03*
D11*
X98768592Y-89077649D03*
%TD*%
D10*
%TO.C,D57*%
X105088592Y-82747649D03*
D11*
X102548592Y-82747649D03*
%TD*%
D12*
%TO.C,D47*%
X110331792Y-119813249D03*
D11*
X108535741Y-121609300D03*
%TD*%
D13*
%TO.C,D1*%
X135456631Y-29478010D03*
D11*
X137252682Y-27681959D03*
%TD*%
D13*
%TO.C,D40*%
X168232000Y-143916400D03*
D11*
X170028051Y-142120349D03*
%TD*%
D10*
%TO.C,D38*%
X160283200Y-155662000D03*
D11*
X162823200Y-155662000D03*
%TD*%
D10*
%TO.C,D54*%
X93748592Y-101737649D03*
D11*
X91208592Y-101737649D03*
%TD*%
D12*
%TO.C,D20*%
X122073161Y-191008439D03*
D11*
X120277110Y-192804490D03*
%TD*%
D10*
%TO.C,D63*%
X127768592Y-44767649D03*
D11*
X125228592Y-44767649D03*
%TD*%
D13*
%TO.C,D2*%
X134178631Y-36621210D03*
D11*
X135974682Y-34825159D03*
%TD*%
D12*
%TO.C,D22*%
X119673161Y-205448439D03*
D11*
X117877110Y-207244490D03*
%TD*%
D12*
%TO.C,D49*%
X96175792Y-119813249D03*
D11*
X94379741Y-121609300D03*
%TD*%
D13*
%TO.C,D44*%
X139920000Y-143916400D03*
D11*
X141716051Y-142120349D03*
%TD*%
D10*
%TO.C,D32*%
X137603200Y-193642000D03*
D11*
X140143200Y-193642000D03*
%TD*%
D12*
%TO.C,D48*%
X103253792Y-119813249D03*
D11*
X101457741Y-121609300D03*
%TD*%
D12*
%TO.C,D16*%
X126873161Y-162128439D03*
D11*
X125077110Y-163924490D03*
%TD*%
D12*
%TO.C,D51*%
X82019792Y-119813249D03*
D11*
X80223741Y-121609300D03*
%TD*%
D10*
%TO.C,D30*%
X130043200Y-206302000D03*
D11*
X132583200Y-206302000D03*
%TD*%
D13*
%TO.C,D8*%
X126978631Y-79941210D03*
D11*
X128774682Y-78145159D03*
%TD*%
D10*
%TO.C,D53*%
X89968592Y-108067649D03*
D11*
X87428592Y-108067649D03*
%TD*%
D10*
%TO.C,D35*%
X148943200Y-174652000D03*
D11*
X151483200Y-174652000D03*
%TD*%
D13*
%TO.C,D42*%
X154076000Y-143916400D03*
D11*
X155872051Y-142120349D03*
%TD*%
D13*
%TO.C,D3*%
X132978631Y-43841210D03*
D11*
X134774682Y-42045159D03*
%TD*%
D12*
%TO.C,D19*%
X123273161Y-183788439D03*
D11*
X121477110Y-185584490D03*
%TD*%
D12*
%TO.C,D15*%
X128073161Y-154908439D03*
D11*
X126277110Y-156704490D03*
%TD*%
D13*
%TO.C,D45*%
X132842000Y-143916400D03*
D11*
X134638051Y-142120349D03*
%TD*%
D13*
%TO.C,D9*%
X125778631Y-87161210D03*
D11*
X127574682Y-85365159D03*
%TD*%
D10*
%TO.C,D59*%
X112648592Y-70087649D03*
D11*
X110108592Y-70087649D03*
%TD*%
D12*
%TO.C,D50*%
X89097792Y-119813249D03*
D11*
X87301741Y-121609300D03*
%TD*%
D10*
%TO.C,D29*%
X126263200Y-212632000D03*
D11*
X128803200Y-212632000D03*
%TD*%
D12*
%TO.C,D24*%
X117273161Y-219888439D03*
D11*
X115477110Y-221684490D03*
%TD*%
D10*
%TO.C,D55*%
X97528592Y-95407649D03*
D11*
X94988592Y-95407649D03*
%TD*%
D12*
%TO.C,D17*%
X125673161Y-169348439D03*
D11*
X123877110Y-171144490D03*
%TD*%
D13*
%TO.C,D6*%
X129378631Y-65501210D03*
D11*
X131174682Y-63705159D03*
%TD*%
D13*
%TO.C,D5*%
X130578631Y-58281210D03*
D11*
X132374682Y-56485159D03*
%TD*%
D10*
%TO.C,D64*%
X131548592Y-38437649D03*
D11*
X129008592Y-38437649D03*
%TD*%
D10*
%TO.C,D52*%
X86188592Y-114397649D03*
D11*
X83648592Y-114397649D03*
%TD*%
D10*
%TO.C,D37*%
X156503200Y-161992000D03*
D11*
X159043200Y-161992000D03*
%TD*%
D12*
%TO.C,D26*%
X114795161Y-234251639D03*
D11*
X112999110Y-236047690D03*
%TD*%
D13*
%TO.C,D4*%
X131778631Y-51061210D03*
D11*
X133574682Y-49265159D03*
%TD*%
D10*
%TO.C,D61*%
X120208592Y-57427649D03*
D11*
X117668592Y-57427649D03*
%TD*%
D10*
%TO.C,D36*%
X152723200Y-168322000D03*
D11*
X155263200Y-168322000D03*
%TD*%
D10*
%TO.C,D33*%
X141383200Y-187312000D03*
D11*
X143923200Y-187312000D03*
%TD*%
D13*
%TO.C,D13*%
X120978631Y-116041210D03*
D11*
X122774682Y-114245159D03*
%TD*%
D13*
%TO.C,D7*%
X128178631Y-72721210D03*
D11*
X129974682Y-70925159D03*
%TD*%
D13*
%TO.C,D12*%
X122178631Y-108821210D03*
D11*
X123974682Y-107025159D03*
%TD*%
D12*
%TO.C,D23*%
X118473161Y-212668439D03*
D11*
X116677110Y-214464490D03*
%TD*%
D10*
%TO.C,D28*%
X122483200Y-218962000D03*
D11*
X125023200Y-218962000D03*
%TD*%
D14*
%TO.C,J23*%
X114046000Y-109220000D03*
%TD*%
%TO.C,J17*%
X117856000Y-113157000D03*
%TD*%
%TO.C,J13*%
X115951000Y-111125000D03*
%TD*%
%TO.C,J21*%
X118110000Y-108966000D03*
%TD*%
%TO.C,J12*%
X141960600Y-149275800D03*
%TD*%
%TO.C,J14*%
X140030200Y-147345400D03*
%TD*%
%TO.C,J24*%
X137668000Y-153543000D03*
%TD*%
%TO.C,J8*%
X143129000Y-152019000D03*
%TD*%
D15*
%TO.C,J27*%
X94527578Y-114614435D03*
D16*
X95941792Y-116028649D03*
%TD*%
D14*
%TO.C,J4*%
X138430000Y-156591000D03*
%TD*%
%TO.C,J10*%
X136017000Y-147447000D03*
%TD*%
%TO.C,J2*%
X133604000Y-153797000D03*
%TD*%
%TO.C,J26*%
X135509000Y-155702000D03*
%TD*%
%TO.C,J18*%
X135763000Y-151638000D03*
%TD*%
%TO.C,J9*%
X109728000Y-113538000D03*
%TD*%
%TO.C,J11*%
X111633000Y-115443000D03*
%TD*%
%TO.C,J1*%
X116205000Y-107061000D03*
%TD*%
%TO.C,J7*%
X113284000Y-106172000D03*
%TD*%
%TO.C,J22*%
X139827000Y-151384000D03*
%TD*%
%TO.C,J25*%
X111887000Y-111379000D03*
%TD*%
%TO.C,J3*%
X108966000Y-110490000D03*
%TD*%
%TO.C,J5*%
X111125000Y-108331000D03*
%TD*%
%TO.C,J15*%
X113792000Y-113284000D03*
%TD*%
%TO.C,J16*%
X137922000Y-149479000D03*
%TD*%
%TO.C,J19*%
X115697000Y-115316000D03*
%TD*%
%TO.C,J6*%
X140716000Y-154305000D03*
%TD*%
%TO.C,J20*%
X133858000Y-149606000D03*
%TD*%
M02*
